  0
SECTION
  2
HEADER
  9
$ACADVER
  1
AC1009
  9
$INSBASE
 10
0.0
 20
0.0
 30
0.0
  9
$EXTMIN
 10
503.55426815072008
 20
2249.6789378085732
 30
0.0
  9
$EXTMAX
 10
773.18719422407037
 20
2443.0653412819279
 30
0.0
  9
$LIMMIN
 10
0.0
 20
0.0
  9
$LIMMAX
 10
0.0
 20
0.0
  9
$ORTHOMODE
 70
     0
  9
$REGENMODE
 70
     1
  9
$FILLMODE
 70
     1
  9
$QTEXTMODE
 70
     0
  9
$MIRRTEXT
 70
     1
  9
$DRAGMODE
 70
     2
  9
$LTSCALE
 40
10.0
  9
$OSMODE
 70
    47
  9
$ATTMODE
 70
     1
  9
$TEXTSIZE
 40
2.0
  9
$TRACEWID
 40
0.05
  9
$TEXTSTYLE
  7
MECHTRONICS
  9
$CLAYER
  8
0
  9
$CELTYPE
  6
BYLAYER
  9
$CECOLOR
 62
   256
  9
$DIMSCALE
 40
1.0
  9
$DIMASZ
 40
2.0
  9
$DIMEXO
 40
1.0
  9
$DIMDLI
 40
6.0
  9
$DIMRND
 40
0.0
  9
$DIMDLE
 40
0.0
  9
$DIMEXE
 40
0.5
  9
$DIMTP
 40
0.0
  9
$DIMTM
 40
0.0
  9
$DIMTXT
 40
2.0
  9
$DIMCEN
 40
0.09
  9
$DIMTSZ
 40
0.0
  9
$DIMTOL
 70
     0
  9
$DIMLIM
 70
     0
  9
$DIMTIH
 70
     0
  9
$DIMTOH
 70
     1
  9
$DIMSE1
 70
     0
  9
$DIMSE2
 70
     0
  9
$DIMTAD
 70
     0
  9
$DIMZIN
 70
     0
  9
$DIMBLK
  1

  9
$DIMASO
 70
     1
  9
$DIMSHO
 70
     1
  9
$DIMPOST
  1

  9
$DIMAPOST
  1

  9
$DIMALT
 70
     0
  9
$DIMALTD
 70
     2
  9
$DIMALTF
 40
25.399999999999999
  9
$DIMLFAC
 40
1.0
  9
$DIMTOFL
 70
     0
  9
$DIMTVP
 40
0.0
  9
$DIMTIX
 70
     0
  9
$DIMSOXD
 70
     0
  9
$DIMSAH
 70
     0
  9
$DIMBLK1
  1

  9
$DIMBLK2
  1

  9
$DIMSTYLE
  2
MECHTRONICS
  9
$DIMCLRD
 70
     7
  9
$DIMCLRE
 70
     7
  9
$DIMCLRT
 70
     0
  9
$DIMTFAC
 40
1.0
  9
$DIMGAP
 40
0.5
  9
$LUNITS
 70
     2
  9
$LUPREC
 70
    10
  9
$SKETCHINC
 40
0.1
  9
$FILLETRAD
 40
0.0
  9
$AUNITS
 70
     0
  9
$AUPREC
 70
     0
  9
$MENU
  1
acad
  9
$ELEVATION
 40
0.0
  9
$PELEVATION
 40
0.0
  9
$THICKNESS
 40
0.0
  9
$LIMCHECK
 70
     0
  9
$BLIPMODE
 70
     0
  9
$CHAMFERA
 40
0.0
  9
$CHAMFERB
 40
0.0
  9
$SKPOLY
 70
     0
  9
$TDCREATE
 40
2444972.083333333
  9
$TDUPDATE
 40
2454646.8325251271
  9
$TDINDWG
 40
1.1126266088000001
  9
$TDUSRTIMER
 40
1.1126266088000001
  9
$USRTIMER
 70
     1
  9
$ANGBASE
 50
0.0
  9
$ANGDIR
 70
     0
  9
$PDMODE
 70
     0
  9
$PDSIZE
 40
0.0
  9
$PLINEWID
 40
0.0
  9
$COORDS
 70
     1
  9
$SPLFRAME
 70
     0
  9
$SPLINETYPE
 70
     6
  9
$SPLINESEGS
 70
     8
  9
$ATTDIA
 70
     0
  9
$ATTREQ
 70
     1
  9
$HANDLING
 70
     1
  9
$HANDSEED
  5
4E7D
  9
$SURFTAB1
 70
     6
  9
$SURFTAB2
 70
     6
  9
$SURFTYPE
 70
     6
  9
$SURFU
 70
     6
  9
$SURFV
 70
     6
  9
$UCSNAME
  2

  9
$UCSORG
 10
0.0
 20
0.0
 30
0.0
  9
$UCSXDIR
 10
1.0
 20
0.0
 30
0.0
  9
$UCSYDIR
 10
0.0
 20
1.0
 30
0.0
  9
$PUCSNAME
  2

  9
$PUCSORG
 10
0.0
 20
0.0
 30
0.0
  9
$PUCSXDIR
 10
1.0
 20
0.0
 30
0.0
  9
$PUCSYDIR
 10
0.0
 20
1.0
 30
0.0
  9
$USERI1
 70
     0
  9
$USERI2
 70
     0
  9
$USERI3
 70
     0
  9
$USERI4
 70
     0
  9
$USERI5
 70
     0
  9
$USERR1
 40
0.0
  9
$USERR2
 40
0.0
  9
$USERR3
 40
0.0
  9
$USERR4
 40
0.0
  9
$USERR5
 40
0.0
  9
$WORLDVIEW
 70
     1
  9
$SHADEDGE
 70
     3
  9
$SHADEDIF
 70
    70
  9
$TILEMODE
 70
     1
  9
$MAXACTVP
 70
    16
  9
$PLIMCHECK
 70
     0
  9
$PEXTMIN
 10
1.088750099572608
 20
0.7937499998122686
 30
0.0
  9
$PEXTMAX
 10
21.184573317709511
 20
7.1437499983104198
 30
0.0
  9
$PLIMMIN
 10
0.0
 20
0.0
  9
$PLIMMAX
 10
12.0
 20
9.0
  9
$UNITMODE
 70
     0
  9
$VISRETAIN
 70
     0
  9
$PLINEGEN
 70
     1
  9
$PSLTSCALE
 70
     0
  0
ENDSEC
  0
SECTION
  2
TABLES
  0
TABLE
  2
VPORT
 70
     2
  0
VPORT
  2
*ACTIVE
 70
     0
 10
0.0
 20
0.0
 11
1.0
 21
1.0
 12
678.84176336974406
 22
2346.4306549798061
 13
0.0
 23
0.0
 14
1.0
 24
1.0
 15
0.0
 25
0.0
 16
0.0
 26
0.0
 36
1.0
 17
0.0
 27
0.0
 37
0.0
 40
202.5771976914902
 41
1.7423423423423421
 42
50.0
 43
0.0
 44
0.0
 50
0.0
 51
0.0
 71
     0
 72
   100
 73
     1
 74
     0
 75
     0
 76
     0
 77
     0
 78
     0
  0
ENDTAB
  0
TABLE
  2
LTYPE
 70
     1
  0
LTYPE
  2
CONTINUOUS
 70
     0
  3
Solid line
 72
    65
 73
     0
 40
0.0
  0
ENDTAB
  0
TABLE
  2
LAYER
 70
     6
  0
LAYER
  2
0
 70
     0
 62
   221
  6
CONTINUOUS
  0
LAYER
  2
50_DIMENSIONS
 70
     0
 62
     7
  6
CONTINUOUS
  0
LAYER
  2
10_OUTLINE
 70
     0
 62
     2
  6
CONTINUOUS
  0
LAYER
  2
62_TEXT
 70
     0
 62
     7
  6
CONTINUOUS
  0
LAYER
  2
01_FRAME
 70
     0
 62
     4
  6
CONTINUOUS
  0
LAYER
  2
DEFPOINTS
 70
     0
 62
     7
  6
CONTINUOUS
  0
ENDTAB
  0
TABLE
  2
STYLE
 70
     2
  0
STYLE
  2
STANDARD
 70
     0
 40
0.0
 41
1.0
 50
0.0
 71
     0
 42
1.3456087235615539
  3
txt
  4

  0
STYLE
  2
MECHTRONICS
 70
     0
 40
2.0
 41
1.0
 50
0.0
 71
     0
 42
2.0
  3
txt
  4

  0
ENDTAB
  0
TABLE
  2
VIEW
 70
     0
  0
ENDTAB
  0
TABLE
  2
UCS
 70
    16
  0
UCS
  2
AUDIT_D_000731094948-0
 70
     0
 10
0.0
 20
0.0
 30
1.0
 11
1.0
 21
0.0
 31
0.0
 12
0.0
 22
1.0
 32
0.0
  0
UCS
  2
AUDIT_D_000731094948-1
 70
     0
 10
0.0
 20
0.0
 30
1.0
 11
1.0
 21
0.0
 31
0.0
 12
0.0
 22
1.0
 32
0.0
  0
UCS
  2
AUDIT_D_000731094948-2
 70
     0
 10
0.0
 20
0.0
 30
1.0
 11
1.0
 21
0.0
 31
0.0
 12
0.0
 22
1.0
 32
0.0
  0
UCS
  2
AUDIT_D_000731094948-3
 70
     0
 10
0.0
 20
0.0
 30
1.0
 11
1.0
 21
0.0
 31
0.0
 12
0.0
 22
1.0
 32
0.0
  0
UCS
  2
AUDIT_D_000731094948-4
 70
     0
 10
0.0
 20
0.0
 30
1.0
 11
1.0
 21
0.0
 31
0.0
 12
0.0
 22
1.0
 32
0.0
  0
UCS
  2
AUDIT_D_000731094948-5
 70
     0
 10
0.0
 20
0.0
 30
1.0
 11
1.0
 21
0.0
 31
0.0
 12
0.0
 22
1.0
 32
0.0
  0
UCS
  2
AUDIT_D_000731094948-6
 70
     0
 10
0.0
 20
0.0
 30
1.0
 11
1.0
 21
0.0
 31
0.0
 12
0.0
 22
1.0
 32
0.0
  0
UCS
  2
AUDIT_D_000731094948-7
 70
     0
 10
0.0
 20
0.0
 30
1.0
 11
1.0
 21
0.0
 31
0.0
 12
0.0
 22
1.0
 32
0.0
  0
UCS
  2
AUDIT_D_000731094948-8
 70
     0
 10
0.0
 20
0.0
 30
1.0
 11
1.0
 21
0.0
 31
0.0
 12
0.0
 22
1.0
 32
0.0
  0
UCS
  2
AUDIT_D_000731094948-9
 70
     0
 10
0.0
 20
0.0
 30
1.0
 11
1.0
 21
0.0
 31
0.0
 12
0.0
 22
1.0
 32
0.0
  0
UCS
  2
AUDIT_D_000731094948-10
 70
     0
 10
0.0
 20
0.0
 30
1.0
 11
1.0
 21
0.0
 31
0.0
 12
0.0
 22
1.0
 32
0.0
  0
UCS
  2
AUDIT_D_000731094948-11
 70
     0
 10
0.0
 20
0.0
 30
1.0
 11
1.0
 21
0.0
 31
0.0
 12
0.0
 22
1.0
 32
0.0
  0
UCS
  2
AUDIT_D_000731094948-12
 70
     0
 10
0.0
 20
0.0
 30
1.0
 11
1.0
 21
0.0
 31
0.0
 12
0.0
 22
1.0
 32
0.0
  0
UCS
  2
AUDIT_D_000731094948-13
 70
     0
 10
0.0
 20
0.0
 30
1.0
 11
1.0
 21
0.0
 31
0.0
 12
0.0
 22
1.0
 32
0.0
  0
UCS
  2
AUDIT_D_000731094948-14
 70
     0
 10
0.0
 20
0.0
 30
1.0
 11
1.0
 21
0.0
 31
0.0
 12
0.0
 22
1.0
 32
0.0
  0
UCS
  2
CK_VIEW_1
 70
     0
 10
0.0
 20
0.0
 30
1.0
 11
1.0
 21
0.0
 31
0.0
 12
0.0
 22
1.0
 32
0.0
  0
ENDTAB
  0
TABLE
  2
APPID
 70
     3
  0
APPID
  2
ACAD
 70
     0
  0
APPID
  2
DCO15
 70
     0
  0
APPID
  2
ACAD_PSEXT
 70
     0
  0
ENDTAB
  0
TABLE
  2
DIMSTYLE
 70
     2
  0
DIMSTYLE
  2
STANDARD
 70
     0
  3

  4

  5

  6

  7

 40
1.0
 41
0.18
 42
0.0625
 43
0.38
 44
0.18
 45
0.0
 46
0.0
 47
0.0
 48
0.0
140
0.18
141
0.09
142
0.0
143
25.399999999999999
144
1.0
145
0.0
146
1.0
147
0.09
 71
     0
 72
     0
 73
     1
 74
     1
 75
     0
 76
     0
 77
     0
 78
     0
170
     0
171
     2
172
     0
173
     0
174
     0
175
     0
176
     0
177
     0
178
     0
  0
DIMSTYLE
  2
MECHTRONICS
 70
     0
  3

  4

  5

  6

  7

 40
1.0
 41
2.0
 42
1.0
 43
6.0
 44
0.5
 45
0.0
 46
0.0
 47
0.0
 48
0.0
140
2.0
141
0.09
142
0.0
143
25.399999999999999
144
1.0
145
0.0
146
1.0
147
0.5
 71
     0
 72
     0
 73
     0
 74
     1
 75
     0
 76
     0
 77
     0
 78
     0
170
     0
171
     2
172
     0
173
     0
174
     0
175
     0
176
     7
177
     7
178
     0
  0
ENDTAB
  0
ENDSEC
  0
SECTION
  2
BLOCKS
  0
BLOCK
  8
0
  2
$MODEL_SPACE
 70
     0
 10
0.0
 20
0.0
 30
0.0
  3
$MODEL_SPACE
  1

  0
ENDBLK
  5
E
  8
0
  0
BLOCK
 67
     1
  8
0
  2
$PAPER_SPACE
 70
     0
 10
0.0
 20
0.0
 30
0.0
  3
$PAPER_SPACE
  1

  0
ENDBLK
  5
10
 67
     1
  8
0
  0
BLOCK
  8
0
  2
_DOTSMALL
 70
     0
 10
0.0
 20
0.0
 30
0.0
  3
_DOTSMALL
  1

  0
POLYLINE
  5
1A9D
  8
0
 62
     0
 66
     1
 10
0.0
 20
0.0
 30
0.0
 70
     1
 40
0.5
 41
0.5
  0
VERTEX
  5
4E72
  8
0
 62
     0
 10
-0.0625
 20
0.0
 30
0.0
 42
1.0
  0
VERTEX
  5
4E73
  8
0
 62
     0
 10
0.0625
 20
0.0
 30
0.0
 42
1.0
  0
SEQEND
  5
4E74
  8
0
 62
     0
  0
ENDBLK
  5
1A9F
  8
0
  0
BLOCK
  8
0
  2
*D1
 70
     1
 10
0.0
 20
0.0
 30
0.0
  3
*D1
  1

  0
LINE
  5
4E41
  8
50_DIMENSIONS
 62
     7
 10
574.94760836961325
 20
2384.6981564328412
 30
0.0
 11
574.94760836961325
 21
2429.225273010381
 31
0.0
  0
LINE
  5
4E42
  8
50_DIMENSIONS
 62
     7
 10
722.44760836961302
 20
2385.4761782377
 30
0.0
 11
722.44760836961302
 21
2429.225273010381
 31
0.0
  0
LINE
  5
4E43
  8
50_DIMENSIONS
 62
     7
 10
576.94760836961325
 20
2428.725273010381
 30
0.0
 11
641.70442965201426
 21
2428.725273010381
 31
0.0
  0
LINE
  5
4E44
  8
50_DIMENSIONS
 62
     7
 10
720.44760836961302
 20
2428.725273010381
 30
0.0
 11
655.69078708721202
 21
2428.725273010381
 31
0.0
  0
SOLID
  5
4E45
  8
50_DIMENSIONS
 62
     7
 10
576.94760836961325
 20
2429.0586063437149
 30
0.0
 11
576.94760836961325
 21
2428.391939677048
 31
0.0
 12
574.94760836961325
 22
2428.725273010381
 32
0.0
 13
574.94760836961325
 23
2428.725273010381
 33
0.0
  0
SOLID
  5
4E46
  8
50_DIMENSIONS
 62
     7
 10
720.44760836961302
 20
2429.0586063437149
 30
0.0
 11
720.44760836961302
 21
2428.391939677048
 31
0.0
 12
722.44760836961302
 22
2428.725273010381
 32
0.0
 13
722.44760836961302
 23
2428.725273010381
 33
0.0
  0
INSERT
  5
4E47
  8
0
  2
*U3
 10
0.0
 20
0.0
 30
0.0
  0
POINT
  5
4E48
  8
DEFPOINTS
 62
     0
 10
574.94760836961325
 20
2383.6981564328412
 30
0.0
  0
POINT
  5
4E49
  8
DEFPOINTS
 62
     0
 10
722.44760836961302
 20
2384.4761782377
 30
0.0
  0
POINT
  5
4E4A
  8
DEFPOINTS
 62
     0
 10
722.44760836961302
 20
2428.725273010381
 30
0.0
  0
ENDBLK
  5
45E9
  8
0
  0
BLOCK
  8
0
  2
*D2
 70
     1
 10
0.0
 20
0.0
 30
0.0
  3
*D2
  1

  0
LINE
  5
4E4B
  8
50_DIMENSIONS
 62
     7
 10
617.4440476430857
 20
2283.7821524288611
 30
0.0
 11
548.48525180491015
 21
2283.7821524288611
 31
0.0
  0
LINE
  5
4E4C
  8
50_DIMENSIONS
 62
     7
 10
617.4440476430857
 20
2411.4756105445581
 30
0.0
 11
548.48525180491015
 21
2411.4756105445581
 31
0.0
  0
LINE
  5
4E4D
  8
50_DIMENSIONS
 62
     7
 10
548.98525180491015
 20
2285.7821524288611
 30
0.0
 11
548.98525180491026
 21
2340.635702769111
 31
0.0
  0
LINE
  5
4E4E
  8
50_DIMENSIONS
 62
     7
 10
548.98525180491026
 20
2409.4756105445581
 30
0.0
 11
548.98525180491026
 21
2354.6220602043081
 31
0.0
  0
SOLID
  5
4E4F
  8
50_DIMENSIONS
 62
     7
 10
548.65191847157666
 20
2285.7821524288611
 30
0.0
 11
549.31858513824352
 21
2285.7821524288611
 31
0.0
 12
548.98525180491015
 22
2283.7821524288611
 32
0.0
 13
548.98525180491015
 23
2283.7821524288611
 33
0.0
  0
SOLID
  5
4E50
  8
50_DIMENSIONS
 62
     7
 10
548.65191847157689
 20
2409.4756105445581
 30
0.0
 11
549.31858513824363
 21
2409.4756105445581
 31
0.0
 12
548.98525180491026
 22
2411.4756105445581
 32
0.0
 13
548.98525180491026
 23
2411.4756105445581
 33
0.0
  0
INSERT
  5
4E51
  8
0
  2
*U4
 10
0.0
 20
0.0
 30
0.0
  0
POINT
  5
4E52
  8
DEFPOINTS
 62
     0
 10
618.44404764308558
 20
2283.7821524288611
 30
0.0
  0
POINT
  5
4E53
  8
DEFPOINTS
 62
     0
 10
618.44404764308558
 20
2411.4756105445581
 30
0.0
  0
POINT
  5
4E54
  8
DEFPOINTS
 62
     0
 10
548.98525180491026
 20
2411.4756105445581
 30
0.0
  0
ENDBLK
  5
45F6
  8
0
  0
BLOCK
  8
0
  2
*U3
 70
     1
 10
0.0
 20
0.0
 30
0.0
  3
*U3
  1

  0
TEXT
  5
4E76
  8
50_DIMENSIONS
 62
     0
 10
641.79105993850817
 20
2427.9988064346649
 30
0.0
 40
2.0
  1
147 [5.81"]
  7
MECHTRONICS
  0
ENDBLK
  5
4E78
  8
0
  0
BLOCK
  8
0
  2
*U4
 70
     1
 10
0.0
 20
0.0
 30
0.0
  3
*U4
  1

  0
TEXT
  5
4E7A
  8
50_DIMENSIONS
 62
     0
 10
549.71171838062605
 20
2340.7223330556039
 30
0.0
 40
2.0
  1
128 [5.03"]
 50
90.0
  7
MECHTRONICS
  0
ENDBLK
  5
4E7C
  8
0
  0
ENDSEC
  0
SECTION
  2
ENTITIES
  0
LINE
  5
2747
  8
01_FRAME
 62
     4
 10
503.55426815072008
 20
2443.0653412819279
 30
0.0
 11
503.55426815072019
 21
2249.6789378085732
 31
0.0
  0
LINE
  5
2748
  8
01_FRAME
 62
     4
 10
773.18719422407037
 20
2443.0653412819279
 30
0.0
 11
503.55426815072008
 21
2443.0653412819279
 31
0.0
  0
LINE
  5
274D
  8
01_FRAME
 62
     4
 10
773.18719422407037
 20
2249.6789378085732
 30
0.0
 11
773.18719422407037
 21
2443.0653412819279
 31
0.0
  0
LINE
  5
274E
  8
01_FRAME
 62
     4
 10
503.55426815072019
 20
2249.6789378085732
 30
0.0
 11
773.18719422407037
 21
2249.6789378085732
 31
0.0
  0
LINE
  5
3FC5
  8
01_FRAME
 62
     4
 10
667.61064135957633
 20
2270.6593368134299
 30
0.0
 11
697.19075910190895
 21
2270.6593368134299
 31
0.0
  0
LINE
  5
3FC6
  8
01_FRAME
 62
     4
 10
667.61059384816997
 20
2249.6789378085732
 30
0.0
 11
667.61059384816997
 21
2281.2048773828828
 31
0.0
  0
TEXT
  5
3FCF
  8
62_TEXT
 10
755.38597921958865
 20
2275.0570064405938
 30
0.0
 40
2.0
  1
25-09-07
  7
MECHTRONICS
  0
TEXT
  5
3FD0
  8
01_FRAME
 62
     8
 10
764.39794241455911
 20
2258.1429285360859
 30
0.0
 40
1.399999999999999
  1
Revision
  7
MECHTRONICS
  0
TEXT
  5
3FD1
  8
62_TEXT
 10
717.89249181538935
 20
2264.0030704242799
 30
0.0
 40
2.0
  1
STIFFENING CLOSURE - PROFILE CUT
  7
MECHTRONICS
 72
     1
 11
743.94842633107828
 21
2264.0030704242799
 31
0.0
  0
LINE
  5
3FD2
  8
01_FRAME
 62
     8
 10
697.19075910190895
 20
2281.2048773828828
 30
0.0
 11
773.18719422407037
 21
2281.2048773828828
 31
0.0
  0
LINE
  5
3FD3
  8
01_FRAME
 62
     8
 10
697.19075910190895
 20
2277.6926188410398
 30
0.0
 11
773.18719422407037
 21
2277.6926188410398
 31
0.0
  0
LINE
  5
3FD4
  8
01_FRAME
 62
     4
 10
713.45429759680223
 20
2260.2157261038101
 30
0.0
 11
773.18714671266412
 21
2260.2157261038101
 31
0.0
  0
LINE
  5
3FD5
  8
01_FRAME
 62
     4
 10
667.61064135957645
 20
2266.3126790498809
 30
0.0
 11
713.45429759680223
 21
2266.3126790498809
 31
0.0
  0
LINE
  5
3FD6
  8
01_FRAME
 62
     8
 10
701.91497446666301
 20
2274.180347629489
 30
0.0
 11
773.18719422407037
 21
2274.180347629489
 31
0.0
  0
TEXT
  5
3FD9
  8
01_FRAME
 62
     8
 10
668.21549636737768
 20
2279.098955314973
 30
0.0
 40
1.399999999999999
  1
Higher
  7
MECHTRONICS
  0
TEXT
  5
3FDA
  8
01_FRAME
 62
     8
 10
720.22109063495554
 20
2271.8662580771638
 30
0.0
 40
1.399999999999999
  1
Description of change
  7
MECHTRONICS
  0
LINE
  5
3FDB
  8
01_FRAME
 62
     4
 10
713.45429759680212
 20
2270.6593368134299
 30
0.0
 11
713.45429759680223
 21
2249.6789378085732
 31
0.0
  0
LINE
  5
3FDC
  8
01_FRAME
 62
     4
 10
697.19075910190895
 20
2270.6593368134299
 30
0.0
 11
697.19075910190895
 21
2281.2048773828828
 31
0.0
  0
LINE
  5
3FDF
  8
01_FRAME
 62
     8
 10
701.9149744666629
 20
2270.6593368134299
 30
0.0
 11
701.9149744666629
 21
2281.2471333748608
 31
0.0
  0
LINE
  5
3FE0
  8
01_FRAME
 62
     7
 10
697.53353129739116
 20
2272.8474283535761
 30
0.0
 11
699.57741464446656
 21
2276.387538155454
 31
0.0
  0
LINE
  5
3FE1
  8
01_FRAME
 62
     7
 10
697.53353129739116
 20
2272.8474283535761
 30
0.0
 11
701.62129799154184
 21
2272.8474283535761
 31
0.0
  0
LINE
  5
3FE2
  8
01_FRAME
 62
     7
 10
701.62129799154184
 20
2272.8474283535761
 30
0.0
 11
699.57741464446656
 21
2276.387538155454
 31
0.0
  0
TEXT
  5
3FE3
  8
01_FRAME
 62
     8
 10
714.22821406213427
 20
2267.5685533401738
 30
0.0
 40
1.399999999999999
  1
Title
  7
MECHTRONICS
  0
LINE
  5
3FE4
  8
01_FRAME
 62
     8
 10
754.04298293124589
 20
2260.2157261038101
 30
0.0
 11
754.04298293124589
 21
2249.6789378085732
 31
0.0
  0
LINE
  5
3FE6
  8
01_FRAME
 62
     8
 10
763.61506482195489
 20
2260.2157261038101
 30
0.0
 11
763.61506482195489
 21
2249.6789378085732
 31
0.0
  0
TEXT
  5
3FE7
  8
01_FRAME
 62
     8
 10
754.82586052384988
 20
2257.9411764707129
 30
0.0
 40
1.399999999999999
  1
Process
  7
MECHTRONICS
  0
TEXT
  5
3FE8
  8
01_FRAME
 62
     8
 10
714.11385580813885
 20
2258.127673802484
 30
0.0
 40
1.399999999999999
  1
Drawing Number
  7
MECHTRONICS
  0
TEXT
  5
3FE9
  8
62_TEXT
 10
720.36107855491696
 20
2252.0046802176521
 30
0.0
 40
4.0
  1
10 20 458
  7
MECHTRONICS
  0
TEXT
  5
3FEA
  8
62_TEXT
 10
756.64692002491245
 20
2252.0046802176521
 30
0.0
 40
4.0
  1
P
  7
MECHTRONICS
  0
LINE
  5
3FEB
  8
01_FRAME
 62
     8
 10
754.45910739289025
 20
2270.6593368134299
 30
0.0
 11
754.45910739289025
 21
2281.238368430937
 31
0.0
  0
TEXT
  5
3FEC
  8
01_FRAME
 62
     8
 10
755.73786347822193
 20
2271.8662580771638
 30
0.0
 40
1.399999999999999
  1
Date (d-m-y)
  7
MECHTRONICS
  0
TEXT
  5
3FED
  8
62_TEXT
 10
766.21900191562156
 20
2252.0046802176521
 30
0.0
 40
4.0
  1
A
  7
MECHTRONICS
  0
LINE
  5
3FEE
  8
01_FRAME
 62
     8
 10
767.85084354987578
 20
2270.6593368134299
 30
0.0
 11
767.85084354987578
 21
2281.238368430937
 31
0.0
  0
TEXT
  5
3FEF
  8
01_FRAME
 62
     8
 10
768.78774960274325
 20
2271.8662580771638
 30
0.0
 40
1.399999999999999
  1
Rev.
  7
MECHTRONICS
  0
TEXT
  5
3FF2
  8
01_FRAME
 62
     8
 10
680.92396862709654
 20
2253.431888759746
 30
0.0
 40
1.399999999999999
  1
www.mechmate.com
  7
MECHTRONICS
  0
TEXT
  5
3FF6
  8
62_TEXT
 10
678.79417952911706
 20
2278.1036885277908
 30
0.0
 40
2.0
  1
10 20 458 B
  7
MECHTRONICS
  0
TEXT
  5
3FF8
  8
01_FRAME
 62
     8
 10
668.21549636737768
 20
2277.0713229427902
 30
0.0
 40
1.399999999999999
  1
drawing/s:
  7
MECHTRONICS
  0
LINE
  5
3FF9
  8
01_FRAME
 62
     4
 10
667.61059384816997
 20
2281.2048773828828
 30
0.0
 11
697.19075910190895
 21
2281.2048773828828
 31
0.0
  0
LINE
  5
3FFB
  8
01_FRAME
 62
     4
 10
697.19075910190895
 20
2270.6593368134299
 30
0.0
 11
773.18714671266412
 21
2270.6593368134299
 31
0.0
  0
TEXT
  5
3FFC
  8
01_FRAME
 62
     8
 10
668.38455782490871
 20
2268.584358035213
 30
0.0
 40
1.399999999999999
  1
Material:
  7
MECHTRONICS
  0
TEXT
  5
3FFD
  8
62_TEXT
 10
677.44188469238145
 20
2267.5655397895539
 30
0.0
 40
2.0
  1
3mm [1/8"] STEEL 300MPa
  7
MECHTRONICS
  0
TEXT
  5
3FFE
  8
01_FRAME
 62
     7
 10
769.35057778212126
 20
2275.009837304121
 30
0.0
 40
2.0
  1
A
  7
MECHTRONICS
  0
TEXT
  5
3FFF
  8
01_FRAME
 62
     7
 10
739.48957365194167
 20
2275.0570064405938
 30
0.0
 40
2.0
  1
First issue
  7
MECHTRONICS
  0
LINE
  5
45C6
  8
10_OUTLINE
 62
     2
 10
574.94760836961325
 20
2311.559606540578
 30
0.0
 11
574.94760836961325
 21
2383.6981564328412
 31
0.0
  0
LINE
  5
45C7
  8
10_OUTLINE
 62
     2
 10
722.44760836961302
 20
2384.4761782377
 30
0.0
 11
722.44760836961302
 21
2310.7815847357192
 31
0.0
  0
ARC
  5
45C8
  8
10_OUTLINE
 62
     2
 10
632.44760836961302
 20
2347.6288814867089
 30
0.0
 40
8.0
 50
90.0
 51
270.0
  0
ARC
  5
45C9
  8
10_OUTLINE
 62
     2
 10
626.73607449403255
 20
2371.4756105445581
 30
0.0
 40
40.0
 50
78.378679148946176
 51
117.25017903956009
  0
CIRCLE
  5
45CA
  8
10_OUTLINE
 62
     2
 10
592.44760836961325
 20
2347.6288814867089
 30
0.0
 40
6.0
  0
ARC
  5
45CB
  8
10_OUTLINE
 62
     2
 10
584.94760836961325
 20
2383.6981564328412
 30
0.0
 40
10.0
 50
117.25017903956009
 51
180.0
  0
LINE
  5
45CC
  8
10_OUTLINE
 62
     2
 10
580.36884143819361
 20
2392.588313539874
 30
0.0
 11
608.421006768354
 21
2407.036238972692
 31
0.0
  0
ARC
  5
45CD
  8
10_OUTLINE
 62
     2
 10
664.44760836961302
 20
2347.6288814867089
 30
0.0
 40
8.0
 50
270.0
 51
90.0
  0
LINE
  5
45CE
  8
10_OUTLINE
 62
     2
 10
664.44760836961302
 20
2339.6288814867098
 30
0.0
 11
632.44760836961302
 21
2339.6288814867098
 31
0.0
  0
LINE
  5
45CF
  8
10_OUTLINE
 62
     2
 10
664.44760836961302
 20
2355.6288814867098
 30
0.0
 11
632.44760836961302
 21
2355.6288814867098
 31
0.0
  0
ARC
  5
45D0
  8
10_OUTLINE
 62
     2
 10
712.44760836961302
 20
2384.4761782377
 30
0.0
 40
10.0
 50
0.0
 51
78.378679148946176
  0
LINE
  5
45D1
  8
10_OUTLINE
 62
     2
 10
714.4620326278847
 20
2394.2711818062389
 30
0.0
 11
634.79377152711902
 21
2410.6556248187121
 31
0.0
  0
ARC
  5
45D2
  8
10_OUTLINE
 62
     2
 10
626.73607449403255
 20
2323.7821524288611
 30
0.0
 40
40.0
 50
242.74982096043991
 51
281.62132085105378
  0
ARC
  5
45D3
  8
10_OUTLINE
 62
     2
 10
584.94760836961325
 20
2311.559606540578
 30
0.0
 40
10.0
 50
180.0
 51
242.74982096043991
  0
LINE
  5
45D4
  8
10_OUTLINE
 62
     2
 10
580.36884143819361
 20
2302.6694494335438
 30
0.0
 11
608.421006768354
 21
2288.2215240007272
 31
0.0
  0
ARC
  5
45D5
  8
10_OUTLINE
 62
     2
 10
712.44760836961302
 20
2310.7815847357192
 30
0.0
 40
10.0
 50
281.62132085105378
 51
0.0
  0
LINE
  5
45D6
  8
10_OUTLINE
 62
     2
 10
714.4620326278847
 20
2300.9865811671812
 30
0.0
 11
634.79377152711902
 21
2284.6021381547062
 31
0.0
  0
LINE
  5
45D7
  8
0
 10
574.94760836961325
 20
2372.6288814867098
 30
0.0
 11
590.79832438468395
 21
2372.6288814867098
 31
0.0
  0
LINE
  5
45D8
  8
0
 10
574.94760836961325
 20
2322.6288814867089
 30
0.0
 11
590.79832438468395
 21
2322.6288814867089
 31
0.0
  0
LINE
  5
45D9
  8
0
 10
722.44760836961302
 20
2322.6288814867089
 30
0.0
 11
706.59689235454232
 21
2322.6288814867089
 31
0.0
  0
LINE
  5
45DA
  8
0
 10
722.44760836961302
 20
2372.6288814867098
 30
0.0
 11
706.59689235454232
 21
2372.6288814867098
 31
0.0
  0
DIMENSION
  5
45DB
  8
50_DIMENSIONS
 62
   255
  2
*D1
 10
722.44760836961302
 20
2428.725273010381
 30
0.0
 11
648.69760836961314
 21
2428.725273010381
 31
0.0
 70
     0
 13
574.94760836961325
 23
2383.6981564328412
 33
0.0
 14
722.44760836961302
 24
2384.4761782377
 34
0.0
1001
ACAD
1000
DSTYLE
1002
{
1070
     3
1000
<>
1070
     4
1000
"
1070
   143
1040
0.03937
1070
   170
1070
     1
1002
}
  0
DIMENSION
  5
45DC
  8
50_DIMENSIONS
 62
   255
  2
*D2
 10
548.98525180491026
 20
2411.4756105445581
 30
0.0
 11
548.98525180490969
 21
2347.6288814867089
 31
0.0
 70
     0
 13
618.44404764308558
 23
2283.7821524288611
 33
0.0
 14
618.44404764308558
 24
2411.4756105445581
 34
0.0
 50
90.0
1001
ACAD
1000
DSTYLE
1002
{
1070
     3
1000
<>
1070
     4
1000
"
1070
   143
1040
0.03937
1070
   170
1070
     1
1002
}
  0
LINE
  5
464F
  8
50_DIMENSIONS
  6
CONTINUOUS
 62
   255
 10
595.7731453317449
 20
2314.0249822178339
 30
0.0
 11
587.16924606286977
 21
2322.6288814867089
 31
0.0
  0
SOLID
  5
4650
  8
50_DIMENSIONS
  6
CONTINUOUS
 62
   255
 10
589.49259691359725
 20
2320.9116221622589
 30
0.0
 11
588.88650538732065
 21
2320.305530635982
 31
0.0
 12
587.16924606286977
 22
2322.6288814867089
 32
0.0
 13
587.16924606286977
 23
2322.6288814867089
 33
0.0
  0
TEXT
  5
4651
  8
62_TEXT
 62
     7
 10
597.00501194280605
 20
2313.528456807866
 30
0.0
 40
2.0
  1
ENGRAVE BENDING MARKS BY LASER
  7
MECHTRONICS
  0
TEXT
  5
4652
  8
62_TEXT
 62
     7
 10
695.5534142463747
 20
2285.6629209893399
 30
0.0
 40
2.0
  1
SUPPLY .dxf DRAWING TO CNC CUTTING COMPANY
  7
MECHTRONICS
  0
ARC
  5
46FB
  8
10_OUTLINE
 62
     2
 10
618.21063660676896
 20
2389.6288814867089
 30
0.0
 40
6.0
 50
90.0
 51
270.0
  0
ARC
  5
46FC
  8
10_OUTLINE
 62
     2
 10
642.21063660676907
 20
2389.6288814867089
 30
0.0
 40
6.0
 50
270.0
 51
90.0
  0
LINE
  5
471B
  8
10_OUTLINE
 62
     2
 10
618.21063660676896
 20
2395.6288814867089
 30
0.0
 11
642.21063660676907
 21
2395.6288814867089
 31
0.0
  0
LINE
  5
471D
  8
10_OUTLINE
 62
     2
 10
618.21063660676896
 20
2383.6288814867089
 30
0.0
 11
642.21063660676907
 21
2383.6288814867089
 31
0.0
  0
TEXT
  5
4AF1
  8
62_TEXT
 62
     1
 10
634.81721532477354
 20
2256.9720950317078
 30
0.0
 40
4.0
  1
OPTION
  7
MECHTRONICS
  0
LINE
  5
4AF2
  8
62_TEXT
 62
    40
 10
656.61527961615434
 20
2256.1854835015902
 30
0.0
 11
635.15647743554484
 21
2256.1854835015902
 31
0.0
  0
LINE
  5
4AF3
  8
62_TEXT
 62
    40
 10
656.61527961615434
 20
2261.7568881846641
 30
0.0
 11
635.15647743554484
 21
2261.7568881846641
 31
0.0
  0
ARC
  5
4AF4
  8
62_TEXT
 62
    40
 10
635.15647743554484
 20
2260.9568881852638
 30
0.0
 40
0.7999999994
 50
90.0
 51
180.0
  0
ARC
  5
4AF5
  8
62_TEXT
 62
    40
 10
635.15647743554484
 20
2256.985483500991
 30
0.0
 40
0.7999999994
 50
180.0
 51
269.99999999994787
  0
LINE
  5
4AF6
  8
62_TEXT
 62
    40
 10
634.35647743614504
 20
2256.985483500991
 30
0.0
 11
634.35647743614504
 21
2260.9568881852638
 31
0.0
  0
ARC
  5
4AF7
  8
62_TEXT
 62
    40
 10
656.61527961615343
 20
2260.9568881852638
 30
0.0
 40
0.7999999994
 50
0.0
 51
89.999999999947889
  0
ARC
  5
4AF8
  8
62_TEXT
 62
    40
 10
656.61527961615343
 20
2256.985483500991
 30
0.0
 40
0.7999999994
 50
269.99999999994787
 51
0.0
  0
LINE
  5
4AF9
  8
62_TEXT
 62
    40
 10
657.41527961555335
 20
2256.985483500991
 30
0.0
 11
657.41527961555335
 21
2260.9568881852638
 31
0.0
  0
TEXT
  5
4B0A
  8
01_FRAME
 62
     8
 10
698.09295781185267
 20
2278.8256292435221
 30
0.0
 40
1.3999999999999999
  1
1:1
  7
MECHTRONICS
  0
LINE
  5
4B0B
  8
01_FRAME
 62
     7
 10
695.32669698797656
 20
2256.6201368559291
 30
0.0
 11
696.5107789257396
 21
2256.6201368559291
 31
0.0
  0
LINE
  5
4B0C
  8
01_FRAME
 62
     7
 10
696.12117776817354
 20
2261.6785550093782
 30
0.0
 11
695.32669698797656
 21
2256.6201368559291
 31
0.0
  0
LINE
  5
4B0D
  8
01_FRAME
 62
     7
 10
694.34505484495253
 20
2258.2025729111242
 30
0.0
 11
696.12117776817354
 21
2261.6785550093782
 31
0.0
  0
LINE
  5
4B0E
  8
01_FRAME
 62
     7
 10
697.38547171383993
 20
2262.7232700733339
 30
0.0
 11
695.536776048403
 21
2262.7232700733339
 31
0.0
  0
LINE
  5
4B0F
  8
01_FRAME
 62
     7
 10
679.17411381930526
 20
2259.1098811234542
 30
0.0
 11
681.69639983947457
 21
2259.1098811234542
 31
0.0
  0
LINE
  5
4B10
  8
01_FRAME
 62
     7
 10
681.46570294778996
 20
2258.0796572134009
 30
0.0
 11
679.42019049934765
 21
2258.0796572134009
 31
0.0
  0
LINE
  5
4B11
  8
01_FRAME
 62
     7
 10
678.88189774103262
 20
2257.29545690139
 30
0.0
 11
680.94884825674455
 21
2257.29545690139
 31
0.0
  0
LINE
  5
4B12
  8
01_FRAME
 62
     7
 10
681.06440165820436
 20
2261.3702231894981
 30
0.0
 11
679.5739884160854
 21
2261.3702231894981
 31
0.0
  0
LINE
  5
4B13
  8
01_FRAME
 62
     7
 10
679.27731235568331
 20
2259.7710655085798
 30
0.0
 11
680.76856089545856
 21
2259.7710655085798
 31
0.0
  0
LINE
  5
4B14
  8
01_FRAME
 62
     7
 10
680.5855856169452
 20
2260.597059656418
 30
0.0
 11
679.63411414215329
 21
2260.597059656418
 31
0.0
  0
LINE
  5
4B15
  8
01_FRAME
 62
     7
 10
672.09569374359637
 20
2256.6201368559291
 30
0.0
 11
672.81760174842179
 21
2261.7016001899801
 31
0.0
  0
LINE
  5
4B16
  8
01_FRAME
 62
     7
 10
673.71139261785424
 20
2262.7232700733339
 30
0.0
 11
671.83595963855316
 21
2262.7232700733339
 31
0.0
  0
LINE
  5
4B17
  8
01_FRAME
 62
     7
 10
671.83595963855316
 20
2262.7232700733339
 30
0.0
 11
670.97272569925167
 21
2256.6201368559291
 31
0.0
  0
LINE
  5
4B18
  8
01_FRAME
 62
     7
 10
670.97272569925167
 20
2256.6201368559291
 30
0.0
 11
672.09569374359637
 21
2256.6201368559291
 31
0.0
  0
LINE
  5
4B19
  8
01_FRAME
 62
     7
 10
676.32401213335811
 20
2261.6785550093782
 30
0.0
 11
675.52953135316125
 21
2256.6201368559291
 31
0.0
  0
LINE
  5
4B1A
  8
01_FRAME
 62
     7
 10
676.71361329092429
 20
2256.6201368559291
 30
0.0
 11
677.58830607902541
 21
2262.7232700733339
 31
0.0
  0
LINE
  5
4B1B
  8
01_FRAME
 62
     7
 10
675.52953135316125
 20
2256.6201368559291
 30
0.0
 11
676.71361329092429
 21
2256.6201368559291
 31
0.0
  0
LINE
  5
4B1C
  8
01_FRAME
 62
     7
 10
677.58830607902541
 20
2262.7232700733339
 30
0.0
 11
675.73961041358746
 21
2262.7232700733339
 31
0.0
  0
LINE
  5
4B1D
  8
01_FRAME
 62
     7
 10
674.54788921013699
 20
2258.2025729111242
 30
0.0
 11
676.32401213335811
 21
2261.6785550093782
 31
0.0
  0
LINE
  5
4B1E
  8
01_FRAME
 62
     7
 10
672.81760174842179
 20
2261.7016001899801
 30
0.0
 11
673.52805090444849
 21
2258.2025729111242
 31
0.0
  0
LINE
  5
4B1F
  8
01_FRAME
 62
     7
 10
674.26523740749485
 20
2259.8080541469221
 30
0.0
 11
673.71139261785424
 21
2262.7232700733339
 31
0.0
  0
LINE
  5
4B20
  8
01_FRAME
 62
     7
 10
675.73961041358746
 20
2262.7232700733339
 30
0.0
 11
674.26523740749485
 21
2259.8080541469221
 31
0.0
  0
LINE
  5
4B21
  8
01_FRAME
 62
     7
 10
673.52805090444849
 20
2258.2025729111242
 30
0.0
 11
674.54788921013699
 21
2258.2025729111242
 31
0.0
  0
LINE
  5
4B22
  8
01_FRAME
 62
     7
 10
678.32822522751462
 20
2260.4630110950429
 30
0.0
 11
678.0052495725264
 21
2258.3410573174028
 31
0.0
  0
LINE
  5
4B23
  8
01_FRAME
 62
     7
 10
679.07510693486688
 20
2258.3179969047019
 30
0.0
 11
679.17411381930526
 21
2259.1098811234542
 31
0.0
  0
LINE
  5
4B24
  8
01_FRAME
 62
     7
 10
679.34135368327009
 20
2260.3072371420049
 30
0.0
 11
679.27731235568331
 21
2259.7710655085798
 31
0.0
  0
LINE
  5
4B25
  8
01_FRAME
 62
     7
 10
687.72533211300436
 20
2260.460750783247
 30
0.0
 11
689.17118606032523
 21
2260.460750783247
 31
0.0
  0
LINE
  5
4B26
  8
01_FRAME
 62
     7
 10
685.55149288523864
 20
2257.6337393694212
 30
0.0
 11
685.59763225031361
 21
2258.0335277618278
 31
0.0
  0
LINE
  5
4B27
  8
01_FRAME
 62
     7
 10
686.8971245352883
 20
2262.9822065226899
 30
0.0
 11
686.18589539547133
 21
2257.2775336861841
 31
0.0
  0
LINE
  5
4B28
  8
01_FRAME
 62
     7
 10
687.27613478946091
 20
2257.2775336861841
 30
0.0
 11
687.72533211300436
 21
2260.460750783247
 31
0.0
  0
LINE
  5
4B29
  8
01_FRAME
 62
     7
 10
681.4195635495596
 20
2257.6337393694212
 30
0.0
 11
681.46570294778996
 21
2258.0796572134009
 31
0.0
  0
LINE
  5
4B2A
  8
01_FRAME
 62
     7
 10
684.12117213690249
 20
2257.29545690139
 30
0.0
 11
685.08077759242565
 21
2257.29545690139
 31
0.0
  0
LINE
  5
4B2B
  8
01_FRAME
 62
     7
 10
683.32142291018658
 20
2257.29545690139
 30
0.0
 11
684.12117213690249
 21
2257.29545690139
 31
0.0
  0
LINE
  5
4B2C
  8
01_FRAME
 62
     7
 10
686.18589539547133
 20
2257.2775336861841
 30
0.0
 11
687.27613478946091
 21
2257.2775336861841
 31
0.0
  0
LINE
  5
4B2D
  8
01_FRAME
 62
     7
 10
686.18589539547133
 20
2257.2775336861841
 30
0.0
 11
686.18589539547133
 21
2257.2775336861841
 31
0.0
  0
LINE
  5
4B2E
  8
01_FRAME
 62
     7
 10
685.5361367650255
 20
2261.3702231894981
 30
0.0
 11
684.01351358523948
 21
2261.3702231894981
 31
0.0
  0
LINE
  5
4B2F
  8
01_FRAME
 62
     7
 10
684.07503277182764
 20
2260.6013993834472
 30
0.0
 11
686.01387329080876
 21
2260.6013993834472
 31
0.0
  0
LINE
  5
4B30
  8
01_FRAME
 62
     7
 10
685.60510963771753
 20
2258.0796572134009
 30
0.0
 11
684.12117213690249
 21
2258.0796572134009
 31
0.0
  0
LINE
  5
4B31
  8
01_FRAME
 62
     7
 10
681.69639983947457
 20
2259.1098811234542
 30
0.0
 11
681.91251001187334
 21
2260.5605936759898
 31
0.0
  0
LINE
  5
4B32
  8
01_FRAME
 62
     7
 10
681.69639983947457
 20
2259.1098811234542
 30
0.0
 11
681.69639983947457
 21
2259.1098811234542
 31
0.0
  0
LINE
  5
4B33
  8
01_FRAME
 62
     7
 10
680.76856089545856
 20
2259.7710655085798
 30
0.0
 11
680.85113153860834
 21
2260.3711480517791
 31
0.0
  0
LINE
  5
4B34
  8
01_FRAME
 62
     7
 10
682.7677503966695
 20
2260.4630110950429
 30
0.0
 11
682.52167371662631
 21
2258.802351601033
 31
0.0
  0
LINE
  5
4B35
  8
01_FRAME
 62
     7
 10
683.51409812702946
 20
2258.3179969047019
 30
0.0
 11
683.78281669355476
 21
2260.3092463006769
 31
0.0
  0
LINE
  5
4B36
  8
01_FRAME
 62
     7
 10
682.52167371662631
 20
2258.802351601033
 30
0.0
 11
682.44477474167957
 21
2258.3410573174028
 31
0.0
  0
LINE
  5
4B37
  8
01_FRAME
 62
     7
 10
684.12117213690249
 20
2258.0796572134009
 30
0.0
 11
683.85918169151023
 21
2258.0796572134009
 31
0.0
  0
LINE
  5
4B38
  8
01_FRAME
 62
     7
 10
686.01387329080876
 20
2260.6013993834472
 30
0.0
 11
686.05696322258041
 21
2260.8672295208171
 31
0.0
  0
LINE
  5
4B39
  8
01_FRAME
 62
     7
 10
685.59763225031361
 20
2258.0335277618278
 30
0.0
 11
685.60510963771753
 21
2258.0796572134009
 31
0.0
  0
LINE
  5
4B3A
  8
01_FRAME
 62
     7
 10
687.81860809433294
 20
2260.939732616077
 30
0.0
 11
688.06223010566157
 21
2262.9822065226899
 31
0.0
  0
LINE
  5
4B3B
  8
01_FRAME
 62
     7
 10
688.06223010566157
 20
2262.9822065226899
 30
0.0
 11
686.8971245352883
 21
2262.9822065226899
 31
0.0
  0
LINE
  5
4B3C
  8
01_FRAME
 62
     7
 10
689.9058108678289
 20
2257.2775336861841
 30
0.0
 11
690.3125891741289
 21
2260.4953381028222
 31
0.0
  0
LINE
  5
4B3D
  8
01_FRAME
 62
     7
 10
689.17118606032523
 20
2260.460750783247
 30
0.0
 11
688.7687801053105
 21
2257.2775336861841
 31
0.0
  0
LINE
  5
4B3E
  8
01_FRAME
 62
     7
 10
691.8928593784118
 20
2256.6201368559291
 30
0.0
 11
692.61476738323722
 21
2261.7016001899801
 31
0.0
  0
LINE
  5
4B3F
  8
01_FRAME
 62
     7
 10
691.63312527336768
 20
2262.7232700733339
 30
0.0
 11
690.76989133406607
 21
2256.6201368559291
 31
0.0
  0
LINE
  5
4B40
  8
01_FRAME
 62
     7
 10
688.7687801053105
 20
2257.2775336861841
 30
0.0
 11
689.9058108678289
 21
2257.2775336861841
 31
0.0
  0
LINE
  5
4B41
  8
01_FRAME
 62
     7
 10
690.76989133406607
 20
2256.6201368559291
 30
0.0
 11
691.8928593784118
 21
2256.6201368559291
 31
0.0
  0
LINE
  5
4B42
  8
01_FRAME
 62
     7
 10
693.50855825266967
 20
2262.7232700733339
 30
0.0
 11
691.63312527336768
 21
2262.7232700733339
 31
0.0
  0
LINE
  5
4B43
  8
01_FRAME
 62
     7
 10
692.61476738323722
 20
2261.7016001899801
 30
0.0
 11
693.32521653926392
 21
2258.2025729111242
 31
0.0
  0
LINE
  5
4B44
  8
01_FRAME
 62
     7
 10
694.06240304231017
 20
2259.8080541469221
 30
0.0
 11
693.50855825266967
 21
2262.7232700733339
 31
0.0
  0
LINE
  5
4B45
  8
01_FRAME
 62
     7
 10
695.536776048403
 20
2262.7232700733339
 30
0.0
 11
694.06240304231017
 21
2259.8080541469221
 31
0.0
  0
LINE
  5
4B46
  8
01_FRAME
 62
     7
 10
693.32521653926392
 20
2258.2025729111242
 30
0.0
 11
694.34505484495253
 21
2258.2025729111242
 31
0.0
  0
LINE
  5
4B47
  8
01_FRAME
 62
     7
 10
704.27221729628013
 20
2262.567378020306
 30
0.0
 11
703.23565055516679
 21
2262.4493515865188
 31
0.0
  0
LINE
  5
4B48
  8
01_FRAME
 62
     7
 10
703.68014784676654
 20
2258.3157865251328
 30
0.0
 11
704.01076082787915
 21
2260.6453184222928
 31
0.0
  0
LINE
  5
4B49
  8
01_FRAME
 62
     7
 10
703.48784785792282
 20
2257.2932465218191
 30
0.0
 11
704.55511186167655
 21
2257.2932465218191
 31
0.0
  0
LINE
  5
4B4A
  8
01_FRAME
 62
     7
 10
701.25611795137286
 20
2257.3093918381592
 30
0.0
 11
701.21599740609759
 21
2257.7639934431309
 31
0.0
  0
ARC
  5
4B4B
  8
01_FRAME
 62
     7
 10
702.21212559857463
 20
2257.8519060369481
 30
0.0
 40
1.0
 50
171.34562025558941
 51
185.0435314678453
  0
LINE
  5
4B4C
  8
01_FRAME
 62
     7
 10
696.5107789257396
 20
2256.6201368559291
 30
0.0
 11
697.38547171383993
 21
2262.7232700733339
 31
0.0
  0
LINE
  5
4B4D
  8
01_FRAME
 62
     7
 10
698.61079359118196
 20
2257.294015332197
 30
0.0
 11
699.59510034450773
 21
2257.294015332197
 31
0.0
  0
LINE
  5
4B4E
  8
01_FRAME
 62
     7
 10
700.1949122562562
 20
2257.3093918381592
 30
0.0
 11
701.25611795137286
 21
2257.3093918381592
 31
0.0
  0
LINE
  5
4B4F
  8
01_FRAME
 62
     7
 10
703.48784785792179
 20
2257.2932465218191
 30
0.0
 11
703.56474683286945
 21
2257.2932465218191
 31
0.0
  0
LINE
  5
4B50
  8
01_FRAME
 62
     7
 10
700.37946978286595
 20
2259.7542516110238
 30
0.0
 11
698.90300966945483
 21
2259.7542516110238
 31
0.0
  0
LINE
  5
4B51
  8
01_FRAME
 62
     7
 10
698.1186402310974
 20
2260.599957814255
 30
0.0
 11
700.19663740022645
 21
2260.599957814255
 31
0.0
  0
LINE
  5
4B52
  8
01_FRAME
 62
     7
 10
700.76690161317106
 20
2261.384158126265
 30
0.0
 11
698.64155320105476
 21
2261.384158126265
 31
0.0
  0
LINE
  5
4B53
  8
01_FRAME
 62
     7
 10
698.16477962932709
 20
2261.0458756582352
 30
0.0
 11
698.1186402310974
 21
2260.599957814255
 31
0.0
  0
LINE
  5
4B54
  8
01_FRAME
 62
     7
 10
698.99522901805415
 20
2257.9525917366659
 30
0.0
 11
699.73627890266346
 21
2257.9381006159178
 31
0.0
  0
LINE
  5
4B55
  8
01_FRAME
 62
     7
 10
699.984237551707
 20
2259.0442564867949
 30
0.0
 11
699.19650183768113
 21
2259.0442564867949
 31
0.0
  0
LINE
  5
4B56
  8
01_FRAME
 62
     7
 10
702.34431504326653
 20
2261.3987657886928
 30
0.0
 11
702.21132505948003
 21
2260.6453184222928
 31
0.0
  0
LINE
  5
4B57
  8
01_FRAME
 62
     7
 10
701.22351158767265
 20
2258.0023797471049
 30
0.0
 11
701.61500996684003
 21
2260.574528612759
 31
0.0
  0
LINE
  5
4B58
  8
01_FRAME
 62
     7
 10
700.13425017321674
 20
2258.3245306130289
 30
0.0
 11
700.22357537275889
 21
2258.818344882156
 31
0.0
  0
LINE
  5
4B59
  8
01_FRAME
 62
     7
 10
700.45636872465695
 20
2260.3078047646409
 30
0.0
 11
700.37946978286595
 21
2259.7542516110238
 31
0.0
  0
LINE
  5
4B5A
  8
01_FRAME
 62
     7
 10
700.46218332188948
 20
2260.3740462096171
 30
0.0
 11
700.45636872465695
 21
2260.3078047646409
 31
0.0
  0
LINE
  5
4B5B
  8
01_FRAME
 62
     7
 10
702.96493492112108
 20
2260.6453184222928
 30
0.0
 11
702.6111996894158
 21
2258.3388469378342
 31
0.0
  0
LINE
  5
4B5C
  8
01_FRAME
 62
     7
 10
702.21132505948003
 20
2260.6453184222928
 30
0.0
 11
702.96493492112108
 21
2260.6453184222928
 31
0.0
  0
LINE
  5
4B5D
  8
01_FRAME
 62
     7
 10
703.23565055516679
 20
2262.4493515865188
 30
0.0
 11
703.07259347278409
 21
2261.3987657886928
 31
0.0
  0
LINE
  5
4B5E
  8
01_FRAME
 62
     7
 10
703.07259347278409
 20
2261.3987657886928
 30
0.0
 11
702.34431504326653
 21
2261.3987657886928
 31
0.0
  0
LINE
  5
4B5F
  8
01_FRAME
 62
     7
 10
705.02582715449057
 20
2257.6315289898512
 30
0.0
 11
705.07196652299604
 21
2258.07744683383
 31
0.0
  0
LINE
  5
4B60
  8
01_FRAME
 62
     7
 10
705.39494217798494
 20
2260.6453184222928
 30
0.0
 11
705.48722094129039
 21
2261.3987657886928
 31
0.0
  0
LINE
  5
4B61
  8
01_FRAME
 62
     7
 10
705.07196652299604
 20
2258.07744683383
 30
0.0
 11
704.02523141124925
 21
2258.07744683383
 31
0.0
  0
LINE
  5
4B62
  8
01_FRAME
 62
     7
 10
704.01076082787915
 20
2260.6453184222928
 30
0.0
 11
705.39494217798494
 21
2260.6453184222928
 31
0.0
  0
LINE
  5
4B63
  8
01_FRAME
 62
     7
 10
704.1030395911846
 20
2261.3987657886928
 30
0.0
 11
704.27221729628013
 21
2262.567378020306
 31
0.0
  0
LINE
  5
4B64
  8
01_FRAME
 62
     7
 10
705.48722094129039
 20
2261.3987657886928
 30
0.0
 11
704.1030395911846
 21
2261.3987657886928
 31
0.0
  0
ARC
  5
4B65
  8
01_FRAME
 62
     7
 10
679.69399809203674
 20
2260.2565556681689
 30
0.0
 40
0.356267723523487
 50
129.9788673075646
 51
171.82154662074871
  0
ARC
  5
4B66
  8
01_FRAME
 62
     7
 10
679.64263380419902
 20
2260.3303715399029
 30
0.0
 40
0.2668241670683093
 50
91.829758024394408
 51
131.71149876918361
  0
ARC
  5
4B67
  8
01_FRAME
 62
     7
 10
684.13491672171199
 20
2260.2608953951999
 30
0.0
 40
0.356267723523487
 50
129.9788673075646
 51
171.82154662074871
  0
ARC
  5
4B68
  8
01_FRAME
 62
     7
 10
684.08355243387427
 20
2260.3347112669321
 30
0.0
 40
0.2668241670683093
 50
91.829758024394408
 51
131.71149876918361
  0
ARC
  5
4B69
  8
01_FRAME
 62
     7
 10
680.59868966725094
 20
2260.3234185626029
 30
0.0
 40
0.2739546757357922
 50
41.694258406644231
 51
92.74167022804761
  0
ARC
  5
4B6A
  8
01_FRAME
 62
     7
 10
680.66157477112552
 20
2260.3794358432669
 30
0.0
 40
0.1897378601816721
 50
357.49651121804118
 51
41.69425840668103
  0
ARC
  5
4B6B
  8
01_FRAME
 62
     7
 10
700.20974145053208
 20
2260.3263167204409
 30
0.0
 40
0.2739546757357922
 50
41.694258406644231
 51
92.74167022804761
  0
ARC
  5
4B6C
  8
01_FRAME
 62
     7
 10
700.27262655440666
 20
2260.3823340011049
 30
0.0
 40
0.1897378601816721
 50
357.49651121804118
 51
41.69425840668103
  0
ARC
  5
4B6D
  8
01_FRAME
 62
     7
 10
679.41801439428457
 20
2258.5780068104418
 30
0.0
 40
0.4983543481347475
 50
242.0549458700896
 51
270.25018750738548
  0
ARC
  5
4B6E
  8
01_FRAME
 62
     7
 10
679.28092986293325
 20
2258.3195907651111
 30
0.0
 40
0.2058290992756684
 50
180.44368064352511
 51
242.0549458700896
  0
ARC
  5
4B6F
  8
01_FRAME
 62
     7
 10
683.85700558644635
 20
2258.5780068104418
 30
0.0
 40
0.4983543481347475
 50
242.0549458700896
 51
270.25018750738548
  0
ARC
  5
4B70
  8
01_FRAME
 62
     7
 10
683.71992105509594
 20
2258.3195907651111
 30
0.0
 40
0.2058290992756684
 50
180.44368064352511
 51
242.0549458700896
  0
ARC
  5
4B71
  8
01_FRAME
 62
     7
 10
679.30223842625833
 20
2260.3082850540641
 30
0.0
 40
0.9862260689533767
 50
116.4343118930764
 51
170.97374799137759
  0
ARC
  5
4B72
  8
01_FRAME
 62
     7
 10
679.62825287879582
 20
2259.6525195405202
 30
0.0
 40
1.7185605772340431
 50
91.809445418565659
 51
116.4343118930764
  0
ARC
  5
4B73
  8
01_FRAME
 62
     7
 10
683.74176359541229
 20
2260.3082850540641
 30
0.0
 40
0.9862260689533767
 50
116.4343118930764
 51
170.97374799137759
  0
ARC
  5
4B74
  8
01_FRAME
 62
     7
 10
684.06777804794979
 20
2259.6525195405202
 30
0.0
 40
1.7185605772340431
 50
91.809445418565659
 51
116.4343118930764
  0
ARC
  5
4B75
  8
01_FRAME
 62
     7
 10
680.96514634712344
 20
2260.2683010199921
 30
0.0
 40
1.1063833352066721
 50
44.532575507597819
 51
84.852989749608284
  0
ARC
  5
4B76
  8
01_FRAME
 62
     7
 10
681.34535912020942
 20
2260.6423602329919
 30
0.0
 40
0.5730147500357465
 50
351.79615361501862
 51
44.532575507597819
  0
ARC
  5
4B77
  8
01_FRAME
 62
     7
 10
678.89705914577257
 20
2258.1839868490601
 30
0.0
 40
0.8886592913478247
 50
213.378140144387
 51
269.02243001409983
  0
ARC
  5
4B78
  8
01_FRAME
 62
     7
 10
678.95194180363683
 20
2258.220145258651
 30
0.0
 40
0.954382473852452
 50
172.72155707448491
 51
213.378140144387
  0
ARC
  5
4B79
  8
01_FRAME
 62
     7
 10
680.9458191172896
 20
2257.8519295089382
 30
0.0
 40
0.5564808519953198
 50
269.68811547988628
 51
309.85159843335532
  0
ARC
  5
4B7A
  8
01_FRAME
 62
     7
 10
681.08700088019089
 20
2257.6827878604681
 30
0.0
 40
0.3361602051582644
 50
309.85159843335532
 51
351.61013221801829
  0
ARC
  5
4B7B
  8
01_FRAME
 62
     7
 10
683.33658431492563
 20
2258.1839868490601
 30
0.0
 40
0.8886592913478247
 50
213.378140144387
 51
269.02243001409983
  0
ARC
  5
4B7C
  8
01_FRAME
 62
     7
 10
683.39146697279068
 20
2258.220145258651
 30
0.0
 40
0.954382473852452
 50
172.72155707448491
 51
213.378140144387
  0
ARC
  5
4B7D
  8
01_FRAME
 62
     7
 10
685.07774845296865
 20
2257.8519295089382
 30
0.0
 40
0.5564808519953198
 50
269.68811547988628
 51
309.85159843335532
  0
ARC
  5
4B7E
  8
01_FRAME
 62
     7
 10
685.21893021586925
 20
2257.6827878604681
 30
0.0
 40
0.3361602051582644
 50
309.85159843335532
 51
351.61013221801829
  0
ARC
  5
4B7F
  8
01_FRAME
 62
     7
 10
685.55134242457802
 20
2260.8486944888182
 30
0.0
 40
0.5217503212408174
 50
29.017138568443521
 51
91.670039206039846
  0
ARC
  5
4B80
  8
01_FRAME
 62
     7
 10
685.65183184785167
 20
2260.9044359869099
 30
0.0
 40
0.4068362716240224
 50
354.75278767927108
 51
29.017138568443521
  0
LINE
  5
4B81
  8
01_FRAME
 62
     7
 10
707.01149493970536
 20
2259.1098811234542
 30
0.0
 11
709.53378095987466
 21
2259.1098811234542
 31
0.0
  0
LINE
  5
4B82
  8
01_FRAME
 62
     7
 10
709.30308406819006
 20
2258.0796572134009
 30
0.0
 11
707.25757161974775
 21
2258.0796572134009
 31
0.0
  0
LINE
  5
4B83
  8
01_FRAME
 62
     7
 10
706.71927886143271
 20
2257.29545690139
 30
0.0
 11
708.78622937714465
 21
2257.29545690139
 31
0.0
  0
LINE
  5
4B84
  8
01_FRAME
 62
     7
 10
708.90178277860446
 20
2261.3702231894981
 30
0.0
 11
707.41136953648561
 21
2261.3702231894981
 31
0.0
  0
LINE
  5
4B85
  8
01_FRAME
 62
     7
 10
707.11469347608329
 20
2259.7710655085798
 30
0.0
 11
708.60594201585866
 21
2259.7710655085798
 31
0.0
  0
LINE
  5
4B86
  8
01_FRAME
 62
     7
 10
708.42296673734529
 20
2260.597059656418
 30
0.0
 11
707.47149526255339
 21
2260.597059656418
 31
0.0
  0
LINE
  5
4B87
  8
01_FRAME
 62
     7
 10
706.16560634791472
 20
2260.4630110950429
 30
0.0
 11
705.84263069292649
 21
2258.3410573174028
 31
0.0
  0
LINE
  5
4B88
  8
01_FRAME
 62
     7
 10
706.91248805526698
 20
2258.3179969047019
 30
0.0
 11
707.01149493970536
 21
2259.1098811234542
 31
0.0
  0
LINE
  5
4B89
  8
01_FRAME
 62
     7
 10
707.1787348036703
 20
2260.3072371420049
 30
0.0
 11
707.11469347608329
 21
2259.7710655085798
 31
0.0
  0
LINE
  5
4B8A
  8
01_FRAME
 62
     7
 10
709.25694466995969
 20
2257.6337393694212
 30
0.0
 11
709.30308406819006
 21
2258.0796572134009
 31
0.0
  0
LINE
  5
4B8B
  8
01_FRAME
 62
     7
 10
709.53378095987466
 20
2259.1098811234542
 30
0.0
 11
709.74989113227343
 21
2260.5605936759898
 31
0.0
  0
LINE
  5
4B8C
  8
01_FRAME
 62
     7
 10
709.53378095987466
 20
2259.1098811234542
 30
0.0
 11
709.53378095987466
 21
2259.1098811234542
 31
0.0
  0
LINE
  5
4B8D
  8
01_FRAME
 62
     7
 10
708.60594201585866
 20
2259.7710655085798
 30
0.0
 11
708.68851265900844
 21
2260.3711480517791
 31
0.0
  0
ARC
  5
4B8E
  8
01_FRAME
 62
     7
 10
707.53137921243683
 20
2260.2565556681689
 30
0.0
 40
0.356267723523487
 50
129.9788673075646
 51
171.82154662074871
  0
ARC
  5
4B8F
  8
01_FRAME
 62
     7
 10
707.48001492459912
 20
2260.3303715399029
 30
0.0
 40
0.2668241670683093
 50
91.829758024394408
 51
131.71149876918361
  0
ARC
  5
4B90
  8
01_FRAME
 62
     7
 10
708.43607078765103
 20
2260.3234185626029
 30
0.0
 40
0.2739546757357922
 50
41.694258406644231
 51
92.74167022804761
  0
ARC
  5
4B91
  8
01_FRAME
 62
     7
 10
708.49895589152561
 20
2260.3794358432669
 30
0.0
 40
0.1897378601816721
 50
357.49651121804118
 51
41.69425840668103
  0
ARC
  5
4B92
  8
01_FRAME
 62
     7
 10
707.25539551468466
 20
2258.5780068104418
 30
0.0
 40
0.4983543481347475
 50
242.0549458700896
 51
270.25018750738548
  0
ARC
  5
4B93
  8
01_FRAME
 62
     7
 10
707.11831098333334
 20
2258.3195907651111
 30
0.0
 40
0.2058290992756684
 50
180.44368064352511
 51
242.0549458700896
  0
ARC
  5
4B94
  8
01_FRAME
 62
     7
 10
707.13961954665842
 20
2260.3082850540641
 30
0.0
 40
0.9862260689533767
 50
116.4343118930764
 51
170.97374799137759
  0
ARC
  5
4B95
  8
01_FRAME
 62
     7
 10
707.46563399919592
 20
2259.6525195405202
 30
0.0
 40
1.7185605772340431
 50
91.809445418565659
 51
116.4343118930764
  0
ARC
  5
4B96
  8
01_FRAME
 62
     7
 10
708.80252746752353
 20
2260.2683010199921
 30
0.0
 40
1.1063833352066721
 50
44.532575507597819
 51
84.852989749608284
  0
ARC
  5
4B97
  8
01_FRAME
 62
     7
 10
709.18274024060952
 20
2260.6423602329919
 30
0.0
 40
0.5730147500357465
 50
351.79615361501862
 51
44.532575507597819
  0
ARC
  5
4B98
  8
01_FRAME
 62
     7
 10
706.73444026617256
 20
2258.1839868490601
 30
0.0
 40
0.8886592913478247
 50
213.378140144387
 51
269.02243001409983
  0
ARC
  5
4B99
  8
01_FRAME
 62
     7
 10
706.78932292403692
 20
2258.220145258651
 30
0.0
 40
0.954382473852452
 50
172.72155707448491
 51
213.378140144387
  0
ARC
  5
4B9A
  8
01_FRAME
 62
     7
 10
708.7832002376897
 20
2257.8519295089382
 30
0.0
 40
0.5564808519953198
 50
269.68811547988628
 51
309.85159843335532
  0
ARC
  5
4B9B
  8
01_FRAME
 62
     7
 10
708.92438200059098
 20
2257.6827878604681
 30
0.0
 40
0.3361602051582644
 50
309.85159843335532
 51
351.61013221801829
  0
LINE
  5
4B9C
  8
01_FRAME
 62
     7
 10
688.9883837013183
 20
2261.3702231894981
 30
0.0
 11
689.62617801771626
 21
2261.3702231894981
 31
0.0
  0
ARC
  5
4B9D
  8
01_FRAME
 62
     7
 10
689.44026055463439
 20
2260.5538552841258
 30
0.0
 40
0.8742891288908129
 50
356.16225827570821
 51
57.030568872306567
  0
ARC
  5
4B9E
  8
01_FRAME
 62
     7
 10
689.63569402541611
 20
2260.8551482380149
 30
0.0
 40
0.515162848085838
 50
57.030568872306567
 51
91.058418890025422
  0
ARC
  5
4B9F
  8
01_FRAME
 62
     7
 10
689.06559406587496
 20
2259.0833457896001
 30
0.0
 40
2.2881804305072628
 50
91.933705877925576
 51
118.1284095955113
  0
ARC
  5
4BA0
  8
01_FRAME
 62
     7
 10
688.18986575406018
 20
2260.7214837334332
 30
0.0
 40
0.4306562720799454
 50
118.1284095955113
 51
149.5502773796288
  0
ARC
  5
4BA1
  8
01_FRAME
 62
     7
 10
704.55208272222058
 20
2257.8497191293668
 30
0.0
 40
0.5564808519953198
 50
269.68811547988628
 51
309.85159843335532
  0
ARC
  5
4BA2
  8
01_FRAME
 62
     7
 10
704.69326448512095
 20
2257.680577480899
 30
0.0
 40
0.3361602051582644
 50
309.85159843335532
 51
351.61013221801829
  0
ARC
  5
4BA3
  8
01_FRAME
 62
     7
 10
703.50300926266186
 20
2258.1817764694888
 30
0.0
 40
0.8886592913478247
 50
213.378140144387
 51
269.02243001409983
  0
ARC
  5
4BA4
  8
01_FRAME
 62
     7
 10
703.55789192052612
 20
2258.2179348790801
 30
0.0
 40
0.954382473852452
 50
172.72155707448491
 51
213.378140144387
  0
ARC
  5
4BA5
  8
01_FRAME
 62
     7
 10
704.02305530618355
 20
2258.5757964308709
 30
0.0
 40
0.4983543481347475
 50
242.0549458700896
 51
270.25018750738548
  0
ARC
  5
4BA6
  8
01_FRAME
 62
     7
 10
703.88597077483223
 20
2258.317380385542
 30
0.0
 40
0.2058290992756684
 50
180.44368064352511
 51
242.0549458700896
  0
ARC
  5
4BA7
  8
01_FRAME
 62
     7
 10
700.66764630209013
 20
2260.2822359567608
 30
0.0
 40
1.1063833352066721
 50
44.532575507597819
 51
84.852989749608284
  0
ARC
  5
4BA8
  8
01_FRAME
 62
     7
 10
701.04785907517612
 20
2260.6562951697611
 30
0.0
 40
0.5730147500357465
 50
351.79615361501862
 51
44.532575507597819
  0
ARC
  5
4BA9
  8
01_FRAME
 62
     7
 10
698.64022550697484
 20
2260.8318083039512
 30
0.0
 40
0.5523514180140796
 50
89.862277278542265
 51
130.98420927748739
  0
ARC
  5
4BAA
  8
01_FRAME
 62
     7
 10
698.50221896139715
 20
2260.9906550696351
 30
0.0
 40
0.3419277938878447
 50
130.98420927748739
 51
170.7061550554026
  0
ARC
  5
4BAB
  8
01_FRAME
 62
     7
 10
701.13938047919669
 20
2257.8036824554988
 30
0.0
 40
1.0659941081150781
 50
189.2518512240257
 51
207.625462433428
  0
ARC
  5
4BAC
  8
01_FRAME
 62
     7
 10
699.46763398402675
 20
2258.006609057823
 30
0.0
 40
0.7239043381937801
 50
280.14161684226292
 51
328.86389698780192
  0
ARC
  5
4BAD
  8
01_FRAME
 62
     7
 10
698.92979410131716
 20
2258.487597497387
 30
0.0
 40
1.2669372712889659
 50
91.211385343645034
 51
150.30133372254059
  0
ARC
  5
4BAE
  8
01_FRAME
 62
     7
 10
699.44877660853456
 20
2258.1915911126011
 30
0.0
 40
1.864400761915205
 50
150.30133372254059
 51
172.84077312506099
  0
ARC
  5
4BAF
  8
01_FRAME
 62
     7
 10
698.75618892826026
 20
2258.278584600142
 30
0.0
 40
1.1663709905283439
 50
172.84077312506099
 51
205.63064895958601
  0
ARC
  5
4BB0
  8
01_FRAME
 62
     7
 10
698.27706284628653
 20
2258.048710633414
 30
0.0
 40
0.634954164480408
 50
205.63064895958601
 51
237.5110165228015
  0
ARC
  5
4BB1
  8
01_FRAME
 62
     7
 10
698.69704095047166
 20
2258.708224005547
 30
0.0
 40
1.4168361862834209
 50
237.5110165228015
 51
266.5100646608708
  0
ARC
  5
4BB2
  8
01_FRAME
 62
     7
 10
699.97113350140239
 20
2258.7706153929812
 30
0.0
 40
0.2739546757357922
 50
41.694258406644231
 51
92.74167022804761
  0
ARC
  5
4BB3
  8
01_FRAME
 62
     7
 10
700.03401860527595
 20
2258.8266326736439
 30
0.0
 40
0.1897378601816721
 50
357.49651121804118
 51
41.69425840668103
  0
ARC
  5
4BB4
  8
01_FRAME
 62
     7
 10
699.65955048295984
 20
2258.3987569336959
 30
0.0
 40
0.4670026696925385
 50
279.4565576772809
 51
324.92940398283741
  0
ARC
  5
4BB5
  8
01_FRAME
 62
     7
 10
699.51387226981535
 20
2258.5010296474111
 30
0.0
 40
0.6449966295775496
 50
324.92940398283741
 51
344.11881738721661
  0
ARC
  5
4BB6
  8
01_FRAME
 62
     7
 10
699.19066685211669
 20
2258.525677524623
 30
0.0
 40
0.5186117883961751
 50
89.355342266111649
 51
126.25017530154049
  0
ARC
  5
4BB7
  8
01_FRAME
 62
     7
 10
699.10616915536025
 20
2258.6469079549938
 30
0.0
 40
0.3708987868957041
 50
126.7974170349802
 51
163.58374767656801
  0
ARC
  5
4BB8
  8
01_FRAME
 62
     7
 10
695.07386787607595
 20
2259.6963680256622
 30
0.0
 40
3.7959401227298382
 50
343.74206189479008
 51
345.59022698623642
  0
ARC
  5
4BB9
  8
01_FRAME
 62
     7
 10
699.79155854393935
 20
2258.3417364300899
 30
0.0
 40
1.112526027892746
 50
164.78824619774861
 51
186.82014585813221
  0
ARC
  5
4BBA
  8
01_FRAME
 62
     7
 10
698.94539965499257
 20
2258.2330148088122
 30
0.0
 40
0.2595511549401781
 50
185.171295796316
 51
236.50138254920921
  0
ARC
  5
4BBB
  8
01_FRAME
 62
     7
 10
699.01672934492365
 20
2258.3407878649259
 30
0.0
 40
0.3887910724951353
 50
236.50138254920921
 51
266.82989961253043
  0
ENDSEC
  0
EOF
