  0
SECTION
  2
HEADER
  9
$ACADVER
  1
AC1009
  9
$INSBASE
 10
0.0
 20
0.0
 30
0.0
  9
$EXTMIN
 10
2775.9927352471391
 20
9263.0730340970658
 30
0.0
  9
$EXTMAX
 10
4124.1573656138917
 20
10230.00505146383
 30
0.0
  9
$LIMMIN
 10
0.0
 20
0.0
  9
$LIMMAX
 10
0.0
 20
0.0
  9
$ORTHOMODE
 70
     0
  9
$REGENMODE
 70
     1
  9
$FILLMODE
 70
     1
  9
$QTEXTMODE
 70
     0
  9
$MIRRTEXT
 70
     1
  9
$DRAGMODE
 70
     2
  9
$LTSCALE
 40
50.0
  9
$OSMODE
 70
    47
  9
$ATTMODE
 70
     1
  9
$TEXTSIZE
 40
10.0
  9
$TRACEWID
 40
0.05
  9
$TEXTSTYLE
  7
MECHTRONICS
  9
$CLAYER
  8
50_DIMENSIONS1
  9
$CELTYPE
  6
BYLAYER
  9
$CECOLOR
 62
   256
  9
$DIMSCALE
 40
5.0
  9
$DIMASZ
 40
2.0
  9
$DIMEXO
 40
1.0
  9
$DIMDLI
 40
6.0
  9
$DIMRND
 40
0.0
  9
$DIMDLE
 40
0.0
  9
$DIMEXE
 40
0.5
  9
$DIMTP
 40
0.0
  9
$DIMTM
 40
0.0
  9
$DIMTXT
 40
2.0
  9
$DIMCEN
 40
0.09
  9
$DIMTSZ
 40
0.0
  9
$DIMTOL
 70
     0
  9
$DIMLIM
 70
     0
  9
$DIMTIH
 70
     0
  9
$DIMTOH
 70
     1
  9
$DIMSE1
 70
     0
  9
$DIMSE2
 70
     0
  9
$DIMTAD
 70
     0
  9
$DIMZIN
 70
     0
  9
$DIMBLK
  1

  9
$DIMASO
 70
     1
  9
$DIMSHO
 70
     1
  9
$DIMPOST
  1

  9
$DIMAPOST
  1

  9
$DIMALT
 70
     0
  9
$DIMALTD
 70
     2
  9
$DIMALTF
 40
25.399999999999999
  9
$DIMLFAC
 40
1.0
  9
$DIMTOFL
 70
     0
  9
$DIMTVP
 40
0.0
  9
$DIMTIX
 70
     0
  9
$DIMSOXD
 70
     0
  9
$DIMSAH
 70
     0
  9
$DIMBLK1
  1

  9
$DIMBLK2
  1

  9
$DIMSTYLE
  2
MECHTRONICS
  9
$DIMCLRD
 70
     7
  9
$DIMCLRE
 70
     7
  9
$DIMCLRT
 70
     0
  9
$DIMTFAC
 40
1.0
  9
$DIMGAP
 40
0.5
  9
$LUNITS
 70
     2
  9
$LUPREC
 70
    10
  9
$SKETCHINC
 40
0.1
  9
$FILLETRAD
 40
8.0
  9
$AUNITS
 70
     0
  9
$AUPREC
 70
     0
  9
$MENU
  1
acad
  9
$ELEVATION
 40
0.0
  9
$PELEVATION
 40
0.0
  9
$THICKNESS
 40
0.0
  9
$LIMCHECK
 70
     0
  9
$BLIPMODE
 70
     0
  9
$CHAMFERA
 40
0.0
  9
$CHAMFERB
 40
0.0
  9
$SKPOLY
 70
     0
  9
$TDCREATE
 40
2444972.083333333
  9
$TDUPDATE
 40
2454646.832998761
  9
$TDINDWG
 40
1.1150450462999999
  9
$TDUSRTIMER
 40
1.1150450462999999
  9
$USRTIMER
 70
     1
  9
$ANGBASE
 50
0.0
  9
$ANGDIR
 70
     0
  9
$PDMODE
 70
     0
  9
$PDSIZE
 40
0.0
  9
$PLINEWID
 40
0.0
  9
$COORDS
 70
     1
  9
$SPLFRAME
 70
     0
  9
$SPLINETYPE
 70
     6
  9
$SPLINESEGS
 70
     8
  9
$ATTDIA
 70
     0
  9
$ATTREQ
 70
     1
  9
$HANDLING
 70
     1
  9
$HANDSEED
  5
606F
  9
$SURFTAB1
 70
     6
  9
$SURFTAB2
 70
     6
  9
$SURFTYPE
 70
     6
  9
$SURFU
 70
     6
  9
$SURFV
 70
     6
  9
$UCSNAME
  2

  9
$UCSORG
 10
0.0
 20
0.0
 30
0.0
  9
$UCSXDIR
 10
1.0
 20
0.0
 30
0.0
  9
$UCSYDIR
 10
0.0
 20
1.0
 30
0.0
  9
$PUCSNAME
  2

  9
$PUCSORG
 10
0.0
 20
0.0
 30
0.0
  9
$PUCSXDIR
 10
1.0
 20
0.0
 30
0.0
  9
$PUCSYDIR
 10
0.0
 20
1.0
 30
0.0
  9
$USERI1
 70
     0
  9
$USERI2
 70
     0
  9
$USERI3
 70
     0
  9
$USERI4
 70
     0
  9
$USERI5
 70
     0
  9
$USERR1
 40
0.0
  9
$USERR2
 40
0.0
  9
$USERR3
 40
0.0
  9
$USERR4
 40
0.0
  9
$USERR5
 40
0.0
  9
$WORLDVIEW
 70
     1
  9
$SHADEDGE
 70
     3
  9
$SHADEDIF
 70
    70
  9
$TILEMODE
 70
     1
  9
$MAXACTVP
 70
    16
  9
$PLIMCHECK
 70
     0
  9
$PEXTMIN
 10
1.088750099572608
 20
0.7937499998122686
 30
0.0
  9
$PEXTMAX
 10
21.184573317709511
 20
7.1437499983104198
 30
0.0
  9
$PLIMMIN
 10
0.0
 20
0.0
  9
$PLIMMAX
 10
12.0
 20
9.0
  9
$UNITMODE
 70
     0
  9
$VISRETAIN
 70
     0
  9
$PLINEGEN
 70
     1
  9
$PSLTSCALE
 70
     0
  0
ENDSEC
  0
SECTION
  2
TABLES
  0
TABLE
  2
VPORT
 70
     2
  0
VPORT
  2
*ACTIVE
 70
     0
 10
0.0
 20
0.0
 11
1.0
 21
1.0
 12
3450.0796595551301
 22
9746.8334744432032
 13
0.0
 23
0.0
 14
1.0
 24
1.0
 15
0.0
 25
0.0
 16
0.0
 26
0.0
 36
1.0
 17
0.0
 27
0.0
 37
0.0
 40
978.13586006035757
 41
1.7423423423423421
 42
50.0
 43
0.0
 44
0.0
 50
0.0
 51
0.0
 71
     0
 72
   100
 73
     1
 74
     0
 75
     0
 76
     0
 77
     0
 78
     0
  0
ENDTAB
  0
TABLE
  2
LTYPE
 70
     1
  0
LTYPE
  2
CONTINUOUS
 70
     0
  3
Solid line
 72
    65
 73
     0
 40
0.0
  0
ENDTAB
  0
TABLE
  2
LAYER
 70
    14
  0
LAYER
  2
0
 70
     0
 62
   221
  6
CONTINUOUS
  0
LAYER
  2
50_DIMENSIONS1
 70
     0
 62
     7
  6
CONTINUOUS
  0
LAYER
  2
10_OUTLINE1
 70
     0
 62
     2
  6
CONTINUOUS
  0
LAYER
  2
DEFPOINTS
 70
     0
 62
     7
  6
CONTINUOUS
  0
LAYER
  2
50_DIMENSIONS
 70
     0
 62
     7
  6
CONTINUOUS
  0
LAYER
  2
10_OUTLINE
 70
     0
 62
     2
  6
CONTINUOUS
  0
LAYER
  2
62_TEXT
 70
     0
 62
     7
  6
CONTINUOUS
  0
LAYER
  2
01_FRAME
 70
     0
 62
     4
  6
CONTINUOUS
  0
LAYER
  2
62_TEXT1
 70
     0
 62
     7
  6
CONTINUOUS
  0
LAYER
  2
01_FRAME1
 70
     0
 62
     4
  6
CONTINUOUS
  0
LAYER
  2
50_DIMENSIONS0
 70
     0
 62
     7
  6
CONTINUOUS
  0
LAYER
  2
10_OUTLINE0
 70
     0
 62
     2
  6
CONTINUOUS
  0
LAYER
  2
62_TEXT0
 70
     0
 62
     7
  6
CONTINUOUS
  0
LAYER
  2
01_FRAME0
 70
     0
 62
     4
  6
CONTINUOUS
  0
ENDTAB
  0
TABLE
  2
STYLE
 70
     2
  0
STYLE
  2
STANDARD
 70
     0
 40
0.0
 41
1.0
 50
0.0
 71
     0
 42
1.3456087235615539
  3
txt
  4

  0
STYLE
  2
MECHTRONICS
 70
     0
 40
10.0
 41
1.0
 50
0.0
 71
     0
 42
10.0
  3
txt
  4

  0
ENDTAB
  0
TABLE
  2
VIEW
 70
     0
  0
ENDTAB
  0
TABLE
  2
UCS
 70
    16
  0
UCS
  2
AUDIT_D_000731094948-0
 70
     0
 10
0.0
 20
0.0
 30
1.0
 11
1.0
 21
0.0
 31
0.0
 12
0.0
 22
1.0
 32
0.0
  0
UCS
  2
AUDIT_D_000731094948-1
 70
     0
 10
0.0
 20
0.0
 30
1.0
 11
1.0
 21
0.0
 31
0.0
 12
0.0
 22
1.0
 32
0.0
  0
UCS
  2
AUDIT_D_000731094948-2
 70
     0
 10
0.0
 20
0.0
 30
1.0
 11
1.0
 21
0.0
 31
0.0
 12
0.0
 22
1.0
 32
0.0
  0
UCS
  2
AUDIT_D_000731094948-3
 70
     0
 10
0.0
 20
0.0
 30
1.0
 11
1.0
 21
0.0
 31
0.0
 12
0.0
 22
1.0
 32
0.0
  0
UCS
  2
AUDIT_D_000731094948-4
 70
     0
 10
0.0
 20
0.0
 30
1.0
 11
1.0
 21
0.0
 31
0.0
 12
0.0
 22
1.0
 32
0.0
  0
UCS
  2
AUDIT_D_000731094948-5
 70
     0
 10
0.0
 20
0.0
 30
1.0
 11
1.0
 21
0.0
 31
0.0
 12
0.0
 22
1.0
 32
0.0
  0
UCS
  2
AUDIT_D_000731094948-6
 70
     0
 10
0.0
 20
0.0
 30
1.0
 11
1.0
 21
0.0
 31
0.0
 12
0.0
 22
1.0
 32
0.0
  0
UCS
  2
AUDIT_D_000731094948-7
 70
     0
 10
0.0
 20
0.0
 30
1.0
 11
1.0
 21
0.0
 31
0.0
 12
0.0
 22
1.0
 32
0.0
  0
UCS
  2
AUDIT_D_000731094948-8
 70
     0
 10
0.0
 20
0.0
 30
1.0
 11
1.0
 21
0.0
 31
0.0
 12
0.0
 22
1.0
 32
0.0
  0
UCS
  2
AUDIT_D_000731094948-9
 70
     0
 10
0.0
 20
0.0
 30
1.0
 11
1.0
 21
0.0
 31
0.0
 12
0.0
 22
1.0
 32
0.0
  0
UCS
  2
AUDIT_D_000731094948-10
 70
     0
 10
0.0
 20
0.0
 30
1.0
 11
1.0
 21
0.0
 31
0.0
 12
0.0
 22
1.0
 32
0.0
  0
UCS
  2
AUDIT_D_000731094948-11
 70
     0
 10
0.0
 20
0.0
 30
1.0
 11
1.0
 21
0.0
 31
0.0
 12
0.0
 22
1.0
 32
0.0
  0
UCS
  2
AUDIT_D_000731094948-12
 70
     0
 10
0.0
 20
0.0
 30
1.0
 11
1.0
 21
0.0
 31
0.0
 12
0.0
 22
1.0
 32
0.0
  0
UCS
  2
AUDIT_D_000731094948-13
 70
     0
 10
0.0
 20
0.0
 30
1.0
 11
1.0
 21
0.0
 31
0.0
 12
0.0
 22
1.0
 32
0.0
  0
UCS
  2
AUDIT_D_000731094948-14
 70
     0
 10
0.0
 20
0.0
 30
1.0
 11
1.0
 21
0.0
 31
0.0
 12
0.0
 22
1.0
 32
0.0
  0
UCS
  2
CK_VIEW_1
 70
     0
 10
0.0
 20
0.0
 30
1.0
 11
1.0
 21
0.0
 31
0.0
 12
0.0
 22
1.0
 32
0.0
  0
ENDTAB
  0
TABLE
  2
APPID
 70
     3
  0
APPID
  2
ACAD
 70
     0
  0
APPID
  2
ACAD_PSEXT
 70
     0
  0
APPID
  2
DCO15
 70
     0
  0
ENDTAB
  0
TABLE
  2
DIMSTYLE
 70
     2
  0
DIMSTYLE
  2
STANDARD
 70
     0
  3

  4

  5

  6

  7

 40
1.0
 41
0.18
 42
0.0625
 43
0.38
 44
0.18
 45
0.0
 46
0.0
 47
0.0
 48
0.0
140
0.18
141
0.09
142
0.0
143
25.399999999999999
144
1.0
145
0.0
146
1.0
147
0.09
 71
     0
 72
     0
 73
     1
 74
     1
 75
     0
 76
     0
 77
     0
 78
     0
170
     0
171
     2
172
     0
173
     0
174
     0
175
     0
176
     0
177
     0
178
     0
  0
DIMSTYLE
  2
MECHTRONICS
 70
     0
  3

  4

  5

  6

  7

 40
5.0
 41
2.0
 42
1.0
 43
6.0
 44
0.5
 45
0.0
 46
0.0
 47
0.0
 48
0.0
140
2.0
141
0.09
142
0.0
143
25.399999999999999
144
1.0
145
0.0
146
1.0
147
0.5
 71
     0
 72
     0
 73
     0
 74
     1
 75
     0
 76
     0
 77
     0
 78
     0
170
     0
171
     2
172
     0
173
     0
174
     0
175
     0
176
     7
177
     7
178
     0
  0
ENDTAB
  0
ENDSEC
  0
SECTION
  2
BLOCKS
  0
BLOCK
  8
0
  2
$MODEL_SPACE
 70
     0
 10
0.0
 20
0.0
 30
0.0
  3
$MODEL_SPACE
  1

  0
ENDBLK
  5
E
  8
0
  0
BLOCK
 67
     1
  8
0
  2
$PAPER_SPACE
 70
     0
 10
0.0
 20
0.0
 30
0.0
  3
$PAPER_SPACE
  1

  0
ENDBLK
  5
10
 67
     1
  8
0
  0
BLOCK
  8
0
  2
_DOTSMALL
 70
     0
 10
0.0
 20
0.0
 30
0.0
  3
_DOTSMALL
  1

  0
POLYLINE
  5
1A9D
  8
0
 62
     0
 66
     1
 10
0.0
 20
0.0
 30
0.0
 70
     1
 40
0.5
 41
0.5
  0
VERTEX
  5
6028
  8
0
 62
     0
 10
-0.0625
 20
0.0
 30
0.0
 42
1.0
  0
VERTEX
  5
6029
  8
0
 62
     0
 10
0.0625
 20
0.0
 30
0.0
 42
1.0
  0
SEQEND
  5
602A
  8
0
 62
     0
  0
ENDBLK
  5
1A9F
  8
0
  0
BLOCK
  8
0
  2
*U16
 70
     1
 10
0.0
 20
0.0
 30
0.0
  3
*U16
  1

  0
TEXT
  5
5B09
  8
62_TEXT
 10
344.13429961853711
 20
307.22448390611879
 30
0.0
 40
10.0
  1
Attachment for limit 
  7
MECHTRONICS
  0
TEXT
  5
5B0A
  8
62_TEXT
 10
343.3225670128071
 20
290.38728517942468
 30
0.0
 40
10.0
  1
switches & stopper 
  7
MECHTRONICS
  0
TEXT
  5
5B0B
  8
62_TEXT
 10
343.39077983681813
 20
273.72061851275811
 30
0.0
 40
10.0
  1
blocks
  7
MECHTRONICS
  0
ENDBLK
  5
5B0C
  8
0
  0
BLOCK
  8
0
  2
*U17
 70
     1
 10
0.0
 20
0.0
 30
0.0
  3
*U17
  1

  0
TEXT
  5
5B0F
  8
62_TEXT
 10
44.122581027296327
 20
193.63370659537799
 30
0.0
 40
10.0
  1
V-roller
  7
MECHTRONICS
  0
ENDBLK
  5
5B10
  8
0
  0
BLOCK
  8
0
  2
*U18
 70
     1
 10
0.0
 20
0.0
 30
0.0
  3
*U18
  1

  0
TEXT
  5
5B13
  8
62_TEXT
 10
837.05474375614574
 20
538.45795399832275
 30
0.0
 40
10.0
  1
SUPPLY .dxf VERSION OF THIS DRAWING TO THE LASER 
  7
MECHTRONICS
  0
TEXT
  5
5B14
  8
62_TEXT
 10
836.76824989529985
 20
521.62075527162881
 30
0.0
 40
10.0
  1
CUTTING CONTRACTOR FOR REMAINDER OF DIMENSIONS. 
  7
MECHTRONICS
  0
TEXT
  5
5B15
  8
62_TEXT
 10
836.29758140962463
 20
504.78355654493481
 30
0.0
 40
10.0
  1
THE GIVEN DIMENSIONS ARE TO CHECK SCALE.
  7
MECHTRONICS
  0
ENDBLK
  5
5B16
  8
0
  0
BLOCK
  8
0
  2
*U19
 70
     1
 10
0.0
 20
0.0
 30
0.0
  3
*U19
  1

  0
SOLID
  5
5B19
  8
50_DIMENSIONS
 10
556.90038159514086
 20
230.3690675718197
 30
0.0
 11
553.0891988198008
 21
239.76335645553669
 31
0.0
 12
559.74116811011174
 22
232.1129262494282
 32
0.0
 13
559.74116811011174
 23
232.1129262494282
 33
0.0
  0
POLYLINE
  5
5B1A
  8
50_DIMENSIONS
 66
     1
 10
0.0
 20
0.0
 30
0.0
  0
VERTEX
  5
604B
  8
50_DIMENSIONS
 10
558.3207748526263
 20
231.24099691062389
 30
0.0
  0
VERTEX
  5
604C
  8
50_DIMENSIONS
 10
573.85431110155002
 20
205.93650356356599
 30
0.0
  0
VERTEX
  5
604D
  8
50_DIMENSIONS
 10
606.44179583619848
 20
205.93650356356599
 30
0.0
  0
SEQEND
  5
604E
  8
50_DIMENSIONS
  0
ENDBLK
  5
5B1B
  8
0
  0
BLOCK
  8
0
  2
*U20
 70
     1
 10
0.0
 20
0.0
 30
0.0
  3
*U20
  1

  0
SOLID
  5
5B1E
  8
50_DIMENSIONS
 10
466.99210163543802
 20
220.2280730872555
 30
0.0
 11
463.37475863617908
 21
229.6986911982076
 31
0.0
 12
469.86812140119252
 22
221.9131907146342
 32
0.0
 13
469.86812140119252
 23
221.9131907146342
 33
0.0
  0
POLYLINE
  5
5B1F
  8
50_DIMENSIONS
 66
     1
 10
0.0
 20
0.0
 30
0.0
  0
VERTEX
  5
604F
  8
50_DIMENSIONS
 10
468.4301115183153
 20
221.0706319009449
 30
0.0
  0
VERTEX
  5
6050
  8
50_DIMENSIONS
 10
489.66070810402852
 20
184.83600090117801
 30
0.0
  0
VERTEX
  5
6051
  8
50_DIMENSIONS
 10
522.24819283867726
 20
184.83600090117801
 30
0.0
  0
SEQEND
  5
6052
  8
50_DIMENSIONS
  0
ENDBLK
  5
5B20
  8
0
  0
BLOCK
  8
0
  2
*U21
 70
     1
 10
0.0
 20
0.0
 30
0.0
  3
*U21
  1

  0
TEXT
  5
5B23
  8
62_TEXT
 10
434.43496061990521
 20
156.13627180005179
 30
0.0
 40
10.0
  1
Motor plate stabiliser screw
  7
MECHTRONICS
  0
ENDBLK
  5
5B24
  8
0
  0
BLOCK
  8
0
  2
*U22
 70
     1
 10
0.0
 20
0.0
 30
0.0
  3
*U22
  1

  0
SOLID
  5
5B27
  8
50_DIMENSIONS
 10
373.1378592465561
 20
196.57984492683789
 30
0.0
 11
369.52051624729751
 21
206.05046303778991
 31
0.0
 12
376.01387901231038
 22
198.2649625542164
 32
0.0
 13
376.01387901231038
 23
198.2649625542164
 33
0.0
  0
POLYLINE
  5
5B28
  8
50_DIMENSIONS
 66
     1
 10
0.0
 20
0.0
 30
0.0
  0
VERTEX
  5
6053
  8
50_DIMENSIONS
 10
374.57586912943322
 20
197.42240374052719
 30
0.0
  0
VERTEX
  5
6054
  8
50_DIMENSIONS
 10
395.80646571514671
 20
161.18777274076041
 30
0.0
  0
VERTEX
  5
6055
  8
50_DIMENSIONS
 10
428.39395044979523
 20
161.18777274076041
 30
0.0
  0
SEQEND
  5
6056
  8
50_DIMENSIONS
  0
ENDBLK
  5
5B29
  8
0
  0
BLOCK
  8
0
  2
*U23
 70
     1
 10
0.0
 20
0.0
 30
0.0
  3
*U23
  1

  0
TEXT
  5
5B2C
  8
62_TEXT
 10
193.11996574242539
 20
374.48071371964068
 30
0.0
 40
10.0
  1
Limit switch cable
  7
MECHTRONICS
  0
ENDBLK
  5
5B2D
  8
0
  0
BLOCK
  8
0
  2
*U24
 70
     1
 10
0.0
 20
0.0
 30
0.0
  3
*U24
  1

  0
TEXT
  5
5B30
  8
62_TEXT
 10
134.499847443514
 20
278.2594553403078
 30
0.0
 40
10.0
  1
Motor swivel point
  7
MECHTRONICS
  0
ENDBLK
  5
5B31
  8
0
  0
BLOCK
  8
0
  2
*U26
 70
     1
 10
0.0
 20
0.0
 30
0.0
  3
*U26
  1

  0
TEXT
  5
5B41
  8
50_DIMENSIONS0
 62
     0
 10
1874.5915556801599
 20
9706.6883996998658
 30
0.0
 40
10.0
  1
525 [20.67"]
  7
MECHTRONICS
  0
ENDBLK
  5
5B42
  8
0
  0
BLOCK
  8
0
  2
*U28
 70
     1
 10
0.0
 20
0.0
 30
0.0
  3
*U28
  1

  0
TEXT
  5
5B52
  8
50_DIMENSIONS0
 62
     0
 10
2324.494734590563
 20
9846.9842621781827
 30
0.0
 40
10.0
  1
264 [10.39"]
 50
90.0
  7
MECHTRONICS
  0
ENDBLK
  5
5B53
  8
0
  0
BLOCK
  8
0
  2
*U30
 70
     1
 10
0.0
 20
0.0
 30
0.0
  3
*U30
  1

  0
TEXT
  5
5B63
  8
50_DIMENSIONS0
 62
     0
 10
2248.8642934780801
 20
9768.6923112914174
 30
0.0
 40
10.0
  1
92 [3.61"]
 50
90.0
  7
MECHTRONICS
  0
ENDBLK
  5
5B64
  8
0
  0
BLOCK
  8
0
  2
*U32
 70
     1
 10
0.0
 20
0.0
 30
0.0
  3
*U32
  1

  0
TEXT
  5
5B74
  8
50_DIMENSIONS0
 62
     0
 10
2186.4413828288648
 20
9878.2984775983859
 30
0.0
 40
10.0
  1
51 [1.99"]
  7
MECHTRONICS
  0
ENDBLK
  5
5B75
  8
0
  0
BLOCK
  8
0
  2
*U34
 70
     1
 10
0.0
 20
0.0
 30
0.0
  3
*U34
  1

  0
TEXT
  5
5B85
  8
50_DIMENSIONS0
 62
     0
 10
1874.758677098986
 20
10039.113932849759
 30
0.0
 40
10.0
  1
424 [16.69"]
  7
MECHTRONICS
  0
ENDBLK
  5
5B86
  8
0
  0
BLOCK
  8
0
  2
*U35
 70
     1
 10
0.0
 20
0.0
 30
0.0
  3
*U35
  1

  0
TEXT
  5
5B89
  8
50_DIMENSIONS0
 10
1508.940614740231
 20
9871.9244550345684
 30
0.0
 40
10.0
  1
ENGRAVE BEND MARKS
  7
MECHTRONICS
  0
ENDBLK
  5
5B8A
  8
0
  0
BLOCK
  8
0
  2
*U36
 70
     1
 10
0.0
 20
0.0
 30
0.0
  3
*U36
  1

  0
SOLID
  5
5B8D
  8
50_DIMENSIONS0
 10
1722.0081077626089
 20
9860.3052537659514
 30
0.0
 11
1727.900664272496
 21
9852.0556746521106
 31
0.0
 12
1719.651085158654
 22
9857.9482311619959
 32
0.0
 13
1719.651085158654
 23
9857.9482311619959
 33
0.0
  0
POLYLINE
  5
5B8E
  8
50_DIMENSIONS0
 66
     1
 10
0.0
 20
0.0
 30
0.0
  0
VERTEX
  5
6057
  8
50_DIMENSIONS0
 10
1720.8295964606309
 20
9859.1267424639755
 30
0.0
  0
VERTEX
  5
6058
  8
50_DIMENSIONS0
 10
1703.1806792676271
 20
9876.7756596569798
 30
0.0
  0
VERTEX
  5
6059
  8
50_DIMENSIONS0
 10
1684.3627914220201
 20
9876.7756596569798
 30
0.0
  0
SEQEND
  5
605A
  8
50_DIMENSIONS0
  0
ENDBLK
  5
5B8F
  8
0
  0
BLOCK
  8
0
  2
*D37
 70
     1
 10
0.0
 20
0.0
 30
0.0
  3
*D37
  1

  0
LINE
  5
600D
  8
50_DIMENSIONS1
 62
     7
 10
3119.5283641650508
 20
9877.2738039563974
 30
0.0
 11
3119.5283641650508
 21
9792.0948251637146
 31
0.0
  0
LINE
  5
600E
  8
50_DIMENSIONS1
 62
     7
 10
3644.428564165049
 20
9861.9516699066971
 30
0.0
 11
3644.428564165049
 21
9792.0948251637146
 31
0.0
  0
LINE
  5
600F
  8
50_DIMENSIONS1
 62
     7
 10
3129.5283641650508
 20
9794.5948251637146
 30
0.0
 11
3342.5787370163462
 21
9794.5948251637146
 31
0.0
  0
LINE
  5
6010
  8
50_DIMENSIONS1
 62
     7
 10
3634.428564165049
 20
9794.5948251637146
 30
0.0
 11
3421.3781913137541
 21
9794.5948251637146
 31
0.0
  0
SOLID
  5
6011
  8
50_DIMENSIONS1
 62
     7
 10
3129.5283641650508
 20
9796.2614918303825
 30
0.0
 11
3129.5283641650508
 21
9792.9281584970486
 31
0.0
 12
3119.5283641650508
 22
9794.5948251637146
 32
0.0
 13
3119.5283641650508
 23
9794.5948251637146
 33
0.0
  0
SOLID
  5
6012
  8
50_DIMENSIONS1
 62
     7
 10
3634.428564165049
 20
9796.2614918303825
 30
0.0
 11
3634.428564165049
 21
9792.9281584970486
 31
0.0
 12
3644.428564165049
 22
9794.5948251637146
 32
0.0
 13
3644.428564165049
 23
9794.5948251637146
 33
0.0
  0
INSERT
  5
6013
  8
50_DIMENSIONS1
  2
*U51
 10
0.0
 20
0.0
 30
0.0
  0
POINT
  5
6014
  8
DEFPOINTS
 62
     0
 10
3119.5283641650508
 20
9882.2738039563974
 30
0.0
  0
POINT
  5
6015
  8
DEFPOINTS
 62
     0
 10
3644.428564165049
 20
9866.9516699066971
 30
0.0
  0
POINT
  5
6016
  8
DEFPOINTS
 62
     0
 10
3644.428564165049
 20
9794.5948251637146
 30
0.0
  0
ENDBLK
  5
5F7E
  8
0
  0
BLOCK
  8
0
  2
*D38
 70
     1
 10
0.0
 20
0.0
 30
0.0
  3
*D38
  1

  0
LINE
  5
5FF9
  8
50_DIMENSIONS1
 62
     7
 10
3460.6137767111582
 20
9837.1516699066942
 30
0.0
 11
3792.880960947215
 21
9837.1516699066942
 31
0.0
  0
LINE
  5
5FFA
  8
50_DIMENSIONS1
 62
     7
 10
3598.9285641650499
 20
10100.95166990669
 30
0.0
 11
3792.880960947215
 21
10100.95166990669
 31
0.0
  0
LINE
  5
5FFB
  8
50_DIMENSIONS1
 62
     7
 10
3790.380960947215
 20
9847.1516699066979
 30
0.0
 11
3790.380960947215
 21
9929.5769086515775
 31
0.0
  0
LINE
  5
5FFC
  8
50_DIMENSIONS1
 62
     7
 10
3790.380960947215
 20
10090.95166990669
 30
0.0
 11
3790.380960947215
 21
10008.52643116181
 31
0.0
  0
SOLID
  5
5FFD
  8
50_DIMENSIONS1
 62
     7
 10
3788.7142942805481
 20
9847.1516699066979
 30
0.0
 11
3792.0476276138811
 21
9847.1516699066979
 31
0.0
 12
3790.380960947215
 22
9837.1516699066942
 32
0.0
 13
3790.380960947215
 23
9837.1516699066942
 33
0.0
  0
SOLID
  5
5FFE
  8
50_DIMENSIONS1
 62
     7
 10
3788.7142942805481
 20
10090.95166990669
 30
0.0
 11
3792.0476276138811
 21
10090.95166990669
 31
0.0
 12
3790.380960947215
 22
10100.95166990669
 32
0.0
 13
3790.380960947215
 23
10100.95166990669
 33
0.0
  0
INSERT
  5
5FFF
  8
50_DIMENSIONS1
  2
*U49
 10
0.0
 20
0.0
 30
0.0
  0
POINT
  5
6000
  8
DEFPOINTS
 62
     0
 10
3455.6137767111582
 20
9837.1516699066942
 30
0.0
  0
POINT
  5
6001
  8
DEFPOINTS
 62
     0
 10
3593.928564165049
 20
10100.95166990669
 30
0.0
  0
POINT
  5
6002
  8
DEFPOINTS
 62
     0
 10
3790.380960947215
 20
10100.95166990669
 30
0.0
  0
ENDBLK
  5
5F8B
  8
0
  0
BLOCK
  8
0
  2
*D39
 70
     1
 10
0.0
 20
0.0
 30
0.0
  3
*D39
  1

  0
LINE
  5
5FEF
  8
50_DIMENSIONS1
 62
     7
 10
3460.6137767111582
 20
9837.1516699066942
 30
0.0
 11
3717.2505198347321
 21
9837.1516699066942
 31
0.0
  0
LINE
  5
5FF0
  8
50_DIMENSIONS1
 62
     7
 10
3649.4285641650508
 20
9928.9516699067008
 30
0.0
 11
3717.2505198347321
 21
9928.9516699067008
 31
0.0
  0
LINE
  5
5FF1
  8
50_DIMENSIONS1
 62
     7
 10
3714.7505198347312
 20
9847.1516699066979
 30
0.0
 11
3714.7505198347312
 21
9851.4077408480371
 31
0.0
  0
LINE
  5
5FF2
  8
50_DIMENSIONS1
 62
     7
 10
3714.7505198347312
 20
9918.9516699066971
 30
0.0
 11
3714.7505198347312
 21
9914.6955989653597
 31
0.0
  0
SOLID
  5
5FF3
  8
50_DIMENSIONS1
 62
     7
 10
3713.0838531680652
 20
9847.1516699066979
 30
0.0
 11
3716.4171865013982
 21
9847.1516699066979
 31
0.0
 12
3714.7505198347312
 22
9837.1516699066942
 32
0.0
 13
3714.7505198347312
 23
9837.1516699066942
 33
0.0
  0
SOLID
  5
5FF4
  8
50_DIMENSIONS1
 62
     7
 10
3713.0838531680652
 20
9918.9516699066971
 30
0.0
 11
3716.4171865013982
 21
9918.9516699066971
 31
0.0
 12
3714.7505198347312
 22
9928.9516699067008
 32
0.0
 13
3714.7505198347312
 23
9928.9516699067008
 33
0.0
  0
INSERT
  5
5FF5
  8
50_DIMENSIONS1
  2
*U48
 10
0.0
 20
0.0
 30
0.0
  0
POINT
  5
5FF6
  8
DEFPOINTS
 62
     0
 10
3455.6137767111582
 20
9837.1516699066942
 30
0.0
  0
POINT
  5
5FF7
  8
DEFPOINTS
 62
     0
 10
3644.4285641650499
 20
9928.9516699067008
 30
0.0
  0
POINT
  5
5FF8
  8
DEFPOINTS
 62
     0
 10
3714.7505198347312
 20
9928.9516699067008
 30
0.0
  0
ENDBLK
  5
5F98
  8
0
  0
BLOCK
  8
0
  2
*D40
 70
     1
 10
0.0
 20
0.0
 30
0.0
  3
*D40
  1

  0
LINE
  5
6003
  8
50_DIMENSIONS1
 62
     7
 10
3593.928564165049
 20
9938.9516699066971
 30
0.0
 11
3593.928564165049
 21
9968.7049030622311
 31
0.0
  0
LINE
  5
6004
  8
50_DIMENSIONS1
 62
     7
 10
3644.4285641650499
 20
9933.951669906699
 30
0.0
 11
3644.4285641650499
 21
9968.7049030622311
 31
0.0
  0
LINE
  5
6005
  8
50_DIMENSIONS1
 62
     7
 10
3603.9285641650499
 20
9966.2049030622311
 30
0.0
 11
3634.4285641650508
 21
9966.2049030622311
 31
0.0
  0
LINE
  5
6006
  8
50_DIMENSIONS1
 62
     7
 10
3644.4285641650499
 20
9966.2049030622311
 30
0.0
 11
3654.4285641650499
 21
9966.2049030622311
 31
0.0
  0
SOLID
  5
6007
  8
50_DIMENSIONS1
 62
     7
 10
3603.9285641650499
 20
9967.871569728899
 30
0.0
 11
3603.9285641650499
 21
9964.538236395565
 31
0.0
 12
3593.928564165049
 22
9966.2049030622311
 32
0.0
 13
3593.928564165049
 23
9966.2049030622311
 33
0.0
  0
SOLID
  5
6008
  8
50_DIMENSIONS1
 62
     7
 10
3634.4285641650508
 20
9967.871569728899
 30
0.0
 11
3634.4285641650508
 21
9964.538236395565
 31
0.0
 12
3644.4285641650499
 22
9966.2049030622311
 32
0.0
 13
3644.4285641650499
 23
9966.2049030622311
 33
0.0
  0
INSERT
  5
6009
  8
50_DIMENSIONS1
  2
*U50
 10
0.0
 20
0.0
 30
0.0
  0
POINT
  5
600A
  8
DEFPOINTS
 62
     0
 10
3593.928564165049
 20
9933.9516699066971
 30
0.0
  0
POINT
  5
600B
  8
DEFPOINTS
 62
     0
 10
3644.4285641650499
 20
9928.9516699067008
 30
0.0
  0
POINT
  5
600C
  8
DEFPOINTS
 62
     0
 10
3644.4285641650499
 20
9966.2049030622311
 30
0.0
  0
ENDBLK
  5
5FA5
  8
0
  0
BLOCK
  8
0
  2
*D41
 70
     1
 10
0.0
 20
0.0
 30
0.0
  3
*D41
  1

  0
LINE
  5
5FE5
  8
50_DIMENSIONS1
 62
     7
 10
3170.0283641650499
 20
10105.95166990669
 30
0.0
 11
3170.0283641650499
 21
10129.520358313601
 31
0.0
  0
LINE
  5
5FE6
  8
50_DIMENSIONS1
 62
     7
 10
3593.928564165049
 20
10105.95166990669
 30
0.0
 11
3593.928564165049
 21
10129.520358313601
 31
0.0
  0
LINE
  5
5FE7
  8
50_DIMENSIONS1
 62
     7
 10
3180.0283641650508
 20
10127.020358313601
 30
0.0
 11
3342.4116155975189
 21
10127.020358313601
 31
0.0
  0
LINE
  5
5FE8
  8
50_DIMENSIONS1
 62
     7
 10
3583.9285641650499
 20
10127.020358313601
 30
0.0
 11
3421.5453127325809
 21
10127.020358313601
 31
0.0
  0
SOLID
  5
5FE9
  8
50_DIMENSIONS1
 62
     7
 10
3180.0283641650508
 20
10128.687024980271
 30
0.0
 11
3180.0283641650508
 21
10125.35369164694
 31
0.0
 12
3170.0283641650499
 22
10127.020358313601
 32
0.0
 13
3170.0283641650499
 23
10127.020358313601
 33
0.0
  0
SOLID
  5
5FEA
  8
50_DIMENSIONS1
 62
     7
 10
3583.9285641650499
 20
10128.687024980271
 30
0.0
 11
3583.9285641650499
 21
10125.35369164694
 31
0.0
 12
3593.928564165049
 22
10127.020358313601
 32
0.0
 13
3593.928564165049
 23
10127.020358313601
 33
0.0
  0
INSERT
  5
5FEB
  8
50_DIMENSIONS1
  2
*U47
 10
0.0
 20
0.0
 30
0.0
  0
POINT
  5
5FEC
  8
DEFPOINTS
 62
     0
 10
3170.0283641650499
 20
10100.95166990669
 30
0.0
  0
POINT
  5
5FED
  8
DEFPOINTS
 62
     0
 10
3593.928564165049
 20
10100.95166990669
 30
0.0
  0
POINT
  5
5FEE
  8
DEFPOINTS
 62
     0
 10
3593.928564165049
 20
10127.020358313601
 30
0.0
  0
ENDBLK
  5
5FB2
  8
0
  0
BLOCK
  8
0
  2
*U42
 70
     1
 10
0.0
 20
0.0
 30
0.0
  3
*U42
  1

  0
TEXT
  5
6038
  8
50_DIMENSIONS1
 62
     0
 10
1874.5915556801599
 20
9706.6883996998658
 30
0.0
 40
10.0
  1
525 [20.67"]
  7
MECHTRONICS
  0
ENDBLK
  5
603A
  8
0
  0
BLOCK
  8
0
  2
*U43
 70
     1
 10
0.0
 20
0.0
 30
0.0
  3
*U43
  1

  0
TEXT
  5
603C
  8
50_DIMENSIONS1
 62
     0
 10
2324.494734590563
 20
9846.9842621781827
 30
0.0
 40
10.0
  1
264 [10.39"]
 50
90.0
  7
MECHTRONICS
  0
ENDBLK
  5
603E
  8
0
  0
BLOCK
  8
0
  2
*U44
 70
     1
 10
0.0
 20
0.0
 30
0.0
  3
*U44
  1

  0
TEXT
  5
6040
  8
50_DIMENSIONS1
 62
     0
 10
2248.8642934780801
 20
9768.6923112914174
 30
0.0
 40
10.0
  1
92 [3.61"]
 50
90.0
  7
MECHTRONICS
  0
ENDBLK
  5
6042
  8
0
  0
BLOCK
  8
0
  2
*U45
 70
     1
 10
0.0
 20
0.0
 30
0.0
  3
*U45
  1

  0
TEXT
  5
6044
  8
50_DIMENSIONS1
 62
     0
 10
2186.4413828288648
 20
9878.2984775983859
 30
0.0
 40
10.0
  1
51 [1.99"]
  7
MECHTRONICS
  0
ENDBLK
  5
6046
  8
0
  0
BLOCK
  8
0
  2
*U46
 70
     1
 10
0.0
 20
0.0
 30
0.0
  3
*U46
  1

  0
TEXT
  5
6048
  8
50_DIMENSIONS1
 62
     0
 10
1874.7586770989869
 20
10039.113932849759
 30
0.0
 40
10.0
  1
424 [16.69"]
  7
MECHTRONICS
  0
ENDBLK
  5
604A
  8
0
  0
BLOCK
  8
0
  2
*U47
 70
     1
 10
0.0
 20
0.0
 30
0.0
  3
*U47
  1

  0
TEXT
  5
605C
  8
50_DIMENSIONS1
 62
     0
 10
3344.2772363342178
 20
10123.388025435021
 30
0.0
 40
10.0
  1
424 [16.69"]
  7
MECHTRONICS
  0
ENDBLK
  5
605E
  8
0
  0
BLOCK
  8
0
  2
*U48
 70
     1
 10
0.0
 20
0.0
 30
0.0
  3
*U48
  1

  0
TEXT
  5
6060
  8
50_DIMENSIONS1
 62
     0
 10
3718.382852713311
 20
9852.9664038766841
 30
0.0
 40
10.0
  1
92 [3.61"]
 50
90.0
  7
MECHTRONICS
  0
ENDBLK
  5
6062
  8
0
  0
BLOCK
  8
0
  2
*U49
 70
     1
 10
0.0
 20
0.0
 30
0.0
  3
*U49
  1

  0
TEXT
  5
6064
  8
50_DIMENSIONS1
 62
     0
 10
3794.0132938257939
 20
9931.2583547634458
 30
0.0
 40
10.0
  1
264 [10.39"]
 50
90.0
  7
MECHTRONICS
  0
ENDBLK
  5
6066
  8
0
  0
BLOCK
  8
0
  2
*U50
 70
     1
 10
0.0
 20
0.0
 30
0.0
  3
*U50
  1

  0
TEXT
  5
6068
  8
50_DIMENSIONS1
 62
     0
 10
3655.9599420640948
 20
9962.5725701836527
 30
0.0
 40
10.0
  1
51 [1.99"]
  7
MECHTRONICS
  0
ENDBLK
  5
606A
  8
0
  0
BLOCK
  8
0
  2
*U51
 70
     1
 10
0.0
 20
0.0
 30
0.0
  3
*U51
  1

  0
TEXT
  5
606C
  8
50_DIMENSIONS1
 62
     0
 10
3344.1101149153901
 20
9790.9624922851344
 30
0.0
 40
10.0
  1
525 [20.67"]
  7
MECHTRONICS
  0
ENDBLK
  5
606E
  8
0
  0
ENDSEC
  0
SECTION
  2
ENTITIES
  0
LINE
  5
5D85
  8
01_FRAME
 62
     4
 10
2775.9927352471391
 20
10230.00505146383
 30
0.0
 11
2775.9927352471391
 21
9263.0730340970658
 31
0.0
  0
LINE
  5
5D86
  8
01_FRAME
 62
     4
 10
4124.1573656138917
 20
10230.00505146383
 30
0.0
 11
2775.9927352471391
 21
10230.00505146383
 31
0.0
  0
LINE
  5
5D87
  8
01_FRAME
 62
     4
 10
4124.1573656138889
 20
9263.0730340970658
 30
0.0
 11
4124.1573656138917
 21
10230.00505146383
 31
0.0
  0
LINE
  5
5D88
  8
01_FRAME
 62
     4
 10
2775.9927352471391
 20
9263.0730340970658
 30
0.0
 11
4124.1573656138889
 21
9263.0730340970658
 31
0.0
  0
LINE
  5
5D89
  8
01_FRAME
 62
     4
 10
3595.85729279317
 20
9367.9750291213459
 30
0.0
 11
3743.7581190618639
 21
9367.9750291213459
 31
0.0
  0
LINE
  5
5D8A
  8
01_FRAME
 62
     4
 10
3595.85729279317
 20
9263.0730340970658
 30
0.0
 11
3595.85729279317
 21
9367.9750291213459
 31
0.0
  0
TEXT
  5
5D8B
  8
01_FRAME
 62
     8
 10
4079.7940356251152
 20
9305.3929877346291
 30
0.0
 40
7.0
  1
Revision
  7
MECHTRONICS
  0
TEXT
  5
5D8C
  8
62_TEXT
 10
3857.000447880775
 20
9334.6936971755968
 30
0.0
 40
10.0
  1
FAR CARRIER PLATE - PROFILE CUT
  7
MECHTRONICS
 72
     1
 11
3981.4649772122889
 21
9334.6936971755968
 31
0.0
  0
LINE
  5
5D8D
  8
01_FRAME
 62
     8
 10
3743.7581190618639
 20
9420.7027319686113
 30
0.0
 11
4123.7402946726716
 21
9420.7027319686113
 31
0.0
  0
LINE
  5
5D8E
  8
01_FRAME
 62
     8
 10
3743.7581190618639
 20
9403.1414392593979
 30
0.0
 11
4123.7402946726716
 21
9403.1414392593979
 31
0.0
  0
LINE
  5
5D8F
  8
01_FRAME
 62
     4
 10
3825.0758115363292
 20
9315.7569755732493
 30
0.0
 11
4123.7400571156386
 21
9315.7569755732493
 31
0.0
  0
LINE
  5
5D90
  8
01_FRAME
 62
     4
 10
3595.8575303502021
 20
9346.2417403036015
 30
0.0
 11
3825.0758115363292
 21
9346.2417403036015
 31
0.0
  0
LINE
  5
5D91
  8
01_FRAME
 62
     8
 10
3767.3791958856332
 20
9385.5800832016394
 30
0.0
 11
4123.7402946726716
 21
9385.5800832016394
 31
0.0
  0
TEXT
  5
5D92
  8
01_FRAME
 62
     8
 10
3598.8818053892078
 20
9410.1731216290646
 30
0.0
 40
7.0
  1
Higher
  7
MECHTRONICS
  0
TEXT
  5
5D93
  8
01_FRAME
 62
     8
 10
3858.9097767270969
 20
9374.0096354400139
 30
0.0
 40
7.0
  1
Description of change
  7
MECHTRONICS
  0
LINE
  5
5D94
  8
01_FRAME
 62
     4
 10
3825.0758115363292
 20
9367.9750291213459
 30
0.0
 11
3825.0758115363292
 21
9263.0730340970658
 31
0.0
  0
LINE
  5
5D95
  8
01_FRAME
 62
     8
 10
3743.7581190618639
 20
9367.9750291213459
 30
0.0
 11
3743.7581190618639
 21
9420.7027319686113
 31
0.0
  0
LINE
  5
5D96
  8
01_FRAME
 62
     8
 10
3767.3791958856332
 20
9367.9750291213459
 30
0.0
 11
3767.3791958856332
 21
9420.9140119285039
 31
0.0
  0
LINE
  5
5D97
  8
01_FRAME
 62
     7
 10
3745.471980039275
 20
9378.9154868220812
 30
0.0
 11
3755.6913967746518
 21
9396.6160358314646
 31
0.0
  0
LINE
  5
5D98
  8
01_FRAME
 62
     7
 10
3745.471980039275
 20
9378.9154868220812
 30
0.0
 11
3765.9108135100282
 21
9378.9154868220812
 31
0.0
  0
LINE
  5
5D99
  8
01_FRAME
 62
     7
 10
3765.9108135100282
 20
9378.9154868220812
 30
0.0
 11
3755.6913967746518
 21
9396.6160358314646
 31
0.0
  0
TEXT
  5
5D9A
  8
01_FRAME
 62
     8
 10
3828.9453938629899
 20
9352.521111755068
 30
0.0
 40
7.0
  1
Title
  7
MECHTRONICS
  0
LINE
  5
5D9B
  8
01_FRAME
 62
     8
 10
4028.0192382085479
 20
9315.7569755732493
 30
0.0
 11
4028.0192382085479
 21
9263.0730340970658
 31
0.0
  0
LINE
  5
5D9C
  8
01_FRAME
 62
     8
 10
4075.8796476620942
 20
9315.7569755732493
 30
0.0
 11
4075.8796476620942
 21
9263.0730340970658
 31
0.0
  0
TEXT
  5
5D9D
  8
01_FRAME
 62
     8
 10
4031.933626171568
 20
9304.3842274077633
 30
0.0
 40
7.0
  1
Process
  7
MECHTRONICS
  0
TEXT
  5
5D9E
  8
01_FRAME
 62
     8
 10
3828.3736025930129
 20
9305.3167140666174
 30
0.0
 40
7.0
  1
Drawing Number
  7
MECHTRONICS
  0
TEXT
  5
5D9F
  8
62_TEXT
 10
3859.6097163269042
 20
9274.7017461424603
 30
0.0
 40
20.0
  1
10 20 452
  7
MECHTRONICS
  0
TEXT
  5
5DA0
  8
62_TEXT
 10
4041.038923676881
 20
9274.7017461424603
 30
0.0
 40
20.0
  1
P
  7
MECHTRONICS
  0
LINE
  5
5DA1
  8
01_FRAME
 62
     8
 10
4030.0998605167711
 20
9367.9750291213459
 30
0.0
 11
4030.0998605167711
 21
9420.8701872088823
 31
0.0
  0
TEXT
  5
5DA2
  8
01_FRAME
 62
     8
 10
4037.3254055908919
 20
9374.0096354400139
 30
0.0
 40
7.0
  1
Date (d-m-y)
  7
MECHTRONICS
  0
TEXT
  5
5DA3
  8
62_TEXT
 10
4088.8993331304259
 20
9274.7017461424603
 30
0.0
 40
20.0
  1
C
  7
MECHTRONICS
  0
LINE
  5
5DA4
  8
01_FRAME
 62
     8
 10
4097.0585413016979
 20
9367.9750291213459
 30
0.0
 11
4097.0585413016979
 21
9420.8701872088823
 31
0.0
  0
TEXT
  5
5DA5
  8
01_FRAME
 62
     8
 10
4101.7430715660357
 20
9374.0096354400139
 30
0.0
 40
7.0
  1
Rev.
  7
MECHTRONICS
  0
TEXT
  5
5DA6
  8
01_FRAME
 62
     8
 10
3662.4241666878011
 20
9281.8377888529249
 30
0.0
 40
7.0
  1
www.mechmate.com
  7
MECHTRONICS
  0
TEXT
  5
5DA7
  8
62_TEXT
 10
3651.7752211979059
 20
9405.1967876931558
 30
0.0
 40
10.0
  1
10 20 452 B
  7
MECHTRONICS
  0
TEXT
  5
5DA8
  8
01_FRAME
 62
     8
 10
3598.8818053892078
 20
9400.0349597681452
 30
0.0
 40
7.0
  1
drawing/s:
  7
MECHTRONICS
  0
LINE
  5
5DA9
  8
01_FRAME
 62
     8
 10
3595.85729279317
 20
9420.7027319686113
 30
0.0
 11
3743.7581190618639
 21
9420.7027319686113
 31
0.0
  0
LINE
  5
5DAA
  8
01_FRAME
 62
     4
 10
3743.7581190618639
 20
9367.9750291213459
 30
0.0
 11
4123.7400571156386
 21
9367.9750291213459
 31
0.0
  0
TEXT
  5
5DAB
  8
01_FRAME
 62
     8
 10
3599.7271126768628
 20
9357.6001352302646
 30
0.0
 40
7.0
  1
Material:
  7
MECHTRONICS
  0
TEXT
  5
5DAC
  8
62_TEXT
 10
3638.8883728415158
 20
9352.5060440019697
 30
0.0
 40
10.0
  1
5mm [3/16"] STEEL 300MPa
  7
MECHTRONICS
  0
LINE
  5
5DAD
  8
10_OUTLINE
 62
     2
 10
3593.928564165049
 20
9931.9516699067008
 30
0.0
 11
3593.928564165049
 21
10100.95166990669
 31
0.0
  0
LINE
  5
5DAE
  8
10_OUTLINE
 62
     2
 10
3170.0283641650499
 20
9931.9516699067008
 30
0.0
 11
3170.0283641650499
 21
10100.95166990669
 31
0.0
  0
CIRCLE
  5
5DAF
  8
10_OUTLINE
 62
     2
 10
3144.5283641650508
 20
9898.9516699066971
 30
0.0
 40
6.0
  0
LINE
  5
5DB0
  8
10_OUTLINE
 62
     2
 10
3119.5283641650508
 20
9928.9516699067008
 30
0.0
 11
3167.0283641650499
 21
9928.9516699067008
 31
0.0
  0
LINE
  5
5DB1
  8
10_OUTLINE
 62
     2
 10
3119.5283641650508
 20
9881.4516699066971
 30
0.0
 11
3119.5283641650508
 21
9881.4516699066971
 31
0.0
  0
LINE
  5
5DB2
  8
10_OUTLINE
 62
     2
 10
3119.5283641650508
 20
9928.9516699067008
 30
0.0
 11
3119.5283641650508
 21
9882.2738039563974
 31
0.0
  0
ARC
  5
5DB3
  8
10_OUTLINE
 62
     2
 10
3596.928564165049
 20
9931.9516699067008
 30
0.0
 40
3.0
 50
180.0
 51
270.0
  0
ARC
  5
5DB4
  8
10_OUTLINE
 62
     2
 10
3167.0283641650499
 20
9931.9516699067008
 30
0.0
 40
3.0
 50
270.0
 51
0.0
  0
LINE
  5
5DB5
  8
10_OUTLINE
 62
     2
 10
3644.4285641650499
 20
9928.9516699067008
 30
0.0
 11
3596.928564165049
 21
9928.9516699067008
 31
0.0
  0
LINE
  5
5DB6
  8
10_OUTLINE
 62
     2
 10
3644.4285641650499
 20
9881.4516699066971
 30
0.0
 11
3644.4285641650499
 21
9881.4516699066971
 31
0.0
  0
LINE
  5
5DB7
  8
10_OUTLINE
 62
     2
 10
3644.4285641650499
 20
9928.9516699067008
 30
0.0
 11
3644.428564165049
 21
9866.9516699066971
 31
0.0
  0
LINE
  5
5DB8
  8
10_OUTLINE
 62
     2
 10
3280.1723564278241
 20
9993.9516699066935
 30
0.0
 11
3483.7845719022771
 21
9993.9516699066935
 31
0.0
  0
LINE
  5
5DB9
  8
10_OUTLINE
 62
     2
 10
3192.415115510998
 20
10095.95166990669
 30
0.0
 11
3236.8710862386019
 21
10018.95166990669
 31
0.0
  0
ARC
  5
5DBA
  8
10_OUTLINE
 62
     2
 10
3280.1723564278241
 20
10043.95166990669
 30
0.0
 40
50.0
 50
209.9999999999973
 51
270.0
  0
LINE
  5
5DBB
  8
10_OUTLINE
 62
     2
 10
3170.0283641650499
 20
10100.95166990669
 30
0.0
 11
3183.7548614731531
 21
10100.95166990669
 31
0.0
  0
ARC
  5
5DBC
  8
10_OUTLINE
 62
     2
 10
3183.7548614731531
 20
10090.95166990669
 30
0.0
 40
10.0
 50
29.999999999997289
 51
90.0
  0
LINE
  5
5DBD
  8
10_OUTLINE
 62
     2
 10
3571.5418128191009
 20
10095.95166990669
 30
0.0
 11
3527.0858420914979
 21
10018.95166990669
 31
0.0
  0
ARC
  5
5DBE
  8
10_OUTLINE
 62
     2
 10
3483.7845719022771
 20
10043.95166990669
 30
0.0
 40
50.0
 50
270.0
 51
330.00000000000267
  0
LINE
  5
5DBF
  8
10_OUTLINE
 62
     2
 10
3593.928564165049
 20
10100.95166990669
 30
0.0
 11
3580.2020668569471
 21
10100.95166990669
 31
0.0
  0
ARC
  5
5DC0
  8
10_OUTLINE
 62
     2
 10
3580.2020668569471
 20
10090.95166990669
 30
0.0
 40
10.0
 50
90.0
 51
150.0000000000027
  0
DIMENSION
  5
5DC1
  8
50_DIMENSIONS1
 62
   255
  2
*D37
 10
3644.428564165049
 20
9794.5948251637146
 30
0.0
 11
3381.9784641650499
 21
9794.5948251637146
 31
0.0
 70
     0
 13
3119.5283641650508
 23
9882.2738039563974
 33
0.0
 14
3644.428564165049
 24
9866.9516699066971
 34
0.0
1001
ACAD
1000
DSTYLE
1002
{
1070
     3
1000
<>
1070
     4
1000
"
1070
   143
1040
0.03937
1070
   170
1070
     1
1002
}
  0
DIMENSION
  5
5DC2
  8
50_DIMENSIONS1
 62
   255
  2
*D38
 10
3790.380960947215
 20
10100.95166990669
 30
0.0
 11
3790.3809609472132
 21
9969.0516699066957
 31
0.0
 70
     0
 13
3455.6137767111582
 23
9837.1516699066942
 33
0.0
 14
3593.928564165049
 24
10100.95166990669
 34
0.0
 50
90.0
1001
ACAD
1000
DSTYLE
1002
{
1070
     3
1000
<>
1070
     4
1000
"
1070
   143
1040
0.03937
1070
   170
1070
     1
1002
}
  0
DIMENSION
  5
5DC3
  8
50_DIMENSIONS1
 62
   255
  2
*D39
 10
3714.7505198347312
 20
9928.9516699067008
 30
0.0
 11
3714.7505198347299
 21
9883.0516699066993
 31
0.0
 70
     0
 13
3455.6137767111582
 23
9837.1516699066942
 33
0.0
 14
3644.4285641650499
 24
9928.9516699067008
 34
0.0
 50
90.0
1001
ACAD
1000
DSTYLE
1002
{
1070
     3
1000
<>
1070
     4
1000
"
1070
   143
1040
0.03937
1070
   170
1070
     1
1002
}
  0
DIMENSION
  5
5DC4
  8
50_DIMENSIONS1
 62
   255
  2
*D40
 10
3644.4285641650499
 20
9966.2049030622311
 30
0.0
 11
3686.0588506589111
 21
9966.2049030622311
 31
0.0
 70
     0
 13
3593.928564165049
 23
9933.9516699066971
 33
0.0
 14
3644.4285641650499
 24
9928.9516699067008
 34
0.0
1001
ACAD
1000
DSTYLE
1002
{
1070
     3
1000
<>
1070
     4
1000
"
1070
   143
1040
0.03937
1070
   170
1070
     1
1002
}
  0
DIMENSION
  5
5DC5
  8
50_DIMENSIONS1
 62
   255
  2
*D41
 10
3593.928564165049
 20
10127.020358313601
 30
0.0
 11
3381.9784641650499
 21
10127.020358313601
 31
0.0
 70
     0
 13
3170.0283641650499
 23
10100.95166990669
 33
0.0
 14
3593.928564165049
 24
10100.95166990669
 34
0.0
1001
ACAD
1000
DSTYLE
1002
{
1070
     3
1000
<>
1070
     4
1000
"
1070
   143
1040
0.03937
1070
   170
1070
     1
1002
}
  0
TEXT
  5
5DC6
  8
62_TEXT
 10
2951.752626676709
 20
9691.1423026802549
 30
0.0
 40
10.0
  1
EXPLANATION OF HOLES - DO NOT CUT THIS PROFILE
  7
MECHTRONICS
 72
     1
 11
3137.578001847241
 21
9691.1423026802549
 31
0.0
  0
LINE
  5
5DC7
  8
62_TEXT
 10
2951.48408629396
 20
9688.4079546252615
 30
0.0
 11
3319.7773347904149
 21
9688.4079546252615
 31
0.0
  0
TEXT
  5
5DC8
  8
62_TEXT
 10
3301.0042442915901
 20
10041.871108935649
 30
0.0
 40
10.0
  1
PROFILE TO BE CUT
  7
MECHTRONICS
 72
     1
 11
3370.7450355603492
 21
10041.871108935649
 31
0.0
  0
LINE
  5
5DC9
  8
62_TEXT
 10
3301.3810425329898
 20
10039.136760880659
 30
0.0
 11
3437.6460302422129
 21
10039.136760880659
 31
0.0
  0
INSERT
  5
5DCA
  8
50_DIMENSIONS
  2
*U16
 10
2827.436350643969
 20
9219.5514005364857
 30
0.0
  0
INSERT
  5
5DCB
  8
50_DIMENSIONS
  2
*U17
 10
2827.436350643969
 20
9219.5514005364857
 30
0.0
  0
INSERT
  5
5DCC
  8
50_DIMENSIONS
  2
*U18
 10
2827.436350643969
 20
9186.1783597808153
 30
0.0
  0
LINE
  5
5DCD
  8
01_FRAME
 62
     8
 10
3595.85729279317
 20
9367.9750291213459
 30
0.0
 11
3595.85729279317
 21
9420.7027319686113
 31
0.0
  0
LINE
  5
5DCE
  8
62_TEXT
 10
3348.4334244557072
 20
9499.4068820000884
 30
0.0
 11
3348.4334244557072
 21
9668.4068820000884
 31
0.0
  0
LINE
  5
5DCF
  8
62_TEXT
 10
2924.5332244557071
 20
9499.4068820000884
 30
0.0
 11
2924.5332244557071
 21
9668.4068820000884
 31
0.0
  0
CIRCLE
  5
5DD0
  8
62_TEXT
 10
2899.0332244557071
 20
9466.4068820000884
 30
0.0
 40
6.0
  0
LINE
  5
5DD1
  8
62_TEXT
 10
2874.0332244557071
 20
9496.4068820000884
 30
0.0
 11
2921.5332244557071
 21
9496.4068820000884
 31
0.0
  0
LINE
  5
5DD2
  8
62_TEXT
 10
3093.9833244557071
 20
9413.2568820000906
 30
0.0
 11
2880.970746173592
 21
9441.799883694981
 31
0.0
  0
LINE
  5
5DD3
  8
62_TEXT
 10
2874.0332244557071
 20
9448.9068820000884
 30
0.0
 11
2874.0332244557071
 21
9448.9068820000884
 31
0.0
  0
ARC
  5
5DD4
  8
62_TEXT
 10
2882.0332244557071
 20
9449.7290160497887
 30
0.0
 40
8.0
 50
180.0
 51
262.368010609458
  0
LINE
  5
5DD5
  8
62_TEXT
 10
2874.0332244557071
 20
9496.4068820000884
 30
0.0
 11
2874.0332244557071
 21
9449.7290160497887
 31
0.0
  0
ARC
  5
5DD6
  8
62_TEXT
 10
3351.4334244557072
 20
9499.4068820000884
 30
0.0
 40
3.0
 50
180.0
 51
270.0
  0
LINE
  5
5DD7
  8
62_TEXT
 10
3178.9833244557071
 20
9413.2568820000906
 30
0.0
 11
3280.322560764851
 21
9426.8360143548925
 31
0.0
  0
LINE
  5
5DD8
  8
62_TEXT
 10
3093.9833244557071
 20
9413.2568820000906
 30
0.0
 11
3178.9833244557071
 21
9413.2568820000906
 31
0.0
  0
ARC
  5
5DD9
  8
62_TEXT
 10
2921.5332244557071
 20
9499.4068820000884
 30
0.0
 40
3.0
 50
270.0
 51
0.0
  0
CIRCLE
  5
5DDA
  8
62_TEXT
 10
3116.4833244557071
 20
9466.4068820000884
 30
0.0
 40
4.1500000000000004
  0
CIRCLE
  5
5DDB
  8
62_TEXT
 10
3075.064923902818
 20
9460.3252825529726
 30
0.0
 40
5.0
  0
CIRCLE
  5
5DDC
  8
62_TEXT
 10
3156.4833244557071
 20
9466.4068820000884
 30
0.0
 40
4.1500000000000004
  0
LINE
  5
5DDD
  8
62_TEXT
 10
3398.9334244557072
 20
9496.4068820000884
 30
0.0
 11
3351.4334244557072
 21
9496.4068820000884
 31
0.0
  0
LINE
  5
5DDE
  8
62_TEXT
 10
3398.9334244557072
 20
9448.9068820000884
 30
0.0
 11
3398.9334244557072
 21
9448.9068820000884
 31
0.0
  0
LINE
  5
5DDF
  8
62_TEXT
 10
3398.9334244557072
 20
9496.4068820000884
 30
0.0
 11
3398.9334244557058
 21
9434.9068820000884
 31
0.0
  0
LINE
  5
5DE0
  8
62_TEXT
 10
3034.677216718479
 20
9561.4068820000884
 30
0.0
 11
3238.2894321929339
 21
9561.4068820000884
 31
0.0
  0
LINE
  5
5DE1
  8
62_TEXT
 10
2946.9199758016539
 20
9663.4068820000884
 30
0.0
 11
2991.3759465292592
 21
9586.4068820000848
 31
0.0
  0
ARC
  5
5DE2
  8
62_TEXT
 10
3034.677216718479
 20
9611.4068820000884
 30
0.0
 40
50.0
 50
209.9999999999973
 51
270.0
  0
LINE
  5
5DE3
  8
62_TEXT
 10
2924.5332244557071
 20
9668.4068820000884
 30
0.0
 11
2938.2597217638099
 21
9668.4068820000884
 31
0.0
  0
ARC
  5
5DE4
  8
62_TEXT
 10
2938.2597217638099
 20
9658.4068820000884
 30
0.0
 40
10.0
 50
29.999999999997289
 51
90.0
  0
LINE
  5
5DE5
  8
62_TEXT
 10
3326.046673109759
 20
9663.4068820000884
 30
0.0
 11
3281.5907023821551
 21
9586.4068820000848
 31
0.0
  0
ARC
  5
5DE6
  8
62_TEXT
 10
3238.2894321929339
 20
9611.4068820000884
 30
0.0
 40
50.0
 50
270.0
 51
330.00000000000267
  0
LINE
  5
5DE7
  8
62_TEXT
 10
3348.4334244557072
 20
9668.4068820000884
 30
0.0
 11
3334.7069271476021
 21
9668.4068820000884
 31
0.0
  0
ARC
  5
5DE8
  8
62_TEXT
 10
3334.7069271476021
 20
9658.4068820000884
 30
0.0
 40
10.0
 50
90.0
 51
150.0000000000027
  0
POLYLINE
  5
5DE9
  8
62_TEXT
 66
     1
 10
0.0
 20
0.0
 30
0.0
 70
     8
  0
VERTEX
  5
5DEA
  8
62_TEXT
 10
3136.48335064397
 20
9525.5134005364871
 30
0.0
 70
    32
  0
VERTEX
  5
5DEB
  8
62_TEXT
 10
3136.87635064397
 20
9525.5264005364843
 30
0.0
 70
    32
  0
VERTEX
  5
5DEC
  8
62_TEXT
 10
3137.2673506439701
 20
9525.5644005364848
 30
0.0
 70
    32
  0
VERTEX
  5
5DED
  8
62_TEXT
 10
3137.6573506439699
 20
9525.6294005364871
 30
0.0
 70
    32
  0
VERTEX
  5
5DEE
  8
62_TEXT
 10
3138.0443506439701
 20
9525.7184005364888
 30
0.0
 70
    32
  0
VERTEX
  5
5DEF
  8
62_TEXT
 10
3138.427350643969
 20
9525.8334005364868
 30
0.0
 70
    32
  0
VERTEX
  5
5DF0
  8
62_TEXT
 10
3138.8053506439701
 20
9525.9734005364844
 30
0.0
 70
    32
  0
VERTEX
  5
5DF1
  8
62_TEXT
 10
3139.1783506439701
 20
9526.1374005364869
 30
0.0
 70
    32
  0
VERTEX
  5
5DF2
  8
62_TEXT
 10
3139.5443506439701
 20
9526.3264005364872
 30
0.0
 70
    32
  0
VERTEX
  5
5DF3
  8
62_TEXT
 10
3139.9033506439691
 20
9526.5384005364831
 30
0.0
 70
    32
  0
VERTEX
  5
5DF4
  8
62_TEXT
 10
3140.2543506439702
 20
9526.7744005364875
 30
0.0
 70
    32
  0
VERTEX
  5
5DF5
  8
62_TEXT
 10
3140.5963506439689
 20
9527.0334005364857
 30
0.0
 70
    32
  0
VERTEX
  5
5DF6
  8
62_TEXT
 10
3140.928350643971
 20
9527.3134005364846
 30
0.0
 70
    32
  0
VERTEX
  5
5DF7
  8
62_TEXT
 10
3141.2493506439691
 20
9527.6154005364897
 30
0.0
 70
    32
  0
VERTEX
  5
5DF8
  8
62_TEXT
 10
3141.5583506439689
 20
9527.9374005364843
 30
0.0
 70
    32
  0
VERTEX
  5
5DF9
  8
62_TEXT
 10
3141.8553506439698
 20
9528.2804005364887
 30
0.0
 70
    32
  0
VERTEX
  5
5DFA
  8
62_TEXT
 10
3142.1403506439692
 20
9528.6414005364877
 30
0.0
 70
    32
  0
VERTEX
  5
5DFB
  8
62_TEXT
 10
3142.4113506439699
 20
9529.0214005364905
 30
0.0
 70
    32
  0
VERTEX
  5
5DFC
  8
62_TEXT
 10
3142.6673506439702
 20
9529.4184005364896
 30
0.0
 70
    32
  0
VERTEX
  5
5DFD
  8
62_TEXT
 10
3142.9093506439699
 20
9529.8314005364846
 30
0.0
 70
    32
  0
VERTEX
  5
5DFE
  8
62_TEXT
 10
3143.1353506439691
 20
9530.2604005364847
 30
0.0
 70
    32
  0
VERTEX
  5
5DFF
  8
62_TEXT
 10
3143.3453506439691
 20
9530.7034005364876
 30
0.0
 70
    32
  0
VERTEX
  5
5E00
  8
62_TEXT
 10
3143.538350643968
 20
9531.1594005364877
 30
0.0
 70
    32
  0
VERTEX
  5
5E01
  8
62_TEXT
 10
3143.7153506439699
 20
9531.6274005364885
 30
0.0
 70
    32
  0
VERTEX
  5
5E02
  8
62_TEXT
 10
3143.8743506439691
 20
9532.1064005364897
 30
0.0
 70
    32
  0
VERTEX
  5
5E03
  8
62_TEXT
 10
3144.0153506439692
 20
9532.5964005364895
 30
0.0
 70
    32
  0
VERTEX
  5
5E04
  8
62_TEXT
 10
3144.1383506439702
 20
9533.0934005364925
 30
0.0
 70
    32
  0
VERTEX
  5
5E05
  8
62_TEXT
 10
3144.2433506439702
 20
9533.5994005364864
 30
0.0
 70
    32
  0
VERTEX
  5
5E06
  8
62_TEXT
 10
3144.32935064397
 20
9534.110400536485
 30
0.0
 70
    32
  0
VERTEX
  5
5E07
  8
62_TEXT
 10
3144.39635064397
 20
9534.6274005364885
 30
0.0
 70
    32
  0
VERTEX
  5
5E08
  8
62_TEXT
 10
3144.4443506439702
 20
9535.1474005364871
 30
0.0
 70
    32
  0
VERTEX
  5
5E09
  8
62_TEXT
 10
3144.4733506439702
 20
9535.6704005364845
 30
0.0
 70
    32
  0
VERTEX
  5
5E0A
  8
62_TEXT
 10
3144.48335064397
 20
9536.1944005364876
 30
0.0
 70
    32
  0
VERTEX
  5
5E0B
  8
62_TEXT
 10
3144.4733506439702
 20
9536.7184005364907
 30
0.0
 70
    32
  0
VERTEX
  5
5E0C
  8
62_TEXT
 10
3144.4443506439702
 20
9537.2414005364844
 30
0.0
 70
    32
  0
VERTEX
  5
5E0D
  8
62_TEXT
 10
3144.39635064397
 20
9537.7614005364831
 30
0.0
 70
    32
  0
VERTEX
  5
5E0E
  8
62_TEXT
 10
3144.32935064397
 20
9538.2784005364847
 30
0.0
 70
    32
  0
VERTEX
  5
5E0F
  8
62_TEXT
 10
3144.2433506439702
 20
9538.7894005364869
 30
0.0
 70
    32
  0
VERTEX
  5
5E10
  8
62_TEXT
 10
3144.1383506439702
 20
9539.2944005364825
 30
0.0
 70
    32
  0
VERTEX
  5
5E11
  8
62_TEXT
 10
3144.0153506439692
 20
9539.7924005364875
 30
0.0
 70
    32
  0
VERTEX
  5
5E12
  8
62_TEXT
 10
3143.8743506439691
 20
9540.2814005364871
 30
0.0
 70
    32
  0
VERTEX
  5
5E13
  8
62_TEXT
 10
3143.7153506439699
 20
9540.7614005364831
 30
0.0
 70
    32
  0
VERTEX
  5
5E14
  8
62_TEXT
 10
3143.538350643968
 20
9541.2294005364893
 30
0.0
 70
    32
  0
VERTEX
  5
5E15
  8
62_TEXT
 10
3143.3453506439691
 20
9541.6854005364894
 30
0.0
 70
    32
  0
VERTEX
  5
5E16
  8
62_TEXT
 10
3143.1353506439691
 20
9542.1284005364851
 30
0.0
 70
    32
  0
VERTEX
  5
5E17
  8
62_TEXT
 10
3142.9093506439699
 20
9542.5574005364888
 30
0.0
 70
    32
  0
VERTEX
  5
5E18
  8
62_TEXT
 10
3142.6673506439702
 20
9542.9704005364874
 30
0.0
 70
    32
  0
VERTEX
  5
5E19
  8
62_TEXT
 10
3142.4113506439699
 20
9543.3674005364846
 30
0.0
 70
    32
  0
VERTEX
  5
5E1A
  8
62_TEXT
 10
3142.1403506439692
 20
9543.7474005364875
 30
0.0
 70
    32
  0
VERTEX
  5
5E1B
  8
62_TEXT
 10
3141.8553506439698
 20
9544.1084005364846
 30
0.0
 70
    32
  0
VERTEX
  5
5E1C
  8
62_TEXT
 10
3141.5583506439689
 20
9544.4504005364888
 30
0.0
 70
    32
  0
VERTEX
  5
5E1D
  8
62_TEXT
 10
3141.2493506439691
 20
9544.7734005364873
 30
0.0
 70
    32
  0
VERTEX
  5
5E1E
  8
62_TEXT
 10
3140.928350643971
 20
9545.0754005364852
 30
0.0
 70
    32
  0
VERTEX
  5
5E1F
  8
62_TEXT
 10
3140.5963506439689
 20
9545.3554005364877
 30
0.0
 70
    32
  0
VERTEX
  5
5E20
  8
62_TEXT
 10
3140.2543506439702
 20
9545.6144005364877
 30
0.0
 70
    32
  0
VERTEX
  5
5E21
  8
62_TEXT
 10
3139.9033506439691
 20
9545.8494005364846
 30
0.0
 70
    32
  0
VERTEX
  5
5E22
  8
62_TEXT
 10
3139.5443506439701
 20
9546.0624005364843
 30
0.0
 70
    32
  0
VERTEX
  5
5E23
  8
62_TEXT
 10
3139.1783506439701
 20
9546.2514005364847
 30
0.0
 70
    32
  0
VERTEX
  5
5E24
  8
62_TEXT
 10
3138.8053506439701
 20
9546.4154005364871
 30
0.0
 70
    32
  0
VERTEX
  5
5E25
  8
62_TEXT
 10
3138.427350643969
 20
9546.5554005364847
 30
0.0
 70
    32
  0
VERTEX
  5
5E26
  8
62_TEXT
 10
3138.0443506439701
 20
9546.6704005364845
 30
0.0
 70
    32
  0
VERTEX
  5
5E27
  8
62_TEXT
 10
3137.6573506439699
 20
9546.7594005364845
 30
0.0
 70
    32
  0
VERTEX
  5
5E28
  8
62_TEXT
 10
3137.2673506439701
 20
9546.8234005364848
 30
0.0
 70
    32
  0
VERTEX
  5
5E29
  8
62_TEXT
 10
3136.87635064397
 20
9546.8624005364873
 30
0.0
 70
    32
  0
VERTEX
  5
5E2A
  8
62_TEXT
 10
3136.48335064397
 20
9546.8754005364917
 30
0.0
 70
    32
  0
VERTEX
  5
5E2B
  8
62_TEXT
 10
3136.0903506439699
 20
9546.8624005364873
 30
0.0
 70
    32
  0
VERTEX
  5
5E2C
  8
62_TEXT
 10
3135.6993506439699
 20
9546.8234005364848
 30
0.0
 70
    32
  0
VERTEX
  5
5E2D
  8
62_TEXT
 10
3135.30935064397
 20
9546.7594005364845
 30
0.0
 70
    32
  0
VERTEX
  5
5E2E
  8
62_TEXT
 10
3134.922350643968
 20
9546.6704005364845
 30
0.0
 70
    32
  0
VERTEX
  5
5E2F
  8
62_TEXT
 10
3134.5393506439691
 20
9546.5554005364847
 30
0.0
 70
    32
  0
VERTEX
  5
5E30
  8
62_TEXT
 10
3134.1613506439699
 20
9546.4154005364871
 30
0.0
 70
    32
  0
VERTEX
  5
5E31
  8
62_TEXT
 10
3133.788350643968
 20
9546.2514005364847
 30
0.0
 70
    32
  0
VERTEX
  5
5E32
  8
62_TEXT
 10
3133.4223506439698
 20
9546.0624005364843
 30
0.0
 70
    32
  0
VERTEX
  5
5E33
  8
62_TEXT
 10
3133.0633506439699
 20
9545.8494005364846
 30
0.0
 70
    32
  0
VERTEX
  5
5E34
  8
62_TEXT
 10
3132.7123506439698
 20
9545.6144005364877
 30
0.0
 70
    32
  0
VERTEX
  5
5E35
  8
62_TEXT
 10
3132.3703506439701
 20
9545.3554005364877
 30
0.0
 70
    32
  0
VERTEX
  5
5E36
  8
62_TEXT
 10
3132.0383506439698
 20
9545.0754005364852
 30
0.0
 70
    32
  0
VERTEX
  5
5E37
  8
62_TEXT
 10
3131.717350643969
 20
9544.7734005364873
 30
0.0
 70
    32
  0
VERTEX
  5
5E38
  8
62_TEXT
 10
3131.4083506439688
 20
9544.4504005364888
 30
0.0
 70
    32
  0
VERTEX
  5
5E39
  8
62_TEXT
 10
3131.1113506439701
 20
9544.1084005364846
 30
0.0
 70
    32
  0
VERTEX
  5
5E3A
  8
62_TEXT
 10
3130.8263506439689
 20
9543.7474005364875
 30
0.0
 70
    32
  0
VERTEX
  5
5E3B
  8
62_TEXT
 10
3130.5553506439701
 20
9543.3674005364846
 30
0.0
 70
    32
  0
VERTEX
  5
5E3C
  8
62_TEXT
 10
3130.2993506439698
 20
9542.9704005364874
 30
0.0
 70
    32
  0
VERTEX
  5
5E3D
  8
62_TEXT
 10
3130.05735064397
 20
9542.5574005364888
 30
0.0
 70
    32
  0
VERTEX
  5
5E3E
  8
62_TEXT
 10
3129.8313506439699
 20
9542.1284005364851
 30
0.0
 70
    32
  0
VERTEX
  5
5E3F
  8
62_TEXT
 10
3129.6213506439699
 20
9541.6854005364894
 30
0.0
 70
    32
  0
VERTEX
  5
5E40
  8
62_TEXT
 10
3129.4283506439701
 20
9541.2294005364893
 30
0.0
 70
    32
  0
VERTEX
  5
5E41
  8
62_TEXT
 10
3129.25135064397
 20
9540.7614005364831
 30
0.0
 70
    32
  0
VERTEX
  5
5E42
  8
62_TEXT
 10
3129.0923506439699
 20
9540.2814005364871
 30
0.0
 70
    32
  0
VERTEX
  5
5E43
  8
62_TEXT
 10
3128.9513506439689
 20
9539.7924005364875
 30
0.0
 70
    32
  0
VERTEX
  5
5E44
  8
62_TEXT
 10
3128.8273506439682
 20
9539.2944005364825
 30
0.0
 70
    32
  0
VERTEX
  5
5E45
  8
62_TEXT
 10
3128.7233506439702
 20
9538.7894005364869
 30
0.0
 70
    32
  0
VERTEX
  5
5E46
  8
62_TEXT
 10
3128.63735064397
 20
9538.2784005364847
 30
0.0
 70
    32
  0
VERTEX
  5
5E47
  8
62_TEXT
 10
3128.57035064397
 20
9537.7614005364831
 30
0.0
 70
    32
  0
VERTEX
  5
5E48
  8
62_TEXT
 10
3128.52135064397
 20
9537.2414005364844
 30
0.0
 70
    32
  0
VERTEX
  5
5E49
  8
62_TEXT
 10
3128.4933506439702
 20
9536.7184005364907
 30
0.0
 70
    32
  0
VERTEX
  5
5E4A
  8
62_TEXT
 10
3128.48335064397
 20
9536.1944005364876
 30
0.0
 70
    32
  0
VERTEX
  5
5E4B
  8
62_TEXT
 10
3128.4933506439702
 20
9535.6704005364845
 30
0.0
 70
    32
  0
VERTEX
  5
5E4C
  8
62_TEXT
 10
3128.52135064397
 20
9535.1474005364871
 30
0.0
 70
    32
  0
VERTEX
  5
5E4D
  8
62_TEXT
 10
3128.57035064397
 20
9534.6274005364885
 30
0.0
 70
    32
  0
VERTEX
  5
5E4E
  8
62_TEXT
 10
3128.63735064397
 20
9534.110400536485
 30
0.0
 70
    32
  0
VERTEX
  5
5E4F
  8
62_TEXT
 10
3128.7233506439702
 20
9533.5994005364864
 30
0.0
 70
    32
  0
VERTEX
  5
5E50
  8
62_TEXT
 10
3128.8273506439682
 20
9533.0934005364925
 30
0.0
 70
    32
  0
VERTEX
  5
5E51
  8
62_TEXT
 10
3128.9513506439689
 20
9532.5964005364895
 30
0.0
 70
    32
  0
VERTEX
  5
5E52
  8
62_TEXT
 10
3129.0923506439699
 20
9532.1064005364897
 30
0.0
 70
    32
  0
VERTEX
  5
5E53
  8
62_TEXT
 10
3129.25135064397
 20
9531.6274005364885
 30
0.0
 70
    32
  0
VERTEX
  5
5E54
  8
62_TEXT
 10
3129.4283506439701
 20
9531.1594005364877
 30
0.0
 70
    32
  0
VERTEX
  5
5E55
  8
62_TEXT
 10
3129.6213506439699
 20
9530.7034005364876
 30
0.0
 70
    32
  0
VERTEX
  5
5E56
  8
62_TEXT
 10
3129.8313506439699
 20
9530.2604005364847
 30
0.0
 70
    32
  0
VERTEX
  5
5E57
  8
62_TEXT
 10
3130.05735064397
 20
9529.8314005364846
 30
0.0
 70
    32
  0
VERTEX
  5
5E58
  8
62_TEXT
 10
3130.2993506439698
 20
9529.4184005364896
 30
0.0
 70
    32
  0
VERTEX
  5
5E59
  8
62_TEXT
 10
3130.5553506439701
 20
9529.0214005364905
 30
0.0
 70
    32
  0
VERTEX
  5
5E5A
  8
62_TEXT
 10
3130.8263506439689
 20
9528.6414005364877
 30
0.0
 70
    32
  0
VERTEX
  5
5E5B
  8
62_TEXT
 10
3131.1113506439701
 20
9528.2804005364887
 30
0.0
 70
    32
  0
VERTEX
  5
5E5C
  8
62_TEXT
 10
3131.4083506439688
 20
9527.9374005364843
 30
0.0
 70
    32
  0
VERTEX
  5
5E5D
  8
62_TEXT
 10
3131.717350643969
 20
9527.6154005364897
 30
0.0
 70
    32
  0
VERTEX
  5
5E5E
  8
62_TEXT
 10
3132.0383506439698
 20
9527.3134005364846
 30
0.0
 70
    32
  0
VERTEX
  5
5E5F
  8
62_TEXT
 10
3132.3703506439701
 20
9527.0334005364857
 30
0.0
 70
    32
  0
VERTEX
  5
5E60
  8
62_TEXT
 10
3132.7123506439698
 20
9526.7744005364875
 30
0.0
 70
    32
  0
VERTEX
  5
5E61
  8
62_TEXT
 10
3133.0633506439699
 20
9526.5384005364831
 30
0.0
 70
    32
  0
VERTEX
  5
5E62
  8
62_TEXT
 10
3133.4223506439698
 20
9526.3264005364872
 30
0.0
 70
    32
  0
VERTEX
  5
5E63
  8
62_TEXT
 10
3133.788350643968
 20
9526.1374005364869
 30
0.0
 70
    32
  0
VERTEX
  5
5E64
  8
62_TEXT
 10
3134.1613506439699
 20
9525.9734005364844
 30
0.0
 70
    32
  0
VERTEX
  5
5E65
  8
62_TEXT
 10
3134.5393506439691
 20
9525.8334005364868
 30
0.0
 70
    32
  0
VERTEX
  5
5E66
  8
62_TEXT
 10
3134.922350643968
 20
9525.7184005364888
 30
0.0
 70
    32
  0
VERTEX
  5
5E67
  8
62_TEXT
 10
3135.30935064397
 20
9525.6294005364871
 30
0.0
 70
    32
  0
VERTEX
  5
5E68
  8
62_TEXT
 10
3135.6993506439699
 20
9525.5644005364848
 30
0.0
 70
    32
  0
VERTEX
  5
5E69
  8
62_TEXT
 10
3136.0903506439699
 20
9525.5264005364843
 30
0.0
 70
    32
  0
VERTEX
  5
5E6A
  8
62_TEXT
 10
3136.48335064397
 20
9525.5134005364871
 30
0.0
 70
    32
  0
SEQEND
  5
5E6B
  8
62_TEXT
  0
LINE
  5
5E6C
  8
62_TEXT
 10
3367.9334244557072
 20
9466.9068820000884
 30
0.0
 11
3367.9334244557072
 21
9465.9068820000884
 31
0.0
  0
LINE
  5
5E6D
  8
62_TEXT
 10
3379.9334244557072
 20
9466.9068820000884
 30
0.0
 11
3379.9334244557072
 21
9465.9068820000884
 31
0.0
  0
ARC
  5
5E6E
  8
62_TEXT
 10
3373.9334244557058
 20
9465.9068820000884
 30
0.0
 40
6.0
 50
180.0
 51
0.0
  0
ARC
  5
5E6F
  8
62_TEXT
 10
3373.9334244557058
 20
9466.9068820000884
 30
0.0
 40
6.0
 50
0.0
 51
180.0
  0
CIRCLE
  5
5E70
  8
62_TEXT
 10
3193.4252633277242
 20
9435.1841711233446
 30
0.0
 40
4.25
  0
INSERT
  5
5E71
  8
50_DIMENSIONS
  2
*U20
 10
2827.436350643969
 20
9219.5514005364857
 30
0.0
1001
ACAD
1000
DSTYLE
1002
{
1070
   147
1040
0.5
1070
    77
1070
     0
1002
}
  0
INSERT
  5
5E72
  8
50_DIMENSIONS
  2
*U21
 10
2827.436350643969
 20
9219.5514005364857
 30
0.0
  0
INSERT
  5
5E73
  8
50_DIMENSIONS
  2
*U22
 10
2827.436350643969
 20
9219.5514005364857
 30
0.0
1001
ACAD
1000
DSTYLE
1002
{
1070
   147
1040
0.5
1070
    77
1070
     0
1002
}
  0
SOLID
  5
5E74
  8
62_TEXT
 10
3127.4217575513808
 20
9482.6796735517819
 30
0.0
 11
3119.6230985580742
 21
9476.2021203344048
 31
0.0
 12
3124.8993803461062
 22
9484.8588303486704
 32
0.0
 13
3124.8993803461062
 23
9484.8588303486704
 33
0.0
1001
ACAD
1000
DSTYLE
1002
{
1070
     4
1000
"
1070
   143
1040
0.039370078
1070
   170
1070
     1
1002
}
  0
LINE
  5
5E75
  8
62_TEXT
 10
3126.1605689487442
 20
9483.7692519502234
 30
0.0
 11
3152.764783590786
 21
9514.5636696227193
 31
0.0
1001
ACAD
1000
DSTYLE
1002
{
1070
     4
1000
"
1070
   143
1040
0.039370078
1070
   170
1070
     1
1002
}
  0
LINE
  5
5E76
  8
62_TEXT
 10
3152.764783590786
 20
9514.5636696227193
 30
0.0
 11
3166.3571128874391
 21
9514.5636696227193
 31
0.0
1001
ACAD
1000
DSTYLE
1002
{
1070
     4
1000
"
1070
   143
1040
0.039370078
1070
   170
1070
     1
1002
}
  0
SOLID
  5
5E77
  8
62_TEXT
 10
3155.9274342276062
 20
9483.0961816910549
 30
0.0
 11
3155.8777536841362
 21
9472.9583658700176
 31
0.0
 12
3152.6368085265399
 22
9482.5643042553675
 32
0.0
 13
3152.6368085265399
 23
9482.5643042553675
 33
0.0
1001
ACAD
1000
DSTYLE
1002
{
1070
     4
1000
"
1070
   143
1040
0.039370078
1070
   170
1070
     1
1002
}
  0
LINE
  5
5E78
  8
62_TEXT
 10
3154.2821213770721
 20
9482.8302429732084
 30
0.0
 11
3149.7221652292169
 21
9511.0418343832716
 31
0.0
1001
ACAD
1000
DSTYLE
1002
{
1070
     4
1000
"
1070
   143
1040
0.039370078
1070
   170
1070
     1
1002
}
  0
CIRCLE
  5
5E79
  8
10_OUTLINE
 62
     2
 10
3619.4285641650499
 20
9898.9516699066971
 30
0.0
 40
6.0
  0
SOLID
  5
5E7A
  8
62_TEXT
 10
3133.8359820179671
 20
9560.7842797053072
 30
0.0
 11
3133.7863014744999
 21
9550.6464638842644
 31
0.0
 12
3130.5453563169021
 22
9560.2524022696198
 32
0.0
 13
3130.5453563169021
 23
9560.2524022696198
 33
0.0
1001
ACAD
1000
DSTYLE
1002
{
1070
     4
1000
"
1070
   143
1040
0.039370078
1070
   170
1070
     1
1002
}
  0
LINE
  5
5E7B
  8
62_TEXT
 10
3132.1906691674349
 20
9560.5183409874644
 30
0.0
 11
3127.6307130195778
 21
9588.7299323975185
 31
0.0
1001
ACAD
1000
DSTYLE
1002
{
1070
     4
1000
"
1070
   143
1040
0.039370078
1070
   170
1070
     1
1002
}
  0
LINE
  5
5E7C
  8
50_DIMENSIONS
 10
3127.6307130195778
 20
9588.7299323975185
 30
0.0
 11
3112.0370410353489
 21
9588.7299323975185
 31
0.0
  0
INSERT
  5
5E7D
  8
50_DIMENSIONS
  2
*U23
 10
2827.436350643969
 20
9219.5514005364857
 30
0.0
  0
SOLID
  5
5E7E
  8
62_TEXT
 10
3073.6658967346789
 20
9478.9962093619324
 30
0.0
 11
3073.6162161912121
 21
9468.8583935408915
 31
0.0
 12
3070.375271033613
 22
9478.464331926245
 32
0.0
 13
3070.375271033613
 23
9478.464331926245
 33
0.0
1001
ACAD
1000
DSTYLE
1002
{
1070
     4
1000
"
1070
   143
1040
0.039370078
1070
   170
1070
     1
1002
}
  0
LINE
  5
5E7F
  8
62_TEXT
 10
3072.020583884148
 20
9478.7302706440896
 30
0.0
 11
3069.0651649798742
 21
9492.5086740181869
 31
0.0
1001
ACAD
1000
DSTYLE
1002
{
1070
     4
1000
"
1070
   143
1040
0.039370078
1070
   170
1070
     1
1002
}
  0
LINE
  5
5E80
  8
50_DIMENSIONS
 10
3069.0651649798742
 20
9492.5086740181869
 30
0.0
 11
3053.4714929956472
 21
9492.5086740181869
 31
0.0
  0
INSERT
  5
5E81
  8
50_DIMENSIONS
  2
*U24
 10
2827.436350643969
 20
9219.5514005364857
 30
0.0
  0
SOLID
  5
5E82
  8
50_DIMENSIONS
 10
2909.1558863162531
 20
9449.8047380924436
 30
0.0
 11
2905.613294005087
 21
9459.3035705204129
 31
0.0
 12
2912.0450972490448
 22
9451.4671373516285
 32
0.0
 13
2912.0450972490448
 23
9451.4671373516285
 33
0.0
1001
ACAD
1000
DSTYLE
1002
{
1070
   147
1040
0.5
1070
    77
1070
     0
1002
}
  0
LINE
  5
5E83
  8
50_DIMENSIONS
 10
2910.600491782649
 20
9450.6359377220379
 30
0.0
 11
2934.4725576646342
 21
9409.1468469675674
 31
0.0
1001
ACAD
1000
DSTYLE
1002
{
1070
   147
1040
0.5
1070
    77
1070
     0
1002
}
  0
LINE
  5
5E84
  8
50_DIMENSIONS
 10
2901.8851199356832
 20
9409.2021966981392
 30
0.0
 11
2934.4725576646342
 21
9409.1468469675674
 31
0.0
1001
ACAD
1000
DSTYLE
1002
{
1070
   147
1040
0.5
1070
    77
1070
     0
1002
}
  0
TEXT
  5
5E85
  8
62_TEXT
 10
4034.7342196502609
 20
9389.9634406057085
 30
0.0
 40
10.0
  1
17-06-08
  7
MECHTRONICS
  0
TEXT
  5
5E86
  8
01_FRAME
 62
     7
 10
4104.5572124629261
 20
9389.7275949233481
 30
0.0
 40
10.0
  1
C
  7
MECHTRONICS
  0
TEXT
  5
5E87
  8
01_FRAME
 62
     7
 10
3876.2380137784562
 20
9389.9634406057085
 30
0.0
 40
10.0
  1
Increase proxy hole size
  7
MECHTRONICS
  0
CIRCLE
  5
5E88
  8
62_TEXT
 10
3285.917574732151
 20
9463.3660822765287
 30
0.0
 40
3.25
  0
CIRCLE
  5
5E89
  8
62_TEXT
 10
3278.8465069202839
 20
9456.2950144646675
 30
0.0
 40
3.25
  0
CIRCLE
  5
5E8A
  8
62_TEXT
 10
3292.9886425440159
 20
9470.437150088399
 30
0.0
 40
3.25
  0
TEXT
  5
5E8B
  8
62_TEXT
 10
3355.3572044030989
 20
9399.1653684369248
 30
0.0
 40
10.0
  1
Spring anchor points
  7
MECHTRONICS
  0
CIRCLE
  5
5E8C
  8
10_OUTLINE0
 62
     2
 10
3401.9784641650499
 20
9898.3453746130781
 30
0.0
 40
4.1500000000000004
  0
CIRCLE
  5
5E8D
  8
10_OUTLINE0
 62
     2
 10
3361.9784641650499
 20
9898.3453746130781
 30
0.0
 40
4.1500000000000004
  0
CIRCLE
  5
5E8E
  8
10_OUTLINE
 62
     2
 10
3442.5501983211179
 20
9862.8107170965632
 30
0.0
 40
4.0
  0
CIRCLE
  5
5E8F
  8
10_OUTLINE
 62
     2
 10
3438.5013429243031
 20
9847.2285274482329
 30
0.0
 40
4.0
  0
CIRCLE
  5
5E90
  8
10_OUTLINE
 62
     2
 10
3323.673111439864
 20
9885.3824615422636
 30
0.0
 40
5.0
  0
LINE
  5
5E91
  8
10_OUTLINE
 62
     2
 10
3325.4555854057958
 20
9837.1516699066942
 30
0.0
 11
3438.5013429243031
 21
9837.1516699066942
 31
0.0
  0
ARC
  5
5E92
  8
10_OUTLINE
 62
     2
 10
3438.5013429243031
 20
9847.2285274482329
 30
0.0
 40
10.07685754153613
 50
270.0
 51
280.63281578023339
  0
LINE
  5
5E93
  8
10_OUTLINE
 62
     2
 10
3440.360667140586
 20
9837.3246912535487
 30
0.0
 11
3554.8267983156879
 21
9858.8143085547981
 31
0.0
  0
LINE
  5
5E94
  8
10_OUTLINE
 62
     2
 10
3119.5283641650508
 20
9881.4516699066971
 30
0.0
 11
3119.5283641650508
 21
9881.4516699066971
 31
0.0
  0
ARC
  5
5E95
  8
10_OUTLINE
 62
     2
 10
3127.5283641650499
 20
9882.2738039563974
 30
0.0
 40
8.0
 50
180.0
 51
259.3671842197665
  0
ARC
  5
5E96
  8
10_OUTLINE
 62
     2
 10
3325.4555854057958
 20
9847.2285274482329
 30
0.0
 40
10.07685754153613
 50
259.3671842197665
 51
270.0
  0
LINE
  5
5E97
  8
10_OUTLINE
 62
     2
 10
3323.5962611895152
 20
9837.3246912535487
 30
0.0
 11
3126.0522498437999
 21
9874.4111653082964
 31
0.0
  0
CIRCLE
  5
5E98
  8
10_OUTLINE
 62
     2
 10
3531.4127144414929
 20
9892.3045748895202
 30
0.0
 40
3.5
  0
CIRCLE
  5
5E99
  8
10_OUTLINE
 62
     2
 10
3524.3416466296289
 20
9885.2335070776571
 30
0.0
 40
3.5
  0
CIRCLE
  5
5E9A
  8
10_OUTLINE
 62
     2
 10
3538.4837822533591
 20
9899.3756427013886
 30
0.0
 40
3.5
  0
LINE
  5
5E9B
  8
0
 10
3217.1734473391839
 20
9928.9516699067008
 30
0.0
 11
3179.6501176370102
 21
9928.9516699067008
 31
0.0
  0
INSERT
  5
5E9C
  8
50_DIMENSIONS0
  2
*U35
 10
1469.51855923523
 20
84.274092585264953
 30
0.0
  0
LINE
  5
5E9D
  8
0
 10
3546.7834809909159
 20
9928.9516699067008
 30
0.0
 11
3584.3068106930891
 21
9928.9516699067008
 31
0.0
  0
INSERT
  5
5E9E
  8
50_DIMENSIONS0
  2
*U36
 10
1469.51855923523
 20
84.274092585264953
 30
0.0
1001
ACAD
1000
DSTYLE
1002
{
1070
   341
1005
0
1070
   147
1040
0.5
1070
    77
1070
     0
1002
}
  0
LINE
  5
5E9F
  8
10_OUTLINE
 62
     2
 10
3636.4285641650499
 20
9858.9516699066971
 30
0.0
 11
3556.302912636937
 21
9858.9516699066971
 31
0.0
  0
ARC
  5
5EA0
  8
10_OUTLINE
 62
     2
 10
3556.302912636937
 20
9850.951669906699
 30
0.0
 40
8.0
 50
90.0
 51
100.6328157802334
  0
ARC
  5
5EA1
  8
10_OUTLINE
 62
     2
 10
3636.4285641650499
 20
9866.9516699066971
 30
0.0
 40
8.0
 50
270.0
 51
0.0
  0
ARC
  5
5EA2
  8
62_TEXT
 10
3390.9334244557049
 20
9434.9068820000884
 30
0.0
 40
8.0
 50
270.0
 51
0.0
  0
LINE
  5
5EA3
  8
62_TEXT
 10
3390.9334244557049
 20
9426.9068820000866
 30
0.0
 11
3281.385039046967
 21
9426.9068820000866
 31
0.0
  0
TEXT
  5
5EA4
  8
62_TEXT
 10
3444.321303522599
 20
9501.6592302616937
 30
0.0
 40
10.0
  1
V-roller
  7
MECHTRONICS
  0
INSERT
  5
5EA5
  8
50_DIMENSIONS
  2
*U19
 10
2827.436350643969
 20
9712.2623634636893
 30
0.0
 41
-1.0
 50
180.0
1001
ACAD
1000
DSTYLE
1002
{
1070
   147
1040
0.5
1070
    77
1070
     0
1002
}
  0
ARC
  5
5EA6
  8
50_DIMENSIONS0
 10
3281.385039046967
 20
9418.9068820000884
 30
0.0
 40
8.0
 50
90.0
 51
97.631989390541975
  0
TEXT
  5
5EA7
  8
62_TEXT0
 62
     1
 10
3432.4837409455531
 20
9300.1321609821098
 30
0.0
 40
20.0
  1
OPTION
  7
MECHTRONICS
  0
LINE
  5
5EA8
  8
62_TEXT0
 62
    40
 10
3541.4740624024571
 20
9296.1991033315153
 30
0.0
 11
3434.1800514994079
 21
9296.1991033315153
 31
0.0
  0
LINE
  5
5EA9
  8
62_TEXT0
 62
    40
 10
3541.4740624024571
 20
9324.0561267468875
 30
0.0
 11
3434.1800514994079
 21
9324.0561267468875
 31
0.0
  0
ARC
  5
5EAA
  8
62_TEXT0
 62
    40
 10
3434.1800514994079
 20
9320.0561267498797
 30
0.0
 40
3.9999999969999989
 50
90.0
 51
180.0
  0
ARC
  5
5EAB
  8
62_TEXT0
 62
    40
 10
3434.1800514994079
 20
9300.1991033285176
 30
0.0
 40
3.9999999969999989
 50
180.0
 51
269.99999999994787
  0
LINE
  5
5EAC
  8
62_TEXT0
 62
    40
 10
3430.1800515024102
 20
9300.1991033285176
 30
0.0
 11
3430.1800515024102
 21
9320.0561267498797
 31
0.0
  0
ARC
  5
5EAD
  8
62_TEXT0
 62
    40
 10
3541.4740624024548
 20
9320.0561267498833
 30
0.0
 40
3.9999999969999989
 50
0.0
 51
89.999999999947889
  0
ARC
  5
5EAE
  8
62_TEXT0
 62
    40
 10
3541.4740624024548
 20
9300.1991033285267
 30
0.0
 40
3.9999999969999989
 50
269.99999999994787
 51
0.0
  0
LINE
  5
5EAF
  8
62_TEXT0
 62
    40
 10
3545.4740623994539
 20
9300.1991033285267
 30
0.0
 11
3545.4740623994539
 21
9320.0561267498833
 31
0.0
  0
TEXT
  5
5EB0
  8
01_FRAME0
 62
     8
 10
3748.2691126115828
 20
9408.8064912718128
 30
0.0
 40
7.0
  1
1:5
  7
MECHTRONICS
  0
LINE
  5
5EB1
  8
01_FRAME0
 62
     7
 10
3734.4378084922041
 20
9297.7790293338512
 30
0.0
 11
3740.3582181810189
 21
9297.7790293338512
 31
0.0
  0
LINE
  5
5EB2
  8
01_FRAME0
 62
     7
 10
3738.4102123931898
 20
9323.0711201010872
 30
0.0
 11
3734.4378084922041
 21
9297.7790293338512
 31
0.0
  0
LINE
  5
5EB3
  8
01_FRAME0
 62
     7
 10
3729.5295977770838
 20
9305.6912096098258
 30
0.0
 11
3738.4102123931898
 21
9323.0711201010872
 31
0.0
  0
LINE
  5
5EB4
  8
01_FRAME0
 62
     7
 10
3744.7316821215231
 20
9328.2946954208692
 30
0.0
 11
3735.4882037943362
 21
9328.2946954208692
 31
0.0
  0
LINE
  5
5EB5
  8
01_FRAME0
 62
     7
 10
3653.6748926488499
 20
9310.2277506714709
 30
0.0
 11
3666.2863227496941
 21
9310.2277506714709
 31
0.0
  0
LINE
  5
5EB6
  8
01_FRAME0
 62
     7
 10
3665.1328382912711
 20
9305.0766311212046
 30
0.0
 11
3654.9052760490608
 21
9305.0766311212046
 31
0.0
  0
LINE
  5
5EB7
  8
01_FRAME0
 62
     7
 10
3652.2138122574861
 20
9301.1556295611517
 30
0.0
 11
3662.548564836045
 21
9301.1556295611517
 31
0.0
  0
LINE
  5
5EB8
  8
01_FRAME0
 62
     7
 10
3663.1263318433421
 20
9321.5294610016845
 30
0.0
 11
3655.6742656327501
 21
9321.5294610016845
 31
0.0
  0
LINE
  5
5EB9
  8
01_FRAME0
 62
     7
 10
3654.1908853307359
 20
9313.5336725970992
 30
0.0
 11
3661.6471280296141
 21
9313.5336725970992
 31
0.0
  0
LINE
  5
5EBA
  8
01_FRAME0
 62
     7
 10
3660.73225163705
 20
9317.6636433362855
 30
0.0
 11
3655.9748942630872
 21
9317.6636433362855
 31
0.0
  0
LINE
  5
5EBB
  8
01_FRAME0
 62
     7
 10
3618.2827922703059
 20
9297.7790293338512
 30
0.0
 11
3621.8923322944311
 21
9323.1863460041004
 31
0.0
  0
LINE
  5
5EBC
  8
01_FRAME0
 62
     7
 10
3626.3612866415929
 20
9328.2946954208692
 30
0.0
 11
3616.9841217450871
 21
9328.2946954208692
 31
0.0
  0
LINE
  5
5EBD
  8
01_FRAME0
 62
     7
 10
3616.9841217450871
 20
9328.2946954208692
 30
0.0
 11
3612.6679520485768
 21
9297.7790293338512
 31
0.0
  0
LINE
  5
5EBE
  8
01_FRAME0
 62
     7
 10
3612.6679520485768
 20
9297.7790293338512
 30
0.0
 11
3618.2827922703059
 21
9297.7790293338512
 31
0.0
  0
LINE
  5
5EBF
  8
01_FRAME0
 62
     7
 10
3639.424384219114
 20
9323.0711201010872
 30
0.0
 11
3635.4519803181279
 21
9297.7790293338512
 31
0.0
  0
LINE
  5
5EC0
  8
01_FRAME0
 62
     7
 10
3641.3723900069408
 20
9297.7790293338512
 30
0.0
 11
3645.7458539474469
 21
9328.2946954208692
 31
0.0
  0
LINE
  5
5EC1
  8
01_FRAME0
 62
     7
 10
3635.4519803181279
 20
9297.7790293338512
 30
0.0
 11
3641.3723900069408
 21
9297.7790293338512
 31
0.0
  0
LINE
  5
5EC2
  8
01_FRAME0
 62
     7
 10
3645.7458539474469
 20
9328.2946954208692
 30
0.0
 11
3636.5023756202581
 21
9328.2946954208692
 31
0.0
  0
LINE
  5
5EC3
  8
01_FRAME0
 62
     7
 10
3630.5437696030058
 20
9305.6912096098258
 30
0.0
 11
3639.424384219114
 21
9323.0711201010872
 31
0.0
  0
LINE
  5
5EC4
  8
01_FRAME0
 62
     7
 10
3621.8923322944311
 20
9323.1863460041004
 30
0.0
 11
3625.444578074565
 21
9305.6912096098258
 31
0.0
  0
LINE
  5
5EC5
  8
01_FRAME0
 62
     7
 10
3629.1305105897941
 20
9313.7186157888063
 30
0.0
 11
3626.3612866415929
 21
9328.2946954208692
 31
0.0
  0
LINE
  5
5EC6
  8
01_FRAME0
 62
     7
 10
3636.5023756202581
 20
9328.2946954208692
 30
0.0
 11
3629.1305105897941
 21
9313.7186157888063
 31
0.0
  0
LINE
  5
5EC7
  8
01_FRAME0
 62
     7
 10
3625.444578074565
 20
9305.6912096098258
 30
0.0
 11
3630.5437696030058
 21
9305.6912096098258
 31
0.0
  0
LINE
  5
5EC8
  8
01_FRAME0
 62
     7
 10
3649.445449689897
 20
9316.9934005294162
 30
0.0
 11
3647.8305714149519
 21
9306.3836316412235
 31
0.0
  0
LINE
  5
5EC9
  8
01_FRAME0
 62
     7
 10
3653.179858226657
 20
9306.2683295777169
 30
0.0
 11
3653.6748926488499
 21
9310.2277506714709
 31
0.0
  0
LINE
  5
5ECA
  8
01_FRAME0
 62
     7
 10
3654.5110919686731
 20
9316.2145307642277
 30
0.0
 11
3654.1908853307359
 21
9313.5336725970992
 31
0.0
  0
LINE
  5
5ECB
  8
01_FRAME0
 62
     7
 10
3696.4309841173431
 20
9316.9820989704367
 30
0.0
 11
3703.6602538539491
 21
9316.9820989704367
 31
0.0
  0
LINE
  5
5ECC
  8
01_FRAME0
 62
     7
 10
3685.5617879785118
 20
9302.8470419012956
 30
0.0
 11
3685.7924848038879
 21
9304.8459838633389
 31
0.0
  0
LINE
  5
5ECD
  8
01_FRAME0
 62
     7
 10
3692.2899462287628
 20
9329.589377667653
 30
0.0
 11
3688.7338005296779
 21
9301.0660134851241
 31
0.0
  0
LINE
  5
5ECE
  8
01_FRAME0
 62
     7
 10
3694.184997499628
 20
9301.0660134851241
 30
0.0
 11
3696.4309841173431
 21
9316.9820989704367
 31
0.0
  0
LINE
  5
5ECF
  8
01_FRAME0
 62
     7
 10
3664.902141300121
 20
9302.8470419013047
 30
0.0
 11
3665.1328382912711
 21
9305.0766311212046
 31
0.0
  0
LINE
  5
5ED0
  8
01_FRAME0
 62
     7
 10
3678.4101842368309
 20
9301.1556295611517
 30
0.0
 11
3683.2082115144472
 21
9301.1556295611517
 31
0.0
  0
LINE
  5
5ED1
  8
01_FRAME0
 62
     7
 10
3674.411438103255
 20
9301.1556295611517
 30
0.0
 11
3678.4101842368309
 21
9301.1556295611517
 31
0.0
  0
LINE
  5
5ED2
  8
01_FRAME0
 62
     7
 10
3688.7338005296779
 20
9301.0660134851241
 30
0.0
 11
3694.184997499628
 21
9301.0660134851241
 31
0.0
  0
LINE
  5
5ED3
  8
01_FRAME0
 62
     7
 10
3688.7338005296779
 20
9301.0660134851241
 30
0.0
 11
3688.7338005296779
 21
9301.0660134851241
 31
0.0
  0
LINE
  5
5ED4
  8
01_FRAME0
 62
     7
 10
3685.4850073774501
 20
9321.5294610016845
 30
0.0
 11
3677.87189147852
 21
9321.5294610016845
 31
0.0
  0
LINE
  5
5ED5
  8
01_FRAME0
 62
     7
 10
3678.1794874114589
 20
9317.6853419714389
 30
0.0
 11
3687.8736900063659
 21
9317.6853419714389
 31
0.0
  0
LINE
  5
5ED6
  8
01_FRAME0
 62
     7
 10
3685.8298717409089
 20
9305.0766311212046
 30
0.0
 11
3678.4101842368309
 21
9305.0766311212046
 31
0.0
  0
LINE
  5
5ED7
  8
01_FRAME0
 62
     7
 10
3666.2863227496941
 20
9310.2277506714709
 30
0.0
 11
3667.366873611687
 21
9317.4813134341548
 31
0.0
  0
LINE
  5
5ED8
  8
01_FRAME0
 62
     7
 10
3666.2863227496941
 20
9310.2277506714709
 30
0.0
 11
3666.2863227496941
 21
9310.2277506714709
 31
0.0
  0
LINE
  5
5ED9
  8
01_FRAME0
 62
     7
 10
3661.6471280296141
 20
9313.5336725970992
 30
0.0
 11
3662.0599812453629
 21
9316.5340853130965
 31
0.0
  0
LINE
  5
5EDA
  8
01_FRAME0
 62
     7
 10
3671.6430755356678
 20
9316.9934005294162
 30
0.0
 11
3670.4126921354509
 21
9308.690103059369
 31
0.0
  0
LINE
  5
5EDB
  8
01_FRAME0
 62
     7
 10
3675.3748141874698
 20
9306.2683295777169
 30
0.0
 11
3676.7184070200969
 21
9316.2245765575844
 31
0.0
  0
LINE
  5
5EDC
  8
01_FRAME0
 62
     7
 10
3670.4126921354509
 20
9308.690103059369
 30
0.0
 11
3670.0281972607199
 21
9306.3836316412235
 31
0.0
  0
LINE
  5
5EDD
  8
01_FRAME0
 62
     7
 10
3678.4101842368309
 20
9305.0766311212046
 30
0.0
 11
3677.1002320098719
 21
9305.0766311212046
 31
0.0
  0
LINE
  5
5EDE
  8
01_FRAME0
 62
     7
 10
3687.8736900063659
 20
9317.6853419714389
 30
0.0
 11
3688.089139665225
 21
9319.0144926582834
 31
0.0
  0
LINE
  5
5EDF
  8
01_FRAME0
 62
     7
 10
3685.7924848038879
 20
9304.8459838633389
 30
0.0
 11
3685.8298717409089
 21
9305.0766311212046
 31
0.0
  0
LINE
  5
5EE0
  8
01_FRAME0
 62
     7
 10
3696.897364023986
 20
9319.3770081345883
 30
0.0
 11
3698.1154740806301
 21
9329.589377667653
 31
0.0
  0
LINE
  5
5EE1
  8
01_FRAME0
 62
     7
 10
3698.1154740806301
 20
9329.589377667653
 30
0.0
 11
3692.2899462287628
 21
9329.589377667653
 31
0.0
  0
LINE
  5
5EE2
  8
01_FRAME0
 62
     7
 10
3707.333377891468
 20
9301.0660134851241
 30
0.0
 11
3709.3672694229649
 21
9317.1550355683103
 31
0.0
  0
LINE
  5
5EE3
  8
01_FRAME0
 62
     7
 10
3703.6602538539491
 20
9316.9820989704367
 30
0.0
 11
3701.6482240788732
 21
9301.0660134851241
 31
0.0
  0
LINE
  5
5EE4
  8
01_FRAME0
 62
     7
 10
3717.2686204443789
 20
9297.7790293338512
 30
0.0
 11
3720.8781604685068
 21
9323.1863460041004
 31
0.0
  0
LINE
  5
5EE5
  8
01_FRAME0
 62
     7
 10
3715.969949919162
 20
9328.2946954208692
 30
0.0
 11
3711.6537802226549
 21
9297.7790293338512
 31
0.0
  0
LINE
  5
5EE6
  8
01_FRAME0
 62
     7
 10
3701.6482240788732
 20
9301.0660134851241
 30
0.0
 11
3707.333377891468
 21
9301.0660134851241
 31
0.0
  0
LINE
  5
5EE7
  8
01_FRAME0
 62
     7
 10
3711.6537802226549
 20
9297.7790293338512
 30
0.0
 11
3717.2686204443789
 21
9297.7790293338512
 31
0.0
  0
LINE
  5
5EE8
  8
01_FRAME0
 62
     7
 10
3725.34711481567
 20
9328.2946954208692
 30
0.0
 11
3715.969949919162
 21
9328.2946954208692
 31
0.0
  0
LINE
  5
5EE9
  8
01_FRAME0
 62
     7
 10
3720.8781604685068
 20
9323.1863460041004
 30
0.0
 11
3724.430406248639
 21
9305.6912096098258
 31
0.0
  0
LINE
  5
5EEA
  8
01_FRAME0
 62
     7
 10
3728.116338763873
 20
9313.7186157888063
 30
0.0
 11
3725.34711481567
 21
9328.2946954208692
 31
0.0
  0
LINE
  5
5EEB
  8
01_FRAME0
 62
     7
 10
3735.4882037943362
 20
9328.2946954208692
 30
0.0
 11
3728.116338763873
 21
9313.7186157888063
 31
0.0
  0
LINE
  5
5EEC
  8
01_FRAME0
 62
     7
 10
3724.430406248639
 20
9305.6912096098258
 30
0.0
 11
3729.5295977770838
 21
9305.6912096098258
 31
0.0
  0
LINE
  5
5EED
  8
01_FRAME0
 62
     7
 10
3779.1654100337209
 20
9327.5152351557335
 30
0.0
 11
3773.9825763281569
 21
9326.9251029868028
 31
0.0
  0
LINE
  5
5EEE
  8
01_FRAME0
 62
     7
 10
3776.205062786154
 20
9306.2572776798643
 30
0.0
 11
3777.8581276917171
 21
9317.9049371656656
 31
0.0
  0
LINE
  5
5EEF
  8
01_FRAME0
 62
     7
 10
3775.2435628419339
 20
9301.1445776633009
 30
0.0
 11
3780.5798828607049
 21
9301.1445776633009
 31
0.0
  0
LINE
  5
5EF0
  8
01_FRAME0
 62
     7
 10
3764.084913309186
 20
9301.2253042449956
 30
0.0
 11
3763.8843105828068
 21
9303.4983122698613
 31
0.0
  0
ARC
  5
5EF1
  8
01_FRAME0
 62
     7
 10
3768.8649515451939
 20
9303.9378752389457
 30
0.0
 40
5.0
 50
171.34562025558941
 51
185.04353146784149
  0
LINE
  5
5EF2
  8
01_FRAME0
 62
     7
 10
3740.3582181810189
 20
9297.7790293338512
 30
0.0
 11
3744.7316821215231
 21
9328.2946954208692
 31
0.0
  0
LINE
  5
5EF3
  8
01_FRAME0
 62
     7
 10
3750.8582915082338
 20
9301.1484217151901
 30
0.0
 11
3755.7798252748621
 21
9301.1484217151901
 31
0.0
  0
LINE
  5
5EF4
  8
01_FRAME0
 62
     7
 10
3758.7788848335999
 20
9301.2253042449956
 30
0.0
 11
3764.084913309186
 21
9301.2253042449956
 31
0.0
  0
LINE
  5
5EF5
  8
01_FRAME0
 62
     7
 10
3775.2435628419321
 20
9301.1445776633009
 30
0.0
 11
3775.6280577166681
 21
9301.1445776633009
 31
0.0
  0
LINE
  5
5EF6
  8
01_FRAME0
 62
     7
 10
3759.7016724666501
 20
9313.4496031093131
 30
0.0
 11
3752.3193718995981
 21
9313.4496031093131
 31
0.0
  0
LINE
  5
5EF7
  8
01_FRAME0
 62
     7
 10
3748.3975247078079
 20
9317.6781341254718
 30
0.0
 11
3758.787510553454
 21
9317.6781341254718
 31
0.0
  0
LINE
  5
5EF8
  8
01_FRAME0
 62
     7
 10
3761.6388316181769
 20
9321.5991356855284
 30
0.0
 11
3751.0120895575942
 21
9321.5991356855284
 31
0.0
  0
LINE
  5
5EF9
  8
01_FRAME0
 62
     7
 10
3748.6282216989589
 20
9319.9077233453754
 30
0.0
 11
3748.3975247078079
 21
9317.6781341254718
 31
0.0
  0
LINE
  5
5EFA
  8
01_FRAME0
 62
     7
 10
3752.780468642592
 20
9304.4413037375289
 30
0.0
 11
3756.48571806564
 21
9304.3688481337886
 31
0.0
  0
LINE
  5
5EFB
  8
01_FRAME0
 62
     7
 10
3757.7255113108558
 20
9309.8996274881738
 30
0.0
 11
3753.786832740725
 21
9309.8996274881738
 31
0.0
  0
LINE
  5
5EFC
  8
01_FRAME0
 62
     7
 10
3769.5258987686539
 20
9321.6721739976674
 30
0.0
 11
3768.86094884972
 21
9317.9049371656656
 31
0.0
  0
LINE
  5
5EFD
  8
01_FRAME0
 62
     7
 10
3763.9218814906831
 20
9304.6902437897315
 30
0.0
 11
3765.8793733865241
 21
9317.5509881180042
 31
0.0
  0
LINE
  5
5EFE
  8
01_FRAME0
 62
     7
 10
3758.4755744184049
 20
9306.3009981193445
 30
0.0
 11
3758.922200416117
 21
9308.7700694649848
 31
0.0
  0
LINE
  5
5EFF
  8
01_FRAME0
 62
     7
 10
3760.0861671756038
 20
9316.2173688774055
 30
0.0
 11
3759.7016724666501
 21
9313.4496031093131
 31
0.0
  0
LINE
  5
5F00
  8
01_FRAME0
 62
     7
 10
3760.1152401617678
 20
9316.5485761022846
 30
0.0
 11
3760.0861671756038
 21
9316.2173688774055
 31
0.0
  0
LINE
  5
5F01
  8
01_FRAME0
 62
     7
 10
3772.6289981579289
 20
9317.9049371656656
 30
0.0
 11
3770.860321999402
 21
9306.372579743369
 31
0.0
  0
LINE
  5
5F02
  8
01_FRAME0
 62
     7
 10
3768.86094884972
 20
9317.9049371656656
 30
0.0
 11
3772.6289981579289
 21
9317.9049371656656
 31
0.0
  0
LINE
  5
5F03
  8
01_FRAME0
 62
     7
 10
3773.9825763281569
 20
9326.9251029868028
 30
0.0
 11
3773.167290916243
 21
9321.6721739976674
 31
0.0
  0
LINE
  5
5F04
  8
01_FRAME0
 62
     7
 10
3773.167290916243
 20
9321.6721739976674
 30
0.0
 11
3769.5258987686539
 21
9321.6721739976674
 31
0.0
  0
LINE
  5
5F05
  8
01_FRAME0
 62
     7
 10
3782.933459324774
 20
9302.8359900034557
 30
0.0
 11
3783.1641561673032
 21
9305.0655792233538
 31
0.0
  0
LINE
  5
5F06
  8
01_FRAME0
 62
     7
 10
3784.7790344422469
 20
9317.9049371656656
 30
0.0
 11
3785.2404282587722
 21
9321.6721739976674
 31
0.0
  0
LINE
  5
5F07
  8
01_FRAME0
 62
     7
 10
3783.1641561673032
 20
9305.0655792233538
 30
0.0
 11
3777.9304806085661
 21
9305.0655792233538
 31
0.0
  0
LINE
  5
5F08
  8
01_FRAME0
 62
     7
 10
3777.8581276917171
 20
9317.9049371656656
 30
0.0
 11
3784.7790344422469
 21
9317.9049371656656
 31
0.0
  0
LINE
  5
5F09
  8
01_FRAME0
 62
     7
 10
3778.3195215082442
 20
9321.6721739976674
 30
0.0
 11
3779.1654100337209
 21
9327.5152351557335
 31
0.0
  0
LINE
  5
5F0A
  8
01_FRAME0
 62
     7
 10
3785.2404282587722
 20
9321.6721739976674
 30
0.0
 11
3778.3195215082442
 21
9321.6721739976674
 31
0.0
  0
ARC
  5
5F0B
  8
01_FRAME0
 62
     7
 10
3656.2743140125058
 20
9315.9611233950473
 30
0.0
 40
1.7813386176174331
 50
129.9788673075646
 51
171.82154662075379
  0
ARC
  5
5F0C
  8
01_FRAME0
 62
     7
 10
3656.0174925733181
 20
9316.3302027537084
 30
0.0
 40
1.334120835341543
 50
91.829758024394337
 51
131.71149876918531
  0
ARC
  5
5F0D
  8
01_FRAME0
 62
     7
 10
3678.4789071608789
 20
9315.9828220302006
 30
0.0
 40
1.7813386176174331
 50
129.9788673075646
 51
171.82154662075379
  0
ARC
  5
5F0E
  8
01_FRAME0
 62
     7
 10
3678.222085721693
 20
9316.3519013888654
 30
0.0
 40
1.334120835341543
 50
91.829758024394337
 51
131.71149876918531
  0
ARC
  5
5F0F
  8
01_FRAME0
 62
     7
 10
3660.7977718885759
 20
9316.2954378672202
 30
0.0
 40
1.3697733786789601
 50
41.694258406646668
 51
92.741670228047298
  0
ARC
  5
5F10
  8
01_FRAME0
 62
     7
 10
3661.112197407947
 20
9316.5755242705327
 30
0.0
 40
0.9486893009083603
 50
357.49651121804158
 51
41.694258406663998
  0
ARC
  5
5F11
  8
01_FRAME0
 62
     7
 10
3758.8530308049808
 20
9316.3099286564084
 30
0.0
 40
1.3697733786789601
 50
41.694258406646668
 51
92.741670228047298
  0
ARC
  5
5F12
  8
01_FRAME0
 62
     7
 10
3759.1674563243519
 20
9316.5900150597226
 30
0.0
 40
0.9486893009083603
 50
357.49651121804158
 51
41.694258406663998
  0
ARC
  5
5F13
  8
01_FRAME0
 62
     7
 10
3654.8943955237428
 20
9307.5683791064112
 30
0.0
 40
2.4917717406737361
 50
242.0549458701133
 51
270.25018750738542
  0
ARC
  5
5F14
  8
01_FRAME0
 62
     7
 10
3654.2089728669848
 20
9306.2762988797567
 30
0.0
 40
1.0291454963783411
 50
180.4436806435252
 51
242.0549458701133
  0
ARC
  5
5F15
  8
01_FRAME0
 62
     7
 10
3677.0893514845529
 20
9307.5683791064112
 30
0.0
 40
2.4917717406737361
 50
242.0549458701133
 51
270.25018750738542
  0
ARC
  5
5F16
  8
01_FRAME0
 62
     7
 10
3676.4039288277991
 20
9306.2762988797567
 30
0.0
 40
1.0291454963783411
 50
180.4436806435252
 51
242.0549458701133
  0
ARC
  5
5F17
  8
01_FRAME0
 62
     7
 10
3654.3155156836142
 20
9316.219770324522
 30
0.0
 40
4.9311303447668831
 50
116.4343118930764
 51
170.97374799138291
  0
ARC
  5
5F18
  8
01_FRAME0
 62
     7
 10
3655.9455879462998
 20
9312.9409427567989
 30
0.0
 40
8.592802886170217
 50
91.809445418565659
 51
116.4343118930764
  0
ARC
  5
5F19
  8
01_FRAME0
 62
     7
 10
3676.5131415293831
 20
9316.219770324522
 30
0.0
 40
4.9311303447668831
 50
116.4343118930764
 51
170.97374799138291
  0
ARC
  5
5F1A
  8
01_FRAME0
 62
     7
 10
3678.1432137920701
 20
9312.9409427567989
 30
0.0
 40
8.592802886170217
 50
91.809445418565659
 51
116.4343118930764
  0
ARC
  5
5F1B
  8
01_FRAME0
 62
     7
 10
3662.6300552879361
 20
9316.0198501541654
 30
0.0
 40
5.5319166760333651
 50
44.532575507595418
 51
84.852989749610956
  0
ARC
  5
5F1C
  8
01_FRAME0
 62
     7
 10
3664.5311191533701
 20
9317.890146219157
 30
0.0
 40
2.86507375017873
 50
351.79615361502368
 51
44.532575507595418
  0
ARC
  5
5F1D
  8
01_FRAME0
 62
     7
 10
3652.2896192811831
 20
9305.5982792994964
 30
0.0
 40
4.4432964567391231
 50
213.37814014438621
 51
269.02243001410022
  0
ARC
  5
5F1E
  8
01_FRAME0
 62
     7
 10
3652.5640325705049
 20
9305.7790713474569
 30
0.0
 40
4.7719123692622603
 50
172.72155707448329
 51
213.37814014438621
  0
ARC
  5
5F1F
  8
01_FRAME0
 62
     7
 10
3662.5334191387669
 20
9303.9379925988869
 30
0.0
 40
2.782404259976599
 50
269.68811547988651
 51
309.8515984333356
  0
ARC
  5
5F20
  8
01_FRAME0
 62
     7
 10
3663.2393279532762
 20
9303.0922843565459
 30
0.0
 40
1.6808010257913211
 50
309.8515984333356
 51
351.6101322180225
  0
ARC
  5
5F21
  8
01_FRAME0
 62
     7
 10
3674.4872451269489
 20
9305.5982792994964
 30
0.0
 40
4.4432964567391231
 50
213.37814014438621
 51
269.02243001410022
  0
ARC
  5
5F22
  8
01_FRAME0
 62
     7
 10
3674.7616584162738
 20
9305.7790713474606
 30
0.0
 40
4.7719123692622603
 50
172.72155707448329
 51
213.37814014438621
  0
ARC
  5
5F23
  8
01_FRAME0
 62
     7
 10
3683.1930658171632
 20
9303.9379925988869
 30
0.0
 40
2.782404259976599
 50
269.68811547988651
 51
309.8515984333356
  0
ARC
  5
5F24
  8
01_FRAME0
 62
     7
 10
3683.8989746316688
 20
9303.0922843565459
 30
0.0
 40
1.6808010257913211
 50
309.8515984333356
 51
351.6101322180225
  0
ARC
  5
5F25
  8
01_FRAME0
 62
     7
 10
3685.561035675214
 20
9318.9218174982907
 30
0.0
 40
2.6087516062040841
 50
29.017138568455231
 51
91.670039206039633
  0
ARC
  5
5F26
  8
01_FRAME0
 62
     7
 10
3686.0634827915778
 20
9319.2005249887516
 30
0.0
 40
2.034181358120112
 50
354.75278767927171
 51
29.017138568455231
  0
LINE
  5
5F27
  8
01_FRAME0
 62
     7
 10
3792.8617982508499
 20
9310.2277506714709
 30
0.0
 11
3805.4732283516942
 21
9310.2277506714709
 31
0.0
  0
LINE
  5
5F28
  8
01_FRAME0
 62
     7
 10
3804.3197438932721
 20
9305.0766311212046
 30
0.0
 11
3794.0921816510622
 21
9305.0766311212046
 31
0.0
  0
LINE
  5
5F29
  8
01_FRAME0
 62
     7
 10
3791.4007178594861
 20
9301.1556295611517
 30
0.0
 11
3801.7354704380459
 21
9301.1556295611517
 31
0.0
  0
LINE
  5
5F2A
  8
01_FRAME0
 62
     7
 10
3802.3132374453421
 20
9321.5294610016845
 30
0.0
 11
3794.8611712347511
 21
9321.5294610016845
 31
0.0
  0
LINE
  5
5F2B
  8
01_FRAME0
 62
     7
 10
3793.3777909327382
 20
9313.5336725970992
 30
0.0
 11
3800.8340336316151
 21
9313.5336725970992
 31
0.0
  0
LINE
  5
5F2C
  8
01_FRAME0
 62
     7
 10
3799.9191572390491
 20
9317.6636433362855
 30
0.0
 11
3795.1617998650881
 21
9317.6636433362855
 31
0.0
  0
LINE
  5
5F2D
  8
01_FRAME0
 62
     7
 10
3788.6323552918971
 20
9316.9934005294162
 30
0.0
 11
3787.0174770169542
 21
9306.3836316412235
 31
0.0
  0
LINE
  5
5F2E
  8
01_FRAME0
 62
     7
 10
3792.3667638286579
 20
9306.2683295777169
 30
0.0
 11
3792.8617982508499
 21
9310.2277506714709
 31
0.0
  0
LINE
  5
5F2F
  8
01_FRAME0
 62
     7
 10
3793.6979975706731
 20
9316.2145307642277
 30
0.0
 11
3793.3777909327382
 21
9313.5336725970992
 31
0.0
  0
LINE
  5
5F30
  8
01_FRAME0
 62
     7
 10
3804.0890469021219
 20
9302.8470419013047
 30
0.0
 11
3804.3197438932721
 21
9305.0766311212046
 31
0.0
  0
LINE
  5
5F31
  8
01_FRAME0
 62
     7
 10
3805.4732283516942
 20
9310.2277506714709
 30
0.0
 11
3806.553779213687
 21
9317.4813134341548
 31
0.0
  0
LINE
  5
5F32
  8
01_FRAME0
 62
     7
 10
3805.4732283516942
 20
9310.2277506714709
 30
0.0
 11
3805.4732283516942
 21
9310.2277506714709
 31
0.0
  0
LINE
  5
5F33
  8
01_FRAME0
 62
     7
 10
3800.8340336316151
 20
9313.5336725970992
 30
0.0
 11
3801.246886847362
 21
9316.5340853130965
 31
0.0
  0
ARC
  5
5F34
  8
01_FRAME0
 62
     7
 10
3795.4612196145072
 20
9315.9611233950473
 30
0.0
 40
1.7813386176174331
 50
129.9788673075646
 51
171.82154662075379
  0
ARC
  5
5F35
  8
01_FRAME0
 62
     7
 10
3795.2043981753168
 20
9316.3302027537084
 30
0.0
 40
1.334120835341543
 50
91.829758024394337
 51
131.71149876918531
  0
ARC
  5
5F36
  8
01_FRAME0
 62
     7
 10
3799.9846774905759
 20
9316.2954378672202
 30
0.0
 40
1.3697733786789601
 50
41.694258406646668
 51
92.741670228047298
  0
ARC
  5
5F37
  8
01_FRAME0
 62
     7
 10
3800.299103009947
 20
9316.5755242705327
 30
0.0
 40
0.9486893009083603
 50
357.49651121804158
 51
41.694258406663998
  0
ARC
  5
5F38
  8
01_FRAME0
 62
     7
 10
3794.0813011257428
 20
9307.5683791064112
 30
0.0
 40
2.4917717406737361
 50
242.0549458701133
 51
270.25018750738542
  0
ARC
  5
5F39
  8
01_FRAME0
 62
     7
 10
3793.395878468988
 20
9306.2762988797567
 30
0.0
 40
1.0291454963783411
 50
180.4436806435252
 51
242.0549458701133
  0
ARC
  5
5F3A
  8
01_FRAME0
 62
     7
 10
3793.5024212856142
 20
9316.219770324522
 30
0.0
 40
4.9311303447668831
 50
116.4343118930764
 51
170.97374799138291
  0
ARC
  5
5F3B
  8
01_FRAME0
 62
     7
 10
3795.1324935483012
 20
9312.9409427567989
 30
0.0
 40
8.592802886170217
 50
91.809445418565659
 51
116.4343118930764
  0
ARC
  5
5F3C
  8
01_FRAME0
 62
     7
 10
3801.8169608899379
 20
9316.0198501541654
 30
0.0
 40
5.5319166760333651
 50
44.532575507595418
 51
84.852989749610956
  0
ARC
  5
5F3D
  8
01_FRAME0
 62
     7
 10
3803.7180247553688
 20
9317.890146219157
 30
0.0
 40
2.86507375017873
 50
351.79615361502368
 51
44.532575507595418
  0
ARC
  5
5F3E
  8
01_FRAME0
 62
     7
 10
3791.4765248831818
 20
9305.5982792994964
 30
0.0
 40
4.4432964567391231
 50
213.37814014438621
 51
269.02243001410022
  0
ARC
  5
5F3F
  8
01_FRAME0
 62
     7
 10
3791.7509381725049
 20
9305.7790713474569
 30
0.0
 40
4.7719123692622603
 50
172.72155707448329
 51
213.37814014438621
  0
ARC
  5
5F40
  8
01_FRAME0
 62
     7
 10
3801.7203247407679
 20
9303.9379925988869
 30
0.0
 40
2.782404259976599
 50
269.68811547988651
 51
309.8515984333356
  0
ARC
  5
5F41
  8
01_FRAME0
 62
     7
 10
3802.4262335552762
 20
9303.0922843565459
 30
0.0
 40
1.6808010257913211
 50
309.8515984333356
 51
351.6101322180225
  0
LINE
  5
5F42
  8
01_FRAME0
 62
     7
 10
3702.7462420589131
 20
9321.5294610016845
 30
0.0
 11
3705.935213640902
 21
9321.5294610016845
 31
0.0
  0
ARC
  5
5F43
  8
01_FRAME0
 62
     7
 10
3705.0056263254942
 20
9317.4476214748247
 30
0.0
 40
4.371445644454063
 50
356.16225827570872
 51
57.030568872304663
  0
ARC
  5
5F44
  8
01_FRAME0
 62
     7
 10
3705.9827936794009
 20
9318.9540862442682
 30
0.0
 40
2.5758142404291871
 50
57.030568872304663
 51
91.058418890025166
  0
ARC
  5
5F45
  8
01_FRAME0
 62
     7
 10
3703.1322938816961
 20
9310.0950740021981
 30
0.0
 40
11.440902152536321
 50
91.933705877924496
 51
118.1284095955139
  0
ARC
  5
5F46
  8
01_FRAME0
 62
     7
 10
3698.7536523226222
 20
9318.2857637213656
 30
0.0
 40
2.1532813603997241
 50
118.1284095955139
 51
149.5502773796284
  0
ARC
  5
5F47
  8
01_FRAME0
 62
     7
 10
3780.5647371634232
 20
9303.9269407010433
 30
0.0
 40
2.782404259976599
 50
269.68811547988651
 51
309.8515984333356
  0
ARC
  5
5F48
  8
01_FRAME0
 62
     7
 10
3781.2706459779279
 20
9303.0812324586987
 30
0.0
 40
1.6808010257913211
 50
309.8515984333356
 51
351.6101322180225
  0
ARC
  5
5F49
  8
01_FRAME0
 62
     7
 10
3775.3193698656278
 20
9305.5872274016474
 30
0.0
 40
4.4432964567391231
 50
213.37814014438621
 51
269.02243001410022
  0
ARC
  5
5F4A
  8
01_FRAME0
 62
     7
 10
3775.5937831549531
 20
9305.7680194496115
 30
0.0
 40
4.7719123692622603
 50
172.72155707448329
 51
213.37814014438621
  0
ARC
  5
5F4B
  8
01_FRAME0
 62
     7
 10
3777.9196000832389
 20
9307.5573272085603
 30
0.0
 40
2.4917717406737361
 50
242.0549458701133
 51
270.25018750738542
  0
ARC
  5
5F4C
  8
01_FRAME0
 62
     7
 10
3777.2341774264828
 20
9306.2652469819077
 30
0.0
 40
1.0291454963783411
 50
180.4436806435252
 51
242.0549458701133
  0
ARC
  5
5F4D
  8
01_FRAME0
 62
     7
 10
3761.1425550627719
 20
9316.0895248380075
 30
0.0
 40
5.5319166760333651
 50
44.532575507595418
 51
84.852989749610956
  0
ARC
  5
5F4E
  8
01_FRAME0
 62
     7
 10
3763.0436189282041
 20
9317.9598209029991
 30
0.0
 40
2.86507375017873
 50
351.79615361502368
 51
44.532575507595418
  0
ARC
  5
5F4F
  8
01_FRAME0
 62
     7
 10
3751.0054510871969
 20
9318.8373865739613
 30
0.0
 40
2.761757090070398
 50
89.862277278542336
 51
130.98420927748609
  0
ARC
  5
5F50
  8
01_FRAME0
 62
     7
 10
3750.3154183593078
 20
9319.6316204023751
 30
0.0
 40
1.7096389694392231
 50
130.98420927748609
 51
170.70615505540789
  0
ARC
  5
5F51
  8
01_FRAME0
 62
     7
 10
3763.501225948306
 20
9303.6967573316924
 30
0.0
 40
5.3299705405753901
 50
189.25185122402681
 51
207.62546243343959
  0
ARC
  5
5F52
  8
01_FRAME0
 62
     7
 10
3755.1424934724569
 20
9304.7113903433183
 30
0.0
 40
3.6195216909689001
 50
280.14161684226048
 51
328.86389698778959
  0
ARC
  5
5F53
  8
01_FRAME0
 62
     7
 10
3752.4532940589079
 20
9307.1163325411362
 30
0.0
 40
6.3346863564448332
 50
91.211385343645844
 51
150.30133372254099
  0
ARC
  5
5F54
  8
01_FRAME0
 62
     7
 10
3755.0482065949941
 20
9305.6363006172032
 30
0.0
 40
9.322003809576028
 50
150.30133372254099
 51
172.8407731250569
  0
ARC
  5
5F55
  8
01_FRAME0
 62
     7
 10
3751.5852681936221
 20
9306.0712680549077
 30
0.0
 40
5.8318549526417192
 50
172.8407731250569
 51
205.6306489595861
  0
ARC
  5
5F56
  8
01_FRAME0
 62
     7
 10
3749.1896377837511
 20
9304.9218982212678
 30
0.0
 40
3.1747708224020381
 50
205.6306489595861
 51
237.51101652280329
  0
ARC
  5
5F57
  8
01_FRAME0
 62
     7
 10
3751.2895283046819
 20
9308.2194650819401
 30
0.0
 40
7.084180931417106
 50
237.51101652280329
 51
266.5100646608737
  0
ARC
  5
5F58
  8
01_FRAME0
 62
     7
 10
3757.65999105933
 20
9308.5314220191049
 30
0.0
 40
1.3697733786789601
 50
41.694258406646668
 51
92.741670228047298
  0
ARC
  5
5F59
  8
01_FRAME0
 62
     7
 10
3757.9744165787029
 20
9308.8115084224191
 30
0.0
 40
0.9486893009083603
 50
357.49651121804158
 51
41.694258406663998
  0
ARC
  5
5F5A
  8
01_FRAME0
 62
     7
 10
3756.1020759671192
 20
9306.6721297226832
 30
0.0
 40
2.335013348462692
 50
279.45655767728039
 51
324.92940398283741
  0
ARC
  5
5F5B
  8
01_FRAME0
 62
     7
 10
3755.373684901399
 20
9307.1834932912552
 30
0.0
 40
3.2249831478877442
 50
324.92940398283741
 51
344.11881738720848
  0
ARC
  5
5F5C
  8
01_FRAME0
 62
     7
 10
3753.7576578129028
 20
9307.3067326773125
 30
0.0
 40
2.5930589419808752
 50
89.355342266111919
 51
126.25017530153811
  0
ARC
  5
5F5D
  8
01_FRAME0
 62
     7
 10
3753.3351693291238
 20
9307.912884829173
 30
0.0
 40
1.8544939344785201
 50
126.79741703497891
 51
163.58374767656801
  0
ARC
  5
5F5E
  8
01_FRAME0
 62
     7
 10
3733.173662932702
 20
9313.1601851825162
 30
0.0
 40
18.979700613649172
 50
343.74206189479008
 51
345.59022698623801
  0
ARC
  5
5F5F
  8
01_FRAME0
 62
     7
 10
3756.762116272017
 20
9306.3870272046515
 30
0.0
 40
5.5626301394637343
 50
164.78824619774201
 51
186.8201458581274
  0
ARC
  5
5F60
  8
01_FRAME0
 62
     7
 10
3752.5313218272859
 20
9305.8434190982589
 30
0.0
 40
1.2977557747008901
 50
185.1712957963172
 51
236.501382549211
  0
ARC
  5
5F61
  8
01_FRAME0
 62
     7
 10
3752.8879702769368
 20
9306.3822843788294
 30
0.0
 40
1.943955362475676
 50
236.501382549211
 51
266.8298996125319
  0
LINE
  5
5F62
  8
01_FRAME
 62
     7
 10
3397.2680012710289
 20
9854.6020901763895
 30
0.0
 11
3402.377709638718
 21
9863.4523646810776
 31
0.0
  0
LINE
  5
5F63
  8
01_FRAME
 62
     7
 10
3397.2680012710289
 20
9854.6020901763895
 30
0.0
 11
3407.4874180064039
 21
9854.6020901763895
 31
0.0
  0
LINE
  5
5F64
  8
01_FRAME
 62
     7
 10
3407.4874180064039
 20
9854.6020901763895
 30
0.0
 11
3402.377709638718
 21
9863.4523646810776
 31
0.0
  0
TEXT
  5
5F65
  8
01_FRAME
 62
     7
 10
3399.7917920359801
 20
9855.1397193923749
 30
0.0
 40
5.0
  1
B
  7
MECHTRONICS
  0
TEXT
  5
5F66
  8
01_FRAME
 62
     7
 10
3796.1286247034891
 20
9406.6093754558606
 30
0.0
 40
10.0
  1
Deleted slots for geared screw heads
  7
MECHTRONICS
  0
TEXT
  5
5F67
  8
62_TEXT
 10
4035.5159705406491
 20
9406.6093754558606
 30
0.0
 40
10.0
  1
17-04-08
  7
MECHTRONICS
  0
TEXT
  5
5F68
  8
01_FRAME
 62
     7
 10
4105.3389633533116
 20
9406.3735297734947
 30
0.0
 40
10.0
  1
B
  7
MECHTRONICS
  0
LINE
  5
5F69
  8
01_FRAME
 62
     7
 10
3324.5623397906588
 20
9857.5713328585625
 30
0.0
 11
3329.6720481583479
 21
9866.4216073632524
 31
0.0
  0
LINE
  5
5F6A
  8
01_FRAME
 62
     7
 10
3324.5623397906588
 20
9857.5713328585625
 30
0.0
 11
3334.7817565260352
 21
9857.5713328585625
 31
0.0
  0
LINE
  5
5F6B
  8
01_FRAME
 62
     7
 10
3334.7817565260352
 20
9857.5713328585625
 30
0.0
 11
3329.6720481583479
 21
9866.4216073632524
 31
0.0
  0
TEXT
  5
5F6C
  8
01_FRAME
 62
     7
 10
3327.08613055561
 20
9858.1089620745533
 30
0.0
 40
5.0
  1
B
  7
MECHTRONICS
  0
CIRCLE
  5
5F6D
  8
10_OUTLINE
 62
     2
 10
3381.978350643969
 20
9968.7393597808205
 30
0.0
 40
10.0
  0
LINE
  5
5F6E
  8
01_FRAME
 62
     7
 10
3397.2680012710289
 20
9962.9033709167543
 30
0.0
 11
3402.377709638718
 21
9971.7536454214478
 31
0.0
  0
LINE
  5
5F6F
  8
01_FRAME
 62
     7
 10
3397.2680012710289
 20
9962.9033709167543
 30
0.0
 11
3407.4874180064039
 21
9962.9033709167543
 31
0.0
  0
LINE
  5
5F70
  8
01_FRAME
 62
     7
 10
3407.4874180064039
 20
9962.9033709167543
 30
0.0
 11
3402.377709638718
 21
9971.7536454214478
 31
0.0
  0
TEXT
  5
5F71
  8
01_FRAME
 62
     7
 10
3399.7917920359801
 20
9963.4410001327433
 30
0.0
 40
5.0
  1
C
  7
MECHTRONICS
  0
CIRCLE
  5
6017
  8
62_TEXT
 10
3189.3764079309099
 20
9419.6019814750089
 30
0.0
 40
4.0
  0
ENDSEC
  0
EOF
