  0
SECTION
  2
HEADER
  9
$ACADVER
  1
AC1009
  9
$INSBASE
 10
0.0
 20
0.0
 30
0.0
  9
$EXTMIN
 10
1219.488329582475
 20
5592.4452906831229
 30
0.0
  9
$EXTMAX
 10
1489.121255655826
 20
5785.8316941564781
 30
0.0
  9
$LIMMIN
 10
0.0
 20
0.0
  9
$LIMMAX
 10
0.0
 20
0.0
  9
$ORTHOMODE
 70
     0
  9
$REGENMODE
 70
     1
  9
$FILLMODE
 70
     1
  9
$QTEXTMODE
 70
     0
  9
$MIRRTEXT
 70
     1
  9
$DRAGMODE
 70
     2
  9
$LTSCALE
 40
10.0
  9
$OSMODE
 70
    47
  9
$ATTMODE
 70
     1
  9
$TEXTSIZE
 40
2.0
  9
$TRACEWID
 40
0.05
  9
$TEXTSTYLE
  7
MECHTRONICS
  9
$CLAYER
  8
0
  9
$CELTYPE
  6
BYLAYER
  9
$CECOLOR
 62
   256
  9
$DIMSCALE
 40
1.0
  9
$DIMASZ
 40
2.0
  9
$DIMEXO
 40
1.0
  9
$DIMDLI
 40
6.0
  9
$DIMRND
 40
0.0
  9
$DIMDLE
 40
0.0
  9
$DIMEXE
 40
0.5
  9
$DIMTP
 40
0.0
  9
$DIMTM
 40
0.0
  9
$DIMTXT
 40
2.0
  9
$DIMCEN
 40
0.09
  9
$DIMTSZ
 40
0.0
  9
$DIMTOL
 70
     0
  9
$DIMLIM
 70
     0
  9
$DIMTIH
 70
     0
  9
$DIMTOH
 70
     1
  9
$DIMSE1
 70
     0
  9
$DIMSE2
 70
     0
  9
$DIMTAD
 70
     0
  9
$DIMZIN
 70
     0
  9
$DIMBLK
  1

  9
$DIMASO
 70
     1
  9
$DIMSHO
 70
     1
  9
$DIMPOST
  1

  9
$DIMAPOST
  1

  9
$DIMALT
 70
     0
  9
$DIMALTD
 70
     2
  9
$DIMALTF
 40
25.399999999999999
  9
$DIMLFAC
 40
1.0
  9
$DIMTOFL
 70
     0
  9
$DIMTVP
 40
0.0
  9
$DIMTIX
 70
     0
  9
$DIMSOXD
 70
     0
  9
$DIMSAH
 70
     0
  9
$DIMBLK1
  1

  9
$DIMBLK2
  1

  9
$DIMSTYLE
  2
MECHTRONICS
  9
$DIMCLRD
 70
     7
  9
$DIMCLRE
 70
     7
  9
$DIMCLRT
 70
     0
  9
$DIMTFAC
 40
1.0
  9
$DIMGAP
 40
0.5
  9
$LUNITS
 70
     2
  9
$LUPREC
 70
    10
  9
$SKETCHINC
 40
0.1
  9
$FILLETRAD
 40
0.0
  9
$AUNITS
 70
     0
  9
$AUPREC
 70
     0
  9
$MENU
  1
acad
  9
$ELEVATION
 40
0.0
  9
$PELEVATION
 40
0.0
  9
$THICKNESS
 40
0.0
  9
$LIMCHECK
 70
     0
  9
$BLIPMODE
 70
     0
  9
$CHAMFERA
 40
0.0
  9
$CHAMFERB
 40
0.0
  9
$SKPOLY
 70
     0
  9
$TDCREATE
 40
2444972.083333333
  9
$TDUPDATE
 40
2454646.832853727
  9
$TDINDWG
 40
0.9715845833
  9
$TDUSRTIMER
 40
0.9715845833
  9
$USRTIMER
 70
     1
  9
$ANGBASE
 50
0.0
  9
$ANGDIR
 70
     0
  9
$PDMODE
 70
     0
  9
$PDSIZE
 40
0.0
  9
$PLINEWID
 40
0.0
  9
$COORDS
 70
     1
  9
$SPLFRAME
 70
     0
  9
$SPLINETYPE
 70
     6
  9
$SPLINESEGS
 70
     8
  9
$ATTDIA
 70
     0
  9
$ATTREQ
 70
     1
  9
$HANDLING
 70
     1
  9
$HANDSEED
  5
5136
  9
$SURFTAB1
 70
     6
  9
$SURFTAB2
 70
     6
  9
$SURFTYPE
 70
     6
  9
$SURFU
 70
     6
  9
$SURFV
 70
     6
  9
$UCSNAME
  2

  9
$UCSORG
 10
0.0
 20
0.0
 30
0.0
  9
$UCSXDIR
 10
1.0
 20
0.0
 30
0.0
  9
$UCSYDIR
 10
0.0
 20
1.0
 30
0.0
  9
$PUCSNAME
  2

  9
$PUCSORG
 10
0.0
 20
0.0
 30
0.0
  9
$PUCSXDIR
 10
1.0
 20
0.0
 30
0.0
  9
$PUCSYDIR
 10
0.0
 20
1.0
 30
0.0
  9
$USERI1
 70
     0
  9
$USERI2
 70
     0
  9
$USERI3
 70
     0
  9
$USERI4
 70
     0
  9
$USERI5
 70
     0
  9
$USERR1
 40
0.0
  9
$USERR2
 40
0.0
  9
$USERR3
 40
0.0
  9
$USERR4
 40
0.0
  9
$USERR5
 40
0.0
  9
$WORLDVIEW
 70
     1
  9
$SHADEDGE
 70
     3
  9
$SHADEDIF
 70
    70
  9
$TILEMODE
 70
     1
  9
$MAXACTVP
 70
    16
  9
$PLIMCHECK
 70
     0
  9
$PEXTMIN
 10
1.088750099572608
 20
0.7937499998122686
 30
0.0
  9
$PEXTMAX
 10
21.184573317709511
 20
7.1437499983104198
 30
0.0
  9
$PLIMMIN
 10
0.0
 20
0.0
  9
$PLIMMAX
 10
12.0
 20
9.0
  9
$UNITMODE
 70
     0
  9
$VISRETAIN
 70
     0
  9
$PLINEGEN
 70
     1
  9
$PSLTSCALE
 70
     0
  0
ENDSEC
  0
SECTION
  2
TABLES
  0
TABLE
  2
VPORT
 70
     2
  0
VPORT
  2
*ACTIVE
 70
     0
 10
0.0
 20
0.0
 11
1.0
 21
1.0
 12
1394.7915995865069
 22
5689.2297543914328
 13
0.0
 23
0.0
 14
1.0
 24
1.0
 15
0.0
 25
0.0
 16
0.0
 26
0.0
 36
1.0
 17
0.0
 27
0.0
 37
0.0
 40
202.72687917692571
 41
1.7423423423423421
 42
50.0
 43
0.0
 44
0.0
 50
0.0
 51
0.0
 71
     0
 72
   100
 73
     1
 74
     0
 75
     0
 76
     0
 77
     0
 78
     0
  0
ENDTAB
  0
TABLE
  2
LTYPE
 70
     1
  0
LTYPE
  2
CONTINUOUS
 70
     0
  3
Solid line
 72
    65
 73
     0
 40
0.0
  0
ENDTAB
  0
TABLE
  2
LAYER
 70
     6
  0
LAYER
  2
0
 70
     0
 62
   221
  6
CONTINUOUS
  0
LAYER
  2
50_DIMENSIONS
 70
     0
 62
     7
  6
CONTINUOUS
  0
LAYER
  2
10_OUTLINE
 70
     0
 62
     2
  6
CONTINUOUS
  0
LAYER
  2
62_TEXT
 70
     0
 62
     7
  6
CONTINUOUS
  0
LAYER
  2
01_FRAME
 70
     0
 62
     4
  6
CONTINUOUS
  0
LAYER
  2
DEFPOINTS
 70
     0
 62
     7
  6
CONTINUOUS
  0
ENDTAB
  0
TABLE
  2
STYLE
 70
     2
  0
STYLE
  2
STANDARD
 70
     0
 40
0.0
 41
1.0
 50
0.0
 71
     0
 42
1.3456087235615539
  3
txt
  4

  0
STYLE
  2
MECHTRONICS
 70
     0
 40
2.0
 41
1.0
 50
0.0
 71
     0
 42
2.0
  3
txt
  4

  0
ENDTAB
  0
TABLE
  2
VIEW
 70
     0
  0
ENDTAB
  0
TABLE
  2
UCS
 70
    16
  0
UCS
  2
AUDIT_D_000731094948-0
 70
     0
 10
0.0
 20
0.0
 30
1.0
 11
1.0
 21
0.0
 31
0.0
 12
0.0
 22
1.0
 32
0.0
  0
UCS
  2
AUDIT_D_000731094948-1
 70
     0
 10
0.0
 20
0.0
 30
1.0
 11
1.0
 21
0.0
 31
0.0
 12
0.0
 22
1.0
 32
0.0
  0
UCS
  2
AUDIT_D_000731094948-2
 70
     0
 10
0.0
 20
0.0
 30
1.0
 11
1.0
 21
0.0
 31
0.0
 12
0.0
 22
1.0
 32
0.0
  0
UCS
  2
AUDIT_D_000731094948-3
 70
     0
 10
0.0
 20
0.0
 30
1.0
 11
1.0
 21
0.0
 31
0.0
 12
0.0
 22
1.0
 32
0.0
  0
UCS
  2
AUDIT_D_000731094948-4
 70
     0
 10
0.0
 20
0.0
 30
1.0
 11
1.0
 21
0.0
 31
0.0
 12
0.0
 22
1.0
 32
0.0
  0
UCS
  2
AUDIT_D_000731094948-5
 70
     0
 10
0.0
 20
0.0
 30
1.0
 11
1.0
 21
0.0
 31
0.0
 12
0.0
 22
1.0
 32
0.0
  0
UCS
  2
AUDIT_D_000731094948-6
 70
     0
 10
0.0
 20
0.0
 30
1.0
 11
1.0
 21
0.0
 31
0.0
 12
0.0
 22
1.0
 32
0.0
  0
UCS
  2
AUDIT_D_000731094948-7
 70
     0
 10
0.0
 20
0.0
 30
1.0
 11
1.0
 21
0.0
 31
0.0
 12
0.0
 22
1.0
 32
0.0
  0
UCS
  2
AUDIT_D_000731094948-8
 70
     0
 10
0.0
 20
0.0
 30
1.0
 11
1.0
 21
0.0
 31
0.0
 12
0.0
 22
1.0
 32
0.0
  0
UCS
  2
AUDIT_D_000731094948-9
 70
     0
 10
0.0
 20
0.0
 30
1.0
 11
1.0
 21
0.0
 31
0.0
 12
0.0
 22
1.0
 32
0.0
  0
UCS
  2
AUDIT_D_000731094948-10
 70
     0
 10
0.0
 20
0.0
 30
1.0
 11
1.0
 21
0.0
 31
0.0
 12
0.0
 22
1.0
 32
0.0
  0
UCS
  2
AUDIT_D_000731094948-11
 70
     0
 10
0.0
 20
0.0
 30
1.0
 11
1.0
 21
0.0
 31
0.0
 12
0.0
 22
1.0
 32
0.0
  0
UCS
  2
AUDIT_D_000731094948-12
 70
     0
 10
0.0
 20
0.0
 30
1.0
 11
1.0
 21
0.0
 31
0.0
 12
0.0
 22
1.0
 32
0.0
  0
UCS
  2
AUDIT_D_000731094948-13
 70
     0
 10
0.0
 20
0.0
 30
1.0
 11
1.0
 21
0.0
 31
0.0
 12
0.0
 22
1.0
 32
0.0
  0
UCS
  2
AUDIT_D_000731094948-14
 70
     0
 10
0.0
 20
0.0
 30
1.0
 11
1.0
 21
0.0
 31
0.0
 12
0.0
 22
1.0
 32
0.0
  0
UCS
  2
CK_VIEW_1
 70
     0
 10
0.0
 20
0.0
 30
1.0
 11
1.0
 21
0.0
 31
0.0
 12
0.0
 22
1.0
 32
0.0
  0
ENDTAB
  0
TABLE
  2
APPID
 70
     3
  0
APPID
  2
ACAD
 70
     0
  0
APPID
  2
DCO15
 70
     0
  0
APPID
  2
ACAD_PSEXT
 70
     0
  0
ENDTAB
  0
TABLE
  2
DIMSTYLE
 70
     2
  0
DIMSTYLE
  2
STANDARD
 70
     0
  3

  4

  5

  6

  7

 40
1.0
 41
0.18
 42
0.0625
 43
0.38
 44
0.18
 45
0.0
 46
0.0
 47
0.0
 48
0.0
140
0.18
141
0.09
142
0.0
143
25.399999999999999
144
1.0
145
0.0
146
1.0
147
0.09
 71
     0
 72
     0
 73
     1
 74
     1
 75
     0
 76
     0
 77
     0
 78
     0
170
     0
171
     2
172
     0
173
     0
174
     0
175
     0
176
     0
177
     0
178
     0
  0
DIMSTYLE
  2
MECHTRONICS
 70
     0
  3

  4

  5

  6

  7

 40
1.0
 41
2.0
 42
1.0
 43
6.0
 44
0.5
 45
0.0
 46
0.0
 47
0.0
 48
0.0
140
2.0
141
0.09
142
0.0
143
25.399999999999999
144
1.0
145
0.0
146
1.0
147
0.5
 71
     0
 72
     0
 73
     0
 74
     1
 75
     0
 76
     0
 77
     0
 78
     0
170
     0
171
     2
172
     0
173
     0
174
     0
175
     0
176
     7
177
     7
178
     0
  0
ENDTAB
  0
ENDSEC
  0
SECTION
  2
BLOCKS
  0
BLOCK
  8
0
  2
$MODEL_SPACE
 70
     0
 10
0.0
 20
0.0
 30
0.0
  3
$MODEL_SPACE
  1

  0
ENDBLK
  5
E
  8
0
  0
BLOCK
 67
     1
  8
0
  2
$PAPER_SPACE
 70
     0
 10
0.0
 20
0.0
 30
0.0
  3
$PAPER_SPACE
  1

  0
ENDBLK
  5
10
 67
     1
  8
0
  0
BLOCK
  8
0
  2
_DOTSMALL
 70
     0
 10
0.0
 20
0.0
 30
0.0
  3
_DOTSMALL
  1

  0
POLYLINE
  5
1A9D
  8
0
 62
     0
 66
     1
 10
0.0
 20
0.0
 30
0.0
 70
     1
 40
0.5
 41
0.5
  0
VERTEX
  5
512B
  8
0
 62
     0
 10
-0.0625
 20
0.0
 30
0.0
 42
1.0
  0
VERTEX
  5
512C
  8
0
 62
     0
 10
0.0625
 20
0.0
 30
0.0
 42
1.0
  0
SEQEND
  5
512D
  8
0
 62
     0
  0
ENDBLK
  5
1A9F
  8
0
  0
BLOCK
  8
0
  2
*D1
 70
     1
 10
0.0
 20
0.0
 30
0.0
  3
*D1
  1

  0
LINE
  5
50FA
  8
50_DIMENSIONS
 62
     7
 10
1290.8816698013679
 20
5727.4645093073923
 30
0.0
 11
1290.8816698013679
 21
5771.9916258849316
 31
0.0
  0
LINE
  5
50FB
  8
50_DIMENSIONS
 62
     7
 10
1438.3816698013679
 20
5728.2425311122497
 30
0.0
 11
1438.3816698013679
 21
5771.9916258849316
 31
0.0
  0
LINE
  5
50FC
  8
50_DIMENSIONS
 62
     7
 10
1292.8816698013679
 20
5771.4916258849307
 30
0.0
 11
1357.6384910837689
 21
5771.4916258849307
 31
0.0
  0
LINE
  5
50FD
  8
50_DIMENSIONS
 62
     7
 10
1436.3816698013679
 20
5771.4916258849307
 30
0.0
 11
1371.6248485189669
 21
5771.4916258849307
 31
0.0
  0
SOLID
  5
50FE
  8
50_DIMENSIONS
 62
     7
 10
1292.8816698013679
 20
5771.8249592182638
 30
0.0
 11
1292.8816698013679
 21
5771.1582925515977
 31
0.0
 12
1290.8816698013679
 22
5771.4916258849307
 32
0.0
 13
1290.8816698013679
 23
5771.4916258849307
 33
0.0
  0
SOLID
  5
50FF
  8
50_DIMENSIONS
 62
     7
 10
1436.3816698013679
 20
5771.8249592182638
 30
0.0
 11
1436.3816698013679
 21
5771.1582925515977
 31
0.0
 12
1438.3816698013679
 22
5771.4916258849307
 32
0.0
 13
1438.3816698013679
 23
5771.4916258849307
 33
0.0
  0
INSERT
  5
5100
  8
0
  2
*U3
 10
0.0
 20
0.0
 30
0.0
  0
POINT
  5
5101
  8
DEFPOINTS
 62
     0
 10
1290.8816698013679
 20
5726.4645093073914
 30
0.0
  0
POINT
  5
5102
  8
DEFPOINTS
 62
     0
 10
1438.3816698013679
 20
5727.2425311122488
 30
0.0
  0
POINT
  5
5103
  8
DEFPOINTS
 62
     0
 10
1438.3816698013679
 20
5771.4916258849307
 30
0.0
  0
ENDBLK
  5
45E9
  8
0
  0
BLOCK
  8
0
  2
*D2
 70
     1
 10
0.0
 20
0.0
 30
0.0
  3
*D2
  1

  0
LINE
  5
5104
  8
50_DIMENSIONS
 62
     7
 10
1333.3781090748409
 20
5626.5485053034117
 30
0.0
 11
1264.4193132366649
 21
5626.5485053034117
 31
0.0
  0
LINE
  5
5105
  8
50_DIMENSIONS
 62
     7
 10
1333.3781090748409
 20
5754.2419634191083
 30
0.0
 11
1264.4193132366649
 21
5754.2419634191083
 31
0.0
  0
LINE
  5
5106
  8
50_DIMENSIONS
 62
     7
 10
1264.9193132366649
 20
5628.5485053034108
 30
0.0
 11
1264.9193132366649
 21
5683.4020556436608
 31
0.0
  0
LINE
  5
5107
  8
50_DIMENSIONS
 62
     7
 10
1264.9193132366649
 20
5752.2419634191083
 30
0.0
 11
1264.9193132366649
 21
5697.3884130788592
 31
0.0
  0
SOLID
  5
5108
  8
50_DIMENSIONS
 62
     7
 10
1264.5859799033319
 20
5628.5485053034108
 30
0.0
 11
1265.252646569998
 21
5628.5485053034108
 31
0.0
 12
1264.9193132366649
 22
5626.5485053034117
 32
0.0
 13
1264.9193132366649
 23
5626.5485053034117
 33
0.0
  0
SOLID
  5
5109
  8
50_DIMENSIONS
 62
     7
 10
1264.5859799033319
 20
5752.2419634191083
 30
0.0
 11
1265.252646569998
 21
5752.2419634191083
 31
0.0
 12
1264.9193132366649
 22
5754.2419634191083
 32
0.0
 13
1264.9193132366649
 23
5754.2419634191083
 33
0.0
  0
INSERT
  5
510A
  8
0
  2
*U4
 10
0.0
 20
0.0
 30
0.0
  0
POINT
  5
510B
  8
DEFPOINTS
 62
     0
 10
1334.3781090748409
 20
5626.5485053034117
 30
0.0
  0
POINT
  5
510C
  8
DEFPOINTS
 62
     0
 10
1334.3781090748409
 20
5754.2419634191083
 30
0.0
  0
POINT
  5
510D
  8
DEFPOINTS
 62
     0
 10
1264.9193132366649
 20
5754.2419634191083
 30
0.0
  0
ENDBLK
  5
45F6
  8
0
  0
BLOCK
  8
0
  2
*U3
 70
     1
 10
0.0
 20
0.0
 30
0.0
  3
*U3
  1

  0
TEXT
  5
512F
  8
50_DIMENSIONS
 62
     0
 10
1357.725121370263
 20
5770.765159309216
 30
0.0
 40
2.0
  1
147 [5.81"]
  7
MECHTRONICS
  0
ENDBLK
  5
5131
  8
0
  0
BLOCK
  8
0
  2
*U4
 70
     1
 10
0.0
 20
0.0
 30
0.0
  3
*U4
  1

  0
TEXT
  5
5133
  8
50_DIMENSIONS
 62
     0
 10
1265.6457798123811
 20
5683.4886859301541
 30
0.0
 40
2.0
  1
128 [5.03"]
 50
90.0
  7
MECHTRONICS
  0
ENDBLK
  5
5135
  8
0
  0
ENDSEC
  0
SECTION
  2
ENTITIES
  0
LINE
  5
2747
  8
01_FRAME
 62
     4
 10
1219.488329582475
 20
5785.8316941564781
 30
0.0
 11
1219.488329582475
 21
5592.4452906831239
 31
0.0
  0
LINE
  5
2748
  8
01_FRAME
 62
     4
 10
1489.121255655826
 20
5785.8316941564781
 30
0.0
 11
1219.488329582475
 21
5785.8316941564781
 31
0.0
  0
LINE
  5
274D
  8
01_FRAME
 62
     4
 10
1489.121255655826
 20
5592.4452906831239
 30
0.0
 11
1489.121255655826
 21
5785.8316941564781
 31
0.0
  0
LINE
  5
274E
  8
01_FRAME
 62
     4
 10
1219.488329582475
 20
5592.4452906831239
 30
0.0
 11
1489.121255655826
 21
5592.4452906831239
 31
0.0
  0
LINE
  5
3FC5
  8
01_FRAME
 62
     4
 10
1383.544702791331
 20
5613.4256896879788
 30
0.0
 11
1413.124820533664
 21
5613.4256896879788
 31
0.0
  0
LINE
  5
3FC6
  8
01_FRAME
 62
     4
 10
1383.5446552799251
 20
5592.4452906831229
 30
0.0
 11
1383.5446552799251
 21
5623.9712302574317
 31
0.0
  0
TEXT
  5
3FCF
  8
62_TEXT
 10
1471.320040651344
 20
5617.8233593151444
 30
0.0
 40
2.0
  1
14-07-06
  7
MECHTRONICS
  0
TEXT
  5
3FD0
  8
01_FRAME
 62
     8
 10
1480.3320038463139
 20
5600.9092814106361
 30
0.0
 40
1.399999999999999
  1
Revision
  7
MECHTRONICS
  0
TEXT
  5
3FD1
  8
62_TEXT
 10
1433.8265532471439
 20
5606.7694232988288
 30
0.0
 40
2.0
  1
STIFFENING CLOSURE - PROFILE CUT
  7
MECHTRONICS
 72
     1
 11
1459.8824877628331
 21
5606.7694232988288
 31
0.0
  0
LINE
  5
3FD2
  8
01_FRAME
 62
     8
 10
1413.124820533664
 20
5623.9712302574317
 30
0.0
 11
1489.121255655826
 21
5623.9712302574317
 31
0.0
  0
LINE
  5
3FD3
  8
01_FRAME
 62
     8
 10
1413.124820533664
 20
5620.4589717155905
 30
0.0
 11
1489.121255655826
 21
5620.4589717155905
 31
0.0
  0
LINE
  5
3FD4
  8
01_FRAME
 62
     4
 10
1429.388359028557
 20
5602.9820789783598
 30
0.0
 11
1489.1212081444189
 21
5602.9820789783598
 31
0.0
  0
LINE
  5
3FD5
  8
01_FRAME
 62
     4
 10
1383.5447027913319
 20
5609.0790319244315
 30
0.0
 11
1429.388359028557
 21
5609.0790319244297
 31
0.0
  0
LINE
  5
3FD6
  8
01_FRAME
 62
     8
 10
1417.8490358984179
 20
5616.9467005040387
 30
0.0
 11
1489.121255655826
 21
5616.9467005040387
 31
0.0
  0
TEXT
  5
3FD9
  8
01_FRAME
 62
     8
 10
1384.1495577991329
 20
5621.8653081895236
 30
0.0
 40
1.399999999999999
  1
Higher
  7
MECHTRONICS
  0
TEXT
  5
3FDA
  8
01_FRAME
 62
     8
 10
1436.155152066711
 20
5614.6326109517131
 30
0.0
 40
1.399999999999999
  1
Description of change
  7
MECHTRONICS
  0
LINE
  5
3FDB
  8
01_FRAME
 62
     4
 10
1429.388359028557
 20
5613.4256896879788
 30
0.0
 11
1429.388359028557
 21
5592.4452906831229
 31
0.0
  0
LINE
  5
3FDC
  8
01_FRAME
 62
     4
 10
1413.124820533664
 20
5613.4256896879788
 30
0.0
 11
1413.124820533664
 21
5623.9712302574317
 31
0.0
  0
LINE
  5
3FDF
  8
01_FRAME
 62
     8
 10
1417.8490358984179
 20
5613.4256896879788
 30
0.0
 11
1417.8490358984179
 21
5624.0134862494106
 31
0.0
  0
LINE
  5
3FE0
  8
01_FRAME
 62
     7
 10
1413.467592729146
 20
5615.6137812281258
 30
0.0
 11
1415.511476076221
 21
5619.1538910300042
 31
0.0
  0
LINE
  5
3FE1
  8
01_FRAME
 62
     7
 10
1413.467592729146
 20
5615.6137812281258
 30
0.0
 11
1417.555359423297
 21
5615.6137812281258
 31
0.0
  0
LINE
  5
3FE2
  8
01_FRAME
 62
     7
 10
1417.555359423297
 20
5615.6137812281258
 30
0.0
 11
1415.511476076221
 21
5619.1538910300042
 31
0.0
  0
TEXT
  5
3FE3
  8
01_FRAME
 62
     8
 10
1430.162275493889
 20
5610.3349062147236
 30
0.0
 40
1.399999999999999
  1
Title
  7
MECHTRONICS
  0
LINE
  5
3FE4
  8
01_FRAME
 62
     8
 10
1469.9770443630009
 20
5602.9820789783598
 30
0.0
 11
1469.9770443630009
 21
5592.4452906831229
 31
0.0
  0
LINE
  5
3FE6
  8
01_FRAME
 62
     8
 10
1479.54912625371
 20
5602.9820789783598
 30
0.0
 11
1479.54912625371
 21
5592.4452906831229
 31
0.0
  0
TEXT
  5
3FE7
  8
01_FRAME
 62
     8
 10
1470.759921955605
 20
5600.7075293452626
 30
0.0
 40
1.399999999999999
  1
Process
  7
MECHTRONICS
  0
TEXT
  5
3FE8
  8
01_FRAME
 62
     8
 10
1430.0479172398941
 20
5600.8940266770351
 30
0.0
 40
1.399999999999999
  1
Drawing Number
  7
MECHTRONICS
  0
TEXT
  5
3FE9
  8
62_TEXT
 10
1436.295139986672
 20
5594.7710330922018
 30
0.0
 40
4.0
  1
10 20 456
  7
MECHTRONICS
  0
TEXT
  5
3FEA
  8
62_TEXT
 10
1472.580981456668
 20
5594.7710330922018
 30
0.0
 40
4.0
  1
P
  7
MECHTRONICS
  0
LINE
  5
3FEB
  8
01_FRAME
 62
     8
 10
1470.393168824645
 20
5613.4256896879788
 30
0.0
 11
1470.393168824645
 21
5624.0047213054868
 31
0.0
  0
TEXT
  5
3FEC
  8
01_FRAME
 62
     8
 10
1471.8895200543241
 20
5614.6326109517131
 30
0.0
 40
1.399999999999999
  1
Date (d-m-y)
  7
MECHTRONICS
  0
TEXT
  5
3FED
  8
62_TEXT
 10
1482.153063347376
 20
5594.7710330922018
 30
0.0
 40
4.0
  1
A
  7
MECHTRONICS
  0
LINE
  5
3FEE
  8
01_FRAME
 62
     8
 10
1483.7849049816309
 20
5613.4256896879788
 30
0.0
 11
1483.7849049816309
 21
5624.0047213054868
 31
0.0
  0
TEXT
  5
3FEF
  8
01_FRAME
 62
     8
 10
1484.7218110344979
 20
5614.6326109517131
 30
0.0
 40
1.399999999999999
  1
Rev.
  7
MECHTRONICS
  0
TEXT
  5
3FF2
  8
01_FRAME
 62
     8
 10
1396.8580300588519
 20
5596.1982416342962
 30
0.0
 40
1.399999999999999
  1
www.mechmate.com
  7
MECHTRONICS
  0
TEXT
  5
3FF6
  8
62_TEXT
 10
1394.728240960872
 20
5620.8700414023424
 30
0.0
 40
2.0
  1
10 20 456 B
  7
MECHTRONICS
  0
TEXT
  5
3FF8
  8
01_FRAME
 62
     8
 10
1384.1495577991329
 20
5619.837675817339
 30
0.0
 40
1.399999999999999
  1
drawing/s:
  7
MECHTRONICS
  0
LINE
  5
3FF9
  8
01_FRAME
 62
     4
 10
1383.5446552799251
 20
5623.9712302574317
 30
0.0
 11
1413.124820533664
 21
5623.9712302574317
 31
0.0
  0
LINE
  5
3FFB
  8
01_FRAME
 62
     4
 10
1413.124820533664
 20
5613.4256896879788
 30
0.0
 11
1489.1212081444189
 21
5613.4256896879788
 31
0.0
  0
TEXT
  5
3FFC
  8
01_FRAME
 62
     8
 10
1384.3186192566641
 20
5611.3507109097636
 30
0.0
 40
1.399999999999999
  1
Material:
  7
MECHTRONICS
  0
TEXT
  5
3FFD
  8
62_TEXT
 10
1393.3759461241359
 20
5610.3318926641041
 30
0.0
 40
2.0
  1
3mm STEEL 300MPa
  7
MECHTRONICS
  0
TEXT
  5
3FFE
  8
01_FRAME
 62
     7
 10
1485.2846392138761
 20
5617.7761901786707
 30
0.0
 40
2.0
  1
A
  7
MECHTRONICS
  0
TEXT
  5
3FFF
  8
01_FRAME
 62
     7
 10
1455.423635083697
 20
5617.8233593151444
 30
0.0
 40
2.0
  1
First issue
  7
MECHTRONICS
  0
LINE
  5
45C6
  8
10_OUTLINE
 62
     2
 10
1290.8816698013679
 20
5654.3259594151277
 30
0.0
 11
1290.8816698013679
 21
5726.4645093073914
 31
0.0
  0
LINE
  5
45C7
  8
10_OUTLINE
 62
     2
 10
1438.3816698013679
 20
5727.2425311122488
 30
0.0
 11
1438.3816698013679
 21
5653.5479376102694
 31
0.0
  0
ARC
  5
45C8
  8
10_OUTLINE
 62
     2
 10
1348.3816698013679
 20
5690.39523436126
 30
0.0
 40
8.0
 50
90.0
 51
270.0
  0
ARC
  5
45C9
  8
10_OUTLINE
 62
     2
 10
1342.670135925787
 20
5714.2419634191092
 30
0.0
 40
40.0
 50
78.378679148946176
 51
117.25017903956009
  0
CIRCLE
  5
45CA
  8
10_OUTLINE
 62
     2
 10
1308.3816698013679
 20
5690.39523436126
 30
0.0
 40
6.0
  0
ARC
  5
45CB
  8
10_OUTLINE
 62
     2
 10
1300.8816698013679
 20
5726.4645093073914
 30
0.0
 40
10.0
 50
117.25017903956009
 51
180.0
  0
LINE
  5
45CC
  8
10_OUTLINE
 62
     2
 10
1296.3029028699491
 20
5735.3546664144251
 30
0.0
 11
1324.3550682001089
 21
5749.8025918472422
 31
0.0
  0
ARC
  5
45CD
  8
10_OUTLINE
 62
     2
 10
1380.3816698013679
 20
5690.39523436126
 30
0.0
 40
8.0
 50
270.0
 51
90.0
  0
LINE
  5
45CE
  8
10_OUTLINE
 62
     2
 10
1380.3816698013679
 20
5682.39523436126
 30
0.0
 11
1348.3816698013679
 21
5682.39523436126
 31
0.0
  0
LINE
  5
45CF
  8
10_OUTLINE
 62
     2
 10
1380.3816698013679
 20
5698.39523436126
 30
0.0
 11
1348.3816698013679
 21
5698.39523436126
 31
0.0
  0
ARC
  5
45D0
  8
10_OUTLINE
 62
     2
 10
1428.3816698013679
 20
5727.2425311122488
 30
0.0
 40
10.0
 50
0.0
 51
78.378679148946176
  0
LINE
  5
45D1
  8
10_OUTLINE
 62
     2
 10
1430.3960940596401
 20
5737.0375346807887
 30
0.0
 11
1350.7278329588739
 21
5753.4219776932632
 31
0.0
  0
ARC
  5
45D2
  8
10_OUTLINE
 62
     2
 10
1342.670135925787
 20
5666.5485053034117
 30
0.0
 40
40.0
 50
242.74982096043991
 51
281.62132085105378
  0
ARC
  5
45D3
  8
10_OUTLINE
 62
     2
 10
1300.8816698013679
 20
5654.3259594151277
 30
0.0
 40
10.0
 50
180.0
 51
242.74982096043991
  0
LINE
  5
45D4
  8
10_OUTLINE
 62
     2
 10
1296.3029028699491
 20
5645.435802308094
 30
0.0
 11
1324.3550682001089
 21
5630.9878768752769
 31
0.0
  0
ARC
  5
45D5
  8
10_OUTLINE
 62
     2
 10
1428.3816698013679
 20
5653.5479376102694
 30
0.0
 40
10.0
 50
281.62132085105378
 51
0.0
  0
LINE
  5
45D6
  8
10_OUTLINE
 62
     2
 10
1430.3960940596401
 20
5643.7529340417314
 30
0.0
 11
1350.7278329588739
 21
5627.3684910292559
 31
0.0
  0
LINE
  5
45D7
  8
0
 10
1290.8816698013679
 20
5715.39523436126
 30
0.0
 11
1306.7323858164391
 21
5715.39523436126
 31
0.0
  0
LINE
  5
45D8
  8
0
 10
1290.8816698013679
 20
5665.39523436126
 30
0.0
 11
1306.7323858164391
 21
5665.39523436126
 31
0.0
  0
LINE
  5
45D9
  8
0
 10
1438.3816698013679
 20
5665.39523436126
 30
0.0
 11
1422.530953786297
 21
5665.39523436126
 31
0.0
  0
LINE
  5
45DA
  8
0
 10
1438.3816698013679
 20
5715.39523436126
 30
0.0
 11
1422.530953786297
 21
5715.39523436126
 31
0.0
  0
DIMENSION
  5
45DB
  8
50_DIMENSIONS
 62
   255
  2
*D1
 10
1438.3816698013679
 20
5771.4916258849307
 30
0.0
 11
1364.6316698013679
 21
5771.4916258849307
 31
0.0
 70
     0
 13
1290.8816698013679
 23
5726.4645093073914
 33
0.0
 14
1438.3816698013679
 24
5727.2425311122488
 34
0.0
1001
ACAD
1000
DSTYLE
1002
{
1070
     3
1000
<>
1070
     4
1000
"
1070
   143
1040
0.03937
1070
   170
1070
     1
1002
}
  0
DIMENSION
  5
45DC
  8
50_DIMENSIONS
 62
   255
  2
*D2
 10
1264.9193132366649
 20
5754.2419634191083
 30
0.0
 11
1264.919313236664
 21
5690.39523436126
 31
0.0
 70
     0
 13
1334.3781090748409
 23
5626.5485053034117
 33
0.0
 14
1334.3781090748409
 24
5754.2419634191083
 34
0.0
 50
90.0
1001
ACAD
1000
DSTYLE
1002
{
1070
     3
1000
<>
1070
     4
1000
"
1070
   143
1040
0.03937
1070
   170
1070
     1
1002
}
  0
LINE
  5
464F
  8
50_DIMENSIONS
  6
CONTINUOUS
 62
   255
 10
1312.582212478052
 20
5723.9991336301337
 30
0.0
 11
1303.9783132091759
 21
5715.39523436126
 31
0.0
  0
SOLID
  5
4650
  8
50_DIMENSIONS
  6
CONTINUOUS
 62
   255
 10
1305.695572533627
 20
5717.7185852119874
 30
0.0
 11
1306.3016640599039
 21
5717.1124936857113
 31
0.0
 12
1303.9783132091759
 22
5715.39523436126
 32
0.0
 13
1303.9783132091759
 23
5715.39523436126
 33
0.0
  0
TEXT
  5
4651
  8
62_TEXT
 62
     7
 10
1313.3019808847141
 20
5725.2157533751279
 30
0.0
 40
2.0
  1
ENGRAVE BENDING MARKS BY LASER
  7
MECHTRONICS
  0
TEXT
  5
4652
  8
62_TEXT
 62
     7
 10
1411.4874756781301
 20
5628.4292738638896
 30
0.0
 40
2.0
  1
SUPPLY .dxf DRAWING TO CNC CUTTING COMPANY
  7
MECHTRONICS
  0
TEXT
  5
4CEF
  8
01_FRAME
 62
     8
 10
1414.027019243608
 20
5621.5919821180732
 30
0.0
 40
1.3999999999999999
  1
1:1
  7
MECHTRONICS
  0
LINE
  5
4CF0
  8
01_FRAME
 62
     7
 10
1411.2607584197319
 20
5599.3864897304811
 30
0.0
 11
1412.4448403574941
 21
5599.3864897304811
 31
0.0
  0
LINE
  5
4CF1
  8
01_FRAME
 62
     7
 10
1412.0552391999281
 20
5604.4449078839289
 30
0.0
 11
1411.2607584197319
 21
5599.3864897304811
 31
0.0
  0
LINE
  5
4CF2
  8
01_FRAME
 62
     7
 10
1410.2791162767071
 20
5600.9689257856744
 30
0.0
 11
1412.0552391999281
 21
5604.4449078839289
 31
0.0
  0
LINE
  5
4CF3
  8
01_FRAME
 62
     7
 10
1413.319533145595
 20
5605.4896229478854
 30
0.0
 11
1411.470837480158
 21
5605.4896229478854
 31
0.0
  0
LINE
  5
4CF4
  8
01_FRAME
 62
     7
 10
1395.1081752510599
 20
5601.8762339980049
 30
0.0
 11
1397.6304612712299
 21
5601.8762339980049
 31
0.0
  0
LINE
  5
4CF5
  8
01_FRAME
 62
     7
 10
1397.3997643795451
 20
5600.846010087952
 30
0.0
 11
1395.3542519311029
 21
5600.846010087952
 31
0.0
  0
LINE
  5
4CF6
  8
01_FRAME
 62
     7
 10
1394.815959172787
 20
5600.0618097759398
 30
0.0
 11
1396.8829096884999
 21
5600.0618097759398
 31
0.0
  0
LINE
  5
4CF7
  8
01_FRAME
 62
     7
 10
1396.9984630899589
 20
5604.1365760640483
 30
0.0
 11
1395.5080498478401
 21
5604.1365760640483
 31
0.0
  0
LINE
  5
4CF8
  8
01_FRAME
 62
     7
 10
1395.2113737874381
 20
5602.5374183831309
 30
0.0
 11
1396.7026223272139
 21
5602.5374183831309
 31
0.0
  0
LINE
  5
4CF9
  8
01_FRAME
 62
     7
 10
1396.5196470487001
 20
5603.3634125309682
 30
0.0
 11
1395.5681755739081
 21
5603.3634125309682
 31
0.0
  0
LINE
  5
4CFA
  8
01_FRAME
 62
     7
 10
1388.0297551753511
 20
5599.3864897304811
 30
0.0
 11
1388.751663180177
 21
5604.4679530645308
 31
0.0
  0
LINE
  5
4CFB
  8
01_FRAME
 62
     7
 10
1389.645454049609
 20
5605.4896229478854
 30
0.0
 11
1387.7700210703081
 21
5605.4896229478854
 31
0.0
  0
LINE
  5
4CFC
  8
01_FRAME
 62
     7
 10
1387.7700210703081
 20
5605.4896229478854
 30
0.0
 11
1386.9067871310069
 21
5599.3864897304811
 31
0.0
  0
LINE
  5
4CFD
  8
01_FRAME
 62
     7
 10
1386.9067871310069
 20
5599.3864897304811
 30
0.0
 11
1388.0297551753511
 21
5599.3864897304811
 31
0.0
  0
LINE
  5
4CFE
  8
01_FRAME
 62
     7
 10
1392.2580735651129
 20
5604.4449078839289
 30
0.0
 11
1391.463592784916
 21
5599.3864897304811
 31
0.0
  0
LINE
  5
4CFF
  8
01_FRAME
 62
     7
 10
1392.6476747226791
 20
5599.3864897304811
 30
0.0
 11
1393.52236751078
 21
5605.4896229478854
 31
0.0
  0
LINE
  5
4D00
  8
01_FRAME
 62
     7
 10
1391.463592784916
 20
5599.3864897304811
 30
0.0
 11
1392.6476747226791
 21
5599.3864897304811
 31
0.0
  0
LINE
  5
4D01
  8
01_FRAME
 62
     7
 10
1393.52236751078
 20
5605.4896229478854
 30
0.0
 11
1391.6736718453431
 21
5605.4896229478854
 31
0.0
  0
LINE
  5
4D02
  8
01_FRAME
 62
     7
 10
1390.4819506418919
 20
5600.9689257856744
 30
0.0
 11
1392.2580735651129
 21
5604.4449078839289
 31
0.0
  0
LINE
  5
4D03
  8
01_FRAME
 62
     7
 10
1388.751663180177
 20
5604.4679530645308
 30
0.0
 11
1389.4621123362031
 21
5600.9689257856744
 31
0.0
  0
LINE
  5
4D04
  8
01_FRAME
 62
     7
 10
1390.1992988392501
 20
5602.5744070214732
 30
0.0
 11
1389.645454049609
 21
5605.4896229478854
 31
0.0
  0
LINE
  5
4D05
  8
01_FRAME
 62
     7
 10
1391.6736718453431
 20
5605.4896229478854
 30
0.0
 11
1390.1992988392501
 21
5602.5744070214732
 31
0.0
  0
LINE
  5
4D06
  8
01_FRAME
 62
     7
 10
1389.4621123362031
 20
5600.9689257856744
 30
0.0
 11
1390.4819506418919
 21
5600.9689257856744
 31
0.0
  0
LINE
  5
4D07
  8
01_FRAME
 62
     7
 10
1394.262286659269
 20
5603.2293639695927
 30
0.0
 11
1393.9393110042811
 21
5601.1074101919539
 31
0.0
  0
LINE
  5
4D08
  8
01_FRAME
 62
     7
 10
1395.0091683666219
 20
5601.0843497792521
 30
0.0
 11
1395.1081752510599
 21
5601.8762339980049
 31
0.0
  0
LINE
  5
4D09
  8
01_FRAME
 62
     7
 10
1395.275415115025
 20
5603.0735900165546
 30
0.0
 11
1395.2113737874381
 21
5602.5374183831309
 31
0.0
  0
LINE
  5
4D0A
  8
01_FRAME
 62
     7
 10
1403.659393544759
 20
5603.2271036577977
 30
0.0
 11
1405.10524749208
 21
5603.2271036577977
 31
0.0
  0
LINE
  5
4D0B
  8
01_FRAME
 62
     7
 10
1401.485554316994
 20
5600.4000922439709
 30
0.0
 11
1401.531693682068
 21
5600.7998806363794
 31
0.0
  0
LINE
  5
4D0C
  8
01_FRAME
 62
     7
 10
1402.831185967043
 20
5605.7485593972406
 30
0.0
 11
1402.1199568272259
 21
5600.0438865607348
 31
0.0
  0
LINE
  5
4D0D
  8
01_FRAME
 62
     7
 10
1403.2101962212159
 20
5600.0438865607348
 30
0.0
 11
1403.659393544759
 21
5603.2271036577977
 31
0.0
  0
LINE
  5
4D0E
  8
01_FRAME
 62
     7
 10
1397.3536249813139
 20
5600.4000922439709
 30
0.0
 11
1397.3997643795451
 21
5600.846010087952
 31
0.0
  0
LINE
  5
4D0F
  8
01_FRAME
 62
     7
 10
1400.0552335686571
 20
5600.0618097759398
 30
0.0
 11
1401.01483902418
 21
5600.0618097759398
 31
0.0
  0
LINE
  5
4D10
  8
01_FRAME
 62
     7
 10
1399.2554843419421
 20
5600.0618097759398
 30
0.0
 11
1400.0552335686571
 21
5600.0618097759398
 31
0.0
  0
LINE
  5
4D11
  8
01_FRAME
 62
     7
 10
1402.1199568272259
 20
5600.0438865607348
 30
0.0
 11
1403.2101962212159
 21
5600.0438865607348
 31
0.0
  0
LINE
  5
4D12
  8
01_FRAME
 62
     7
 10
1402.1199568272259
 20
5600.0438865607348
 30
0.0
 11
1402.1199568272259
 21
5600.0438865607348
 31
0.0
  0
LINE
  5
4D13
  8
01_FRAME
 62
     7
 10
1401.4701981967801
 20
5604.1365760640483
 30
0.0
 11
1399.9475750169941
 21
5604.1365760640483
 31
0.0
  0
LINE
  5
4D14
  8
01_FRAME
 62
     7
 10
1400.009094203582
 20
5603.3677522579983
 30
0.0
 11
1401.947934722564
 21
5603.3677522579983
 31
0.0
  0
LINE
  5
4D15
  8
01_FRAME
 62
     7
 10
1401.5391710694721
 20
5600.846010087952
 30
0.0
 11
1400.0552335686571
 21
5600.846010087952
 31
0.0
  0
LINE
  5
4D16
  8
01_FRAME
 62
     7
 10
1397.6304612712299
 20
5601.8762339980049
 30
0.0
 11
1397.8465714436279
 21
5603.3269465505409
 31
0.0
  0
LINE
  5
4D17
  8
01_FRAME
 62
     7
 10
1397.6304612712299
 20
5601.8762339980049
 30
0.0
 11
1397.6304612712299
 21
5601.8762339980049
 31
0.0
  0
LINE
  5
4D18
  8
01_FRAME
 62
     7
 10
1396.7026223272139
 20
5602.5374183831309
 30
0.0
 11
1396.7851929703629
 21
5603.1375009263302
 31
0.0
  0
LINE
  5
4D19
  8
01_FRAME
 62
     7
 10
1398.7018118284241
 20
5603.2293639695927
 30
0.0
 11
1398.4557351483811
 21
5601.5687044755841
 31
0.0
  0
LINE
  5
4D1A
  8
01_FRAME
 62
     7
 10
1399.448159558784
 20
5601.0843497792521
 30
0.0
 11
1399.7168781253099
 21
5603.0755991752276
 31
0.0
  0
LINE
  5
4D1B
  8
01_FRAME
 62
     7
 10
1398.4557351483811
 20
5601.5687044755841
 30
0.0
 11
1398.3788361734339
 21
5601.1074101919539
 31
0.0
  0
LINE
  5
4D1C
  8
01_FRAME
 62
     7
 10
1400.0552335686571
 20
5600.846010087952
 30
0.0
 11
1399.793243123265
 21
5600.846010087952
 31
0.0
  0
LINE
  5
4D1D
  8
01_FRAME
 62
     7
 10
1401.947934722564
 20
5603.3677522579983
 30
0.0
 11
1401.991024654335
 21
5603.6335823953668
 31
0.0
  0
LINE
  5
4D1E
  8
01_FRAME
 62
     7
 10
1401.531693682068
 20
5600.7998806363794
 30
0.0
 11
1401.5391710694721
 21
5600.846010087952
 31
0.0
  0
LINE
  5
4D1F
  8
01_FRAME
 62
     7
 10
1403.7526695260881
 20
5603.7060854906276
 30
0.0
 11
1403.996291537416
 21
5605.7485593972406
 31
0.0
  0
LINE
  5
4D20
  8
01_FRAME
 62
     7
 10
1403.996291537416
 20
5605.7485593972406
 30
0.0
 11
1402.831185967043
 21
5605.7485593972406
 31
0.0
  0
LINE
  5
4D21
  8
01_FRAME
 62
     7
 10
1405.8398722995839
 20
5600.0438865607348
 30
0.0
 11
1406.246650605884
 21
5603.2616909773724
 31
0.0
  0
LINE
  5
4D22
  8
01_FRAME
 62
     7
 10
1405.10524749208
 20
5603.2271036577977
 30
0.0
 11
1404.7028415370651
 21
5600.0438865607348
 31
0.0
  0
LINE
  5
4D23
  8
01_FRAME
 62
     7
 10
1407.8269208101669
 20
5599.3864897304811
 30
0.0
 11
1408.548828814992
 21
5604.4679530645308
 31
0.0
  0
LINE
  5
4D24
  8
01_FRAME
 62
     7
 10
1407.567186705123
 20
5605.4896229478854
 30
0.0
 11
1406.703952765821
 21
5599.3864897304811
 31
0.0
  0
LINE
  5
4D25
  8
01_FRAME
 62
     7
 10
1404.7028415370651
 20
5600.0438865607348
 30
0.0
 11
1405.8398722995839
 21
5600.0438865607348
 31
0.0
  0
LINE
  5
4D26
  8
01_FRAME
 62
     7
 10
1406.703952765821
 20
5599.3864897304811
 30
0.0
 11
1407.8269208101669
 21
5599.3864897304811
 31
0.0
  0
LINE
  5
4D27
  8
01_FRAME
 62
     7
 10
1409.4426196844249
 20
5605.4896229478854
 30
0.0
 11
1407.567186705123
 21
5605.4896229478854
 31
0.0
  0
LINE
  5
4D28
  8
01_FRAME
 62
     7
 10
1408.548828814992
 20
5604.4679530645308
 30
0.0
 11
1409.2592779710189
 21
5600.9689257856744
 31
0.0
  0
LINE
  5
4D29
  8
01_FRAME
 62
     7
 10
1409.9964644740651
 20
5602.5744070214732
 30
0.0
 11
1409.4426196844249
 21
5605.4896229478854
 31
0.0
  0
LINE
  5
4D2A
  8
01_FRAME
 62
     7
 10
1411.470837480158
 20
5605.4896229478854
 30
0.0
 11
1409.9964644740651
 21
5602.5744070214732
 31
0.0
  0
LINE
  5
4D2B
  8
01_FRAME
 62
     7
 10
1409.2592779710189
 20
5600.9689257856744
 30
0.0
 11
1410.2791162767071
 21
5600.9689257856744
 31
0.0
  0
LINE
  5
4D2C
  8
01_FRAME
 62
     7
 10
1420.2062787280349
 20
5605.3337308948567
 30
0.0
 11
1419.169711986922
 21
5605.2157044610703
 31
0.0
  0
LINE
  5
4D2D
  8
01_FRAME
 62
     7
 10
1419.614209278521
 20
5601.0821393996839
 30
0.0
 11
1419.9448222596341
 21
5603.4116712968435
 31
0.0
  0
LINE
  5
4D2E
  8
01_FRAME
 62
     7
 10
1419.4219092896781
 20
5600.0595993963698
 30
0.0
 11
1420.4891732934309
 21
5600.0595993963698
 31
0.0
  0
LINE
  5
4D2F
  8
01_FRAME
 62
     7
 10
1417.190179383128
 20
5600.0757447127098
 30
0.0
 11
1417.1500588378519
 21
5600.5303463176824
 31
0.0
  0
ARC
  5
4D30
  8
01_FRAME
 62
     7
 10
1418.1461870303301
 20
5600.6182589114987
 30
0.0
 40
1.0
 50
171.34562025558941
 51
185.0435314678453
  0
LINE
  5
4D31
  8
01_FRAME
 62
     7
 10
1412.4448403574941
 20
5599.3864897304811
 30
0.0
 11
1413.319533145595
 21
5605.4896229478854
 31
0.0
  0
LINE
  5
4D32
  8
01_FRAME
 62
     7
 10
1414.5448550229371
 20
5600.0603682067467
 30
0.0
 11
1415.529161776263
 21
5600.0603682067467
 31
0.0
  0
LINE
  5
4D33
  8
01_FRAME
 62
     7
 10
1416.128973688011
 20
5600.0757447127098
 30
0.0
 11
1417.190179383128
 21
5600.0757447127098
 31
0.0
  0
LINE
  5
4D34
  8
01_FRAME
 62
     7
 10
1419.4219092896769
 20
5600.0595993963698
 30
0.0
 11
1419.4988082646239
 21
5600.0595993963698
 31
0.0
  0
LINE
  5
4D35
  8
01_FRAME
 62
     7
 10
1416.313531214621
 20
5602.520604485574
 30
0.0
 11
1414.8370711012101
 21
5602.520604485574
 31
0.0
  0
LINE
  5
4D36
  8
01_FRAME
 62
     7
 10
1414.0527016628521
 20
5603.3663106888062
 30
0.0
 11
1416.1306988319809
 21
5603.3663106888062
 31
0.0
  0
LINE
  5
4D37
  8
01_FRAME
 62
     7
 10
1416.7009630449261
 20
5604.1505110008156
 30
0.0
 11
1414.5756146328099
 21
5604.1505110008156
 31
0.0
  0
LINE
  5
4D38
  8
01_FRAME
 62
     7
 10
1414.0988410610821
 20
5603.8122285327863
 30
0.0
 11
1414.0527016628521
 21
5603.3663106888062
 31
0.0
  0
LINE
  5
4D39
  8
01_FRAME
 62
     7
 10
1414.9292904498091
 20
5600.7189446112161
 30
0.0
 11
1415.6703403344191
 21
5600.704453490468
 31
0.0
  0
LINE
  5
4D3A
  8
01_FRAME
 62
     7
 10
1415.9182989834619
 20
5601.8106093613451
 30
0.0
 11
1415.1305632694359
 21
5601.8106093613451
 31
0.0
  0
LINE
  5
4D3B
  8
01_FRAME
 62
     7
 10
1418.2783764750211
 20
5604.1651186632434
 30
0.0
 11
1418.1453864912351
 21
5603.4116712968435
 31
0.0
  0
LINE
  5
4D3C
  8
01_FRAME
 62
     7
 10
1417.1575730194279
 20
5600.7687326216565
 30
0.0
 11
1417.5490713985951
 21
5603.3408814873101
 31
0.0
  0
LINE
  5
4D3D
  8
01_FRAME
 62
     7
 10
1416.068311604972
 20
5601.09088348758
 30
0.0
 11
1416.1576368045139
 21
5601.5846977567062
 31
0.0
  0
LINE
  5
4D3E
  8
01_FRAME
 62
     7
 10
1416.3904301564121
 20
5603.0741576391911
 30
0.0
 11
1416.313531214621
 21
5602.520604485574
 31
0.0
  0
LINE
  5
4D3F
  8
01_FRAME
 62
     7
 10
1416.3962447536439
 20
5603.1403990841682
 30
0.0
 11
1416.3904301564121
 21
5603.0741576391911
 31
0.0
  0
LINE
  5
4D40
  8
01_FRAME
 62
     7
 10
1418.8989963528761
 20
5603.4116712968435
 30
0.0
 11
1418.5452611211711
 21
5601.1051998123839
 31
0.0
  0
LINE
  5
4D41
  8
01_FRAME
 62
     7
 10
1418.1453864912351
 20
5603.4116712968435
 30
0.0
 11
1418.8989963528761
 21
5603.4116712968435
 31
0.0
  0
LINE
  5
4D42
  8
01_FRAME
 62
     7
 10
1419.169711986922
 20
5605.2157044610703
 30
0.0
 11
1419.0066549045389
 21
5604.1651186632434
 31
0.0
  0
LINE
  5
4D43
  8
01_FRAME
 62
     7
 10
1419.0066549045389
 20
5604.1651186632434
 30
0.0
 11
1418.2783764750211
 21
5604.1651186632434
 31
0.0
  0
LINE
  5
4D44
  8
01_FRAME
 62
     7
 10
1420.9598885862461
 20
5600.3978818644018
 30
0.0
 11
1421.0060279547511
 21
5600.8437997083811
 31
0.0
  0
LINE
  5
4D45
  8
01_FRAME
 62
     7
 10
1421.3290036097401
 20
5603.4116712968435
 30
0.0
 11
1421.421282373045
 21
5604.1651186632434
 31
0.0
  0
LINE
  5
4D46
  8
01_FRAME
 62
     7
 10
1421.0060279547511
 20
5600.8437997083811
 30
0.0
 11
1419.9592928430041
 21
5600.8437997083811
 31
0.0
  0
LINE
  5
4D47
  8
01_FRAME
 62
     7
 10
1419.9448222596341
 20
5603.4116712968435
 30
0.0
 11
1421.3290036097401
 21
5603.4116712968435
 31
0.0
  0
LINE
  5
4D48
  8
01_FRAME
 62
     7
 10
1420.0371010229401
 20
5604.1651186632434
 30
0.0
 11
1420.2062787280349
 21
5605.3337308948567
 31
0.0
  0
LINE
  5
4D49
  8
01_FRAME
 62
     7
 10
1421.421282373045
 20
5604.1651186632434
 30
0.0
 11
1420.0371010229401
 21
5604.1651186632434
 31
0.0
  0
ARC
  5
4D4A
  8
01_FRAME
 62
     7
 10
1395.6280595237911
 20
5603.0229085427191
 30
0.0
 40
0.356267723523487
 50
129.9788673075646
 51
171.82154662074871
  0
ARC
  5
4D4B
  8
01_FRAME
 62
     7
 10
1395.576695235954
 20
5603.0967244144531
 30
0.0
 40
0.2668241670683093
 50
91.829758024394408
 51
131.71149876918361
  0
ARC
  5
4D4C
  8
01_FRAME
 62
     7
 10
1400.068978153467
 20
5603.0272482697501
 30
0.0
 40
0.356267723523487
 50
129.9788673075646
 51
171.82154662074871
  0
ARC
  5
4D4D
  8
01_FRAME
 62
     7
 10
1400.0176138656291
 20
5603.1010641414823
 30
0.0
 40
0.2668241670683093
 50
91.829758024394408
 51
131.71149876918361
  0
ARC
  5
4D4E
  8
01_FRAME
 62
     7
 10
1396.532751099006
 20
5603.089771437154
 30
0.0
 40
0.2739546757357922
 50
41.694258406644231
 51
92.74167022804761
  0
ARC
  5
4D4F
  8
01_FRAME
 62
     7
 10
1396.5956362028801
 20
5603.1457887178167
 30
0.0
 40
0.1897378601816721
 50
357.49651121804118
 51
41.69425840668103
  0
ARC
  5
4D50
  8
01_FRAME
 62
     7
 10
1416.143802882287
 20
5603.092669594992
 30
0.0
 40
0.2739546757357922
 50
41.694258406644231
 51
92.74167022804761
  0
ARC
  5
4D51
  8
01_FRAME
 62
     7
 10
1416.206687986162
 20
5603.1486868756547
 30
0.0
 40
0.1897378601816721
 50
357.49651121804118
 51
41.69425840668103
  0
ARC
  5
4D52
  8
01_FRAME
 62
     7
 10
1395.3520758260399
 20
5601.3443596849929
 30
0.0
 40
0.4983543481347475
 50
242.0549458700896
 51
270.25018750738548
  0
ARC
  5
4D53
  8
01_FRAME
 62
     7
 10
1395.2149912946879
 20
5601.0859436396613
 30
0.0
 40
0.2058290992756684
 50
180.44368064352511
 51
242.0549458700896
  0
ARC
  5
4D54
  8
01_FRAME
 62
     7
 10
1399.7910670182009
 20
5601.3443596849929
 30
0.0
 40
0.4983543481347475
 50
242.0549458700896
 51
270.25018750738548
  0
ARC
  5
4D55
  8
01_FRAME
 62
     7
 10
1399.653982486851
 20
5601.0859436396613
 30
0.0
 40
0.2058290992756684
 50
180.44368064352511
 51
242.0549458700896
  0
ARC
  5
4D56
  8
01_FRAME
 62
     7
 10
1395.2362998580129
 20
5603.0746379286147
 30
0.0
 40
0.9862260689533767
 50
116.4343118930764
 51
170.97374799137759
  0
ARC
  5
4D57
  8
01_FRAME
 62
     7
 10
1395.5623143105511
 20
5602.4188724150708
 30
0.0
 40
1.7185605772340431
 50
91.809445418565659
 51
116.4343118930764
  0
ARC
  5
4D58
  8
01_FRAME
 62
     7
 10
1399.6758250271671
 20
5603.0746379286147
 30
0.0
 40
0.9862260689533767
 50
116.4343118930764
 51
170.97374799137759
  0
ARC
  5
4D59
  8
01_FRAME
 62
     7
 10
1400.001839479705
 20
5602.4188724150708
 30
0.0
 40
1.7185605772340431
 50
91.809445418565659
 51
116.4343118930764
  0
ARC
  5
4D5A
  8
01_FRAME
 62
     7
 10
1396.899207778878
 20
5603.0346538945432
 30
0.0
 40
1.1063833352066721
 50
44.532575507597819
 51
84.852989749608284
  0
ARC
  5
4D5B
  8
01_FRAME
 62
     7
 10
1397.279420551964
 20
5603.4087131075421
 30
0.0
 40
0.5730147500357465
 50
351.79615361501862
 51
44.532575507597819
  0
ARC
  5
4D5C
  8
01_FRAME
 62
     7
 10
1394.8311205775269
 20
5600.9503397236103
 30
0.0
 40
0.8886592913478247
 50
213.378140144387
 51
269.02243001409983
  0
ARC
  5
4D5D
  8
01_FRAME
 62
     7
 10
1394.8860032353921
 20
5600.9864981332021
 30
0.0
 40
0.954382473852452
 50
172.72155707448491
 51
213.378140144387
  0
ARC
  5
4D5E
  8
01_FRAME
 62
     7
 10
1396.8798805490439
 20
5600.6182823834888
 30
0.0
 40
0.5564808519953198
 50
269.68811547988628
 51
309.85159843335532
  0
ARC
  5
4D5F
  8
01_FRAME
 62
     7
 10
1397.021062311946
 20
5600.4491407350188
 30
0.0
 40
0.3361602051582644
 50
309.85159843335532
 51
351.61013221801829
  0
ARC
  5
4D60
  8
01_FRAME
 62
     7
 10
1399.2706457466811
 20
5600.9503397236103
 30
0.0
 40
0.8886592913478247
 50
213.378140144387
 51
269.02243001409983
  0
ARC
  5
4D61
  8
01_FRAME
 62
     7
 10
1399.325528404546
 20
5600.9864981332021
 30
0.0
 40
0.954382473852452
 50
172.72155707448491
 51
213.378140144387
  0
ARC
  5
4D62
  8
01_FRAME
 62
     7
 10
1401.011809884724
 20
5600.6182823834888
 30
0.0
 40
0.5564808519953198
 50
269.68811547988628
 51
309.85159843335532
  0
ARC
  5
4D63
  8
01_FRAME
 62
     7
 10
1401.152991647624
 20
5600.4491407350188
 30
0.0
 40
0.3361602051582644
 50
309.85159843335532
 51
351.61013221801829
  0
ARC
  5
4D64
  8
01_FRAME
 62
     7
 10
1401.4854038563331
 20
5603.6150473633688
 30
0.0
 40
0.5217503212408174
 50
29.017138568443521
 51
91.670039206039846
  0
ARC
  5
4D65
  8
01_FRAME
 62
     7
 10
1401.585893279607
 20
5603.670788861461
 30
0.0
 40
0.4068362716240224
 50
354.75278767927108
 51
29.017138568443521
  0
LINE
  5
4D66
  8
01_FRAME
 62
     7
 10
1422.94555637146
 20
5601.8762339980049
 30
0.0
 11
1425.46784239163
 21
5601.8762339980049
 31
0.0
  0
LINE
  5
4D67
  8
01_FRAME
 62
     7
 10
1425.237145499945
 20
5600.846010087952
 30
0.0
 11
1423.191633051503
 21
5600.846010087952
 31
0.0
  0
LINE
  5
4D68
  8
01_FRAME
 62
     7
 10
1422.6533402931871
 20
5600.0618097759398
 30
0.0
 11
1424.7202908089
 21
5600.0618097759398
 31
0.0
  0
LINE
  5
4D69
  8
01_FRAME
 62
     7
 10
1424.835844210359
 20
5604.1365760640483
 30
0.0
 11
1423.34543096824
 21
5604.1365760640483
 31
0.0
  0
LINE
  5
4D6A
  8
01_FRAME
 62
     7
 10
1423.048754907838
 20
5602.5374183831309
 30
0.0
 11
1424.540003447614
 21
5602.5374183831309
 31
0.0
  0
LINE
  5
4D6B
  8
01_FRAME
 62
     7
 10
1424.3570281691
 20
5603.3634125309682
 30
0.0
 11
1423.405556694308
 21
5603.3634125309682
 31
0.0
  0
LINE
  5
4D6C
  8
01_FRAME
 62
     7
 10
1422.09966777967
 20
5603.2293639695927
 30
0.0
 11
1421.7766921246809
 21
5601.1074101919539
 31
0.0
  0
LINE
  5
4D6D
  8
01_FRAME
 62
     7
 10
1422.846549487022
 20
5601.0843497792521
 30
0.0
 11
1422.94555637146
 21
5601.8762339980049
 31
0.0
  0
LINE
  5
4D6E
  8
01_FRAME
 62
     7
 10
1423.1127962354251
 20
5603.0735900165546
 30
0.0
 11
1423.048754907838
 21
5602.5374183831309
 31
0.0
  0
LINE
  5
4D6F
  8
01_FRAME
 62
     7
 10
1425.1910061017149
 20
5600.4000922439709
 30
0.0
 11
1425.237145499945
 21
5600.846010087952
 31
0.0
  0
LINE
  5
4D70
  8
01_FRAME
 62
     7
 10
1425.46784239163
 20
5601.8762339980049
 30
0.0
 11
1425.683952564028
 21
5603.3269465505409
 31
0.0
  0
LINE
  5
4D71
  8
01_FRAME
 62
     7
 10
1425.46784239163
 20
5601.8762339980049
 30
0.0
 11
1425.46784239163
 21
5601.8762339980049
 31
0.0
  0
LINE
  5
4D72
  8
01_FRAME
 62
     7
 10
1424.540003447614
 20
5602.5374183831309
 30
0.0
 11
1424.622574090763
 21
5603.1375009263302
 31
0.0
  0
ARC
  5
4D73
  8
01_FRAME
 62
     7
 10
1423.4654406441921
 20
5603.0229085427191
 30
0.0
 40
0.356267723523487
 50
129.9788673075646
 51
171.82154662074871
  0
ARC
  5
4D74
  8
01_FRAME
 62
     7
 10
1423.4140763563539
 20
5603.0967244144531
 30
0.0
 40
0.2668241670683093
 50
91.829758024394408
 51
131.71149876918361
  0
ARC
  5
4D75
  8
01_FRAME
 62
     7
 10
1424.3701322194061
 20
5603.089771437154
 30
0.0
 40
0.2739546757357922
 50
41.694258406644231
 51
92.74167022804761
  0
ARC
  5
4D76
  8
01_FRAME
 62
     7
 10
1424.4330173232811
 20
5603.1457887178167
 30
0.0
 40
0.1897378601816721
 50
357.49651121804118
 51
41.69425840668103
  0
ARC
  5
4D77
  8
01_FRAME
 62
     7
 10
1423.18945694644
 20
5601.3443596849929
 30
0.0
 40
0.4983543481347475
 50
242.0549458700896
 51
270.25018750738548
  0
ARC
  5
4D78
  8
01_FRAME
 62
     7
 10
1423.052372415088
 20
5601.0859436396613
 30
0.0
 40
0.2058290992756684
 50
180.44368064352511
 51
242.0549458700896
  0
ARC
  5
4D79
  8
01_FRAME
 62
     7
 10
1423.073680978413
 20
5603.0746379286147
 30
0.0
 40
0.9862260689533767
 50
116.4343118930764
 51
170.97374799137759
  0
ARC
  5
4D7A
  8
01_FRAME
 62
     7
 10
1423.3996954309509
 20
5602.4188724150708
 30
0.0
 40
1.7185605772340431
 50
91.809445418565659
 51
116.4343118930764
  0
ARC
  5
4D7B
  8
01_FRAME
 62
     7
 10
1424.7365888992781
 20
5603.0346538945432
 30
0.0
 40
1.1063833352066721
 50
44.532575507597819
 51
84.852989749608284
  0
ARC
  5
4D7C
  8
01_FRAME
 62
     7
 10
1425.1168016723641
 20
5603.4087131075421
 30
0.0
 40
0.5730147500357465
 50
351.79615361501862
 51
44.532575507597819
  0
ARC
  5
4D7D
  8
01_FRAME
 62
     7
 10
1422.668501697927
 20
5600.9503397236103
 30
0.0
 40
0.8886592913478247
 50
213.378140144387
 51
269.02243001409983
  0
ARC
  5
4D7E
  8
01_FRAME
 62
     7
 10
1422.7233843557919
 20
5600.9864981332021
 30
0.0
 40
0.954382473852452
 50
172.72155707448491
 51
213.378140144387
  0
ARC
  5
4D7F
  8
01_FRAME
 62
     7
 10
1424.717261669445
 20
5600.6182823834888
 30
0.0
 40
0.5564808519953198
 50
269.68811547988628
 51
309.85159843335532
  0
ARC
  5
4D80
  8
01_FRAME
 62
     7
 10
1424.8584434323459
 20
5600.4491407350188
 30
0.0
 40
0.3361602051582644
 50
309.85159843335532
 51
351.61013221801829
  0
LINE
  5
4D81
  8
01_FRAME
 62
     7
 10
1404.9224451330731
 20
5604.1365760640483
 30
0.0
 11
1405.5602394494711
 21
5604.1365760640483
 31
0.0
  0
ARC
  5
4D82
  8
01_FRAME
 62
     7
 10
1405.3743219863891
 20
5603.320208158676
 30
0.0
 40
0.8742891288908129
 50
356.16225827570821
 51
57.030568872306567
  0
ARC
  5
4D83
  8
01_FRAME
 62
     7
 10
1405.5697554571709
 20
5603.6215011125651
 30
0.0
 40
0.515162848085838
 50
57.030568872306567
 51
91.058418890025422
  0
ARC
  5
4D84
  8
01_FRAME
 62
     7
 10
1404.9996554976301
 20
5601.8496986641503
 30
0.0
 40
2.2881804305072628
 50
91.933705877925576
 51
118.1284095955113
  0
ARC
  5
4D85
  8
01_FRAME
 62
     7
 10
1404.1239271858151
 20
5603.4878366079838
 30
0.0
 40
0.4306562720799454
 50
118.1284095955113
 51
149.5502773796288
  0
ARC
  5
4D86
  8
01_FRAME
 62
     7
 10
1420.4861441539761
 20
5600.6160720039179
 30
0.0
 40
0.5564808519953198
 50
269.68811547988628
 51
309.85159843335532
  0
ARC
  5
4D87
  8
01_FRAME
 62
     7
 10
1420.6273259168761
 20
5600.4469303554497
 30
0.0
 40
0.3361602051582644
 50
309.85159843335532
 51
351.61013221801829
  0
ARC
  5
4D88
  8
01_FRAME
 62
     7
 10
1419.4370706944169
 20
5600.9481293440404
 30
0.0
 40
0.8886592913478247
 50
213.378140144387
 51
269.02243001409983
  0
ARC
  5
4D89
  8
01_FRAME
 62
     7
 10
1419.4919533522809
 20
5600.9842877536312
 30
0.0
 40
0.954382473852452
 50
172.72155707448491
 51
213.378140144387
  0
ARC
  5
4D8A
  8
01_FRAME
 62
     7
 10
1419.9571167379379
 20
5601.342149305422
 30
0.0
 40
0.4983543481347475
 50
242.0549458700896
 51
270.25018750738548
  0
ARC
  5
4D8B
  8
01_FRAME
 62
     7
 10
1419.820032206587
 20
5601.0837332600922
 30
0.0
 40
0.2058290992756684
 50
180.44368064352511
 51
242.0549458700896
  0
ARC
  5
4D8C
  8
01_FRAME
 62
     7
 10
1416.6017077338449
 20
5603.0485888313106
 30
0.0
 40
1.1063833352066721
 50
44.532575507597819
 51
84.852989749608284
  0
ARC
  5
4D8D
  8
01_FRAME
 62
     7
 10
1416.9819205069309
 20
5603.4226480443112
 30
0.0
 40
0.5730147500357465
 50
351.79615361501862
 51
44.532575507597819
  0
ARC
  5
4D8E
  8
01_FRAME
 62
     7
 10
1414.57428693873
 20
5603.5981611785019
 30
0.0
 40
0.5523514180140796
 50
89.862277278542265
 51
130.98420927748739
  0
ARC
  5
4D8F
  8
01_FRAME
 62
     7
 10
1414.4362803931519
 20
5603.7570079441848
 30
0.0
 40
0.3419277938878447
 50
130.98420927748739
 51
170.7061550554026
  0
ARC
  5
4D90
  8
01_FRAME
 62
     7
 10
1417.0734419109519
 20
5600.5700353300499
 30
0.0
 40
1.0659941081150781
 50
189.2518512240257
 51
207.625462433428
  0
ARC
  5
4D91
  8
01_FRAME
 62
     7
 10
1415.4016954157819
 20
5600.7729619323736
 30
0.0
 40
0.7239043381937801
 50
280.14161684226292
 51
328.86389698780192
  0
ARC
  5
4D92
  8
01_FRAME
 62
     7
 10
1414.863855533072
 20
5601.2539503719372
 30
0.0
 40
1.2669372712889659
 50
91.211385343645034
 51
150.30133372254059
  0
ARC
  5
4D93
  8
01_FRAME
 62
     7
 10
1415.382838040289
 20
5600.9579439871513
 30
0.0
 40
1.864400761915205
 50
150.30133372254059
 51
172.84077312506099
  0
ARC
  5
4D94
  8
01_FRAME
 62
     7
 10
1414.6902503600149
 20
5601.0449374746931
 30
0.0
 40
1.1663709905283439
 50
172.84077312506099
 51
205.63064895958601
  0
ARC
  5
4D95
  8
01_FRAME
 62
     7
 10
1414.2111242780411
 20
5600.8150635079637
 30
0.0
 40
0.634954164480408
 50
205.63064895958601
 51
237.5110165228015
  0
ARC
  5
4D96
  8
01_FRAME
 62
     7
 10
1414.631102382227
 20
5601.4745768800967
 30
0.0
 40
1.4168361862834209
 50
237.5110165228015
 51
266.5100646608708
  0
ARC
  5
4D97
  8
01_FRAME
 62
     7
 10
1415.905194933157
 20
5601.5369682675309
 30
0.0
 40
0.2739546757357922
 50
41.694258406644231
 51
92.74167022804761
  0
ARC
  5
4D98
  8
01_FRAME
 62
     7
 10
1415.9680800370311
 20
5601.5929855481936
 30
0.0
 40
0.1897378601816721
 50
357.49651121804118
 51
41.69425840668103
  0
ARC
  5
4D99
  8
01_FRAME
 62
     7
 10
1415.593611914715
 20
5601.1651098082457
 30
0.0
 40
0.4670026696925385
 50
279.4565576772809
 51
324.92940398283741
  0
ARC
  5
4D9A
  8
01_FRAME
 62
     7
 10
1415.44793370157
 20
5601.2673825219617
 30
0.0
 40
0.6449966295775496
 50
324.92940398283741
 51
344.11881738721661
  0
ARC
  5
4D9B
  8
01_FRAME
 62
     7
 10
1415.1247282838719
 20
5601.2920303991732
 30
0.0
 40
0.5186117883961751
 50
89.355342266111649
 51
126.25017530154049
  0
ARC
  5
4D9C
  8
01_FRAME
 62
     7
 10
1415.040230587115
 20
5601.4132608295449
 30
0.0
 40
0.3708987868957041
 50
126.7974170349802
 51
163.58374767656801
  0
ARC
  5
4D9D
  8
01_FRAME
 62
     7
 10
1411.0079293078311
 20
5602.4627209002128
 30
0.0
 40
3.7959401227298382
 50
343.74206189479008
 51
345.59022698623642
  0
ARC
  5
4D9E
  8
01_FRAME
 62
     7
 10
1415.7256199756939
 20
5601.108089304641
 30
0.0
 40
1.112526027892746
 50
164.78824619774861
 51
186.82014585813221
  0
ARC
  5
4D9F
  8
01_FRAME
 62
     7
 10
1414.8794610867469
 20
5600.9993676833628
 30
0.0
 40
0.2595511549401781
 50
185.171295796316
 51
236.50138254920921
  0
ARC
  5
4DA0
  8
01_FRAME
 62
     7
 10
1414.950790776679
 20
5601.1071407394757
 30
0.0
 40
0.3887910724951353
 50
236.50138254920921
 51
266.82989961253043
  0
ENDSEC
  0
EOF
