  0
SECTION
  2
HEADER
  9
$ACADVER
  1
AC1009
  9
$INSBASE
 10
0.0
 20
0.0
 30
0.0
  9
$EXTMIN
 10
2978.222366181004
 20
9186.9360852109767
 30
0.0
  9
$EXTMAX
 10
4326.3869965477561
 20
10153.868102577741
 30
0.0
  9
$LIMMIN
 10
0.0
 20
0.0
  9
$LIMMAX
 10
0.0
 20
0.0
  9
$ORTHOMODE
 70
     0
  9
$REGENMODE
 70
     1
  9
$FILLMODE
 70
     1
  9
$QTEXTMODE
 70
     0
  9
$MIRRTEXT
 70
     1
  9
$DRAGMODE
 70
     2
  9
$LTSCALE
 40
50.0
  9
$OSMODE
 70
    47
  9
$ATTMODE
 70
     1
  9
$TEXTSIZE
 40
10.0
  9
$TRACEWID
 40
0.05
  9
$TEXTSTYLE
  7
MECHTRONICS
  9
$CLAYER
  8
50_DIMENSIONS1
  9
$CELTYPE
  6
BYLAYER
  9
$CECOLOR
 62
   256
  9
$DIMSCALE
 40
5.0
  9
$DIMASZ
 40
2.0
  9
$DIMEXO
 40
1.0
  9
$DIMDLI
 40
6.0
  9
$DIMRND
 40
0.0
  9
$DIMDLE
 40
0.0
  9
$DIMEXE
 40
0.5
  9
$DIMTP
 40
0.0
  9
$DIMTM
 40
0.0
  9
$DIMTXT
 40
2.0
  9
$DIMCEN
 40
0.09
  9
$DIMTSZ
 40
0.0
  9
$DIMTOL
 70
     0
  9
$DIMLIM
 70
     0
  9
$DIMTIH
 70
     0
  9
$DIMTOH
 70
     1
  9
$DIMSE1
 70
     0
  9
$DIMSE2
 70
     0
  9
$DIMTAD
 70
     0
  9
$DIMZIN
 70
     0
  9
$DIMBLK
  1

  9
$DIMASO
 70
     1
  9
$DIMSHO
 70
     1
  9
$DIMPOST
  1

  9
$DIMAPOST
  1

  9
$DIMALT
 70
     0
  9
$DIMALTD
 70
     2
  9
$DIMALTF
 40
25.399999999999999
  9
$DIMLFAC
 40
1.0
  9
$DIMTOFL
 70
     0
  9
$DIMTVP
 40
0.0
  9
$DIMTIX
 70
     0
  9
$DIMSOXD
 70
     0
  9
$DIMSAH
 70
     0
  9
$DIMBLK1
  1

  9
$DIMBLK2
  1

  9
$DIMSTYLE
  2
MECHTRONICS
  9
$DIMCLRD
 70
     7
  9
$DIMCLRE
 70
     7
  9
$DIMCLRT
 70
     0
  9
$DIMTFAC
 40
1.0
  9
$DIMGAP
 40
0.5
  9
$LUNITS
 70
     2
  9
$LUPREC
 70
    10
  9
$SKETCHINC
 40
0.1
  9
$FILLETRAD
 40
0.0
  9
$AUNITS
 70
     0
  9
$AUPREC
 70
     0
  9
$MENU
  1
acad
  9
$ELEVATION
 40
0.0
  9
$PELEVATION
 40
0.0
  9
$THICKNESS
 40
0.0
  9
$LIMCHECK
 70
     0
  9
$BLIPMODE
 70
     0
  9
$CHAMFERA
 40
0.0
  9
$CHAMFERB
 40
0.0
  9
$SKPOLY
 70
     0
  9
$TDCREATE
 40
2444972.083333333
  9
$TDUPDATE
 40
2454646.8331432641
  9
$TDINDWG
 40
1.0978496180999999
  9
$TDUSRTIMER
 40
1.0978496180999999
  9
$USRTIMER
 70
     1
  9
$ANGBASE
 50
0.0
  9
$ANGDIR
 70
     0
  9
$PDMODE
 70
     0
  9
$PDSIZE
 40
0.0
  9
$PLINEWID
 40
0.0
  9
$COORDS
 70
     1
  9
$SPLFRAME
 70
     0
  9
$SPLINETYPE
 70
     6
  9
$SPLINESEGS
 70
     8
  9
$ATTDIA
 70
     0
  9
$ATTREQ
 70
     1
  9
$HANDLING
 70
     1
  9
$HANDSEED
  5
6039
  9
$SURFTAB1
 70
     6
  9
$SURFTAB2
 70
     6
  9
$SURFTYPE
 70
     6
  9
$SURFU
 70
     6
  9
$SURFV
 70
     6
  9
$UCSNAME
  2

  9
$UCSORG
 10
0.0
 20
0.0
 30
0.0
  9
$UCSXDIR
 10
1.0
 20
0.0
 30
0.0
  9
$UCSYDIR
 10
0.0
 20
1.0
 30
0.0
  9
$PUCSNAME
  2

  9
$PUCSORG
 10
0.0
 20
0.0
 30
0.0
  9
$PUCSXDIR
 10
1.0
 20
0.0
 30
0.0
  9
$PUCSYDIR
 10
0.0
 20
1.0
 30
0.0
  9
$USERI1
 70
     0
  9
$USERI2
 70
     0
  9
$USERI3
 70
     0
  9
$USERI4
 70
     0
  9
$USERI5
 70
     0
  9
$USERR1
 40
0.0
  9
$USERR2
 40
0.0
  9
$USERR3
 40
0.0
  9
$USERR4
 40
0.0
  9
$USERR5
 40
0.0
  9
$WORLDVIEW
 70
     1
  9
$SHADEDGE
 70
     3
  9
$SHADEDIF
 70
    70
  9
$TILEMODE
 70
     1
  9
$MAXACTVP
 70
    16
  9
$PLIMCHECK
 70
     0
  9
$PEXTMIN
 10
1.088750099572608
 20
0.7937499998122686
 30
0.0
  9
$PEXTMAX
 10
21.184573317709511
 20
7.1437499983104198
 30
0.0
  9
$PLIMMIN
 10
0.0
 20
0.0
  9
$PLIMMAX
 10
12.0
 20
9.0
  9
$UNITMODE
 70
     0
  9
$VISRETAIN
 70
     0
  9
$PLINEGEN
 70
     1
  9
$PSLTSCALE
 70
     0
  0
ENDSEC
  0
SECTION
  2
TABLES
  0
TABLE
  2
VPORT
 70
     2
  0
VPORT
  2
*ACTIVE
 70
     0
 10
0.0
 20
0.0
 11
1.0
 21
1.0
 12
3652.3618243568199
 22
9670.1805996257517
 13
0.0
 23
0.0
 14
1.0
 24
1.0
 15
0.0
 25
0.0
 16
0.0
 26
0.0
 36
1.0
 17
0.0
 27
0.0
 37
0.0
 40
978.69040692370527
 41
1.7423423423423421
 42
50.0
 43
0.0
 44
0.0
 50
0.0
 51
0.0
 71
     0
 72
   100
 73
     1
 74
     0
 75
     0
 76
     0
 77
     0
 78
     0
  0
ENDTAB
  0
TABLE
  2
LTYPE
 70
     1
  0
LTYPE
  2
CONTINUOUS
 70
     0
  3
Solid line
 72
    65
 73
     0
 40
0.0
  0
ENDTAB
  0
TABLE
  2
LAYER
 70
    12
  0
LAYER
  2
0
 70
     0
 62
   221
  6
CONTINUOUS
  0
LAYER
  2
50_DIMENSIONS1
 70
     0
 62
     7
  6
CONTINUOUS
  0
LAYER
  2
10_OUTLINE1
 70
     0
 62
     2
  6
CONTINUOUS
  0
LAYER
  2
DEFPOINTS
 70
     0
 62
     7
  6
CONTINUOUS
  0
LAYER
  2
50_DIMENSIONS
 70
     0
 62
     7
  6
CONTINUOUS
  0
LAYER
  2
10_OUTLINE
 70
     0
 62
     2
  6
CONTINUOUS
  0
LAYER
  2
62_TEXT
 70
     0
 62
     7
  6
CONTINUOUS
  0
LAYER
  2
01_FRAME
 70
     0
 62
     4
  6
CONTINUOUS
  0
LAYER
  2
01_FRAME1
 70
     0
 62
     4
  6
CONTINUOUS
  0
LAYER
  2
50_DIMENSIONS0
 70
     0
 62
     7
  6
CONTINUOUS
  0
LAYER
  2
10_OUTLINE0
 70
     0
 62
     2
  6
CONTINUOUS
  0
LAYER
  2
01_FRAME0
 70
     0
 62
     4
  6
CONTINUOUS
  0
ENDTAB
  0
TABLE
  2
STYLE
 70
     2
  0
STYLE
  2
STANDARD
 70
     0
 40
0.0
 41
1.0
 50
0.0
 71
     0
 42
1.3456087235615539
  3
txt
  4

  0
STYLE
  2
MECHTRONICS
 70
     0
 40
10.0
 41
1.0
 50
0.0
 71
     0
 42
10.0
  3
txt
  4

  0
ENDTAB
  0
TABLE
  2
VIEW
 70
     0
  0
ENDTAB
  0
TABLE
  2
UCS
 70
    16
  0
UCS
  2
AUDIT_D_000731094948-0
 70
     0
 10
0.0
 20
0.0
 30
1.0
 11
1.0
 21
0.0
 31
0.0
 12
0.0
 22
1.0
 32
0.0
  0
UCS
  2
AUDIT_D_000731094948-1
 70
     0
 10
0.0
 20
0.0
 30
1.0
 11
1.0
 21
0.0
 31
0.0
 12
0.0
 22
1.0
 32
0.0
  0
UCS
  2
AUDIT_D_000731094948-2
 70
     0
 10
0.0
 20
0.0
 30
1.0
 11
1.0
 21
0.0
 31
0.0
 12
0.0
 22
1.0
 32
0.0
  0
UCS
  2
AUDIT_D_000731094948-3
 70
     0
 10
0.0
 20
0.0
 30
1.0
 11
1.0
 21
0.0
 31
0.0
 12
0.0
 22
1.0
 32
0.0
  0
UCS
  2
AUDIT_D_000731094948-4
 70
     0
 10
0.0
 20
0.0
 30
1.0
 11
1.0
 21
0.0
 31
0.0
 12
0.0
 22
1.0
 32
0.0
  0
UCS
  2
AUDIT_D_000731094948-5
 70
     0
 10
0.0
 20
0.0
 30
1.0
 11
1.0
 21
0.0
 31
0.0
 12
0.0
 22
1.0
 32
0.0
  0
UCS
  2
AUDIT_D_000731094948-6
 70
     0
 10
0.0
 20
0.0
 30
1.0
 11
1.0
 21
0.0
 31
0.0
 12
0.0
 22
1.0
 32
0.0
  0
UCS
  2
AUDIT_D_000731094948-7
 70
     0
 10
0.0
 20
0.0
 30
1.0
 11
1.0
 21
0.0
 31
0.0
 12
0.0
 22
1.0
 32
0.0
  0
UCS
  2
AUDIT_D_000731094948-8
 70
     0
 10
0.0
 20
0.0
 30
1.0
 11
1.0
 21
0.0
 31
0.0
 12
0.0
 22
1.0
 32
0.0
  0
UCS
  2
AUDIT_D_000731094948-9
 70
     0
 10
0.0
 20
0.0
 30
1.0
 11
1.0
 21
0.0
 31
0.0
 12
0.0
 22
1.0
 32
0.0
  0
UCS
  2
AUDIT_D_000731094948-10
 70
     0
 10
0.0
 20
0.0
 30
1.0
 11
1.0
 21
0.0
 31
0.0
 12
0.0
 22
1.0
 32
0.0
  0
UCS
  2
AUDIT_D_000731094948-11
 70
     0
 10
0.0
 20
0.0
 30
1.0
 11
1.0
 21
0.0
 31
0.0
 12
0.0
 22
1.0
 32
0.0
  0
UCS
  2
AUDIT_D_000731094948-12
 70
     0
 10
0.0
 20
0.0
 30
1.0
 11
1.0
 21
0.0
 31
0.0
 12
0.0
 22
1.0
 32
0.0
  0
UCS
  2
AUDIT_D_000731094948-13
 70
     0
 10
0.0
 20
0.0
 30
1.0
 11
1.0
 21
0.0
 31
0.0
 12
0.0
 22
1.0
 32
0.0
  0
UCS
  2
AUDIT_D_000731094948-14
 70
     0
 10
0.0
 20
0.0
 30
1.0
 11
1.0
 21
0.0
 31
0.0
 12
0.0
 22
1.0
 32
0.0
  0
UCS
  2
CK_VIEW_1
 70
     0
 10
0.0
 20
0.0
 30
1.0
 11
1.0
 21
0.0
 31
0.0
 12
0.0
 22
1.0
 32
0.0
  0
ENDTAB
  0
TABLE
  2
APPID
 70
     3
  0
APPID
  2
ACAD
 70
     0
  0
APPID
  2
ACAD_PSEXT
 70
     0
  0
APPID
  2
DCO15
 70
     0
  0
ENDTAB
  0
TABLE
  2
DIMSTYLE
 70
     2
  0
DIMSTYLE
  2
STANDARD
 70
     0
  3

  4

  5

  6

  7

 40
1.0
 41
0.18
 42
0.0625
 43
0.38
 44
0.18
 45
0.0
 46
0.0
 47
0.0
 48
0.0
140
0.18
141
0.09
142
0.0
143
25.399999999999999
144
1.0
145
0.0
146
1.0
147
0.09
 71
     0
 72
     0
 73
     1
 74
     1
 75
     0
 76
     0
 77
     0
 78
     0
170
     0
171
     2
172
     0
173
     0
174
     0
175
     0
176
     0
177
     0
178
     0
  0
DIMSTYLE
  2
MECHTRONICS
 70
     0
  3

  4

  5

  6

  7

 40
5.0
 41
2.0
 42
1.0
 43
6.0
 44
0.5
 45
0.0
 46
0.0
 47
0.0
 48
0.0
140
2.0
141
0.09
142
0.0
143
25.399999999999999
144
1.0
145
0.0
146
1.0
147
0.5
 71
     0
 72
     0
 73
     0
 74
     1
 75
     0
 76
     0
 77
     0
 78
     0
170
     0
171
     2
172
     0
173
     0
174
     0
175
     0
176
     7
177
     7
178
     0
  0
ENDTAB
  0
ENDSEC
  0
SECTION
  2
BLOCKS
  0
BLOCK
  8
0
  2
$MODEL_SPACE
 70
     0
 10
0.0
 20
0.0
 30
0.0
  3
$MODEL_SPACE
  1

  0
ENDBLK
  5
E
  8
0
  0
BLOCK
 67
     1
  8
0
  2
$PAPER_SPACE
 70
     0
 10
0.0
 20
0.0
 30
0.0
  3
$PAPER_SPACE
  1

  0
ENDBLK
  5
10
 67
     1
  8
0
  0
BLOCK
  8
0
  2
_DOTSMALL
 70
     0
 10
0.0
 20
0.0
 30
0.0
  3
_DOTSMALL
  1

  0
POLYLINE
  5
1A9D
  8
0
 62
     0
 66
     1
 10
0.0
 20
0.0
 30
0.0
 70
     1
 40
0.5
 41
0.5
  0
VERTEX
  5
5FF2
  8
0
 62
     0
 10
-0.0625
 20
0.0
 30
0.0
 42
1.0
  0
VERTEX
  5
5FF3
  8
0
 62
     0
 10
0.0625
 20
0.0
 30
0.0
 42
1.0
  0
SEQEND
  5
5FF4
  8
0
 62
     0
  0
ENDBLK
  5
1A9F
  8
0
  0
BLOCK
  8
0
  2
*U17
 70
     1
 10
0.0
 20
0.0
 30
0.0
  3
*U17
  1

  0
TEXT
  5
5ADB
  8
62_TEXT
 10
616.88495287862975
 20
200.0967295524114
 30
0.0
 40
10.0
  1
V-roller
  7
MECHTRONICS
  0
ENDBLK
  5
5ADC
  8
0
  0
BLOCK
  8
0
  2
*U18
 70
     1
 10
0.0
 20
0.0
 30
0.0
  3
*U18
  1

  0
TEXT
  5
5ADF
  8
62_TEXT
 10
344.13429961853711
 20
307.22448390611879
 30
0.0
 40
10.0
  1
Attachment for limit 
  7
MECHTRONICS
  0
TEXT
  5
5AE0
  8
62_TEXT
 10
343.3225670128071
 20
290.38728517942468
 30
0.0
 40
10.0
  1
switches & stopper 
  7
MECHTRONICS
  0
TEXT
  5
5AE1
  8
62_TEXT
 10
343.39077983681813
 20
273.72061851275811
 30
0.0
 40
10.0
  1
blocks
  7
MECHTRONICS
  0
ENDBLK
  5
5AE2
  8
0
  0
BLOCK
  8
0
  2
*U19
 70
     1
 10
0.0
 20
0.0
 30
0.0
  3
*U19
  1

  0
TEXT
  5
5AE5
  8
62_TEXT
 10
44.122581027296327
 20
193.63370659537799
 30
0.0
 40
10.0
  1
V-roller
  7
MECHTRONICS
  0
ENDBLK
  5
5AE6
  8
0
  0
BLOCK
  8
0
  2
*U20
 70
     1
 10
0.0
 20
0.0
 30
0.0
  3
*U20
  1

  0
TEXT
  5
5AE9
  8
62_TEXT
 10
837.05474375614574
 20
538.45795399832275
 30
0.0
 40
10.0
  1
SUPPLY .dxf VERSION OF THIS DRAWING TO THE LASER 
  7
MECHTRONICS
  0
TEXT
  5
5AEA
  8
62_TEXT
 10
836.76824989529985
 20
521.62075527162881
 30
0.0
 40
10.0
  1
CUTTING CONTRACTOR FOR REMAINDER OF DIMENSIONS. 
  7
MECHTRONICS
  0
TEXT
  5
5AEB
  8
62_TEXT
 10
836.29758140962463
 20
504.78355654493481
 30
0.0
 40
10.0
  1
THE GIVEN DIMENSIONS ARE TO CHECK SCALE.
  7
MECHTRONICS
  0
ENDBLK
  5
5AEC
  8
0
  0
BLOCK
  8
0
  2
*U21
 70
     1
 10
0.0
 20
0.0
 30
0.0
  3
*U21
  1

  0
SOLID
  5
5AEF
  8
50_DIMENSIONS
 10
556.90038159514086
 20
230.3690675718197
 30
0.0
 11
553.0891988198008
 21
239.76335645553669
 31
0.0
 12
559.74116811011174
 22
232.1129262494282
 32
0.0
 13
559.74116811011174
 23
232.1129262494282
 33
0.0
  0
POLYLINE
  5
5AF0
  8
50_DIMENSIONS
 66
     1
 10
0.0
 20
0.0
 30
0.0
  0
VERTEX
  5
6015
  8
50_DIMENSIONS
 10
558.3207748526263
 20
231.24099691062389
 30
0.0
  0
VERTEX
  5
6016
  8
50_DIMENSIONS
 10
573.85431110155002
 20
205.93650356356599
 30
0.0
  0
VERTEX
  5
6017
  8
50_DIMENSIONS
 10
606.44179583619848
 20
205.93650356356599
 30
0.0
  0
SEQEND
  5
6018
  8
50_DIMENSIONS
  0
ENDBLK
  5
5AF1
  8
0
  0
BLOCK
  8
0
  2
*U22
 70
     1
 10
0.0
 20
0.0
 30
0.0
  3
*U22
  1

  0
SOLID
  5
5AF4
  8
50_DIMENSIONS
 10
466.99210163543802
 20
220.2280730872555
 30
0.0
 11
463.37475863617908
 21
229.6986911982076
 31
0.0
 12
469.86812140119252
 22
221.9131907146342
 32
0.0
 13
469.86812140119252
 23
221.9131907146342
 33
0.0
  0
POLYLINE
  5
5AF5
  8
50_DIMENSIONS
 66
     1
 10
0.0
 20
0.0
 30
0.0
  0
VERTEX
  5
6019
  8
50_DIMENSIONS
 10
468.4301115183153
 20
221.0706319009449
 30
0.0
  0
VERTEX
  5
601A
  8
50_DIMENSIONS
 10
489.66070810402852
 20
184.83600090117801
 30
0.0
  0
VERTEX
  5
601B
  8
50_DIMENSIONS
 10
522.24819283867726
 20
184.83600090117801
 30
0.0
  0
SEQEND
  5
601C
  8
50_DIMENSIONS
  0
ENDBLK
  5
5AF6
  8
0
  0
BLOCK
  8
0
  2
*U23
 70
     1
 10
0.0
 20
0.0
 30
0.0
  3
*U23
  1

  0
TEXT
  5
5AF9
  8
62_TEXT
 10
434.43496061990521
 20
156.13627180005179
 30
0.0
 40
10.0
  1
Motor plate stabiliser screw
  7
MECHTRONICS
  0
ENDBLK
  5
5AFA
  8
0
  0
BLOCK
  8
0
  2
*U24
 70
     1
 10
0.0
 20
0.0
 30
0.0
  3
*U24
  1

  0
SOLID
  5
5AFD
  8
50_DIMENSIONS
 10
373.1378592465561
 20
196.57984492683789
 30
0.0
 11
369.52051624729751
 21
206.05046303778991
 31
0.0
 12
376.01387901231038
 22
198.2649625542164
 32
0.0
 13
376.01387901231038
 23
198.2649625542164
 33
0.0
  0
POLYLINE
  5
5AFE
  8
50_DIMENSIONS
 66
     1
 10
0.0
 20
0.0
 30
0.0
  0
VERTEX
  5
601D
  8
50_DIMENSIONS
 10
374.57586912943322
 20
197.42240374052719
 30
0.0
  0
VERTEX
  5
601E
  8
50_DIMENSIONS
 10
395.80646571514671
 20
161.18777274076041
 30
0.0
  0
VERTEX
  5
601F
  8
50_DIMENSIONS
 10
428.39395044979523
 20
161.18777274076041
 30
0.0
  0
SEQEND
  5
6020
  8
50_DIMENSIONS
  0
ENDBLK
  5
5AFF
  8
0
  0
BLOCK
  8
0
  2
*U25
 70
     1
 10
0.0
 20
0.0
 30
0.0
  3
*U25
  1

  0
TEXT
  5
5B02
  8
62_TEXT
 10
193.11996574242539
 20
374.48071371964068
 30
0.0
 40
10.0
  1
Limit switch cable
  7
MECHTRONICS
  0
ENDBLK
  5
5B03
  8
0
  0
BLOCK
  8
0
  2
*U26
 70
     1
 10
0.0
 20
0.0
 30
0.0
  3
*U26
  1

  0
TEXT
  5
5B06
  8
62_TEXT
 10
134.499847443514
 20
278.2594553403078
 30
0.0
 40
10.0
  1
Motor swivel point
  7
MECHTRONICS
  0
ENDBLK
  5
5B07
  8
0
  0
BLOCK
  8
0
  2
*U28
 70
     1
 10
0.0
 20
0.0
 30
0.0
  3
*U28
  1

  0
TEXT
  5
5B17
  8
50_DIMENSIONS0
 62
     0
 10
2050.522091678316
 20
9681.3325326459235
 30
0.0
 40
10.0
  1
525 [20.67"]
  7
MECHTRONICS
  0
ENDBLK
  5
5B18
  8
0
  0
BLOCK
  8
0
  2
*U30
 70
     1
 10
0.0
 20
0.0
 30
0.0
  3
*U30
  1

  0
TEXT
  5
5B28
  8
50_DIMENSIONS0
 62
     0
 10
2500.425270588717
 20
9828.7801108229287
 30
0.0
 40
10.0
  1
264 [10.39"]
 50
90.0
  7
MECHTRONICS
  0
ENDBLK
  5
5B29
  8
0
  0
BLOCK
  8
0
  2
*U32
 70
     1
 10
0.0
 20
0.0
 30
0.0
  3
*U32
  1

  0
TEXT
  5
5B39
  8
50_DIMENSIONS0
 62
     0
 10
2424.7948294762359
 20
9750.4881599361615
 30
0.0
 40
10.0
  1
92 [3.61"]
 50
90.0
  7
MECHTRONICS
  0
ENDBLK
  5
5B3A
  8
0
  0
BLOCK
  8
0
  2
*U34
 70
     1
 10
0.0
 20
0.0
 30
0.0
  3
*U34
  1

  0
TEXT
  5
5B4A
  8
50_DIMENSIONS0
 62
     0
 10
2362.0837462025311
 20
9863.0943262431283
 30
0.0
 40
10.0
  1
50 [1.98"]
  7
MECHTRONICS
  0
ENDBLK
  5
5B4B
  8
0
  0
BLOCK
  8
0
  2
*U36
 70
     1
 10
0.0
 20
0.0
 30
0.0
  3
*U36
  1

  0
TEXT
  5
5B5B
  8
50_DIMENSIONS0
 62
     0
 10
2050.689213097141
 20
10020.9097814945
 30
0.0
 40
10.0
  1
424 [16.69"]
  7
MECHTRONICS
  0
ENDBLK
  5
5B5C
  8
0
  0
BLOCK
  8
0
  2
*U37
 70
     1
 10
0.0
 20
0.0
 30
0.0
  3
*U37
  1

  0
TEXT
  5
5B5F
  8
50_DIMENSIONS0
 10
1684.871150738385
 20
9853.7203036793107
 30
0.0
 40
10.0
  1
ENGRAVE BEND MARKS
  7
MECHTRONICS
  0
ENDBLK
  5
5B60
  8
0
  0
BLOCK
  8
0
  2
*U38
 70
     1
 10
0.0
 20
0.0
 30
0.0
  3
*U38
  1

  0
SOLID
  5
5B63
  8
50_DIMENSIONS0
 10
1897.9386437607629
 20
9842.101102410692
 30
0.0
 11
1903.8312002706509
 21
9833.8515232968512
 31
0.0
 12
1895.5816211568069
 22
9839.7440798067382
 32
0.0
 13
1895.5816211568069
 23
9839.7440798067382
 33
0.0
  0
POLYLINE
  5
5B64
  8
50_DIMENSIONS0
 66
     1
 10
0.0
 20
0.0
 30
0.0
  0
VERTEX
  5
6021
  8
50_DIMENSIONS0
 10
1896.7601324587849
 20
9840.922591108716
 30
0.0
  0
VERTEX
  5
6022
  8
50_DIMENSIONS0
 10
1879.111215265782
 20
9858.5715083017221
 30
0.0
  0
VERTEX
  5
6023
  8
50_DIMENSIONS0
 10
1860.293327420175
 20
9858.5715083017221
 30
0.0
  0
SEQEND
  5
6024
  8
50_DIMENSIONS0
  0
ENDBLK
  5
5B65
  8
0
  0
BLOCK
  8
0
  2
*D39
 70
     1
 10
0.0
 20
0.0
 30
0.0
  3
*D39
  1

  0
LINE
  5
5FD8
  8
50_DIMENSIONS1
 62
     7
 10
3321.7579950989161
 20
9847.8147210206116
 30
0.0
 11
3321.7579950989161
 21
9708.8061605789389
 31
0.0
  0
LINE
  5
5FD9
  8
50_DIMENSIONS1
 62
     7
 10
3846.658195098918
 20
9847.8147210206116
 30
0.0
 11
3846.658195098918
 21
9708.8061605789389
 31
0.0
  0
LINE
  5
5FDA
  8
50_DIMENSIONS1
 62
     7
 10
3331.7579950989161
 20
9711.3061605789408
 30
0.0
 11
3544.8083679502129
 21
9711.3061605789408
 31
0.0
  0
LINE
  5
5FDB
  8
50_DIMENSIONS1
 62
     7
 10
3836.6581950989171
 20
9711.3061605789408
 30
0.0
 11
3623.6078222476208
 21
9711.3061605789408
 31
0.0
  0
SOLID
  5
5FDC
  8
50_DIMENSIONS1
 62
     7
 10
3331.7579950989161
 20
9712.972827245605
 30
0.0
 11
3331.7579950989161
 21
9709.6394939122729
 31
0.0
 12
3321.7579950989161
 22
9711.3061605789408
 32
0.0
 13
3321.7579950989161
 23
9711.3061605789408
 33
0.0
  0
SOLID
  5
5FDD
  8
50_DIMENSIONS1
 62
     7
 10
3836.6581950989171
 20
9712.972827245605
 30
0.0
 11
3836.6581950989171
 21
9709.6394939122729
 31
0.0
 12
3846.658195098918
 22
9711.3061605789408
 32
0.0
 13
3846.658195098918
 23
9711.3061605789408
 33
0.0
  0
INSERT
  5
5FDE
  8
50_DIMENSIONS1
  2
*U53
 10
0.0
 20
0.0
 30
0.0
  0
POINT
  5
5FDF
  8
DEFPOINTS
 62
     0
 10
3321.7579950989161
 20
9852.8147210206116
 30
0.0
  0
POINT
  5
5FE0
  8
DEFPOINTS
 62
     0
 10
3846.658195098918
 20
9852.8147210206116
 30
0.0
  0
POINT
  5
5FE1
  8
DEFPOINTS
 62
     0
 10
3846.658195098918
 20
9711.3061605789408
 30
0.0
  0
ENDBLK
  5
5F49
  8
0
  0
BLOCK
  8
0
  2
*D40
 70
     1
 10
0.0
 20
0.0
 30
0.0
  3
*D40
  1

  0
LINE
  5
5FBA
  8
50_DIMENSIONS1
 62
     7
 10
3662.8434076450249
 20
9761.0147210206069
 30
0.0
 11
3995.1105918810808
 21
9761.0147210206069
 31
0.0
  0
LINE
  5
5FBB
  8
50_DIMENSIONS1
 62
     7
 10
3801.1581950989162
 20
10024.81472102061
 30
0.0
 11
3995.1105918810808
 21
10024.81472102061
 31
0.0
  0
LINE
  5
5FBC
  8
50_DIMENSIONS1
 62
     7
 10
3992.6105918810808
 20
9771.0147210206069
 30
0.0
 11
3992.6105918810808
 21
9853.4399597654938
 31
0.0
  0
LINE
  5
5FBD
  8
50_DIMENSIONS1
 62
     7
 10
3992.6105918810808
 20
10014.81472102061
 30
0.0
 11
3992.6105918810808
 21
9932.3894822757247
 31
0.0
  0
SOLID
  5
5FBE
  8
50_DIMENSIONS1
 62
     7
 10
3990.9439252144148
 20
9771.0147210206069
 30
0.0
 11
3994.2772585477478
 21
9771.0147210206069
 31
0.0
 12
3992.6105918810808
 22
9761.0147210206069
 32
0.0
 13
3992.6105918810808
 23
9761.0147210206069
 33
0.0
  0
SOLID
  5
5FBF
  8
50_DIMENSIONS1
 62
     7
 10
3990.9439252144148
 20
10014.81472102061
 30
0.0
 11
3994.2772585477478
 21
10014.81472102061
 31
0.0
 12
3992.6105918810808
 22
10024.81472102061
 32
0.0
 13
3992.6105918810808
 23
10024.81472102061
 33
0.0
  0
INSERT
  5
5FC0
  8
50_DIMENSIONS1
  2
*U50
 10
0.0
 20
0.0
 30
0.0
  0
POINT
  5
5FC1
  8
DEFPOINTS
 62
     0
 10
3657.8434076450249
 20
9761.0147210206069
 30
0.0
  0
POINT
  5
5FC2
  8
DEFPOINTS
 62
     0
 10
3796.1581950989171
 20
10024.81472102061
 30
0.0
  0
POINT
  5
5FC3
  8
DEFPOINTS
 62
     0
 10
3992.6105918810808
 20
10024.81472102061
 30
0.0
  0
ENDBLK
  5
5F56
  8
0
  0
BLOCK
  8
0
  2
*D41
 70
     1
 10
0.0
 20
0.0
 30
0.0
  3
*D41
  1

  0
LINE
  5
5FCE
  8
50_DIMENSIONS1
 62
     7
 10
3662.8434076450249
 20
9761.0147210206069
 30
0.0
 11
3919.4801507685979
 21
9761.0147210206069
 31
0.0
  0
LINE
  5
5FCF
  8
50_DIMENSIONS1
 62
     7
 10
3851.6581950989171
 20
9852.8147210206116
 30
0.0
 11
3919.4801507685979
 21
9852.8147210206116
 31
0.0
  0
LINE
  5
5FD0
  8
50_DIMENSIONS1
 62
     7
 10
3916.9801507685979
 20
9771.0147210206069
 30
0.0
 11
3916.9801507685979
 21
9775.2707919619497
 31
0.0
  0
LINE
  5
5FD1
  8
50_DIMENSIONS1
 62
     7
 10
3916.9801507685979
 20
9842.8147210206116
 30
0.0
 11
3916.9801507685979
 21
9838.5586500792724
 31
0.0
  0
SOLID
  5
5FD2
  8
50_DIMENSIONS1
 62
     7
 10
3915.3134841019319
 20
9771.0147210206069
 30
0.0
 11
3918.6468174352649
 21
9771.0147210206069
 31
0.0
 12
3916.9801507685979
 22
9761.0147210206069
 32
0.0
 13
3916.9801507685979
 23
9761.0147210206069
 33
0.0
  0
SOLID
  5
5FD3
  8
50_DIMENSIONS1
 62
     7
 10
3915.3134841019319
 20
9842.8147210206116
 30
0.0
 11
3918.6468174352649
 21
9842.8147210206116
 31
0.0
 12
3916.9801507685979
 22
9852.8147210206116
 32
0.0
 13
3916.9801507685979
 23
9852.8147210206116
 33
0.0
  0
INSERT
  5
5FD4
  8
50_DIMENSIONS1
  2
*U52
 10
0.0
 20
0.0
 30
0.0
  0
POINT
  5
5FD5
  8
DEFPOINTS
 62
     0
 10
3657.8434076450249
 20
9761.0147210206069
 30
0.0
  0
POINT
  5
5FD6
  8
DEFPOINTS
 62
     0
 10
3846.658195098918
 20
9852.8147210206116
 30
0.0
  0
POINT
  5
5FD7
  8
DEFPOINTS
 62
     0
 10
3916.9801507685979
 20
9852.8147210206116
 30
0.0
  0
ENDBLK
  5
5F63
  8
0
  0
BLOCK
  8
0
  2
*D42
 70
     1
 10
0.0
 20
0.0
 30
0.0
  3
*D42
  1

  0
LINE
  5
5FC4
  8
50_DIMENSIONS1
 62
     7
 10
3796.1581950989171
 20
9860.8147210206098
 30
0.0
 11
3796.1581950989171
 21
9895.5679541761438
 31
0.0
  0
LINE
  5
5FC5
  8
50_DIMENSIONS1
 62
     7
 10
3846.3700224744298
 20
9860.8147210206098
 30
0.0
 11
3846.3700224744298
 21
9895.5679541761438
 31
0.0
  0
LINE
  5
5FC6
  8
50_DIMENSIONS1
 62
     7
 10
3806.1581950989162
 20
9893.0679541761438
 30
0.0
 11
3836.3700224744289
 21
9893.0679541761438
 31
0.0
  0
LINE
  5
5FC7
  8
50_DIMENSIONS1
 62
     7
 10
3846.3700224744298
 20
9893.0679541761438
 30
0.0
 11
3856.3700224744289
 21
9893.0679541761438
 31
0.0
  0
SOLID
  5
5FC8
  8
50_DIMENSIONS1
 62
     7
 10
3806.1581950989162
 20
9894.7346208428116
 30
0.0
 11
3806.1581950989162
 21
9891.4012875094795
 31
0.0
 12
3796.1581950989171
 22
9893.0679541761438
 32
0.0
 13
3796.1581950989171
 23
9893.0679541761438
 33
0.0
  0
SOLID
  5
5FC9
  8
50_DIMENSIONS1
 62
     7
 10
3836.3700224744289
 20
9894.7346208428116
 30
0.0
 11
3836.3700224744289
 21
9891.4012875094795
 31
0.0
 12
3846.3700224744298
 22
9893.0679541761438
 32
0.0
 13
3846.3700224744298
 23
9893.0679541761438
 33
0.0
  0
INSERT
  5
5FCA
  8
50_DIMENSIONS1
  2
*U51
 10
0.0
 20
0.0
 30
0.0
  0
POINT
  5
5FCB
  8
DEFPOINTS
 62
     0
 10
3796.1581950989171
 20
9855.8147210206098
 30
0.0
  0
POINT
  5
5FCC
  8
DEFPOINTS
 62
     0
 10
3846.3700224744298
 20
9855.8147210206098
 30
0.0
  0
POINT
  5
5FCD
  8
DEFPOINTS
 62
     0
 10
3846.3700224744298
 20
9893.0679541761438
 30
0.0
  0
ENDBLK
  5
5F70
  8
0
  0
BLOCK
  8
0
  2
*D43
 70
     1
 10
0.0
 20
0.0
 30
0.0
  3
*D43
  1

  0
LINE
  5
5FB0
  8
50_DIMENSIONS1
 62
     7
 10
3372.2579950989179
 20
10029.81472102061
 30
0.0
 11
3372.2579950989179
 21
10053.38340942751
 31
0.0
  0
LINE
  5
5FB1
  8
50_DIMENSIONS1
 62
     7
 10
3796.1581950989171
 20
10029.81472102061
 30
0.0
 11
3796.1581950989171
 21
10053.38340942751
 31
0.0
  0
LINE
  5
5FB2
  8
50_DIMENSIONS1
 62
     7
 10
3382.2579950989179
 20
10050.88340942751
 30
0.0
 11
3544.6412465313861
 21
10050.88340942751
 31
0.0
  0
LINE
  5
5FB3
  8
50_DIMENSIONS1
 62
     7
 10
3786.1581950989162
 20
10050.88340942751
 30
0.0
 11
3623.7749436664471
 21
10050.88340942751
 31
0.0
  0
SOLID
  5
5FB4
  8
50_DIMENSIONS1
 62
     7
 10
3382.2579950989179
 20
10052.55007609418
 30
0.0
 11
3382.2579950989179
 21
10049.216742760849
 31
0.0
 12
3372.2579950989179
 22
10050.88340942751
 32
0.0
 13
3372.2579950989179
 23
10050.88340942751
 33
0.0
  0
SOLID
  5
5FB5
  8
50_DIMENSIONS1
 62
     7
 10
3786.1581950989162
 20
10052.55007609418
 30
0.0
 11
3786.1581950989162
 21
10049.216742760849
 31
0.0
 12
3796.1581950989171
 22
10050.88340942751
 32
0.0
 13
3796.1581950989171
 23
10050.88340942751
 33
0.0
  0
INSERT
  5
5FB6
  8
50_DIMENSIONS1
  2
*U49
 10
0.0
 20
0.0
 30
0.0
  0
POINT
  5
5FB7
  8
DEFPOINTS
 62
     0
 10
3372.2579950989179
 20
10024.81472102061
 30
0.0
  0
POINT
  5
5FB8
  8
DEFPOINTS
 62
     0
 10
3796.1581950989171
 20
10024.81472102061
 30
0.0
  0
POINT
  5
5FB9
  8
DEFPOINTS
 62
     0
 10
3796.1581950989171
 20
10050.88340942751
 30
0.0
  0
ENDBLK
  5
5F7D
  8
0
  0
BLOCK
  8
0
  2
*U44
 70
     1
 10
0.0
 20
0.0
 30
0.0
  3
*U44
  1

  0
TEXT
  5
6002
  8
50_DIMENSIONS1
 62
     0
 10
2050.522091678316
 20
9681.3325326459235
 30
0.0
 40
10.0
  1
525 [20.67"]
  7
MECHTRONICS
  0
ENDBLK
  5
6004
  8
0
  0
BLOCK
  8
0
  2
*U45
 70
     1
 10
0.0
 20
0.0
 30
0.0
  3
*U45
  1

  0
TEXT
  5
6006
  8
50_DIMENSIONS1
 62
     0
 10
2500.425270588717
 20
9828.7801108229269
 30
0.0
 40
10.0
  1
264 [10.39"]
 50
90.0
  7
MECHTRONICS
  0
ENDBLK
  5
6008
  8
0
  0
BLOCK
  8
0
  2
*U46
 70
     1
 10
0.0
 20
0.0
 30
0.0
  3
*U46
  1

  0
TEXT
  5
600A
  8
50_DIMENSIONS1
 62
     0
 10
2424.794829476235
 20
9750.4881599361615
 30
0.0
 40
10.0
  1
92 [3.61"]
 50
90.0
  7
MECHTRONICS
  0
ENDBLK
  5
600C
  8
0
  0
BLOCK
  8
0
  2
*U47
 70
     1
 10
0.0
 20
0.0
 30
0.0
  3
*U47
  1

  0
TEXT
  5
600E
  8
50_DIMENSIONS1
 62
     0
 10
2362.0837462025311
 20
9863.0943262431283
 30
0.0
 40
10.0
  1
50 [1.98"]
  7
MECHTRONICS
  0
ENDBLK
  5
6010
  8
0
  0
BLOCK
  8
0
  2
*U48
 70
     1
 10
0.0
 20
0.0
 30
0.0
  3
*U48
  1

  0
TEXT
  5
6012
  8
50_DIMENSIONS1
 62
     0
 10
2050.6892130971419
 20
10020.9097814945
 30
0.0
 40
10.0
  1
424 [16.69"]
  7
MECHTRONICS
  0
ENDBLK
  5
6014
  8
0
  0
BLOCK
  8
0
  2
*U49
 70
     1
 10
0.0
 20
0.0
 30
0.0
  3
*U49
  1

  0
TEXT
  5
6026
  8
50_DIMENSIONS1
 62
     0
 10
3546.5068672680841
 20
10047.25107654893
 30
0.0
 40
10.0
  1
424 [16.69"]
  7
MECHTRONICS
  0
ENDBLK
  5
6028
  8
0
  0
BLOCK
  8
0
  2
*U50
 70
     1
 10
0.0
 20
0.0
 30
0.0
  3
*U50
  1

  0
TEXT
  5
602A
  8
50_DIMENSIONS1
 62
     0
 10
3996.242924759661
 20
9855.1214058773621
 30
0.0
 40
10.0
  1
264 [10.39"]
 50
90.0
  7
MECHTRONICS
  0
ENDBLK
  5
602C
  8
0
  0
BLOCK
  8
0
  2
*U51
 70
     1
 10
0.0
 20
0.0
 30
0.0
  3
*U51
  1

  0
TEXT
  5
602E
  8
50_DIMENSIONS1
 62
     0
 10
3857.9014003734742
 20
9889.4356212975654
 30
0.0
 40
10.0
  1
50 [1.98"]
  7
MECHTRONICS
  0
ENDBLK
  5
6030
  8
0
  0
BLOCK
  8
0
  2
*U52
 70
     1
 10
0.0
 20
0.0
 30
0.0
  3
*U52
  1

  0
TEXT
  5
6032
  8
50_DIMENSIONS1
 62
     0
 10
3920.6124836471772
 20
9776.8294549905968
 30
0.0
 40
10.0
  1
92 [3.61"]
 50
90.0
  7
MECHTRONICS
  0
ENDBLK
  5
6034
  8
0
  0
BLOCK
  8
0
  2
*U53
 70
     1
 10
0.0
 20
0.0
 30
0.0
  3
*U53
  1

  0
TEXT
  5
6036
  8
50_DIMENSIONS1
 62
     0
 10
3546.3397458492582
 20
9707.6738277003587
 30
0.0
 40
10.0
  1
525 [20.67"]
  7
MECHTRONICS
  0
ENDBLK
  5
6038
  8
0
  0
ENDSEC
  0
SECTION
  2
ENTITIES
  0
LINE
  5
5D55
  8
01_FRAME
 62
     4
 10
2978.222366181004
 20
10153.868102577741
 30
0.0
 11
2978.222366181004
 21
9186.9360852109767
 31
0.0
  0
LINE
  5
5D56
  8
01_FRAME
 62
     4
 10
4326.3869965477561
 20
10153.868102577741
 30
0.0
 11
2978.222366181004
 21
10153.868102577741
 31
0.0
  0
LINE
  5
5D57
  8
01_FRAME
 62
     4
 10
4326.3869965477561
 20
9186.9360852109767
 30
0.0
 11
4326.3869965477561
 21
10153.868102577741
 31
0.0
  0
LINE
  5
5D58
  8
01_FRAME
 62
     4
 10
2978.222366181004
 20
9186.9360852109767
 30
0.0
 11
4326.3869965477561
 21
9186.9360852109767
 31
0.0
  0
LINE
  5
5D59
  8
01_FRAME
 62
     4
 10
3798.0869237270358
 20
9291.8380802352585
 30
0.0
 11
3945.9877499957302
 21
9291.8380802352585
 31
0.0
  0
LINE
  5
5D5A
  8
01_FRAME
 62
     4
 10
3798.0869237270358
 20
9186.9360852109767
 30
0.0
 11
3798.0869237270358
 21
9291.8380802352585
 31
0.0
  0
TEXT
  5
5D5B
  8
01_FRAME
 62
     8
 10
4282.0236665589809
 20
9229.2560388485399
 30
0.0
 40
7.0
  1
Revision
  7
MECHTRONICS
  0
TEXT
  5
5D5C
  8
62_TEXT
 10
4053.793516740971
 20
9258.5567482895094
 30
0.0
 40
10.0
  1
NEAR CARRIER PLATE - PROFILE CUT
  7
MECHTRONICS
 72
     1
 11
4183.6946081461547
 21
9258.5567482895094
 31
0.0
  0
LINE
  5
5D5D
  8
01_FRAME
 62
     8
 10
3945.9877499957302
 20
9344.5657830825239
 30
0.0
 11
4325.9699256065378
 21
9344.5657830825239
 31
0.0
  0
LINE
  5
5D5E
  8
01_FRAME
 62
     8
 10
3945.9877499957302
 20
9327.0044903733069
 30
0.0
 11
4325.9699256065378
 21
9327.0044903733069
 31
0.0
  0
LINE
  5
5D5F
  8
01_FRAME
 62
     4
 10
4027.3054424701959
 20
9239.6200266871601
 30
0.0
 11
4325.9696880495048
 21
9239.6200266871601
 31
0.0
  0
LINE
  5
5D60
  8
01_FRAME
 62
     4
 10
3798.0871612840692
 20
9270.1047914175106
 30
0.0
 11
4027.3054424701959
 21
9270.1047914175106
 31
0.0
  0
LINE
  5
5D61
  8
01_FRAME
 62
     8
 10
3969.6088268195008
 20
9309.4431343155502
 30
0.0
 11
4325.9699256065378
 21
9309.4431343155502
 31
0.0
  0
TEXT
  5
5D62
  8
01_FRAME
 62
     8
 10
3801.111436323074
 20
9334.0361727429736
 30
0.0
 40
7.0
  1
Higher
  7
MECHTRONICS
  0
TEXT
  5
5D63
  8
01_FRAME
 62
     8
 10
4061.1394076609631
 20
9297.8726865539284
 30
0.0
 40
7.0
  1
Description of change
  7
MECHTRONICS
  0
LINE
  5
5D64
  8
01_FRAME
 62
     4
 10
4027.3054424701959
 20
9291.8380802352585
 30
0.0
 11
4027.3054424701959
 21
9186.9360852109767
 31
0.0
  0
LINE
  5
5D65
  8
01_FRAME
 62
     8
 10
3945.9877499957302
 20
9291.8380802352585
 30
0.0
 11
3945.9877499957302
 21
9344.5657830825239
 31
0.0
  0
LINE
  5
5D66
  8
01_FRAME
 62
     8
 10
3969.6088268195008
 20
9291.8380802352585
 30
0.0
 11
3969.6088268195008
 21
9344.7770630424147
 31
0.0
  0
LINE
  5
5D67
  8
01_FRAME
 62
     7
 10
3947.701610973143
 20
9302.7785379359866
 30
0.0
 11
3957.9210277085181
 21
9320.4790869453791
 31
0.0
  0
LINE
  5
5D68
  8
01_FRAME
 62
     7
 10
3947.701610973143
 20
9302.7785379359866
 30
0.0
 11
3968.140444443894
 21
9302.7785379359866
 31
0.0
  0
LINE
  5
5D69
  8
01_FRAME
 62
     7
 10
3968.140444443894
 20
9302.7785379359866
 30
0.0
 11
3957.9210277085181
 21
9320.4790869453791
 31
0.0
  0
TEXT
  5
5D6A
  8
01_FRAME
 62
     8
 10
4031.1750247968562
 20
9276.3841628689788
 30
0.0
 40
7.0
  1
Title
  7
MECHTRONICS
  0
LINE
  5
5D6B
  8
01_FRAME
 62
     8
 10
4230.2488691424142
 20
9239.6200266871601
 30
0.0
 11
4230.2488691424142
 21
9186.9360852109767
 31
0.0
  0
LINE
  5
5D6C
  8
01_FRAME
 62
     8
 10
4278.1092785959609
 20
9239.6200266871601
 30
0.0
 11
4278.1092785959609
 21
9186.9360852109767
 31
0.0
  0
TEXT
  5
5D6D
  8
01_FRAME
 62
     8
 10
4234.1632571054342
 20
9228.247278521676
 30
0.0
 40
7.0
  1
Process
  7
MECHTRONICS
  0
TEXT
  5
5D6E
  8
01_FRAME
 62
     8
 10
4030.6032335268792
 20
9229.1797651805318
 30
0.0
 40
7.0
  1
Drawing Number
  7
MECHTRONICS
  0
TEXT
  5
5D6F
  8
62_TEXT
 10
4061.839347260769
 20
9198.5647972563711
 30
0.0
 40
20.0
  1
10 20 451
  7
MECHTRONICS
  0
TEXT
  5
5D70
  8
62_TEXT
 10
4243.2685546107477
 20
9198.5647972563711
 30
0.0
 40
20.0
  1
P
  7
MECHTRONICS
  0
LINE
  5
5D71
  8
01_FRAME
 62
     8
 10
4232.3294914506369
 20
9291.8380802352585
 30
0.0
 11
4232.3294914506369
 21
9344.7332383227913
 31
0.0
  0
TEXT
  5
5D72
  8
01_FRAME
 62
     8
 10
4239.5625002079232
 20
9297.8726865539284
 30
0.0
 40
7.0
  1
Date (d-m-y)
  7
MECHTRONICS
  0
TEXT
  5
5D73
  8
62_TEXT
 10
4291.1289640642926
 20
9198.5647972563711
 30
0.0
 40
20.0
  1
C
  7
MECHTRONICS
  0
LINE
  5
5D74
  8
01_FRAME
 62
     8
 10
4299.288172235566
 20
9291.8380802352585
 30
0.0
 11
4299.288172235566
 21
9344.7332383227913
 31
0.0
  0
TEXT
  5
5D75
  8
01_FRAME
 62
     8
 10
4303.9727024999011
 20
9297.8726865539284
 30
0.0
 40
7.0
  1
Rev.
  7
MECHTRONICS
  0
TEXT
  5
5D76
  8
01_FRAME
 62
     8
 10
3864.6537976216691
 20
9205.7008399668393
 30
0.0
 40
7.0
  1
www.mechmate.com
  7
MECHTRONICS
  0
TEXT
  5
5D77
  8
62_TEXT
 10
3854.0048521317722
 20
9329.059838807063
 30
0.0
 40
10.0
  1
10 20 451 B
  7
MECHTRONICS
  0
TEXT
  5
5D78
  8
01_FRAME
 62
     8
 10
3801.111436323074
 20
9323.8980108820542
 30
0.0
 40
7.0
  1
drawing/s:
  7
MECHTRONICS
  0
LINE
  5
5D79
  8
01_FRAME
 62
     8
 10
3798.0869237270358
 20
9344.5657830825239
 30
0.0
 11
3945.9877499957302
 21
9344.5657830825239
 31
0.0
  0
LINE
  5
5D7A
  8
01_FRAME
 62
     4
 10
3945.9877499957302
 20
9291.8380802352585
 30
0.0
 11
4325.9696880495048
 21
9291.8380802352585
 31
0.0
  0
TEXT
  5
5D7B
  8
01_FRAME
 62
     8
 10
3801.9567436107291
 20
9281.4631863441791
 30
0.0
 40
7.0
  1
Material:
  7
MECHTRONICS
  0
TEXT
  5
5D7C
  8
62_TEXT
 10
3841.2627241386008
 20
9276.3690951158806
 30
0.0
 40
10.0
  1
5mm [3/16"] STEEL 300MPa
  7
MECHTRONICS
  0
LINE
  5
5D7D
  8
10_OUTLINE
 62
     2
 10
3796.1581950989171
 20
9855.8147210206098
 30
0.0
 11
3796.1581950989171
 21
10024.81472102061
 31
0.0
  0
LINE
  5
5D7E
  8
10_OUTLINE
 62
     2
 10
3372.2579950989161
 20
9855.8147210206098
 30
0.0
 11
3372.2579950989179
 21
10024.81472102061
 31
0.0
  0
CIRCLE
  5
5D7F
  8
10_OUTLINE
 62
     2
 10
3346.7579950989152
 20
9822.8147210206098
 30
0.0
 40
6.0
  0
LINE
  5
5D80
  8
10_OUTLINE
 62
     2
 10
3321.7579950989161
 20
9852.8147210206116
 30
0.0
 11
3369.2579950989161
 21
9852.8147210206116
 31
0.0
  0
LINE
  5
5D81
  8
10_OUTLINE
 62
     2
 10
3321.7579950989161
 20
9805.3147210206062
 30
0.0
 11
3321.7579950989161
 21
9805.3147210206062
 31
0.0
  0
LINE
  5
5D82
  8
10_OUTLINE
 62
     2
 10
3321.7579950989161
 20
9852.8147210206116
 30
0.0
 11
3321.7579950989179
 21
9806.1368550703064
 31
0.0
  0
ARC
  5
5D83
  8
10_OUTLINE
 62
     2
 10
3799.1581950989148
 20
9855.8147210206098
 30
0.0
 40
3.0
 50
180.0
 51
270.0
  0
ARC
  5
5D84
  8
10_OUTLINE
 62
     2
 10
3369.2579950989161
 20
9855.8147210206098
 30
0.0
 40
3.0
 50
270.0
 51
0.0
  0
LINE
  5
5D85
  8
10_OUTLINE
 62
     2
 10
3846.658195098918
 20
9852.8147210206116
 30
0.0
 11
3799.1581950989148
 21
9852.8147210206116
 31
0.0
  0
LINE
  5
5D86
  8
10_OUTLINE
 62
     2
 10
3846.6581950989162
 20
9805.3147210206062
 30
0.0
 11
3846.6581950989162
 21
9805.3147210206062
 31
0.0
  0
ARC
  5
5D87
  8
10_OUTLINE
 62
     2
 10
3838.6581950989162
 20
9806.1368550703064
 30
0.0
 40
8.0
 50
280.63281578023339
 51
0.0
  0
LINE
  5
5D88
  8
10_OUTLINE
 62
     2
 10
3846.658195098918
 20
9852.8147210206116
 30
0.0
 11
3846.6581950989162
 21
9806.1368550703064
 31
0.0
  0
LINE
  5
5D89
  8
10_OUTLINE
 62
     2
 10
3482.401987361689
 20
9917.814721020608
 30
0.0
 11
3686.0142028361429
 21
9917.814721020608
 31
0.0
  0
LINE
  5
5D8A
  8
10_OUTLINE
 62
     2
 10
3394.6447464448652
 20
10019.81472102061
 30
0.0
 11
3439.1007171724682
 21
9942.8147210206098
 31
0.0
  0
ARC
  5
5D8B
  8
10_OUTLINE
 62
     2
 10
3482.401987361689
 20
9967.8147210206098
 30
0.0
 40
50.0
 50
209.9999999999973
 51
270.0
  0
LINE
  5
5D8C
  8
10_OUTLINE
 62
     2
 10
3372.2579950989179
 20
10024.81472102061
 30
0.0
 11
3385.9844924070212
 21
10024.81472102061
 31
0.0
  0
ARC
  5
5D8D
  8
10_OUTLINE
 62
     2
 10
3385.9844924070212
 20
10014.81472102061
 30
0.0
 40
10.0
 50
29.999999999997289
 51
90.0
  0
LINE
  5
5D8E
  8
10_OUTLINE
 62
     2
 10
3773.771443752968
 20
10019.81472102061
 30
0.0
 11
3729.3154730253659
 21
9942.8147210206098
 31
0.0
  0
ARC
  5
5D8F
  8
10_OUTLINE
 62
     2
 10
3686.0142028361429
 20
9967.8147210206098
 30
0.0
 40
50.0
 50
270.0
 51
330.00000000000267
  0
LINE
  5
5D90
  8
10_OUTLINE
 62
     2
 10
3796.1581950989171
 20
10024.81472102061
 30
0.0
 11
3782.431697790812
 21
10024.81472102061
 31
0.0
  0
ARC
  5
5D91
  8
10_OUTLINE
 62
     2
 10
3782.431697790812
 20
10014.81472102061
 30
0.0
 40
10.0
 50
90.0
 51
150.0000000000027
  0
DIMENSION
  5
5D92
  8
50_DIMENSIONS1
 62
   255
  2
*D39
 10
3846.658195098918
 20
9711.3061605789408
 30
0.0
 11
3584.2080950989171
 21
9711.3061605789408
 31
0.0
 70
     0
 13
3321.7579950989161
 23
9852.8147210206116
 33
0.0
 14
3846.658195098918
 24
9852.8147210206116
 34
0.0
1001
ACAD
1000
DSTYLE
1002
{
1070
     3
1000
<>
1070
     4
1000
"
1070
   143
1040
0.03937
1070
   170
1070
     1
1002
}
  0
DIMENSION
  5
5D93
  8
50_DIMENSIONS1
 62
   255
  2
*D40
 10
3992.6105918810808
 20
10024.81472102061
 30
0.0
 11
3992.610591881079
 21
9892.9147210206083
 31
0.0
 70
     0
 13
3657.8434076450249
 23
9761.0147210206069
 33
0.0
 14
3796.1581950989171
 24
10024.81472102061
 34
0.0
 50
90.0
1001
ACAD
1000
DSTYLE
1002
{
1070
     3
1000
<>
1070
     4
1000
"
1070
   143
1040
0.03937
1070
   170
1070
     1
1002
}
  0
DIMENSION
  5
5D94
  8
50_DIMENSIONS1
 62
   255
  2
*D41
 10
3916.9801507685979
 20
9852.8147210206116
 30
0.0
 11
3916.9801507685961
 21
9806.9147210206102
 31
0.0
 70
     0
 13
3657.8434076450249
 23
9761.0147210206069
 33
0.0
 14
3846.658195098918
 24
9852.8147210206116
 34
0.0
 50
90.0
1001
ACAD
1000
DSTYLE
1002
{
1070
     3
1000
<>
1070
     4
1000
"
1070
   143
1040
0.03937
1070
   170
1070
     1
1002
}
  0
DIMENSION
  5
5D95
  8
50_DIMENSIONS1
 62
   255
  2
*D42
 10
3846.3700224744298
 20
9893.0679541761438
 30
0.0
 11
3888.00030896829
 21
9893.0679541761438
 31
0.0
 70
     0
 13
3796.1581950989171
 23
9855.8147210206098
 33
0.0
 14
3846.3700224744298
 24
9855.8147210206098
 34
0.0
1001
ACAD
1000
DSTYLE
1002
{
1070
     3
1000
<>
1070
     4
1000
"
1070
   143
1040
0.03937
1070
   170
1070
     1
1002
}
  0
DIMENSION
  5
5D96
  8
50_DIMENSIONS1
 62
   255
  2
*D43
 10
3796.1581950989171
 20
10050.88340942751
 30
0.0
 11
3584.2080950989171
 21
10050.88340942751
 31
0.0
 70
     0
 13
3372.2579950989179
 23
10024.81472102061
 33
0.0
 14
3796.1581950989171
 24
10024.81472102061
 34
0.0
1001
ACAD
1000
DSTYLE
1002
{
1070
     3
1000
<>
1070
     4
1000
"
1070
   143
1040
0.03937
1070
   170
1070
     1
1002
}
  0
TEXT
  5
5D97
  8
62_TEXT
 10
3153.9822576105748
 20
9581.6323130384953
 30
0.0
 40
10.0
  1
EXPLANATION OF HOLES - DO NOT CUT THIS PROFILE
  7
MECHTRONICS
 72
     1
 11
3339.8076327811068
 21
9581.6323130384953
 31
0.0
  0
LINE
  5
5D98
  8
62_TEXT
 10
3153.7137172278271
 20
9578.8979649835019
 30
0.0
 11
3522.0069657242811
 21
9578.8979649835019
 31
0.0
  0
TEXT
  5
5D99
  8
62_TEXT
 10
3503.2338752254559
 20
9965.7341600495674
 30
0.0
 40
10.0
  1
PROFILE TO BE CUT
  7
MECHTRONICS
 72
     1
 11
3572.9746664942149
 21
9965.7341600495674
 31
0.0
  0
LINE
  5
5D9A
  8
62_TEXT
 10
3503.6106734668551
 20
9962.9998119945758
 30
0.0
 11
3639.87566117608
 21
9962.9998119945758
 31
0.0
  0
INSERT
  5
5D9B
  8
50_DIMENSIONS
  2
*U17
 10
3029.6659815778362
 20
9110.0414108947261
 30
0.0
  0
INSERT
  5
5D9C
  8
50_DIMENSIONS
  2
*U18
 10
3029.6659815778362
 20
9110.0414108947261
 30
0.0
  0
INSERT
  5
5D9D
  8
50_DIMENSIONS
  2
*U19
 10
3029.6659815778362
 20
9110.0414108947261
 30
0.0
  0
INSERT
  5
5D9E
  8
50_DIMENSIONS
  2
*U20
 10
3029.6659815778362
 20
9110.0414108947261
 30
0.0
  0
LINE
  5
5D9F
  8
01_FRAME
 62
     8
 10
3798.0869237270358
 20
9291.8380802352585
 30
0.0
 11
3798.0869237270358
 21
9344.5657830825239
 31
0.0
  0
LINE
  5
5DA0
  8
62_TEXT
 10
3550.6630553895729
 20
9389.896892358327
 30
0.0
 11
3550.6630553895729
 21
9558.8968923583252
 31
0.0
  0
LINE
  5
5DA1
  8
62_TEXT
 10
3126.762855389572
 20
9389.896892358327
 30
0.0
 11
3126.762855389572
 21
9558.8968923583252
 31
0.0
  0
CIRCLE
  5
5DA2
  8
62_TEXT
 10
3101.262855389572
 20
9356.8968923583252
 30
0.0
 40
6.0
  0
LINE
  5
5DA3
  8
62_TEXT
 10
3076.2628553895729
 20
9386.896892358327
 30
0.0
 11
3123.7628553895729
 21
9386.896892358327
 31
0.0
  0
LINE
  5
5DA4
  8
62_TEXT
 10
3296.2129553895729
 20
9303.7468923583274
 30
0.0
 11
3083.2003771074578
 21
9332.2898940532214
 31
0.0
  0
LINE
  5
5DA5
  8
62_TEXT
 10
3076.2628553895729
 20
9339.3968923583288
 30
0.0
 11
3076.2628553895729
 21
9339.3968923583288
 31
0.0
  0
ARC
  5
5DA6
  8
62_TEXT
 10
3084.2628553895738
 20
9340.2190264080273
 30
0.0
 40
8.0
 50
180.0
 51
262.368010609458
  0
LINE
  5
5DA7
  8
62_TEXT
 10
3076.2628553895729
 20
9386.896892358327
 30
0.0
 11
3076.2628553895738
 21
9340.2190264080273
 31
0.0
  0
ARC
  5
5DA8
  8
62_TEXT
 10
3553.663055389572
 20
9389.896892358327
 30
0.0
 40
3.0
 50
180.0
 51
270.0
  0
LINE
  5
5DA9
  8
62_TEXT
 10
3381.212955389572
 20
9303.7468923583274
 30
0.0
 11
3594.2255336716871
 21
9332.2898940532214
 31
0.0
  0
LINE
  5
5DAA
  8
62_TEXT
 10
3296.2129553895729
 20
9303.7468923583274
 30
0.0
 11
3381.212955389572
 21
9303.7468923583274
 31
0.0
  0
ARC
  5
5DAB
  8
62_TEXT
 10
3123.7628553895729
 20
9389.896892358327
 30
0.0
 40
3.0
 50
270.0
 51
0.0
  0
CIRCLE
  5
5DAC
  8
62_TEXT
 10
3318.712955389572
 20
9356.8968923583252
 30
0.0
 40
4.1500000000000004
  0
CIRCLE
  5
5DAD
  8
62_TEXT
 10
3277.2945548366861
 20
9350.8152929112111
 30
0.0
 40
5.0
  0
CIRCLE
  5
5DAE
  8
62_TEXT
 10
3358.7129553895729
 20
9356.8968923583252
 30
0.0
 40
4.1500000000000004
  0
LINE
  5
5DAF
  8
62_TEXT
 10
3601.1630553895729
 20
9386.896892358327
 30
0.0
 11
3553.663055389572
 21
9386.896892358327
 31
0.0
  0
LINE
  5
5DB0
  8
62_TEXT
 10
3601.1630553895729
 20
9339.3968923583288
 30
0.0
 11
3601.1630553895729
 21
9339.3968923583288
 31
0.0
  0
ARC
  5
5DB1
  8
62_TEXT
 10
3593.163055389572
 20
9340.2190264080273
 30
0.0
 40
8.0
 50
277.63198939054189
 51
0.0
  0
LINE
  5
5DB2
  8
62_TEXT
 10
3601.1630553895729
 20
9386.896892358327
 30
0.0
 11
3601.163055389572
 21
9340.2190264080273
 31
0.0
  0
LINE
  5
5DB3
  8
62_TEXT
 10
3236.9068476523462
 20
9451.896892358327
 30
0.0
 11
3440.5190631267992
 21
9451.896892358327
 31
0.0
  0
LINE
  5
5DB4
  8
62_TEXT
 10
3149.149606735521
 20
9553.896892358327
 30
0.0
 11
3193.6055774631241
 21
9476.8968923583216
 31
0.0
  0
ARC
  5
5DB5
  8
62_TEXT
 10
3236.9068476523462
 20
9501.8968923583288
 30
0.0
 40
50.0
 50
209.9999999999973
 51
270.0
  0
LINE
  5
5DB6
  8
62_TEXT
 10
3126.762855389572
 20
9558.8968923583252
 30
0.0
 11
3140.4893526976762
 21
9558.8968923583252
 31
0.0
  0
ARC
  5
5DB7
  8
62_TEXT
 10
3140.4893526976762
 20
9548.8968923583252
 30
0.0
 40
10.0
 50
29.999999999997289
 51
90.0
  0
LINE
  5
5DB8
  8
62_TEXT
 10
3528.2763040436248
 20
9553.896892358327
 30
0.0
 11
3483.8203333160209
 21
9476.8968923583216
 31
0.0
  0
ARC
  5
5DB9
  8
62_TEXT
 10
3440.5190631267992
 20
9501.8968923583288
 30
0.0
 40
50.0
 50
270.0
 51
330.00000000000267
  0
LINE
  5
5DBA
  8
62_TEXT
 10
3550.6630553895729
 20
9558.8968923583252
 30
0.0
 11
3536.9365580814701
 21
9558.8968923583252
 31
0.0
  0
ARC
  5
5DBB
  8
62_TEXT
 10
3536.9365580814701
 20
9548.8968923583252
 30
0.0
 40
10.0
 50
90.0
 51
150.0000000000027
  0
POLYLINE
  5
5DBC
  8
62_TEXT
 66
     1
 10
0.0
 20
0.0
 30
0.0
 70
     8
  0
VERTEX
  5
5DBD
  8
62_TEXT
 10
3338.7129815778371
 20
9416.0034108947257
 30
0.0
 70
    32
  0
VERTEX
  5
5DBE
  8
62_TEXT
 10
3339.1059815778358
 20
9416.0164108947265
 30
0.0
 70
    32
  0
VERTEX
  5
5DBF
  8
62_TEXT
 10
3339.496981577835
 20
9416.0544108947252
 30
0.0
 70
    32
  0
VERTEX
  5
5DC0
  8
62_TEXT
 10
3339.8869815778362
 20
9416.1194108947257
 30
0.0
 70
    32
  0
VERTEX
  5
5DC1
  8
62_TEXT
 10
3340.2739815778359
 20
9416.2084108947256
 30
0.0
 70
    32
  0
VERTEX
  5
5DC2
  8
62_TEXT
 10
3340.6569815778362
 20
9416.3234108947236
 30
0.0
 70
    32
  0
VERTEX
  5
5DC3
  8
62_TEXT
 10
3341.0349815778359
 20
9416.4634108947266
 30
0.0
 70
    32
  0
VERTEX
  5
5DC4
  8
62_TEXT
 10
3341.4079815778359
 20
9416.6274108947237
 30
0.0
 70
    32
  0
VERTEX
  5
5DC5
  8
62_TEXT
 10
3341.773981577835
 20
9416.8164108947258
 30
0.0
 70
    32
  0
VERTEX
  5
5DC6
  8
62_TEXT
 10
3342.1329815778372
 20
9417.0284108947271
 30
0.0
 70
    32
  0
VERTEX
  5
5DC7
  8
62_TEXT
 10
3342.4839815778359
 20
9417.2644108947261
 30
0.0
 70
    32
  0
VERTEX
  5
5DC8
  8
62_TEXT
 10
3342.825981577836
 20
9417.5234108947261
 30
0.0
 70
    32
  0
VERTEX
  5
5DC9
  8
62_TEXT
 10
3343.1579815778359
 20
9417.8034108947231
 30
0.0
 70
    32
  0
VERTEX
  5
5DCA
  8
62_TEXT
 10
3343.4789815778358
 20
9418.1054108947264
 30
0.0
 70
    32
  0
VERTEX
  5
5DCB
  8
62_TEXT
 10
3343.787981577836
 20
9418.4274108947266
 30
0.0
 70
    32
  0
VERTEX
  5
5DCC
  8
62_TEXT
 10
3344.0849815778361
 20
9418.7704108947255
 30
0.0
 70
    32
  0
VERTEX
  5
5DCD
  8
62_TEXT
 10
3344.3699815778359
 20
9419.1314108947263
 30
0.0
 70
    32
  0
VERTEX
  5
5DCE
  8
62_TEXT
 10
3344.6409815778352
 20
9419.5114108947237
 30
0.0
 70
    32
  0
VERTEX
  5
5DCF
  8
62_TEXT
 10
3344.896981577836
 20
9419.9084108947245
 30
0.0
 70
    32
  0
VERTEX
  5
5DD0
  8
62_TEXT
 10
3345.1389815778361
 20
9420.3214108947268
 30
0.0
 70
    32
  0
VERTEX
  5
5DD1
  8
62_TEXT
 10
3345.3649815778358
 20
9420.7504108947232
 30
0.0
 70
    32
  0
VERTEX
  5
5DD2
  8
62_TEXT
 10
3345.5749815778358
 20
9421.1934108947262
 30
0.0
 70
    32
  0
VERTEX
  5
5DD3
  8
62_TEXT
 10
3345.7679815778361
 20
9421.6494108947263
 30
0.0
 70
    32
  0
VERTEX
  5
5DD4
  8
62_TEXT
 10
3345.9449815778371
 20
9422.1174108947234
 30
0.0
 70
    32
  0
VERTEX
  5
5DD5
  8
62_TEXT
 10
3346.1039815778358
 20
9422.5964108947264
 30
0.0
 70
    32
  0
VERTEX
  5
5DD6
  8
62_TEXT
 10
3346.2449815778359
 20
9423.0864108947244
 30
0.0
 70
    32
  0
VERTEX
  5
5DD7
  8
62_TEXT
 10
3346.3679815778369
 20
9423.5834108947256
 30
0.0
 70
    32
  0
VERTEX
  5
5DD8
  8
62_TEXT
 10
3346.472981577836
 20
9424.0894108947232
 30
0.0
 70
    32
  0
VERTEX
  5
5DD9
  8
62_TEXT
 10
3346.5589815778371
 20
9424.6004108947218
 30
0.0
 70
    32
  0
VERTEX
  5
5DDA
  8
62_TEXT
 10
3346.6259815778371
 20
9425.1174108947253
 30
0.0
 70
    32
  0
VERTEX
  5
5DDB
  8
62_TEXT
 10
3346.6739815778369
 20
9425.6374108947257
 30
0.0
 70
    32
  0
VERTEX
  5
5DDC
  8
62_TEXT
 10
3346.702981577836
 20
9426.1604108947267
 30
0.0
 70
    32
  0
VERTEX
  5
5DDD
  8
62_TEXT
 10
3346.7129815778362
 20
9426.6844108947262
 30
0.0
 70
    32
  0
VERTEX
  5
5DDE
  8
62_TEXT
 10
3346.702981577836
 20
9427.2084108947256
 30
0.0
 70
    32
  0
VERTEX
  5
5DDF
  8
62_TEXT
 10
3346.6739815778369
 20
9427.7314108947267
 30
0.0
 70
    32
  0
VERTEX
  5
5DE0
  8
62_TEXT
 10
3346.6259815778371
 20
9428.2514108947271
 30
0.0
 70
    32
  0
VERTEX
  5
5DE1
  8
62_TEXT
 10
3346.5589815778371
 20
9428.7684108947215
 30
0.0
 70
    32
  0
VERTEX
  5
5DE2
  8
62_TEXT
 10
3346.472981577836
 20
9429.2794108947273
 30
0.0
 70
    32
  0
VERTEX
  5
5DE3
  8
62_TEXT
 10
3346.3679815778369
 20
9429.7844108947265
 30
0.0
 70
    32
  0
VERTEX
  5
5DE4
  8
62_TEXT
 10
3346.2449815778359
 20
9430.2824108947261
 30
0.0
 70
    32
  0
VERTEX
  5
5DE5
  8
62_TEXT
 10
3346.1039815778358
 20
9430.7714108947239
 30
0.0
 70
    32
  0
VERTEX
  5
5DE6
  8
62_TEXT
 10
3345.9449815778371
 20
9431.2514108947271
 30
0.0
 70
    32
  0
VERTEX
  5
5DE7
  8
62_TEXT
 10
3345.7679815778361
 20
9431.7194108947278
 30
0.0
 70
    32
  0
VERTEX
  5
5DE8
  8
62_TEXT
 10
3345.5749815778358
 20
9432.1754108947262
 30
0.0
 70
    32
  0
VERTEX
  5
5DE9
  8
62_TEXT
 10
3345.3649815778358
 20
9432.6184108947255
 30
0.0
 70
    32
  0
VERTEX
  5
5DEA
  8
62_TEXT
 10
3345.1389815778361
 20
9433.0474108947255
 30
0.0
 70
    32
  0
VERTEX
  5
5DEB
  8
62_TEXT
 10
3344.896981577836
 20
9433.4604108947278
 30
0.0
 70
    32
  0
VERTEX
  5
5DEC
  8
62_TEXT
 10
3344.6409815778352
 20
9433.8574108947269
 30
0.0
 70
    32
  0
VERTEX
  5
5DED
  8
62_TEXT
 10
3344.3699815778359
 20
9434.2374108947297
 30
0.0
 70
    32
  0
VERTEX
  5
5DEE
  8
62_TEXT
 10
3344.0849815778361
 20
9434.5984108947268
 30
0.0
 70
    32
  0
VERTEX
  5
5DEF
  8
62_TEXT
 10
3343.787981577836
 20
9434.9404108947256
 30
0.0
 70
    32
  0
VERTEX
  5
5DF0
  8
62_TEXT
 10
3343.4789815778358
 20
9435.2634108947259
 30
0.0
 70
    32
  0
VERTEX
  5
5DF1
  8
62_TEXT
 10
3343.1579815778359
 20
9435.5654108947256
 30
0.0
 70
    32
  0
VERTEX
  5
5DF2
  8
62_TEXT
 10
3342.825981577836
 20
9435.8454108947226
 30
0.0
 70
    32
  0
VERTEX
  5
5DF3
  8
62_TEXT
 10
3342.4839815778359
 20
9436.1044108947226
 30
0.0
 70
    32
  0
VERTEX
  5
5DF4
  8
62_TEXT
 10
3342.1329815778372
 20
9436.3394108947214
 30
0.0
 70
    32
  0
VERTEX
  5
5DF5
  8
62_TEXT
 10
3341.773981577835
 20
9436.5524108947266
 30
0.0
 70
    32
  0
VERTEX
  5
5DF6
  8
62_TEXT
 10
3341.4079815778359
 20
9436.7414108947214
 30
0.0
 70
    32
  0
VERTEX
  5
5DF7
  8
62_TEXT
 10
3341.0349815778359
 20
9436.9054108947257
 30
0.0
 70
    32
  0
VERTEX
  5
5DF8
  8
62_TEXT
 10
3340.6569815778362
 20
9437.045410894727
 30
0.0
 70
    32
  0
VERTEX
  5
5DF9
  8
62_TEXT
 10
3340.2739815778359
 20
9437.1604108947267
 30
0.0
 70
    32
  0
VERTEX
  5
5DFA
  8
62_TEXT
 10
3339.8869815778362
 20
9437.2494108947267
 30
0.0
 70
    32
  0
VERTEX
  5
5DFB
  8
62_TEXT
 10
3339.496981577835
 20
9437.313410894727
 30
0.0
 70
    32
  0
VERTEX
  5
5DFC
  8
62_TEXT
 10
3339.1059815778358
 20
9437.3524108947258
 30
0.0
 70
    32
  0
VERTEX
  5
5DFD
  8
62_TEXT
 10
3338.7129815778371
 20
9437.3654108947248
 30
0.0
 70
    32
  0
VERTEX
  5
5DFE
  8
62_TEXT
 10
3338.3199815778362
 20
9437.3524108947258
 30
0.0
 70
    32
  0
VERTEX
  5
5DFF
  8
62_TEXT
 10
3337.9289815778352
 20
9437.313410894727
 30
0.0
 70
    32
  0
VERTEX
  5
5E00
  8
62_TEXT
 10
3337.5389815778358
 20
9437.2494108947267
 30
0.0
 70
    32
  0
VERTEX
  5
5E01
  8
62_TEXT
 10
3337.1519815778361
 20
9437.1604108947267
 30
0.0
 70
    32
  0
VERTEX
  5
5E02
  8
62_TEXT
 10
3336.7689815778358
 20
9437.045410894727
 30
0.0
 70
    32
  0
VERTEX
  5
5E03
  8
62_TEXT
 10
3336.3909815778352
 20
9436.9054108947257
 30
0.0
 70
    32
  0
VERTEX
  5
5E04
  8
62_TEXT
 10
3336.0179815778361
 20
9436.7414108947214
 30
0.0
 70
    32
  0
VERTEX
  5
5E05
  8
62_TEXT
 10
3335.6519815778361
 20
9436.5524108947266
 30
0.0
 70
    32
  0
VERTEX
  5
5E06
  8
62_TEXT
 10
3335.2929815778348
 20
9436.3394108947214
 30
0.0
 70
    32
  0
VERTEX
  5
5E07
  8
62_TEXT
 10
3334.941981577836
 20
9436.1044108947226
 30
0.0
 70
    32
  0
VERTEX
  5
5E08
  8
62_TEXT
 10
3334.5999815778368
 20
9435.8454108947226
 30
0.0
 70
    32
  0
VERTEX
  5
5E09
  8
62_TEXT
 10
3334.2679815778361
 20
9435.5654108947256
 30
0.0
 70
    32
  0
VERTEX
  5
5E0A
  8
62_TEXT
 10
3333.9469815778361
 20
9435.2634108947259
 30
0.0
 70
    32
  0
VERTEX
  5
5E0B
  8
62_TEXT
 10
3333.6379815778369
 20
9434.9404108947256
 30
0.0
 70
    32
  0
VERTEX
  5
5E0C
  8
62_TEXT
 10
3333.3409815778359
 20
9434.5984108947268
 30
0.0
 70
    32
  0
VERTEX
  5
5E0D
  8
62_TEXT
 10
3333.0559815778352
 20
9434.2374108947297
 30
0.0
 70
    32
  0
VERTEX
  5
5E0E
  8
62_TEXT
 10
3332.7849815778359
 20
9433.8574108947269
 30
0.0
 70
    32
  0
VERTEX
  5
5E0F
  8
62_TEXT
 10
3332.528981577836
 20
9433.4604108947278
 30
0.0
 70
    32
  0
VERTEX
  5
5E10
  8
62_TEXT
 10
3332.2869815778349
 20
9433.0474108947255
 30
0.0
 70
    32
  0
VERTEX
  5
5E11
  8
62_TEXT
 10
3332.0609815778362
 20
9432.6184108947255
 30
0.0
 70
    32
  0
VERTEX
  5
5E12
  8
62_TEXT
 10
3331.8509815778361
 20
9432.1754108947262
 30
0.0
 70
    32
  0
VERTEX
  5
5E13
  8
62_TEXT
 10
3331.6579815778359
 20
9431.7194108947278
 30
0.0
 70
    32
  0
VERTEX
  5
5E14
  8
62_TEXT
 10
3331.4809815778358
 20
9431.2514108947271
 30
0.0
 70
    32
  0
VERTEX
  5
5E15
  8
62_TEXT
 10
3331.3219815778361
 20
9430.7714108947239
 30
0.0
 70
    32
  0
VERTEX
  5
5E16
  8
62_TEXT
 10
3331.1809815778361
 20
9430.2824108947261
 30
0.0
 70
    32
  0
VERTEX
  5
5E17
  8
62_TEXT
 10
3331.0569815778372
 20
9429.7844108947265
 30
0.0
 70
    32
  0
VERTEX
  5
5E18
  8
62_TEXT
 10
3330.952981577836
 20
9429.2794108947273
 30
0.0
 70
    32
  0
VERTEX
  5
5E19
  8
62_TEXT
 10
3330.8669815778371
 20
9428.7684108947215
 30
0.0
 70
    32
  0
VERTEX
  5
5E1A
  8
62_TEXT
 10
3330.7999815778362
 20
9428.2514108947271
 30
0.0
 70
    32
  0
VERTEX
  5
5E1B
  8
62_TEXT
 10
3330.7509815778358
 20
9427.7314108947267
 30
0.0
 70
    32
  0
VERTEX
  5
5E1C
  8
62_TEXT
 10
3330.722981577836
 20
9427.2084108947256
 30
0.0
 70
    32
  0
VERTEX
  5
5E1D
  8
62_TEXT
 10
3330.7129815778362
 20
9426.6844108947262
 30
0.0
 70
    32
  0
VERTEX
  5
5E1E
  8
62_TEXT
 10
3330.722981577836
 20
9426.1604108947267
 30
0.0
 70
    32
  0
VERTEX
  5
5E1F
  8
62_TEXT
 10
3330.7509815778358
 20
9425.6374108947257
 30
0.0
 70
    32
  0
VERTEX
  5
5E20
  8
62_TEXT
 10
3330.7999815778362
 20
9425.1174108947253
 30
0.0
 70
    32
  0
VERTEX
  5
5E21
  8
62_TEXT
 10
3330.8669815778371
 20
9424.6004108947218
 30
0.0
 70
    32
  0
VERTEX
  5
5E22
  8
62_TEXT
 10
3330.952981577836
 20
9424.0894108947232
 30
0.0
 70
    32
  0
VERTEX
  5
5E23
  8
62_TEXT
 10
3331.0569815778372
 20
9423.5834108947256
 30
0.0
 70
    32
  0
VERTEX
  5
5E24
  8
62_TEXT
 10
3331.1809815778361
 20
9423.0864108947244
 30
0.0
 70
    32
  0
VERTEX
  5
5E25
  8
62_TEXT
 10
3331.3219815778361
 20
9422.5964108947264
 30
0.0
 70
    32
  0
VERTEX
  5
5E26
  8
62_TEXT
 10
3331.4809815778358
 20
9422.1174108947234
 30
0.0
 70
    32
  0
VERTEX
  5
5E27
  8
62_TEXT
 10
3331.6579815778359
 20
9421.6494108947263
 30
0.0
 70
    32
  0
VERTEX
  5
5E28
  8
62_TEXT
 10
3331.8509815778361
 20
9421.1934108947262
 30
0.0
 70
    32
  0
VERTEX
  5
5E29
  8
62_TEXT
 10
3332.0609815778362
 20
9420.7504108947232
 30
0.0
 70
    32
  0
VERTEX
  5
5E2A
  8
62_TEXT
 10
3332.2869815778349
 20
9420.3214108947268
 30
0.0
 70
    32
  0
VERTEX
  5
5E2B
  8
62_TEXT
 10
3332.528981577836
 20
9419.9084108947245
 30
0.0
 70
    32
  0
VERTEX
  5
5E2C
  8
62_TEXT
 10
3332.7849815778359
 20
9419.5114108947237
 30
0.0
 70
    32
  0
VERTEX
  5
5E2D
  8
62_TEXT
 10
3333.0559815778352
 20
9419.1314108947263
 30
0.0
 70
    32
  0
VERTEX
  5
5E2E
  8
62_TEXT
 10
3333.3409815778359
 20
9418.7704108947255
 30
0.0
 70
    32
  0
VERTEX
  5
5E2F
  8
62_TEXT
 10
3333.6379815778369
 20
9418.4274108947266
 30
0.0
 70
    32
  0
VERTEX
  5
5E30
  8
62_TEXT
 10
3333.9469815778361
 20
9418.1054108947264
 30
0.0
 70
    32
  0
VERTEX
  5
5E31
  8
62_TEXT
 10
3334.2679815778361
 20
9417.8034108947231
 30
0.0
 70
    32
  0
VERTEX
  5
5E32
  8
62_TEXT
 10
3334.5999815778368
 20
9417.5234108947261
 30
0.0
 70
    32
  0
VERTEX
  5
5E33
  8
62_TEXT
 10
3334.941981577836
 20
9417.2644108947261
 30
0.0
 70
    32
  0
VERTEX
  5
5E34
  8
62_TEXT
 10
3335.2929815778348
 20
9417.0284108947271
 30
0.0
 70
    32
  0
VERTEX
  5
5E35
  8
62_TEXT
 10
3335.6519815778361
 20
9416.8164108947258
 30
0.0
 70
    32
  0
VERTEX
  5
5E36
  8
62_TEXT
 10
3336.0179815778361
 20
9416.6274108947237
 30
0.0
 70
    32
  0
VERTEX
  5
5E37
  8
62_TEXT
 10
3336.3909815778352
 20
9416.4634108947266
 30
0.0
 70
    32
  0
VERTEX
  5
5E38
  8
62_TEXT
 10
3336.7689815778358
 20
9416.3234108947236
 30
0.0
 70
    32
  0
VERTEX
  5
5E39
  8
62_TEXT
 10
3337.1519815778361
 20
9416.2084108947256
 30
0.0
 70
    32
  0
VERTEX
  5
5E3A
  8
62_TEXT
 10
3337.5389815778358
 20
9416.1194108947257
 30
0.0
 70
    32
  0
VERTEX
  5
5E3B
  8
62_TEXT
 10
3337.9289815778352
 20
9416.0544108947252
 30
0.0
 70
    32
  0
VERTEX
  5
5E3C
  8
62_TEXT
 10
3338.3199815778362
 20
9416.0164108947265
 30
0.0
 70
    32
  0
VERTEX
  5
5E3D
  8
62_TEXT
 10
3338.7129815778371
 20
9416.0034108947257
 30
0.0
 70
    32
  0
SEQEND
  5
5E3E
  8
62_TEXT
  0
LINE
  5
5E3F
  8
62_TEXT
 10
3570.1630553895711
 20
9357.396892358327
 30
0.0
 11
3570.1630553895711
 21
9356.396892358327
 31
0.0
  0
LINE
  5
5E40
  8
62_TEXT
 10
3582.1630553895711
 20
9357.396892358327
 30
0.0
 11
3582.1630553895711
 21
9356.396892358327
 31
0.0
  0
ARC
  5
5E41
  8
62_TEXT
 10
3576.1630553895739
 20
9356.396892358327
 30
0.0
 40
6.0
 50
180.0
 51
0.0
  0
ARC
  5
5E42
  8
62_TEXT
 10
3576.1630553895739
 20
9357.396892358327
 30
0.0
 40
6.0
 50
0.0
 51
180.0
  0
CIRCLE
  5
5E43
  8
62_TEXT
 10
3395.6548942615909
 20
9325.6741814815814
 30
0.0
 40
4.25
  0
INSERT
  5
5E44
  8
50_DIMENSIONS
  2
*U21
 10
3029.6659815778362
 20
9110.0414108947261
 30
0.0
1001
ACAD
1000
DSTYLE
1002
{
1070
   147
1040
0.5
1070
    77
1070
     0
1002
}
  0
INSERT
  5
5E45
  8
50_DIMENSIONS
  2
*U22
 10
3029.6659815778362
 20
9110.0414108947261
 30
0.0
1001
ACAD
1000
DSTYLE
1002
{
1070
   147
1040
0.5
1070
    77
1070
     0
1002
}
  0
INSERT
  5
5E46
  8
50_DIMENSIONS
  2
*U23
 10
3029.6659815778362
 20
9110.0414108947261
 30
0.0
  0
INSERT
  5
5E47
  8
50_DIMENSIONS
  2
*U24
 10
3029.6659815778362
 20
9110.0414108947261
 30
0.0
1001
ACAD
1000
DSTYLE
1002
{
1070
   147
1040
0.5
1070
    77
1070
     0
1002
}
  0
SOLID
  5
5E48
  8
62_TEXT
 10
3329.6513884852479
 20
9373.169683910015
 30
0.0
 11
3321.8527294919409
 21
9366.6921306926433
 31
0.0
 12
3327.1290112799752
 22
9375.348840706909
 32
0.0
 13
3327.1290112799752
 23
9375.348840706909
 33
0.0
1001
ACAD
1000
DSTYLE
1002
{
1070
     4
1000
"
1070
   143
1040
0.039370078
1070
   170
1070
     1
1002
}
  0
LINE
  5
5E49
  8
62_TEXT
 10
3328.3901998826109
 20
9374.2592623084602
 30
0.0
 11
3354.9944145246518
 21
9405.0536799809579
 31
0.0
1001
ACAD
1000
DSTYLE
1002
{
1070
     4
1000
"
1070
   143
1040
0.039370078
1070
   170
1070
     1
1002
}
  0
LINE
  5
5E4A
  8
62_TEXT
 10
3354.9944145246518
 20
9405.0536799809579
 30
0.0
 11
3368.5867438213049
 21
9405.0536799809579
 31
0.0
1001
ACAD
1000
DSTYLE
1002
{
1070
     4
1000
"
1070
   143
1040
0.039370078
1070
   170
1070
     1
1002
}
  0
SOLID
  5
5E4B
  8
62_TEXT
 10
3358.1570651614711
 20
9373.5861920492935
 30
0.0
 11
3358.1073846180038
 21
9363.4483762282525
 31
0.0
 12
3354.8664394604052
 22
9373.0543146136097
 32
0.0
 13
3354.8664394604052
 23
9373.0543146136097
 33
0.0
1001
ACAD
1000
DSTYLE
1002
{
1070
     4
1000
"
1070
   143
1040
0.039370078
1070
   170
1070
     1
1002
}
  0
LINE
  5
5E4C
  8
62_TEXT
 10
3356.5117523109388
 20
9373.320253331447
 30
0.0
 11
3351.9517961630831
 21
9401.5318447415066
 31
0.0
1001
ACAD
1000
DSTYLE
1002
{
1070
     4
1000
"
1070
   143
1040
0.039370078
1070
   170
1070
     1
1002
}
  0
CIRCLE
  5
5E4D
  8
10_OUTLINE
 62
     2
 10
3821.658195098918
 20
9822.8147210206098
 30
0.0
 40
6.0
  0
SOLID
  5
5E4E
  8
62_TEXT
 10
3336.0656129518329
 20
9451.2742900635476
 30
0.0
 11
3336.0159324083652
 21
9441.136474242503
 31
0.0
 12
3332.774987250767
 22
9450.7424126278565
 32
0.0
 13
3332.774987250767
 23
9450.7424126278565
 33
0.0
1001
ACAD
1000
DSTYLE
1002
{
1070
     4
1000
"
1070
   143
1040
0.039370078
1070
   170
1070
     1
1002
}
  0
LINE
  5
5E4F
  8
62_TEXT
 10
3334.420300101302
 20
9451.0083513457048
 30
0.0
 11
3329.860343953445
 21
9479.2199427557625
 31
0.0
1001
ACAD
1000
DSTYLE
1002
{
1070
     4
1000
"
1070
   143
1040
0.039370078
1070
   170
1070
     1
1002
}
  0
LINE
  5
5E50
  8
50_DIMENSIONS
 10
3329.860343953445
 20
9479.2199427557625
 30
0.0
 11
3314.2666719692161
 21
9479.2199427557625
 31
0.0
  0
INSERT
  5
5E51
  8
50_DIMENSIONS
  2
*U25
 10
3029.6659815778362
 20
9110.0414108947261
 30
0.0
  0
SOLID
  5
5E52
  8
62_TEXT
 10
3275.895527668546
 20
9369.486219720171
 30
0.0
 11
3275.8458471250779
 21
9359.3484038991282
 31
0.0
 12
3272.6049019674801
 22
9368.9543422844854
 32
0.0
 13
3272.6049019674801
 23
9368.9543422844854
 33
0.0
1001
ACAD
1000
DSTYLE
1002
{
1070
     4
1000
"
1070
   143
1040
0.039370078
1070
   170
1070
     1
1002
}
  0
LINE
  5
5E53
  8
62_TEXT
 10
3274.2502148180138
 20
9369.2202810023246
 30
0.0
 11
3271.2947959137432
 21
9382.9986843764291
 31
0.0
1001
ACAD
1000
DSTYLE
1002
{
1070
     4
1000
"
1070
   143
1040
0.039370078
1070
   170
1070
     1
1002
}
  0
LINE
  5
5E54
  8
50_DIMENSIONS
 10
3271.2947959137432
 20
9382.9986843764291
 30
0.0
 11
3255.701123929513
 21
9382.9986843764291
 31
0.0
  0
INSERT
  5
5E55
  8
50_DIMENSIONS
  2
*U26
 10
3029.6659815778362
 20
9110.0414108947261
 30
0.0
  0
SOLID
  5
5E56
  8
50_DIMENSIONS
 10
3111.3855172501189
 20
9340.2947484506822
 30
0.0
 11
3107.8429249389542
 21
9349.7935808786569
 31
0.0
 12
3114.2747281829111
 22
9341.9571477098707
 32
0.0
 13
3114.2747281829111
 23
9341.9571477098707
 33
0.0
1001
ACAD
1000
DSTYLE
1002
{
1070
   147
1040
0.5
1070
    77
1070
     0
1002
}
  0
LINE
  5
5E57
  8
50_DIMENSIONS
 10
3112.8301227165139
 20
9341.1259480802728
 30
0.0
 11
3136.7021885985018
 21
9299.6368573258042
 31
0.0
1001
ACAD
1000
DSTYLE
1002
{
1070
   147
1040
0.5
1070
    77
1070
     0
1002
}
  0
LINE
  5
5E58
  8
50_DIMENSIONS
 10
3104.1147508695508
 20
9299.6922070563796
 30
0.0
 11
3136.7021885985018
 21
9299.6368573258042
 31
0.0
1001
ACAD
1000
DSTYLE
1002
{
1070
   147
1040
0.5
1070
    77
1070
     0
1002
}
  0
TEXT
  5
5E59
  8
62_TEXT
 10
4236.9638505841267
 20
9313.8264917196211
 30
0.0
 40
10.0
  1
17-06-08
  7
MECHTRONICS
  0
TEXT
  5
5E5A
  8
01_FRAME
 62
     7
 10
4306.7868433967924
 20
9313.5906460372607
 30
0.0
 40
10.0
  1
C
  7
MECHTRONICS
  0
TEXT
  5
5E5B
  8
01_FRAME
 62
     7
 10
4027.3236318521558
 20
9313.8264917196211
 30
0.0
 40
10.0
  1
Increased proxy cable hole size
  7
MECHTRONICS
  0
CIRCLE
  5
5E5C
  8
62_TEXT
 10
3488.147205666015
 20
9353.8560926347709
 30
0.0
 40
3.25
  0
CIRCLE
  5
5E5D
  8
62_TEXT
 10
3481.0761378541511
 20
9346.7850248229042
 30
0.0
 40
3.25
  0
CIRCLE
  5
5E5E
  8
62_TEXT
 10
3495.2182734778821
 20
9360.9271604466358
 30
0.0
 40
3.25
  0
TEXT
  5
5E5F
  8
62_TEXT
 10
3557.5868353369651
 20
9289.6553787951671
 30
0.0
 40
10.0
  1
Spring anchor points
  7
MECHTRONICS
  0
CIRCLE
  5
5E60
  8
10_OUTLINE0
 62
     2
 10
3564.2080950989161
 20
9822.2084257269871
 30
0.0
 40
4.1500000000000004
  0
CIRCLE
  5
5E61
  8
10_OUTLINE0
 62
     2
 10
3604.2080950989161
 20
9822.2084257269871
 30
0.0
 40
4.1500000000000004
  0
CIRCLE
  5
5E62
  8
10_OUTLINE
 62
     2
 10
3523.6363609428481
 20
9786.6737682104758
 30
0.0
 40
4.0
  0
CIRCLE
  5
5E63
  8
10_OUTLINE
 62
     2
 10
3527.6852163396652
 20
9771.0915785621419
 30
0.0
 40
4.0
  0
CIRCLE
  5
5E64
  8
10_OUTLINE
 62
     2
 10
3642.513447824103
 20
9809.2455126561745
 30
0.0
 40
5.0
  0
LINE
  5
5E65
  8
01_FRAME
 62
     7
 10
3559.9238626805168
 20
9780.1765159702682
 30
0.0
 11
3565.0335710482032
 21
9789.0267904749635
 31
0.0
  0
LINE
  5
5E66
  8
01_FRAME
 62
     7
 10
3559.9238626805168
 20
9780.1765159702682
 30
0.0
 11
3570.1432794158932
 21
9780.1765159702682
 31
0.0
  0
LINE
  5
5E67
  8
01_FRAME
 62
     7
 10
3570.1432794158932
 20
9780.1765159702682
 30
0.0
 11
3565.0335710482032
 21
9789.0267904749635
 31
0.0
  0
TEXT
  5
5E68
  8
01_FRAME
 62
     7
 10
3562.447653445467
 20
9780.714145186259
 30
0.0
 40
5.0
  1
B
  7
MECHTRONICS
  0
LINE
  5
5E69
  8
10_OUTLINE
 62
     2
 10
3527.6852163396652
 20
9761.0147210206069
 30
0.0
 11
3640.7309738581698
 21
9761.0147210206069
 31
0.0
  0
ARC
  5
5E6A
  8
10_OUTLINE
 62
     2
 10
3640.7309738581698
 20
9771.0915785621419
 30
0.0
 40
10.07685754153613
 50
270.0
 51
280.63281578023339
  0
LINE
  5
5E6B
  8
10_OUTLINE
 62
     2
 10
3642.5902980744522
 20
9761.1877423674596
 30
0.0
 11
3840.134309420167
 21
9798.2742164222072
 31
0.0
  0
LINE
  5
5E6C
  8
10_OUTLINE
 62
     2
 10
3321.7579950989179
 20
9805.3147210206062
 30
0.0
 11
3321.7579950989179
 21
9805.3147210206062
 31
0.0
  0
ARC
  5
5E6D
  8
10_OUTLINE
 62
     2
 10
3329.7579950989179
 20
9806.1368550703064
 30
0.0
 40
8.0
 50
180.0
 51
259.3671842197665
  0
ARC
  5
5E6E
  8
10_OUTLINE
 62
     2
 10
3527.6852163396652
 20
9771.0915785621419
 30
0.0
 40
10.07685754153613
 50
259.3671842197665
 51
270.0
  0
LINE
  5
5E6F
  8
10_OUTLINE
 62
     2
 10
3525.825892123381
 20
9761.1877423674596
 30
0.0
 11
3328.2818807776662
 21
9798.2742164222072
 31
0.0
  0
CIRCLE
  5
5E70
  8
10_OUTLINE
 62
     2
 10
3434.7738448224732
 20
9816.1676260034328
 30
0.0
 40
3.5
  0
CIRCLE
  5
5E71
  8
10_OUTLINE
 62
     2
 10
3441.844912634338
 20
9809.0965581915698
 30
0.0
 40
3.5
  0
CIRCLE
  5
5E72
  8
10_OUTLINE
 62
     2
 10
3427.702777010607
 20
9823.2386938152977
 30
0.0
 40
3.5
  0
LINE
  5
5E73
  8
0
 10
3419.4030782730488
 20
9852.8147210206116
 30
0.0
 11
3381.8797485708769
 21
9852.8147210206116
 31
0.0
  0
INSERT
  5
5E74
  8
50_DIMENSIONS0
  2
*U37
 10
1495.817654170942
 20
26.34129505443525
 30
0.0
  0
LINE
  5
5E75
  8
0
 10
3749.013111924784
 20
9852.8147210206116
 30
0.0
 11
3786.5364416269549
 21
9852.8147210206116
 31
0.0
  0
INSERT
  5
5E76
  8
50_DIMENSIONS0
  2
*U38
 10
1495.817654170942
 20
26.34129505443525
 30
0.0
1001
ACAD
1000
DSTYLE
1002
{
1070
   341
1005
0
1070
   147
1040
0.5
1070
    77
1070
     0
1002
}
  0
TEXT
  5
5E77
  8
01_FRAME0
 62
     8
 10
3950.4987435454518
 20
9332.6695423857236
 30
0.0
 40
7.0
  1
1:5
  7
MECHTRONICS
  0
LINE
  5
5E78
  8
01_FRAME0
 62
     7
 10
3936.6674394260699
 20
9221.6420804477639
 30
0.0
 11
3942.5878491148851
 21
9221.6420804477639
 31
0.0
  0
LINE
  5
5E79
  8
01_FRAME0
 62
     7
 10
3940.6398433270551
 20
9246.9341712149999
 30
0.0
 11
3936.6674394260699
 21
9221.6420804477639
 31
0.0
  0
LINE
  5
5E7A
  8
01_FRAME0
 62
     7
 10
3931.7592287109492
 20
9229.5542607237294
 30
0.0
 11
3940.6398433270551
 21
9246.9341712149999
 31
0.0
  0
LINE
  5
5E7B
  8
01_FRAME0
 62
     7
 10
3946.961313055388
 20
9252.1577465347818
 30
0.0
 11
3937.7178347282002
 21
9252.1577465347818
 31
0.0
  0
LINE
  5
5E7C
  8
01_FRAME0
 62
     7
 10
3855.9045235827148
 20
9234.0908017853762
 30
0.0
 11
3868.515953683559
 21
9234.0908017853762
 31
0.0
  0
LINE
  5
5E7D
  8
01_FRAME0
 62
     7
 10
3867.3624692251369
 20
9228.9396822351155
 30
0.0
 11
3857.1349069829262
 21
9228.9396822351155
 31
0.0
  0
LINE
  5
5E7E
  8
01_FRAME0
 62
     7
 10
3854.443443191351
 20
9225.0186806750589
 30
0.0
 11
3864.7781957699099
 21
9225.0186806750589
 31
0.0
  0
LINE
  5
5E7F
  8
01_FRAME0
 62
     7
 10
3865.3559627772061
 20
9245.3925121155971
 30
0.0
 11
3857.9038965666168
 21
9245.3925121155971
 31
0.0
  0
LINE
  5
5E80
  8
01_FRAME0
 62
     7
 10
3856.4205162646022
 20
9237.3967237110137
 30
0.0
 11
3863.8767589634822
 21
9237.3967237110137
 31
0.0
  0
LINE
  5
5E81
  8
01_FRAME0
 62
     7
 10
3862.9618825709149
 20
9241.5266944501964
 30
0.0
 11
3858.204525196953
 21
9241.5266944501964
 31
0.0
  0
LINE
  5
5E82
  8
01_FRAME0
 62
     7
 10
3820.5124232041708
 20
9221.6420804477639
 30
0.0
 11
3824.1219632282978
 21
9247.0493971180149
 31
0.0
  0
LINE
  5
5E83
  8
01_FRAME0
 62
     7
 10
3828.5909175754591
 20
9252.1577465347818
 30
0.0
 11
3819.2137526789529
 21
9252.1577465347818
 31
0.0
  0
LINE
  5
5E84
  8
01_FRAME0
 62
     7
 10
3819.2137526789529
 20
9252.1577465347818
 30
0.0
 11
3814.8975829824449
 21
9221.6420804477639
 31
0.0
  0
LINE
  5
5E85
  8
01_FRAME0
 62
     7
 10
3814.8975829824449
 20
9221.6420804477639
 30
0.0
 11
3820.5124232041708
 21
9221.6420804477639
 31
0.0
  0
LINE
  5
5E86
  8
01_FRAME0
 62
     7
 10
3841.6540151529789
 20
9246.9341712149999
 30
0.0
 11
3837.6816112519941
 21
9221.6420804477639
 31
0.0
  0
LINE
  5
5E87
  8
01_FRAME0
 62
     7
 10
3843.6020209408089
 20
9221.6420804477639
 30
0.0
 11
3847.9754848813132
 21
9252.1577465347818
 31
0.0
  0
LINE
  5
5E88
  8
01_FRAME0
 62
     7
 10
3837.6816112519941
 20
9221.6420804477639
 30
0.0
 11
3843.6020209408089
 21
9221.6420804477639
 31
0.0
  0
LINE
  5
5E89
  8
01_FRAME0
 62
     7
 10
3847.9754848813132
 20
9252.1577465347818
 30
0.0
 11
3838.7320065541239
 21
9252.1577465347818
 31
0.0
  0
LINE
  5
5E8A
  8
01_FRAME0
 62
     7
 10
3832.7734005368711
 20
9229.5542607237294
 30
0.0
 11
3841.6540151529789
 21
9246.9341712149999
 31
0.0
  0
LINE
  5
5E8B
  8
01_FRAME0
 62
     7
 10
3824.1219632282978
 20
9247.0493971180149
 30
0.0
 11
3827.6742090084308
 21
9229.5542607237294
 31
0.0
  0
LINE
  5
5E8C
  8
01_FRAME0
 62
     7
 10
3831.3601415236599
 20
9237.5816669027172
 30
0.0
 11
3828.5909175754591
 21
9252.1577465347818
 31
0.0
  0
LINE
  5
5E8D
  8
01_FRAME0
 62
     7
 10
3838.7320065541239
 20
9252.1577465347818
 30
0.0
 11
3831.3601415236599
 21
9237.5816669027172
 31
0.0
  0
LINE
  5
5E8E
  8
01_FRAME0
 62
     7
 10
3827.6742090084308
 20
9229.5542607237294
 30
0.0
 11
3832.7734005368711
 21
9229.5542607237294
 31
0.0
  0
LINE
  5
5E8F
  8
01_FRAME0
 62
     7
 10
3851.6750806237619
 20
9240.8564516433216
 30
0.0
 11
3850.0602023488191
 21
9230.2466827551307
 31
0.0
  0
LINE
  5
5E90
  8
01_FRAME0
 62
     7
 10
3855.4094891605232
 20
9230.1313806916296
 30
0.0
 11
3855.9045235827148
 21
9234.0908017853762
 31
0.0
  0
LINE
  5
5E91
  8
01_FRAME0
 62
     7
 10
3856.740722902538
 20
9240.0775818781367
 30
0.0
 11
3856.4205162646022
 21
9237.3967237110137
 31
0.0
  0
LINE
  5
5E92
  8
01_FRAME0
 62
     7
 10
3898.6606150512089
 20
9240.8451500843494
 30
0.0
 11
3905.8898847878149
 21
9240.8451500843494
 31
0.0
  0
LINE
  5
5E93
  8
01_FRAME0
 62
     7
 10
3887.791418912379
 20
9226.7100930152101
 30
0.0
 11
3888.0221157377532
 21
9228.7090349772552
 31
0.0
  0
LINE
  5
5E94
  8
01_FRAME0
 62
     7
 10
3894.5195771626281
 20
9253.452428781562
 30
0.0
 11
3890.9634314635432
 21
9224.9290645990368
 31
0.0
  0
LINE
  5
5E95
  8
01_FRAME0
 62
     7
 10
3896.4146284334952
 20
9224.9290645990368
 30
0.0
 11
3898.6606150512089
 21
9240.8451500843494
 31
0.0
  0
LINE
  5
5E96
  8
01_FRAME0
 62
     7
 10
3867.1317722339868
 20
9226.7100930152137
 30
0.0
 11
3867.3624692251369
 21
9228.9396822351155
 31
0.0
  0
LINE
  5
5E97
  8
01_FRAME0
 62
     7
 10
3880.639815170699
 20
9225.0186806750589
 30
0.0
 11
3885.4378424483152
 21
9225.0186806750589
 31
0.0
  0
LINE
  5
5E98
  8
01_FRAME0
 62
     7
 10
3876.6410690371199
 20
9225.0186806750589
 30
0.0
 11
3880.639815170699
 21
9225.0186806750589
 31
0.0
  0
LINE
  5
5E99
  8
01_FRAME0
 62
     7
 10
3890.9634314635432
 20
9224.9290645990368
 30
0.0
 11
3896.4146284334952
 21
9224.9290645990368
 31
0.0
  0
LINE
  5
5E9A
  8
01_FRAME0
 62
     7
 10
3890.9634314635432
 20
9224.9290645990368
 30
0.0
 11
3890.9634314635432
 21
9224.9290645990368
 31
0.0
  0
LINE
  5
5E9B
  8
01_FRAME0
 62
     7
 10
3887.7146383113168
 20
9245.3925121155971
 30
0.0
 11
3880.1015224123871
 21
9245.3925121155971
 31
0.0
  0
LINE
  5
5E9C
  8
01_FRAME0
 62
     7
 10
3880.4091183453261
 20
9241.5483930853497
 30
0.0
 11
3890.1033209402322
 21
9241.5483930853497
 31
0.0
  0
LINE
  5
5E9D
  8
01_FRAME0
 62
     7
 10
3888.0595026747742
 20
9228.9396822351155
 30
0.0
 11
3880.639815170699
 21
9228.9396822351155
 31
0.0
  0
LINE
  5
5E9E
  8
01_FRAME0
 62
     7
 10
3868.515953683559
 20
9234.0908017853762
 30
0.0
 11
3869.5965045455532
 21
9241.3443645480656
 31
0.0
  0
LINE
  5
5E9F
  8
01_FRAME0
 62
     7
 10
3868.515953683559
 20
9234.0908017853762
 30
0.0
 11
3868.515953683559
 21
9234.0908017853762
 31
0.0
  0
LINE
  5
5EA0
  8
01_FRAME0
 62
     7
 10
3863.8767589634822
 20
9237.3967237110137
 30
0.0
 11
3864.2896121792269
 21
9240.397136427011
 31
0.0
  0
LINE
  5
5EA1
  8
01_FRAME0
 62
     7
 10
3873.8727064695331
 20
9240.8564516433216
 30
0.0
 11
3872.6423230693172
 21
9232.5531541732798
 31
0.0
  0
LINE
  5
5EA2
  8
01_FRAME0
 62
     7
 10
3877.6044451213352
 20
9230.1313806916296
 30
0.0
 11
3878.9480379539632
 21
9240.0876276714953
 31
0.0
  0
LINE
  5
5EA3
  8
01_FRAME0
 62
     7
 10
3872.6423230693172
 20
9232.5531541732798
 30
0.0
 11
3872.2578281945862
 21
9230.2466827551307
 31
0.0
  0
LINE
  5
5EA4
  8
01_FRAME0
 62
     7
 10
3880.639815170699
 20
9228.9396822351155
 30
0.0
 11
3879.3298629437381
 21
9228.9396822351155
 31
0.0
  0
LINE
  5
5EA5
  8
01_FRAME0
 62
     7
 10
3890.1033209402322
 20
9241.5483930853497
 30
0.0
 11
3890.3187705990899
 21
9242.8775437721924
 31
0.0
  0
LINE
  5
5EA6
  8
01_FRAME0
 62
     7
 10
3888.0221157377532
 20
9228.7090349772552
 30
0.0
 11
3888.0595026747742
 21
9228.9396822351155
 31
0.0
  0
LINE
  5
5EA7
  8
01_FRAME0
 62
     7
 10
3899.1269949578509
 20
9243.240059248501
 30
0.0
 11
3900.3451050144959
 21
9253.452428781562
 31
0.0
  0
LINE
  5
5EA8
  8
01_FRAME0
 62
     7
 10
3900.3451050144959
 20
9253.452428781562
 30
0.0
 11
3894.5195771626281
 21
9253.452428781562
 31
0.0
  0
LINE
  5
5EA9
  8
01_FRAME0
 62
     7
 10
3909.5630088253329
 20
9224.9290645990368
 30
0.0
 11
3911.5969003568312
 21
9241.0180866822193
 31
0.0
  0
LINE
  5
5EAA
  8
01_FRAME0
 62
     7
 10
3905.8898847878149
 20
9240.8451500843494
 30
0.0
 11
3903.877855012739
 21
9224.9290645990368
 31
0.0
  0
LINE
  5
5EAB
  8
01_FRAME0
 62
     7
 10
3919.4982513782461
 20
9221.6420804477639
 30
0.0
 11
3923.1077914023708
 21
9247.0493971180149
 31
0.0
  0
LINE
  5
5EAC
  8
01_FRAME0
 62
     7
 10
3918.1995808530269
 20
9252.1577465347818
 30
0.0
 11
3913.8834111565202
 21
9221.6420804477639
 31
0.0
  0
LINE
  5
5EAD
  8
01_FRAME0
 62
     7
 10
3903.877855012739
 20
9224.9290645990368
 30
0.0
 11
3909.5630088253329
 21
9224.9290645990368
 31
0.0
  0
LINE
  5
5EAE
  8
01_FRAME0
 62
     7
 10
3913.8834111565202
 20
9221.6420804477639
 30
0.0
 11
3919.4982513782461
 21
9221.6420804477639
 31
0.0
  0
LINE
  5
5EAF
  8
01_FRAME0
 62
     7
 10
3927.5767457495358
 20
9252.1577465347818
 30
0.0
 11
3918.1995808530269
 21
9252.1577465347818
 31
0.0
  0
LINE
  5
5EB0
  8
01_FRAME0
 62
     7
 10
3923.1077914023708
 20
9247.0493971180149
 30
0.0
 11
3926.6600371825061
 21
9229.5542607237294
 31
0.0
  0
LINE
  5
5EB1
  8
01_FRAME0
 62
     7
 10
3930.3459696977379
 20
9237.5816669027172
 30
0.0
 11
3927.5767457495358
 21
9252.1577465347818
 31
0.0
  0
LINE
  5
5EB2
  8
01_FRAME0
 62
     7
 10
3937.7178347282002
 20
9252.1577465347818
 30
0.0
 11
3930.3459696977379
 21
9237.5816669027172
 31
0.0
  0
LINE
  5
5EB3
  8
01_FRAME0
 62
     7
 10
3926.6600371825061
 20
9229.5542607237294
 30
0.0
 11
3931.7592287109492
 21
9229.5542607237294
 31
0.0
  0
LINE
  5
5EB4
  8
01_FRAME0
 62
     7
 10
3981.3950409675872
 20
9251.3782862696426
 30
0.0
 11
3976.2122072620218
 21
9250.7881541007064
 31
0.0
  0
LINE
  5
5EB5
  8
01_FRAME0
 62
     7
 10
3978.4346937200212
 20
9230.1203287937751
 30
0.0
 11
3980.0877586255838
 21
9241.7679882795765
 31
0.0
  0
LINE
  5
5EB6
  8
01_FRAME0
 62
     7
 10
3977.4731937757988
 20
9225.0076287772099
 30
0.0
 11
3982.8095137945702
 21
9225.0076287772099
 31
0.0
  0
LINE
  5
5EB7
  8
01_FRAME0
 62
     7
 10
3966.3145442430509
 20
9225.0883553589047
 30
0.0
 11
3966.1139415166731
 21
9227.3613633837667
 31
0.0
  0
ARC
  5
5EB8
  8
01_FRAME0
 62
     7
 10
3971.0945824790592
 20
9227.8009263528565
 30
0.0
 40
5.0
 50
171.34562025558941
 51
185.04353146784149
  0
LINE
  5
5EB9
  8
01_FRAME0
 62
     7
 10
3942.5878491148851
 20
9221.6420804477639
 30
0.0
 11
3946.961313055388
 21
9252.1577465347818
 31
0.0
  0
LINE
  5
5EBA
  8
01_FRAME0
 62
     7
 10
3953.0879224420992
 20
9225.0114728290991
 30
0.0
 11
3958.0094562087279
 21
9225.0114728290991
 31
0.0
  0
LINE
  5
5EBB
  8
01_FRAME0
 62
     7
 10
3961.0085157674671
 20
9225.0883553589047
 30
0.0
 11
3966.3145442430509
 21
9225.0883553589047
 31
0.0
  0
LINE
  5
5EBC
  8
01_FRAME0
 62
     7
 10
3977.4731937757988
 20
9225.0076287772099
 30
0.0
 11
3977.8576886505339
 21
9225.0076287772099
 31
0.0
  0
LINE
  5
5EBD
  8
01_FRAME0
 62
     7
 10
3961.9313034005149
 20
9237.3126542232258
 30
0.0
 11
3954.549002833463
 21
9237.3126542232258
 31
0.0
  0
LINE
  5
5EBE
  8
01_FRAME0
 62
     7
 10
3950.6271556416741
 20
9241.5411852393881
 30
0.0
 11
3961.0171414873212
 21
9241.5411852393881
 31
0.0
  0
LINE
  5
5EBF
  8
01_FRAME0
 62
     7
 10
3963.8684625520441
 20
9245.4621867994392
 30
0.0
 11
3953.2417204914618
 21
9245.4621867994392
 31
0.0
  0
LINE
  5
5EC0
  8
01_FRAME0
 62
     7
 10
3950.8578526328238
 20
9243.7707744592899
 30
0.0
 11
3950.6271556416741
 21
9241.5411852393881
 31
0.0
  0
LINE
  5
5EC1
  8
01_FRAME0
 62
     7
 10
3955.0100995764569
 20
9228.3043548514379
 30
0.0
 11
3958.7153489995039
 21
9228.2318992476976
 31
0.0
  0
LINE
  5
5EC2
  8
01_FRAME0
 62
     7
 10
3959.955142244723
 20
9233.7626786020792
 30
0.0
 11
3956.0164636745922
 21
9233.7626786020792
 31
0.0
  0
LINE
  5
5EC3
  8
01_FRAME0
 62
     7
 10
3971.7555297025192
 20
9245.5352251115783
 30
0.0
 11
3971.0905797835871
 21
9241.7679882795765
 31
0.0
  0
LINE
  5
5EC4
  8
01_FRAME0
 62
     7
 10
3966.1515124245511
 20
9228.5532949036369
 30
0.0
 11
3968.1090043203881
 21
9241.4140392319096
 31
0.0
  0
LINE
  5
5EC5
  8
01_FRAME0
 62
     7
 10
3960.7052053522698
 20
9230.1640492332554
 30
0.0
 11
3961.1518313499828
 21
9232.6331205788902
 31
0.0
  0
LINE
  5
5EC6
  8
01_FRAME0
 62
     7
 10
3962.3157981094719
 20
9240.0804199913109
 30
0.0
 11
3961.9313034005149
 21
9237.3126542232258
 31
0.0
  0
LINE
  5
5EC7
  8
01_FRAME0
 62
     7
 10
3962.3448710956341
 20
9240.4116272161973
 30
0.0
 11
3962.3157981094719
 21
9240.0804199913109
 31
0.0
  0
LINE
  5
5EC8
  8
01_FRAME0
 62
     7
 10
3974.8586290917938
 20
9241.7679882795765
 30
0.0
 11
3973.089952933266
 21
9230.2356308572798
 31
0.0
  0
LINE
  5
5EC9
  8
01_FRAME0
 62
     7
 10
3971.0905797835871
 20
9241.7679882795765
 30
0.0
 11
3974.8586290917938
 21
9241.7679882795765
 31
0.0
  0
LINE
  5
5ECA
  8
01_FRAME0
 62
     7
 10
3976.2122072620218
 20
9250.7881541007064
 30
0.0
 11
3975.3969218501088
 21
9245.5352251115783
 31
0.0
  0
LINE
  5
5ECB
  8
01_FRAME0
 62
     7
 10
3975.3969218501088
 20
9245.5352251115783
 30
0.0
 11
3971.7555297025192
 21
9245.5352251115783
 31
0.0
  0
LINE
  5
5ECC
  8
01_FRAME0
 62
     7
 10
3985.163090258638
 20
9226.6990411173629
 30
0.0
 11
3985.3937871011681
 21
9228.9286303372592
 31
0.0
  0
LINE
  5
5ECD
  8
01_FRAME0
 62
     7
 10
3987.0086653761118
 20
9241.7679882795765
 30
0.0
 11
3987.4700591926371
 21
9245.5352251115783
 31
0.0
  0
LINE
  5
5ECE
  8
01_FRAME0
 62
     7
 10
3985.3937871011681
 20
9228.9286303372592
 30
0.0
 11
3980.160111542431
 21
9228.9286303372592
 31
0.0
  0
LINE
  5
5ECF
  8
01_FRAME0
 62
     7
 10
3980.0877586255838
 20
9241.7679882795765
 30
0.0
 11
3987.0086653761118
 21
9241.7679882795765
 31
0.0
  0
LINE
  5
5ED0
  8
01_FRAME0
 62
     7
 10
3980.54915244211
 20
9245.5352251115783
 30
0.0
 11
3981.3950409675872
 21
9251.3782862696426
 31
0.0
  0
LINE
  5
5ED1
  8
01_FRAME0
 62
     7
 10
3987.4700591926371
 20
9245.5352251115783
 30
0.0
 11
3980.54915244211
 21
9245.5352251115783
 31
0.0
  0
ARC
  5
5ED2
  8
01_FRAME0
 62
     7
 10
3858.503944946372
 20
9239.8241745089563
 30
0.0
 40
1.7813386176174331
 50
129.9788673075646
 51
171.82154662075379
  0
ARC
  5
5ED3
  8
01_FRAME0
 62
     7
 10
3858.247123507183
 20
9240.1932538676192
 30
0.0
 40
1.334120835341543
 50
91.829758024394337
 51
131.71149876918531
  0
ARC
  5
5ED4
  8
01_FRAME0
 62
     7
 10
3880.7085380947451
 20
9239.8458731441096
 30
0.0
 40
1.7813386176174331
 50
129.9788673075646
 51
171.82154662075379
  0
ARC
  5
5ED5
  8
01_FRAME0
 62
     7
 10
3880.4517166555588
 20
9240.2149525027708
 30
0.0
 40
1.334120835341543
 50
91.829758024394337
 51
131.71149876918531
  0
ARC
  5
5ED6
  8
01_FRAME0
 62
     7
 10
3863.0274028224412
 20
9240.1584889811347
 30
0.0
 40
1.3697733786789601
 50
41.694258406646668
 51
92.741670228047298
  0
ARC
  5
5ED7
  8
01_FRAME0
 62
     7
 10
3863.3418283418132
 20
9240.4385753844435
 30
0.0
 40
0.9486893009083603
 50
357.49651121804158
 51
41.694258406663998
  0
ARC
  5
5ED8
  8
01_FRAME0
 62
     7
 10
3961.082661738847
 20
9240.1729797703192
 30
0.0
 40
1.3697733786789601
 50
41.694258406646668
 51
92.741670228047298
  0
ARC
  5
5ED9
  8
01_FRAME0
 62
     7
 10
3961.3970872582199
 20
9240.4530661736317
 30
0.0
 40
0.9486893009083603
 50
357.49651121804158
 51
41.694258406663998
  0
ARC
  5
5EDA
  8
01_FRAME0
 62
     7
 10
3857.1240264576081
 20
9231.431430220322
 30
0.0
 40
2.4917717406737361
 50
242.0549458701133
 51
270.25018750738542
  0
ARC
  5
5EDB
  8
01_FRAME0
 62
     7
 10
3856.438603800852
 20
9230.1393499936694
 30
0.0
 40
1.0291454963783411
 50
180.4436806435252
 51
242.0549458701133
  0
ARC
  5
5EDC
  8
01_FRAME0
 62
     7
 10
3879.3189824184192
 20
9231.431430220322
 30
0.0
 40
2.4917717406737361
 50
242.0549458701133
 51
270.25018750738542
  0
ARC
  5
5EDD
  8
01_FRAME0
 62
     7
 10
3878.6335597616639
 20
9230.1393499936694
 30
0.0
 40
1.0291454963783411
 50
180.4436806435252
 51
242.0549458701133
  0
ARC
  5
5EDE
  8
01_FRAME0
 62
     7
 10
3856.5451466174791
 20
9240.0828214384346
 30
0.0
 40
4.9311303447668831
 50
116.4343118930764
 51
170.97374799138291
  0
ARC
  5
5EDF
  8
01_FRAME0
 62
     7
 10
3858.1752188801661
 20
9236.8039938707097
 30
0.0
 40
8.592802886170217
 50
91.809445418565659
 51
116.4343118930764
  0
ARC
  5
5EE0
  8
01_FRAME0
 62
     7
 10
3878.7427724632498
 20
9240.0828214384346
 30
0.0
 40
4.9311303447668831
 50
116.4343118930764
 51
170.97374799138291
  0
ARC
  5
5EE1
  8
01_FRAME0
 62
     7
 10
3880.372844725935
 20
9236.8039938707097
 30
0.0
 40
8.592802886170217
 50
91.809445418565659
 51
116.4343118930764
  0
ARC
  5
5EE2
  8
01_FRAME0
 62
     7
 10
3864.8596862218042
 20
9239.8829012680781
 30
0.0
 40
5.5319166760333651
 50
44.532575507595418
 51
84.852989749610956
  0
ARC
  5
5EE3
  8
01_FRAME0
 62
     7
 10
3866.7607500872341
 20
9241.7531973330661
 30
0.0
 40
2.86507375017873
 50
351.79615361502368
 51
44.532575507595418
  0
ARC
  5
5EE4
  8
01_FRAME0
 62
     7
 10
3854.519250215048
 20
9229.4613304134073
 30
0.0
 40
4.4432964567391231
 50
213.37814014438621
 51
269.02243001410022
  0
ARC
  5
5EE5
  8
01_FRAME0
 62
     7
 10
3854.7936635043702
 20
9229.6421224613696
 30
0.0
 40
4.7719123692622603
 50
172.72155707448329
 51
213.37814014438621
  0
ARC
  5
5EE6
  8
01_FRAME0
 62
     7
 10
3864.7630500726341
 20
9227.8010437128014
 30
0.0
 40
2.782404259976599
 50
269.68811547988651
 51
309.8515984333356
  0
ARC
  5
5EE7
  8
01_FRAME0
 62
     7
 10
3865.468958887142
 20
9226.9553354704512
 30
0.0
 40
1.6808010257913211
 50
309.8515984333356
 51
351.6101322180225
  0
ARC
  5
5EE8
  8
01_FRAME0
 62
     7
 10
3876.7168760608151
 20
9229.4613304134073
 30
0.0
 40
4.4432964567391231
 50
213.37814014438621
 51
269.02243001410022
  0
ARC
  5
5EE9
  8
01_FRAME0
 62
     7
 10
3876.9912893501391
 20
9229.6421224613696
 30
0.0
 40
4.7719123692622603
 50
172.72155707448329
 51
213.37814014438621
  0
ARC
  5
5EEA
  8
01_FRAME0
 62
     7
 10
3885.4226967510281
 20
9227.8010437128014
 30
0.0
 40
2.782404259976599
 50
269.68811547988651
 51
309.8515984333356
  0
ARC
  5
5EEB
  8
01_FRAME0
 62
     7
 10
3886.1286055655341
 20
9226.9553354704512
 30
0.0
 40
1.6808010257913211
 50
309.8515984333356
 51
351.6101322180225
  0
ARC
  5
5EEC
  8
01_FRAME0
 62
     7
 10
3887.790666609078
 20
9242.7848686122015
 30
0.0
 40
2.6087516062040841
 50
29.017138568455231
 51
91.670039206039633
  0
ARC
  5
5EED
  8
01_FRAME0
 62
     7
 10
3888.293113725445
 20
9243.0635761026606
 30
0.0
 40
2.034181358120112
 50
354.75278767927171
 51
29.017138568455231
  0
LINE
  5
5EEE
  8
01_FRAME0
 62
     7
 10
3995.0914291847162
 20
9234.0908017853762
 30
0.0
 11
4007.7028592855609
 21
9234.0908017853762
 31
0.0
  0
LINE
  5
5EEF
  8
01_FRAME0
 62
     7
 10
4006.549374827136
 20
9228.9396822351155
 30
0.0
 11
3996.3218125849271
 21
9228.9396822351155
 31
0.0
  0
LINE
  5
5EF0
  8
01_FRAME0
 62
     7
 10
3993.6303487933542
 20
9225.0186806750589
 30
0.0
 11
4003.965101371909
 21
9225.0186806750589
 31
0.0
  0
LINE
  5
5EF1
  8
01_FRAME0
 62
     7
 10
4004.542868379207
 20
9245.3925121155971
 30
0.0
 11
3997.0908021686168
 21
9245.3925121155971
 31
0.0
  0
LINE
  5
5EF2
  8
01_FRAME0
 62
     7
 10
3995.6074218666031
 20
9237.3967237110137
 30
0.0
 11
4003.063664565479
 21
9237.3967237110137
 31
0.0
  0
LINE
  5
5EF3
  8
01_FRAME0
 62
     7
 10
4002.1487881729158
 20
9241.5266944501964
 30
0.0
 11
3997.3914307989521
 21
9241.5266944501964
 31
0.0
  0
LINE
  5
5EF4
  8
01_FRAME0
 62
     7
 10
3990.8619862257628
 20
9240.8564516433216
 30
0.0
 11
3989.24710795082
 21
9230.2466827551307
 31
0.0
  0
LINE
  5
5EF5
  8
01_FRAME0
 62
     7
 10
3994.5963947625228
 20
9230.1313806916296
 30
0.0
 11
3995.0914291847162
 21
9234.0908017853762
 31
0.0
  0
LINE
  5
5EF6
  8
01_FRAME0
 62
     7
 10
3995.9276285045389
 20
9240.0775818781367
 30
0.0
 11
3995.6074218666031
 21
9237.3967237110137
 31
0.0
  0
LINE
  5
5EF7
  8
01_FRAME0
 62
     7
 10
4006.3186778359868
 20
9226.7100930152137
 30
0.0
 11
4006.549374827136
 21
9228.9396822351155
 31
0.0
  0
LINE
  5
5EF8
  8
01_FRAME0
 62
     7
 10
4007.7028592855609
 20
9234.0908017853762
 30
0.0
 11
4008.7834101475519
 21
9241.3443645480656
 31
0.0
  0
LINE
  5
5EF9
  8
01_FRAME0
 62
     7
 10
4007.7028592855609
 20
9234.0908017853762
 30
0.0
 11
4007.7028592855609
 21
9234.0908017853762
 31
0.0
  0
LINE
  5
5EFA
  8
01_FRAME0
 62
     7
 10
4003.063664565479
 20
9237.3967237110137
 30
0.0
 11
4003.4765177812292
 21
9240.397136427011
 31
0.0
  0
ARC
  5
5EFB
  8
01_FRAME0
 62
     7
 10
3997.6908505483721
 20
9239.8241745089563
 30
0.0
 40
1.7813386176174331
 50
129.9788673075646
 51
171.82154662075379
  0
ARC
  5
5EFC
  8
01_FRAME0
 62
     7
 10
3997.434029109183
 20
9240.1932538676192
 30
0.0
 40
1.334120835341543
 50
91.829758024394337
 51
131.71149876918531
  0
ARC
  5
5EFD
  8
01_FRAME0
 62
     7
 10
4002.2143084244408
 20
9240.1584889811347
 30
0.0
 40
1.3697733786789601
 50
41.694258406646668
 51
92.741670228047298
  0
ARC
  5
5EFE
  8
01_FRAME0
 62
     7
 10
4002.5287339438132
 20
9240.4385753844435
 30
0.0
 40
0.9486893009083603
 50
357.49651121804158
 51
41.694258406663998
  0
ARC
  5
5EFF
  8
01_FRAME0
 62
     7
 10
3996.3109320596091
 20
9231.431430220322
 30
0.0
 40
2.4917717406737361
 50
242.0549458701133
 51
270.25018750738542
  0
ARC
  5
5F00
  8
01_FRAME0
 62
     7
 10
3995.6255094028538
 20
9230.1393499936694
 30
0.0
 40
1.0291454963783411
 50
180.4436806435252
 51
242.0549458701133
  0
ARC
  5
5F01
  8
01_FRAME0
 62
     7
 10
3995.73205221948
 20
9240.0828214384346
 30
0.0
 40
4.9311303447668831
 50
116.4343118930764
 51
170.97374799138291
  0
ARC
  5
5F02
  8
01_FRAME0
 62
     7
 10
3997.362124482167
 20
9236.8039938707097
 30
0.0
 40
8.592802886170217
 50
91.809445418565659
 51
116.4343118930764
  0
ARC
  5
5F03
  8
01_FRAME0
 62
     7
 10
4004.0465918238028
 20
9239.8829012680781
 30
0.0
 40
5.5319166760333651
 50
44.532575507595418
 51
84.852989749610956
  0
ARC
  5
5F04
  8
01_FRAME0
 62
     7
 10
4005.9476556892359
 20
9241.7531973330661
 30
0.0
 40
2.86507375017873
 50
351.79615361502368
 51
44.532575507595418
  0
ARC
  5
5F05
  8
01_FRAME0
 62
     7
 10
3993.706155817049
 20
9229.4613304134073
 30
0.0
 40
4.4432964567391231
 50
213.37814014438621
 51
269.02243001410022
  0
ARC
  5
5F06
  8
01_FRAME0
 62
     7
 10
3993.9805691063711
 20
9229.6421224613696
 30
0.0
 40
4.7719123692622603
 50
172.72155707448329
 51
213.37814014438621
  0
ARC
  5
5F07
  8
01_FRAME0
 62
     7
 10
4003.9499556746341
 20
9227.8010437128014
 30
0.0
 40
2.782404259976599
 50
269.68811547988651
 51
309.8515984333356
  0
ARC
  5
5F08
  8
01_FRAME0
 62
     7
 10
4004.6558644891411
 20
9226.9553354704512
 30
0.0
 40
1.6808010257913211
 50
309.8515984333356
 51
351.6101322180225
  0
LINE
  5
5F09
  8
01_FRAME0
 62
     7
 10
3904.9758729927789
 20
9245.3925121155971
 30
0.0
 11
3908.1648445747678
 21
9245.3925121155971
 31
0.0
  0
ARC
  5
5F0A
  8
01_FRAME0
 62
     7
 10
3907.23525725936
 20
9241.3106725887374
 30
0.0
 40
4.371445644454063
 50
356.16225827570872
 51
57.030568872304663
  0
ARC
  5
5F0B
  8
01_FRAME0
 62
     7
 10
3908.212424613268
 20
9242.8171373581772
 30
0.0
 40
2.5758142404291871
 50
57.030568872304663
 51
91.058418890025166
  0
ARC
  5
5F0C
  8
01_FRAME0
 62
     7
 10
3905.3619248155628
 20
9233.9581251161071
 30
0.0
 40
11.440902152536321
 50
91.933705877924496
 51
118.1284095955139
  0
ARC
  5
5F0D
  8
01_FRAME0
 62
     7
 10
3900.983283256488
 20
9242.1488148352746
 30
0.0
 40
2.1532813603997241
 50
118.1284095955139
 51
149.5502773796284
  0
ARC
  5
5F0E
  8
01_FRAME0
 62
     7
 10
3982.794368097288
 20
9227.7899918149524
 30
0.0
 40
2.782404259976599
 50
269.68811547988651
 51
309.8515984333356
  0
ARC
  5
5F0F
  8
01_FRAME0
 62
     7
 10
3983.5002769117941
 20
9226.9442835726077
 30
0.0
 40
1.6808010257913211
 50
309.8515984333356
 51
351.6101322180225
  0
ARC
  5
5F10
  8
01_FRAME0
 62
     7
 10
3977.549000799494
 20
9229.4502785155564
 30
0.0
 40
4.4432964567391231
 50
213.37814014438621
 51
269.02243001410022
  0
ARC
  5
5F11
  8
01_FRAME0
 62
     7
 10
3977.823414088818
 20
9229.6310705635206
 30
0.0
 40
4.7719123692622603
 50
172.72155707448329
 51
213.37814014438621
  0
ARC
  5
5F12
  8
01_FRAME0
 62
     7
 10
3980.1492310171052
 20
9231.4203783224712
 30
0.0
 40
2.4917717406737361
 50
242.0549458701133
 51
270.25018750738542
  0
ARC
  5
5F13
  8
01_FRAME0
 62
     7
 10
3979.4638083603481
 20
9230.1282980958149
 30
0.0
 40
1.0291454963783411
 50
180.4436806435252
 51
242.0549458701133
  0
ARC
  5
5F14
  8
01_FRAME0
 62
     7
 10
3963.3721859966372
 20
9239.9525759519238
 30
0.0
 40
5.5319166760333651
 50
44.532575507595418
 51
84.852989749610956
  0
ARC
  5
5F15
  8
01_FRAME0
 62
     7
 10
3965.2732498620699
 20
9241.8228720169081
 30
0.0
 40
2.86507375017873
 50
351.79615361502368
 51
44.532575507595418
  0
ARC
  5
5F16
  8
01_FRAME0
 62
     7
 10
3953.2350820210631
 20
9242.7004376878667
 30
0.0
 40
2.761757090070398
 50
89.862277278542336
 51
130.98420927748609
  0
ARC
  5
5F17
  8
01_FRAME0
 62
     7
 10
3952.5450492931732
 20
9243.494671516286
 30
0.0
 40
1.7096389694392231
 50
130.98420927748609
 51
170.70615505540789
  0
ARC
  5
5F18
  8
01_FRAME0
 62
     7
 10
3965.7308568821732
 20
9227.5598084456033
 30
0.0
 40
5.3299705405753901
 50
189.25185122402681
 51
207.62546243343959
  0
ARC
  5
5F19
  8
01_FRAME0
 62
     7
 10
3957.3721244063222
 20
9228.5744414572309
 30
0.0
 40
3.6195216909689001
 50
280.14161684226048
 51
328.86389698778959
  0
ARC
  5
5F1A
  8
01_FRAME0
 62
     7
 10
3954.6829249927741
 20
9230.9793836550452
 30
0.0
 40
6.3346863564448332
 50
91.211385343645844
 51
150.30133372254099
  0
ARC
  5
5F1B
  8
01_FRAME0
 62
     7
 10
3957.2778375288608
 20
9229.4993517311195
 30
0.0
 40
9.322003809576028
 50
150.30133372254099
 51
172.8407731250569
  0
ARC
  5
5F1C
  8
01_FRAME0
 62
     7
 10
3953.8148991274879
 20
9229.9343191688167
 30
0.0
 40
5.8318549526417192
 50
172.8407731250569
 51
205.6306489595861
  0
ARC
  5
5F1D
  8
01_FRAME0
 62
     7
 10
3951.4192687176178
 20
9228.7849493351787
 30
0.0
 40
3.1747708224020381
 50
205.6306489595861
 51
237.51101652280329
  0
ARC
  5
5F1E
  8
01_FRAME0
 62
     7
 10
3953.5191592385481
 20
9232.0825161958473
 30
0.0
 40
7.084180931417106
 50
237.51101652280329
 51
266.5100646608737
  0
ARC
  5
5F1F
  8
01_FRAME0
 62
     7
 10
3959.8896219931971
 20
9232.3944731330157
 30
0.0
 40
1.3697733786789601
 50
41.694258406646668
 51
92.741670228047298
  0
ARC
  5
5F20
  8
01_FRAME0
 62
     7
 10
3960.2040475125691
 20
9232.6745595363263
 30
0.0
 40
0.9486893009083603
 50
357.49651121804158
 51
41.694258406663998
  0
ARC
  5
5F21
  8
01_FRAME0
 62
     7
 10
3958.3317069009859
 20
9230.5351808365958
 30
0.0
 40
2.335013348462692
 50
279.45655767728039
 51
324.92940398283741
  0
ARC
  5
5F22
  8
01_FRAME0
 62
     7
 10
3957.6033158352639
 20
9231.0465444051697
 30
0.0
 40
3.2249831478877442
 50
324.92940398283741
 51
344.11881738720848
  0
ARC
  5
5F23
  8
01_FRAME0
 62
     7
 10
3955.9872887467691
 20
9231.1697837912234
 30
0.0
 40
2.5930589419808752
 50
89.355342266111919
 51
126.25017530153811
  0
ARC
  5
5F24
  8
01_FRAME0
 62
     7
 10
3955.5648002629891
 20
9231.7759359430802
 30
0.0
 40
1.8544939344785201
 50
126.79741703497891
 51
163.58374767656801
  0
ARC
  5
5F25
  8
01_FRAME0
 62
     7
 10
3935.4032938665669
 20
9237.0232362964234
 30
0.0
 40
18.979700613649172
 50
343.74206189479008
 51
345.59022698623801
  0
ARC
  5
5F26
  8
01_FRAME0
 62
     7
 10
3958.9917472058819
 20
9230.2500783185606
 30
0.0
 40
5.5626301394637343
 50
164.78824619774201
 51
186.8201458581274
  0
ARC
  5
5F27
  8
01_FRAME0
 62
     7
 10
3954.7609527611521
 20
9229.7064702121697
 30
0.0
 40
1.2977557747008901
 50
185.1712957963172
 51
236.501382549211
  0
ARC
  5
5F28
  8
01_FRAME0
 62
     7
 10
3955.117601210804
 20
9230.2453354927402
 30
0.0
 40
1.943955362475676
 50
236.501382549211
 51
266.8298996125319
  0
TEXT
  5
5F29
  8
01_FRAME
 62
     7
 10
3993.7079140358692
 20
9331.3878477773796
 30
0.0
 40
10.0
  1
Deleted slots for geared screw heads
  7
MECHTRONICS
  0
TEXT
  5
5F2A
  8
62_TEXT
 10
4236.9638505841267
 20
9331.3878477773796
 30
0.0
 40
10.0
  1
17-04-08
  7
MECHTRONICS
  0
TEXT
  5
5F2B
  8
01_FRAME
 62
     7
 10
4306.7868433967924
 20
9331.1520020950156
 30
0.0
 40
10.0
  1
B
  7
MECHTRONICS
  0
LINE
  5
5F2C
  8
01_FRAME
 62
     7
 10
3632.6411307487379
 20
9780.1765159702682
 30
0.0
 11
3637.750839116427
 21
9789.0267904749635
 31
0.0
  0
LINE
  5
5F2D
  8
01_FRAME
 62
     7
 10
3632.6411307487379
 20
9780.1765159702682
 30
0.0
 11
3642.8605474841138
 21
9780.1765159702682
 31
0.0
  0
LINE
  5
5F2E
  8
01_FRAME
 62
     7
 10
3642.8605474841138
 20
9780.1765159702682
 30
0.0
 11
3637.750839116427
 21
9789.0267904749635
 31
0.0
  0
TEXT
  5
5F2F
  8
01_FRAME
 62
     7
 10
3635.1649215136881
 20
9780.714145186259
 30
0.0
 40
5.0
  1
B
  7
MECHTRONICS
  0
LINE
  5
5F30
  8
01_FRAME
 62
     7
 10
3291.2754840570842
 20
9321.2497172940075
 30
0.0
 11
3296.3851924247729
 21
9330.0999917987028
 31
0.0
  0
LINE
  5
5F31
  8
01_FRAME
 62
     7
 10
3291.2754840570842
 20
9321.2497172940075
 30
0.0
 11
3301.4949007924602
 21
9321.2497172940075
 31
0.0
  0
LINE
  5
5F32
  8
01_FRAME
 62
     7
 10
3301.4949007924602
 20
9321.2497172940075
 30
0.0
 11
3296.3851924247729
 21
9330.0999917987028
 31
0.0
  0
TEXT
  5
5F33
  8
01_FRAME
 62
     7
 10
3293.7992748220349
 20
9321.7873465100038
 30
0.0
 40
5.0
  1
B
  7
MECHTRONICS
  0
LINE
  5
5F34
  8
01_FRAME
 62
     7
 10
3363.9927521253071
 20
9321.2497172940075
 30
0.0
 11
3369.1024604929949
 21
9330.0999917987028
 31
0.0
  0
LINE
  5
5F35
  8
01_FRAME
 62
     7
 10
3363.9927521253071
 20
9321.2497172940075
 30
0.0
 11
3374.2121688606821
 21
9321.2497172940075
 31
0.0
  0
LINE
  5
5F36
  8
01_FRAME
 62
     7
 10
3374.2121688606821
 20
9321.2497172940075
 30
0.0
 11
3369.1024604929949
 21
9330.0999917987028
 31
0.0
  0
TEXT
  5
5F37
  8
01_FRAME
 62
     7
 10
3366.5165428902578
 20
9321.7873465100038
 30
0.0
 40
5.0
  1
B
  7
MECHTRONICS
  0
CIRCLE
  5
5F38
  8
10_OUTLINE
 62
     2
 10
3584.2079815778361
 20
9892.6024108947258
 30
0.0
 40
10.0
  0
LINE
  5
5F39
  8
01_FRAME
 62
     7
 10
3597.5443251578172
 20
9887.0207651225792
 30
0.0
 11
3602.6540335255031
 21
9895.8710396272709
 31
0.0
  0
LINE
  5
5F3A
  8
01_FRAME
 62
     7
 10
3597.5443251578172
 20
9887.0207651225792
 30
0.0
 11
3607.7637418931922
 21
9887.0207651225792
 31
0.0
  0
LINE
  5
5F3B
  8
01_FRAME
 62
     7
 10
3607.7637418931922
 20
9887.0207651225792
 30
0.0
 11
3602.6540335255031
 21
9895.8710396272709
 31
0.0
  0
TEXT
  5
5F3C
  8
01_FRAME
 62
     7
 10
3600.0681159227661
 20
9887.5583943385718
 30
0.0
 40
5.0
  1
C
  7
MECHTRONICS
  0
ENDSEC
  0
EOF
