  0
SECTION
  2
HEADER
  9
$ACADVER
  1
AC1009
  9
$INSBASE
 10
0.0
 20
0.0
 30
0.0
  9
$EXTMIN
 10
1412.135483202296
 20
1579.0677851850121
 30
0.0
  9
$EXTMAX
 10
2221.0342614223482
 20
2159.2269956050759
 30
0.0
  9
$LIMMIN
 10
0.0
 20
0.0
  9
$LIMMAX
 10
0.0
 20
0.0
  9
$ORTHOMODE
 70
     0
  9
$REGENMODE
 70
     1
  9
$FILLMODE
 70
     1
  9
$QTEXTMODE
 70
     0
  9
$MIRRTEXT
 70
     1
  9
$DRAGMODE
 70
     2
  9
$LTSCALE
 40
100.0
  9
$OSMODE
 70
    47
  9
$ATTMODE
 70
     1
  9
$TEXTSIZE
 40
2.0
  9
$TRACEWID
 40
0.05
  9
$TEXTSTYLE
  7
MECHTRONICS
  9
$CLAYER
  8
0
  9
$CELTYPE
  6
BYLAYER
  9
$CECOLOR
 62
   256
  9
$DIMSCALE
 40
3.0
  9
$DIMASZ
 40
2.0
  9
$DIMEXO
 40
1.0
  9
$DIMDLI
 40
6.0
  9
$DIMRND
 40
0.0
  9
$DIMDLE
 40
0.0
  9
$DIMEXE
 40
0.5
  9
$DIMTP
 40
0.0
  9
$DIMTM
 40
0.0
  9
$DIMTXT
 40
0.6
  9
$DIMCEN
 40
0.09
  9
$DIMTSZ
 40
0.0
  9
$DIMTOL
 70
     0
  9
$DIMLIM
 70
     0
  9
$DIMTIH
 70
     0
  9
$DIMTOH
 70
     1
  9
$DIMSE1
 70
     0
  9
$DIMSE2
 70
     0
  9
$DIMTAD
 70
     0
  9
$DIMZIN
 70
     0
  9
$DIMBLK
  1

  9
$DIMASO
 70
     1
  9
$DIMSHO
 70
     1
  9
$DIMPOST
  1

  9
$DIMAPOST
  1
"
  9
$DIMALT
 70
     1
  9
$DIMALTD
 70
     1
  9
$DIMALTF
 40
0.03937
  9
$DIMLFAC
 40
1.0
  9
$DIMTOFL
 70
     0
  9
$DIMTVP
 40
0.0
  9
$DIMTIX
 70
     0
  9
$DIMSOXD
 70
     0
  9
$DIMSAH
 70
     0
  9
$DIMBLK1
  1

  9
$DIMBLK2
  1

  9
$DIMSTYLE
  2
MECHTRONICS
  9
$DIMCLRD
 70
     7
  9
$DIMCLRE
 70
     7
  9
$DIMCLRT
 70
     0
  9
$DIMTFAC
 40
1.0
  9
$DIMGAP
 40
0.5
  9
$LUNITS
 70
     2
  9
$LUPREC
 70
    10
  9
$SKETCHINC
 40
0.1
  9
$FILLETRAD
 40
0.0
  9
$AUNITS
 70
     0
  9
$AUPREC
 70
     0
  9
$MENU
  1
acad
  9
$ELEVATION
 40
0.0
  9
$PELEVATION
 40
0.0
  9
$THICKNESS
 40
0.0
  9
$LIMCHECK
 70
     0
  9
$BLIPMODE
 70
     0
  9
$CHAMFERA
 40
0.0
  9
$CHAMFERB
 40
0.0
  9
$SKPOLY
 70
     0
  9
$TDCREATE
 40
2444972.083333333
  9
$TDUPDATE
 40
2454646.832110093
  9
$TDINDWG
 40
0.9695992708
  9
$TDUSRTIMER
 40
0.9695992708
  9
$USRTIMER
 70
     1
  9
$ANGBASE
 50
0.0
  9
$ANGDIR
 70
     0
  9
$PDMODE
 70
     0
  9
$PDSIZE
 40
0.0
  9
$PLINEWID
 40
0.0
  9
$COORDS
 70
     1
  9
$SPLFRAME
 70
     0
  9
$SPLINETYPE
 70
     6
  9
$SPLINESEGS
 70
     8
  9
$ATTDIA
 70
     0
  9
$ATTREQ
 70
     1
  9
$HANDLING
 70
     1
  9
$HANDSEED
  5
640D
  9
$SURFTAB1
 70
     6
  9
$SURFTAB2
 70
     6
  9
$SURFTYPE
 70
     6
  9
$SURFU
 70
     6
  9
$SURFV
 70
     6
  9
$UCSNAME
  2

  9
$UCSORG
 10
0.0
 20
0.0
 30
0.0
  9
$UCSXDIR
 10
1.0
 20
0.0
 30
0.0
  9
$UCSYDIR
 10
0.0
 20
1.0
 30
0.0
  9
$PUCSNAME
  2

  9
$PUCSORG
 10
0.0
 20
0.0
 30
0.0
  9
$PUCSXDIR
 10
1.0
 20
0.0
 30
0.0
  9
$PUCSYDIR
 10
0.0
 20
1.0
 30
0.0
  9
$USERI1
 70
     0
  9
$USERI2
 70
     0
  9
$USERI3
 70
     0
  9
$USERI4
 70
     0
  9
$USERI5
 70
     0
  9
$USERR1
 40
0.0
  9
$USERR2
 40
0.0
  9
$USERR3
 40
0.0
  9
$USERR4
 40
0.0
  9
$USERR5
 40
0.0
  9
$WORLDVIEW
 70
     1
  9
$SHADEDGE
 70
     3
  9
$SHADEDIF
 70
    70
  9
$TILEMODE
 70
     1
  9
$MAXACTVP
 70
    16
  9
$PLIMCHECK
 70
     0
  9
$PEXTMIN
 10
1.0887500995726069
 20
0.7937499998122686
 30
0.0
  9
$PEXTMAX
 10
21.184573317709511
 20
7.1437499983104198
 30
0.0
  9
$PLIMMIN
 10
0.0
 20
0.0
  9
$PLIMMAX
 10
12.0
 20
9.0
  9
$UNITMODE
 70
     0
  9
$VISRETAIN
 70
     0
  9
$PLINEGEN
 70
     1
  9
$PSLTSCALE
 70
     0
  0
ENDSEC
  0
SECTION
  2
TABLES
  0
TABLE
  2
VPORT
 70
     2
  0
VPORT
  2
*ACTIVE
 70
     0
 10
0.0
 20
0.0
 11
1.0
 21
1.0
 12
1937.868802916797
 22
1869.0575421730639
 13
0.0
 23
0.0
 14
1.0
 24
1.0
 15
0.0
 25
0.0
 16
0.0
 26
0.0
 36
1.0
 17
0.0
 27
0.0
 37
0.0
 40
607.73577994167613
 41
1.7423423423423421
 42
50.0
 43
0.0
 44
0.0
 50
0.0
 51
0.0
 71
     0
 72
   100
 73
     1
 74
     0
 75
     0
 76
     0
 77
     0
 78
     0
  0
ENDTAB
  0
TABLE
  2
LTYPE
 70
     1
  0
LTYPE
  2
CONTINUOUS
 70
     0
  3
Solid line
 72
    65
 73
     0
 40
0.0
  0
ENDTAB
  0
TABLE
  2
LAYER
 70
     6
  0
LAYER
  2
0
 70
     0
 62
   221
  6
CONTINUOUS
  0
LAYER
  2
50_DIMENSIONS
 70
     0
 62
     7
  6
CONTINUOUS
  0
LAYER
  2
10_OUTLINE
 70
     0
 62
     2
  6
CONTINUOUS
  0
LAYER
  2
62_TEXT
 70
     0
 62
     7
  6
CONTINUOUS
  0
LAYER
  2
01_FRAME
 70
     0
 62
     4
  6
CONTINUOUS
  0
LAYER
  2
DEFPOINTS
 70
     0
 62
     7
  6
CONTINUOUS
  0
ENDTAB
  0
TABLE
  2
STYLE
 70
     2
  0
STYLE
  2
STANDARD
 70
     0
 40
0.0
 41
1.0
 50
0.0
 71
     0
 42
1.345608723561553
  3
txt
  4

  0
STYLE
  2
MECHTRONICS
 70
     0
 40
6.0
 41
1.0
 50
0.0
 71
     0
 42
2.0
  3
txt
  4

  0
ENDTAB
  0
TABLE
  2
VIEW
 70
     0
  0
ENDTAB
  0
TABLE
  2
UCS
 70
    16
  0
UCS
  2
AUDIT_D_000731094948-0
 70
     0
 10
0.0
 20
0.0
 30
1.0
 11
1.0
 21
0.0
 31
0.0
 12
0.0
 22
1.0
 32
0.0
  0
UCS
  2
AUDIT_D_000731094948-1
 70
     0
 10
0.0
 20
0.0
 30
1.0
 11
1.0
 21
0.0
 31
0.0
 12
0.0
 22
1.0
 32
0.0
  0
UCS
  2
AUDIT_D_000731094948-2
 70
     0
 10
0.0
 20
0.0
 30
1.0
 11
1.0
 21
0.0
 31
0.0
 12
0.0
 22
1.0
 32
0.0
  0
UCS
  2
AUDIT_D_000731094948-3
 70
     0
 10
0.0
 20
0.0
 30
1.0
 11
1.0
 21
0.0
 31
0.0
 12
0.0
 22
1.0
 32
0.0
  0
UCS
  2
AUDIT_D_000731094948-4
 70
     0
 10
0.0
 20
0.0
 30
1.0
 11
1.0
 21
0.0
 31
0.0
 12
0.0
 22
1.0
 32
0.0
  0
UCS
  2
AUDIT_D_000731094948-5
 70
     0
 10
0.0
 20
0.0
 30
1.0
 11
1.0
 21
0.0
 31
0.0
 12
0.0
 22
1.0
 32
0.0
  0
UCS
  2
AUDIT_D_000731094948-6
 70
     0
 10
0.0
 20
0.0
 30
1.0
 11
1.0
 21
0.0
 31
0.0
 12
0.0
 22
1.0
 32
0.0
  0
UCS
  2
AUDIT_D_000731094948-7
 70
     0
 10
0.0
 20
0.0
 30
1.0
 11
1.0
 21
0.0
 31
0.0
 12
0.0
 22
1.0
 32
0.0
  0
UCS
  2
AUDIT_D_000731094948-8
 70
     0
 10
0.0
 20
0.0
 30
1.0
 11
1.0
 21
0.0
 31
0.0
 12
0.0
 22
1.0
 32
0.0
  0
UCS
  2
AUDIT_D_000731094948-9
 70
     0
 10
0.0
 20
0.0
 30
1.0
 11
1.0
 21
0.0
 31
0.0
 12
0.0
 22
1.0
 32
0.0
  0
UCS
  2
AUDIT_D_000731094948-10
 70
     0
 10
0.0
 20
0.0
 30
1.0
 11
1.0
 21
0.0
 31
0.0
 12
0.0
 22
1.0
 32
0.0
  0
UCS
  2
AUDIT_D_000731094948-11
 70
     0
 10
0.0
 20
0.0
 30
1.0
 11
1.0
 21
0.0
 31
0.0
 12
0.0
 22
1.0
 32
0.0
  0
UCS
  2
AUDIT_D_000731094948-12
 70
     0
 10
0.0
 20
0.0
 30
1.0
 11
1.0
 21
0.0
 31
0.0
 12
0.0
 22
1.0
 32
0.0
  0
UCS
  2
AUDIT_D_000731094948-13
 70
     0
 10
0.0
 20
0.0
 30
1.0
 11
1.0
 21
0.0
 31
0.0
 12
0.0
 22
1.0
 32
0.0
  0
UCS
  2
AUDIT_D_000731094948-14
 70
     0
 10
0.0
 20
0.0
 30
1.0
 11
1.0
 21
0.0
 31
0.0
 12
0.0
 22
1.0
 32
0.0
  0
UCS
  2
CK_VIEW_1
 70
     0
 10
0.0
 20
0.0
 30
1.0
 11
1.0
 21
0.0
 31
0.0
 12
0.0
 22
1.0
 32
0.0
  0
ENDTAB
  0
TABLE
  2
APPID
 70
     4
  0
APPID
  2
ACAD
 70
     0
  0
APPID
  2
DCO15
 70
     0
  0
APPID
  2
ACAD_PSEXT
 70
     0
  0
APPID
  2
ACAD_DSTYLE_DIMTEXT_FILL
 70
     0
  0
ENDTAB
  0
TABLE
  2
DIMSTYLE
 70
     2
  0
DIMSTYLE
  2
STANDARD
 70
     0
  3

  4

  5

  6

  7

 40
1.0
 41
0.18
 42
0.0625
 43
0.38
 44
0.18
 45
0.0
 46
0.0
 47
0.0
 48
0.0
140
0.18
141
0.09
142
0.0
143
25.399999999999999
144
1.0
145
0.0
146
1.0
147
0.09
 71
     0
 72
     0
 73
     1
 74
     1
 75
     0
 76
     0
 77
     0
 78
     0
170
     0
171
     2
172
     0
173
     0
174
     0
175
     0
176
     0
177
     0
178
     0
  0
DIMSTYLE
  2
MECHTRONICS
 70
     0
  3

  4
"
  5

  6

  7

 40
3.0
 41
2.0
 42
1.0
 43
6.0
 44
0.5
 45
0.0
 46
0.0
 47
0.0
 48
0.0
140
0.6
141
0.09
142
0.0
143
0.03937
144
1.0
145
0.0
146
1.0
147
0.5
 71
     0
 72
     0
 73
     0
 74
     1
 75
     0
 76
     0
 77
     0
 78
     0
170
     1
171
     1
172
     0
173
     0
174
     0
175
     0
176
     7
177
     7
178
     0
  0
ENDTAB
  0
ENDSEC
  0
SECTION
  2
BLOCKS
  0
BLOCK
  8
0
  2
$MODEL_SPACE
 70
     0
 10
0.0
 20
0.0
 30
0.0
  3
$MODEL_SPACE
  1

  0
ENDBLK
  5
E
  8
0
  0
BLOCK
 67
     1
  8
0
  2
$PAPER_SPACE
 70
     0
 10
0.0
 20
0.0
 30
0.0
  3
$PAPER_SPACE
  1

  0
ENDBLK
  5
10
 67
     1
  8
0
  0
BLOCK
  8
0
  2
*D0
 70
     1
 10
0.0
 20
0.0
 30
0.0
  3
*D0
  1

  0
LINE
  5
6198
  8
50_DIMENSIONS
 62
     7
 10
1779.4583160065499
 20
1814.3446826385839
 30
0.0
 11
1525.333286479736
 21
1814.344682638585
 31
0.0
  0
LINE
  5
6199
  8
50_DIMENSIONS
 62
     7
 10
1779.4583160065499
 20
2017.337381598137
 30
0.0
 11
1525.333286479736
 21
2017.337381598137
 31
0.0
  0
LINE
  5
619A
  8
50_DIMENSIONS
 62
     7
 10
1526.833286479736
 20
1820.3446826385839
 30
0.0
 11
1526.833286479736
 21
1896.8178397581969
 31
0.0
  0
LINE
  5
619B
  8
50_DIMENSIONS
 62
     7
 10
1526.833286479736
 20
2011.3373815981381
 30
0.0
 11
1526.833286479736
 21
1934.864224478524
 31
0.0
  0
SOLID
  5
619C
  8
50_DIMENSIONS
 62
     7
 10
1525.8332864797369
 20
1820.3446826385839
 30
0.0
 11
1527.8332864797369
 21
1820.3446826385839
 31
0.0
 12
1526.833286479736
 22
1814.344682638585
 32
0.0
 13
1526.833286479736
 23
1814.344682638585
 33
0.0
  0
SOLID
  5
619D
  8
50_DIMENSIONS
 62
     7
 10
1525.8332864797369
 20
2011.3373815981381
 30
0.0
 11
1527.8332864797369
 21
2011.3373815981381
 31
0.0
 12
1526.833286479736
 22
2017.337381598137
 32
0.0
 13
1526.833286479736
 23
2017.337381598137
 33
0.0
  0
INSERT
  5
619E
  8
0
  2
*U3
 10
0.0
 20
0.0
 30
0.0
  0
POINT
  5
619F
  8
DEFPOINTS
 62
     0
 10
1782.4583160065499
 20
1814.3446826385839
 30
0.0
  0
POINT
  5
61A0
  8
DEFPOINTS
 62
     0
 10
1782.4583160065499
 20
2017.337381598137
 30
0.0
  0
POINT
  5
61A1
  8
DEFPOINTS
 62
     0
 10
1526.833286479736
 20
2017.337381598137
 30
0.0
  0
ENDBLK
  5
58B1
  8
0
  0
BLOCK
  8
0
  2
*D1
 70
     1
 10
0.0
 20
0.0
 30
0.0
  3
*D1
  1

  0
LINE
  5
61A2
  8
50_DIMENSIONS
 62
     7
 10
1581.4084160065499
 20
1988.8446826385839
 30
0.0
 11
1581.4084160065499
 21
2063.6525075023819
 31
0.0
  0
LINE
  5
61A3
  8
50_DIMENSIONS
 62
     7
 10
2163.5082160065508
 20
1988.8446826385839
 30
0.0
 11
2163.5082160065508
 21
2063.6525075023819
 31
0.0
  0
LINE
  5
61A4
  8
50_DIMENSIONS
 62
     7
 10
1587.4084160065499
 20
2062.1525075023819
 30
0.0
 11
1851.149311913781
 21
2062.1525075023819
 31
0.0
  0
LINE
  5
61A5
  8
50_DIMENSIONS
 62
     7
 10
2157.5082160065499
 20
2062.1525075023819
 30
0.0
 11
1893.767320099319
 21
2062.1525075023819
 31
0.0
  0
SOLID
  5
61A6
  8
50_DIMENSIONS
 62
     7
 10
1587.4084160065499
 20
2063.1525075023819
 30
0.0
 11
1587.4084160065499
 21
2061.1525075023819
 31
0.0
 12
1581.4084160065499
 22
2062.1525075023819
 32
0.0
 13
1581.4084160065499
 23
2062.1525075023819
 33
0.0
  0
SOLID
  5
61A7
  8
50_DIMENSIONS
 62
     7
 10
2157.5082160065499
 20
2063.1525075023819
 30
0.0
 11
2157.5082160065499
 21
2061.1525075023819
 31
0.0
 12
2163.5082160065508
 22
2062.1525075023819
 32
0.0
 13
2163.5082160065508
 23
2062.1525075023819
 33
0.0
  0
INSERT
  5
61A8
  8
0
  2
*U4
 10
0.0
 20
0.0
 30
0.0
  0
POINT
  5
61A9
  8
DEFPOINTS
 62
     0
 10
1581.4084160065499
 20
1985.8446826385839
 30
0.0
  0
POINT
  5
61AA
  8
DEFPOINTS
 62
     0
 10
2163.5082160065508
 20
1985.8446826385839
 30
0.0
  0
POINT
  5
61AB
  8
DEFPOINTS
 62
     0
 10
2163.5082160065508
 20
2062.1525075023819
 30
0.0
  0
ENDBLK
  5
58BE
  8
0
  0
BLOCK
  8
0
  2
*U2
 70
     1
 10
0.0
 20
0.0
 30
0.0
  3
*U2
  1

  0
TEXT
  5
627B
  8
62_TEXT
 62
     7
 10
1908.313728132754
 20
1740.196690278254
 30
0.0
 40
6.0
  1
SUPPLY .dxf VERSION OF THIS DRAWING TO THE LASER CUTTING 
  7
MECHTRONICS
  0
TEXT
  5
627C
  8
62_TEXT
 62
     7
 10
1908.1418318162459
 20
1730.094371042238
 30
0.0
 40
6.0
  1
CONTRACTOR.
  7
MECHTRONICS
  0
ENDBLK
  5
627E
  8
0
  0
BLOCK
  8
0
  2
*U3
 70
     1
 10
0.0
 20
0.0
 30
0.0
  3
*U3
  1

  0
TEXT
  5
6280
  8
50_DIMENSIONS
 62
     0
 10
1529.0126862068851
 20
1897.826707425319
 30
0.0
 40
6.0
  1
203 [8.0"]
 50
90.0
  7
MECHTRONICS
  0
ENDBLK
  5
6282
  8
0
  0
BLOCK
  8
0
  2
*U4
 70
     1
 10
0.0
 20
0.0
 30
0.0
  3
*U4
  1

  0
TEXT
  5
6284
  8
50_DIMENSIONS
 62
     0
 10
1852.0681386532081
 20
2059.9731077752331
 30
0.0
 40
6.0
  1
582 [22.9"]
  7
MECHTRONICS
  0
ENDBLK
  5
6286
  8
0
  0
ENDSEC
  0
SECTION
  2
ENTITIES
  0
LINE
  5
2747
  8
01_FRAME
 62
     4
 10
1412.135483202296
 20
2159.2269956050759
 30
0.0
 11
1412.135483202296
 21
1579.0677851850121
 31
0.0
  0
LINE
  5
2748
  8
01_FRAME
 62
     4
 10
2221.0342614223482
 20
2159.2269956050759
 30
0.0
 11
1412.135483202296
 21
2159.2269956050759
 31
0.0
  0
LINE
  5
274D
  8
01_FRAME
 62
     4
 10
2221.0342614223482
 20
1579.0677851850121
 30
0.0
 11
2221.0342614223482
 21
2159.2269956050759
 31
0.0
  0
LINE
  5
274E
  8
01_FRAME
 62
     4
 10
1412.135483202296
 20
1579.0677851850121
 30
0.0
 11
2221.0342614223482
 21
1579.0677851850121
 31
0.0
  0
LINE
  5
56B9
  8
01_FRAME
 62
     4
 10
1904.3046028288629
 20
1640.5089821995809
 30
0.0
 11
1993.0449560558609
 21
1640.5089821995809
 31
0.0
  0
LINE
  5
56BA
  8
01_FRAME
 62
     4
 10
1904.3044602946441
 20
1579.0677851850121
 30
0.0
 11
1904.3044602946441
 21
1672.1456039079401
 31
0.0
  0
TEXT
  5
56BB
  8
62_TEXT
 10
2167.6306164089001
 20
1653.7019910810741
 30
0.0
 40
6.0
  1
14-07-06
  7
MECHTRONICS
  0
TEXT
  5
56BC
  8
01_FRAME
 62
     8
 10
2194.6665059938118
 20
1602.9597573675501
 30
0.0
 40
4.2000000000000002
  1
Revision
  7
MECHTRONICS
  0
TEXT
  5
56BD
  8
62_TEXT
 10
2053.774800823333
 20
1620.5401830321321
 30
0.0
 40
6.0
  1
TOWER CARRIER PLATE - PROFILE CUT
  7
MECHTRONICS
 72
     1
 11
2135.6690709461159
 21
1620.5401830321321
 31
0.0
  0
LINE
  5
56BE
  8
01_FRAME
 62
     8
 10
1993.0449560558609
 20
1672.1456039079401
 30
0.0
 11
2221.0342614223459
 21
1672.1456039079401
 31
0.0
  0
LINE
  5
56BF
  8
01_FRAME
 62
     8
 10
1993.0449560558609
 20
1661.6088282824121
 30
0.0
 11
2221.0342614223459
 21
1661.6088282824121
 31
0.0
  0
LINE
  5
56C0
  8
01_FRAME
 62
     4
 10
2041.8355715405401
 20
1609.1781500707229
 30
0.0
 11
2221.0341188881271
 21
1609.1781500707229
 31
0.0
  0
LINE
  5
56C1
  8
01_FRAME
 62
     4
 10
1904.3046028288641
 20
1627.4690089089349
 30
0.0
 11
2041.8355715405401
 21
1627.4690089089349
 31
0.0
  0
LINE
  5
56C2
  8
01_FRAME
 62
     8
 10
2007.217602150123
 20
1651.072014647757
 30
0.0
 11
2221.0342614223459
 21
1651.072014647757
 31
0.0
  0
TEXT
  5
56C3
  8
01_FRAME
 62
     8
 10
1906.119167852268
 20
1665.827837704212
 30
0.0
 40
4.2000000000000002
  1
Higher
  7
MECHTRONICS
  0
TEXT
  5
56C4
  8
01_FRAME
 62
     8
 10
2062.1359506550011
 20
1644.1297459907821
 30
0.0
 40
4.2000000000000002
  1
Description of change
  7
MECHTRONICS
  0
LINE
  5
56C5
  8
01_FRAME
 62
     4
 10
2041.8355715405401
 20
1640.5089821995809
 30
0.0
 11
2041.8355715405401
 21
1579.0677851850121
 31
0.0
  0
LINE
  5
56C6
  8
01_FRAME
 62
     4
 10
1993.0449560558609
 20
1640.5089821995809
 30
0.0
 11
1993.0449560558609
 21
1672.1456039079401
 31
0.0
  0
LINE
  5
56C7
  8
01_FRAME
 62
     8
 10
2007.217602150123
 20
1640.5089821995809
 30
0.0
 11
2007.217602150123
 21
1672.2723718838749
 31
0.0
  0
LINE
  5
56C8
  8
01_FRAME
 62
     7
 10
1994.073272642308
 20
1647.0732568200201
 30
0.0
 11
2000.2049226835341
 21
1657.6935862256539
 31
0.0
  0
LINE
  5
56C9
  8
01_FRAME
 62
     7
 10
1994.073272642308
 20
1647.0732568200201
 30
0.0
 11
2006.3365727247599
 21
1647.0732568200201
 31
0.0
  0
LINE
  5
56CA
  8
01_FRAME
 62
     7
 10
2006.3365727247599
 20
1647.0732568200201
 30
0.0
 11
2000.2049226835341
 21
1657.6935862256539
 31
0.0
  0
TEXT
  5
56CB
  8
01_FRAME
 62
     8
 10
2044.157320936537
 20
1631.236631779813
 30
0.0
 40
4.2000000000000002
  1
Title
  7
MECHTRONICS
  0
LINE
  5
56CC
  8
01_FRAME
 62
     8
 10
2163.6016275438719
 20
1609.1781500707229
 30
0.0
 11
2163.601627543871
 21
1579.0677851850121
 31
0.0
  0
LINE
  5
56CD
  8
01_FRAME
 62
     8
 10
2192.317873216
 20
1609.1781500707229
 30
0.0
 11
2192.317873216
 21
1579.0677851850121
 31
0.0
  0
TEXT
  5
56CE
  8
01_FRAME
 62
     8
 10
2165.9502603216838
 20
1602.3545011714309
 30
0.0
 40
4.2000000000000002
  1
Process
  7
MECHTRONICS
  0
TEXT
  5
56CF
  8
01_FRAME
 62
     8
 10
2043.814246174551
 20
1602.9139931667439
 30
0.0
 40
4.2000000000000002
  1
Drawing Number
  7
MECHTRONICS
  0
TEXT
  5
56D0
  8
62_TEXT
 10
2062.5559144148851
 20
1584.545012412249
 30
0.0
 40
12.0
  1
10 30 455
  7
MECHTRONICS
  0
TEXT
  5
56D1
  8
62_TEXT
 10
2171.4134388248722
 20
1584.545012412249
 30
0.0
 40
12.0
  1
P
  7
MECHTRONICS
  0
LINE
  5
56D2
  8
01_FRAME
 62
     8
 10
2164.850000928805
 20
1640.5089821995809
 30
0.0
 11
2164.850000928805
 21
1672.246077052102
 31
0.0
  0
TEXT
  5
56D3
  8
01_FRAME
 62
     8
 10
2169.6200681985779
 20
1644.1297459907821
 30
0.0
 40
4.2000000000000002
  1
Date (d-m-y)
  7
MECHTRONICS
  0
TEXT
  5
56D4
  8
62_TEXT
 10
2200.1296844969988
 20
1584.545012412249
 30
0.0
 40
12.0
  1
B
  7
MECHTRONICS
  0
LINE
  5
56D5
  8
01_FRAME
 62
     8
 10
2205.025209399761
 20
1640.5089821995809
 30
0.0
 11
2205.025209399761
 21
1672.246077052102
 31
0.0
  0
TEXT
  5
56D6
  8
01_FRAME
 62
     8
 10
2207.8359275583639
 20
1644.1297459907821
 30
0.0
 40
4.2000000000000002
  1
Rev.
  7
MECHTRONICS
  0
TEXT
  5
56D7
  8
01_FRAME
 62
     8
 10
1944.244584631424
 20
1588.8266380385289
 30
0.0
 40
4.2000000000000002
  1
www.mechmate.com
  7
MECHTRONICS
  0
TEXT
  5
56D8
  8
62_TEXT
 10
1937.855217337486
 20
1662.842037342665
 30
0.0
 40
6.0
  1
10 30 400 W
  7
MECHTRONICS
  0
TEXT
  5
56D9
  8
01_FRAME
 62
     8
 10
1906.119167852268
 20
1659.74494058766
 30
0.0
 40
4.2000000000000002
  1
drawing/s:
  7
MECHTRONICS
  0
LINE
  5
56DA
  8
01_FRAME
 62
     4
 10
1904.3044602946441
 20
1672.1456039079401
 30
0.0
 11
1993.0449560558609
 21
1672.1456039079401
 31
0.0
  0
LINE
  5
56DB
  8
01_FRAME
 62
     4
 10
1993.0449560558609
 20
1640.5089821995809
 30
0.0
 11
2221.0341188881271
 21
1640.5089821995809
 31
0.0
  0
TEXT
  5
56DC
  8
01_FRAME
 62
     8
 10
1906.6263522248601
 20
1634.2840458649321
 30
0.0
 40
4.2000000000000002
  1
Material:
  7
MECHTRONICS
  0
TEXT
  5
56DD
  8
62_TEXT
 10
1931.0803190362601
 20
1631.227591127953
 30
0.0
 40
6.0
  1
4mm [3/16"] STEEL 300MPa
  7
MECHTRONICS
  0
TEXT
  5
56DE
  8
01_FRAME
 62
     7
 10
2209.524412096499
 20
1653.5604836716559
 30
0.0
 40
6.0
  1
A
  7
MECHTRONICS
  0
TEXT
  5
56DF
  8
01_FRAME
 62
     7
 10
2119.9413997059592
 20
1653.7019910810741
 30
0.0
 40
6.0
  1
First issue
  7
MECHTRONICS
  0
LINE
  5
583F
  8
10_OUTLINE
 62
     2
 10
1972.4583160065499
 20
1824.3446826385839
 30
0.0
 11
1972.4583160065499
 21
1845.337381598137
 31
0.0
  0
LINE
  5
5840
  8
10_OUTLINE
 62
     2
 10
1772.4583160065499
 20
1824.3446826385839
 30
0.0
 11
1772.4583160065499
 21
1845.337381598137
 31
0.0
  0
ARC
  5
5841
  8
10_OUTLINE
 62
     2
 10
1887.334228636606
 20
1829.8410321183601
 30
0.0
 40
5.5
 50
90.0
 51
270.0
  0
ARC
  5
5842
  8
10_OUTLINE
 62
     2
 10
1897.334228636606
 20
1829.8410321183601
 30
0.0
 40
5.5
 50
270.0
 51
90.0
  0
ARC
  5
5843
  8
10_OUTLINE
 62
     2
 10
1807.8305781163831
 20
1829.8410321183601
 30
0.0
 40
5.5
 50
90.0
 51
270.0
  0
ARC
  5
5844
  8
10_OUTLINE
 62
     2
 10
1817.830578116382
 20
1829.8410321183601
 30
0.0
 40
5.5
 50
270.0
 51
90.0
  0
ARC
  5
5845
  8
10_OUTLINE
 62
     2
 10
1937.086053896717
 20
1829.8410321183601
 30
0.0
 40
5.5
 50
270.0
 51
90.0
  0
ARC
  5
5846
  8
10_OUTLINE
 62
     2
 10
1927.0860538967181
 20
1829.8410321183601
 30
0.0
 40
5.5
 50
90.0
 51
270.0
  0
ARC
  5
5847
  8
10_OUTLINE
 62
     2
 10
1857.5824033764941
 20
1829.8410321183601
 30
0.0
 40
5.5
 50
270.0
 51
90.0
  0
ARC
  5
5848
  8
10_OUTLINE
 62
     2
 10
1847.5824033764941
 20
1829.8410321183601
 30
0.0
 40
5.5
 50
90.0
 51
270.0
  0
ARC
  5
5849
  8
10_OUTLINE
 62
     2
 10
1962.4583160065499
 20
1824.344682638585
 30
0.0
 40
10.0
 50
270.0
 51
0.0
  0
LINE
  5
584A
  8
10_OUTLINE
 62
     2
 10
1782.4583160065499
 20
1814.3446826385839
 30
0.0
 11
1962.4583160065499
 21
1814.3446826385839
 31
0.0
  0
ARC
  5
584B
  8
10_OUTLINE
 62
     2
 10
1782.4583160065499
 20
1824.344682638585
 30
0.0
 40
10.0
 50
180.0
 51
270.0
  0
LINE
  5
584C
  8
10_OUTLINE
 62
     2
 10
1807.830578116382
 20
1824.341032118361
 30
0.0
 11
1817.830578116382
 21
1824.341032118361
 31
0.0
  0
LINE
  5
584D
  8
10_OUTLINE
 62
     2
 10
1857.5824033764941
 20
1824.341032118361
 30
0.0
 11
1847.5824033764941
 21
1824.341032118361
 31
0.0
  0
LINE
  5
584E
  8
10_OUTLINE
 62
     2
 10
1897.3342286366051
 20
1824.341032118361
 30
0.0
 11
1887.3342286366051
 21
1824.341032118361
 31
0.0
  0
LINE
  5
584F
  8
10_OUTLINE
 62
     2
 10
1937.086053896717
 20
1824.341032118361
 30
0.0
 11
1927.0860538967181
 21
1824.341032118361
 31
0.0
  0
ARC
  5
5850
  8
10_OUTLINE
 62
     2
 10
1964.4583160065499
 20
2007.337381598137
 30
0.0
 40
10.0
 50
0.0
 51
90.0
  0
LINE
  5
5851
  8
10_OUTLINE
 62
     2
 10
1581.4084160065499
 20
1985.8446826385839
 30
0.0
 11
1636.4092128580669
 21
1985.8446826385839
 31
0.0
  0
LINE
  5
5852
  8
10_OUTLINE
 62
     2
 10
1581.4084160065499
 20
1943.504319954541
 30
0.0
 11
1581.408416006549
 21
1948.504319954541
 31
0.0
  0
LINE
  5
5853
  8
10_OUTLINE
 62
     2
 10
1588.218136342379
 20
1943.504319954541
 30
0.0
 11
1581.4084160065499
 21
1943.504319954541
 31
0.0
  0
LINE
  5
5854
  8
10_OUTLINE
 62
     2
 10
1772.4583160065499
 20
1988.0446826385839
 30
0.0
 11
1772.4583160065499
 21
1985.8446826385839
 31
0.0
  0
ARC
  5
5855
  8
10_OUTLINE
 62
     2
 10
1847.5824033764941
 20
2001.841032118361
 30
0.0
 40
5.5
 50
90.0
 51
270.0
  0
ARC
  5
5856
  8
10_OUTLINE
 62
     2
 10
1857.5824033764941
 20
2001.841032118361
 30
0.0
 40
5.5
 50
270.0
 51
90.0
  0
ARC
  5
5857
  8
10_OUTLINE
 62
     2
 10
1927.0860538967181
 20
2001.841032118361
 30
0.0
 40
5.5
 50
90.0
 51
270.0
  0
ARC
  5
5858
  8
10_OUTLINE
 62
     2
 10
1937.086053896717
 20
2001.841032118361
 30
0.0
 40
5.5
 50
270.0
 51
90.0
  0
ARC
  5
5859
  8
10_OUTLINE
 62
     2
 10
1817.830578116382
 20
2001.841032118361
 30
0.0
 40
5.5
 50
270.0
 51
90.0
  0
ARC
  5
585A
  8
10_OUTLINE
 62
     2
 10
1807.8305781163831
 20
2001.841032118361
 30
0.0
 40
5.5
 50
90.0
 51
270.0
  0
ARC
  5
585B
  8
10_OUTLINE
 62
     2
 10
1897.334228636606
 20
2001.841032118361
 30
0.0
 40
5.5
 50
270.0
 51
90.0
  0
ARC
  5
585C
  8
10_OUTLINE
 62
     2
 10
1887.334228636606
 20
2001.841032118361
 30
0.0
 40
5.5
 50
90.0
 51
270.0
  0
LINE
  5
585D
  8
10_OUTLINE
 62
     2
 10
1807.830578116382
 20
1835.3410321183601
 30
0.0
 11
1817.830578116382
 21
1835.3410321183601
 31
0.0
  0
LINE
  5
585E
  8
10_OUTLINE
 62
     2
 10
1857.5824033764941
 20
1835.3410321183601
 30
0.0
 11
1847.5824033764941
 21
1835.3410321183601
 31
0.0
  0
LINE
  5
585F
  8
10_OUTLINE
 62
     2
 10
1897.3342286366051
 20
1835.3410321183601
 30
0.0
 11
1887.3342286366051
 21
1835.3410321183601
 31
0.0
  0
LINE
  5
5860
  8
10_OUTLINE
 62
     2
 10
1937.086053896717
 20
1835.3410321183601
 30
0.0
 11
1927.0860538967181
 21
1835.3410321183601
 31
0.0
  0
LINE
  5
5861
  8
10_OUTLINE
 62
     2
 10
1807.830578116382
 20
1996.3410321183601
 30
0.0
 11
1817.830578116382
 21
1996.3410321183601
 31
0.0
  0
LINE
  5
5862
  8
10_OUTLINE
 62
     2
 10
1857.5824033764941
 20
1996.3410321183601
 30
0.0
 11
1847.5824033764941
 21
1996.3410321183601
 31
0.0
  0
LINE
  5
5863
  8
10_OUTLINE
 62
     2
 10
1897.3342286366051
 20
1996.3410321183601
 30
0.0
 11
1887.3342286366051
 21
1996.3410321183601
 31
0.0
  0
LINE
  5
5864
  8
10_OUTLINE
 62
     2
 10
1937.086053896717
 20
1996.3410321183601
 30
0.0
 11
1927.0860538967181
 21
1996.3410321183601
 31
0.0
  0
LINE
  5
5865
  8
10_OUTLINE
 62
     2
 10
1780.4583160065499
 20
2017.337381598137
 30
0.0
 11
1964.4583160065499
 21
2017.337381598137
 31
0.0
  0
ARC
  5
5866
  8
10_OUTLINE
 62
     2
 10
1780.4583160065499
 20
2007.337381598137
 30
0.0
 40
10.0
 50
90.0
 51
180.0
  0
LINE
  5
5867
  8
10_OUTLINE
 62
     2
 10
1807.830578116382
 20
2007.341032118361
 30
0.0
 11
1817.830578116382
 21
2007.341032118361
 31
0.0
  0
LINE
  5
5868
  8
10_OUTLINE
 62
     2
 10
1857.5824033764941
 20
2007.341032118361
 30
0.0
 11
1847.5824033764941
 21
2007.341032118361
 31
0.0
  0
LINE
  5
5869
  8
10_OUTLINE
 62
     2
 10
1897.3342286366051
 20
2007.341032118361
 30
0.0
 11
1887.3342286366051
 21
2007.341032118361
 31
0.0
  0
LINE
  5
586A
  8
10_OUTLINE
 62
     2
 10
1937.086053896717
 20
2007.341032118361
 30
0.0
 11
1927.0860538967181
 21
2007.341032118361
 31
0.0
  0
LINE
  5
586B
  8
10_OUTLINE
 62
     2
 10
1974.4583160065499
 20
2007.337381598137
 30
0.0
 11
1974.4583160065499
 21
1988.0446826385839
 31
0.0
  0
LINE
  5
586C
  8
10_OUTLINE
 62
     2
 10
2104.4255424153621
 20
1933.5254408025451
 30
0.0
 11
2146.31972663224
 21
1942.415271215438
 31
0.0
  0
LINE
  5
586D
  8
10_OUTLINE
 62
     2
 10
1972.4583160065499
 20
1845.337381598137
 30
0.0
 11
2085.9702717790778
 21
1925.4629675553269
 31
0.0
  0
LINE
  5
586E
  8
10_OUTLINE
 62
     2
 10
2156.6984956707238
 20
1943.504319954541
 30
0.0
 11
2163.5082160065508
 21
1943.504319954541
 31
0.0
  0
POLYLINE
  5
586F
  8
10_OUTLINE
 62
     2
 10
1749.622837939603
 20
1918.555738374688
 30
0.0
 66
     1
 70
     8
  0
VERTEX
  8
10_OUTLINE
  5
6287
 10
1749.62
 20
1918.56
 30
0.000000
  70
    32
  0
VERTEX
  8
10_OUTLINE
  5
6288
 10
1749.77
 20
1916.19
 30
0.000000
  70
    32
  0
VERTEX
  8
10_OUTLINE
  5
6289
 10
1750.21
 20
1913.83
 30
0.000000
  70
    32
  0
VERTEX
  8
10_OUTLINE
  5
628A
 10
1750.95
 20
1911.48
 30
0.000000
  70
    32
  0
VERTEX
  8
10_OUTLINE
  5
628B
 10
1751.98
 20
1909.15
 30
0.000000
  70
    32
  0
VERTEX
  8
10_OUTLINE
  5
628C
 10
1753.30
 20
1906.84
 30
0.000000
  70
    32
  0
VERTEX
  8
10_OUTLINE
  5
628D
 10
1754.91
 20
1904.56
 30
0.000000
  70
    32
  0
VERTEX
  8
10_OUTLINE
  5
628E
 10
1756.80
 20
1902.31
 30
0.000000
  70
    32
  0
VERTEX
  8
10_OUTLINE
  5
628F
 10
1758.97
 20
1900.10
 30
0.000000
  70
    32
  0
VERTEX
  8
10_OUTLINE
  5
6290
 10
1761.42
 20
1897.94
 30
0.000000
  70
    32
  0
VERTEX
  8
10_OUTLINE
  5
6291
 10
1764.13
 20
1895.82
 30
0.000000
  70
    32
  0
VERTEX
  8
10_OUTLINE
  5
6292
 10
1767.10
 20
1893.76
 30
0.000000
  70
    32
  0
VERTEX
  8
10_OUTLINE
  5
6293
 10
1770.32
 20
1891.76
 30
0.000000
  70
    32
  0
VERTEX
  8
10_OUTLINE
  5
6294
 10
1773.80
 20
1889.83
 30
0.000000
  70
    32
  0
VERTEX
  8
10_OUTLINE
  5
6295
 10
1777.51
 20
1887.96
 30
0.000000
  70
    32
  0
VERTEX
  8
10_OUTLINE
  5
6296
 10
1781.44
 20
1886.17
 30
0.000000
  70
    32
  0
VERTEX
  8
10_OUTLINE
  5
6297
 10
1785.60
 20
1884.45
 30
0.000000
  70
    32
  0
VERTEX
  8
10_OUTLINE
  5
6298
 10
1789.97
 20
1882.82
 30
0.000000
  70
    32
  0
VERTEX
  8
10_OUTLINE
  5
6299
 10
1794.53
 20
1881.28
 30
0.000000
  70
    32
  0
VERTEX
  8
10_OUTLINE
  5
629A
 10
1799.29
 20
1879.82
 30
0.000000
  70
    32
  0
VERTEX
  8
10_OUTLINE
  5
629B
 10
1804.21
 20
1878.46
 30
0.000000
  70
    32
  0
VERTEX
  8
10_OUTLINE
  5
629C
 10
1809.31
 20
1877.19
 30
0.000000
  70
    32
  0
VERTEX
  8
10_OUTLINE
  5
629D
 10
1814.55
 20
1876.02
 30
0.000000
  70
    32
  0
VERTEX
  8
10_OUTLINE
  5
629E
 10
1819.94
 20
1874.96
 30
0.000000
  70
    32
  0
VERTEX
  8
10_OUTLINE
  5
629F
 10
1825.45
 20
1874.00
 30
0.000000
  70
    32
  0
VERTEX
  8
10_OUTLINE
  5
62A0
 10
1831.08
 20
1873.15
 30
0.000000
  70
    32
  0
VERTEX
  8
10_OUTLINE
  5
62A1
 10
1836.80
 20
1872.41
 30
0.000000
  70
    32
  0
VERTEX
  8
10_OUTLINE
  5
62A2
 10
1842.61
 20
1871.77
 30
0.000000
  70
    32
  0
VERTEX
  8
10_OUTLINE
  5
62A3
 10
1848.49
 20
1871.26
 30
0.000000
  70
    32
  0
VERTEX
  8
10_OUTLINE
  5
62A4
 10
1854.43
 20
1870.85
 30
0.000000
  70
    32
  0
VERTEX
  8
10_OUTLINE
  5
62A5
 10
1860.42
 20
1870.56
 30
0.000000
  70
    32
  0
VERTEX
  8
10_OUTLINE
  5
62A6
 10
1866.43
 20
1870.39
 30
0.000000
  70
    32
  0
VERTEX
  8
10_OUTLINE
  5
62A7
 10
1872.46
 20
1870.33
 30
0.000000
  70
    32
  0
VERTEX
  8
10_OUTLINE
  5
62A8
 10
1878.49
 20
1870.39
 30
0.000000
  70
    32
  0
VERTEX
  8
10_OUTLINE
  5
62A9
 10
1884.50
 20
1870.56
 30
0.000000
  70
    32
  0
VERTEX
  8
10_OUTLINE
  5
62AA
 10
1890.48
 20
1870.85
 30
0.000000
  70
    32
  0
VERTEX
  8
10_OUTLINE
  5
62AB
 10
1896.42
 20
1871.26
 30
0.000000
  70
    32
  0
VERTEX
  8
10_OUTLINE
  5
62AC
 10
1902.30
 20
1871.77
 30
0.000000
  70
    32
  0
VERTEX
  8
10_OUTLINE
  5
62AD
 10
1908.12
 20
1872.41
 30
0.000000
  70
    32
  0
VERTEX
  8
10_OUTLINE
  5
62AE
 10
1913.84
 20
1873.15
 30
0.000000
  70
    32
  0
VERTEX
  8
10_OUTLINE
  5
62AF
 10
1919.47
 20
1874.00
 30
0.000000
  70
    32
  0
VERTEX
  8
10_OUTLINE
  5
62B0
 10
1924.98
 20
1874.96
 30
0.000000
  70
    32
  0
VERTEX
  8
10_OUTLINE
  5
62B1
 10
1930.36
 20
1876.02
 30
0.000000
  70
    32
  0
VERTEX
  8
10_OUTLINE
  5
62B2
 10
1935.61
 20
1877.19
 30
0.000000
  70
    32
  0
VERTEX
  8
10_OUTLINE
  5
62B3
 10
1940.70
 20
1878.46
 30
0.000000
  70
    32
  0
VERTEX
  8
10_OUTLINE
  5
62B4
 10
1945.63
 20
1879.82
 30
0.000000
  70
    32
  0
VERTEX
  8
10_OUTLINE
  5
62B5
 10
1950.38
 20
1881.28
 30
0.000000
  70
    32
  0
VERTEX
  8
10_OUTLINE
  5
62B6
 10
1954.95
 20
1882.82
 30
0.000000
  70
    32
  0
VERTEX
  8
10_OUTLINE
  5
62B7
 10
1959.32
 20
1884.45
 30
0.000000
  70
    32
  0
VERTEX
  8
10_OUTLINE
  5
62B8
 10
1963.47
 20
1886.17
 30
0.000000
  70
    32
  0
VERTEX
  8
10_OUTLINE
  5
62B9
 10
1967.41
 20
1887.96
 30
0.000000
  70
    32
  0
VERTEX
  8
10_OUTLINE
  5
62BA
 10
1971.12
 20
1889.83
 30
0.000000
  70
    32
  0
VERTEX
  8
10_OUTLINE
  5
62BB
 10
1974.59
 20
1891.76
 30
0.000000
  70
    32
  0
VERTEX
  8
10_OUTLINE
  5
62BC
 10
1977.82
 20
1893.76
 30
0.000000
  70
    32
  0
VERTEX
  8
10_OUTLINE
  5
62BD
 10
1980.79
 20
1895.82
 30
0.000000
  70
    32
  0
VERTEX
  8
10_OUTLINE
  5
62BE
 10
1983.50
 20
1897.94
 30
0.000000
  70
    32
  0
VERTEX
  8
10_OUTLINE
  5
62BF
 10
1985.94
 20
1900.10
 30
0.000000
  70
    32
  0
VERTEX
  8
10_OUTLINE
  5
62C0
 10
1988.11
 20
1902.31
 30
0.000000
  70
    32
  0
VERTEX
  8
10_OUTLINE
  5
62C1
 10
1990.00
 20
1904.56
 30
0.000000
  70
    32
  0
VERTEX
  8
10_OUTLINE
  5
62C2
 10
1991.61
 20
1906.84
 30
0.000000
  70
    32
  0
VERTEX
  8
10_OUTLINE
  5
62C3
 10
1992.93
 20
1909.15
 30
0.000000
  70
    32
  0
VERTEX
  8
10_OUTLINE
  5
62C4
 10
1993.96
 20
1911.48
 30
0.000000
  70
    32
  0
VERTEX
  8
10_OUTLINE
  5
62C5
 10
1994.70
 20
1913.83
 30
0.000000
  70
    32
  0
VERTEX
  8
10_OUTLINE
  5
62C6
 10
1995.15
 20
1916.19
 30
0.000000
  70
    32
  0
VERTEX
  8
10_OUTLINE
  5
62C7
 10
1995.29
 20
1918.56
 30
0.000000
  70
    32
  0
VERTEX
  8
10_OUTLINE
  5
62C8
 10
1995.15
 20
1920.92
 30
0.000000
  70
    32
  0
VERTEX
  8
10_OUTLINE
  5
62C9
 10
1994.70
 20
1923.28
 30
0.000000
  70
    32
  0
VERTEX
  8
10_OUTLINE
  5
62CA
 10
1993.96
 20
1925.63
 30
0.000000
  70
    32
  0
VERTEX
  8
10_OUTLINE
  5
62CB
 10
1992.93
 20
1927.96
 30
0.000000
  70
    32
  0
VERTEX
  8
10_OUTLINE
  5
62CC
 10
1991.61
 20
1930.27
 30
0.000000
  70
    32
  0
VERTEX
  8
10_OUTLINE
  5
62CD
 10
1990.00
 20
1932.56
 30
0.000000
  70
    32
  0
VERTEX
  8
10_OUTLINE
  5
62CE
 10
1988.11
 20
1934.80
 30
0.000000
  70
    32
  0
VERTEX
  8
10_OUTLINE
  5
62CF
 10
1985.94
 20
1937.01
 30
0.000000
  70
    32
  0
VERTEX
  8
10_OUTLINE
  5
62D0
 10
1983.50
 20
1939.18
 30
0.000000
  70
    32
  0
VERTEX
  8
10_OUTLINE
  5
62D1
 10
1980.79
 20
1941.29
 30
0.000000
  70
    32
  0
VERTEX
  8
10_OUTLINE
  5
62D2
 10
1977.82
 20
1943.35
 30
0.000000
  70
    32
  0
VERTEX
  8
10_OUTLINE
  5
62D3
 10
1974.59
 20
1945.35
 30
0.000000
  70
    32
  0
VERTEX
  8
10_OUTLINE
  5
62D4
 10
1971.12
 20
1947.28
 30
0.000000
  70
    32
  0
VERTEX
  8
10_OUTLINE
  5
62D5
 10
1967.41
 20
1949.15
 30
0.000000
  70
    32
  0
VERTEX
  8
10_OUTLINE
  5
62D6
 10
1963.47
 20
1950.94
 30
0.000000
  70
    32
  0
VERTEX
  8
10_OUTLINE
  5
62D7
 10
1959.32
 20
1952.66
 30
0.000000
  70
    32
  0
VERTEX
  8
10_OUTLINE
  5
62D8
 10
1954.95
 20
1954.29
 30
0.000000
  70
    32
  0
VERTEX
  8
10_OUTLINE
  5
62D9
 10
1950.38
 20
1955.84
 30
0.000000
  70
    32
  0
VERTEX
  8
10_OUTLINE
  5
62DA
 10
1945.63
 20
1957.29
 30
0.000000
  70
    32
  0
VERTEX
  8
10_OUTLINE
  5
62DB
 10
1940.70
 20
1958.65
 30
0.000000
  70
    32
  0
VERTEX
  8
10_OUTLINE
  5
62DC
 10
1935.61
 20
1959.92
 30
0.000000
  70
    32
  0
VERTEX
  8
10_OUTLINE
  5
62DD
 10
1930.36
 20
1961.09
 30
0.000000
  70
    32
  0
VERTEX
  8
10_OUTLINE
  5
62DE
 10
1924.98
 20
1962.15
 30
0.000000
  70
    32
  0
VERTEX
  8
10_OUTLINE
  5
62DF
 10
1919.47
 20
1963.11
 30
0.000000
  70
    32
  0
VERTEX
  8
10_OUTLINE
  5
62E0
 10
1913.84
 20
1963.96
 30
0.000000
  70
    32
  0
VERTEX
  8
10_OUTLINE
  5
62E1
 10
1908.12
 20
1964.71
 30
0.000000
  70
    32
  0
VERTEX
  8
10_OUTLINE
  5
62E2
 10
1902.30
 20
1965.34
 30
0.000000
  70
    32
  0
VERTEX
  8
10_OUTLINE
  5
62E3
 10
1896.42
 20
1965.86
 30
0.000000
  70
    32
  0
VERTEX
  8
10_OUTLINE
  5
62E4
 10
1890.48
 20
1966.26
 30
0.000000
  70
    32
  0
VERTEX
  8
10_OUTLINE
  5
62E5
 10
1884.50
 20
1966.55
 30
0.000000
  70
    32
  0
VERTEX
  8
10_OUTLINE
  5
62E6
 10
1878.49
 20
1966.72
 30
0.000000
  70
    32
  0
VERTEX
  8
10_OUTLINE
  5
62E7
 10
1872.46
 20
1966.78
 30
0.000000
  70
    32
  0
VERTEX
  8
10_OUTLINE
  5
62E8
 10
1866.43
 20
1966.72
 30
0.000000
  70
    32
  0
VERTEX
  8
10_OUTLINE
  5
62E9
 10
1860.42
 20
1966.55
 30
0.000000
  70
    32
  0
VERTEX
  8
10_OUTLINE
  5
62EA
 10
1854.43
 20
1966.26
 30
0.000000
  70
    32
  0
VERTEX
  8
10_OUTLINE
  5
62EB
 10
1848.49
 20
1965.86
 30
0.000000
  70
    32
  0
VERTEX
  8
10_OUTLINE
  5
62EC
 10
1842.61
 20
1965.34
 30
0.000000
  70
    32
  0
VERTEX
  8
10_OUTLINE
  5
62ED
 10
1836.80
 20
1964.71
 30
0.000000
  70
    32
  0
VERTEX
  8
10_OUTLINE
  5
62EE
 10
1831.08
 20
1963.96
 30
0.000000
  70
    32
  0
VERTEX
  8
10_OUTLINE
  5
62EF
 10
1825.45
 20
1963.11
 30
0.000000
  70
    32
  0
VERTEX
  8
10_OUTLINE
  5
62F0
 10
1819.94
 20
1962.15
 30
0.000000
  70
    32
  0
VERTEX
  8
10_OUTLINE
  5
62F1
 10
1814.55
 20
1961.09
 30
0.000000
  70
    32
  0
VERTEX
  8
10_OUTLINE
  5
62F2
 10
1809.31
 20
1959.92
 30
0.000000
  70
    32
  0
VERTEX
  8
10_OUTLINE
  5
62F3
 10
1804.21
 20
1958.65
 30
0.000000
  70
    32
  0
VERTEX
  8
10_OUTLINE
  5
62F4
 10
1799.29
 20
1957.29
 30
0.000000
  70
    32
  0
VERTEX
  8
10_OUTLINE
  5
62F5
 10
1794.53
 20
1955.84
 30
0.000000
  70
    32
  0
VERTEX
  8
10_OUTLINE
  5
62F6
 10
1789.97
 20
1954.29
 30
0.000000
  70
    32
  0
VERTEX
  8
10_OUTLINE
  5
62F7
 10
1785.60
 20
1952.66
 30
0.000000
  70
    32
  0
VERTEX
  8
10_OUTLINE
  5
62F8
 10
1781.44
 20
1950.94
 30
0.000000
  70
    32
  0
VERTEX
  8
10_OUTLINE
  5
62F9
 10
1777.51
 20
1949.15
 30
0.000000
  70
    32
  0
VERTEX
  8
10_OUTLINE
  5
62FA
 10
1773.80
 20
1947.28
 30
0.000000
  70
    32
  0
VERTEX
  8
10_OUTLINE
  5
62FB
 10
1770.32
 20
1945.35
 30
0.000000
  70
    32
  0
VERTEX
  8
10_OUTLINE
  5
62FC
 10
1767.10
 20
1943.35
 30
0.000000
  70
    32
  0
VERTEX
  8
10_OUTLINE
  5
62FD
 10
1764.13
 20
1941.29
 30
0.000000
  70
    32
  0
VERTEX
  8
10_OUTLINE
  5
62FE
 10
1761.42
 20
1939.18
 30
0.000000
  70
    32
  0
VERTEX
  8
10_OUTLINE
  5
62FF
 10
1758.97
 20
1937.01
 30
0.000000
  70
    32
  0
VERTEX
  8
10_OUTLINE
  5
6300
 10
1756.80
 20
1934.80
 30
0.000000
  70
    32
  0
VERTEX
  8
10_OUTLINE
  5
6301
 10
1754.91
 20
1932.56
 30
0.000000
  70
    32
  0
VERTEX
  8
10_OUTLINE
  5
6302
 10
1753.30
 20
1930.27
 30
0.000000
  70
    32
  0
VERTEX
  8
10_OUTLINE
  5
6303
 10
1751.98
 20
1927.96
 30
0.000000
  70
    32
  0
VERTEX
  8
10_OUTLINE
  5
6304
 10
1750.95
 20
1925.63
 30
0.000000
  70
    32
  0
VERTEX
  8
10_OUTLINE
  5
6305
 10
1750.21
 20
1923.28
 30
0.000000
  70
    32
  0
VERTEX
  8
10_OUTLINE
  5
6306
 10
1749.77
 20
1920.92
 30
0.000000
  70
    32
  0
VERTEX
  8
10_OUTLINE
  5
6307
 10
1749.62
 20
1918.56
 30
0.000000
  70
    32
  0
SEQEND
  8
10_OUTLINE
  5
6308
  0
POLYLINE
  5
5870
  8
10_OUTLINE
 62
     2
 10
1653.8810095453712
 20
1953.1736845546241
 30
0.0
 66
     1
 70
     8
  0
VERTEX
  8
10_OUTLINE
  5
6309
 10
1653.88
 20
1953.17
 30
0.000000
  70
    32
  0
VERTEX
  8
10_OUTLINE
  5
630A
 10
1653.92
 20
1952.23
 30
0.000000
  70
    32
  0
VERTEX
  8
10_OUTLINE
  5
630B
 10
1654.05
 20
1951.29
 30
0.000000
  70
    32
  0
VERTEX
  8
10_OUTLINE
  5
630C
 10
1654.26
 20
1950.36
 30
0.000000
  70
    32
  0
VERTEX
  8
10_OUTLINE
  5
630D
 10
1654.56
 20
1949.43
 30
0.000000
  70
    32
  0
VERTEX
  8
10_OUTLINE
  5
630E
 10
1654.94
 20
1948.51
 30
0.000000
  70
    32
  0
VERTEX
  8
10_OUTLINE
  5
630F
 10
1655.40
 20
1947.60
 30
0.000000
  70
    32
  0
VERTEX
  8
10_OUTLINE
  5
6310
 10
1655.94
 20
1946.71
 30
0.000000
  70
    32
  0
VERTEX
  8
10_OUTLINE
  5
6311
 10
1656.57
 20
1945.83
 30
0.000000
  70
    32
  0
VERTEX
  8
10_OUTLINE
  5
6312
 10
1657.27
 20
1944.97
 30
0.000000
  70
    32
  0
VERTEX
  8
10_OUTLINE
  5
6313
 10
1658.05
 20
1944.13
 30
0.000000
  70
    32
  0
VERTEX
  8
10_OUTLINE
  5
6314
 10
1658.90
 20
1943.31
 30
0.000000
  70
    32
  0
VERTEX
  8
10_OUTLINE
  5
6315
 10
1659.83
 20
1942.51
 30
0.000000
  70
    32
  0
VERTEX
  8
10_OUTLINE
  5
6316
 10
1660.83
 20
1941.74
 30
0.000000
  70
    32
  0
VERTEX
  8
10_OUTLINE
  5
6317
 10
1661.89
 20
1941.00
 30
0.000000
  70
    32
  0
VERTEX
  8
10_OUTLINE
  5
6318
 10
1663.02
 20
1940.29
 30
0.000000
  70
    32
  0
VERTEX
  8
10_OUTLINE
  5
6319
 10
1664.22
 20
1939.60
 30
0.000000
  70
    32
  0
VERTEX
  8
10_OUTLINE
  5
631A
 10
1665.47
 20
1938.95
 30
0.000000
  70
    32
  0
VERTEX
  8
10_OUTLINE
  5
631B
 10
1666.78
 20
1938.34
 30
0.000000
  70
    32
  0
VERTEX
  8
10_OUTLINE
  5
631C
 10
1668.15
 20
1937.76
 30
0.000000
  70
    32
  0
VERTEX
  8
10_OUTLINE
  5
631D
 10
1669.57
 20
1937.22
 30
0.000000
  70
    32
  0
VERTEX
  8
10_OUTLINE
  5
631E
 10
1671.03
 20
1936.71
 30
0.000000
  70
    32
  0
VERTEX
  8
10_OUTLINE
  5
631F
 10
1672.54
 20
1936.25
 30
0.000000
  70
    32
  0
VERTEX
  8
10_OUTLINE
  5
6320
 10
1674.08
 20
1935.82
 30
0.000000
  70
    32
  0
VERTEX
  8
10_OUTLINE
  5
6321
 10
1675.67
 20
1935.44
 30
0.000000
  70
    32
  0
VERTEX
  8
10_OUTLINE
  5
6322
 10
1677.28
 20
1935.10
 30
0.000000
  70
    32
  0
VERTEX
  8
10_OUTLINE
  5
6323
 10
1678.93
 20
1934.81
 30
0.000000
  70
    32
  0
VERTEX
  8
10_OUTLINE
  5
6324
 10
1680.60
 20
1934.56
 30
0.000000
  70
    32
  0
VERTEX
  8
10_OUTLINE
  5
6325
 10
1682.29
 20
1934.35
 30
0.000000
  70
    32
  0
VERTEX
  8
10_OUTLINE
  5
6326
 10
1684.00
 20
1934.19
 30
0.000000
  70
    32
  0
VERTEX
  8
10_OUTLINE
  5
6327
 10
1685.71
 20
1934.07
 30
0.000000
  70
    32
  0
VERTEX
  8
10_OUTLINE
  5
6328
 10
1687.44
 20
1934.00
 30
0.000000
  70
    32
  0
VERTEX
  8
10_OUTLINE
  5
6329
 10
1689.17
 20
1933.98
 30
0.000000
  70
    32
  0
VERTEX
  8
10_OUTLINE
  5
632A
 10
1690.91
 20
1934.00
 30
0.000000
  70
    32
  0
VERTEX
  8
10_OUTLINE
  5
632B
 10
1692.63
 20
1934.07
 30
0.000000
  70
    32
  0
VERTEX
  8
10_OUTLINE
  5
632C
 10
1694.35
 20
1934.19
 30
0.000000
  70
    32
  0
VERTEX
  8
10_OUTLINE
  5
632D
 10
1696.06
 20
1934.35
 30
0.000000
  70
    32
  0
VERTEX
  8
10_OUTLINE
  5
632E
 10
1697.75
 20
1934.56
 30
0.000000
  70
    32
  0
VERTEX
  8
10_OUTLINE
  5
632F
 10
1699.42
 20
1934.81
 30
0.000000
  70
    32
  0
VERTEX
  8
10_OUTLINE
  5
6330
 10
1701.06
 20
1935.10
 30
0.000000
  70
    32
  0
VERTEX
  8
10_OUTLINE
  5
6331
 10
1702.68
 20
1935.44
 30
0.000000
  70
    32
  0
VERTEX
  8
10_OUTLINE
  5
6332
 10
1704.26
 20
1935.82
 30
0.000000
  70
    32
  0
VERTEX
  8
10_OUTLINE
  5
6333
 10
1705.81
 20
1936.25
 30
0.000000
  70
    32
  0
VERTEX
  8
10_OUTLINE
  5
6334
 10
1707.32
 20
1936.71
 30
0.000000
  70
    32
  0
VERTEX
  8
10_OUTLINE
  5
6335
 10
1708.78
 20
1937.22
 30
0.000000
  70
    32
  0
VERTEX
  8
10_OUTLINE
  5
6336
 10
1710.20
 20
1937.76
 30
0.000000
  70
    32
  0
VERTEX
  8
10_OUTLINE
  5
6337
 10
1711.56
 20
1938.34
 30
0.000000
  70
    32
  0
VERTEX
  8
10_OUTLINE
  5
6338
 10
1712.87
 20
1938.95
 30
0.000000
  70
    32
  0
VERTEX
  8
10_OUTLINE
  5
6339
 10
1714.13
 20
1939.60
 30
0.000000
  70
    32
  0
VERTEX
  8
10_OUTLINE
  5
633A
 10
1715.32
 20
1940.29
 30
0.000000
  70
    32
  0
VERTEX
  8
10_OUTLINE
  5
633B
 10
1716.45
 20
1941.00
 30
0.000000
  70
    32
  0
VERTEX
  8
10_OUTLINE
  5
633C
 10
1717.52
 20
1941.74
 30
0.000000
  70
    32
  0
VERTEX
  8
10_OUTLINE
  5
633D
 10
1718.52
 20
1942.51
 30
0.000000
  70
    32
  0
VERTEX
  8
10_OUTLINE
  5
633E
 10
1719.44
 20
1943.31
 30
0.000000
  70
    32
  0
VERTEX
  8
10_OUTLINE
  5
633F
 10
1720.30
 20
1944.13
 30
0.000000
  70
    32
  0
VERTEX
  8
10_OUTLINE
  5
6340
 10
1721.08
 20
1944.97
 30
0.000000
  70
    32
  0
VERTEX
  8
10_OUTLINE
  5
6341
 10
1721.78
 20
1945.83
 30
0.000000
  70
    32
  0
VERTEX
  8
10_OUTLINE
  5
6342
 10
1722.40
 20
1946.71
 30
0.000000
  70
    32
  0
VERTEX
  8
10_OUTLINE
  5
6343
 10
1722.95
 20
1947.60
 30
0.000000
  70
    32
  0
VERTEX
  8
10_OUTLINE
  5
6344
 10
1723.41
 20
1948.51
 30
0.000000
  70
    32
  0
VERTEX
  8
10_OUTLINE
  5
6345
 10
1723.79
 20
1949.43
 30
0.000000
  70
    32
  0
VERTEX
  8
10_OUTLINE
  5
6346
 10
1724.08
 20
1950.36
 30
0.000000
  70
    32
  0
VERTEX
  8
10_OUTLINE
  5
6347
 10
1724.30
 20
1951.29
 30
0.000000
  70
    32
  0
VERTEX
  8
10_OUTLINE
  5
6348
 10
1724.42
 20
1952.23
 30
0.000000
  70
    32
  0
VERTEX
  8
10_OUTLINE
  5
6349
 10
1724.47
 20
1953.17
 30
0.000000
  70
    32
  0
VERTEX
  8
10_OUTLINE
  5
634A
 10
1724.42
 20
1954.12
 30
0.000000
  70
    32
  0
VERTEX
  8
10_OUTLINE
  5
634B
 10
1724.30
 20
1955.05
 30
0.000000
  70
    32
  0
VERTEX
  8
10_OUTLINE
  5
634C
 10
1724.08
 20
1955.99
 30
0.000000
  70
    32
  0
VERTEX
  8
10_OUTLINE
  5
634D
 10
1723.79
 20
1956.92
 30
0.000000
  70
    32
  0
VERTEX
  8
10_OUTLINE
  5
634E
 10
1723.41
 20
1957.84
 30
0.000000
  70
    32
  0
VERTEX
  8
10_OUTLINE
  5
634F
 10
1722.95
 20
1958.74
 30
0.000000
  70
    32
  0
VERTEX
  8
10_OUTLINE
  5
6350
 10
1722.40
 20
1959.64
 30
0.000000
  70
    32
  0
VERTEX
  8
10_OUTLINE
  5
6351
 10
1721.78
 20
1960.52
 30
0.000000
  70
    32
  0
VERTEX
  8
10_OUTLINE
  5
6352
 10
1721.08
 20
1961.38
 30
0.000000
  70
    32
  0
VERTEX
  8
10_OUTLINE
  5
6353
 10
1720.30
 20
1962.22
 30
0.000000
  70
    32
  0
VERTEX
  8
10_OUTLINE
  5
6354
 10
1719.44
 20
1963.04
 30
0.000000
  70
    32
  0
VERTEX
  8
10_OUTLINE
  5
6355
 10
1718.52
 20
1963.84
 30
0.000000
  70
    32
  0
VERTEX
  8
10_OUTLINE
  5
6356
 10
1717.52
 20
1964.61
 30
0.000000
  70
    32
  0
VERTEX
  8
10_OUTLINE
  5
6357
 10
1716.45
 20
1965.35
 30
0.000000
  70
    32
  0
VERTEX
  8
10_OUTLINE
  5
6358
 10
1715.32
 20
1966.06
 30
0.000000
  70
    32
  0
VERTEX
  8
10_OUTLINE
  5
6359
 10
1714.13
 20
1966.74
 30
0.000000
  70
    32
  0
VERTEX
  8
10_OUTLINE
  5
635A
 10
1712.87
 20
1967.39
 30
0.000000
  70
    32
  0
VERTEX
  8
10_OUTLINE
  5
635B
 10
1711.56
 20
1968.01
 30
0.000000
  70
    32
  0
VERTEX
  8
10_OUTLINE
  5
635C
 10
1710.20
 20
1968.59
 30
0.000000
  70
    32
  0
VERTEX
  8
10_OUTLINE
  5
635D
 10
1708.78
 20
1969.13
 30
0.000000
  70
    32
  0
VERTEX
  8
10_OUTLINE
  5
635E
 10
1707.32
 20
1969.64
 30
0.000000
  70
    32
  0
VERTEX
  8
10_OUTLINE
  5
635F
 10
1705.81
 20
1970.10
 30
0.000000
  70
    32
  0
VERTEX
  8
10_OUTLINE
  5
6360
 10
1704.26
 20
1970.52
 30
0.000000
  70
    32
  0
VERTEX
  8
10_OUTLINE
  5
6361
 10
1702.68
 20
1970.90
 30
0.000000
  70
    32
  0
VERTEX
  8
10_OUTLINE
  5
6362
 10
1701.06
 20
1971.24
 30
0.000000
  70
    32
  0
VERTEX
  8
10_OUTLINE
  5
6363
 10
1699.42
 20
1971.54
 30
0.000000
  70
    32
  0
VERTEX
  8
10_OUTLINE
  5
6364
 10
1697.75
 20
1971.79
 30
0.000000
  70
    32
  0
VERTEX
  8
10_OUTLINE
  5
6365
 10
1696.06
 20
1972.00
 30
0.000000
  70
    32
  0
VERTEX
  8
10_OUTLINE
  5
6366
 10
1694.35
 20
1972.16
 30
0.000000
  70
    32
  0
VERTEX
  8
10_OUTLINE
  5
6367
 10
1692.63
 20
1972.27
 30
0.000000
  70
    32
  0
VERTEX
  8
10_OUTLINE
  5
6368
 10
1690.91
 20
1972.34
 30
0.000000
  70
    32
  0
VERTEX
  8
10_OUTLINE
  5
6369
 10
1689.17
 20
1972.37
 30
0.000000
  70
    32
  0
VERTEX
  8
10_OUTLINE
  5
636A
 10
1687.44
 20
1972.34
 30
0.000000
  70
    32
  0
VERTEX
  8
10_OUTLINE
  5
636B
 10
1685.71
 20
1972.27
 30
0.000000
  70
    32
  0
VERTEX
  8
10_OUTLINE
  5
636C
 10
1684.00
 20
1972.16
 30
0.000000
  70
    32
  0
VERTEX
  8
10_OUTLINE
  5
636D
 10
1682.29
 20
1972.00
 30
0.000000
  70
    32
  0
VERTEX
  8
10_OUTLINE
  5
636E
 10
1680.60
 20
1971.79
 30
0.000000
  70
    32
  0
VERTEX
  8
10_OUTLINE
  5
636F
 10
1678.93
 20
1971.54
 30
0.000000
  70
    32
  0
VERTEX
  8
10_OUTLINE
  5
6370
 10
1677.28
 20
1971.24
 30
0.000000
  70
    32
  0
VERTEX
  8
10_OUTLINE
  5
6371
 10
1675.67
 20
1970.90
 30
0.000000
  70
    32
  0
VERTEX
  8
10_OUTLINE
  5
6372
 10
1674.08
 20
1970.52
 30
0.000000
  70
    32
  0
VERTEX
  8
10_OUTLINE
  5
6373
 10
1672.54
 20
1970.10
 30
0.000000
  70
    32
  0
VERTEX
  8
10_OUTLINE
  5
6374
 10
1671.03
 20
1969.64
 30
0.000000
  70
    32
  0
VERTEX
  8
10_OUTLINE
  5
6375
 10
1669.57
 20
1969.13
 30
0.000000
  70
    32
  0
VERTEX
  8
10_OUTLINE
  5
6376
 10
1668.15
 20
1968.59
 30
0.000000
  70
    32
  0
VERTEX
  8
10_OUTLINE
  5
6377
 10
1666.78
 20
1968.01
 30
0.000000
  70
    32
  0
VERTEX
  8
10_OUTLINE
  5
6378
 10
1665.47
 20
1967.39
 30
0.000000
  70
    32
  0
VERTEX
  8
10_OUTLINE
  5
6379
 10
1664.22
 20
1966.74
 30
0.000000
  70
    32
  0
VERTEX
  8
10_OUTLINE
  5
637A
 10
1663.02
 20
1966.06
 30
0.000000
  70
    32
  0
VERTEX
  8
10_OUTLINE
  5
637B
 10
1661.89
 20
1965.35
 30
0.000000
  70
    32
  0
VERTEX
  8
10_OUTLINE
  5
637C
 10
1660.83
 20
1964.61
 30
0.000000
  70
    32
  0
VERTEX
  8
10_OUTLINE
  5
637D
 10
1659.83
 20
1963.84
 30
0.000000
  70
    32
  0
VERTEX
  8
10_OUTLINE
  5
637E
 10
1658.90
 20
1963.04
 30
0.000000
  70
    32
  0
VERTEX
  8
10_OUTLINE
  5
637F
 10
1658.05
 20
1962.22
 30
0.000000
  70
    32
  0
VERTEX
  8
10_OUTLINE
  5
6380
 10
1657.27
 20
1961.38
 30
0.000000
  70
    32
  0
VERTEX
  8
10_OUTLINE
  5
6381
 10
1656.57
 20
1960.52
 30
0.000000
  70
    32
  0
VERTEX
  8
10_OUTLINE
  5
6382
 10
1655.94
 20
1959.64
 30
0.000000
  70
    32
  0
VERTEX
  8
10_OUTLINE
  5
6383
 10
1655.40
 20
1958.74
 30
0.000000
  70
    32
  0
VERTEX
  8
10_OUTLINE
  5
6384
 10
1654.94
 20
1957.84
 30
0.000000
  70
    32
  0
VERTEX
  8
10_OUTLINE
  5
6385
 10
1654.56
 20
1956.92
 30
0.000000
  70
    32
  0
VERTEX
  8
10_OUTLINE
  5
6386
 10
1654.26
 20
1955.99
 30
0.000000
  70
    32
  0
VERTEX
  8
10_OUTLINE
  5
6387
 10
1654.05
 20
1955.05
 30
0.000000
  70
    32
  0
VERTEX
  8
10_OUTLINE
  5
6388
 10
1653.92
 20
1954.12
 30
0.000000
  70
    32
  0
VERTEX
  8
10_OUTLINE
  5
6389
 10
1653.88
 20
1953.17
 30
0.000000
  70
    32
  0
SEQEND
  8
10_OUTLINE
  5
638A
  0
POLYLINE
  5
5871
  8
10_OUTLINE
 62
     2
 10
2091.0356224677289
 20
1953.1736845546241
 30
0.0
 66
     1
 70
     8
  0
VERTEX
  8
10_OUTLINE
  5
638B
 10
2091.04
 20
1953.17
 30
0.000000
  70
    32
  0
VERTEX
  8
10_OUTLINE
  5
638C
 10
2090.99
 20
1952.23
 30
0.000000
  70
    32
  0
VERTEX
  8
10_OUTLINE
  5
638D
 10
2090.87
 20
1951.29
 30
0.000000
  70
    32
  0
VERTEX
  8
10_OUTLINE
  5
638E
 10
2090.65
 20
1950.36
 30
0.000000
  70
    32
  0
VERTEX
  8
10_OUTLINE
  5
638F
 10
2090.36
 20
1949.43
 30
0.000000
  70
    32
  0
VERTEX
  8
10_OUTLINE
  5
6390
 10
2089.98
 20
1948.51
 30
0.000000
  70
    32
  0
VERTEX
  8
10_OUTLINE
  5
6391
 10
2089.52
 20
1947.60
 30
0.000000
  70
    32
  0
VERTEX
  8
10_OUTLINE
  5
6392
 10
2088.97
 20
1946.71
 30
0.000000
  70
    32
  0
VERTEX
  8
10_OUTLINE
  5
6393
 10
2088.35
 20
1945.83
 30
0.000000
  70
    32
  0
VERTEX
  8
10_OUTLINE
  5
6394
 10
2087.65
 20
1944.97
 30
0.000000
  70
    32
  0
VERTEX
  8
10_OUTLINE
  5
6395
 10
2086.87
 20
1944.13
 30
0.000000
  70
    32
  0
VERTEX
  8
10_OUTLINE
  5
6396
 10
2086.01
 20
1943.31
 30
0.000000
  70
    32
  0
VERTEX
  8
10_OUTLINE
  5
6397
 10
2085.09
 20
1942.51
 30
0.000000
  70
    32
  0
VERTEX
  8
10_OUTLINE
  5
6398
 10
2084.09
 20
1941.74
 30
0.000000
  70
    32
  0
VERTEX
  8
10_OUTLINE
  5
6399
 10
2083.02
 20
1941.00
 30
0.000000
  70
    32
  0
VERTEX
  8
10_OUTLINE
  5
639A
 10
2081.89
 20
1940.29
 30
0.000000
  70
    32
  0
VERTEX
  8
10_OUTLINE
  5
639B
 10
2080.70
 20
1939.60
 30
0.000000
  70
    32
  0
VERTEX
  8
10_OUTLINE
  5
639C
 10
2079.44
 20
1938.95
 30
0.000000
  70
    32
  0
VERTEX
  8
10_OUTLINE
  5
639D
 10
2078.13
 20
1938.34
 30
0.000000
  70
    32
  0
VERTEX
  8
10_OUTLINE
  5
639E
 10
2076.77
 20
1937.76
 30
0.000000
  70
    32
  0
VERTEX
  8
10_OUTLINE
  5
639F
 10
2075.35
 20
1937.22
 30
0.000000
  70
    32
  0
VERTEX
  8
10_OUTLINE
  5
63A0
 10
2073.89
 20
1936.71
 30
0.000000
  70
    32
  0
VERTEX
  8
10_OUTLINE
  5
63A1
 10
2072.38
 20
1936.25
 30
0.000000
  70
    32
  0
VERTEX
  8
10_OUTLINE
  5
63A2
 10
2070.83
 20
1935.82
 30
0.000000
  70
    32
  0
VERTEX
  8
10_OUTLINE
  5
63A3
 10
2069.25
 20
1935.44
 30
0.000000
  70
    32
  0
VERTEX
  8
10_OUTLINE
  5
63A4
 10
2067.63
 20
1935.10
 30
0.000000
  70
    32
  0
VERTEX
  8
10_OUTLINE
  5
63A5
 10
2065.99
 20
1934.81
 30
0.000000
  70
    32
  0
VERTEX
  8
10_OUTLINE
  5
63A6
 10
2064.32
 20
1934.56
 30
0.000000
  70
    32
  0
VERTEX
  8
10_OUTLINE
  5
63A7
 10
2062.63
 20
1934.35
 30
0.000000
  70
    32
  0
VERTEX
  8
10_OUTLINE
  5
63A8
 10
2060.92
 20
1934.19
 30
0.000000
  70
    32
  0
VERTEX
  8
10_OUTLINE
  5
63A9
 10
2059.20
 20
1934.07
 30
0.000000
  70
    32
  0
VERTEX
  8
10_OUTLINE
  5
63AA
 10
2057.47
 20
1934.00
 30
0.000000
  70
    32
  0
VERTEX
  8
10_OUTLINE
  5
63AB
 10
2055.74
 20
1933.98
 30
0.000000
  70
    32
  0
VERTEX
  8
10_OUTLINE
  5
63AC
 10
2054.01
 20
1934.00
 30
0.000000
  70
    32
  0
VERTEX
  8
10_OUTLINE
  5
63AD
 10
2052.28
 20
1934.07
 30
0.000000
  70
    32
  0
VERTEX
  8
10_OUTLINE
  5
63AE
 10
2050.56
 20
1934.19
 30
0.000000
  70
    32
  0
VERTEX
  8
10_OUTLINE
  5
63AF
 10
2048.86
 20
1934.35
 30
0.000000
  70
    32
  0
VERTEX
  8
10_OUTLINE
  5
63B0
 10
2047.17
 20
1934.56
 30
0.000000
  70
    32
  0
VERTEX
  8
10_OUTLINE
  5
63B1
 10
2045.50
 20
1934.81
 30
0.000000
  70
    32
  0
VERTEX
  8
10_OUTLINE
  5
63B2
 10
2043.85
 20
1935.10
 30
0.000000
  70
    32
  0
VERTEX
  8
10_OUTLINE
  5
63B3
 10
2042.24
 20
1935.44
 30
0.000000
  70
    32
  0
VERTEX
  8
10_OUTLINE
  5
63B4
 10
2040.65
 20
1935.82
 30
0.000000
  70
    32
  0
VERTEX
  8
10_OUTLINE
  5
63B5
 10
2039.11
 20
1936.25
 30
0.000000
  70
    32
  0
VERTEX
  8
10_OUTLINE
  5
63B6
 10
2037.60
 20
1936.71
 30
0.000000
  70
    32
  0
VERTEX
  8
10_OUTLINE
  5
63B7
 10
2036.14
 20
1937.22
 30
0.000000
  70
    32
  0
VERTEX
  8
10_OUTLINE
  5
63B8
 10
2034.72
 20
1937.76
 30
0.000000
  70
    32
  0
VERTEX
  8
10_OUTLINE
  5
63B9
 10
2033.35
 20
1938.34
 30
0.000000
  70
    32
  0
VERTEX
  8
10_OUTLINE
  5
63BA
 10
2032.04
 20
1938.95
 30
0.000000
  70
    32
  0
VERTEX
  8
10_OUTLINE
  5
63BB
 10
2030.79
 20
1939.60
 30
0.000000
  70
    32
  0
VERTEX
  8
10_OUTLINE
  5
63BC
 10
2029.59
 20
1940.29
 30
0.000000
  70
    32
  0
VERTEX
  8
10_OUTLINE
  5
63BD
 10
2028.46
 20
1941.00
 30
0.000000
  70
    32
  0
VERTEX
  8
10_OUTLINE
  5
63BE
 10
2027.40
 20
1941.74
 30
0.000000
  70
    32
  0
VERTEX
  8
10_OUTLINE
  5
63BF
 10
2026.40
 20
1942.51
 30
0.000000
  70
    32
  0
VERTEX
  8
10_OUTLINE
  5
63C0
 10
2025.47
 20
1943.31
 30
0.000000
  70
    32
  0
VERTEX
  8
10_OUTLINE
  5
63C1
 10
2024.62
 20
1944.13
 30
0.000000
  70
    32
  0
VERTEX
  8
10_OUTLINE
  5
63C2
 10
2023.84
 20
1944.97
 30
0.000000
  70
    32
  0
VERTEX
  8
10_OUTLINE
  5
63C3
 10
2023.14
 20
1945.83
 30
0.000000
  70
    32
  0
VERTEX
  8
10_OUTLINE
  5
63C4
 10
2022.51
 20
1946.71
 30
0.000000
  70
    32
  0
VERTEX
  8
10_OUTLINE
  5
63C5
 10
2021.97
 20
1947.60
 30
0.000000
  70
    32
  0
VERTEX
  8
10_OUTLINE
  5
63C6
 10
2021.51
 20
1948.51
 30
0.000000
  70
    32
  0
VERTEX
  8
10_OUTLINE
  5
63C7
 10
2021.13
 20
1949.43
 30
0.000000
  70
    32
  0
VERTEX
  8
10_OUTLINE
  5
63C8
 10
2020.83
 20
1950.36
 30
0.000000
  70
    32
  0
VERTEX
  8
10_OUTLINE
  5
63C9
 10
2020.62
 20
1951.29
 30
0.000000
  70
    32
  0
VERTEX
  8
10_OUTLINE
  5
63CA
 10
2020.49
 20
1952.23
 30
0.000000
  70
    32
  0
VERTEX
  8
10_OUTLINE
  5
63CB
 10
2020.45
 20
1953.17
 30
0.000000
  70
    32
  0
VERTEX
  8
10_OUTLINE
  5
63CC
 10
2020.49
 20
1954.12
 30
0.000000
  70
    32
  0
VERTEX
  8
10_OUTLINE
  5
63CD
 10
2020.62
 20
1955.05
 30
0.000000
  70
    32
  0
VERTEX
  8
10_OUTLINE
  5
63CE
 10
2020.83
 20
1955.99
 30
0.000000
  70
    32
  0
VERTEX
  8
10_OUTLINE
  5
63CF
 10
2021.13
 20
1956.92
 30
0.000000
  70
    32
  0
VERTEX
  8
10_OUTLINE
  5
63D0
 10
2021.51
 20
1957.84
 30
0.000000
  70
    32
  0
VERTEX
  8
10_OUTLINE
  5
63D1
 10
2021.97
 20
1958.74
 30
0.000000
  70
    32
  0
VERTEX
  8
10_OUTLINE
  5
63D2
 10
2022.51
 20
1959.64
 30
0.000000
  70
    32
  0
VERTEX
  8
10_OUTLINE
  5
63D3
 10
2023.14
 20
1960.52
 30
0.000000
  70
    32
  0
VERTEX
  8
10_OUTLINE
  5
63D4
 10
2023.84
 20
1961.38
 30
0.000000
  70
    32
  0
VERTEX
  8
10_OUTLINE
  5
63D5
 10
2024.62
 20
1962.22
 30
0.000000
  70
    32
  0
VERTEX
  8
10_OUTLINE
  5
63D6
 10
2025.47
 20
1963.04
 30
0.000000
  70
    32
  0
VERTEX
  8
10_OUTLINE
  5
63D7
 10
2026.40
 20
1963.84
 30
0.000000
  70
    32
  0
VERTEX
  8
10_OUTLINE
  5
63D8
 10
2027.40
 20
1964.61
 30
0.000000
  70
    32
  0
VERTEX
  8
10_OUTLINE
  5
63D9
 10
2028.46
 20
1965.35
 30
0.000000
  70
    32
  0
VERTEX
  8
10_OUTLINE
  5
63DA
 10
2029.59
 20
1966.06
 30
0.000000
  70
    32
  0
VERTEX
  8
10_OUTLINE
  5
63DB
 10
2030.79
 20
1966.74
 30
0.000000
  70
    32
  0
VERTEX
  8
10_OUTLINE
  5
63DC
 10
2032.04
 20
1967.39
 30
0.000000
  70
    32
  0
VERTEX
  8
10_OUTLINE
  5
63DD
 10
2033.35
 20
1968.01
 30
0.000000
  70
    32
  0
VERTEX
  8
10_OUTLINE
  5
63DE
 10
2034.72
 20
1968.59
 30
0.000000
  70
    32
  0
VERTEX
  8
10_OUTLINE
  5
63DF
 10
2036.14
 20
1969.13
 30
0.000000
  70
    32
  0
VERTEX
  8
10_OUTLINE
  5
63E0
 10
2037.60
 20
1969.64
 30
0.000000
  70
    32
  0
VERTEX
  8
10_OUTLINE
  5
63E1
 10
2039.11
 20
1970.10
 30
0.000000
  70
    32
  0
VERTEX
  8
10_OUTLINE
  5
63E2
 10
2040.65
 20
1970.52
 30
0.000000
  70
    32
  0
VERTEX
  8
10_OUTLINE
  5
63E3
 10
2042.24
 20
1970.90
 30
0.000000
  70
    32
  0
VERTEX
  8
10_OUTLINE
  5
63E4
 10
2043.85
 20
1971.24
 30
0.000000
  70
    32
  0
VERTEX
  8
10_OUTLINE
  5
63E5
 10
2045.50
 20
1971.54
 30
0.000000
  70
    32
  0
VERTEX
  8
10_OUTLINE
  5
63E6
 10
2047.17
 20
1971.79
 30
0.000000
  70
    32
  0
VERTEX
  8
10_OUTLINE
  5
63E7
 10
2048.86
 20
1972.00
 30
0.000000
  70
    32
  0
VERTEX
  8
10_OUTLINE
  5
63E8
 10
2050.56
 20
1972.16
 30
0.000000
  70
    32
  0
VERTEX
  8
10_OUTLINE
  5
63E9
 10
2052.28
 20
1972.27
 30
0.000000
  70
    32
  0
VERTEX
  8
10_OUTLINE
  5
63EA
 10
2054.01
 20
1972.34
 30
0.000000
  70
    32
  0
VERTEX
  8
10_OUTLINE
  5
63EB
 10
2055.74
 20
1972.37
 30
0.000000
  70
    32
  0
VERTEX
  8
10_OUTLINE
  5
63EC
 10
2057.47
 20
1972.34
 30
0.000000
  70
    32
  0
VERTEX
  8
10_OUTLINE
  5
63ED
 10
2059.20
 20
1972.27
 30
0.000000
  70
    32
  0
VERTEX
  8
10_OUTLINE
  5
63EE
 10
2060.92
 20
1972.16
 30
0.000000
  70
    32
  0
VERTEX
  8
10_OUTLINE
  5
63EF
 10
2062.63
 20
1972.00
 30
0.000000
  70
    32
  0
VERTEX
  8
10_OUTLINE
  5
63F0
 10
2064.32
 20
1971.79
 30
0.000000
  70
    32
  0
VERTEX
  8
10_OUTLINE
  5
63F1
 10
2065.99
 20
1971.54
 30
0.000000
  70
    32
  0
VERTEX
  8
10_OUTLINE
  5
63F2
 10
2067.63
 20
1971.24
 30
0.000000
  70
    32
  0
VERTEX
  8
10_OUTLINE
  5
63F3
 10
2069.25
 20
1970.90
 30
0.000000
  70
    32
  0
VERTEX
  8
10_OUTLINE
  5
63F4
 10
2070.83
 20
1970.52
 30
0.000000
  70
    32
  0
VERTEX
  8
10_OUTLINE
  5
63F5
 10
2072.38
 20
1970.10
 30
0.000000
  70
    32
  0
VERTEX
  8
10_OUTLINE
  5
63F6
 10
2073.89
 20
1969.64
 30
0.000000
  70
    32
  0
VERTEX
  8
10_OUTLINE
  5
63F7
 10
2075.35
 20
1969.13
 30
0.000000
  70
    32
  0
VERTEX
  8
10_OUTLINE
  5
63F8
 10
2076.77
 20
1968.59
 30
0.000000
  70
    32
  0
VERTEX
  8
10_OUTLINE
  5
63F9
 10
2078.13
 20
1968.01
 30
0.000000
  70
    32
  0
VERTEX
  8
10_OUTLINE
  5
63FA
 10
2079.44
 20
1967.39
 30
0.000000
  70
    32
  0
VERTEX
  8
10_OUTLINE
  5
63FB
 10
2080.70
 20
1966.74
 30
0.000000
  70
    32
  0
VERTEX
  8
10_OUTLINE
  5
63FC
 10
2081.89
 20
1966.06
 30
0.000000
  70
    32
  0
VERTEX
  8
10_OUTLINE
  5
63FD
 10
2083.02
 20
1965.35
 30
0.000000
  70
    32
  0
VERTEX
  8
10_OUTLINE
  5
63FE
 10
2084.09
 20
1964.61
 30
0.000000
  70
    32
  0
VERTEX
  8
10_OUTLINE
  5
63FF
 10
2085.09
 20
1963.84
 30
0.000000
  70
    32
  0
VERTEX
  8
10_OUTLINE
  5
6400
 10
2086.01
 20
1963.04
 30
0.000000
  70
    32
  0
VERTEX
  8
10_OUTLINE
  5
6401
 10
2086.87
 20
1962.22
 30
0.000000
  70
    32
  0
VERTEX
  8
10_OUTLINE
  5
6402
 10
2087.65
 20
1961.38
 30
0.000000
  70
    32
  0
VERTEX
  8
10_OUTLINE
  5
6403
 10
2088.35
 20
1960.52
 30
0.000000
  70
    32
  0
VERTEX
  8
10_OUTLINE
  5
6404
 10
2088.97
 20
1959.64
 30
0.000000
  70
    32
  0
VERTEX
  8
10_OUTLINE
  5
6405
 10
2089.52
 20
1958.74
 30
0.000000
  70
    32
  0
VERTEX
  8
10_OUTLINE
  5
6406
 10
2089.98
 20
1957.84
 30
0.000000
  70
    32
  0
VERTEX
  8
10_OUTLINE
  5
6407
 10
2090.36
 20
1956.92
 30
0.000000
  70
    32
  0
VERTEX
  8
10_OUTLINE
  5
6408
 10
2090.65
 20
1955.99
 30
0.000000
  70
    32
  0
VERTEX
  8
10_OUTLINE
  5
6409
 10
2090.87
 20
1955.05
 30
0.000000
  70
    32
  0
VERTEX
  8
10_OUTLINE
  5
640A
 10
2090.99
 20
1954.12
 30
0.000000
  70
    32
  0
VERTEX
  8
10_OUTLINE
  5
640B
 10
2091.04
 20
1953.17
 30
0.000000
  70
    32
  0
SEQEND
  8
10_OUTLINE
  5
640C
  0
LINE
  5
5872
  8
10_OUTLINE
 62
     2
 10
1636.4092128580669
 20
1985.8446826385839
 30
0.0
 11
1636.4092128580669
 21
1986.8446826385839
 31
0.0
  0
LINE
  5
5873
  8
10_OUTLINE
 62
     2
 10
1646.4092128580669
 20
1985.8446826385839
 30
0.0
 11
1646.4092128580669
 21
1986.8446826385839
 31
0.0
  0
LINE
  5
5874
  8
10_OUTLINE
 62
     2
 10
1646.4092128580669
 20
1986.8446826385839
 30
0.0
 11
1636.4092128580669
 21
1986.8446826385839
 31
0.0
  0
LINE
  5
5875
  8
10_OUTLINE
 62
     2
 10
2108.5090128580691
 20
1986.8446826385839
 30
0.0
 11
2098.50901285807
 21
1986.8446826385839
 31
0.0
  0
LINE
  5
5876
  8
10_OUTLINE
 62
     2
 10
2108.5090128580691
 20
1985.8446826385839
 30
0.0
 11
2108.5090128580691
 21
1986.8446826385839
 31
0.0
  0
LINE
  5
5877
  8
10_OUTLINE
 62
     2
 10
2098.50901285807
 20
1985.8446826385839
 30
0.0
 11
2098.50901285807
 21
1986.8446826385839
 31
0.0
  0
LINE
  5
5878
  8
10_OUTLINE
 62
     2
 10
2108.5090128580691
 20
1985.8446826385839
 30
0.0
 11
2163.5082160065508
 21
1985.8446826385839
 31
0.0
  0
LINE
  5
5879
  8
10_OUTLINE
 62
     2
 10
1646.4092128580669
 20
1985.8446826385839
 30
0.0
 11
1772.4583160065499
 21
1985.8446826385839
 31
0.0
  0
LINE
  5
587A
  8
10_OUTLINE
 62
     2
 10
1772.4583160065499
 20
1988.0446826385839
 30
0.0
 11
1770.4583160065499
 21
1988.0446826385839
 31
0.0
  0
LINE
  5
587B
  8
10_OUTLINE
 62
     2
 10
1770.4583160065499
 20
1988.0446826385839
 30
0.0
 11
1770.4583160065499
 21
2007.337381598137
 31
0.0
  0
LINE
  5
587C
  8
10_OUTLINE
 62
     2
 10
1972.4583160065499
 20
1988.0446826385839
 30
0.0
 11
1974.4583160065499
 21
1988.0446826385839
 31
0.0
  0
LINE
  5
587D
  8
10_OUTLINE
 62
     2
 10
1972.4583160065499
 20
1988.0446826385839
 30
0.0
 11
1972.4583160065499
 21
1985.8446826385839
 31
0.0
  0
LINE
  5
587E
  8
10_OUTLINE
 62
     2
 10
1972.4583160065499
 20
1988.0446826385839
 30
0.0
 11
1972.4583160065499
 21
1986.3446826385839
 31
0.0
  0
LINE
  5
587F
  8
10_OUTLINE
 62
     2
 10
2098.5074191550339
 20
1985.8446826385839
 30
0.0
 11
1972.4583160065499
 21
1985.8446826385839
 31
0.0
  0
LINE
  5
5880
  8
10_OUTLINE
 62
     2
 10
1577.408416006549
 20
1948.504319954541
 30
0.0
 11
1577.408416006549
 21
1958.5043199545421
 31
0.0
  0
LINE
  5
5881
  8
10_OUTLINE
 62
     2
 10
1581.408416006549
 20
1948.504319954541
 30
0.0
 11
1577.408416006549
 21
1948.504319954541
 31
0.0
  0
LINE
  5
5882
  8
10_OUTLINE
 62
     2
 10
1581.408416006549
 20
1958.5043199545421
 30
0.0
 11
1577.408416006549
 21
1958.5043199545421
 31
0.0
  0
LINE
  5
5883
  8
10_OUTLINE
 62
     2
 10
1581.408416006549
 20
1958.5043199545421
 30
0.0
 11
1581.4084160065499
 21
1985.8446826385839
 31
0.0
  0
LINE
  5
5884
  8
10_OUTLINE
 62
     2
 10
2163.5082160065508
 20
1958.5043199545421
 30
0.0
 11
2163.5082160065508
 21
1985.8446826385839
 31
0.0
  0
LINE
  5
5885
  8
10_OUTLINE
 62
     2
 10
2163.5082160065508
 20
1943.504319954541
 30
0.0
 11
2163.5082160065508
 21
1948.504319954541
 31
0.0
  0
LINE
  5
5886
  8
10_OUTLINE
 62
     2
 10
2167.5082160065508
 20
1948.504319954541
 30
0.0
 11
2167.5082160065508
 21
1958.5043199545421
 31
0.0
  0
LINE
  5
5887
  8
10_OUTLINE
 62
     2
 10
2163.5082160065508
 20
1948.504319954541
 30
0.0
 11
2167.5082160065508
 21
1948.504319954541
 31
0.0
  0
LINE
  5
5888
  8
10_OUTLINE
 62
     2
 10
2163.5082160065508
 20
1958.5043199545421
 30
0.0
 11
2167.5082160065508
 21
1958.5043199545421
 31
0.0
  0
ARC
  5
5889
  8
10_OUTLINE
 62
     2
 10
2114.804311453845
 20
1884.614489541648
 30
0.0
 40
50.0
 50
101.98030108885889
 51
125.21742436323019
  0
ARC
  5
588A
  8
10_OUTLINE
 62
     2
 10
2156.6984956707238
 20
1893.504319954541
 30
0.0
 40
50.0
 50
90.0
 51
101.98030108885889
  0
LINE
  5
588B
  8
10_OUTLINE
 62
     2
 10
1640.4910895977389
 20
1933.5254408025451
 30
0.0
 11
1598.5969053808601
 21
1942.415271215438
 31
0.0
  0
ARC
  5
588C
  8
10_OUTLINE
 62
     2
 10
1630.112320559256
 20
1884.614489541648
 30
0.0
 40
50.0
 50
54.782575636769771
 51
78.01969891114102
  0
LINE
  5
588D
  8
10_OUTLINE
 62
     2
 10
1772.4583160065499
 20
1845.337381598137
 30
0.0
 11
1658.946360234022
 21
1925.4629675553269
 31
0.0
  0
ARC
  5
588E
  8
10_OUTLINE
 62
     2
 10
1588.218136342377
 20
1893.504319954541
 30
0.0
 40
50.0
 50
78.01969891114102
 51
90.0
  0
INSERT
  5
588F
  8
0
  2
*U2
 10
0.0
 20
0.0
 30
0.0
  0
DIMENSION
  5
5890
  8
50_DIMENSIONS
  2
*D0
 10
1526.833286479736
 20
2017.337381598137
 30
0.0
 11
1526.833286479736
 21
1915.841032118361
 31
0.0
 70
     0
 13
1782.4583160065499
 23
1814.3446826385839
 33
0.0
 14
1782.4583160065499
 24
2017.337381598137
 34
0.0
 50
90.0
  0
DIMENSION
  5
5891
  8
50_DIMENSIONS
  2
*D1
 10
2163.5082160065508
 20
2062.1525075023819
 30
0.0
 11
1872.4583160065499
 21
2062.1525075023819
 31
0.0
 70
     0
 13
1581.4084160065499
 23
1985.8446826385839
 33
0.0
 14
2163.5082160065508
 24
1985.8446826385839
 34
0.0
  0
TEXT
  5
5892
  8
62_TEXT
 10
2170.8124266456421
 20
1664.2388047157281
 30
0.0
 40
6.0
  1
5-11-06
  7
MECHTRONICS
  0
TEXT
  5
5893
  8
01_FRAME
 62
     7
 10
2209.524412096499
 20
1664.097297306309
 30
0.0
 40
6.0
  1
B
  7
MECHTRONICS
  0
TEXT
  5
5894
  8
01_FRAME
 62
     7
 10
2039.4870399747881
 20
1664.2388047157281
 30
0.0
 40
6.0
  1
Moved slots, deleted small holes
  7
MECHTRONICS
  0
LINE
  5
5926
  8
01_FRAME
 62
     7
 10
1865.5413185614591
 20
1840.75199154231
 30
0.0
 11
1871.6729686026849
 21
1851.372320947944
 31
0.0
  0
LINE
  5
5927
  8
01_FRAME
 62
     7
 10
1865.5413185614591
 20
1840.75199154231
 30
0.0
 11
1877.8046186439101
 21
1840.75199154231
 31
0.0
  0
LINE
  5
5928
  8
01_FRAME
 62
     7
 10
1877.8046186439101
 20
1840.75199154231
 30
0.0
 11
1871.6729686026849
 21
1851.372320947944
 31
0.0
  0
TEXT
  5
5929
  8
01_FRAME
 62
     7
 10
1868.3061807768149
 20
1841.5944232061181
 30
0.0
 40
6.0
  1
B
  7
MECHTRONICS
  0
LINE
  5
592A
  8
01_FRAME
 62
     7
 10
1865.5413185614591
 20
1986.320780379536
 30
0.0
 11
1871.6729686026849
 21
1996.9411097851701
 31
0.0
  0
LINE
  5
592B
  8
01_FRAME
 62
     7
 10
1865.5413185614591
 20
1986.320780379536
 30
0.0
 11
1877.8046186439101
 21
1986.320780379536
 31
0.0
  0
LINE
  5
592C
  8
01_FRAME
 62
     7
 10
1877.8046186439101
 20
1986.320780379536
 30
0.0
 11
1871.6729686026849
 21
1996.9411097851701
 31
0.0
  0
TEXT
  5
592D
  8
01_FRAME
 62
     7
 10
1868.3061807768149
 20
1987.1632120433439
 30
0.0
 40
6.0
  1
B
  7
MECHTRONICS
  0
LINE
  5
592E
  8
01_FRAME
 62
     7
 10
1610.092551946864
 20
1960.547393324355
 30
0.0
 11
1616.22420198809
 21
1971.1677227299899
 31
0.0
  0
LINE
  5
592F
  8
01_FRAME
 62
     7
 10
1610.092551946864
 20
1960.547393324355
 30
0.0
 11
1622.355852029315
 21
1960.547393324355
 31
0.0
  0
LINE
  5
5930
  8
01_FRAME
 62
     7
 10
1622.355852029315
 20
1960.547393324355
 30
0.0
 11
1616.22420198809
 21
1971.1677227299899
 31
0.0
  0
TEXT
  5
5931
  8
01_FRAME
 62
     7
 10
1612.85741416222
 20
1961.389824988164
 30
0.0
 40
6.0
  1
B
  7
MECHTRONICS
  0
LINE
  5
5932
  8
01_FRAME
 62
     7
 10
2131.5779174410181
 20
1960.547393324355
 30
0.0
 11
2137.709567482244
 21
1971.1677227299899
 31
0.0
  0
LINE
  5
5933
  8
01_FRAME
 62
     7
 10
2131.5779174410181
 20
1960.547393324355
 30
0.0
 11
2143.8412175234698
 21
1960.547393324355
 31
0.0
  0
LINE
  5
5934
  8
01_FRAME
 62
     7
 10
2143.8412175234698
 20
1960.547393324355
 30
0.0
 11
2137.709567482244
 21
1971.1677227299899
 31
0.0
  0
TEXT
  5
5935
  8
01_FRAME
 62
     7
 10
2134.3427796563742
 20
1961.389824988164
 30
0.0
 40
6.0
  1
B
  7
MECHTRONICS
  0
TEXT
  5
61AC
  8
01_FRAME
 62
     8
 10
1995.7515521856919
 20
1665.00785948986
 30
0.0
 40
4.2000000000000002
  1
1:3
  7
MECHTRONICS
  0
LINE
  5
61AD
  8
01_FRAME
 62
     7
 10
1987.4527697140641
 20
1598.3913823270809
 30
0.0
 11
1991.005015527353
 21
1598.3913823270809
 31
0.0
  0
LINE
  5
61AE
  8
01_FRAME
 62
     7
 10
1989.836212054654
 20
1613.5666367874269
 30
0.0
 11
1987.4527697140641
 21
1598.3913823270809
 31
0.0
  0
LINE
  5
61AF
  8
01_FRAME
 62
     7
 10
1984.5078432849909
 20
1603.138690492664
 30
0.0
 11
1989.836212054654
 21
1613.5666367874269
 31
0.0
  0
LINE
  5
61B0
  8
01_FRAME
 62
     7
 10
1993.6290938916529
 20
1616.7007819792941
 30
0.0
 11
1988.083006895343
 21
1616.7007819792941
 31
0.0
  0
LINE
  5
61B1
  8
01_FRAME
 62
     7
 10
1938.9950202080499
 20
1605.8606151296549
 30
0.0
 11
1946.5618782685581
 21
1605.8606151296549
 31
0.0
  0
LINE
  5
61B2
  8
01_FRAME
 62
     7
 10
1945.869787593504
 20
1602.7699433994969
 30
0.0
 11
1939.733250248177
 21
1602.7699433994969
 31
0.0
  0
LINE
  5
61B3
  8
01_FRAME
 62
     7
 10
1938.1183719732319
 20
1600.417342463463
 30
0.0
 11
1944.319223520368
 21
1600.417342463463
 31
0.0
  0
LINE
  5
61B4
  8
01_FRAME
 62
     7
 10
1944.6658837247469
 20
1612.6416413277859
 30
0.0
 11
1940.1946439983899
 21
1612.6416413277859
 31
0.0
  0
LINE
  5
61B5
  8
01_FRAME
 62
     7
 10
1939.304615817184
 20
1607.844168285033
 30
0.0
 11
1943.7783614365101
 21
1607.844168285033
 31
0.0
  0
LINE
  5
61B6
  8
01_FRAME
 62
     7
 10
1943.22943560097
 20
1610.322150728545
 30
0.0
 11
1940.3750211765939
 21
1610.322150728545
 31
0.0
  0
LINE
  5
61B7
  8
01_FRAME
 62
     7
 10
1917.759759980923
 20
1598.3913823270809
 30
0.0
 11
1919.925483995399
 21
1613.6357723292331
 31
0.0
  0
LINE
  5
61B8
  8
01_FRAME
 62
     7
 10
1922.6068566036961
 20
1616.7007819792941
 30
0.0
 11
1916.980557665793
 21
1616.7007819792941
 31
0.0
  0
LINE
  5
61B9
  8
01_FRAME
 62
     7
 10
1916.980557665793
 20
1616.7007819792941
 30
0.0
 11
1914.390855847889
 21
1598.3913823270809
 31
0.0
  0
LINE
  5
61BA
  8
01_FRAME
 62
     7
 10
1914.390855847889
 20
1598.3913823270809
 30
0.0
 11
1917.759759980923
 21
1598.3913823270809
 31
0.0
  0
LINE
  5
61BB
  8
01_FRAME
 62
     7
 10
1930.4447151502079
 20
1613.5666367874269
 30
0.0
 11
1928.061272809618
 21
1598.3913823270809
 31
0.0
  0
LINE
  5
61BC
  8
01_FRAME
 62
     7
 10
1931.6135186229069
 20
1598.3913823270809
 30
0.0
 11
1934.2375969872101
 21
1616.7007819792941
 31
0.0
  0
LINE
  5
61BD
  8
01_FRAME
 62
     7
 10
1928.061272809618
 20
1598.3913823270809
 30
0.0
 11
1931.6135186229069
 21
1598.3913823270809
 31
0.0
  0
LINE
  5
61BE
  8
01_FRAME
 62
     7
 10
1934.2375969872101
 20
1616.7007819792941
 30
0.0
 11
1928.691509990897
 21
1616.7007819792941
 31
0.0
  0
LINE
  5
61BF
  8
01_FRAME
 62
     7
 10
1925.1163463805451
 20
1603.138690492664
 30
0.0
 11
1930.4447151502079
 21
1613.5666367874269
 31
0.0
  0
LINE
  5
61C0
  8
01_FRAME
 62
     7
 10
1919.925483995399
 20
1613.6357723292331
 30
0.0
 11
1922.0568314634791
 21
1603.138690492664
 31
0.0
  0
LINE
  5
61C1
  8
01_FRAME
 62
     7
 10
1924.2683909726179
 20
1607.955134200057
 30
0.0
 11
1922.6068566036961
 21
1616.7007819792941
 31
0.0
  0
LINE
  5
61C2
  8
01_FRAME
 62
     7
 10
1928.691509990897
 20
1616.7007819792941
 30
0.0
 11
1924.2683909726179
 21
1607.955134200057
 31
0.0
  0
LINE
  5
61C3
  8
01_FRAME
 62
     7
 10
1922.0568314634791
 20
1603.138690492664
 30
0.0
 11
1925.1163463805451
 21
1603.138690492664
 31
0.0
  0
LINE
  5
61C4
  8
01_FRAME
 62
     7
 10
1936.457354432677
 20
1609.920005044421
 30
0.0
 11
1935.4884274677131
 21
1603.5541437115021
 31
0.0
  0
LINE
  5
61C5
  8
01_FRAME
 62
     7
 10
1938.697999554734
 20
1603.484962473399
 30
0.0
 11
1938.9950202080499
 21
1605.8606151296549
 31
0.0
  0
LINE
  5
61C6
  8
01_FRAME
 62
     7
 10
1939.496739799944
 20
1609.452683185307
 30
0.0
 11
1939.304615817184
 21
1607.844168285033
 31
0.0
  0
LINE
  5
61C7
  8
01_FRAME
 62
     7
 10
1964.648675089147
 20
1609.913224109034
 30
0.0
 11
1968.9862369311099
 21
1609.913224109034
 31
0.0
  0
LINE
  5
61C8
  8
01_FRAME
 62
     7
 10
1958.1271574058501
 20
1601.432189867553
 30
0.0
 11
1958.2655755010751
 21
1602.631555044776
 31
0.0
  0
LINE
  5
61C9
  8
01_FRAME
 62
     7
 10
1962.164052355999
 20
1617.477591327362
 30
0.0
 11
1960.030364936548
 21
1600.3635728178449
 31
0.0
  0
LINE
  5
61CA
  8
01_FRAME
 62
     7
 10
1963.301083118517
 20
1600.3635728178449
 30
0.0
 11
1964.648675089147
 21
1609.913224109034
 31
0.0
  0
LINE
  5
61CB
  8
01_FRAME
 62
     7
 10
1945.7313693988131
 20
1601.432189867553
 30
0.0
 11
1945.869787593504
 21
1602.7699433994969
 31
0.0
  0
LINE
  5
61CC
  8
01_FRAME
 62
     7
 10
1953.836195160841
 20
1600.417342463463
 30
0.0
 11
1956.715011527411
 21
1600.417342463463
 31
0.0
  0
LINE
  5
61CD
  8
01_FRAME
 62
     7
 10
1951.436947480694
 20
1600.417342463463
 30
0.0
 11
1953.836195160841
 21
1600.417342463463
 31
0.0
  0
LINE
  5
61CE
  8
01_FRAME
 62
     7
 10
1960.030364936548
 20
1600.3635728178449
 30
0.0
 11
1963.301083118517
 21
1600.3635728178449
 31
0.0
  0
LINE
  5
61CF
  8
01_FRAME
 62
     7
 10
1960.030364936548
 20
1600.3635728178449
 30
0.0
 11
1960.030364936548
 21
1600.3635728178449
 31
0.0
  0
LINE
  5
61D0
  8
01_FRAME
 62
     7
 10
1958.0810890452101
 20
1612.6416413277859
 30
0.0
 11
1953.513219505852
 21
1612.6416413277859
 31
0.0
  0
LINE
  5
61D1
  8
01_FRAME
 62
     7
 10
1953.6977770656169
 20
1610.3351699096329
 30
0.0
 11
1959.5142986225601
 21
1610.3351699096329
 31
0.0
  0
LINE
  5
61D2
  8
01_FRAME
 62
     7
 10
1958.288007663286
 20
1602.7699433994969
 30
0.0
 11
1953.836195160841
 21
1602.7699433994969
 31
0.0
  0
LINE
  5
61D3
  8
01_FRAME
 62
     7
 10
1946.5618782685581
 20
1605.8606151296549
 30
0.0
 11
1947.210208785754
 21
1610.2127527872631
 31
0.0
  0
LINE
  5
61D4
  8
01_FRAME
 62
     7
 10
1946.5618782685581
 20
1605.8606151296549
 30
0.0
 11
1946.5618782685581
 21
1605.8606151296549
 31
0.0
  0
LINE
  5
61D5
  8
01_FRAME
 62
     7
 10
1943.7783614365101
 20
1607.844168285033
 30
0.0
 11
1944.0260733659591
 21
1609.644415914629
 31
0.0
  0
LINE
  5
61D6
  8
01_FRAME
 62
     7
 10
1949.7759299401421
 20
1609.920005044421
 30
0.0
 11
1949.037699900013
 21
1604.9380265623929
 31
0.0
  0
LINE
  5
61D7
  8
01_FRAME
 62
     7
 10
1952.014973131222
 20
1603.484962473399
 30
0.0
 11
1952.821128830798
 21
1609.458710661323
 31
0.0
  0
LINE
  5
61D8
  8
01_FRAME
 62
     7
 10
1949.037699900013
 20
1604.9380265623929
 30
0.0
 11
1948.8070029751721
 21
1603.5541437115021
 31
0.0
  0
LINE
  5
61D9
  8
01_FRAME
 62
     7
 10
1953.836195160841
 20
1602.7699433994969
 30
0.0
 11
1953.050223824664
 21
1602.7699433994969
 31
0.0
  0
LINE
  5
61DA
  8
01_FRAME
 62
     7
 10
1959.5142986225601
 20
1610.3351699096329
 30
0.0
 11
1959.643568417875
 21
1611.132660321744
 31
0.0
  0
LINE
  5
61DB
  8
01_FRAME
 62
     7
 10
1958.2655755010751
 20
1602.631555044776
 30
0.0
 11
1958.288007663286
 21
1602.7699433994969
 31
0.0
  0
LINE
  5
61DC
  8
01_FRAME
 62
     7
 10
1964.928503033133
 20
1611.350169607523
 30
0.0
 11
1965.6593690671191
 21
1617.477591327362
 31
0.0
  0
LINE
  5
61DD
  8
01_FRAME
 62
     7
 10
1965.6593690671191
 20
1617.477591327362
 30
0.0
 11
1962.164052355999
 21
1617.477591327362
 31
0.0
  0
LINE
  5
61DE
  8
01_FRAME
 62
     7
 10
1971.190111353621
 20
1600.3635728178449
 30
0.0
 11
1972.4104462725211
 21
1610.0169860677579
 31
0.0
  0
LINE
  5
61DF
  8
01_FRAME
 62
     7
 10
1968.9862369311099
 20
1609.913224109034
 30
0.0
 11
1967.7790190660651
 21
1600.3635728178449
 31
0.0
  0
LINE
  5
61E0
  8
01_FRAME
 62
     7
 10
1977.1512568853691
 20
1598.3913823270809
 30
0.0
 11
1979.316980899845
 21
1613.6357723292331
 31
0.0
  0
LINE
  5
61E1
  8
01_FRAME
 62
     7
 10
1976.372054570237
 20
1616.7007819792941
 30
0.0
 11
1973.7823527523319
 21
1598.3913823270809
 31
0.0
  0
LINE
  5
61E2
  8
01_FRAME
 62
     7
 10
1967.7790190660651
 20
1600.3635728178449
 30
0.0
 11
1971.190111353621
 21
1600.3635728178449
 31
0.0
  0
LINE
  5
61E3
  8
01_FRAME
 62
     7
 10
1973.7823527523319
 20
1598.3913823270809
 30
0.0
 11
1977.1512568853691
 21
1598.3913823270809
 31
0.0
  0
LINE
  5
61E4
  8
01_FRAME
 62
     7
 10
1981.9983535081431
 20
1616.7007819792941
 30
0.0
 11
1976.372054570237
 21
1616.7007819792941
 31
0.0
  0
LINE
  5
61E5
  8
01_FRAME
 62
     7
 10
1979.316980899845
 20
1613.6357723292331
 30
0.0
 11
1981.4483283679249
 21
1603.138690492664
 31
0.0
  0
LINE
  5
61E6
  8
01_FRAME
 62
     7
 10
1983.6598878770651
 20
1607.955134200057
 30
0.0
 11
1981.9983535081431
 21
1616.7007819792941
 31
0.0
  0
LINE
  5
61E7
  8
01_FRAME
 62
     7
 10
1988.083006895343
 20
1616.7007819792941
 30
0.0
 11
1983.6598878770651
 21
1607.955134200057
 31
0.0
  0
LINE
  5
61E8
  8
01_FRAME
 62
     7
 10
1981.4483283679249
 20
1603.138690492664
 30
0.0
 11
1984.5078432849909
 21
1603.138690492664
 31
0.0
  0
LINE
  5
61E9
  8
01_FRAME
 62
     7
 10
2014.289330638974
 20
1616.2331058202101
 30
0.0
 11
2011.1796304156339
 21
1615.8790265188491
 31
0.0
  0
LINE
  5
61EA
  8
01_FRAME
 62
     7
 10
2012.513122290434
 20
1603.478331334692
 30
0.0
 11
2013.5049612337721
 21
1610.4669270261711
 31
0.0
  0
LINE
  5
61EB
  8
01_FRAME
 62
     7
 10
2011.936222323902
 20
1600.4107113247501
 30
0.0
 11
2015.1380143351639
 21
1600.4107113247501
 31
0.0
  0
LINE
  5
61EC
  8
01_FRAME
 62
     7
 10
2005.241032604253
 20
1600.45914727377
 30
0.0
 11
2005.120670968427
 21
1601.822952088685
 31
0.0
  0
ARC
  5
61ED
  8
01_FRAME
 62
     7
 10
2008.1090555458579
 20
1602.086689870137
 30
0.0
 40
3.0
 50
171.34562025558941
 51
185.04353146784311
  0
LINE
  5
61EE
  8
01_FRAME
 62
     7
 10
1991.005015527353
 20
1598.3913823270809
 30
0.0
 11
1993.6290938916529
 21
1616.7007819792941
 31
0.0
  0
LINE
  5
61EF
  8
01_FRAME
 62
     7
 10
1997.30505952368
 20
1600.4130177558829
 30
0.0
 11
2000.257979783657
 21
1600.4130177558829
 31
0.0
  0
LINE
  5
61F0
  8
01_FRAME
 62
     7
 10
2002.0574155189031
 20
1600.45914727377
 30
0.0
 11
2005.241032604253
 21
1600.45914727377
 31
0.0
  0
LINE
  5
61F1
  8
01_FRAME
 62
     7
 10
2011.9362223239
 20
1600.4107113247501
 30
0.0
 11
2012.1669192487429
 21
1600.4107113247501
 31
0.0
  0
LINE
  5
61F2
  8
01_FRAME
 62
     7
 10
2002.6110880987319
 20
1607.7937265923631
 30
0.0
 11
1998.1817077584981
 21
1607.7937265923631
 31
0.0
  0
LINE
  5
61F3
  8
01_FRAME
 62
     7
 10
1995.8285994434259
 20
1610.330845202059
 30
0.0
 11
2002.062590950814
 21
1610.330845202059
 31
0.0
  0
LINE
  5
61F4
  8
01_FRAME
 62
     7
 10
2003.773383589647
 20
1612.6834461380879
 30
0.0
 11
1997.397338353298
 21
1612.6834461380879
 31
0.0
  0
LINE
  5
61F5
  8
01_FRAME
 62
     7
 10
1995.9670176381151
 20
1611.668598733997
 30
0.0
 11
1995.8285994434259
 21
1610.330845202059
 31
0.0
  0
LINE
  5
61F6
  8
01_FRAME
 62
     7
 10
1998.4583658042959
 20
1602.3887469692891
 30
0.0
 11
2000.681515458125
 21
1602.3452736070451
 31
0.0
  0
LINE
  5
61F7
  8
01_FRAME
 62
     7
 10
2001.4253914052549
 20
1605.663741219676
 30
0.0
 11
1999.062184263177
 21
1605.663741219676
 31
0.0
  0
LINE
  5
61F8
  8
01_FRAME
 62
     7
 10
2008.505623879933
 20
1612.7272691253711
 30
0.0
 11
2008.1066539285739
 21
1610.4669270261711
 31
0.0
  0
LINE
  5
61F9
  8
01_FRAME
 62
     7
 10
2005.143213513152
 20
1602.5381110006069
 30
0.0
 11
2006.3177086506539
 21
1610.254557597571
 31
0.0
  0
LINE
  5
61FA
  8
01_FRAME
 62
     7
 10
2001.875429269784
 20
1603.5045635983799
 30
0.0
 11
2002.1434048684109
 21
1604.9860064057591
 31
0.0
  0
LINE
  5
61FB
  8
01_FRAME
 62
     7
 10
2002.841784924105
 20
1609.454386053214
 30
0.0
 11
2002.6110880987319
 21
1607.7937265923631
 31
0.0
  0
LINE
  5
61FC
  8
01_FRAME
 62
     7
 10
2002.8592287158031
 20
1609.6531103881421
 30
0.0
 11
2002.841784924105
 21
1609.454386053214
 31
0.0
  0
LINE
  5
61FD
  8
01_FRAME
 62
     7
 10
2010.3674835134971
 20
1610.4669270261711
 30
0.0
 11
2009.3062778183819
 21
1603.5475125727951
 31
0.0
  0
LINE
  5
61FE
  8
01_FRAME
 62
     7
 10
2008.1066539285739
 20
1610.4669270261711
 30
0.0
 11
2010.3674835134971
 21
1610.4669270261711
 31
0.0
  0
LINE
  5
61FF
  8
01_FRAME
 62
     7
 10
2011.1796304156339
 20
1615.8790265188491
 30
0.0
 11
2010.6904591684861
 21
1612.7272691253711
 31
0.0
  0
LINE
  5
6200
  8
01_FRAME
 62
     7
 10
2010.6904591684861
 20
1612.7272691253711
 30
0.0
 11
2008.505623879933
 21
1612.7272691253711
 31
0.0
  0
LINE
  5
6201
  8
01_FRAME
 62
     7
 10
2016.550160213606
 20
1601.425558728846
 30
0.0
 11
2016.6885783191219
 21
1602.763312260784
 31
0.0
  0
LINE
  5
6202
  8
01_FRAME
 62
     7
 10
2017.657505284089
 20
1610.4669270261711
 30
0.0
 11
2017.934341574005
 21
1612.7272691253711
 31
0.0
  0
LINE
  5
6203
  8
01_FRAME
 62
     7
 10
2016.6885783191219
 20
1602.763312260784
 30
0.0
 11
2013.548372983882
 21
1602.763312260784
 31
0.0
  0
LINE
  5
6204
  8
01_FRAME
 62
     7
 10
2013.5049612337721
 20
1610.4669270261711
 30
0.0
 11
2017.657505284089
 21
1610.4669270261711
 31
0.0
  0
LINE
  5
6205
  8
01_FRAME
 62
     7
 10
2013.7817975236881
 20
1612.7272691253711
 30
0.0
 11
2014.289330638974
 21
1616.2331058202101
 31
0.0
  0
LINE
  5
6206
  8
01_FRAME
 62
     7
 10
2017.934341574005
 20
1612.7272691253711
 30
0.0
 11
2013.7817975236881
 21
1612.7272691253711
 31
0.0
  0
ARC
  5
6207
  8
01_FRAME
 62
     7
 10
1940.554673026244
 20
1609.3006387637979
 30
0.0
 40
1.0688031705704599
 50
129.9788673075636
 51
171.8215466207522
  0
ARC
  5
6208
  8
01_FRAME
 62
     7
 10
1940.4005801627311
 20
1609.522086379
 30
0.0
 40
0.8004725012049277
 50
91.829758024394408
 51
131.7114987691788
  0
ARC
  5
6209
  8
01_FRAME
 62
     7
 10
1953.87742891527
 20
1609.313657944891
 30
0.0
 40
1.0688031705704599
 50
129.9788673075636
 51
171.8215466207522
  0
ARC
  5
620A
  8
01_FRAME
 62
     7
 10
1953.7233360517571
 20
1609.535105560087
 30
0.0
 40
0.8004725012049277
 50
91.829758024394408
 51
131.7114987691788
  0
ARC
  5
620B
  8
01_FRAME
 62
     7
 10
1943.2687477518859
 20
1609.5012274471021
 30
0.0
 40
0.8218640272073766
 50
41.694258406644231
 51
92.74167022804761
  0
ARC
  5
620C
  8
01_FRAME
 62
     7
 10
1943.4574030635099
 20
1609.6692792890931
 30
0.0
 40
0.5692135805450164
 50
357.49651121804158
 51
41.69425840668103
  0
ARC
  5
620D
  8
01_FRAME
 62
     7
 10
2002.1019031017299
 20
1609.509921920617
 30
0.0
 40
0.8218640272073766
 50
41.694258406644231
 51
92.74167022804761
  0
ARC
  5
620E
  8
01_FRAME
 62
     7
 10
2002.290558413355
 20
1609.6779737626071
 30
0.0
 40
0.5692135805450164
 50
357.49651121804158
 51
41.69425840668103
  0
ARC
  5
620F
  8
01_FRAME
 62
     7
 10
1939.7267219329881
 20
1604.26499219062
 30
0.0
 40
1.4950630444042421
 50
242.05494587010111
 51
270.25018750738548
  0
ARC
  5
6210
  8
01_FRAME
 62
     7
 10
1939.3154683389339
 20
1603.489744054624
 30
0.0
 40
0.6174872978270054
 50
180.4436806435252
 51
242.05494587010111
  0
ARC
  5
6211
  8
01_FRAME
 62
     7
 10
1953.0436955094731
 20
1604.26499219062
 30
0.0
 40
1.4950630444042421
 50
242.05494587010111
 51
270.25018750738548
  0
ARC
  5
6212
  8
01_FRAME
 62
     7
 10
1952.6324419154221
 20
1603.489744054624
 30
0.0
 40
0.6174872978270054
 50
180.4436806435252
 51
242.05494587010111
  0
ARC
  5
6213
  8
01_FRAME
 62
     7
 10
1939.379394028909
 20
1609.4558269214849
 30
0.0
 40
2.9586782068601298
 50
116.4343118930822
 51
170.97374799137711
  0
ARC
  5
6214
  8
01_FRAME
 62
     7
 10
1940.357437386521
 20
1607.488530380853
 30
0.0
 40
5.1556817317021313
 50
91.809445418565659
 51
116.4343118930822
  0
ARC
  5
6215
  8
01_FRAME
 62
     7
 10
1952.6979695363709
 20
1609.4558269214849
 30
0.0
 40
2.9586782068601298
 50
116.4343118930822
 51
170.97374799137711
  0
ARC
  5
6216
  8
01_FRAME
 62
     7
 10
1953.6760128939829
 20
1607.488530380853
 30
0.0
 40
5.1556817317021313
 50
91.809445418565659
 51
116.4343118930822
  0
ARC
  5
6217
  8
01_FRAME
 62
     7
 10
1944.3681177915039
 20
1609.3358748192679
 30
0.0
 40
3.3191500056200178
 50
44.532575507602381
 51
84.852989749614622
  0
ARC
  5
6218
  8
01_FRAME
 62
     7
 10
1945.5087561107621
 20
1610.458052458267
 30
0.0
 40
1.7190442501072389
 50
351.79615361502198
 51
44.532575507602381
  0
ARC
  5
6219
  8
01_FRAME
 62
     7
 10
1938.163856187452
 20
1603.082932306472
 30
0.0
 40
2.6659778740434739
 50
213.37814014438339
 51
269.02243001409971
  0
ARC
  5
621A
  8
01_FRAME
 62
     7
 10
1938.3285041610441
 20
1603.191407535247
 30
0.0
 40
2.8631474215573558
 50
172.72155707448161
 51
213.37814014438339
  0
ARC
  5
621B
  8
01_FRAME
 62
     7
 10
1944.3101361020031
 20
1602.0867602861069
 30
0.0
 40
1.6694425559859589
 50
269.68811547988628
 51
309.85159843335032
  0
ARC
  5
621C
  8
01_FRAME
 62
     7
 10
1944.7336813907059
 20
1601.5793353406971
 30
0.0
 40
1.008480615474793
 50
309.85159843335032
 51
351.61013221801932
  0
ARC
  5
621D
  8
01_FRAME
 62
     7
 10
1951.48243169491
 20
1603.082932306472
 30
0.0
 40
2.6659778740434739
 50
213.37814014438339
 51
269.02243001409971
  0
ARC
  5
621E
  8
01_FRAME
 62
     7
 10
1951.647079668506
 20
1603.191407535247
 30
0.0
 40
2.8631474215573558
 50
172.72155707448161
 51
213.37814014438339
  0
ARC
  5
621F
  8
01_FRAME
 62
     7
 10
1956.7059241090401
 20
1602.0867602861069
 30
0.0
 40
1.6694425559859589
 50
269.68811547988628
 51
309.85159843335032
  0
ARC
  5
6220
  8
01_FRAME
 62
     7
 10
1957.129469397742
 20
1601.5793353406971
 30
0.0
 40
1.008480615474793
 50
309.85159843335032
 51
351.61013221801932
  0
ARC
  5
6221
  8
01_FRAME
 62
     7
 10
1958.1267060238681
 20
1611.077055225747
 30
0.0
 40
1.565250963722451
 50
29.017138568446679
 51
91.670039206039846
  0
ARC
  5
6222
  8
01_FRAME
 62
     7
 10
1958.4281742936889
 20
1611.244279720024
 30
0.0
 40
1.2205088148720671
 50
354.75278767927171
 51
29.017138568446679
  0
LINE
  5
6223
  8
01_FRAME
 62
     7
 10
2022.50716356925
 20
1605.8606151296549
 30
0.0
 11
2030.0740216297579
 21
1605.8606151296549
 31
0.0
  0
LINE
  5
6224
  8
01_FRAME
 62
     7
 10
2029.3819309547041
 20
1602.7699433994969
 30
0.0
 11
2023.2453936093771
 21
1602.7699433994969
 31
0.0
  0
LINE
  5
6225
  8
01_FRAME
 62
     7
 10
2021.6305153344319
 20
1600.417342463463
 30
0.0
 11
2027.8313668815681
 21
1600.417342463463
 31
0.0
  0
LINE
  5
6226
  8
01_FRAME
 62
     7
 10
2028.178027085947
 20
1612.6416413277859
 30
0.0
 11
2023.7067873595911
 21
1612.6416413277859
 31
0.0
  0
LINE
  5
6227
  8
01_FRAME
 62
     7
 10
2022.816759178384
 20
1607.844168285033
 30
0.0
 11
2027.2905047977099
 21
1607.844168285033
 31
0.0
  0
LINE
  5
6228
  8
01_FRAME
 62
     7
 10
2026.74157896217
 20
1610.322150728545
 30
0.0
 11
2023.887164537794
 21
1610.322150728545
 31
0.0
  0
LINE
  5
6229
  8
01_FRAME
 62
     7
 10
2019.969497793878
 20
1609.920005044421
 30
0.0
 11
2019.0005708289141
 21
1603.5541437115021
 31
0.0
  0
LINE
  5
622A
  8
01_FRAME
 62
     7
 10
2022.210142915935
 20
1603.484962473399
 30
0.0
 11
2022.50716356925
 21
1605.8606151296549
 31
0.0
  0
LINE
  5
622B
  8
01_FRAME
 62
     7
 10
2023.0088831611449
 20
1609.452683185307
 30
0.0
 11
2022.816759178384
 21
1607.844168285033
 31
0.0
  0
LINE
  5
622C
  8
01_FRAME
 62
     7
 10
2029.2435127600129
 20
1601.432189867553
 30
0.0
 11
2029.3819309547041
 21
1602.7699433994969
 31
0.0
  0
LINE
  5
622D
  8
01_FRAME
 62
     7
 10
2030.0740216297579
 20
1605.8606151296549
 30
0.0
 11
2030.7223521469541
 21
1610.2127527872631
 31
0.0
  0
LINE
  5
622E
  8
01_FRAME
 62
     7
 10
2030.0740216297579
 20
1605.8606151296549
 30
0.0
 11
2030.0740216297579
 21
1605.8606151296549
 31
0.0
  0
LINE
  5
622F
  8
01_FRAME
 62
     7
 10
2027.2905047977099
 20
1607.844168285033
 30
0.0
 11
2027.5382167271589
 21
1609.644415914629
 31
0.0
  0
ARC
  5
6230
  8
01_FRAME
 62
     7
 10
2024.0668163874441
 20
1609.3006387637979
 30
0.0
 40
1.0688031705704599
 50
129.9788673075636
 51
171.8215466207522
  0
ARC
  5
6231
  8
01_FRAME
 62
     7
 10
2023.9127235239309
 20
1609.522086379
 30
0.0
 40
0.8004725012049277
 50
91.829758024394408
 51
131.7114987691788
  0
ARC
  5
6232
  8
01_FRAME
 62
     7
 10
2026.7808911130869
 20
1609.5012274471021
 30
0.0
 40
0.8218640272073766
 50
41.694258406644231
 51
92.74167022804761
  0
ARC
  5
6233
  8
01_FRAME
 62
     7
 10
2026.9695464247111
 20
1609.6692792890931
 30
0.0
 40
0.5692135805450164
 50
357.49651121804158
 51
41.69425840668103
  0
ARC
  5
6234
  8
01_FRAME
 62
     7
 10
2023.2388652941879
 20
1604.26499219062
 30
0.0
 40
1.4950630444042421
 50
242.05494587010111
 51
270.25018750738548
  0
ARC
  5
6235
  8
01_FRAME
 62
     7
 10
2022.827611700134
 20
1603.489744054624
 30
0.0
 40
0.6174872978270054
 50
180.4436806435252
 51
242.05494587010111
  0
ARC
  5
6236
  8
01_FRAME
 62
     7
 10
2022.8915373901091
 20
1609.4558269214849
 30
0.0
 40
2.9586782068601298
 50
116.4343118930822
 51
170.97374799137711
  0
ARC
  5
6237
  8
01_FRAME
 62
     7
 10
2023.869580747722
 20
1607.488530380853
 30
0.0
 40
5.1556817317021313
 50
91.809445418565659
 51
116.4343118930822
  0
ARC
  5
6238
  8
01_FRAME
 62
     7
 10
2027.880261152704
 20
1609.3358748192679
 30
0.0
 40
3.3191500056200178
 50
44.532575507602381
 51
84.852989749614622
  0
ARC
  5
6239
  8
01_FRAME
 62
     7
 10
2029.0208994719619
 20
1610.458052458267
 30
0.0
 40
1.7190442501072389
 50
351.79615361502198
 51
44.532575507602381
  0
ARC
  5
623A
  8
01_FRAME
 62
     7
 10
2021.675999548652
 20
1603.082932306472
 30
0.0
 40
2.6659778740434739
 50
213.37814014438339
 51
269.02243001409971
  0
ARC
  5
623B
  8
01_FRAME
 62
     7
 10
2021.840647522245
 20
1603.191407535247
 30
0.0
 40
2.8631474215573558
 50
172.72155707448161
 51
213.37814014438339
  0
ARC
  5
623C
  8
01_FRAME
 62
     7
 10
2027.8222794632029
 20
1602.0867602861069
 30
0.0
 40
1.6694425559859589
 50
269.68811547988628
 51
309.85159843335032
  0
ARC
  5
623D
  8
01_FRAME
 62
     7
 10
2028.2458247519071
 20
1601.5793353406971
 30
0.0
 40
1.008480615474793
 50
309.85159843335032
 51
351.61013221801932
  0
LINE
  5
623E
  8
01_FRAME
 62
     7
 10
1968.4378298540889
 20
1612.6416413277859
 30
0.0
 11
1970.351212803283
 21
1612.6416413277859
 31
0.0
  0
ARC
  5
623F
  8
01_FRAME
 62
     7
 10
1969.7934604140371
 20
1610.192537611669
 30
0.0
 40
2.6228673866724388
 50
356.16225827570702
 51
57.03056887230111
  0
ARC
  5
6240
  8
01_FRAME
 62
     7
 10
1970.3797608263819
 20
1611.0964164733359
 30
0.0
 40
1.545488544257513
 50
57.03056887230111
 51
91.058418890025422
  0
ARC
  5
6241
  8
01_FRAME
 62
     7
 10
1968.669460947759
 20
1605.781009128091
 30
0.0
 40
6.8645412915217898
 50
91.933705877925519
 51
118.128409595517
  0
ARC
  5
6242
  8
01_FRAME
 62
     7
 10
1966.0422760123149
 20
1610.695422959592
 30
0.0
 40
1.2919688162398359
 50
118.128409595517
 51
149.55027737962561
  0
ARC
  5
6243
  8
01_FRAME
 62
     7
 10
2015.128926916796
 20
1602.080129147394
 30
0.0
 40
1.6694425559859589
 50
269.68811547988628
 51
309.85159843335032
  0
ARC
  5
6244
  8
01_FRAME
 62
     7
 10
2015.552472205497
 20
1601.5727042019901
 30
0.0
 40
1.008480615474793
 50
309.85159843335032
 51
351.61013221801932
  0
ARC
  5
6245
  8
01_FRAME
 62
     7
 10
2011.9817065381201
 20
1603.0763011677591
 30
0.0
 40
2.6659778740434739
 50
213.37814014438339
 51
269.02243001409971
  0
ARC
  5
6246
  8
01_FRAME
 62
     7
 10
2012.1463545117119
 20
1603.1847763965341
 30
0.0
 40
2.8631474215573558
 50
172.72155707448161
 51
213.37814014438339
  0
ARC
  5
6247
  8
01_FRAME
 62
     7
 10
2013.5418446686849
 20
1604.2583610519071
 30
0.0
 40
1.4950630444042421
 50
242.05494587010111
 51
270.25018750738548
  0
ARC
  5
6248
  8
01_FRAME
 62
     7
 10
2013.130591074631
 20
1603.483112915917
 30
0.0
 40
0.6174872978270054
 50
180.4436806435252
 51
242.05494587010111
  0
ARC
  5
6249
  8
01_FRAME
 62
     7
 10
2003.475617656404
 20
1609.3776796295749
 30
0.0
 40
3.3191500056200178
 50
44.532575507602381
 51
84.852989749614622
  0
ARC
  5
624A
  8
01_FRAME
 62
     7
 10
2004.6162559756619
 20
1610.499857268574
 30
0.0
 40
1.7190442501072389
 50
351.79615361502198
 51
44.532575507602381
  0
ARC
  5
624B
  8
01_FRAME
 62
     7
 10
1997.3933552710589
 20
1611.0263966711459
 30
0.0
 40
1.6570542540422379
 50
89.862277278542265
 51
130.9842092774787
  0
ARC
  5
624C
  8
01_FRAME
 62
     7
 10
1996.979335634325
 20
1611.5029369681979
 30
0.0
 40
1.025783381663534
 50
130.9842092774787
 51
170.70615505540471
  0
ARC
  5
624D
  8
01_FRAME
 62
     7
 10
2004.8908201877241
 20
1601.94201912579
 30
0.0
 40
3.1979823243452339
 50
189.2518512240284
 51
207.62546243343101
  0
ARC
  5
624E
  8
01_FRAME
 62
     7
 10
1999.8755807022139
 20
1602.5507989327609
 30
0.0
 40
2.1717130145813401
 50
280.1416168422565
 51
328.86389698780869
  0
ARC
  5
624F
  8
01_FRAME
 62
     7
 10
1998.2620610540851
 20
1603.9937642514519
 30
0.0
 40
3.8008118138669
 50
91.211385343645077
 51
150.30133372254519
  0
ARC
  5
6250
  8
01_FRAME
 62
     7
 10
1999.8190085757381
 20
1603.105745097095
 30
0.0
 40
5.5932022857456172
 50
150.30133372254519
 51
172.8407731250602
  0
ARC
  5
6251
  8
01_FRAME
 62
     7
 10
1997.7412455349149
 20
1603.366725559717
 30
0.0
 40
3.4991129715850322
 50
172.8407731250602
 51
205.63064895958459
  0
ARC
  5
6252
  8
01_FRAME
 62
     7
 10
1996.3038672889929
 20
1602.6771036595339
 30
0.0
 40
1.904862493441223
 50
205.63064895958459
 51
237.5110165228007
  0
ARC
  5
6253
  8
01_FRAME
 62
     7
 10
1997.5638016015489
 20
1604.655643775933
 30
0.0
 40
4.2505085588502638
 50
237.5110165228007
 51
266.51006466087091
  0
ARC
  5
6254
  8
01_FRAME
 62
     7
 10
2001.386079254341
 20
1604.8428179382331
 30
0.0
 40
0.8218640272073766
 50
41.694258406644231
 51
92.74167022804761
  0
ARC
  5
6255
  8
01_FRAME
 62
     7
 10
2001.574734565962
 20
1605.0108697802241
 30
0.0
 40
0.5692135805450164
 50
357.49651121804158
 51
41.69425840668103
  0
ARC
  5
6256
  8
01_FRAME
 62
     7
 10
2000.4513301990139
 20
1603.7272425603801
 30
0.0
 40
1.4010080090776149
 50
279.45655767728113
 51
324.92940398283599
  0
ARC
  5
6257
  8
01_FRAME
 62
     7
 10
2000.01429555958
 20
1604.034060701526
 30
0.0
 40
1.934989888732648
 50
324.92940398283599
 51
344.1188173872149
  0
ARC
  5
6258
  8
01_FRAME
 62
     7
 10
1999.0446793064841
 20
1604.1080043331599
 30
0.0
 40
1.5558353651885251
 50
89.355342266111649
 51
126.2501753015458
  0
ARC
  5
6259
  8
01_FRAME
 62
     7
 10
1998.7911862162141
 20
1604.4716956242751
 30
0.0
 40
1.1126963606871121
 50
126.79741703497599
 51
163.58374767656801
  0
ARC
  5
625A
  8
01_FRAME
 62
     7
 10
1986.694282378362
 20
1607.6200758362791
 30
0.0
 40
11.38782036818951
 50
343.74206189479008
 51
345.5902269862396
  0
ARC
  5
625B
  8
01_FRAME
 62
     7
 10
2000.8473543819521
 20
1603.5561810495631
 30
0.0
 40
3.33757808367824
 50
164.7882461977467
 51
186.820145858129
  0
ARC
  5
625C
  8
01_FRAME
 62
     7
 10
1998.308877715112
 20
1603.230016185729
 30
0.0
 40
0.7786534648205342
 50
185.1712957963156
 51
236.50138254922089
  0
ARC
  5
625D
  8
01_FRAME
 62
     7
 10
1998.5228667849051
 20
1603.55333535407
 30
0.0
 40
1.166373217485406
 50
236.50138254922089
 51
266.82989961253048
  0
ENDSEC
  0
EOF
