  0
SECTION
  2
HEADER
  9
$ACADVER
  1
AC1009
  9
$INSBASE
 10
0.0
 20
0.0
 30
0.0
  9
$EXTMIN
 10
3074.3670861936212
 20
8162.3536730024716
 30
0.0
  9
$EXTMAX
 10
4422.5317165603728
 20
9129.2856903692464
 30
0.0
  9
$LIMMIN
 10
0.0
 20
0.0
  9
$LIMMAX
 10
0.0
 20
0.0
  9
$ORTHOMODE
 70
     0
  9
$REGENMODE
 70
     1
  9
$FILLMODE
 70
     1
  9
$QTEXTMODE
 70
     0
  9
$MIRRTEXT
 70
     1
  9
$DRAGMODE
 70
     2
  9
$LTSCALE
 40
50.0
  9
$OSMODE
 70
    47
  9
$ATTMODE
 70
     1
  9
$TEXTSIZE
 40
10.0
  9
$TRACEWID
 40
0.05
  9
$TEXTSTYLE
  7
MECHTRONICS
  9
$CLAYER
  8
50_DIMENSIONS
  9
$CELTYPE
  6
BYLAYER
  9
$CECOLOR
 62
   256
  9
$DIMSCALE
 40
5.0
  9
$DIMASZ
 40
2.0
  9
$DIMEXO
 40
1.0
  9
$DIMDLI
 40
6.0
  9
$DIMRND
 40
0.0
  9
$DIMDLE
 40
0.0
  9
$DIMEXE
 40
0.5
  9
$DIMTP
 40
0.0
  9
$DIMTM
 40
0.0
  9
$DIMTXT
 40
2.0
  9
$DIMCEN
 40
0.09
  9
$DIMTSZ
 40
0.0
  9
$DIMTOL
 70
     0
  9
$DIMLIM
 70
     0
  9
$DIMTIH
 70
     0
  9
$DIMTOH
 70
     1
  9
$DIMSE1
 70
     0
  9
$DIMSE2
 70
     0
  9
$DIMTAD
 70
     0
  9
$DIMZIN
 70
     0
  9
$DIMBLK
  1

  9
$DIMASO
 70
     1
  9
$DIMSHO
 70
     1
  9
$DIMPOST
  1

  9
$DIMAPOST
  1

  9
$DIMALT
 70
     0
  9
$DIMALTD
 70
     2
  9
$DIMALTF
 40
25.399999999999999
  9
$DIMLFAC
 40
1.0
  9
$DIMTOFL
 70
     0
  9
$DIMTVP
 40
0.0
  9
$DIMTIX
 70
     0
  9
$DIMSOXD
 70
     0
  9
$DIMSAH
 70
     0
  9
$DIMBLK1
  1

  9
$DIMBLK2
  1

  9
$DIMSTYLE
  2
MECHTRONICS
  9
$DIMCLRD
 70
     7
  9
$DIMCLRE
 70
     7
  9
$DIMCLRT
 70
     0
  9
$DIMTFAC
 40
1.0
  9
$DIMGAP
 40
0.5
  9
$LUNITS
 70
     2
  9
$LUPREC
 70
    10
  9
$SKETCHINC
 40
0.1
  9
$FILLETRAD
 40
12.0
  9
$AUNITS
 70
     0
  9
$AUPREC
 70
     0
  9
$MENU
  1
acad
  9
$ELEVATION
 40
0.0
  9
$PELEVATION
 40
0.0
  9
$THICKNESS
 40
0.0
  9
$LIMCHECK
 70
     0
  9
$BLIPMODE
 70
     0
  9
$CHAMFERA
 40
0.0
  9
$CHAMFERB
 40
0.0
  9
$SKPOLY
 70
     0
  9
$TDCREATE
 40
2444972.083333333
  9
$TDUPDATE
 40
2454646.8323925701
  9
$TDINDWG
 40
1.0835460647999999
  9
$TDUSRTIMER
 40
1.0835460647999999
  9
$USRTIMER
 70
     1
  9
$ANGBASE
 50
0.0
  9
$ANGDIR
 70
     0
  9
$PDMODE
 70
     0
  9
$PDSIZE
 40
0.0
  9
$PLINEWID
 40
0.0
  9
$COORDS
 70
     1
  9
$SPLFRAME
 70
     0
  9
$SPLINETYPE
 70
     6
  9
$SPLINESEGS
 70
     8
  9
$ATTDIA
 70
     0
  9
$ATTREQ
 70
     1
  9
$HANDLING
 70
     1
  9
$HANDSEED
  5
4E6C
  9
$SURFTAB1
 70
     6
  9
$SURFTAB2
 70
     6
  9
$SURFTYPE
 70
     6
  9
$SURFU
 70
     6
  9
$SURFV
 70
     6
  9
$UCSNAME
  2

  9
$UCSORG
 10
0.0
 20
0.0
 30
0.0
  9
$UCSXDIR
 10
1.0
 20
0.0
 30
0.0
  9
$UCSYDIR
 10
0.0
 20
1.0
 30
0.0
  9
$PUCSNAME
  2

  9
$PUCSORG
 10
0.0
 20
0.0
 30
0.0
  9
$PUCSXDIR
 10
1.0
 20
0.0
 30
0.0
  9
$PUCSYDIR
 10
0.0
 20
1.0
 30
0.0
  9
$USERI1
 70
     0
  9
$USERI2
 70
     0
  9
$USERI3
 70
     0
  9
$USERI4
 70
     0
  9
$USERI5
 70
     0
  9
$USERR1
 40
0.0
  9
$USERR2
 40
0.0
  9
$USERR3
 40
0.0
  9
$USERR4
 40
0.0
  9
$USERR5
 40
0.0
  9
$WORLDVIEW
 70
     1
  9
$SHADEDGE
 70
     3
  9
$SHADEDIF
 70
    70
  9
$TILEMODE
 70
     1
  9
$MAXACTVP
 70
    16
  9
$PLIMCHECK
 70
     0
  9
$PEXTMIN
 10
1.088750099572608
 20
0.7937499998122686
 30
0.0
  9
$PEXTMAX
 10
21.184573317709511
 20
7.1437499983104198
 30
0.0
  9
$PLIMMIN
 10
0.0
 20
0.0
  9
$PLIMMAX
 10
12.0
 20
9.0
  9
$UNITMODE
 70
     0
  9
$VISRETAIN
 70
     0
  9
$PLINEGEN
 70
     1
  9
$PSLTSCALE
 70
     0
  0
ENDSEC
  0
SECTION
  2
TABLES
  0
TABLE
  2
VPORT
 70
     2
  0
VPORT
  2
*ACTIVE
 70
     0
 10
0.0
 20
0.0
 11
1.0
 21
1.0
 12
3926.792002706818
 22
8645.8537693653725
 13
0.0
 23
0.0
 14
1.0
 24
1.0
 15
0.0
 25
0.0
 16
0.0
 26
0.0
 36
1.0
 17
0.0
 27
0.0
 37
0.0
 40
985.06019646827656
 41
1.7423423423423421
 42
50.0
 43
0.0
 44
0.0
 50
0.0
 51
0.0
 71
     0
 72
   100
 73
     1
 74
     0
 75
     0
 76
     0
 77
     0
 78
     0
  0
ENDTAB
  0
TABLE
  2
LTYPE
 70
     1
  0
LTYPE
  2
CONTINUOUS
 70
     0
  3
Solid line
 72
    65
 73
     0
 40
0.0
  0
ENDTAB
  0
TABLE
  2
LAYER
 70
     6
  0
LAYER
  2
0
 70
     0
 62
   221
  6
CONTINUOUS
  0
LAYER
  2
50_DIMENSIONS
 70
     0
 62
     7
  6
CONTINUOUS
  0
LAYER
  2
10_OUTLINE
 70
     0
 62
     2
  6
CONTINUOUS
  0
LAYER
  2
62_TEXT
 70
     0
 62
     7
  6
CONTINUOUS
  0
LAYER
  2
01_FRAME
 70
     0
 62
     4
  6
CONTINUOUS
  0
LAYER
  2
DEFPOINTS
 70
     0
 62
     7
  6
CONTINUOUS
  0
ENDTAB
  0
TABLE
  2
STYLE
 70
     2
  0
STYLE
  2
STANDARD
 70
     0
 40
0.0
 41
1.0
 50
0.0
 71
     0
 42
1.3456087235615539
  3
txt
  4

  0
STYLE
  2
MECHTRONICS
 70
     0
 40
10.0
 41
1.0
 50
0.0
 71
     0
 42
10.0
  3
txt
  4

  0
ENDTAB
  0
TABLE
  2
VIEW
 70
     0
  0
ENDTAB
  0
TABLE
  2
UCS
 70
    16
  0
UCS
  2
AUDIT_D_000731094948-0
 70
     0
 10
0.0
 20
0.0
 30
1.0
 11
1.0
 21
0.0
 31
0.0
 12
0.0
 22
1.0
 32
0.0
  0
UCS
  2
AUDIT_D_000731094948-1
 70
     0
 10
0.0
 20
0.0
 30
1.0
 11
1.0
 21
0.0
 31
0.0
 12
0.0
 22
1.0
 32
0.0
  0
UCS
  2
AUDIT_D_000731094948-2
 70
     0
 10
0.0
 20
0.0
 30
1.0
 11
1.0
 21
0.0
 31
0.0
 12
0.0
 22
1.0
 32
0.0
  0
UCS
  2
AUDIT_D_000731094948-3
 70
     0
 10
0.0
 20
0.0
 30
1.0
 11
1.0
 21
0.0
 31
0.0
 12
0.0
 22
1.0
 32
0.0
  0
UCS
  2
AUDIT_D_000731094948-4
 70
     0
 10
0.0
 20
0.0
 30
1.0
 11
1.0
 21
0.0
 31
0.0
 12
0.0
 22
1.0
 32
0.0
  0
UCS
  2
AUDIT_D_000731094948-5
 70
     0
 10
0.0
 20
0.0
 30
1.0
 11
1.0
 21
0.0
 31
0.0
 12
0.0
 22
1.0
 32
0.0
  0
UCS
  2
AUDIT_D_000731094948-6
 70
     0
 10
0.0
 20
0.0
 30
1.0
 11
1.0
 21
0.0
 31
0.0
 12
0.0
 22
1.0
 32
0.0
  0
UCS
  2
AUDIT_D_000731094948-7
 70
     0
 10
0.0
 20
0.0
 30
1.0
 11
1.0
 21
0.0
 31
0.0
 12
0.0
 22
1.0
 32
0.0
  0
UCS
  2
AUDIT_D_000731094948-8
 70
     0
 10
0.0
 20
0.0
 30
1.0
 11
1.0
 21
0.0
 31
0.0
 12
0.0
 22
1.0
 32
0.0
  0
UCS
  2
AUDIT_D_000731094948-9
 70
     0
 10
0.0
 20
0.0
 30
1.0
 11
1.0
 21
0.0
 31
0.0
 12
0.0
 22
1.0
 32
0.0
  0
UCS
  2
AUDIT_D_000731094948-10
 70
     0
 10
0.0
 20
0.0
 30
1.0
 11
1.0
 21
0.0
 31
0.0
 12
0.0
 22
1.0
 32
0.0
  0
UCS
  2
AUDIT_D_000731094948-11
 70
     0
 10
0.0
 20
0.0
 30
1.0
 11
1.0
 21
0.0
 31
0.0
 12
0.0
 22
1.0
 32
0.0
  0
UCS
  2
AUDIT_D_000731094948-12
 70
     0
 10
0.0
 20
0.0
 30
1.0
 11
1.0
 21
0.0
 31
0.0
 12
0.0
 22
1.0
 32
0.0
  0
UCS
  2
AUDIT_D_000731094948-13
 70
     0
 10
0.0
 20
0.0
 30
1.0
 11
1.0
 21
0.0
 31
0.0
 12
0.0
 22
1.0
 32
0.0
  0
UCS
  2
AUDIT_D_000731094948-14
 70
     0
 10
0.0
 20
0.0
 30
1.0
 11
1.0
 21
0.0
 31
0.0
 12
0.0
 22
1.0
 32
0.0
  0
UCS
  2
CK_VIEW_1
 70
     0
 10
0.0
 20
0.0
 30
1.0
 11
1.0
 21
0.0
 31
0.0
 12
0.0
 22
1.0
 32
0.0
  0
ENDTAB
  0
TABLE
  2
APPID
 70
     3
  0
APPID
  2
ACAD
 70
     0
  0
APPID
  2
ACAD_PSEXT
 70
     0
  0
APPID
  2
DCO15
 70
     0
  0
ENDTAB
  0
TABLE
  2
DIMSTYLE
 70
     2
  0
DIMSTYLE
  2
STANDARD
 70
     0
  3

  4

  5

  6

  7

 40
1.0
 41
0.18
 42
0.0625
 43
0.38
 44
0.18
 45
0.0
 46
0.0
 47
0.0
 48
0.0
140
0.18
141
0.09
142
0.0
143
25.399999999999999
144
1.0
145
0.0
146
1.0
147
0.09
 71
     0
 72
     0
 73
     1
 74
     1
 75
     0
 76
     0
 77
     0
 78
     0
170
     0
171
     2
172
     0
173
     0
174
     0
175
     0
176
     0
177
     0
178
     0
  0
DIMSTYLE
  2
MECHTRONICS
 70
     0
  3

  4

  5

  6

  7

 40
5.0
 41
2.0
 42
1.0
 43
6.0
 44
0.5
 45
0.0
 46
0.0
 47
0.0
 48
0.0
140
2.0
141
0.09
142
0.0
143
25.399999999999999
144
1.0
145
0.0
146
1.0
147
0.5
 71
     0
 72
     0
 73
     0
 74
     1
 75
     0
 76
     0
 77
     0
 78
     0
170
     0
171
     2
172
     0
173
     0
174
     0
175
     0
176
     7
177
     7
178
     0
  0
ENDTAB
  0
ENDSEC
  0
SECTION
  2
BLOCKS
  0
BLOCK
  8
0
  2
$MODEL_SPACE
 70
     0
 10
0.0
 20
0.0
 30
0.0
  3
$MODEL_SPACE
  1

  0
ENDBLK
  5
E
  8
0
  0
BLOCK
 67
     1
  8
0
  2
$PAPER_SPACE
 70
     0
 10
0.0
 20
0.0
 30
0.0
  3
$PAPER_SPACE
  1

  0
ENDBLK
  5
10
 67
     1
  8
0
  0
BLOCK
  8
0
  2
_DOTSMALL
 70
     0
 10
0.0
 20
0.0
 30
0.0
  3
_DOTSMALL
  1

  0
POLYLINE
  5
1A9D
  8
0
 62
     0
 66
     1
 10
0.0
 20
0.0
 30
0.0
 70
     1
 40
0.5
 41
0.5
  0
VERTEX
  5
4D4A
  8
0
 62
     0
 10
-0.0625
 20
0.0
 30
0.0
 42
1.0
  0
VERTEX
  5
4D4B
  8
0
 62
     0
 10
0.0625
 20
0.0
 30
0.0
 42
1.0
  0
SEQEND
  5
4D4C
  8
0
 62
     0
  0
ENDBLK
  5
1A9F
  8
0
  0
BLOCK
  8
0
  2
*D1
 70
     1
 10
0.0
 20
0.0
 30
0.0
  3
*D1
  1

  0
LINE
  5
4D28
  8
50_DIMENSIONS
 62
     7
 10
3431.747496264637
 20
8370.0336551036835
 30
0.0
 11
3208.0619129253469
 21
8370.0336551036835
 31
0.0
  0
LINE
  5
4D29
  8
50_DIMENSIONS
 62
     7
 10
3627.0878589486811
 20
9019.1334551036853
 30
0.0
 11
3208.0619129253469
 21
9019.1334551036853
 31
0.0
  0
LINE
  5
4D2A
  8
50_DIMENSIONS
 62
     7
 10
3210.561912925346
 20
8380.0336551036835
 30
0.0
 11
3210.561912925346
 21
8659.1674568772178
 31
0.0
  0
LINE
  5
4D2B
  8
50_DIMENSIONS
 62
     7
 10
3210.561912925346
 20
9009.1334551036834
 30
0.0
 11
3210.561912925346
 21
8729.9996533301492
 31
0.0
  0
SOLID
  5
4D2C
  8
50_DIMENSIONS
 62
     7
 10
3208.8952462586799
 20
8380.0336551036835
 30
0.0
 11
3212.2285795920129
 21
8380.0336551036835
 31
0.0
 12
3210.561912925346
 22
8370.0336551036835
 32
0.0
 13
3210.561912925346
 23
8370.0336551036835
 33
0.0
  0
SOLID
  5
4D2D
  8
50_DIMENSIONS
 62
     7
 10
3208.8952462586799
 20
9009.1334551036834
 30
0.0
 11
3212.2285795920129
 21
9009.1334551036834
 31
0.0
 12
3210.561912925346
 22
9019.1334551036853
 32
0.0
 13
3210.561912925346
 23
9019.1334551036853
 33
0.0
  0
INSERT
  5
4D2E
  8
50_DIMENSIONS
  2
*U7
 10
0.0
 20
0.0
 30
0.0
  0
POINT
  5
4D2F
  8
DEFPOINTS
 62
     0
 10
3436.747496264637
 20
8370.0336551036835
 30
0.0
  0
POINT
  5
4D30
  8
DEFPOINTS
 62
     0
 10
3632.0878589486802
 20
9019.1334551036853
 30
0.0
  0
POINT
  5
4D31
  8
DEFPOINTS
 62
     0
 10
3210.561912925346
 20
9019.1334551036853
 30
0.0
  0
ENDBLK
  5
4154
  8
0
  0
BLOCK
  8
0
  2
*D2
 70
     1
 10
0.0
 20
0.0
 30
0.0
  3
*D2
  1

  0
LINE
  5
4D00
  8
50_DIMENSIONS
 62
     7
 10
3278.3761255015252
 20
8776.0835551036835
 30
0.0
 11
3278.3761255015252
 21
9070.2320828703614
 31
0.0
  0
LINE
  5
4D01
  8
50_DIMENSIONS
 62
     7
 10
4106.799592395836
 20
8776.0835551036835
 30
0.0
 11
4106.799592395836
 21
9070.2320828703614
 31
0.0
  0
LINE
  5
4D02
  8
50_DIMENSIONS
 62
     7
 10
3288.3761255015252
 20
9067.7320828703614
 30
0.0
 11
3657.1103691806052
 21
9067.7320828703614
 31
0.0
  0
LINE
  5
4D03
  8
50_DIMENSIONS
 62
     7
 10
4096.799592395837
 20
9067.7320828703614
 30
0.0
 11
3728.0653487167579
 21
9067.7320828703614
 31
0.0
  0
SOLID
  5
4D04
  8
50_DIMENSIONS
 62
     7
 10
3288.3761255015252
 20
9069.3987495370275
 30
0.0
 11
3288.3761255015252
 21
9066.0654162036953
 31
0.0
 12
3278.3761255015252
 22
9067.7320828703614
 32
0.0
 13
3278.3761255015252
 23
9067.7320828703614
 33
0.0
  0
SOLID
  5
4D05
  8
50_DIMENSIONS
 62
     7
 10
4096.799592395837
 20
9069.3987495370275
 30
0.0
 11
4096.799592395837
 21
9066.0654162036953
 31
0.0
 12
4106.799592395836
 22
9067.7320828703614
 32
0.0
 13
4106.799592395836
 23
9067.7320828703614
 33
0.0
  0
INSERT
  5
4D06
  8
50_DIMENSIONS
  2
*U6
 10
0.0
 20
0.0
 30
0.0
  0
POINT
  5
4D07
  8
DEFPOINTS
 62
     0
 10
3278.3761255015252
 20
8771.0835551036835
 30
0.0
  0
POINT
  5
4D08
  8
DEFPOINTS
 62
     0
 10
4106.799592395836
 20
8771.0835551036835
 30
0.0
  0
POINT
  5
4D09
  8
DEFPOINTS
 62
     0
 10
4106.799592395836
 20
9067.7320828703614
 30
0.0
  0
ENDBLK
  5
4162
  8
0
  0
BLOCK
  8
0
  2
*U3
 70
     1
 10
0.0
 20
0.0
 30
0.0
  3
*U3
  1

  0
TEXT
  5
4D4E
  8
50_DIMENSIONS
 10
3522.4187040808361
 20
8332.0598533372176
 30
0.0
 40
10.0
  1
ENGRAVE BEND MARKS
  7
MECHTRONICS
  0
ENDBLK
  5
4D50
  8
0
  0
BLOCK
  8
0
  2
*U4
 70
     1
 10
0.0
 20
0.0
 30
0.0
  3
*U4
  1

  0
SOLID
  5
4D52
  8
50_DIMENSIONS
 10
3482.9009457211482
 20
8353.6155252582575
 30
0.0
 11
3477.0083892112598
 21
8361.8651043721002
 31
0.0
 12
3485.2579683251029
 22
8355.9725478622131
 32
0.0
 13
3485.2579683251029
 23
8355.9725478622131
 33
0.0
  0
POLYLINE
  5
4D53
  8
50_DIMENSIONS
 66
     1
 10
0.0
 20
0.0
 30
0.0
  0
VERTEX
  5
4D54
  8
50_DIMENSIONS
 10
3484.0794570231251
 20
8354.7940365602353
 30
0.0
  0
VERTEX
  5
4D55
  8
50_DIMENSIONS
 10
3501.7283742161299
 20
8337.1451193672328
 30
0.0
  0
VERTEX
  5
4D56
  8
50_DIMENSIONS
 10
3520.5462620617359
 20
8337.1451193672328
 30
0.0
  0
SEQEND
  5
4D57
  8
50_DIMENSIONS
  0
ENDBLK
  5
4D59
  8
0
  0
BLOCK
  8
0
  2
*U5
 70
     1
 10
0.0
 20
0.0
 30
0.0
  3
*U5
  1

  0
TEXT
  5
4D5B
  8
50_DIMENSIONS
 10
4115.1832883918778
 20
8411.2920269197111
 30
0.0
 40
10.0
  1
SUPPLY .dxf VERSION OF THIS 
  7
MECHTRONICS
  0
TEXT
  5
4D5C
  8
50_DIMENSIONS
 10
4115.5448163591363
 20
8394.4548281930165
 30
0.0
 40
10.0
  1
DRAWING TO THE LASER CUTTING 
  7
MECHTRONICS
  0
TEXT
  5
4D5D
  8
50_DIMENSIONS
 10
4114.8967945310324
 20
8377.6176294663219
 30
0.0
 40
10.0
  1
CONTRACTOR.
  7
MECHTRONICS
  0
ENDBLK
  5
4D5F
  8
0
  0
BLOCK
  8
0
  2
*U6
 70
     1
 10
0.0
 20
0.0
 30
0.0
  3
*U6
  1

  0
TEXT
  5
4D61
  8
50_DIMENSIONS
 62
     0
 10
3658.5667129732378
 20
9064.0997499917812
 30
0.0
 40
10.0
  1
828 [32.6"]
  7
MECHTRONICS
  0
ENDBLK
  5
4D63
  8
0
  0
BLOCK
  8
0
  2
*U7
 70
     1
 10
0.0
 20
0.0
 30
0.0
  3
*U7
  1

  0
TEXT
  5
4D65
  8
50_DIMENSIONS
 62
     0
 10
3214.1942458039262
 20
8660.5010175866319
 30
0.0
 40
10.0
  1
649 [25.6"]
 50
90.0
  7
MECHTRONICS
  0
ENDBLK
  5
4D67
  8
0
  0
ENDSEC
  0
SECTION
  2
ENTITIES
  0
LINE
  5
2747
  8
01_FRAME
 62
     4
 10
3074.3670861936212
 20
9129.2856903692464
 30
0.0
 11
3074.3670861936212
 21
8162.3536730024716
 31
0.0
  0
LINE
  5
2748
  8
01_FRAME
 62
     4
 10
4422.5317165603728
 20
9129.2856903692464
 30
0.0
 11
3074.3670861936212
 21
9129.2856903692464
 31
0.0
  0
LINE
  5
274D
  8
01_FRAME
 62
     4
 10
4422.5317165603719
 20
8162.3536730024716
 30
0.0
 11
4422.5317165603728
 21
9129.2856903692464
 31
0.0
  0
LINE
  5
274E
  8
01_FRAME
 62
     4
 10
3074.3670861936212
 20
8162.3536730024716
 30
0.0
 11
4422.5317165603719
 21
8162.3536730024716
 31
0.0
  0
LINE
  5
3D8E
  8
01_FRAME
 62
     4
 10
3894.2318812966828
 20
8267.2556680267535
 30
0.0
 11
4042.132470008346
 21
8267.2556680267535
 31
0.0
  0
LINE
  5
3D8F
  8
01_FRAME
 62
     4
 10
3894.2316437396512
 20
8162.3536730024716
 30
0.0
 11
3894.2316437396512
 21
8319.9833708740189
 31
0.0
  0
TEXT
  5
3D91
  8
01_FRAME
 62
     8
 10
4378.1683865715968
 20
8204.6736266400349
 30
0.0
 40
7.0
  1
Revision
  7
MECHTRONICS
  0
TEXT
  5
3D92
  8
62_TEXT
 10
4168.5705696321684
 20
8233.9743360810044
 30
0.0
 40
10.0
  1
CAR MAIN PLATE - PROFILE CUT
  7
MECHTRONICS
 72
     1
 11
4279.8393281587714
 21
8233.9743360810044
 31
0.0
  0
LINE
  5
3D93
  8
01_FRAME
 62
     8
 10
4042.132470008346
 20
8319.9833708740189
 30
0.0
 11
4422.1146456191555
 21
8319.9833708740189
 31
0.0
  0
LINE
  5
3D94
  8
01_FRAME
 62
     8
 10
4042.132470008346
 20
8302.4220781648055
 30
0.0
 11
4422.1146456191555
 21
8302.4220781648055
 31
0.0
  0
LINE
  5
3D95
  8
01_FRAME
 62
     4
 10
4123.4501624828117
 20
8215.0376144786587
 30
0.0
 11
4422.1144080621207
 21
8215.0376144786587
 31
0.0
  0
LINE
  5
3D96
  8
01_FRAME
 62
     4
 10
3894.2318812966842
 20
8245.522379209011
 30
0.0
 11
4123.4501624828117
 21
8245.5223792090092
 31
0.0
  0
LINE
  5
3D97
  8
01_FRAME
 62
     8
 10
4065.7535468321162
 20
8284.8607221070488
 30
0.0
 11
4422.1146456191555
 21
8284.8607221070488
 31
0.0
  0
TEXT
  5
3D98
  8
01_FRAME
 62
     8
 10
3897.2561563356908
 20
8309.4537605344722
 30
0.0
 40
7.0
  1
Higher
  7
MECHTRONICS
  0
TEXT
  5
3D99
  8
01_FRAME
 62
     8
 10
4157.284127673579
 20
8273.2902743454215
 30
0.0
 40
7.0
  1
Description of change
  7
MECHTRONICS
  0
LINE
  5
3D9A
  8
01_FRAME
 62
     4
 10
4123.4501624828117
 20
8267.2556680267535
 30
0.0
 11
4123.4501624828117
 21
8162.3536730024716
 31
0.0
  0
LINE
  5
3D9B
  8
01_FRAME
 62
     4
 10
4042.132470008346
 20
8267.2556680267535
 30
0.0
 11
4042.132470008346
 21
8319.9833708740189
 31
0.0
  0
LINE
  5
3D9C
  8
01_FRAME
 62
     8
 10
4065.7535468321162
 20
8267.2556680267535
 30
0.0
 11
4065.7535468321162
 21
8320.1946508339097
 31
0.0
  0
LINE
  5
3D9D
  8
01_FRAME
 62
     7
 10
4043.846330985757
 20
8278.1961257274852
 30
0.0
 11
4054.0657477211339
 21
8295.8966747368759
 31
0.0
  0
LINE
  5
3D9E
  8
01_FRAME
 62
     7
 10
4043.846330985757
 20
8278.1961257274852
 30
0.0
 11
4064.2851644565098
 21
8278.1961257274852
 31
0.0
  0
LINE
  5
3D9F
  8
01_FRAME
 62
     7
 10
4064.2851644565098
 20
8278.1961257274852
 30
0.0
 11
4054.0657477211339
 21
8295.8966747368759
 31
0.0
  0
TEXT
  5
3DA0
  8
01_FRAME
 62
     8
 10
4127.3197448094716
 20
8251.8017506604738
 30
0.0
 40
7.0
  1
Title
  7
MECHTRONICS
  0
LINE
  5
3DA1
  8
01_FRAME
 62
     8
 10
4326.39358915503
 20
8215.0376144786587
 30
0.0
 11
4326.39358915503
 21
8162.3536730024716
 31
0.0
  0
LINE
  5
3DA2
  8
01_FRAME
 62
     8
 10
4374.2539986085758
 20
8215.0376144786587
 30
0.0
 11
4374.2539986085758
 21
8162.3536730024716
 31
0.0
  0
TEXT
  5
3DA3
  8
01_FRAME
 62
     8
 10
4330.307977118051
 20
8203.6648663131673
 30
0.0
 40
7.0
  1
Process
  7
MECHTRONICS
  0
TEXT
  5
3DA4
  8
01_FRAME
 62
     8
 10
4126.7479535394959
 20
8204.5973529720268
 30
0.0
 40
7.0
  1
Drawing Number
  7
MECHTRONICS
  0
TEXT
  5
3DA5
  8
62_TEXT
 10
4157.9840672733844
 20
8173.982385047866
 30
0.0
 40
20.0
  1
10 30 422
  7
MECHTRONICS
  0
TEXT
  5
3DA6
  8
62_TEXT
 10
4339.4132746233636
 20
8173.982385047866
 30
0.0
 40
20.0
  1
P
  7
MECHTRONICS
  0
LINE
  5
3DA7
  8
01_FRAME
 62
     8
 10
4328.4742114632527
 20
8267.2556680267535
 30
0.0
 11
4328.4742114632527
 21
8320.1508261142881
 31
0.0
  0
TEXT
  5
3DA8
  8
01_FRAME
 62
     8
 10
4336.2208206737914
 20
8273.2902743454215
 30
0.0
 40
7.0
  1
Date (d-m-y)
  7
MECHTRONICS
  0
TEXT
  5
3DA9
  8
62_TEXT
 10
4387.2736840769076
 20
8173.982385047866
 30
0.0
 40
20.0
  1
D
  7
MECHTRONICS
  0
LINE
  5
3DAA
  8
01_FRAME
 62
     8
 10
4395.4328922481791
 20
8267.2556680267535
 30
0.0
 11
4395.4328922481791
 21
8320.1508261142881
 31
0.0
  0
TEXT
  5
3DAB
  8
01_FRAME
 62
     8
 10
4400.1174225125178
 20
8273.2902743454215
 30
0.0
 40
7.0
  1
Rev.
  7
MECHTRONICS
  0
TEXT
  5
3DAC
  8
01_FRAME
 62
     8
 10
3960.7985176342841
 20
8181.1184277583352
 30
0.0
 40
7.0
  1
www.mechmate.com
  7
MECHTRONICS
  0
TEXT
  5
3DAD
  8
62_TEXT
 10
3950.149572144388
 20
8304.4774265985598
 30
0.0
 40
10.0
  1
10 20 422 B
  7
MECHTRONICS
  0
TEXT
  5
3DAE
  8
01_FRAME
 62
     8
 10
3897.2561563356908
 20
8299.315598673551
 30
0.0
 40
7.0
  1
drawing/s:
  7
MECHTRONICS
  0
LINE
  5
3DAF
  8
01_FRAME
 62
     4
 10
3894.2316437396512
 20
8319.9833708740189
 30
0.0
 11
4042.132470008346
 21
8319.9833708740189
 31
0.0
  0
LINE
  5
3DB0
  8
01_FRAME
 62
     4
 10
4042.132470008346
 20
8267.2556680267535
 30
0.0
 11
4422.1144080621207
 21
8267.2556680267535
 31
0.0
  0
TEXT
  5
3DB1
  8
01_FRAME
 62
     8
 10
3898.101463623344
 20
8256.8807741356704
 30
0.0
 40
7.0
  1
Material:
  7
MECHTRONICS
  0
TEXT
  5
3DB2
  8
62_TEXT
 10
3943.3880979607079
 20
8251.7866829073737
 30
0.0
 40
10.0
  1
2mm (14ga) STEEL PLATE
  7
MECHTRONICS
  0
POLYLINE
  5
403A
  8
10_OUTLINE
 62
     2
 10
4032.693725672259
 20
8566.5257660676598
 30
0.0
 66
     1
 70
     8
  0
VERTEX
  8
10_OUTLINE
  5
4D68
 10
4032.69
 20
8566.53
 30
0.000000
  70
    32
  0
VERTEX
  8
10_OUTLINE
  5
4D69
 10
4035.35
 20
8566.65
 30
0.000000
  70
    32
  0
VERTEX
  8
10_OUTLINE
  5
4D6A
 10
4038.00
 20
8567.03
 30
0.000000
  70
    32
  0
VERTEX
  8
10_OUTLINE
  5
4D6B
 10
4040.63
 20
8567.66
 30
0.000000
  70
    32
  0
VERTEX
  8
10_OUTLINE
  5
4D6C
 10
4043.25
 20
8568.53
 30
0.000000
  70
    32
  0
VERTEX
  8
10_OUTLINE
  5
4D6D
 10
4045.84
 20
8569.66
 30
0.000000
  70
    32
  0
VERTEX
  8
10_OUTLINE
  5
4D6E
 10
4048.40
 20
8571.03
 30
0.000000
  70
    32
  0
VERTEX
  8
10_OUTLINE
  5
4D6F
 10
4050.92
 20
8572.64
 30
0.000000
  70
    32
  0
VERTEX
  8
10_OUTLINE
  5
4D70
 10
4053.40
 20
8574.48
 30
0.000000
  70
    32
  0
VERTEX
  8
10_OUTLINE
  5
4D71
 10
4055.83
 20
8576.56
 30
0.000000
  70
    32
  0
VERTEX
  8
10_OUTLINE
  5
4D72
 10
4058.20
 20
8578.87
 30
0.000000
  70
    32
  0
VERTEX
  8
10_OUTLINE
  5
4D73
 10
4060.51
 20
8581.40
 30
0.000000
  70
    32
  0
VERTEX
  8
10_OUTLINE
  5
4D74
 10
4062.75
 20
8584.15
 30
0.000000
  70
    32
  0
VERTEX
  8
10_OUTLINE
  5
4D75
 10
4064.92
 20
8587.10
 30
0.000000
  70
    32
  0
VERTEX
  8
10_OUTLINE
  5
4D76
 10
4067.02
 20
8590.26
 30
0.000000
  70
    32
  0
VERTEX
  8
10_OUTLINE
  5
4D77
 10
4069.03
 20
8593.61
 30
0.000000
  70
    32
  0
VERTEX
  8
10_OUTLINE
  5
4D78
 10
4070.95
 20
8597.15
 30
0.000000
  70
    32
  0
VERTEX
  8
10_OUTLINE
  5
4D79
 10
4072.78
 20
8600.87
 30
0.000000
  70
    32
  0
VERTEX
  8
10_OUTLINE
  5
4D7A
 10
4074.52
 20
8604.75
 30
0.000000
  70
    32
  0
VERTEX
  8
10_OUTLINE
  5
4D7B
 10
4076.15
 20
8608.80
 30
0.000000
  70
    32
  0
VERTEX
  8
10_OUTLINE
  5
4D7C
 10
4077.68
 20
8612.99
 30
0.000000
  70
    32
  0
VERTEX
  8
10_OUTLINE
  5
4D7D
 10
4079.10
 20
8617.33
 30
0.000000
  70
    32
  0
VERTEX
  8
10_OUTLINE
  5
4D7E
 10
4080.41
 20
8621.80
 30
0.000000
  70
    32
  0
VERTEX
  8
10_OUTLINE
  5
4D7F
 10
4081.60
 20
8626.38
 30
0.000000
  70
    32
  0
VERTEX
  8
10_OUTLINE
  5
4D80
 10
4082.68
 20
8631.07
 30
0.000000
  70
    32
  0
VERTEX
  8
10_OUTLINE
  5
4D81
 10
4083.64
 20
8635.86
 30
0.000000
  70
    32
  0
VERTEX
  8
10_OUTLINE
  5
4D82
 10
4084.47
 20
8640.73
 30
0.000000
  70
    32
  0
VERTEX
  8
10_OUTLINE
  5
4D83
 10
4085.18
 20
8645.68
 30
0.000000
  70
    32
  0
VERTEX
  8
10_OUTLINE
  5
4D84
 10
4085.76
 20
8650.69
 30
0.000000
  70
    32
  0
VERTEX
  8
10_OUTLINE
  5
4D85
 10
4086.21
 20
8655.74
 30
0.000000
  70
    32
  0
VERTEX
  8
10_OUTLINE
  5
4D86
 10
4086.54
 20
8660.84
 30
0.000000
  70
    32
  0
VERTEX
  8
10_OUTLINE
  5
4D87
 10
4086.73
 20
8665.95
 30
0.000000
  70
    32
  0
VERTEX
  8
10_OUTLINE
  5
4D88
 10
4086.80
 20
8671.08
 30
0.000000
  70
    32
  0
VERTEX
  8
10_OUTLINE
  5
4D89
 10
4086.73
 20
8676.21
 30
0.000000
  70
    32
  0
VERTEX
  8
10_OUTLINE
  5
4D8A
 10
4086.54
 20
8681.33
 30
0.000000
  70
    32
  0
VERTEX
  8
10_OUTLINE
  5
4D8B
 10
4086.21
 20
8686.43
 30
0.000000
  70
    32
  0
VERTEX
  8
10_OUTLINE
  5
4D8C
 10
4085.76
 20
8691.48
 30
0.000000
  70
    32
  0
VERTEX
  8
10_OUTLINE
  5
4D8D
 10
4085.18
 20
8696.49
 30
0.000000
  70
    32
  0
VERTEX
  8
10_OUTLINE
  5
4D8E
 10
4084.47
 20
8701.44
 30
0.000000
  70
    32
  0
VERTEX
  8
10_OUTLINE
  5
4D8F
 10
4083.64
 20
8706.31
 30
0.000000
  70
    32
  0
VERTEX
  8
10_OUTLINE
  5
4D90
 10
4082.68
 20
8711.10
 30
0.000000
  70
    32
  0
VERTEX
  8
10_OUTLINE
  5
4D91
 10
4081.60
 20
8715.79
 30
0.000000
  70
    32
  0
VERTEX
  8
10_OUTLINE
  5
4D92
 10
4080.41
 20
8720.37
 30
0.000000
  70
    32
  0
VERTEX
  8
10_OUTLINE
  5
4D93
 10
4079.10
 20
8724.84
 30
0.000000
  70
    32
  0
VERTEX
  8
10_OUTLINE
  5
4D94
 10
4077.68
 20
8729.17
 30
0.000000
  70
    32
  0
VERTEX
  8
10_OUTLINE
  5
4D95
 10
4076.15
 20
8733.37
 30
0.000000
  70
    32
  0
VERTEX
  8
10_OUTLINE
  5
4D96
 10
4074.52
 20
8737.41
 30
0.000000
  70
    32
  0
VERTEX
  8
10_OUTLINE
  5
4D97
 10
4072.78
 20
8741.30
 30
0.000000
  70
    32
  0
VERTEX
  8
10_OUTLINE
  5
4D98
 10
4070.95
 20
8745.02
 30
0.000000
  70
    32
  0
VERTEX
  8
10_OUTLINE
  5
4D99
 10
4069.03
 20
8748.56
 30
0.000000
  70
    32
  0
VERTEX
  8
10_OUTLINE
  5
4D9A
 10
4067.02
 20
8751.91
 30
0.000000
  70
    32
  0
VERTEX
  8
10_OUTLINE
  5
4D9B
 10
4064.92
 20
8755.07
 30
0.000000
  70
    32
  0
VERTEX
  8
10_OUTLINE
  5
4D9C
 10
4062.75
 20
8758.02
 30
0.000000
  70
    32
  0
VERTEX
  8
10_OUTLINE
  5
4D9D
 10
4060.51
 20
8760.77
 30
0.000000
  70
    32
  0
VERTEX
  8
10_OUTLINE
  5
4D9E
 10
4058.20
 20
8763.30
 30
0.000000
  70
    32
  0
VERTEX
  8
10_OUTLINE
  5
4D9F
 10
4055.83
 20
8765.60
 30
0.000000
  70
    32
  0
VERTEX
  8
10_OUTLINE
  5
4DA0
 10
4053.40
 20
8767.68
 30
0.000000
  70
    32
  0
VERTEX
  8
10_OUTLINE
  5
4DA1
 10
4050.92
 20
8769.53
 30
0.000000
  70
    32
  0
VERTEX
  8
10_OUTLINE
  5
4DA2
 10
4048.40
 20
8771.14
 30
0.000000
  70
    32
  0
VERTEX
  8
10_OUTLINE
  5
4DA3
 10
4045.84
 20
8772.51
 30
0.000000
  70
    32
  0
VERTEX
  8
10_OUTLINE
  5
4DA4
 10
4043.25
 20
8773.63
 30
0.000000
  70
    32
  0
VERTEX
  8
10_OUTLINE
  5
4DA5
 10
4040.63
 20
8774.51
 30
0.000000
  70
    32
  0
VERTEX
  8
10_OUTLINE
  5
4DA6
 10
4038.00
 20
8775.14
 30
0.000000
  70
    32
  0
VERTEX
  8
10_OUTLINE
  5
4DA7
 10
4035.35
 20
8775.52
 30
0.000000
  70
    32
  0
VERTEX
  8
10_OUTLINE
  5
4DA8
 10
4032.69
 20
8775.64
 30
0.000000
  70
    32
  0
VERTEX
  8
10_OUTLINE
  5
4DA9
 10
4030.04
 20
8775.52
 30
0.000000
  70
    32
  0
VERTEX
  8
10_OUTLINE
  5
4DAA
 10
4027.39
 20
8775.14
 30
0.000000
  70
    32
  0
VERTEX
  8
10_OUTLINE
  5
4DAB
 10
4024.75
 20
8774.51
 30
0.000000
  70
    32
  0
VERTEX
  8
10_OUTLINE
  5
4DAC
 10
4022.14
 20
8773.63
 30
0.000000
  70
    32
  0
VERTEX
  8
10_OUTLINE
  5
4DAD
 10
4019.55
 20
8772.51
 30
0.000000
  70
    32
  0
VERTEX
  8
10_OUTLINE
  5
4DAE
 10
4016.99
 20
8771.14
 30
0.000000
  70
    32
  0
VERTEX
  8
10_OUTLINE
  5
4DAF
 10
4014.47
 20
8769.53
 30
0.000000
  70
    32
  0
VERTEX
  8
10_OUTLINE
  5
4DB0
 10
4011.99
 20
8767.68
 30
0.000000
  70
    32
  0
VERTEX
  8
10_OUTLINE
  5
4DB1
 10
4009.56
 20
8765.60
 30
0.000000
  70
    32
  0
VERTEX
  8
10_OUTLINE
  5
4DB2
 10
4007.19
 20
8763.30
 30
0.000000
  70
    32
  0
VERTEX
  8
10_OUTLINE
  5
4DB3
 10
4004.88
 20
8760.77
 30
0.000000
  70
    32
  0
VERTEX
  8
10_OUTLINE
  5
4DB4
 10
4002.63
 20
8758.02
 30
0.000000
  70
    32
  0
VERTEX
  8
10_OUTLINE
  5
4DB5
 10
4000.46
 20
8755.07
 30
0.000000
  70
    32
  0
VERTEX
  8
10_OUTLINE
  5
4DB6
 10
3998.37
 20
8751.91
 30
0.000000
  70
    32
  0
VERTEX
  8
10_OUTLINE
  5
4DB7
 10
3996.36
 20
8748.56
 30
0.000000
  70
    32
  0
VERTEX
  8
10_OUTLINE
  5
4DB8
 10
3994.44
 20
8745.02
 30
0.000000
  70
    32
  0
VERTEX
  8
10_OUTLINE
  5
4DB9
 10
3992.60
 20
8741.30
 30
0.000000
  70
    32
  0
VERTEX
  8
10_OUTLINE
  5
4DBA
 10
3990.87
 20
8737.41
 30
0.000000
  70
    32
  0
VERTEX
  8
10_OUTLINE
  5
4DBB
 10
3989.24
 20
8733.37
 30
0.000000
  70
    32
  0
VERTEX
  8
10_OUTLINE
  5
4DBC
 10
3987.71
 20
8729.17
 30
0.000000
  70
    32
  0
VERTEX
  8
10_OUTLINE
  5
4DBD
 10
3986.29
 20
8724.84
 30
0.000000
  70
    32
  0
VERTEX
  8
10_OUTLINE
  5
4DBE
 10
3984.98
 20
8720.37
 30
0.000000
  70
    32
  0
VERTEX
  8
10_OUTLINE
  5
4DBF
 10
3983.78
 20
8715.79
 30
0.000000
  70
    32
  0
VERTEX
  8
10_OUTLINE
  5
4DC0
 10
3982.71
 20
8711.10
 30
0.000000
  70
    32
  0
VERTEX
  8
10_OUTLINE
  5
4DC1
 10
3981.75
 20
8706.31
 30
0.000000
  70
    32
  0
VERTEX
  8
10_OUTLINE
  5
4DC2
 10
3980.92
 20
8701.44
 30
0.000000
  70
    32
  0
VERTEX
  8
10_OUTLINE
  5
4DC3
 10
3980.21
 20
8696.49
 30
0.000000
  70
    32
  0
VERTEX
  8
10_OUTLINE
  5
4DC4
 10
3979.63
 20
8691.48
 30
0.000000
  70
    32
  0
VERTEX
  8
10_OUTLINE
  5
4DC5
 10
3979.17
 20
8686.43
 30
0.000000
  70
    32
  0
VERTEX
  8
10_OUTLINE
  5
4DC6
 10
3978.85
 20
8681.33
 30
0.000000
  70
    32
  0
VERTEX
  8
10_OUTLINE
  5
4DC7
 10
3978.65
 20
8676.21
 30
0.000000
  70
    32
  0
VERTEX
  8
10_OUTLINE
  5
4DC8
 10
3978.59
 20
8671.08
 30
0.000000
  70
    32
  0
VERTEX
  8
10_OUTLINE
  5
4DC9
 10
3978.65
 20
8665.95
 30
0.000000
  70
    32
  0
VERTEX
  8
10_OUTLINE
  5
4DCA
 10
3978.85
 20
8660.84
 30
0.000000
  70
    32
  0
VERTEX
  8
10_OUTLINE
  5
4DCB
 10
3979.17
 20
8655.74
 30
0.000000
  70
    32
  0
VERTEX
  8
10_OUTLINE
  5
4DCC
 10
3979.63
 20
8650.69
 30
0.000000
  70
    32
  0
VERTEX
  8
10_OUTLINE
  5
4DCD
 10
3980.21
 20
8645.68
 30
0.000000
  70
    32
  0
VERTEX
  8
10_OUTLINE
  5
4DCE
 10
3980.92
 20
8640.73
 30
0.000000
  70
    32
  0
VERTEX
  8
10_OUTLINE
  5
4DCF
 10
3981.75
 20
8635.86
 30
0.000000
  70
    32
  0
VERTEX
  8
10_OUTLINE
  5
4DD0
 10
3982.71
 20
8631.07
 30
0.000000
  70
    32
  0
VERTEX
  8
10_OUTLINE
  5
4DD1
 10
3983.78
 20
8626.38
 30
0.000000
  70
    32
  0
VERTEX
  8
10_OUTLINE
  5
4DD2
 10
3984.98
 20
8621.80
 30
0.000000
  70
    32
  0
VERTEX
  8
10_OUTLINE
  5
4DD3
 10
3986.29
 20
8617.33
 30
0.000000
  70
    32
  0
VERTEX
  8
10_OUTLINE
  5
4DD4
 10
3987.71
 20
8612.99
 30
0.000000
  70
    32
  0
VERTEX
  8
10_OUTLINE
  5
4DD5
 10
3989.24
 20
8608.80
 30
0.000000
  70
    32
  0
VERTEX
  8
10_OUTLINE
  5
4DD6
 10
3990.87
 20
8604.75
 30
0.000000
  70
    32
  0
VERTEX
  8
10_OUTLINE
  5
4DD7
 10
3992.60
 20
8600.87
 30
0.000000
  70
    32
  0
VERTEX
  8
10_OUTLINE
  5
4DD8
 10
3994.44
 20
8597.15
 30
0.000000
  70
    32
  0
VERTEX
  8
10_OUTLINE
  5
4DD9
 10
3996.36
 20
8593.61
 30
0.000000
  70
    32
  0
VERTEX
  8
10_OUTLINE
  5
4DDA
 10
3998.37
 20
8590.26
 30
0.000000
  70
    32
  0
VERTEX
  8
10_OUTLINE
  5
4DDB
 10
4000.46
 20
8587.10
 30
0.000000
  70
    32
  0
VERTEX
  8
10_OUTLINE
  5
4DDC
 10
4002.63
 20
8584.15
 30
0.000000
  70
    32
  0
VERTEX
  8
10_OUTLINE
  5
4DDD
 10
4004.88
 20
8581.40
 30
0.000000
  70
    32
  0
VERTEX
  8
10_OUTLINE
  5
4DDE
 10
4007.19
 20
8578.87
 30
0.000000
  70
    32
  0
VERTEX
  8
10_OUTLINE
  5
4DDF
 10
4009.56
 20
8576.56
 30
0.000000
  70
    32
  0
VERTEX
  8
10_OUTLINE
  5
4DE0
 10
4011.99
 20
8574.48
 30
0.000000
  70
    32
  0
VERTEX
  8
10_OUTLINE
  5
4DE1
 10
4014.47
 20
8572.64
 30
0.000000
  70
    32
  0
VERTEX
  8
10_OUTLINE
  5
4DE2
 10
4016.99
 20
8571.03
 30
0.000000
  70
    32
  0
VERTEX
  8
10_OUTLINE
  5
4DE3
 10
4019.55
 20
8569.66
 30
0.000000
  70
    32
  0
VERTEX
  8
10_OUTLINE
  5
4DE4
 10
4022.14
 20
8568.53
 30
0.000000
  70
    32
  0
VERTEX
  8
10_OUTLINE
  5
4DE5
 10
4024.75
 20
8567.66
 30
0.000000
  70
    32
  0
VERTEX
  8
10_OUTLINE
  5
4DE6
 10
4027.39
 20
8567.03
 30
0.000000
  70
    32
  0
VERTEX
  8
10_OUTLINE
  5
4DE7
 10
4030.04
 20
8566.65
 30
0.000000
  70
    32
  0
VERTEX
  8
10_OUTLINE
  5
4DE8
 10
4032.69
 20
8566.53
 30
0.000000
  70
    32
  0
SEQEND
  8
10_OUTLINE
  5
4DE9
  0
POLYLINE
  5
403B
  8
10_OUTLINE
 62
     2
 10
3352.4819922251031
 20
8566.5257660676598
 30
0.0
 66
     1
 70
     8
  0
VERTEX
  8
10_OUTLINE
  5
4DEA
 10
3352.48
 20
8566.53
 30
0.000000
  70
    32
  0
VERTEX
  8
10_OUTLINE
  5
4DEB
 10
3349.83
 20
8566.65
 30
0.000000
  70
    32
  0
VERTEX
  8
10_OUTLINE
  5
4DEC
 10
3347.18
 20
8567.03
 30
0.000000
  70
    32
  0
VERTEX
  8
10_OUTLINE
  5
4DED
 10
3344.54
 20
8567.66
 30
0.000000
  70
    32
  0
VERTEX
  8
10_OUTLINE
  5
4DEE
 10
3341.93
 20
8568.53
 30
0.000000
  70
    32
  0
VERTEX
  8
10_OUTLINE
  5
4DEF
 10
3339.34
 20
8569.66
 30
0.000000
  70
    32
  0
VERTEX
  8
10_OUTLINE
  5
4DF0
 10
3336.78
 20
8571.03
 30
0.000000
  70
    32
  0
VERTEX
  8
10_OUTLINE
  5
4DF1
 10
3334.25
 20
8572.64
 30
0.000000
  70
    32
  0
VERTEX
  8
10_OUTLINE
  5
4DF2
 10
3331.78
 20
8574.48
 30
0.000000
  70
    32
  0
VERTEX
  8
10_OUTLINE
  5
4DF3
 10
3329.35
 20
8576.56
 30
0.000000
  70
    32
  0
VERTEX
  8
10_OUTLINE
  5
4DF4
 10
3326.98
 20
8578.87
 30
0.000000
  70
    32
  0
VERTEX
  8
10_OUTLINE
  5
4DF5
 10
3324.67
 20
8581.40
 30
0.000000
  70
    32
  0
VERTEX
  8
10_OUTLINE
  5
4DF6
 10
3322.42
 20
8584.15
 30
0.000000
  70
    32
  0
VERTEX
  8
10_OUTLINE
  5
4DF7
 10
3320.25
 20
8587.10
 30
0.000000
  70
    32
  0
VERTEX
  8
10_OUTLINE
  5
4DF8
 10
3318.16
 20
8590.26
 30
0.000000
  70
    32
  0
VERTEX
  8
10_OUTLINE
  5
4DF9
 10
3316.15
 20
8593.61
 30
0.000000
  70
    32
  0
VERTEX
  8
10_OUTLINE
  5
4DFA
 10
3314.22
 20
8597.15
 30
0.000000
  70
    32
  0
VERTEX
  8
10_OUTLINE
  5
4DFB
 10
3312.39
 20
8600.87
 30
0.000000
  70
    32
  0
VERTEX
  8
10_OUTLINE
  5
4DFC
 10
3310.66
 20
8604.75
 30
0.000000
  70
    32
  0
VERTEX
  8
10_OUTLINE
  5
4DFD
 10
3309.02
 20
8608.80
 30
0.000000
  70
    32
  0
VERTEX
  8
10_OUTLINE
  5
4DFE
 10
3307.49
 20
8612.99
 30
0.000000
  70
    32
  0
VERTEX
  8
10_OUTLINE
  5
4DFF
 10
3306.07
 20
8617.33
 30
0.000000
  70
    32
  0
VERTEX
  8
10_OUTLINE
  5
4E00
 10
3304.76
 20
8621.80
 30
0.000000
  70
    32
  0
VERTEX
  8
10_OUTLINE
  5
4E01
 10
3303.57
 20
8626.38
 30
0.000000
  70
    32
  0
VERTEX
  8
10_OUTLINE
  5
4E02
 10
3302.49
 20
8631.07
 30
0.000000
  70
    32
  0
VERTEX
  8
10_OUTLINE
  5
4E03
 10
3301.54
 20
8635.86
 30
0.000000
  70
    32
  0
VERTEX
  8
10_OUTLINE
  5
4E04
 10
3300.71
 20
8640.73
 30
0.000000
  70
    32
  0
VERTEX
  8
10_OUTLINE
  5
4E05
 10
3300.00
 20
8645.68
 30
0.000000
  70
    32
  0
VERTEX
  8
10_OUTLINE
  5
4E06
 10
3299.42
 20
8650.69
 30
0.000000
  70
    32
  0
VERTEX
  8
10_OUTLINE
  5
4E07
 10
3298.96
 20
8655.74
 30
0.000000
  70
    32
  0
VERTEX
  8
10_OUTLINE
  5
4E08
 10
3298.64
 20
8660.84
 30
0.000000
  70
    32
  0
VERTEX
  8
10_OUTLINE
  5
4E09
 10
3298.44
 20
8665.95
 30
0.000000
  70
    32
  0
VERTEX
  8
10_OUTLINE
  5
4E0A
 10
3298.38
 20
8671.08
 30
0.000000
  70
    32
  0
VERTEX
  8
10_OUTLINE
  5
4E0B
 10
3298.44
 20
8676.21
 30
0.000000
  70
    32
  0
VERTEX
  8
10_OUTLINE
  5
4E0C
 10
3298.64
 20
8681.33
 30
0.000000
  70
    32
  0
VERTEX
  8
10_OUTLINE
  5
4E0D
 10
3298.96
 20
8686.43
 30
0.000000
  70
    32
  0
VERTEX
  8
10_OUTLINE
  5
4E0E
 10
3299.42
 20
8691.48
 30
0.000000
  70
    32
  0
VERTEX
  8
10_OUTLINE
  5
4E0F
 10
3300.00
 20
8696.49
 30
0.000000
  70
    32
  0
VERTEX
  8
10_OUTLINE
  5
4E10
 10
3300.71
 20
8701.44
 30
0.000000
  70
    32
  0
VERTEX
  8
10_OUTLINE
  5
4E11
 10
3301.54
 20
8706.31
 30
0.000000
  70
    32
  0
VERTEX
  8
10_OUTLINE
  5
4E12
 10
3302.49
 20
8711.10
 30
0.000000
  70
    32
  0
VERTEX
  8
10_OUTLINE
  5
4E13
 10
3303.57
 20
8715.79
 30
0.000000
  70
    32
  0
VERTEX
  8
10_OUTLINE
  5
4E14
 10
3304.76
 20
8720.37
 30
0.000000
  70
    32
  0
VERTEX
  8
10_OUTLINE
  5
4E15
 10
3306.07
 20
8724.84
 30
0.000000
  70
    32
  0
VERTEX
  8
10_OUTLINE
  5
4E16
 10
3307.49
 20
8729.17
 30
0.000000
  70
    32
  0
VERTEX
  8
10_OUTLINE
  5
4E17
 10
3309.02
 20
8733.37
 30
0.000000
  70
    32
  0
VERTEX
  8
10_OUTLINE
  5
4E18
 10
3310.66
 20
8737.41
 30
0.000000
  70
    32
  0
VERTEX
  8
10_OUTLINE
  5
4E19
 10
3312.39
 20
8741.30
 30
0.000000
  70
    32
  0
VERTEX
  8
10_OUTLINE
  5
4E1A
 10
3314.22
 20
8745.02
 30
0.000000
  70
    32
  0
VERTEX
  8
10_OUTLINE
  5
4E1B
 10
3316.15
 20
8748.56
 30
0.000000
  70
    32
  0
VERTEX
  8
10_OUTLINE
  5
4E1C
 10
3318.16
 20
8751.91
 30
0.000000
  70
    32
  0
VERTEX
  8
10_OUTLINE
  5
4E1D
 10
3320.25
 20
8755.07
 30
0.000000
  70
    32
  0
VERTEX
  8
10_OUTLINE
  5
4E1E
 10
3322.42
 20
8758.02
 30
0.000000
  70
    32
  0
VERTEX
  8
10_OUTLINE
  5
4E1F
 10
3324.67
 20
8760.77
 30
0.000000
  70
    32
  0
VERTEX
  8
10_OUTLINE
  5
4E20
 10
3326.98
 20
8763.30
 30
0.000000
  70
    32
  0
VERTEX
  8
10_OUTLINE
  5
4E21
 10
3329.35
 20
8765.60
 30
0.000000
  70
    32
  0
VERTEX
  8
10_OUTLINE
  5
4E22
 10
3331.78
 20
8767.68
 30
0.000000
  70
    32
  0
VERTEX
  8
10_OUTLINE
  5
4E23
 10
3334.25
 20
8769.53
 30
0.000000
  70
    32
  0
VERTEX
  8
10_OUTLINE
  5
4E24
 10
3336.78
 20
8771.14
 30
0.000000
  70
    32
  0
VERTEX
  8
10_OUTLINE
  5
4E25
 10
3339.34
 20
8772.51
 30
0.000000
  70
    32
  0
VERTEX
  8
10_OUTLINE
  5
4E26
 10
3341.93
 20
8773.63
 30
0.000000
  70
    32
  0
VERTEX
  8
10_OUTLINE
  5
4E27
 10
3344.54
 20
8774.51
 30
0.000000
  70
    32
  0
VERTEX
  8
10_OUTLINE
  5
4E28
 10
3347.18
 20
8775.14
 30
0.000000
  70
    32
  0
VERTEX
  8
10_OUTLINE
  5
4E29
 10
3349.83
 20
8775.52
 30
0.000000
  70
    32
  0
VERTEX
  8
10_OUTLINE
  5
4E2A
 10
3352.48
 20
8775.64
 30
0.000000
  70
    32
  0
VERTEX
  8
10_OUTLINE
  5
4E2B
 10
3355.14
 20
8775.52
 30
0.000000
  70
    32
  0
VERTEX
  8
10_OUTLINE
  5
4E2C
 10
3357.79
 20
8775.14
 30
0.000000
  70
    32
  0
VERTEX
  8
10_OUTLINE
  5
4E2D
 10
3360.42
 20
8774.51
 30
0.000000
  70
    32
  0
VERTEX
  8
10_OUTLINE
  5
4E2E
 10
3363.04
 20
8773.63
 30
0.000000
  70
    32
  0
VERTEX
  8
10_OUTLINE
  5
4E2F
 10
3365.63
 20
8772.51
 30
0.000000
  70
    32
  0
VERTEX
  8
10_OUTLINE
  5
4E30
 10
3368.19
 20
8771.14
 30
0.000000
  70
    32
  0
VERTEX
  8
10_OUTLINE
  5
4E31
 10
3370.71
 20
8769.53
 30
0.000000
  70
    32
  0
VERTEX
  8
10_OUTLINE
  5
4E32
 10
3373.19
 20
8767.68
 30
0.000000
  70
    32
  0
VERTEX
  8
10_OUTLINE
  5
4E33
 10
3375.62
 20
8765.60
 30
0.000000
  70
    32
  0
VERTEX
  8
10_OUTLINE
  5
4E34
 10
3377.99
 20
8763.30
 30
0.000000
  70
    32
  0
VERTEX
  8
10_OUTLINE
  5
4E35
 10
3380.30
 20
8760.77
 30
0.000000
  70
    32
  0
VERTEX
  8
10_OUTLINE
  5
4E36
 10
3382.54
 20
8758.02
 30
0.000000
  70
    32
  0
VERTEX
  8
10_OUTLINE
  5
4E37
 10
3384.71
 20
8755.07
 30
0.000000
  70
    32
  0
VERTEX
  8
10_OUTLINE
  5
4E38
 10
3386.81
 20
8751.91
 30
0.000000
  70
    32
  0
VERTEX
  8
10_OUTLINE
  5
4E39
 10
3388.82
 20
8748.56
 30
0.000000
  70
    32
  0
VERTEX
  8
10_OUTLINE
  5
4E3A
 10
3390.74
 20
8745.02
 30
0.000000
  70
    32
  0
VERTEX
  8
10_OUTLINE
  5
4E3B
 10
3392.57
 20
8741.30
 30
0.000000
  70
    32
  0
VERTEX
  8
10_OUTLINE
  5
4E3C
 10
3394.31
 20
8737.41
 30
0.000000
  70
    32
  0
VERTEX
  8
10_OUTLINE
  5
4E3D
 10
3395.94
 20
8733.37
 30
0.000000
  70
    32
  0
VERTEX
  8
10_OUTLINE
  5
4E3E
 10
3397.47
 20
8729.17
 30
0.000000
  70
    32
  0
VERTEX
  8
10_OUTLINE
  5
4E3F
 10
3398.89
 20
8724.84
 30
0.000000
  70
    32
  0
VERTEX
  8
10_OUTLINE
  5
4E40
 10
3400.20
 20
8720.37
 30
0.000000
  70
    32
  0
VERTEX
  8
10_OUTLINE
  5
4E41
 10
3401.39
 20
8715.79
 30
0.000000
  70
    32
  0
VERTEX
  8
10_OUTLINE
  5
4E42
 10
3402.47
 20
8711.10
 30
0.000000
  70
    32
  0
VERTEX
  8
10_OUTLINE
  5
4E43
 10
3403.43
 20
8706.31
 30
0.000000
  70
    32
  0
VERTEX
  8
10_OUTLINE
  5
4E44
 10
3404.26
 20
8701.44
 30
0.000000
  70
    32
  0
VERTEX
  8
10_OUTLINE
  5
4E45
 10
3404.97
 20
8696.49
 30
0.000000
  70
    32
  0
VERTEX
  8
10_OUTLINE
  5
4E46
 10
3405.55
 20
8691.48
 30
0.000000
  70
    32
  0
VERTEX
  8
10_OUTLINE
  5
4E47
 10
3406.00
 20
8686.43
 30
0.000000
  70
    32
  0
VERTEX
  8
10_OUTLINE
  5
4E48
 10
3406.33
 20
8681.33
 30
0.000000
  70
    32
  0
VERTEX
  8
10_OUTLINE
  5
4E49
 10
3406.52
 20
8676.21
 30
0.000000
  70
    32
  0
VERTEX
  8
10_OUTLINE
  5
4E4A
 10
3406.59
 20
8671.08
 30
0.000000
  70
    32
  0
VERTEX
  8
10_OUTLINE
  5
4E4B
 10
3406.52
 20
8665.95
 30
0.000000
  70
    32
  0
VERTEX
  8
10_OUTLINE
  5
4E4C
 10
3406.33
 20
8660.84
 30
0.000000
  70
    32
  0
VERTEX
  8
10_OUTLINE
  5
4E4D
 10
3406.00
 20
8655.74
 30
0.000000
  70
    32
  0
VERTEX
  8
10_OUTLINE
  5
4E4E
 10
3405.55
 20
8650.69
 30
0.000000
  70
    32
  0
VERTEX
  8
10_OUTLINE
  5
4E4F
 10
3404.97
 20
8645.68
 30
0.000000
  70
    32
  0
VERTEX
  8
10_OUTLINE
  5
4E50
 10
3404.26
 20
8640.73
 30
0.000000
  70
    32
  0
VERTEX
  8
10_OUTLINE
  5
4E51
 10
3403.43
 20
8635.86
 30
0.000000
  70
    32
  0
VERTEX
  8
10_OUTLINE
  5
4E52
 10
3402.47
 20
8631.07
 30
0.000000
  70
    32
  0
VERTEX
  8
10_OUTLINE
  5
4E53
 10
3401.39
 20
8626.38
 30
0.000000
  70
    32
  0
VERTEX
  8
10_OUTLINE
  5
4E54
 10
3400.20
 20
8621.80
 30
0.000000
  70
    32
  0
VERTEX
  8
10_OUTLINE
  5
4E55
 10
3398.89
 20
8617.33
 30
0.000000
  70
    32
  0
VERTEX
  8
10_OUTLINE
  5
4E56
 10
3397.47
 20
8612.99
 30
0.000000
  70
    32
  0
VERTEX
  8
10_OUTLINE
  5
4E57
 10
3395.94
 20
8608.80
 30
0.000000
  70
    32
  0
VERTEX
  8
10_OUTLINE
  5
4E58
 10
3394.31
 20
8604.75
 30
0.000000
  70
    32
  0
VERTEX
  8
10_OUTLINE
  5
4E59
 10
3392.57
 20
8600.87
 30
0.000000
  70
    32
  0
VERTEX
  8
10_OUTLINE
  5
4E5A
 10
3390.74
 20
8597.15
 30
0.000000
  70
    32
  0
VERTEX
  8
10_OUTLINE
  5
4E5B
 10
3388.82
 20
8593.61
 30
0.000000
  70
    32
  0
VERTEX
  8
10_OUTLINE
  5
4E5C
 10
3386.81
 20
8590.26
 30
0.000000
  70
    32
  0
VERTEX
  8
10_OUTLINE
  5
4E5D
 10
3384.71
 20
8587.10
 30
0.000000
  70
    32
  0
VERTEX
  8
10_OUTLINE
  5
4E5E
 10
3382.54
 20
8584.15
 30
0.000000
  70
    32
  0
VERTEX
  8
10_OUTLINE
  5
4E5F
 10
3380.30
 20
8581.40
 30
0.000000
  70
    32
  0
VERTEX
  8
10_OUTLINE
  5
4E60
 10
3377.99
 20
8578.87
 30
0.000000
  70
    32
  0
VERTEX
  8
10_OUTLINE
  5
4E61
 10
3375.62
 20
8576.56
 30
0.000000
  70
    32
  0
VERTEX
  8
10_OUTLINE
  5
4E62
 10
3373.19
 20
8574.48
 30
0.000000
  70
    32
  0
VERTEX
  8
10_OUTLINE
  5
4E63
 10
3370.71
 20
8572.64
 30
0.000000
  70
    32
  0
VERTEX
  8
10_OUTLINE
  5
4E64
 10
3368.19
 20
8571.03
 30
0.000000
  70
    32
  0
VERTEX
  8
10_OUTLINE
  5
4E65
 10
3365.63
 20
8569.66
 30
0.000000
  70
    32
  0
VERTEX
  8
10_OUTLINE
  5
4E66
 10
3363.04
 20
8568.53
 30
0.000000
  70
    32
  0
VERTEX
  8
10_OUTLINE
  5
4E67
 10
3360.42
 20
8567.66
 30
0.000000
  70
    32
  0
VERTEX
  8
10_OUTLINE
  5
4E68
 10
3357.79
 20
8567.03
 30
0.000000
  70
    32
  0
VERTEX
  8
10_OUTLINE
  5
4E69
 10
3355.14
 20
8566.65
 30
0.000000
  70
    32
  0
VERTEX
  8
10_OUTLINE
  5
4E6A
 10
3352.48
 20
8566.53
 30
0.000000
  70
    32
  0
SEQEND
  8
10_OUTLINE
  5
4E6B
  0
LINE
  5
403C
  8
10_OUTLINE
 62
     2
 10
3436.7474962646361
 20
8972.1334551036853
 30
0.0
 11
3608.0878589486802
 21
8972.1334551036816
 31
0.0
  0
LINE
  5
403D
  8
10_OUTLINE
 62
     2
 10
3436.747496264637
 20
8370.0336551036835
 30
0.0
 11
3948.428221632726
 21
8370.0336551036798
 31
0.0
  0
LINE
  5
403E
  8
10_OUTLINE
 62
     2
 10
3797.3478589486799
 20
8570.5851488067183
 30
0.0
 11
3797.3478589486799
 21
8771.5835551036835
 31
0.0
  0
LINE
  5
403F
  8
10_OUTLINE
 62
     2
 10
3587.8278589486808
 20
8570.5851488067183
 30
0.0
 11
3587.8278589486808
 21
8771.5835551036835
 31
0.0
  0
LINE
  5
4040
  8
10_OUTLINE
 62
     2
 10
3278.3761255015238
 20
8571.0835551036835
 30
0.0
 11
3278.3761255015252
 21
8771.0835551036835
 31
0.0
  0
ARC
  5
4043
  8
10_OUTLINE
 62
     2
 10
3436.747496264637
 20
8375.0336551036835
 30
0.0
 40
5.0
 50
179.9999999999967
 51
270.0
  0
LINE
  5
4044
  8
10_OUTLINE
 62
     2
 10
3507.5878589486811
 20
8374.9336551036831
 30
0.0
 11
3507.5878589486811
 21
8380.133655103682
 31
0.0
  0
LINE
  5
4045
  8
10_OUTLINE
 62
     2
 10
3496.5878589486811
 20
8374.9336551036831
 30
0.0
 11
3496.5878589486811
 21
8380.133655103682
 31
0.0
  0
LINE
  5
4046
  8
10_OUTLINE
 62
     2
 10
3436.2474962646361
 20
8374.9336551036831
 30
0.0
 11
3436.2474962646361
 21
8380.133655103682
 31
0.0
  0
LINE
  5
4047
  8
10_OUTLINE
 62
     2
 10
3447.2474962646361
 20
8374.9336551036831
 30
0.0
 11
3447.2474962646361
 21
8380.133655103682
 31
0.0
  0
LINE
  5
4048
  8
10_OUTLINE
 62
     2
 10
3447.2474962646361
 20
8374.9336551036831
 30
0.0
 11
3436.2474962646361
 21
8374.9336551036831
 31
0.0
  0
LINE
  5
4049
  8
10_OUTLINE
 62
     2
 10
3496.5878589486811
 20
8374.9336551036831
 30
0.0
 11
3507.5878589486811
 21
8374.9336551036831
 31
0.0
  0
LINE
  5
404A
  8
10_OUTLINE
 62
     2
 10
3447.2474962646361
 20
8380.133655103682
 30
0.0
 11
3436.2474962646361
 21
8380.133655103682
 31
0.0
  0
LINE
  5
404B
  8
10_OUTLINE
 62
     2
 10
3496.5878589486811
 20
8380.133655103682
 30
0.0
 11
3507.5878589486811
 21
8380.133655103682
 31
0.0
  0
ARC
  5
404C
  8
10_OUTLINE
 62
     2
 10
3742.5878589486802
 20
8511.5835551036835
 30
0.0
 40
50.0
 50
270.0
 51
0.0
  0
ARC
  5
404D
  8
10_OUTLINE
 62
     2
 10
3642.587858948682
 20
8511.5835551036835
 30
0.0
 40
50.0
 50
180.0
 51
270.0
  0
LINE
  5
404E
  8
10_OUTLINE
 62
     2
 10
3642.587858948682
 20
8461.5835551036835
 30
0.0
 11
3742.5878589486802
 21
8461.5835551036835
 31
0.0
  0
LINE
  5
404F
  8
10_OUTLINE
 62
     2
 10
3617.5878589486802
 20
8374.9336551036831
 30
0.0
 11
3617.5878589486811
 21
8380.133655103682
 31
0.0
  0
LINE
  5
4050
  8
10_OUTLINE
 62
     2
 10
3606.5878589486811
 20
8374.9336551036831
 30
0.0
 11
3606.5878589486811
 21
8380.133655103682
 31
0.0
  0
LINE
  5
4051
  8
10_OUTLINE
 62
     2
 10
3606.5878589486811
 20
8374.9336551036831
 30
0.0
 11
3617.5878589486802
 21
8374.9336551036831
 31
0.0
  0
LINE
  5
4052
  8
10_OUTLINE
 62
     2
 10
3606.5878589486811
 20
8380.133655103682
 30
0.0
 11
3617.5878589486811
 21
8380.133655103682
 31
0.0
  0
LINE
  5
4053
  8
10_OUTLINE
 62
     2
 10
3587.7278589486809
 20
8445.5336551036817
 30
0.0
 11
3592.6878589486819
 21
8445.5336551036817
 31
0.0
  0
LINE
  5
4054
  8
10_OUTLINE
 62
     2
 10
3587.7278589486818
 20
8434.5336551036835
 30
0.0
 11
3592.687858948681
 21
8434.5336551036835
 31
0.0
  0
LINE
  5
4055
  8
10_OUTLINE
 62
     2
 10
3587.7278589486818
 20
8434.5336551036835
 30
0.0
 11
3587.7278589486809
 21
8445.5336551036817
 31
0.0
  0
LINE
  5
4056
  8
10_OUTLINE
 62
     2
 10
3592.687858948681
 20
8434.5336551036835
 30
0.0
 11
3592.6878589486819
 21
8445.5336551036817
 31
0.0
  0
LINE
  5
4057
  8
10_OUTLINE
 62
     2
 10
3758.5878589486802
 20
8374.9336551036831
 30
0.0
 11
3758.5878589486802
 21
8380.133655103682
 31
0.0
  0
LINE
  5
4058
  8
10_OUTLINE
 62
     2
 10
3747.5878589486802
 20
8374.9336551036831
 30
0.0
 11
3747.5878589486802
 21
8380.133655103682
 31
0.0
  0
LINE
  5
4059
  8
10_OUTLINE
 62
     2
 10
3747.5878589486802
 20
8374.9336551036831
 30
0.0
 11
3758.5878589486802
 21
8374.9336551036831
 31
0.0
  0
LINE
  5
405A
  8
10_OUTLINE
 62
     2
 10
3747.5878589486802
 20
8380.133655103682
 30
0.0
 11
3758.5878589486802
 21
8380.133655103682
 31
0.0
  0
LINE
  5
405B
  8
10_OUTLINE
 62
     2
 10
3792.4878589486812
 20
8434.5336551036835
 30
0.0
 11
3792.4878589486798
 21
8445.5336551036817
 31
0.0
  0
LINE
  5
405C
  8
10_OUTLINE
 62
     2
 10
3797.4478589486798
 20
8434.5336551036835
 30
0.0
 11
3797.4478589486812
 21
8445.5336551036817
 31
0.0
  0
LINE
  5
405D
  8
10_OUTLINE
 62
     2
 10
3797.4478589486798
 20
8434.5336551036835
 30
0.0
 11
3792.4878589486812
 21
8434.5336551036835
 31
0.0
  0
LINE
  5
405E
  8
10_OUTLINE
 62
     2
 10
3797.4478589486812
 20
8445.5336551036817
 30
0.0
 11
3792.4878589486798
 21
8445.5336551036817
 31
0.0
  0
LINE
  5
405F
  8
10_OUTLINE
 62
     2
 10
3592.5878589486811
 20
8570.5851488067183
 30
0.0
 11
3587.8278589486808
 21
8570.5851488067183
 31
0.0
  0
LINE
  5
4060
  8
10_OUTLINE
 62
     2
 10
3592.5878589486811
 20
8570.5851488067183
 30
0.0
 11
3592.5878589486811
 21
8511.5835551036835
 31
0.0
  0
LINE
  5
4061
  8
10_OUTLINE
 62
     2
 10
3792.5878589486802
 20
8570.5851488067183
 30
0.0
 11
3792.5878589486802
 21
8511.5835551036835
 31
0.0
  0
LINE
  5
4062
  8
10_OUTLINE
 62
     2
 10
3797.3478589486799
 20
8570.5851488067183
 30
0.0
 11
3792.5878589486811
 21
8570.5851488067183
 31
0.0
  0
ARC
  5
4063
  8
10_OUTLINE
 62
     2
 10
3436.7474962646361
 20
8967.1334551036834
 30
0.0
 40
5.0
 50
90.0
 51
180.0
  0
LINE
  5
4064
  8
10_OUTLINE
 62
     2
 10
3447.2474962646361
 20
8962.0334551036849
 30
0.0
 11
3436.2474962646361
 21
8962.0334551036849
 31
0.0
  0
LINE
  5
4065
  8
10_OUTLINE
 62
     2
 10
3447.2474962646361
 20
8967.2334551036838
 30
0.0
 11
3436.2474962646361
 21
8967.2334551036838
 31
0.0
  0
LINE
  5
4066
  8
10_OUTLINE
 62
     2
 10
3447.2474962646361
 20
8967.2334551036838
 30
0.0
 11
3447.2474962646361
 21
8962.0334551036849
 31
0.0
  0
LINE
  5
4067
  8
10_OUTLINE
 62
     2
 10
3436.2474962646361
 20
8967.2334551036838
 30
0.0
 11
3436.2474962646361
 21
8962.0334551036849
 31
0.0
  0
LINE
  5
4068
  8
10_OUTLINE
 62
     2
 10
3496.5878589486811
 20
8967.2334551036838
 30
0.0
 11
3507.5878589486811
 21
8967.2334551036838
 31
0.0
  0
LINE
  5
4069
  8
10_OUTLINE
 62
     2
 10
3496.5878589486811
 20
8967.2334551036838
 30
0.0
 11
3496.5878589486811
 21
8962.0334551036849
 31
0.0
  0
LINE
  5
406A
  8
10_OUTLINE
 62
     2
 10
3507.5878589486811
 20
8967.2334551036838
 30
0.0
 11
3507.5878589486811
 21
8962.0334551036849
 31
0.0
  0
LINE
  5
406B
  8
10_OUTLINE
 62
     2
 10
3496.5878589486811
 20
8962.0334551036849
 30
0.0
 11
3507.5878589486811
 21
8962.0334551036849
 31
0.0
  0
ARC
  5
406C
  8
10_OUTLINE
 62
     2
 10
3642.5878589486811
 20
8830.5835551036835
 30
0.0
 40
50.0
 50
90.0
 51
180.0
  0
ARC
  5
406D
  8
10_OUTLINE
 62
     2
 10
3742.5878589486811
 20
8830.5835551036835
 30
0.0
 40
50.0
 50
0.0
 51
90.0
  0
LINE
  5
406E
  8
10_OUTLINE
 62
     2
 10
3592.5878589486811
 20
8771.5835551036835
 30
0.0
 11
3587.8278589486808
 21
8771.5835551036835
 31
0.0
  0
LINE
  5
406F
  8
10_OUTLINE
 62
     2
 10
3592.5878589486811
 20
8830.5835551036835
 30
0.0
 11
3592.5878589486811
 21
8771.5835551036835
 31
0.0
  0
LINE
  5
4070
  8
10_OUTLINE
 62
     2
 10
3592.5878589486811
 20
8771.5835551036835
 30
0.0
 11
3592.5878589486811
 21
8830.5835551036835
 31
0.0
  0
LINE
  5
4071
  8
10_OUTLINE
 62
     2
 10
3792.5878589486811
 20
8830.5835551036835
 30
0.0
 11
3792.5878589486811
 21
8771.5835551036835
 31
0.0
  0
LINE
  5
4072
  8
10_OUTLINE
 62
     2
 10
3792.5878589486811
 20
8771.5835551036835
 30
0.0
 11
3792.5878589486802
 21
8830.5835551036835
 31
0.0
  0
LINE
  5
4073
  8
10_OUTLINE
 62
     2
 10
3792.5878589486811
 20
8771.5835551036835
 30
0.0
 11
3797.3478589486799
 21
8771.5835551036835
 31
0.0
  0
LINE
  5
4074
  8
10_OUTLINE
 62
     2
 10
3642.5878589486811
 20
8880.5835551036835
 30
0.0
 11
3742.5878589486811
 21
8880.5835551036835
 31
0.0
  0
LINE
  5
4075
  8
10_OUTLINE
 62
     2
 10
3587.7278589486818
 20
8907.6334551036853
 30
0.0
 11
3592.687858948681
 21
8907.6334551036853
 31
0.0
  0
LINE
  5
4076
  8
10_OUTLINE
 62
     2
 10
3587.7278589486809
 20
8896.6334551036853
 30
0.0
 11
3592.6878589486819
 21
8896.6334551036853
 31
0.0
  0
LINE
  5
4077
  8
10_OUTLINE
 62
     2
 10
3587.7278589486818
 20
8907.6334551036853
 30
0.0
 11
3587.7278589486809
 21
8896.6334551036853
 31
0.0
  0
LINE
  5
4078
  8
10_OUTLINE
 62
     2
 10
3592.687858948681
 20
8907.6334551036853
 30
0.0
 11
3592.6878589486819
 21
8896.6334551036853
 31
0.0
  0
LINE
  5
407D
  8
10_OUTLINE
 62
     2
 10
3797.4478589486798
 20
8907.6334551036853
 30
0.0
 11
3797.4478589486812
 21
8896.6334551036853
 31
0.0
  0
LINE
  5
407E
  8
10_OUTLINE
 62
     2
 10
3792.4878589486812
 20
8907.6334551036853
 30
0.0
 11
3792.4878589486798
 21
8896.6334551036853
 31
0.0
  0
LINE
  5
407F
  8
10_OUTLINE
 62
     2
 10
3797.4478589486812
 20
8896.6334551036853
 30
0.0
 11
3792.4878589486798
 21
8896.6334551036853
 31
0.0
  0
LINE
  5
4080
  8
10_OUTLINE
 62
     2
 10
3797.4478589486798
 20
8907.6334551036853
 30
0.0
 11
3792.4878589486812
 21
8907.6334551036853
 31
0.0
  0
LINE
  5
4085
  8
10_OUTLINE
 62
     2
 10
4106.799592395836
 20
8571.0835551036835
 30
0.0
 11
4106.799592395836
 21
8771.0835551036835
 31
0.0
  0
LINE
  5
4087
  8
10_OUTLINE
 62
     2
 10
3877.5878589486811
 20
8374.9336551036831
 30
0.0
 11
3877.5878589486811
 21
8380.133655103682
 31
0.0
  0
LINE
  5
4088
  8
10_OUTLINE
 62
     2
 10
3888.5878589486802
 20
8374.9336551036831
 30
0.0
 11
3888.5878589486811
 21
8380.133655103682
 31
0.0
  0
LINE
  5
4089
  8
10_OUTLINE
 62
     2
 10
3877.5878589486811
 20
8374.9336551036831
 30
0.0
 11
3888.5878589486802
 21
8374.9336551036831
 31
0.0
  0
LINE
  5
408A
  8
10_OUTLINE
 62
     2
 10
3877.5878589486811
 20
8380.133655103682
 30
0.0
 11
3888.5878589486811
 21
8380.133655103682
 31
0.0
  0
LINE
  5
408B
  8
10_OUTLINE
 62
     2
 10
3948.9282216327251
 20
8374.9336551036831
 30
0.0
 11
3948.9282216327251
 21
8380.133655103682
 31
0.0
  0
LINE
  5
408C
  8
10_OUTLINE
 62
     2
 10
3937.928221632726
 20
8374.9336551036831
 30
0.0
 11
3937.928221632726
 21
8380.133655103682
 31
0.0
  0
LINE
  5
408D
  8
10_OUTLINE
 62
     2
 10
3937.928221632726
 20
8374.9336551036831
 30
0.0
 11
3948.9282216327251
 21
8374.9336551036831
 31
0.0
  0
ARC
  5
408E
  8
10_OUTLINE
 62
     2
 10
3948.428221632726
 20
8375.0336551036835
 30
0.0
 40
5.0
 50
270.0
 51
0.0
  0
LINE
  5
408F
  8
10_OUTLINE
 62
     2
 10
3937.928221632726
 20
8380.133655103682
 30
0.0
 11
3948.9282216327251
 21
8380.133655103682
 31
0.0
  0
LINE
  5
4090
  8
10_OUTLINE
 62
     2
 10
3877.5878589486811
 20
8962.0334551036849
 30
0.0
 11
3888.5878589486811
 21
8962.0334551036849
 31
0.0
  0
LINE
  5
4091
  8
10_OUTLINE
 62
     2
 10
3888.5878589486802
 20
8967.2334551036838
 30
0.0
 11
3888.5878589486811
 21
8962.0334551036849
 31
0.0
  0
LINE
  5
4092
  8
10_OUTLINE
 62
     2
 10
3877.5878589486811
 20
8967.2334551036838
 30
0.0
 11
3877.5878589486811
 21
8962.0334551036849
 31
0.0
  0
LINE
  5
4093
  8
10_OUTLINE
 62
     2
 10
3877.5878589486811
 20
8967.2334551036838
 30
0.0
 11
3888.5878589486802
 21
8967.2334551036838
 31
0.0
  0
LINE
  5
4094
  8
10_OUTLINE
 62
     2
 10
3937.928221632726
 20
8967.2334551036838
 30
0.0
 11
3948.9282216327251
 21
8967.2334551036838
 31
0.0
  0
LINE
  5
4095
  8
10_OUTLINE
 62
     2
 10
3937.928221632726
 20
8962.0334551036849
 30
0.0
 11
3948.9282216327251
 21
8962.0334551036849
 31
0.0
  0
LINE
  5
4096
  8
10_OUTLINE
 62
     2
 10
3937.928221632726
 20
8967.2334551036838
 30
0.0
 11
3937.928221632726
 21
8962.0334551036849
 31
0.0
  0
LINE
  5
4097
  8
10_OUTLINE
 62
     2
 10
3953.4282216327251
 20
8953.1221350921169
 30
0.0
 11
3953.428221632726
 21
8967.1334551036834
 31
0.0
  0
ARC
  5
4098
  8
10_OUTLINE
 62
     2
 10
3948.428221632726
 20
8967.1334551036834
 30
0.0
 40
5.0
 50
0.0
 51
90.0
  0
LINE
  5
4099
  8
10_OUTLINE
 62
     2
 10
3948.9282216327251
 20
8967.2334551036838
 30
0.0
 11
3948.9282216327251
 21
8962.0334551036849
 31
0.0
  0
CIRCLE
  5
409C
  8
10_OUTLINE
 62
     2
 10
3550.6878589486791
 20
8922.4835551036849
 30
0.0
 40
15.0
  0
CIRCLE
  5
409E
  8
10_OUTLINE
 62
     2
 10
3550.6878589486791
 20
8419.6851488067186
 30
0.0
 40
15.0
  0
LINE
  5
40A3
  8
10_OUTLINE
 62
     2
 10
4106.799592395836
 20
8771.0835551036835
 30
0.0
 11
3982.8636615986838
 21
8882.9726544075584
 31
0.0
  0
LINE
  5
40A4
  8
10_OUTLINE
 62
     2
 10
3959.194848106612
 20
8929.8110075668446
 30
0.0
 11
3969.6246514247782
 21
8902.3390071004469
 31
0.0
  0
ARC
  5
40A5
  8
10_OUTLINE
 62
     2
 10
4003.4282216327251
 20
8953.1221350921151
 30
0.0
 40
50.0
 50
179.9999999999967
 51
207.7893721484094
  0
ARC
  5
40A7
  8
10_OUTLINE
 62
     2
 10
4003.4282216327251
 20
8389.0449751152519
 30
0.0
 40
50.0
 50
152.2106278515906
 51
180.00000000000321
  0
LINE
  5
40A8
  8
10_OUTLINE
 62
     2
 10
3953.4282216327251
 20
8389.0449751152501
 30
0.0
 11
3953.428221632726
 21
8375.0336551036835
 31
0.0
  0
ARC
  5
40A9
  8
10_OUTLINE
 62
     2
 10
3381.7474962646361
 20
8953.1221350921151
 30
0.0
 40
50.0
 50
332.21062785159069
 51
0.0000000000032569
  0
LINE
  5
40AA
  8
10_OUTLINE
 62
     2
 10
3431.747496264637
 20
8953.1221350921169
 30
0.0
 11
3431.7474962646361
 21
8967.1334551036834
 31
0.0
  0
ARC
  5
40AB
  8
10_OUTLINE
 62
     2
 10
3381.7474962646361
 20
8389.0449751152519
 30
0.0
 40
50.0
 50
359.99999999999682
 51
27.78937214840937
  0
LINE
  5
40AC
  8
10_OUTLINE
 62
     2
 10
3431.747496264637
 20
8389.0449751152501
 30
0.0
 11
3431.7474962646361
 21
8375.0336551036835
 31
0.0
  0
ARC
  5
40AD
  8
10_OUTLINE
 62
     2
 10
4016.3692278977728
 20
8920.085684827849
 30
0.0
 40
50.0
 50
200.78937214841361
 51
227.92434242418051
  0
LINE
  5
40AE
  8
10_OUTLINE
 62
     2
 10
3425.9808697907501
 20
8929.8110075668446
 30
0.0
 11
3415.551066472583
 21
8902.3390071004469
 31
0.0
  0
LINE
  5
40AF
  8
10_OUTLINE
 62
     2
 10
3278.3761255015252
 20
8771.0835551036835
 30
0.0
 11
3402.3120562986778
 21
8882.9726544075584
 31
0.0
  0
ARC
  5
40B0
  8
10_OUTLINE
 62
     2
 10
3368.8064899995879
 20
8920.085684827849
 30
0.0
 40
50.0
 50
312.07565757581938
 51
339.21062785158642
  0
LINE
  5
40B1
  8
10_OUTLINE
 62
     2
 10
4106.799592395836
 20
8571.0835551036835
 30
0.0
 11
3982.8636615986838
 21
8459.1944557998086
 31
0.0
  0
LINE
  5
40B2
  8
10_OUTLINE
 62
     2
 10
3959.194848106612
 20
8412.3561026405205
 30
0.0
 11
3969.6246514247782
 21
8439.8281031069218
 31
0.0
  0
ARC
  5
40B3
  8
10_OUTLINE
 62
     2
 10
4016.3692278977728
 20
8422.0814253795179
 30
0.0
 40
50.0
 50
132.07565757581949
 51
159.21062785158639
  0
LINE
  5
40B4
  8
10_OUTLINE
 62
     2
 10
3425.9808697907501
 20
8412.3561026405205
 30
0.0
 11
3415.551066472583
 21
8439.8281031069218
 31
0.0
  0
LINE
  5
40B5
  8
10_OUTLINE
 62
     2
 10
3278.3761255015252
 20
8571.0835551036835
 30
0.0
 11
3402.3120562986778
 21
8459.1944557998086
 31
0.0
  0
ARC
  5
40B6
  8
10_OUTLINE
 62
     2
 10
3368.8064899995879
 20
8422.0814253795179
 30
0.0
 40
50.0
 50
20.789372148413609
 51
47.924342424180523
  0
LINE
  5
413D
  8
0
 10
3911.087858948682
 20
8370.0336551036798
 30
0.0
 11
3911.087858948682
 21
8407.5569848058567
 31
0.0
  0
LINE
  5
413F
  8
0
 10
3958.5878589486811
 20
8411.2043274584794
 30
0.0
 11
3958.5878589486811
 21
8448.7276571606508
 31
0.0
  0
LINE
  5
4140
  8
0
 10
3474.0878589486802
 20
8370.0336551036835
 30
0.0
 11
3474.0878589486802
 21
8407.5569848058567
 31
0.0
  0
LINE
  5
4141
  8
0
 10
3426.5878589486811
 20
8411.2043274584794
 30
0.0
 11
3426.5878589486811
 21
8448.7276571606508
 31
0.0
  0
LINE
  5
4143
  8
0
 10
3958.5878589486811
 20
8893.4394530467143
 30
0.0
 11
3958.5878589486811
 21
8930.9627827488894
 31
0.0
  0
LINE
  5
4144
  8
0
 10
3911.0878589486829
 20
8934.6101254015121
 30
0.0
 11
3911.0878589486829
 21
8972.1334551036853
 31
0.0
  0
LINE
  5
4145
  8
0
 10
3474.0878589486802
 20
8934.6101254015121
 30
0.0
 11
3474.0878589486802
 21
8972.1334551036853
 31
0.0
  0
LINE
  5
4146
  8
0
 10
3426.5878589486811
 20
8893.4394530467143
 30
0.0
 11
3426.5878589486811
 21
8930.9627827488894
 31
0.0
  0
DIMENSION
  5
4147
  8
50_DIMENSIONS
 62
   255
  2
*D1
 10
3210.561912925346
 20
9019.1334551036853
 30
0.0
 11
3210.561912925345
 21
8694.5835551036835
 31
0.0
 70
     0
 13
3436.747496264637
 23
8370.0336551036835
 33
0.0
 14
3632.0878589486802
 24
9019.1334551036853
 34
0.0
 50
90.0
1001
ACAD
1000
DSTYLE
1002
{
1070
     3
1000
<>
1070
     4
1000
"
1070
   143
1040
0.03937
1070
   170
1070
     1
1070
   171
1070
     1
1002
}
  0
DIMENSION
  5
4155
  8
50_DIMENSIONS
 62
   255
  2
*D2
 10
4106.799592395836
 20
9067.7320828703614
 30
0.0
 11
3692.587858948682
 21
9067.7320828703614
 31
0.0
 70
     0
 13
3278.3761255015252
 23
8771.0835551036835
 33
0.0
 14
4106.799592395836
 24
8771.0835551036835
 34
0.0
1001
ACAD
1000
DSTYLE
1002
{
1070
     3
1000
<>
1070
     4
1000
"
1070
   143
1040
0.03937
1070
   170
1070
     1
1070
   171
1070
     1
1002
}
  0
INSERT
  5
4164
  8
50_DIMENSIONS
  2
*U3
 10
0.0
 20
0.0
 30
0.0
  0
INSERT
  5
4165
  8
50_DIMENSIONS
  2
*U4
 10
0.0
 20
0.0
 30
0.0
1001
ACAD
1000
DSTYLE
1002
{
1070
   341
1005
0
1070
   147
1040
0.5
1070
    77
1070
     0
1002
}
  0
INSERT
  5
4166
  8
50_DIMENSIONS
  2
*U5
 10
0.0
 20
0.0
 30
0.0
  0
CIRCLE
  5
41AB
  8
10_OUTLINE
 62
     2
 10
3692.5878589486811
 20
8923.5350488067197
 30
0.0
 40
8.0
  0
LINE
  5
41AC
  8
01_FRAME
 62
     7
 10
3500.2449977927099
 20
8446.7539257687295
 30
0.0
 11
3510.4644145280872
 21
8464.4544747781201
 31
0.0
  0
LINE
  5
41AD
  8
01_FRAME
 62
     7
 10
3500.2449977927099
 20
8446.7539257687295
 30
0.0
 11
3520.6838312634632
 21
8446.7539257687295
 31
0.0
  0
LINE
  5
41AE
  8
01_FRAME
 62
     7
 10
3520.6838312634632
 20
8446.7539257687295
 30
0.0
 11
3510.4644145280872
 21
8464.4544747781201
 31
0.0
  0
TEXT
  5
41AF
  8
62_TEXT
 10
4333.1085705967453
 20
8306.8053722203313
 30
0.0
 40
10.0
  1
26-09-07
  7
MECHTRONICS
  0
TEXT
  5
41B0
  8
01_FRAME
 62
     7
 10
4402.9315634094082
 20
8306.5695265379672
 30
0.0
 40
10.0
  1
C
  7
MECHTRONICS
  0
TEXT
  5
41B1
  8
01_FRAME
 62
     7
 10
4114.7014104644068
 20
8306.8053722203313
 30
0.0
 40
10.0
  1
Revised holes - part now handed
  7
MECHTRONICS
  0
TEXT
  5
41B2
  8
01_FRAME
 62
     7
 10
3506.2623471546199
 20
8449.0335454516735
 30
0.0
 40
8.0
  1
C
  7
MECHTRONICS
  0
CIRCLE
  5
4405
  8
10_OUTLINE
 62
     2
 10
3511.4878589486689
 20
8419.6851488067186
 30
0.0
 40
15.0
  0
CIRCLE
  5
4406
  8
10_OUTLINE
 62
     2
 10
3531.0878589486738
 20
8434.5100219031592
 30
0.0
 40
3.5
  0
CIRCLE
  5
4407
  8
10_OUTLINE
 62
     2
 10
3497.0878589486738
 20
8390.1352488067187
 30
0.0
 40
3.5
  0
CIRCLE
  5
4408
  8
10_OUTLINE
 62
     2
 10
3565.0878589486738
 20
8390.1352488067187
 30
0.0
 40
3.5
  0
CIRCLE
  5
440C
  8
10_OUTLINE
 62
     2
 10
3765.5878589486811
 20
8888.1334551036853
 30
0.0
 40
3.25
  0
CIRCLE
  5
440E
  8
10_OUTLINE
 62
     2
 10
3550.6878589486791
 20
8771.0843519552018
 30
0.0
 40
15.0
  0
CIRCLE
  5
440F
  8
10_OUTLINE
 62
     2
 10
3834.487858948683
 20
8671.0843519552018
 30
0.0
 40
15.0
  0
TEXT
  5
4421
  8
62_TEXT
 10
4333.1085705967453
 20
8289.2440161625746
 30
0.0
 40
10.0
  1
08-06-08
  7
MECHTRONICS
  0
TEXT
  5
4422
  8
01_FRAME
 62
     7
 10
4402.9315634094082
 20
8289.0081704802124
 30
0.0
 40
10.0
  1
D
  7
MECHTRONICS
  0
TEXT
  5
4423
  8
01_FRAME
 62
     7
 10
4068.26718915024
 20
8289.2440161625746
 30
0.0
 40
10.0
  1
Added bent lip for mounting switch station
  7
MECHTRONICS
  0
LINE
  5
4424
  8
01_FRAME
 62
     7
 10
3518.4795558250748
 20
8791.6960936876167
 30
0.0
 11
3528.6989725604521
 21
8809.3966426970073
 31
0.0
  0
LINE
  5
4425
  8
01_FRAME
 62
     7
 10
3518.4795558250748
 20
8791.6960936876167
 30
0.0
 11
3538.9183892958281
 21
8791.6960936876167
 31
0.0
  0
LINE
  5
4426
  8
01_FRAME
 62
     7
 10
3538.9183892958281
 20
8791.6960936876167
 30
0.0
 11
3528.6989725604521
 21
8809.3966426970073
 31
0.0
  0
TEXT
  5
4427
  8
01_FRAME
 62
     7
 10
3524.4969051869839
 20
8793.9757133705625
 30
0.0
 40
8.0
  1
C
  7
MECHTRONICS
  0
LINE
  5
4428
  8
01_FRAME
 62
     7
 10
3830.6312606632532
 20
8695.3241023385217
 30
0.0
 11
3840.8506773986301
 21
8713.0246513479142
 31
0.0
  0
LINE
  5
4429
  8
01_FRAME
 62
     7
 10
3830.6312606632532
 20
8695.3241023385217
 30
0.0
 11
3851.070094134006
 21
8695.3241023385217
 31
0.0
  0
LINE
  5
442A
  8
01_FRAME
 62
     7
 10
3851.070094134006
 20
8695.3241023385217
 30
0.0
 11
3840.8506773986301
 21
8713.0246513479142
 31
0.0
  0
TEXT
  5
442B
  8
01_FRAME
 62
     7
 10
3836.6486100251632
 20
8697.6037220214694
 30
0.0
 40
8.0
  1
C
  7
MECHTRONICS
  0
LINE
  5
442C
  8
01_FRAME
 62
     7
 10
3747.305320566501
 20
8899.0430492055038
 30
0.0
 11
3757.5247373018778
 21
8916.7435982148945
 31
0.0
  0
LINE
  5
442D
  8
01_FRAME
 62
     7
 10
3747.305320566501
 20
8899.0430492055038
 30
0.0
 11
3767.7441540372538
 21
8899.0430492055038
 31
0.0
  0
LINE
  5
442E
  8
01_FRAME
 62
     7
 10
3767.7441540372538
 20
8899.0430492055038
 30
0.0
 11
3757.5247373018778
 21
8916.7435982148945
 31
0.0
  0
TEXT
  5
442F
  8
01_FRAME
 62
     7
 10
3753.322669928411
 20
8901.3226688884497
 30
0.0
 40
8.0
  1
C
  7
MECHTRONICS
  0
LINE
  5
4450
  8
01_FRAME
 62
     7
 10
3680.97676833062
 20
8406.2727303963711
 30
0.0
 11
3691.1961850659959
 21
8423.9732794057636
 31
0.0
  0
LINE
  5
4451
  8
01_FRAME
 62
     7
 10
3680.97676833062
 20
8406.2727303963711
 30
0.0
 11
3701.4156018013732
 21
8406.2727303963711
 31
0.0
  0
LINE
  5
4452
  8
01_FRAME
 62
     7
 10
3701.4156018013732
 20
8406.2727303963711
 30
0.0
 11
3691.1961850659959
 21
8423.9732794057636
 31
0.0
  0
TEXT
  5
4453
  8
01_FRAME
 62
     7
 10
3686.994117692529
 20
8408.5523500793206
 30
0.0
 40
8.0
  1
C
  7
MECHTRONICS
  0
LINE
  5
4454
  8
01_FRAME
 62
     7
 10
3656.319114734627
 20
8926.9161282842306
 30
0.0
 11
3666.5385314700029
 21
8944.6166772936231
 31
0.0
  0
LINE
  5
4455
  8
01_FRAME
 62
     7
 10
3656.319114734627
 20
8926.9161282842306
 30
0.0
 11
3676.7579482053802
 21
8926.9161282842306
 31
0.0
  0
LINE
  5
4456
  8
01_FRAME
 62
     7
 10
3676.7579482053802
 20
8926.9161282842306
 30
0.0
 11
3666.5385314700029
 21
8944.6166772936231
 31
0.0
  0
TEXT
  5
4457
  8
01_FRAME
 62
     7
 10
3662.3364640965369
 20
8929.1957479671764
 30
0.0
 40
8.0
  1
C
  7
MECHTRONICS
  0
LINE
  5
4526
  8
10_OUTLINE
 62
     2
 10
3778.5878589486802
 20
8967.2334551036838
 30
0.0
 11
3767.5878589486811
 21
8967.2334551036838
 31
0.0
  0
LINE
  5
4527
  8
10_OUTLINE
 62
     2
 10
3778.5878589486802
 20
8962.0334551036849
 30
0.0
 11
3767.5878589486802
 21
8962.0334551036849
 31
0.0
  0
LINE
  5
4528
  8
10_OUTLINE
 62
     2
 10
3778.5878589486802
 20
8967.2334551036838
 30
0.0
 11
3778.5878589486802
 21
8962.0334551036849
 31
0.0
  0
LINE
  5
4529
  8
10_OUTLINE
 62
     2
 10
3767.5878589486811
 20
8967.2334551036838
 30
0.0
 11
3767.5878589486802
 21
8962.0334551036849
 31
0.0
  0
LINE
  5
452A
  8
10_OUTLINE
 62
     2
 10
3637.5878589486802
 20
8967.2334551036838
 30
0.0
 11
3626.5878589486811
 21
8967.2334551036838
 31
0.0
  0
LINE
  5
452B
  8
10_OUTLINE
 62
     2
 10
3637.5878589486802
 20
8967.2334551036838
 30
0.0
 11
3637.5878589486802
 21
8962.0334551036849
 31
0.0
  0
LINE
  5
452C
  8
10_OUTLINE
 62
     2
 10
3626.5878589486811
 20
8967.2334551036838
 30
0.0
 11
3626.5878589486802
 21
8962.0334551036849
 31
0.0
  0
LINE
  5
452D
  8
10_OUTLINE
 62
     2
 10
3637.5878589486802
 20
8962.0334551036849
 30
0.0
 11
3626.5878589486802
 21
8962.0334551036849
 31
0.0
  0
TEXT
  5
4C14
  8
01_FRAME
 62
     8
 10
4046.6434635580649
 20
8308.0871301772186
 30
0.0
 40
7.0
  1
1:5
  7
MECHTRONICS
  0
LINE
  5
4C15
  8
01_FRAME
 62
     7
 10
4032.8121594386848
 20
8197.0596682392552
 30
0.0
 11
4038.7325691275
 21
8197.0596682392552
 31
0.0
  0
LINE
  5
4C16
  8
01_FRAME
 62
     7
 10
4036.784563339671
 20
8222.3517590064948
 30
0.0
 11
4032.8121594386848
 21
8197.0596682392552
 31
0.0
  0
LINE
  5
4C17
  8
01_FRAME
 62
     7
 10
4027.9039487235641
 20
8204.971848515228
 30
0.0
 11
4036.784563339671
 21
8222.3517590064948
 31
0.0
  0
LINE
  5
4C18
  8
01_FRAME
 62
     7
 10
4043.1060330680029
 20
8227.5753343262732
 30
0.0
 11
4033.862554740816
 21
8227.5753343262732
 31
0.0
  0
LINE
  5
4C19
  8
01_FRAME
 62
     7
 10
3952.0492435953311
 20
8209.5083895768748
 30
0.0
 11
3964.6606736961749
 21
8209.5083895768748
 31
0.0
  0
LINE
  5
4C1A
  8
01_FRAME
 62
     7
 10
3963.5071892377532
 20
8204.3572700266104
 30
0.0
 11
3953.279626995542
 21
8204.3572700266104
 31
0.0
  0
LINE
  5
4C1B
  8
01_FRAME
 62
     7
 10
3950.5881632039668
 20
8200.4362684665575
 30
0.0
 11
3960.9229157825248
 21
8200.4362684665575
 31
0.0
  0
LINE
  5
4C1C
  8
01_FRAME
 62
     7
 10
3961.5006827898219
 20
8220.8100999070921
 30
0.0
 11
3954.0486165792322
 21
8220.8100999070921
 31
0.0
  0
LINE
  5
4C1D
  8
01_FRAME
 62
     7
 10
3952.565236277218
 20
8212.814311502505
 30
0.0
 11
3960.0214789760962
 21
8212.814311502505
 31
0.0
  0
LINE
  5
4C1E
  8
01_FRAME
 62
     7
 10
3959.1066025835298
 20
8216.9442822416913
 30
0.0
 11
3954.3492452095688
 21
8216.9442822416913
 31
0.0
  0
LINE
  5
4C1F
  8
01_FRAME
 62
     7
 10
3916.6571432167862
 20
8197.0596682392552
 30
0.0
 11
3920.2666832409118
 21
8222.4669849095062
 31
0.0
  0
LINE
  5
4C20
  8
01_FRAME
 62
     7
 10
3924.7356375880759
 20
8227.5753343262732
 30
0.0
 11
3915.3584726915692
 21
8227.5753343262732
 31
0.0
  0
LINE
  5
4C21
  8
01_FRAME
 62
     7
 10
3915.3584726915692
 20
8227.5753343262732
 30
0.0
 11
3911.0423029950598
 21
8197.0596682392552
 31
0.0
  0
LINE
  5
4C22
  8
01_FRAME
 62
     7
 10
3911.0423029950598
 20
8197.0596682392552
 30
0.0
 11
3916.6571432167862
 21
8197.0596682392552
 31
0.0
  0
LINE
  5
4C23
  8
01_FRAME
 62
     7
 10
3937.7987351655938
 20
8222.3517590064948
 30
0.0
 11
3933.8263312646109
 21
8197.0596682392552
 31
0.0
  0
LINE
  5
4C24
  8
01_FRAME
 62
     7
 10
3939.7467409534238
 20
8197.0596682392552
 30
0.0
 11
3944.120204893929
 21
8227.5753343262732
 31
0.0
  0
LINE
  5
4C25
  8
01_FRAME
 62
     7
 10
3933.8263312646109
 20
8197.0596682392552
 30
0.0
 11
3939.7467409534238
 21
8197.0596682392552
 31
0.0
  0
LINE
  5
4C26
  8
01_FRAME
 62
     7
 10
3944.120204893929
 20
8227.5753343262732
 30
0.0
 11
3934.8767265667389
 21
8227.5753343262732
 31
0.0
  0
LINE
  5
4C27
  8
01_FRAME
 62
     7
 10
3928.918120549486
 20
8204.971848515228
 30
0.0
 11
3937.7987351655938
 21
8222.3517590064948
 31
0.0
  0
LINE
  5
4C28
  8
01_FRAME
 62
     7
 10
3920.2666832409118
 20
8222.4669849095062
 30
0.0
 11
3923.8189290210471
 21
8204.971848515228
 31
0.0
  0
LINE
  5
4C29
  8
01_FRAME
 62
     7
 10
3927.5048615362762
 20
8212.9992546942121
 30
0.0
 11
3924.7356375880759
 21
8227.5753343262732
 31
0.0
  0
LINE
  5
4C2A
  8
01_FRAME
 62
     7
 10
3934.8767265667389
 20
8227.5753343262732
 30
0.0
 11
3927.5048615362762
 21
8212.9992546942121
 31
0.0
  0
LINE
  5
4C2B
  8
01_FRAME
 62
     7
 10
3923.8189290210471
 20
8204.971848515228
 30
0.0
 11
3928.918120549486
 21
8204.971848515228
 31
0.0
  0
LINE
  5
4C2C
  8
01_FRAME
 62
     7
 10
3947.8198006363759
 20
8216.2740394348202
 30
0.0
 11
3946.2049223614349
 21
8205.6642705466256
 31
0.0
  0
LINE
  5
4C2D
  8
01_FRAME
 62
     7
 10
3951.554209173139
 20
8205.5489684831227
 30
0.0
 11
3952.0492435953311
 21
8209.5083895768748
 31
0.0
  0
LINE
  5
4C2E
  8
01_FRAME
 62
     7
 10
3952.885442915152
 20
8215.4951696696317
 30
0.0
 11
3952.565236277218
 21
8212.814311502505
 31
0.0
  0
LINE
  5
4C2F
  8
01_FRAME
 62
     7
 10
3994.8053350638238
 20
8216.2627378758443
 30
0.0
 11
4002.0346048004312
 21
8216.2627378758443
 31
0.0
  0
LINE
  5
4C30
  8
01_FRAME
 62
     7
 10
3983.9361389249948
 20
8202.1276808067068
 30
0.0
 11
3984.166835750369
 21
8204.1266227687483
 31
0.0
  0
LINE
  5
4C31
  8
01_FRAME
 62
     7
 10
3990.6642971752431
 20
8228.8700165730588
 30
0.0
 11
3987.108151476159
 21
8200.3466523905299
 31
0.0
  0
LINE
  5
4C32
  8
01_FRAME
 62
     7
 10
3992.5593484461078
 20
8200.3466523905299
 30
0.0
 11
3994.8053350638238
 21
8216.2627378758443
 31
0.0
  0
LINE
  5
4C33
  8
01_FRAME
 62
     7
 10
3963.2764922466022
 20
8202.1276808067087
 30
0.0
 11
3963.5071892377532
 21
8204.3572700266104
 31
0.0
  0
LINE
  5
4C34
  8
01_FRAME
 62
     7
 10
3976.7845351833139
 20
8200.4362684665575
 30
0.0
 11
3981.5825624609301
 21
8200.4362684665575
 31
0.0
  0
LINE
  5
4C35
  8
01_FRAME
 62
     7
 10
3972.7857890497348
 20
8200.4362684665575
 30
0.0
 11
3976.7845351833139
 21
8200.4362684665575
 31
0.0
  0
LINE
  5
4C36
  8
01_FRAME
 62
     7
 10
3987.108151476159
 20
8200.3466523905299
 30
0.0
 11
3992.5593484461078
 21
8200.3466523905299
 31
0.0
  0
LINE
  5
4C37
  8
01_FRAME
 62
     7
 10
3987.108151476159
 20
8200.3466523905299
 30
0.0
 11
3987.108151476159
 21
8200.3466523905299
 31
0.0
  0
LINE
  5
4C38
  8
01_FRAME
 62
     7
 10
3983.8593583239308
 20
8220.8100999070921
 30
0.0
 11
3976.2462424250011
 21
8220.8100999070921
 31
0.0
  0
LINE
  5
4C39
  8
01_FRAME
 62
     7
 10
3976.5538383579428
 20
8216.9659808768429
 30
0.0
 11
3986.248040952848
 21
8216.9659808768429
 31
0.0
  0
LINE
  5
4C3A
  8
01_FRAME
 62
     7
 10
3984.20422268739
 20
8204.3572700266104
 30
0.0
 11
3976.7845351833139
 21
8204.3572700266104
 31
0.0
  0
LINE
  5
4C3B
  8
01_FRAME
 62
     7
 10
3964.6606736961749
 20
8209.5083895768748
 30
0.0
 11
3965.7412245581681
 21
8216.7619523395606
 31
0.0
  0
LINE
  5
4C3C
  8
01_FRAME
 62
     7
 10
3964.6606736961749
 20
8209.5083895768748
 30
0.0
 11
3964.6606736961749
 21
8209.5083895768748
 31
0.0
  0
LINE
  5
4C3D
  8
01_FRAME
 62
     7
 10
3960.0214789760962
 20
8212.814311502505
 30
0.0
 11
3960.4343321918418
 21
8215.8147242185023
 31
0.0
  0
LINE
  5
4C3E
  8
01_FRAME
 62
     7
 10
3970.0174264821489
 20
8216.2740394348202
 30
0.0
 11
3968.787043081933
 21
8207.9707419647748
 31
0.0
  0
LINE
  5
4C3F
  8
01_FRAME
 62
     7
 10
3973.7491651339501
 20
8205.5489684831227
 30
0.0
 11
3975.0927579665781
 21
8215.5052154629939
 31
0.0
  0
LINE
  5
4C40
  8
01_FRAME
 62
     7
 10
3968.787043081933
 20
8207.9707419647748
 30
0.0
 11
3968.4025482072011
 21
8205.6642705466256
 31
0.0
  0
LINE
  5
4C41
  8
01_FRAME
 62
     7
 10
3976.7845351833139
 20
8204.3572700266104
 30
0.0
 11
3975.4745829563549
 21
8204.3572700266104
 31
0.0
  0
LINE
  5
4C42
  8
01_FRAME
 62
     7
 10
3986.248040952848
 20
8216.9659808768429
 30
0.0
 11
3986.4634906117049
 21
8218.2951315636892
 31
0.0
  0
LINE
  5
4C43
  8
01_FRAME
 62
     7
 10
3984.166835750369
 20
8204.1266227687483
 30
0.0
 11
3984.20422268739
 21
8204.3572700266104
 31
0.0
  0
LINE
  5
4C44
  8
01_FRAME
 62
     7
 10
3995.2717149704658
 20
8218.6576470399941
 30
0.0
 11
3996.4898250271108
 21
8228.8700165730588
 31
0.0
  0
LINE
  5
4C45
  8
01_FRAME
 62
     7
 10
3996.4898250271108
 20
8228.8700165730588
 30
0.0
 11
3990.6642971752431
 21
8228.8700165730588
 31
0.0
  0
LINE
  5
4C46
  8
01_FRAME
 62
     7
 10
4005.7077288379478
 20
8200.3466523905299
 30
0.0
 11
4007.7416203694461
 21
8216.4356744737142
 31
0.0
  0
LINE
  5
4C47
  8
01_FRAME
 62
     7
 10
4002.0346048004312
 20
8216.2627378758443
 30
0.0
 11
4000.022575025353
 21
8200.3466523905299
 31
0.0
  0
LINE
  5
4C48
  8
01_FRAME
 62
     7
 10
4015.6429713908592
 20
8197.0596682392552
 30
0.0
 11
4019.2525114149862
 21
8222.4669849095062
 31
0.0
  0
LINE
  5
4C49
  8
01_FRAME
 62
     7
 10
4014.3443008656432
 20
8227.5753343262732
 30
0.0
 11
4010.0281311691342
 21
8197.0596682392552
 31
0.0
  0
LINE
  5
4C4A
  8
01_FRAME
 62
     7
 10
4000.022575025353
 20
8200.3466523905299
 30
0.0
 11
4005.7077288379478
 21
8200.3466523905299
 31
0.0
  0
LINE
  5
4C4B
  8
01_FRAME
 62
     7
 10
4010.0281311691342
 20
8197.0596682392552
 30
0.0
 11
4015.6429713908592
 21
8197.0596682392552
 31
0.0
  0
LINE
  5
4C4C
  8
01_FRAME
 62
     7
 10
4023.7214657621489
 20
8227.5753343262732
 30
0.0
 11
4014.3443008656432
 21
8227.5753343262732
 31
0.0
  0
LINE
  5
4C4D
  8
01_FRAME
 62
     7
 10
4019.2525114149862
 20
8222.4669849095062
 30
0.0
 11
4022.8047571951201
 21
8204.971848515228
 31
0.0
  0
LINE
  5
4C4E
  8
01_FRAME
 62
     7
 10
4026.4906897103529
 20
8212.9992546942121
 30
0.0
 11
4023.7214657621489
 21
8227.5753343262732
 31
0.0
  0
LINE
  5
4C4F
  8
01_FRAME
 62
     7
 10
4033.862554740816
 20
8227.5753343262732
 30
0.0
 11
4026.4906897103529
 21
8212.9992546942121
 31
0.0
  0
LINE
  5
4C50
  8
01_FRAME
 62
     7
 10
4022.8047571951201
 20
8204.971848515228
 30
0.0
 11
4027.9039487235641
 21
8204.971848515228
 31
0.0
  0
LINE
  5
4C51
  8
01_FRAME
 62
     7
 10
4077.5397609802021
 20
8226.7958740611375
 30
0.0
 11
4072.3569272746372
 21
8226.2057418922013
 31
0.0
  0
LINE
  5
4C52
  8
01_FRAME
 62
     7
 10
4074.5794137326338
 20
8205.5379165852682
 30
0.0
 11
4076.2324786381978
 21
8217.1855760710714
 31
0.0
  0
LINE
  5
4C53
  8
01_FRAME
 62
     7
 10
4073.6179137884128
 20
8200.4252165687049
 30
0.0
 11
4078.9542338071828
 21
8200.4252165687049
 31
0.0
  0
LINE
  5
4C54
  8
01_FRAME
 62
     7
 10
4062.4592642556649
 20
8200.5059431503996
 30
0.0
 11
4062.2586615292871
 21
8202.7789511752653
 31
0.0
  0
ARC
  5
4C55
  8
01_FRAME
 62
     7
 10
4067.2393024916742
 20
8203.2185141443515
 30
0.0
 40
5.0
 50
171.34562025558941
 51
185.04353146784311
  0
LINE
  5
4C56
  8
01_FRAME
 62
     7
 10
4038.7325691275
 20
8197.0596682392552
 30
0.0
 11
4043.1060330680029
 21
8227.5753343262732
 31
0.0
  0
LINE
  5
4C57
  8
01_FRAME
 62
     7
 10
4049.2326424547141
 20
8200.4290606205941
 30
0.0
 11
4054.154176221341
 21
8200.4290606205941
 31
0.0
  0
LINE
  5
4C58
  8
01_FRAME
 62
     7
 10
4057.1532357800829
 20
8200.5059431503996
 30
0.0
 11
4062.4592642556649
 21
8200.5059431503996
 31
0.0
  0
LINE
  5
4C59
  8
01_FRAME
 62
     7
 10
4073.6179137884128
 20
8200.4252165687049
 30
0.0
 11
4074.0024086631488
 21
8200.4252165687049
 31
0.0
  0
LINE
  5
4C5A
  8
01_FRAME
 62
     7
 10
4058.0760234131299
 20
8212.7302420147189
 30
0.0
 11
4050.693722846077
 21
8212.7302420147189
 31
0.0
  0
LINE
  5
4C5B
  8
01_FRAME
 62
     7
 10
4046.771875654289
 20
8216.9587730308813
 30
0.0
 11
4057.161861499937
 21
8216.9587730308813
 31
0.0
  0
LINE
  5
4C5C
  8
01_FRAME
 62
     7
 10
4060.0131825646572
 20
8220.8797745909324
 30
0.0
 11
4049.3864405040758
 21
8220.8797745909324
 31
0.0
  0
LINE
  5
4C5D
  8
01_FRAME
 62
     7
 10
4047.0025726454378
 20
8219.1883622507812
 30
0.0
 11
4046.771875654289
 21
8216.9587730308813
 31
0.0
  0
LINE
  5
4C5E
  8
01_FRAME
 62
     7
 10
4051.1548195890709
 20
8203.7219426429328
 30
0.0
 11
4054.8600690121179
 21
8203.6494870391925
 31
0.0
  0
LINE
  5
4C5F
  8
01_FRAME
 62
     7
 10
4056.0998622573379
 20
8209.1802663935778
 30
0.0
 11
4052.1611836872062
 21
8209.1802663935778
 31
0.0
  0
LINE
  5
4C60
  8
01_FRAME
 62
     7
 10
4067.9002497151341
 20
8220.9528129030714
 30
0.0
 11
4067.2352997962012
 21
8217.1855760710714
 31
0.0
  0
LINE
  5
4C61
  8
01_FRAME
 62
     7
 10
4062.2962324371651
 20
8203.9708826951355
 30
0.0
 11
4064.2537243330021
 21
8216.8316270234081
 31
0.0
  0
LINE
  5
4C62
  8
01_FRAME
 62
     7
 10
4056.8499253648852
 20
8205.5816370247485
 30
0.0
 11
4057.2965513625991
 21
8208.0507083703887
 31
0.0
  0
LINE
  5
4C63
  8
01_FRAME
 62
     7
 10
4058.4605181220859
 20
8215.4980077828113
 30
0.0
 11
4058.0760234131299
 21
8212.7302420147189
 31
0.0
  0
LINE
  5
4C64
  8
01_FRAME
 62
     7
 10
4058.4895911082499
 20
8215.8292150076923
 30
0.0
 11
4058.4605181220859
 21
8215.4980077828113
 31
0.0
  0
LINE
  5
4C65
  8
01_FRAME
 62
     7
 10
4071.0033491044078
 20
8217.1855760710714
 30
0.0
 11
4069.2346729458809
 21
8205.6532186487748
 31
0.0
  0
LINE
  5
4C66
  8
01_FRAME
 62
     7
 10
4067.2352997962012
 20
8217.1855760710714
 30
0.0
 11
4071.0033491044078
 21
8217.1855760710714
 31
0.0
  0
LINE
  5
4C67
  8
01_FRAME
 62
     7
 10
4072.3569272746372
 20
8226.2057418922013
 30
0.0
 11
4071.5416418627251
 21
8220.9528129030714
 31
0.0
  0
LINE
  5
4C68
  8
01_FRAME
 62
     7
 10
4071.5416418627251
 20
8220.9528129030714
 30
0.0
 11
4067.9002497151341
 21
8220.9528129030714
 31
0.0
  0
LINE
  5
4C69
  8
01_FRAME
 62
     7
 10
4081.3078102712539
 20
8202.1166289088596
 30
0.0
 11
4081.5385071137839
 21
8204.3462181287578
 31
0.0
  0
LINE
  5
4C6A
  8
01_FRAME
 62
     7
 10
4083.1533853887258
 20
8217.1855760710714
 30
0.0
 11
4083.6147792052529
 21
8220.9528129030714
 31
0.0
  0
LINE
  5
4C6B
  8
01_FRAME
 62
     7
 10
4081.5385071137839
 20
8204.3462181287578
 30
0.0
 11
4076.304831555045
 21
8204.3462181287578
 31
0.0
  0
LINE
  5
4C6C
  8
01_FRAME
 62
     7
 10
4076.2324786381978
 20
8217.1855760710714
 30
0.0
 11
4083.1533853887258
 21
8217.1855760710714
 31
0.0
  0
LINE
  5
4C6D
  8
01_FRAME
 62
     7
 10
4076.693872454724
 20
8220.9528129030714
 30
0.0
 11
4077.5397609802021
 21
8226.7958740611375
 31
0.0
  0
LINE
  5
4C6E
  8
01_FRAME
 62
     7
 10
4083.6147792052529
 20
8220.9528129030714
 30
0.0
 11
4076.693872454724
 21
8220.9528129030714
 31
0.0
  0
ARC
  5
4C6F
  8
01_FRAME
 62
     7
 10
3954.648664958986
 20
8215.2417623004549
 30
0.0
 40
1.781338617617434
 50
129.9788673075636
 51
171.8215466207503
  0
ARC
  5
4C70
  8
01_FRAME
 62
     7
 10
3954.391843519797
 20
8215.6108416591178
 30
0.0
 40
1.3341208353415459
 50
91.829758024394408
 51
131.71149876918849
  0
ARC
  5
4C71
  8
01_FRAME
 62
     7
 10
3976.8532581073609
 20
8215.2634609356082
 30
0.0
 40
1.781338617617434
 50
129.9788673075636
 51
171.8215466207503
  0
ARC
  5
4C72
  8
01_FRAME
 62
     7
 10
3976.5964366681728
 20
8215.6325402942693
 30
0.0
 40
1.3341208353415459
 50
91.829758024394408
 51
131.71149876918849
  0
ARC
  5
4C73
  8
01_FRAME
 62
     7
 10
3959.1721228350561
 20
8215.576076772626
 30
0.0
 40
1.369773378678961
 50
41.694258406644231
 51
92.74167022804761
  0
ARC
  5
4C74
  8
01_FRAME
 62
     7
 10
3959.4865483544281
 20
8215.8561631759385
 30
0.0
 40
0.9486893009083605
 50
357.49651121804101
 51
41.694258406700641
  0
ARC
  5
4C75
  8
01_FRAME
 62
     7
 10
4057.2273817514629
 20
8215.590567561816
 30
0.0
 40
1.369773378678961
 50
41.694258406644231
 51
92.74167022804761
  0
ARC
  5
4C76
  8
01_FRAME
 62
     7
 10
4057.5418072708339
 20
8215.8706539651284
 30
0.0
 40
0.9486893009083605
 50
357.49651121804101
 51
41.694258406700641
  0
ARC
  5
4C77
  8
01_FRAME
 62
     7
 10
3953.268746470223
 20
8206.849018011817
 30
0.0
 40
2.4917717406737361
 50
242.05494587007581
 51
270.25018750738548
  0
ARC
  5
4C78
  8
01_FRAME
 62
     7
 10
3952.5833238134669
 20
8205.5569377851643
 30
0.0
 40
1.029145496378342
 50
180.443680643525
 51
242.05494587007581
  0
ARC
  5
4C79
  8
01_FRAME
 62
     7
 10
3975.4637024310359
 20
8206.849018011817
 30
0.0
 40
2.4917717406737361
 50
242.05494587007581
 51
270.25018750738548
  0
ARC
  5
4C7A
  8
01_FRAME
 62
     7
 10
3974.7782797742798
 20
8205.5569377851643
 30
0.0
 40
1.029145496378342
 50
180.443680643525
 51
242.05494587007581
  0
ARC
  5
4C7B
  8
01_FRAME
 62
     7
 10
3952.6898666300949
 20
8215.5004092299314
 30
0.0
 40
4.9311303447668831
 50
116.4343118930844
 51
170.97374799137921
  0
ARC
  5
4C7C
  8
01_FRAME
 62
     7
 10
3954.3199388927801
 20
8212.2215816622047
 30
0.0
 40
8.5928028861702188
 50
91.809445418565659
 51
116.4343118930844
  0
ARC
  5
4C7D
  8
01_FRAME
 62
     7
 10
3974.8874924758638
 20
8215.5004092299314
 30
0.0
 40
4.9311303447668831
 50
116.4343118930844
 51
170.97374799137921
  0
ARC
  5
4C7E
  8
01_FRAME
 62
     7
 10
3976.5175647385508
 20
8212.2215816622047
 30
0.0
 40
8.5928028861702188
 50
91.809445418565659
 51
116.4343118930844
  0
ARC
  5
4C7F
  8
01_FRAME
 62
     7
 10
3961.0044062344191
 20
8215.3004890595694
 30
0.0
 40
5.5319166760333651
 50
44.532575507611682
 51
84.852989749614622
  0
ARC
  5
4C80
  8
01_FRAME
 62
     7
 10
3962.9054700998499
 20
8217.1707851245628
 30
0.0
 40
2.8650737501787318
 50
351.79615361502022
 51
44.532575507611682
  0
ARC
  5
4C81
  8
01_FRAME
 62
     7
 10
3950.663970227662
 20
8204.8789182049022
 30
0.0
 40
4.4432964567391231
 50
213.37814014438339
 51
269.02243001409971
  0
ARC
  5
4C82
  8
01_FRAME
 62
     7
 10
3950.9383835169861
 20
8205.0597102528627
 30
0.0
 40
4.7719123692622603
 50
172.72155707448329
 51
213.37814014438339
  0
ARC
  5
4C83
  8
01_FRAME
 62
     7
 10
3960.9077700852499
 20
8203.2186315042964
 30
0.0
 40
2.782404259976599
 50
269.68811547988628
 51
309.85159843337652
  0
ARC
  5
4C84
  8
01_FRAME
 62
     7
 10
3961.613678899756
 20
8202.3729232619517
 30
0.0
 40
1.6808010257913211
 50
309.85159843337652
 51
351.61013221801932
  0
ARC
  5
4C85
  8
01_FRAME
 62
     7
 10
3972.8615960734301
 20
8204.8789182049022
 30
0.0
 40
4.4432964567391231
 50
213.37814014438339
 51
269.02243001409971
  0
ARC
  5
4C86
  8
01_FRAME
 62
     7
 10
3973.1360093627541
 20
8205.0597102528645
 30
0.0
 40
4.7719123692622603
 50
172.72155707448329
 51
213.37814014438339
  0
ARC
  5
4C87
  8
01_FRAME
 62
     7
 10
3981.5674167636448
 20
8203.2186315042964
 30
0.0
 40
2.782404259976599
 50
269.68811547988628
 51
309.85159843337652
  0
ARC
  5
4C88
  8
01_FRAME
 62
     7
 10
3982.27332557815
 20
8202.3729232619517
 30
0.0
 40
1.6808010257913211
 50
309.85159843337652
 51
351.61013221801932
  0
ARC
  5
4C89
  8
01_FRAME
 62
     7
 10
3983.9353866216929
 20
8218.2024564036947
 30
0.0
 40
2.6087516062040859
 50
29.017138568440359
 51
91.670039206039846
  0
ARC
  5
4C8A
  8
01_FRAME
 62
     7
 10
3984.4378337380608
 20
8218.4811638941555
 30
0.0
 40
2.034181358120112
 50
354.75278767927051
 51
29.017138568440359
  0
LINE
  5
4C8B
  8
01_FRAME
 62
     7
 10
4091.2361491973311
 20
8209.5083895768748
 30
0.0
 11
4103.8475792981753
 21
8209.5083895768748
 31
0.0
  0
LINE
  5
4C8C
  8
01_FRAME
 62
     7
 10
4102.6940948397514
 20
8204.3572700266104
 30
0.0
 11
4092.466532597542
 21
8204.3572700266104
 31
0.0
  0
LINE
  5
4C8D
  8
01_FRAME
 62
     7
 10
4089.7750688059682
 20
8200.4362684665575
 30
0.0
 11
4100.1098213845253
 21
8200.4362684665575
 31
0.0
  0
LINE
  5
4C8E
  8
01_FRAME
 62
     7
 10
4100.6875883918219
 20
8220.8100999070921
 30
0.0
 11
4093.2355221812322
 21
8220.8100999070921
 31
0.0
  0
LINE
  5
4C8F
  8
01_FRAME
 62
     7
 10
4091.752141879218
 20
8212.814311502505
 30
0.0
 11
4099.2083845780944
 21
8212.814311502505
 31
0.0
  0
LINE
  5
4C90
  8
01_FRAME
 62
     7
 10
4098.2935081855303
 20
8216.9442822416913
 30
0.0
 11
4093.536150811567
 21
8216.9442822416913
 31
0.0
  0
LINE
  5
4C91
  8
01_FRAME
 62
     7
 10
4087.006706238376
 20
8216.2740394348202
 30
0.0
 11
4085.391827963434
 21
8205.6642705466256
 31
0.0
  0
LINE
  5
4C92
  8
01_FRAME
 62
     7
 10
4090.7411147751368
 20
8205.5489684831227
 30
0.0
 11
4091.2361491973311
 21
8209.5083895768748
 31
0.0
  0
LINE
  5
4C93
  8
01_FRAME
 62
     7
 10
4092.072348517152
 20
8215.4951696696317
 30
0.0
 11
4091.752141879218
 21
8212.814311502505
 31
0.0
  0
LINE
  5
4C94
  8
01_FRAME
 62
     7
 10
4102.4633978486008
 20
8202.1276808067087
 30
0.0
 11
4102.6940948397514
 21
8204.3572700266104
 31
0.0
  0
LINE
  5
4C95
  8
01_FRAME
 62
     7
 10
4103.8475792981753
 20
8209.5083895768748
 30
0.0
 11
4104.9281301601677
 21
8216.7619523395606
 31
0.0
  0
LINE
  5
4C96
  8
01_FRAME
 62
     7
 10
4103.8475792981753
 20
8209.5083895768748
 30
0.0
 11
4103.8475792981753
 21
8209.5083895768748
 31
0.0
  0
LINE
  5
4C97
  8
01_FRAME
 62
     7
 10
4099.2083845780944
 20
8212.814311502505
 30
0.0
 11
4099.6212377938427
 21
8215.8147242185023
 31
0.0
  0
ARC
  5
4C98
  8
01_FRAME
 62
     7
 10
4093.8355705609861
 20
8215.2417623004549
 30
0.0
 40
1.781338617617434
 50
129.9788673075636
 51
171.8215466207503
  0
ARC
  5
4C99
  8
01_FRAME
 62
     7
 10
4093.578749121798
 20
8215.6108416591178
 30
0.0
 40
1.3341208353415459
 50
91.829758024394408
 51
131.71149876918849
  0
ARC
  5
4C9A
  8
01_FRAME
 62
     7
 10
4098.3590284370557
 20
8215.576076772626
 30
0.0
 40
1.369773378678961
 50
41.694258406644231
 51
92.74167022804761
  0
ARC
  5
4C9B
  8
01_FRAME
 62
     7
 10
4098.6734539564268
 20
8215.8561631759385
 30
0.0
 40
0.9486893009083605
 50
357.49651121804101
 51
41.694258406700641
  0
ARC
  5
4C9C
  8
01_FRAME
 62
     7
 10
4092.4556520722231
 20
8206.849018011817
 30
0.0
 40
2.4917717406737361
 50
242.05494587007581
 51
270.25018750738548
  0
ARC
  5
4C9D
  8
01_FRAME
 62
     7
 10
4091.7702294154678
 20
8205.5569377851643
 30
0.0
 40
1.029145496378342
 50
180.443680643525
 51
242.05494587007581
  0
ARC
  5
4C9E
  8
01_FRAME
 62
     7
 10
4091.8767722320958
 20
8215.5004092299314
 30
0.0
 40
4.9311303447668831
 50
116.4343118930844
 51
170.97374799137921
  0
ARC
  5
4C9F
  8
01_FRAME
 62
     7
 10
4093.506844494781
 20
8212.2215816622047
 30
0.0
 40
8.5928028861702188
 50
91.809445418565659
 51
116.4343118930844
  0
ARC
  5
4CA0
  8
01_FRAME
 62
     7
 10
4100.1913118364173
 20
8215.3004890595694
 30
0.0
 40
5.5319166760333651
 50
44.532575507611682
 51
84.852989749614622
  0
ARC
  5
4CA1
  8
01_FRAME
 62
     7
 10
4102.0923757018491
 20
8217.1707851245628
 30
0.0
 40
2.8650737501787318
 50
351.79615361502022
 51
44.532575507611682
  0
ARC
  5
4CA2
  8
01_FRAME
 62
     7
 10
4089.850875829663
 20
8204.8789182049022
 30
0.0
 40
4.4432964567391231
 50
213.37814014438339
 51
269.02243001409971
  0
ARC
  5
4CA3
  8
01_FRAME
 62
     7
 10
4090.1252891189861
 20
8205.0597102528627
 30
0.0
 40
4.7719123692622603
 50
172.72155707448329
 51
213.37814014438339
  0
ARC
  5
4CA4
  8
01_FRAME
 62
     7
 10
4100.0946756872509
 20
8203.2186315042964
 30
0.0
 40
2.782404259976599
 50
269.68811547988628
 51
309.85159843337652
  0
ARC
  5
4CA5
  8
01_FRAME
 62
     7
 10
4100.800584501756
 20
8202.3729232619517
 30
0.0
 40
1.6808010257913211
 50
309.85159843337652
 51
351.61013221801932
  0
LINE
  5
4CA6
  8
01_FRAME
 62
     7
 10
4001.1205930053952
 20
8220.8100999070921
 30
0.0
 11
4004.3095645873818
 21
8220.8100999070921
 31
0.0
  0
ARC
  5
4CA7
  8
01_FRAME
 62
     7
 10
4003.379977271974
 20
8216.7282603802305
 30
0.0
 40
4.3714456444540639
 50
356.16225827570622
 51
57.03056887230111
  0
ARC
  5
4CA8
  8
01_FRAME
 62
     7
 10
4004.3571446258829
 20
8218.2347251496758
 30
0.0
 40
2.5758142404291888
 50
57.03056887230111
 51
91.058418890025422
  0
ARC
  5
4CA9
  8
01_FRAME
 62
     7
 10
4001.5066448281782
 20
8209.3757129076039
 30
0.0
 40
11.440902152536321
 50
91.933705877925519
 51
118.128409595517
  0
ARC
  5
4CAA
  8
01_FRAME
 62
     7
 10
3997.1280032691029
 20
8217.5664026267696
 30
0.0
 40
2.1532813603997258
 50
118.128409595517
 51
149.55027737962561
  0
ARC
  5
4CAB
  8
01_FRAME
 62
     7
 10
4078.9390881099021
 20
8203.2075796064473
 30
0.0
 40
2.782404259976599
 50
269.68811547988628
 51
309.85159843337652
  0
ARC
  5
4CAC
  8
01_FRAME
 62
     7
 10
4079.644996924409
 20
8202.3618713641026
 30
0.0
 40
1.6808010257913211
 50
309.85159843337652
 51
351.61013221801932
  0
ARC
  5
4CAD
  8
01_FRAME
 62
     7
 10
4073.6937208121089
 20
8204.8678663070514
 30
0.0
 40
4.4432964567391231
 50
213.37814014438339
 51
269.02243001409971
  0
ARC
  5
4CAE
  8
01_FRAME
 62
     7
 10
4073.968134101433
 20
8205.0486583550137
 30
0.0
 40
4.7719123692622603
 50
172.72155707448329
 51
213.37814014438339
  0
ARC
  5
4CAF
  8
01_FRAME
 62
     7
 10
4076.2939510297201
 20
8206.8379661139643
 30
0.0
 40
2.4917717406737361
 50
242.05494587007581
 51
270.25018750738548
  0
ARC
  5
4CB0
  8
01_FRAME
 62
     7
 10
4075.608528372964
 20
8205.5458858873135
 30
0.0
 40
1.029145496378342
 50
180.443680643525
 51
242.05494587007581
  0
ARC
  5
4CB1
  8
01_FRAME
 62
     7
 10
4059.5169060092521
 20
8215.3701637434133
 30
0.0
 40
5.5319166760333651
 50
44.532575507611682
 51
84.852989749614622
  0
ARC
  5
4CB2
  8
01_FRAME
 62
     7
 10
4061.4179698746848
 20
8217.2404598084067
 30
0.0
 40
2.8650737501787318
 50
351.79615361502022
 51
44.532575507611682
  0
ARC
  5
4CB3
  8
01_FRAME
 62
     7
 10
4049.3798020336781
 20
8218.1180254793635
 30
0.0
 40
2.761757090070398
 50
89.862277278542265
 51
130.98420927747119
  0
ARC
  5
4CB4
  8
01_FRAME
 62
     7
 10
4048.6897693057872
 20
8218.9122593077791
 30
0.0
 40
1.7096389694392231
 50
130.98420927747119
 51
170.7061550554026
  0
ARC
  5
4CB5
  8
01_FRAME
 62
     7
 10
4061.8755768947872
 20
8202.9773962371
 30
0.0
 40
5.3299705405753901
 50
189.2518512240284
 51
207.6254624334249
  0
ARC
  5
4CB6
  8
01_FRAME
 62
     7
 10
4053.5168444189362
 20
8203.9920292487222
 30
0.0
 40
3.6195216909689001
 50
280.14161684225621
 51
328.86389698780192
  0
ARC
  5
4CB7
  8
01_FRAME
 62
     7
 10
4050.8276450053891
 20
8206.3969714465402
 30
0.0
 40
6.3346863564448332
 50
91.211385343645077
 51
150.30133372256219
  0
ARC
  5
4CB8
  8
01_FRAME
 62
     7
 10
4053.4225575414748
 20
8204.9169395226127
 30
0.0
 40
9.322003809576028
 50
150.30133372256219
 51
172.8407731250602
  0
ARC
  5
4CB9
  8
01_FRAME
 62
     7
 10
4049.9596191401029
 20
8205.3519069603153
 30
0.0
 40
5.83185495264172
 50
172.8407731250602
 51
205.63064895958459
  0
ARC
  5
4CBA
  8
01_FRAME
 62
     7
 10
4047.5639887302332
 20
8204.2025371266755
 30
0.0
 40
3.174770822402039
 50
205.63064895958459
 51
237.5110165227853
  0
ARC
  5
4CBB
  8
01_FRAME
 62
     7
 10
4049.6638792511621
 20
8207.5001039873441
 30
0.0
 40
7.084180931417106
 50
237.5110165227853
 51
266.51006466087091
  0
ARC
  5
4CBC
  8
01_FRAME
 62
     7
 10
4056.0343420058121
 20
8207.8120609245107
 30
0.0
 40
1.369773378678961
 50
41.694258406644231
 51
92.74167022804761
  0
ARC
  5
4CBD
  8
01_FRAME
 62
     7
 10
4056.3487675251831
 20
8208.0921473278231
 30
0.0
 40
0.9486893009083605
 50
357.49651121804101
 51
41.694258406700641
  0
ARC
  5
4CBE
  8
01_FRAME
 62
     7
 10
4054.4764269136008
 20
8205.9527686280871
 30
0.0
 40
2.335013348462692
 50
279.45655767728113
 51
324.92940398283599
  0
ARC
  5
4CBF
  8
01_FRAME
 62
     7
 10
4053.7480358478788
 20
8206.4641321966628
 30
0.0
 40
3.2249831478877469
 50
324.92940398283599
 51
344.1188173872149
  0
ARC
  5
4CC0
  8
01_FRAME
 62
     7
 10
4052.1320087593849
 20
8206.5873715827183
 30
0.0
 40
2.5930589419808752
 50
89.355342266111649
 51
126.25017530155149
  0
ARC
  5
4CC1
  8
01_FRAME
 62
     7
 10
4051.7095202756041
 20
8207.193523734577
 30
0.0
 40
1.8544939344785201
 50
126.79741703495969
 51
163.58374767656801
  0
ARC
  5
4CC2
  8
01_FRAME
 62
     7
 10
4031.5480138791809
 20
8212.4408240879184
 30
0.0
 40
18.979700613649189
 50
343.74206189479008
 51
345.5902269862396
  0
ARC
  5
4CC3
  8
01_FRAME
 62
     7
 10
4055.1364672184968
 20
8205.6676661100555
 30
0.0
 40
5.5626301394637343
 50
164.78824619775011
 51
186.8201458581305
  0
ARC
  5
4CC4
  8
01_FRAME
 62
     7
 10
4050.9056727737661
 20
8205.1240580036647
 30
0.0
 40
1.2977557747008901
 50
185.17129579631441
 51
236.50138254922541
  0
ARC
  5
4CC5
  8
01_FRAME
 62
     7
 10
4051.2623212234189
 20
8205.6629232842351
 30
0.0
 40
1.943955362475676
 50
236.50138254922541
 51
266.82989961253048
  0
LINE
  5
4CDF
  8
10_OUTLINE
 62
     2
 10
3632.0878589486802
 20
9019.1334551036853
 30
0.0
 11
3753.0878589486802
 21
9019.1334551036816
 31
0.0
  0
LINE
  5
4CE1
  8
10_OUTLINE
 62
     2
 10
3765.0878589486802
 20
8984.1334551036853
 30
0.0
 11
3765.0878589486802
 21
9007.1334551036834
 31
0.0
  0
LINE
  5
4CE2
  8
10_OUTLINE
 62
     2
 10
3620.0878589486802
 20
8984.1334551036816
 30
0.0
 11
3620.0878589486811
 21
9007.1334551036853
 31
0.0
  0
ARC
  5
4CE3
  8
10_OUTLINE
 62
     2
 10
3632.0878589486802
 20
9007.1334551036853
 30
0.0
 40
12.0
 50
90.0
 51
180.0
  0
ARC
  5
4CE6
  8
10_OUTLINE
 62
     2
 10
3753.0878589486802
 20
9007.1334551036834
 30
0.0
 40
12.0
 50
0.0
 51
90.0
  0
LINE
  5
4CE7
  8
10_OUTLINE
 62
     2
 10
3777.0878589486802
 20
8972.1334551036871
 30
0.0
 11
3948.428221632726
 21
8972.1334551036853
 31
0.0
  0
ARC
  5
4CE8
  8
10_OUTLINE
 62
     2
 10
3608.0878589486802
 20
8984.1334551036816
 30
0.0
 40
12.0
 50
269.99999999999937
 51
0.0
  0
ARC
  5
4CE9
  8
10_OUTLINE
 62
     2
 10
3777.0878589486802
 20
8984.1334551036853
 30
0.0
 40
12.0
 50
180.00000000000151
 51
270.0
  0
LINE
  5
4CEA
  8
0
 10
3620.0878589486802
 20
8984.1334551036853
 30
0.0
 11
3641.9839555723979
 21
8984.1334551036853
 31
0.0
  0
LINE
  5
4CEB
  8
0
 10
3765.0878589486802
 20
8984.1334551036853
 30
0.0
 11
3743.1917623249619
 21
8984.1334551036853
 31
0.0
  0
LINE
  5
4D32
  8
01_FRAME
 62
     7
 10
3678.7454693785949
 20
9025.7032436061327
 30
0.0
 11
3688.9648861139708
 21
9043.4037926155233
 31
0.0
  0
LINE
  5
4D33
  8
01_FRAME
 62
     7
 10
3678.7454693785949
 20
9025.7032436061327
 30
0.0
 11
3699.1843028493472
 21
9025.7032436061327
 31
0.0
  0
LINE
  5
4D34
  8
01_FRAME
 62
     7
 10
3699.1843028493472
 20
9025.7032436061327
 30
0.0
 11
3688.9648861139708
 21
9043.4037926155233
 31
0.0
  0
TEXT
  5
4D35
  8
01_FRAME
 62
     7
 10
3684.7628187405039
 20
9027.9828632890785
 30
0.0
 40
8.0
  1
D
  7
MECHTRONICS
  0
ENDSEC
  0
EOF
