  0
SECTION
  2
HEADER
  9
$ACADVER
  1
AC1009
  9
$INSBASE
 10
0.0
 20
0.0
 30
0.0
  9
$EXTMIN
 10
853.16581107057823
 20
2481.3208983874588
 30
0.0
  9
$EXTMAX
 10
1392.431663217279
 20
2868.093705334169
 30
0.0
  9
$LIMMIN
 10
0.0
 20
0.0
  9
$LIMMAX
 10
0.0
 20
0.0
  9
$ORTHOMODE
 70
     0
  9
$REGENMODE
 70
     1
  9
$FILLMODE
 70
     1
  9
$QTEXTMODE
 70
     0
  9
$MIRRTEXT
 70
     1
  9
$DRAGMODE
 70
     2
  9
$LTSCALE
 40
20.0
  9
$OSMODE
 70
    47
  9
$ATTMODE
 70
     1
  9
$TEXTSIZE
 40
4.0
  9
$TRACEWID
 40
0.05
  9
$TEXTSTYLE
  7
MECHTRONICS
  9
$CLAYER
  8
62_TEXT0
  9
$CELTYPE
  6
BYLAYER
  9
$CECOLOR
 62
   256
  9
$DIMSCALE
 40
2.0
  9
$DIMASZ
 40
2.0
  9
$DIMEXO
 40
1.0
  9
$DIMDLI
 40
6.0
  9
$DIMRND
 40
0.0
  9
$DIMDLE
 40
0.0
  9
$DIMEXE
 40
0.5
  9
$DIMTP
 40
0.0
  9
$DIMTM
 40
0.0
  9
$DIMTXT
 40
2.0
  9
$DIMCEN
 40
0.09
  9
$DIMTSZ
 40
0.0
  9
$DIMTOL
 70
     0
  9
$DIMLIM
 70
     0
  9
$DIMTIH
 70
     0
  9
$DIMTOH
 70
     1
  9
$DIMSE1
 70
     0
  9
$DIMSE2
 70
     0
  9
$DIMTAD
 70
     0
  9
$DIMZIN
 70
     0
  9
$DIMBLK
  1

  9
$DIMASO
 70
     1
  9
$DIMSHO
 70
     1
  9
$DIMPOST
  1

  9
$DIMAPOST
  1

  9
$DIMALT
 70
     0
  9
$DIMALTD
 70
     2
  9
$DIMALTF
 40
25.399999999999999
  9
$DIMLFAC
 40
1.0
  9
$DIMTOFL
 70
     0
  9
$DIMTVP
 40
0.0
  9
$DIMTIX
 70
     0
  9
$DIMSOXD
 70
     0
  9
$DIMSAH
 70
     0
  9
$DIMBLK1
  1

  9
$DIMBLK2
  1

  9
$DIMSTYLE
  2
MECHTRONICS
  9
$DIMCLRD
 70
     7
  9
$DIMCLRE
 70
     7
  9
$DIMCLRT
 70
     0
  9
$DIMTFAC
 40
1.0
  9
$DIMGAP
 40
0.5
  9
$LUNITS
 70
     2
  9
$LUPREC
 70
    10
  9
$SKETCHINC
 40
0.1
  9
$FILLETRAD
 40
12.0
  9
$AUNITS
 70
     0
  9
$AUPREC
 70
     0
  9
$MENU
  1
acad
  9
$ELEVATION
 40
0.0
  9
$PELEVATION
 40
0.0
  9
$THICKNESS
 40
0.0
  9
$LIMCHECK
 70
     0
  9
$BLIPMODE
 70
     0
  9
$CHAMFERA
 40
0.0
  9
$CHAMFERB
 40
0.0
  9
$SKPOLY
 70
     0
  9
$TDCREATE
 40
2444972.083333333
  9
$TDUPDATE
 40
2454646.8322495259
  9
$TDINDWG
 40
1.1316758795999999
  9
$TDUSRTIMER
 40
1.1316758795999999
  9
$USRTIMER
 70
     1
  9
$ANGBASE
 50
0.0
  9
$ANGDIR
 70
     0
  9
$PDMODE
 70
     0
  9
$PDSIZE
 40
0.0
  9
$PLINEWID
 40
0.0
  9
$COORDS
 70
     1
  9
$SPLFRAME
 70
     0
  9
$SPLINETYPE
 70
     6
  9
$SPLINESEGS
 70
     8
  9
$ATTDIA
 70
     0
  9
$ATTREQ
 70
     1
  9
$HANDLING
 70
     1
  9
$HANDSEED
  5
5BC0
  9
$SURFTAB1
 70
     6
  9
$SURFTAB2
 70
     6
  9
$SURFTYPE
 70
     6
  9
$SURFU
 70
     6
  9
$SURFV
 70
     6
  9
$UCSNAME
  2

  9
$UCSORG
 10
0.0
 20
0.0
 30
0.0
  9
$UCSXDIR
 10
1.0
 20
0.0
 30
0.0
  9
$UCSYDIR
 10
0.0
 20
1.0
 30
0.0
  9
$PUCSNAME
  2

  9
$PUCSORG
 10
0.0
 20
0.0
 30
0.0
  9
$PUCSXDIR
 10
1.0
 20
0.0
 30
0.0
  9
$PUCSYDIR
 10
0.0
 20
1.0
 30
0.0
  9
$USERI1
 70
     0
  9
$USERI2
 70
     0
  9
$USERI3
 70
     0
  9
$USERI4
 70
     0
  9
$USERI5
 70
     0
  9
$USERR1
 40
0.0
  9
$USERR2
 40
0.0
  9
$USERR3
 40
0.0
  9
$USERR4
 40
0.0
  9
$USERR5
 40
0.0
  9
$WORLDVIEW
 70
     1
  9
$SHADEDGE
 70
     3
  9
$SHADEDIF
 70
    70
  9
$TILEMODE
 70
     1
  9
$MAXACTVP
 70
    16
  9
$PLIMCHECK
 70
     0
  9
$PEXTMIN
 10
1.088750099572608
 20
0.7937499998122686
 30
0.0
  9
$PEXTMAX
 10
21.184573317709511
 20
7.1437499983104198
 30
0.0
  9
$PLIMMIN
 10
0.0
 20
0.0
  9
$PLIMMAX
 10
12.0
 20
9.0
  9
$UNITMODE
 70
     0
  9
$VISRETAIN
 70
     0
  9
$PLINEGEN
 70
     1
  9
$PSLTSCALE
 70
     0
  0
ENDSEC
  0
SECTION
  2
TABLES
  0
TABLE
  2
VPORT
 70
     2
  0
VPORT
  2
*ACTIVE
 70
     0
 10
0.0
 20
0.0
 11
1.0
 21
1.0
 12
1122.7942632442821
 22
2674.7151220809442
 13
0.0
 23
0.0
 14
1.0
 24
1.0
 15
0.0
 25
0.0
 16
0.0
 26
0.0
 36
1.0
 17
0.0
 27
0.0
 37
0.0
 40
391.51968378258289
 41
1.7423423423423421
 42
50.0
 43
0.0
 44
0.0
 50
0.0
 51
0.0
 71
     0
 72
   100
 73
     1
 74
     0
 75
     0
 76
     0
 77
     0
 78
     0
  0
ENDTAB
  0
TABLE
  2
LTYPE
 70
     1
  0
LTYPE
  2
CONTINUOUS
 70
     0
  3
Solid line
 72
    65
 73
     0
 40
0.0
  0
ENDTAB
  0
TABLE
  2
LAYER
 70
    12
  0
LAYER
  2
0
 70
     0
 62
   221
  6
CONTINUOUS
  0
LAYER
  2
50_DIMENSIONS0
 70
     0
 62
     7
  6
CONTINUOUS
  0
LAYER
  2
10_OUTLINE1
 70
     0
 62
     2
  6
CONTINUOUS
  0
LAYER
  2
62_TEXT0
 70
     0
 62
     7
  6
CONTINUOUS
  0
LAYER
  2
01_FRAME1
 70
     0
 62
     4
  6
CONTINUOUS
  0
LAYER
  2
DEFPOINTS
 70
     0
 62
     7
  6
CONTINUOUS
  0
LAYER
  2
10_OUTLINE
 70
     0
 62
     2
  6
CONTINUOUS
  0
LAYER
  2
01_FRAME
 70
     0
 62
     4
  6
CONTINUOUS
  0
LAYER
  2
62_TEXT
 70
     0
 62
     7
  6
CONTINUOUS
  0
LAYER
  2
50_DIMENSIONS
 70
     0
 62
     7
  6
CONTINUOUS
  0
LAYER
  2
10_OUTLINE0
 70
     0
 62
     2
  6
CONTINUOUS
  0
LAYER
  2
01_FRAME0
 70
     0
 62
     4
  6
CONTINUOUS
  0
ENDTAB
  0
TABLE
  2
STYLE
 70
     2
  0
STYLE
  2
STANDARD
 70
     0
 40
0.0
 41
1.0
 50
0.0
 71
     0
 42
1.3456087235615539
  3
txt
  4

  0
STYLE
  2
MECHTRONICS
 70
     0
 40
4.0
 41
1.0
 50
0.0
 71
     0
 42
4.0
  3
txt
  4

  0
ENDTAB
  0
TABLE
  2
VIEW
 70
     0
  0
ENDTAB
  0
TABLE
  2
UCS
 70
    16
  0
UCS
  2
AUDIT_D_000731094948-0
 70
     0
 10
0.0
 20
0.0
 30
1.0
 11
1.0
 21
0.0
 31
0.0
 12
0.0
 22
1.0
 32
0.0
  0
UCS
  2
AUDIT_D_000731094948-1
 70
     0
 10
0.0
 20
0.0
 30
1.0
 11
1.0
 21
0.0
 31
0.0
 12
0.0
 22
1.0
 32
0.0
  0
UCS
  2
AUDIT_D_000731094948-2
 70
     0
 10
0.0
 20
0.0
 30
1.0
 11
1.0
 21
0.0
 31
0.0
 12
0.0
 22
1.0
 32
0.0
  0
UCS
  2
AUDIT_D_000731094948-3
 70
     0
 10
0.0
 20
0.0
 30
1.0
 11
1.0
 21
0.0
 31
0.0
 12
0.0
 22
1.0
 32
0.0
  0
UCS
  2
AUDIT_D_000731094948-4
 70
     0
 10
0.0
 20
0.0
 30
1.0
 11
1.0
 21
0.0
 31
0.0
 12
0.0
 22
1.0
 32
0.0
  0
UCS
  2
AUDIT_D_000731094948-5
 70
     0
 10
0.0
 20
0.0
 30
1.0
 11
1.0
 21
0.0
 31
0.0
 12
0.0
 22
1.0
 32
0.0
  0
UCS
  2
AUDIT_D_000731094948-6
 70
     0
 10
0.0
 20
0.0
 30
1.0
 11
1.0
 21
0.0
 31
0.0
 12
0.0
 22
1.0
 32
0.0
  0
UCS
  2
AUDIT_D_000731094948-7
 70
     0
 10
0.0
 20
0.0
 30
1.0
 11
1.0
 21
0.0
 31
0.0
 12
0.0
 22
1.0
 32
0.0
  0
UCS
  2
AUDIT_D_000731094948-8
 70
     0
 10
0.0
 20
0.0
 30
1.0
 11
1.0
 21
0.0
 31
0.0
 12
0.0
 22
1.0
 32
0.0
  0
UCS
  2
AUDIT_D_000731094948-9
 70
     0
 10
0.0
 20
0.0
 30
1.0
 11
1.0
 21
0.0
 31
0.0
 12
0.0
 22
1.0
 32
0.0
  0
UCS
  2
AUDIT_D_000731094948-10
 70
     0
 10
0.0
 20
0.0
 30
1.0
 11
1.0
 21
0.0
 31
0.0
 12
0.0
 22
1.0
 32
0.0
  0
UCS
  2
AUDIT_D_000731094948-11
 70
     0
 10
0.0
 20
0.0
 30
1.0
 11
1.0
 21
0.0
 31
0.0
 12
0.0
 22
1.0
 32
0.0
  0
UCS
  2
AUDIT_D_000731094948-12
 70
     0
 10
0.0
 20
0.0
 30
1.0
 11
1.0
 21
0.0
 31
0.0
 12
0.0
 22
1.0
 32
0.0
  0
UCS
  2
AUDIT_D_000731094948-13
 70
     0
 10
0.0
 20
0.0
 30
1.0
 11
1.0
 21
0.0
 31
0.0
 12
0.0
 22
1.0
 32
0.0
  0
UCS
  2
AUDIT_D_000731094948-14
 70
     0
 10
0.0
 20
0.0
 30
1.0
 11
1.0
 21
0.0
 31
0.0
 12
0.0
 22
1.0
 32
0.0
  0
UCS
  2
CK_VIEW_1
 70
     0
 10
0.0
 20
0.0
 30
1.0
 11
1.0
 21
0.0
 31
0.0
 12
0.0
 22
1.0
 32
0.0
  0
ENDTAB
  0
TABLE
  2
APPID
 70
     4
  0
APPID
  2
ACAD
 70
     0
  0
APPID
  2
ACAD_PSEXT
 70
     0
  0
APPID
  2
DCO15
 70
     0
  0
APPID
  2
ACAD_DSTYLE_DIMTEXT_FILL
 70
     0
  0
ENDTAB
  0
TABLE
  2
DIMSTYLE
 70
     2
  0
DIMSTYLE
  2
STANDARD
 70
     0
  3

  4

  5

  6

  7

 40
1.0
 41
0.18
 42
0.0625
 43
0.38
 44
0.18
 45
0.0
 46
0.0
 47
0.0
 48
0.0
140
0.18
141
0.09
142
0.0
143
25.399999999999999
144
1.0
145
0.0
146
1.0
147
0.09
 71
     0
 72
     0
 73
     1
 74
     1
 75
     0
 76
     0
 77
     0
 78
     0
170
     0
171
     2
172
     0
173
     0
174
     0
175
     0
176
     0
177
     0
178
     0
  0
DIMSTYLE
  2
MECHTRONICS
 70
     0
  3

  4

  5

  6

  7

 40
2.0
 41
2.0
 42
1.0
 43
6.0
 44
0.5
 45
0.0
 46
0.0
 47
0.0
 48
0.0
140
2.0
141
0.09
142
0.0
143
25.399999999999999
144
1.0
145
0.0
146
1.0
147
0.5
 71
     0
 72
     0
 73
     0
 74
     1
 75
     0
 76
     0
 77
     0
 78
     0
170
     0
171
     2
172
     0
173
     0
174
     0
175
     0
176
     7
177
     7
178
     0
  0
ENDTAB
  0
ENDSEC
  0
SECTION
  2
BLOCKS
  0
BLOCK
  8
0
  2
$MODEL_SPACE
 70
     0
 10
0.0
 20
0.0
 30
0.0
  3
$MODEL_SPACE
  1

  0
ENDBLK
  5
E
  8
0
  0
BLOCK
 67
     1
  8
0
  2
$PAPER_SPACE
 70
     0
 10
0.0
 20
0.0
 30
0.0
  3
$PAPER_SPACE
  1

  0
ENDBLK
  5
10
 67
     1
  8
0
  0
BLOCK
  8
0
  2
*U3
 70
     1
 10
0.0
 20
0.0
 30
0.0
  3
*U3
  1

  0
TEXT
  5
57B9
  8
50_DIMENSIONS
 62
     0
 10
531.22812642078895
 20
2827.121205262792
 30
0.0
 40
4.0
  1
437 [17.20"]
  7
MECHTRONICS
  0
ENDBLK
  5
57BA
  8
0
  0
BLOCK
  8
0
  2
*U5
 70
     1
 10
0.0
 20
0.0
 30
0.0
  3
*U5
  1

  0
TEXT
  5
57CA
  8
50_DIMENSIONS
 62
     0
 10
306.36935493858999
 20
2747.6840756391862
 30
0.0
 40
4.0
  1
90 [3.54"]
 50
90.0
  7
MECHTRONICS
  0
ENDBLK
  5
57CB
  8
0
  0
BLOCK
  8
0
  2
*U6
 70
     1
 10
0.0
 20
0.0
 30
0.0
  3
*U6
  1

  0
TEXT
  5
57CE
  8
50_DIMENSIONS
 10
455.38575777841402
 20
2857.3424143455909
 30
0.0
 40
4.0
  1
SUPPLY .dxf VERSION OF THIS DRAWING TO THE LASER CUTTING 
  7
MECHTRONICS
  0
TEXT
  5
57CF
  8
50_DIMENSIONS
 10
455.27116023407558
 20
2850.6075348549139
 30
0.0
 40
4.0
  1
CONTRACTOR FOR REMAINDER OF DIMENSIONS. THE TWO GIVEN 
  7
MECHTRONICS
  0
TEXT
  5
57D0
  8
50_DIMENSIONS
 10
455.53036896531711
 20
2843.8726553642359
 30
0.0
 40
4.0
  1
DIMENSIONS ARE TO CHECK SCALE.
  7
MECHTRONICS
  0
ENDBLK
  5
57D1
  8
0
  0
BLOCK
  8
0
  2
*U7
 70
     1
 10
0.0
 20
0.0
 30
0.0
  3
*U7
  1

  0
SOLID
  5
57D4
  8
50_DIMENSIONS
 62
     5
 10
561.18575701715122
 20
2622.9637346113659
 30
0.0
 11
560.78717490121755
 21
2626.9992738245701
 31
0.0
 12
562.47303556651809
 22
2623.3111417415721
 32
0.0
 13
562.47303556651809
 23
2623.3111417415721
 33
0.0
  0
POLYLINE
  5
57D5
  8
50_DIMENSIONS
 62
     5
 66
     1
 10
0.0
 20
0.0
 30
0.0
  0
VERTEX
  5
5B90
  8
50_DIMENSIONS
 62
     5
 10
561.82939629183466
 20
2623.137438176469
 30
0.0
  0
VERTEX
  5
5B91
  8
50_DIMENSIONS
 62
     5
 10
565.98036694392329
 20
2607.7564772954338
 30
0.0
  0
VERTEX
  5
5B92
  8
50_DIMENSIONS
 62
     5
 10
577.12992160125691
 20
2607.7564772954338
 30
0.0
  0
SEQEND
  5
5B93
  8
50_DIMENSIONS
 62
     5
  0
ENDBLK
  5
57D6
  8
0
  0
BLOCK
  8
0
  2
*U8
 70
     1
 10
0.0
 20
0.0
 30
0.0
  3
*U8
  1

  0
TEXT
  5
57D9
  8
50_DIMENSIONS
 10
577.43687930930605
 20
2605.7223708834281
 30
0.0
 40
4.0
  1
V-roller (slotted vertically)
  7
MECHTRONICS
  0
ENDBLK
  5
57DA
  8
0
  0
BLOCK
  8
0
  2
*U9
 70
     1
 10
0.0
 20
0.0
 30
0.0
  3
*U9
  1

  0
SOLID
  5
57DD
  8
62_TEXT
 10
540.83746064504453
 20
2621.3086312993619
 30
0.0
 11
540.47981127042965
 21
2625.3480039448709
 31
0.0
 12
542.12819505036521
 22
2621.6429701584539
 32
0.0
 13
542.12819505036521
 23
2621.6429701584539
 33
0.0
  0
POLYLINE
  5
57DE
  8
62_TEXT
 66
     1
 10
0.0
 20
0.0
 30
0.0
  0
VERTEX
  5
5B94
  8
62_TEXT
 10
541.48282784770481
 20
2621.4758007289088
 30
0.0
  0
VERTEX
  5
5B95
  8
62_TEXT
 10
546.75695345379711
 20
2601.1147353228098
 30
0.0
  0
VERTEX
  5
5B96
  8
62_TEXT
 10
556.82751752646868
 20
2601.1147353228098
 30
0.0
  0
SEQEND
  5
5B97
  8
62_TEXT
  0
ENDBLK
  5
57DF
  8
0
  0
BLOCK
  8
0
  2
*U10
 70
     1
 10
0.0
 20
0.0
 30
0.0
  3
*U10
  1

  0
TEXT
  5
57E2
  8
50_DIMENSIONS
 10
557.43461166016584
 20
2599.0465224987988
 30
0.0
 40
4.0
  1
Spring anchor (selectable)
  7
MECHTRONICS
  0
ENDBLK
  5
57E3
  8
0
  0
BLOCK
  8
0
  2
*U11
 70
     1
 10
0.0
 20
0.0
 30
0.0
  3
*U11
  1

  0
SOLID
  5
57E6
  8
62_TEXT
 62
     5
 10
493.96534586863118
 20
2607.6967027752999
 30
0.0
 11
493.70807715188448
 21
2611.743708736728
 31
0.0
 12
495.26398192548618
 22
2607.9988983570252
 32
0.0
 13
495.26398192548618
 23
2607.9988983570252
 33
0.0
  0
POLYLINE
  5
57E7
  8
62_TEXT
 62
     5
 66
     1
 10
0.0
 20
0.0
 30
0.0
  0
VERTEX
  5
5B98
  8
62_TEXT
 62
     5
 10
494.61466389705879
 20
2607.8478005661641
 30
0.0
  0
VERTEX
  5
5B99
  8
62_TEXT
 62
     5
 10
497.75857141229221
 20
2594.33737253344
 30
0.0
  0
VERTEX
  5
5B9A
  8
62_TEXT
 62
     5
 10
504.30277262627129
 20
2594.33737253344
 30
0.0
  0
SEQEND
  5
5B9B
  8
62_TEXT
 62
     5
  0
ENDBLK
  5
57E8
  8
0
  0
BLOCK
  8
0
  2
*U12
 70
     1
 10
0.0
 20
0.0
 30
0.0
  3
*U12
  1

  0
TEXT
  5
57EB
  8
50_DIMENSIONS
 10
505.05720645983217
 20
2592.33737253344
 30
0.0
 40
4.0
  1
Motor plate stabiliser
  7
MECHTRONICS
  0
TEXT
  5
57EC
  8
50_DIMENSIONS
 10
504.60700182135997
 20
2585.602493042762
 30
0.0
 40
4.0
  1
TO BE COUNTERSUNK BEFORE WELDING
  7
MECHTRONICS
  0
ENDBLK
  5
57ED
  8
0
  0
BLOCK
  8
0
  2
*U13
 70
     1
 10
0.0
 20
0.0
 30
0.0
  3
*U13
  1

  0
SOLID
  5
57F0
  8
62_TEXT
 62
     5
 10
519.01687097571255
 20
2633.7787867956772
 30
0.0
 11
516.23411193052948
 21
2630.8290924825492
 31
0.0
 12
517.90979395279635
 22
2634.5218603069179
 32
0.0
 13
517.90979395279635
 23
2634.5218603069179
 33
0.0
  0
POLYLINE
  5
57F1
  8
62_TEXT
 62
     5
 66
     1
 10
0.0
 20
0.0
 30
0.0
  0
VERTEX
  5
5B9C
  8
62_TEXT
 62
     5
 10
518.46333246425434
 20
2634.1503235512969
 30
0.0
  0
VERTEX
  5
5B9D
  8
62_TEXT
 62
     5
 10
529.64319177871687
 20
2650.8067716405249
 30
0.0
  0
VERTEX
  5
5B9E
  8
62_TEXT
 62
     5
 10
544.32273863232899
 20
2650.8067716405249
 30
0.0
  0
SEQEND
  5
5B9F
  8
62_TEXT
 62
     5
  0
ENDBLK
  5
57F2
  8
0
  0
BLOCK
  8
0
  2
*U14
 70
     1
 10
0.0
 20
0.0
 30
0.0
  3
*U14
  1

  0
TEXT
  5
57F5
  8
50_DIMENSIONS
 10
544.92983276602615
 20
2648.7726652285191
 30
0.0
 40
4.0
  1
Slot for inner plate tongue
  7
MECHTRONICS
  0
ENDBLK
  5
57F6
  8
0
  0
BLOCK
  8
0
  2
*U15
 70
     1
 10
0.0
 20
0.0
 30
0.0
  3
*U15
  1

  0
SOLID
  5
57F9
  8
62_TEXT
 62
     5
 10
459.000456042748
 20
2635.7280201166482
 30
0.0
 11
456.02468901044432
 21
2632.9731598635872
 31
0.0
 12
457.94613558054959
 22
2636.5442223837158
 32
0.0
 13
457.94613558054959
 23
2636.5442223837158
 33
0.0
  0
POLYLINE
  5
57FA
  8
62_TEXT
 62
     5
 66
     1
 10
0.0
 20
0.0
 30
0.0
  0
VERTEX
  5
5BA0
  8
62_TEXT
 62
     5
 10
458.47329581164888
 20
2636.136121250182
 30
0.0
  0
VERTEX
  5
5BA1
  8
62_TEXT
 62
     5
 10
477.08931345613252
 20
2660.1831609597489
 30
0.0
  0
VERTEX
  5
5BA2
  8
62_TEXT
 62
     5
 10
489.74152542655128
 20
2660.3612004028591
 30
0.0
  0
SEQEND
  5
5BA3
  8
62_TEXT
 62
     5
  0
ENDBLK
  5
57FB
  8
0
  0
BLOCK
  8
0
  2
*U16
 70
     1
 10
0.0
 20
0.0
 30
0.0
  3
*U16
  1

  0
TEXT
  5
57FE
  8
50_DIMENSIONS
 10
490.51778736379538
 20
2658.3270939908539
 30
0.0
 40
4.0
  1
Limit switch & stopblock attachment
  7
MECHTRONICS
  0
ENDBLK
  5
57FF
  8
0
  0
BLOCK
  8
0
  2
*U17
 70
     1
 10
0.0
 20
0.0
 30
0.0
  3
*U17
  1

  0
SOLID
  5
5802
  8
62_TEXT
 10
438.35372108992709
 20
2632.5416878010892
 30
0.0
 11
435.23425749260491
 21
2629.9506665141389
 31
0.0
 12
437.34477020781799
 22
2633.4133505198452
 32
0.0
 13
437.34477020781799
 23
2633.4133505198452
 33
0.0
  0
POLYLINE
  5
5803
  8
62_TEXT
 66
     1
 10
0.0
 20
0.0
 30
0.0
  0
VERTEX
  5
5BA4
  8
62_TEXT
 10
437.84924564887251
 20
2632.9775191604658
 30
0.0
  0
VERTEX
  5
5BA5
  8
62_TEXT
 10
470.47515932019792
 20
2670.7420623375401
 30
0.0
  0
VERTEX
  5
5BA6
  8
62_TEXT
 10
475.24376893376069
 20
2670.7420623375401
 30
0.0
  0
SEQEND
  5
5BA7
  8
62_TEXT
  0
ENDBLK
  5
5804
  8
0
  0
BLOCK
  8
0
  2
*U18
 70
     1
 10
0.0
 20
0.0
 30
0.0
  3
*U18
  1

  0
TEXT
  5
5807
  8
62_TEXT
 10
475.99820276732117
 20
2668.7420623375401
 30
0.0
 40
4.0
  1
Motor plate swivel point
  7
MECHTRONICS
  0
ENDBLK
  5
5808
  8
0
  0
BLOCK
  8
0
  2
*U19
 70
     1
 10
0.0
 20
0.0
 30
0.0
  3
*U19
  1

  0
SOLID
  5
580B
  8
50_DIMENSIONS
 62
     5
 10
365.89518829454101
 20
2623.3111417415721
 30
0.0
 11
367.58104895984121
 21
2626.9992738245701
 31
0.0
 12
367.18246684390778
 22
2622.9637346113659
 32
0.0
 13
367.18246684390778
 23
2622.9637346113659
 33
0.0
  0
POLYLINE
  5
580C
  8
50_DIMENSIONS
 62
     5
 66
     1
 10
0.0
 20
0.0
 30
0.0
  0
VERTEX
  5
5BA8
  8
50_DIMENSIONS
 62
     5
 10
366.5388275692244
 20
2623.137438176469
 30
0.0
  0
VERTEX
  5
5BA9
  8
50_DIMENSIONS
 62
     5
 10
362.38785691713588
 20
2607.7564772954338
 30
0.0
  0
VERTEX
  5
5BAA
  8
50_DIMENSIONS
 62
     5
 10
351.23830225980208
 20
2607.7564772954338
 30
0.0
  0
SEQEND
  5
5BAB
  8
50_DIMENSIONS
 62
     5
  0
ENDBLK
  5
580D
  8
0
  0
BLOCK
  8
0
  2
*U20
 70
     1
 10
0.0
 20
0.0
 30
0.0
  3
*U20
  1

  0
TEXT
  5
5810
  8
50_DIMENSIONS
 10
302.03535545768187
 20
2605.6882644714228
 30
0.0
 40
3.9999999999999991
  1
V-roller (un-slotted)
  7
MECHTRONICS
  0
ENDBLK
  5
5811
  8
0
  0
BLOCK
  8
0
  2
*U21
 70
     1
 10
0.0
 20
0.0
 30
0.0
  3
*U21
  1

  0
SOLID
  5
5814
  8
62_TEXT
 10
390.77783781603029
 20
2637.738152283951
 30
0.0
 11
392.04067860647751
 21
2633.8846243442031
 31
0.0
 12
389.59630663505459
 22
2637.1202834903061
 32
0.0
 13
389.59630663505459
 23
2637.1202834903061
 33
0.0
  0
POLYLINE
  5
5815
  8
62_TEXT
 66
     1
 10
0.0
 20
0.0
 30
0.0
  0
VERTEX
  5
5BAC
  8
62_TEXT
 10
390.18707222554241
 20
2637.4292178871278
 30
0.0
  0
VERTEX
  5
5BAD
  8
62_TEXT
 10
381.71561496227952
 20
2653.6289208140211
 30
0.0
  0
VERTEX
  5
5BAE
  8
62_TEXT
 10
375.08831869554001
 20
2653.6289208140211
 30
0.0
  0
SEQEND
  5
5BAF
  8
62_TEXT
  0
ENDBLK
  5
5816
  8
0
  0
BLOCK
  8
0
  2
*U22
 70
     1
 10
0.0
 20
0.0
 30
0.0
  3
*U22
  1

  0
TEXT
  5
5819
  8
62_TEXT
 10
305.27249332036951
 20
2652.7885388222071
 30
0.0
 40
4.0
  1
Cable with Wago connector
  7
MECHTRONICS
  0
ENDBLK
  5
581A
  8
0
  0
BLOCK
  8
0
  2
*U23
 70
     1
 10
0.0
 20
0.0
 30
0.0
  3
*U23
  1

  0
SOLID
  5
581D
  8
62_TEXT
 10
410.12745014577621
 20
2637.209752823182
 30
0.0
 11
411.15880598458909
 21
2633.287922946939
 31
0.0
 12
408.9112542853087
 22
2636.6632682334998
 32
0.0
 13
408.9112542853087
 23
2636.6632682334998
 33
0.0
  0
POLYLINE
  5
581E
  8
62_TEXT
 66
     1
 10
0.0
 20
0.0
 30
0.0
  0
VERTEX
  5
5BB0
  8
62_TEXT
 10
409.51935221554248
 20
2636.9365105283409
 30
0.0
  0
VERTEX
  5
5BB1
  8
62_TEXT
 10
396.49859572946571
 20
2665.9140708063478
 30
0.0
  0
VERTEX
  5
5BB2
  8
62_TEXT
 10
390.63451118589171
 20
2665.9140708063478
 30
0.0
  0
SEQEND
  5
5BB3
  8
62_TEXT
  0
ENDBLK
  5
581F
  8
0
  0
BLOCK
  8
0
  2
*U24
 70
     1
 10
0.0
 20
0.0
 30
0.0
  3
*U24
  1

  0
TEXT
  5
5822
  8
62_TEXT
 10
325.7763938598344
 20
2665.1077952265382
 30
0.0
 40
4.0
  1
Slot for inner plate tongue
  7
MECHTRONICS
  0
ENDBLK
  5
5823
  8
0
  0
BLOCK
  8
0
  2
*D25
 70
     1
 10
0.0
 20
0.0
 30
0.0
  3
*D25
  1

  0
LINE
  5
5B6A
  8
50_DIMENSIONS0
 62
     7
 10
908.02244290636986
 20
2796.3018080436
 30
0.0
 11
908.02244290636986
 21
2824.2577644066318
 31
0.0
  0
LINE
  5
5B6B
  8
50_DIMENSIONS0
 62
     7
 10
1345.022442906371
 20
2796.3018080436
 30
0.0
 11
1345.022442906371
 21
2824.2577644066318
 31
0.0
  0
LINE
  5
5B6C
  8
50_DIMENSIONS0
 62
     7
 10
912.02244290636975
 20
2823.2577644066332
 30
0.0
 11
1110.6957034793579
 21
2823.2577644066332
 31
0.0
  0
LINE
  5
5B6D
  8
50_DIMENSIONS0
 62
     7
 10
1341.022442906371
 20
2823.2577644066332
 30
0.0
 11
1142.349182333382
 21
2823.2577644066332
 31
0.0
  0
SOLID
  5
5B6E
  8
50_DIMENSIONS0
 62
     7
 10
912.02244290636975
 20
2823.9244310732988
 30
0.0
 11
912.02244290636975
 21
2822.5910977399658
 31
0.0
 12
908.02244290636986
 22
2823.2577644066332
 32
0.0
 13
908.02244290636986
 23
2823.2577644066332
 33
0.0
  0
SOLID
  5
5B6F
  8
50_DIMENSIONS0
 62
     7
 10
1341.022442906371
 20
2823.9244310732988
 30
0.0
 11
1341.022442906371
 21
2822.5910977399658
 31
0.0
 12
1345.022442906371
 22
2823.2577644066332
 32
0.0
 13
1345.022442906371
 23
2823.2577644066332
 33
0.0
  0
INSERT
  5
5B70
  8
62_TEXT0
  2
*U29
 10
0.0
 20
0.0
 30
0.0
  0
POINT
  5
5B71
  8
DEFPOINTS
 62
     0
 10
908.02244290636986
 20
2794.3018080436
 30
0.0
  0
POINT
  5
5B72
  8
DEFPOINTS
 62
     0
 10
1345.022442906371
 20
2794.3018080436
 30
0.0
  0
POINT
  5
5B73
  8
DEFPOINTS
 62
     0
 10
1345.022442906371
 20
2823.2577644066332
 30
0.0
  0
ENDBLK
  5
5B3E
  8
0
  0
BLOCK
  8
0
  2
*D26
 70
     1
 10
0.0
 20
0.0
 30
0.0
  3
*D26
  1

  0
LINE
  5
5B74
  8
50_DIMENSIONS0
 62
     7
 10
1052.5382405777709
 20
2709.5018080436012
 30
0.0
 11
884.13024714040625
 21
2709.5018080436021
 31
0.0
  0
LINE
  5
5B75
  8
50_DIMENSIONS0
 62
     7
 10
910.10094583349644
 20
2799.3018080436
 30
0.0
 11
884.13024714040625
 21
2799.3018080436
 31
0.0
  0
LINE
  5
5B76
  8
50_DIMENSIONS0
 62
     7
 10
885.13024714040625
 20
2713.5018080436021
 30
0.0
 11
885.13024714040625
 21
2741.7442364201361
 31
0.0
  0
LINE
  5
5B77
  8
50_DIMENSIONS0
 62
     7
 10
885.13024714040625
 20
2795.3018080436
 30
0.0
 11
885.13024714040625
 21
2767.059379667066
 31
0.0
  0
SOLID
  5
5B78
  8
50_DIMENSIONS0
 62
     7
 10
884.46358047373963
 20
2713.5018080436021
 30
0.0
 11
885.79691380707277
 21
2713.5018080436021
 31
0.0
 12
885.13024714040625
 22
2709.5018080436021
 32
0.0
 13
885.13024714040625
 23
2709.5018080436021
 33
0.0
  0
SOLID
  5
5B79
  8
50_DIMENSIONS0
 62
     7
 10
884.46358047373963
 20
2795.3018080436
 30
0.0
 11
885.79691380707277
 21
2795.3018080436
 31
0.0
 12
885.13024714040625
 22
2799.3018080436
 32
0.0
 13
885.13024714040625
 23
2799.3018080436
 33
0.0
  0
INSERT
  5
5B7A
  8
62_TEXT0
  2
*U30
 10
0.0
 20
0.0
 30
0.0
  0
POINT
  5
5B7B
  8
DEFPOINTS
 62
     0
 10
1054.5382405777709
 20
2709.5018080436012
 30
0.0
  0
POINT
  5
5B7C
  8
DEFPOINTS
 62
     0
 10
912.10094583349633
 20
2799.3018080436
 30
0.0
  0
POINT
  5
5B7D
  8
DEFPOINTS
 62
     0
 10
885.13024714040625
 20
2799.3018080436
 30
0.0
  0
ENDBLK
  5
5B4B
  8
0
  0
BLOCK
  8
0
  2
*U27
 70
     1
 10
0.0
 20
0.0
 30
0.0
  3
*U27
  1

  0
TEXT
  5
5B8D
  8
50_DIMENSIONS0
 62
     0
 10
531.22812642078907
 20
2827.1212052627902
 30
0.0
 40
4.0
  1
437 [17.20"]
  7
MECHTRONICS
  0
ENDBLK
  5
5B8F
  8
0
  0
BLOCK
  8
0
  2
*U28
 70
     1
 10
0.0
 20
0.0
 30
0.0
  3
*U28
  1

  0
TEXT
  5
5BB5
  8
50_DIMENSIONS0
 62
     0
 10
306.36935493859011
 20
2747.6840756391862
 30
0.0
 40
4.0
  1
90 [3.54"]
 50
90.0
  7
MECHTRONICS
  0
ENDBLK
  5
5BB7
  8
0
  0
BLOCK
  8
0
  2
*U29
 70
     1
 10
0.0
 20
0.0
 30
0.0
  3
*U29
  1

  0
TEXT
  5
5BB9
  8
50_DIMENSIONS0
 62
     0
 10
1111.4419517740371
 20
2821.8048312552
 30
0.0
 40
4.0
  1
437 [17.20"]
  7
MECHTRONICS
  0
ENDBLK
  5
5BBB
  8
0
  0
BLOCK
  8
0
  2
*U30
 70
     1
 10
0.0
 20
0.0
 30
0.0
  3
*U30
  1

  0
TEXT
  5
5BBD
  8
50_DIMENSIONS0
 62
     0
 10
886.58318029183818
 20
2742.367701631596
 30
0.0
 40
4.0
  1
90 [3.54"]
 50
90.0
  7
MECHTRONICS
  0
ENDBLK
  5
5BBF
  8
0
  0
ENDSEC
  0
SECTION
  2
ENTITIES
  0
LINE
  5
59AF
  8
01_FRAME0
 62
     4
 10
853.16581107057846
 20
2868.093705334169
 30
0.0
 11
853.16581107057823
 21
2481.3208983874588
 31
0.0
  0
LINE
  5
59B0
  8
01_FRAME0
 62
     4
 10
1392.431663217279
 20
2868.093705334169
 30
0.0
 11
853.16581107057846
 21
2868.093705334169
 31
0.0
  0
LINE
  5
59B1
  8
01_FRAME0
 62
     4
 10
1392.4316632172779
 20
2481.3208983874588
 30
0.0
 11
1392.431663217279
 21
2868.093705334169
 31
0.0
  0
LINE
  5
59B2
  8
01_FRAME0
 62
     4
 10
853.16581107057823
 20
2481.3208983874588
 30
0.0
 11
1392.4316632172779
 21
2481.3208983874588
 31
0.0
  0
LINE
  5
59B3
  8
01_FRAME0
 62
     4
 10
1181.278462465478
 20
2523.2816963971718
 30
0.0
 11
1240.438792972956
 21
2523.2816963971718
 31
0.0
  0
LINE
  5
59B4
  8
01_FRAME0
 62
     4
 10
1181.278462465478
 20
2481.3208983874588
 30
0.0
 11
1181.278462465478
 21
2523.2816963971718
 31
0.0
  0
TEXT
  5
59B5
  8
01_FRAME0
 62
     8
 10
1374.8531595982561
 20
2498.2488798424852
 30
0.0
 40
2.799999999999998
  1
Revision
  7
MECHTRONICS
  0
TEXT
  5
59B6
  8
62_TEXT
 10
1285.4246740230301
 20
2509.9691636188732
 30
0.0
 40
4.0
  1
CAR CARRIER PLATE - PROFILE CUT
  7
MECHTRONICS
 72
     1
 11
1335.521536233126
 21
2509.9691636188732
 31
0.0
  0
LINE
  5
59B7
  8
01_FRAME0
 62
     8
 10
1240.438792972956
 20
2544.372777536079
 30
0.0
 11
1392.4316632172779
 21
2544.372777536079
 31
0.0
  0
LINE
  5
59B8
  8
01_FRAME0
 62
     8
 10
1240.438792972956
 20
2537.3482604523929
 30
0.0
 11
1392.4316632172779
 21
2537.3482604523929
 31
0.0
  0
LINE
  5
59B9
  8
01_FRAME0
 62
     4
 10
1272.9658699627421
 20
2502.3944749779339
 30
0.0
 11
1392.4315681944661
 21
2502.3944749779339
 31
0.0
  0
LINE
  5
59BA
  8
01_FRAME0
 62
     4
 10
1181.278557488291
 20
2514.588380870076
 30
0.0
 11
1272.9658699627421
 21
2514.588380870076
 31
0.0
  0
LINE
  5
59BB
  8
01_FRAME0
 62
     8
 10
1249.8872237024641
 20
2530.3237180292899
 30
0.0
 11
1392.4316632172779
 21
2530.3237180292899
 31
0.0
  0
TEXT
  5
59BC
  8
01_FRAME0
 62
     8
 10
1182.488267503893
 20
2540.1609334002592
 30
0.0
 40
2.799999999999998
  1
Higher
  7
MECHTRONICS
  0
TEXT
  5
59BD
  8
01_FRAME0
 62
     8
 10
1286.4994560390489
 20
2525.6955389246409
 30
0.0
 40
2.799999999999998
  1
Description of change
  7
MECHTRONICS
  0
LINE
  5
59BE
  8
01_FRAME0
 62
     4
 10
1272.9658699627421
 20
2523.2816963971718
 30
0.0
 11
1272.9658699627421
 21
2481.3208983874588
 31
0.0
  0
LINE
  5
59BF
  8
01_FRAME0
 62
     8
 10
1240.438792972956
 20
2523.2816963971718
 30
0.0
 11
1240.438792972956
 21
2544.372777536079
 31
0.0
  0
LINE
  5
59C0
  8
01_FRAME0
 62
     8
 10
1249.8872237024641
 20
2523.2816963971718
 30
0.0
 11
1249.8872237024641
 21
2544.4572895200358
 31
0.0
  0
LINE
  5
59C1
  8
01_FRAME0
 62
     7
 10
1241.1243373639199
 20
2527.6578794774659
 30
0.0
 11
1245.212104058071
 21
2534.7380990812212
 31
0.0
  0
LINE
  5
59C2
  8
01_FRAME0
 62
     7
 10
1241.1243373639199
 20
2527.6578794774659
 30
0.0
 11
1249.2998707522211
 21
2527.6578794774659
 31
0.0
  0
LINE
  5
59C3
  8
01_FRAME0
 62
     7
 10
1249.2998707522211
 20
2527.6578794774659
 30
0.0
 11
1245.212104058071
 21
2534.7380990812212
 31
0.0
  0
TEXT
  5
59C4
  8
01_FRAME0
 62
     8
 10
1274.5137028934071
 20
2517.1001294506609
 30
0.0
 40
2.799999999999998
  1
Title
  7
MECHTRONICS
  0
LINE
  5
59C5
  8
01_FRAME0
 62
     8
 10
1354.1432406316301
 20
2502.3944749779339
 30
0.0
 11
1354.1432406316301
 21
2481.3208983874588
 31
0.0
  0
LINE
  5
59C6
  8
01_FRAME0
 62
     8
 10
1373.2874044130481
 20
2502.3944749779339
 30
0.0
 11
1373.2874044130481
 21
2481.3208983874588
 31
0.0
  0
TEXT
  5
59C7
  8
01_FRAME0
 62
     8
 10
1355.7089958168381
 20
2497.8453757117381
 30
0.0
 40
2.799999999999998
  1
Process
  7
MECHTRONICS
  0
TEXT
  5
59C8
  8
01_FRAME0
 62
     8
 10
1274.2849863854151
 20
2498.2183703752821
 30
0.0
 40
2.799999999999998
  1
Drawing Number
  7
MECHTRONICS
  0
TEXT
  5
59C9
  8
62_TEXT
 10
1286.779431878972
 20
2485.9723832056179
 30
0.0
 40
8.0
  1
10 30 450
  7
MECHTRONICS
  0
TEXT
  5
59CA
  8
62_TEXT
 10
1359.351114818963
 20
2485.9723832056179
 30
0.0
 40
8.0
  1
P
  7
MECHTRONICS
  0
LINE
  5
59CB
  8
01_FRAME0
 62
     8
 10
1354.9754895549181
 20
2523.2816963971718
 30
0.0
 11
1354.9754895549181
 21
2544.4397596321869
 31
0.0
  0
TEXT
  5
59CC
  8
01_FRAME0
 62
     8
 10
1357.831354179554
 20
2525.6955389246409
 30
0.0
 40
2.799999999999998
  1
Date (d-m-y)
  7
MECHTRONICS
  0
TEXT
  5
59CD
  8
62_TEXT
 10
1378.495278600381
 20
2485.9723832056179
 30
0.0
 40
8.0
  1
G
  7
MECHTRONICS
  0
LINE
  5
59CE
  8
01_FRAME0
 62
     8
 10
1381.7589618688901
 20
2523.2816963971718
 30
0.0
 11
1381.7589618688901
 21
2544.4397596321869
 31
0.0
  0
TEXT
  5
59CF
  8
01_FRAME0
 62
     8
 10
1383.6327739746239
 20
2525.6955389246409
 30
0.0
 40
2.799999999999998
  1
Rev.
  7
MECHTRONICS
  0
TEXT
  5
59D0
  8
01_FRAME0
 62
     8
 10
1207.90521202333
 20
2488.8268002898049
 30
0.0
 40
2.799999999999998
  1
www.mechmate.com
  7
MECHTRONICS
  0
TEXT
  5
59D1
  8
62_TEXT
 10
1203.645633827372
 20
2538.1703998258959
 30
0.0
 40
4.0
  1
10 30 450 D
  7
MECHTRONICS
  0
TEXT
  5
59D2
  8
01_FRAME0
 62
     8
 10
1182.488267503893
 20
2536.1056686558918
 30
0.0
 40
2.799999999999998
  1
drawing/s:
  7
MECHTRONICS
  0
LINE
  5
59D3
  8
01_FRAME0
 62
     8
 10
1181.278462465478
 20
2544.372777536079
 30
0.0
 11
1240.438792972956
 21
2544.372777536079
 31
0.0
  0
LINE
  5
59D4
  8
01_FRAME0
 62
     4
 10
1240.438792972956
 20
2523.2816963971718
 30
0.0
 11
1392.4315681944661
 21
2523.2816963971718
 31
0.0
  0
TEXT
  5
59D5
  8
01_FRAME0
 62
     8
 10
1182.826390418955
 20
2519.131738840741
 30
0.0
 40
2.799999999999998
  1
Material:
  7
MECHTRONICS
  0
TEXT
  5
59D6
  8
62_TEXT
 10
1199.053263013556
 20
2517.0941023494211
 30
0.0
 40
4.0
  1
5mm (3/16") STEEL 300MPa
  7
MECHTRONICS
  0
LINE
  5
59D7
  8
10_OUTLINE0
 62
     2
 10
1212.0224429063701
 20
2799.3018080436
 30
0.0
 11
1312.022442906371
 21
2799.3018080436
 31
0.0
  0
CIRCLE
  5
59D8
  8
10_OUTLINE0
 62
     2
 10
1146.5224429063701
 20
2767.6955127499832
 30
0.0
 40
4.1500000000000004
  0
CIRCLE
  5
59D9
  8
10_OUTLINE0
 62
     2
 10
936.02244290637043
 20
2771.3018080436
 30
0.0
 40
6.0
  0
CIRCLE
  5
59DA
  8
10_OUTLINE0
 62
     2
 10
1106.5224429063701
 20
2767.6955127499832
 30
0.0
 40
4.1500000000000004
  0
LINE
  5
59DB
  8
10_OUTLINE0
 62
     2
 10
907.02244290636941
 20
2761.9614453595582
 30
0.0
 11
907.02244290636941
 21
2771.9614453595582
 31
0.0
  0
LINE
  5
59DC
  8
10_OUTLINE0
 62
     2
 10
908.02244290636941
 20
2750.484651456899
 30
0.0
 11
908.02244290636941
 21
2761.9614453595582
 31
0.0
  0
LINE
  5
59DD
  8
10_OUTLINE0
 62
     2
 10
908.02244290636941
 20
2761.9614453595582
 30
0.0
 11
907.02244290636941
 21
2761.9614453595582
 31
0.0
  0
LINE
  5
59DE
  8
10_OUTLINE0
 62
     2
 10
941.02244290637032
 20
2799.3018080436
 30
0.0
 11
1061.0224429063701
 21
2799.3018080436
 31
0.0
  0
LINE
  5
59DF
  8
10_OUTLINE0
 62
     2
 10
913.02244290636975
 20
2799.3018080436
 30
0.0
 11
908.02244290636986
 21
2794.3018080436
 31
0.0
  0
LINE
  5
59E0
  8
10_OUTLINE0
 62
     2
 10
908.02244290636941
 20
2771.9614453595582
 30
0.0
 11
907.02244290636941
 21
2771.9614453595582
 31
0.0
  0
LINE
  5
59E1
  8
10_OUTLINE0
 62
     2
 10
908.02244290636986
 20
2771.9614453595582
 30
0.0
 11
908.02244290636986
 21
2794.3018080436
 31
0.0
  0
LINE
  5
59E2
  8
10_OUTLINE0
 62
     2
 10
913.02244290636975
 20
2799.3018080436
 30
0.0
 11
931.02244290637032
 21
2799.3018080436
 31
0.0
  0
LINE
  5
59E3
  8
10_OUTLINE0
 62
     2
 10
931.02244290637032
 20
2799.3018080436
 30
0.0
 11
931.02244290637032
 21
2800.3018080436
 31
0.0
  0
LINE
  5
59E4
  8
10_OUTLINE0
 62
     2
 10
941.02244290636986
 20
2799.3018080436
 30
0.0
 11
941.02244290637032
 21
2800.3018080436
 31
0.0
  0
LINE
  5
59E5
  8
10_OUTLINE0
 62
     2
 10
941.02244290637032
 20
2800.3018080436
 30
0.0
 11
931.02244290637032
 21
2800.3018080436
 31
0.0
  0
LINE
  5
59E6
  8
10_OUTLINE0
 62
     2
 10
1071.0224429063701
 20
2799.3018080436
 30
0.0
 11
1202.0224429063701
 21
2799.3018080436
 31
0.0
  0
LINE
  5
59E7
  8
10_OUTLINE0
 62
     2
 10
1071.0224429063701
 20
2800.3018080436
 30
0.0
 11
1061.0224429063701
 21
2800.3018080436
 31
0.0
  0
LINE
  5
59E8
  8
10_OUTLINE0
 62
     2
 10
1071.0224429063701
 20
2799.3018080436
 30
0.0
 11
1071.0224429063701
 21
2800.3018080436
 31
0.0
  0
LINE
  5
59E9
  8
10_OUTLINE0
 62
     2
 10
1061.0224429063701
 20
2799.3018080436
 30
0.0
 11
1061.0224429063701
 21
2800.3018080436
 31
0.0
  0
LINE
  5
59EA
  8
10_OUTLINE0
 62
     2
 10
1212.0224429063701
 20
2799.3018080436
 30
0.0
 11
1212.0224429063701
 21
2800.3018080436
 31
0.0
  0
LINE
  5
59EB
  8
10_OUTLINE0
 62
     2
 10
1202.022442906371
 20
2799.3018080436
 30
0.0
 11
1202.0224429063701
 21
2800.3018080436
 31
0.0
  0
LINE
  5
59EC
  8
10_OUTLINE0
 62
     2
 10
1202.0224429063701
 20
2800.3018080436
 30
0.0
 11
1212.0224429063701
 21
2800.3018080436
 31
0.0
  0
LINE
  5
59ED
  8
10_OUTLINE0
 62
     2
 10
1346.022442906371
 20
2761.9614453595582
 30
0.0
 11
1346.022442906371
 21
2771.9614453595582
 31
0.0
  0
LINE
  5
59EE
  8
10_OUTLINE0
 62
     2
 10
1345.022442906371
 20
2750.484651456899
 30
0.0
 11
1345.022442906371
 21
2761.9614453595582
 31
0.0
  0
LINE
  5
59EF
  8
10_OUTLINE0
 62
     2
 10
1345.022442906371
 20
2761.9614453595582
 30
0.0
 11
1346.022442906371
 21
2761.9614453595582
 31
0.0
  0
ARC
  5
59F0
  8
10_OUTLINE0
 62
     2
 10
1335.022442906371
 20
2750.484651456899
 30
0.0
 40
10.0
 50
281.52328655614451
 51
0.0
  0
LINE
  5
59F1
  8
10_OUTLINE0
 62
     2
 10
1322.0224429063701
 20
2799.3018080436
 30
0.0
 11
1340.022442906371
 21
2799.3018080436
 31
0.0
  0
LINE
  5
59F2
  8
10_OUTLINE0
 62
     2
 10
1322.0224429063701
 20
2799.3018080436
 30
0.0
 11
1322.0224429063701
 21
2800.3018080436
 31
0.0
  0
LINE
  5
59F3
  8
10_OUTLINE0
 62
     2
 10
1312.022442906371
 20
2799.3018080436
 30
0.0
 11
1312.0224429063701
 21
2800.3018080436
 31
0.0
  0
LINE
  5
59F4
  8
10_OUTLINE0
 62
     2
 10
1312.0224429063701
 20
2800.3018080436
 30
0.0
 11
1322.0224429063701
 21
2800.3018080436
 31
0.0
  0
LINE
  5
59F5
  8
10_OUTLINE0
 62
     2
 10
1340.022442906371
 20
2799.3018080436
 30
0.0
 11
1345.022442906371
 21
2794.3018080436
 31
0.0
  0
LINE
  5
59F6
  8
10_OUTLINE0
 62
     2
 10
1345.022442906371
 20
2771.9614453595582
 30
0.0
 11
1346.022442906371
 21
2771.9614453595582
 31
0.0
  0
LINE
  5
59F7
  8
10_OUTLINE0
 62
     2
 10
1345.022442906371
 20
2771.9614453595582
 30
0.0
 11
1345.022442906371
 21
2794.3018080436
 31
0.0
  0
LINE
  5
59F8
  8
10_OUTLINE0
 62
     2
 10
1021.6624429063691
 20
2772.46144535956
 30
0.0
 11
1026.62244290637
 21
2772.46144535956
 31
0.0
  0
LINE
  5
59F9
  8
10_OUTLINE0
 62
     2
 10
1021.66244290637
 20
2761.46144535956
 30
0.0
 11
1026.62244290637
 21
2761.46144535956
 31
0.0
  0
LINE
  5
59FA
  8
10_OUTLINE0
 62
     2
 10
1021.66244290637
 20
2761.46144535956
 30
0.0
 11
1021.6624429063691
 21
2772.46144535956
 31
0.0
  0
LINE
  5
59FB
  8
10_OUTLINE0
 62
     2
 10
1026.62244290637
 20
2761.46144535956
 30
0.0
 11
1026.62244290637
 21
2772.46144535956
 31
0.0
  0
LINE
  5
59FC
  8
10_OUTLINE0
 62
     2
 10
1231.38244290637
 20
2772.46144535956
 30
0.0
 11
1226.422442906369
 21
2772.46144535956
 31
0.0
  0
LINE
  5
59FD
  8
10_OUTLINE0
 62
     2
 10
1231.38244290637
 20
2761.46144535956
 30
0.0
 11
1226.422442906369
 21
2761.46144535956
 31
0.0
  0
LINE
  5
59FE
  8
10_OUTLINE0
 62
     2
 10
1231.38244290637
 20
2761.46144535956
 30
0.0
 11
1231.38244290637
 21
2772.46144535956
 31
0.0
  0
LINE
  5
59FF
  8
10_OUTLINE0
 62
     2
 10
1226.422442906369
 20
2761.46144535956
 30
0.0
 11
1226.422442906369
 21
2772.46144535956
 31
0.0
  0
DIMENSION
  5
5A00
  8
50_DIMENSIONS0
  2
*D25
 10
1345.022442906371
 20
2823.2577644066332
 30
0.0
 11
1126.5224429063701
 21
2823.2577644066332
 31
0.0
 70
     0
 13
908.02244290636986
 23
2794.3018080436
 33
0.0
 14
1345.022442906371
 24
2794.3018080436
 34
0.0
1001
ACAD
1000
DSTYLE
1002
{
1070
     4
1000
"
1070
   143
1040
0.039370078
1070
   170
1070
     1
1002
}
  0
DIMENSION
  5
5A01
  8
50_DIMENSIONS0
  2
*D26
 10
885.13024714040625
 20
2799.3018080436
 30
0.0
 11
885.13024714040569
 21
2754.4018080436008
 31
0.0
 70
     0
 13
1054.5382405777709
 23
2709.5018080436012
 33
0.0
 14
912.10094583349633
 24
2799.3018080436
 34
0.0
 50
90.0
1001
ACAD
1000
DSTYLE
1002
{
1070
     4
1000
"
1070
   143
1040
0.039370078
1070
   170
1070
     1
1002
}
  0
INSERT
  5
5A02
  8
62_TEXT
  2
*U6
 10
580.21382535324824
 20
-5.3163740075906381
 30
0.0
  0
LINE
  5
5A03
  8
10_OUTLINE0
 62
     2
 10
1311.0224429063701
 20
2771.8018080436018
 30
0.0
 11
1311.0224429063701
 21
2770.8018080436
 31
0.0
  0
LINE
  5
5A04
  8
10_OUTLINE0
 62
     2
 10
1323.0224429063701
 20
2771.8018080436018
 30
0.0
 11
1323.0224429063701
 21
2770.8018080436
 31
0.0
  0
ARC
  5
5A05
  8
10_OUTLINE0
 62
     2
 10
1317.0224429063701
 20
2771.8018080436018
 30
0.0
 40
6.0
 50
0.0
 51
180.0
  0
ARC
  5
5A06
  8
10_OUTLINE0
 62
     2
 10
1317.0224429063701
 20
2770.8018080436
 30
0.0
 40
6.0
 50
180.0
 51
0.0
  0
ARC
  5
5A07
  8
10_OUTLINE0
 62
     2
 10
972.12080171403386
 20
2766.96144535956
 30
0.0
 40
8.0
 50
90.0
 51
270.0
  0
ARC
  5
5A08
  8
10_OUTLINE0
 62
     2
 10
1004.120801714034
 20
2766.96144535956
 30
0.0
 40
8.0
 50
270.0
 51
90.0
  0
LINE
  5
5A09
  8
10_OUTLINE0
 62
     2
 10
1004.120801714034
 20
2758.96144535956
 30
0.0
 11
972.12080171403409
 21
2758.96144535956
 31
0.0
  0
LINE
  5
5A0A
  8
10_OUTLINE0
 62
     2
 10
1004.120801714034
 20
2774.96144535956
 30
0.0
 11
972.12080171403386
 21
2774.96144535956
 31
0.0
  0
TEXT
  5
5A0B
  8
62_TEXT
 10
1356.8292332083161
 20
2539.1015780746038
 30
0.0
 40
4.0
  1
17-04-08
  7
MECHTRONICS
  0
TEXT
  5
5A0C
  8
01_FRAME0
 62
     7
 10
1384.7584303333799
 20
2539.0072398016582
 30
0.0
 40
4.0
  1
G
  7
MECHTRONICS
  0
TEXT
  5
5A0D
  8
01_FRAME0
 62
     7
 10
1251.3234857421719
 20
2539.1015780746038
 30
0.0
 40
4.0
  1
Deleted clearance slots for screw heads
  7
MECHTRONICS
  0
LINE
  5
5A0E
  8
62_TEXT
 10
1065.647937283778
 20
2598.3578998169778
 30
0.0
 11
1149.3119862101009
 21
2609.5686138018741
 31
0.0
  0
LINE
  5
5A0F
  8
62_TEXT
 10
1082.1479372837771
 20
2638.9328998169799
 30
0.0
 11
1137.147937283778
 21
2638.9328998169799
 31
0.0
  0
CIRCLE
  5
5A10
  8
62_TEXT
 10
1054.3979372837771
 20
2624.932899816979
 30
0.0
 40
2.0750000000000002
  0
CIRCLE
  5
5A11
  8
62_TEXT
 10
949.14793728377776
 20
2624.932899816979
 30
0.0
 40
3.0
  0
CIRCLE
  5
5A12
  8
62_TEXT
 10
1013.688737007334
 20
2621.892100093422
 30
0.0
 40
2.5
  0
CIRCLE
  5
5A13
  8
62_TEXT
 10
1034.3979372837771
 20
2624.932899816979
 30
0.0
 40
2.0750000000000002
  0
LINE
  5
5A14
  8
62_TEXT
 10
934.64793728377754
 20
2620.2627184749581
 30
0.0
 11
934.64793728377754
 21
2625.262718474959
 31
0.0
  0
LINE
  5
5A15
  8
62_TEXT
 10
1023.147937283777
 20
2598.3578998169778
 30
0.0
 11
939.48388835745459
 21
2609.5686138018741
 31
0.0
  0
ARC
  5
5A16
  8
62_TEXT
 10
940.14793728377754
 20
2614.5243215236278
 30
0.0
 40
5.0
 50
180.0
 51
262.36801060944163
  0
LINE
  5
5A17
  8
62_TEXT
 10
935.14793728377742
 20
2614.5243215236278
 30
0.0
 11
935.14793728377742
 21
2620.2627184749581
 31
0.0
  0
LINE
  5
5A18
  8
62_TEXT
 10
935.14793728377742
 20
2620.2627184749581
 30
0.0
 11
934.64793728377754
 21
2620.2627184749581
 31
0.0
  0
LINE
  5
5A19
  8
62_TEXT
 10
1023.147937283777
 20
2598.3578998169778
 30
0.0
 11
1065.6479372837771
 21
2598.3578998169778
 31
0.0
  0
LINE
  5
5A1A
  8
62_TEXT
 10
951.64793728377765
 20
2638.9328998169799
 30
0.0
 11
1006.647937283777
 21
2638.9328998169799
 31
0.0
  0
LINE
  5
5A1B
  8
62_TEXT
 10
937.64793728377765
 20
2638.9328998169799
 30
0.0
 11
935.14793728377765
 21
2636.4328998169799
 31
0.0
  0
LINE
  5
5A1C
  8
62_TEXT
 10
935.14793728377742
 20
2625.262718474959
 30
0.0
 11
934.64793728377754
 21
2625.262718474959
 31
0.0
  0
LINE
  5
5A1D
  8
62_TEXT
 10
935.14793728377765
 20
2625.262718474959
 30
0.0
 11
935.14793728377765
 21
2636.4328998169799
 31
0.0
  0
LINE
  5
5A1E
  8
62_TEXT
 10
937.64793728377765
 20
2638.9328998169799
 30
0.0
 11
946.64793728377776
 21
2638.9328998169799
 31
0.0
  0
LINE
  5
5A1F
  8
62_TEXT
 10
946.64793728377776
 20
2638.9328998169799
 30
0.0
 11
946.64793728377776
 21
2639.432899816979
 31
0.0
  0
LINE
  5
5A20
  8
62_TEXT
 10
951.64793728377765
 20
2638.9328998169799
 30
0.0
 11
951.64793728377765
 21
2639.432899816979
 31
0.0
  0
LINE
  5
5A21
  8
62_TEXT
 10
951.64793728377765
 20
2639.432899816979
 30
0.0
 11
946.64793728377776
 21
2639.432899816979
 31
0.0
  0
LINE
  5
5A22
  8
62_TEXT
 10
1011.647937283777
 20
2638.9328998169799
 30
0.0
 11
1077.1479372837771
 21
2638.9328998169799
 31
0.0
  0
LINE
  5
5A23
  8
62_TEXT
 10
1011.647937283778
 20
2639.432899816979
 30
0.0
 11
1006.647937283777
 21
2639.432899816979
 31
0.0
  0
LINE
  5
5A24
  8
62_TEXT
 10
1011.647937283777
 20
2638.9328998169799
 30
0.0
 11
1011.647937283778
 21
2639.432899816979
 31
0.0
  0
LINE
  5
5A25
  8
62_TEXT
 10
1006.647937283777
 20
2638.9328998169799
 30
0.0
 11
1006.647937283777
 21
2639.432899816979
 31
0.0
  0
LINE
  5
5A26
  8
62_TEXT
 10
1082.1479372837771
 20
2638.9328998169799
 30
0.0
 11
1082.1479372837771
 21
2639.432899816979
 31
0.0
  0
LINE
  5
5A27
  8
62_TEXT
 10
1077.147937283778
 20
2638.9328998169799
 30
0.0
 11
1077.1479372837771
 21
2639.432899816979
 31
0.0
  0
LINE
  5
5A28
  8
62_TEXT
 10
1077.1479372837771
 20
2639.432899816979
 30
0.0
 11
1082.1479372837771
 21
2639.432899816979
 31
0.0
  0
CIRCLE
  5
5A29
  8
62_TEXT
 10
1119.115062421999
 20
2623.4124999552018
 30
0.0
 40
2.5
  0
LINE
  5
5A2A
  8
62_TEXT
 10
1154.147937283778
 20
2620.2627184749581
 30
0.0
 11
1154.147937283778
 21
2625.262718474959
 31
0.0
  0
LINE
  5
5A2B
  8
62_TEXT
 10
1153.647937283778
 20
2614.5243215236278
 30
0.0
 11
1153.647937283778
 21
2620.2627184749581
 31
0.0
  0
LINE
  5
5A2C
  8
62_TEXT
 10
1153.647937283778
 20
2620.2627184749581
 30
0.0
 11
1154.147937283778
 21
2620.2627184749581
 31
0.0
  0
ARC
  5
5A2D
  8
62_TEXT
 10
1148.647937283778
 20
2614.5243215236278
 30
0.0
 40
5.0
 50
277.63198939055837
 51
0.0
  0
LINE
  5
5A2E
  8
62_TEXT
 10
1142.147937283778
 20
2638.9328998169799
 30
0.0
 11
1151.147937283778
 21
2638.9328998169799
 31
0.0
  0
LINE
  5
5A2F
  8
62_TEXT
 10
1142.147937283778
 20
2638.9328998169799
 30
0.0
 11
1142.147937283778
 21
2639.432899816979
 31
0.0
  0
LINE
  5
5A30
  8
62_TEXT
 10
1137.147937283778
 20
2638.9328998169799
 30
0.0
 11
1137.147937283778
 21
2639.432899816979
 31
0.0
  0
LINE
  5
5A31
  8
62_TEXT
 10
1137.147937283778
 20
2639.432899816979
 30
0.0
 11
1142.147937283778
 21
2639.432899816979
 31
0.0
  0
LINE
  5
5A32
  8
62_TEXT
 10
1151.147937283778
 20
2638.9328998169799
 30
0.0
 11
1153.647937283778
 21
2636.4328998169799
 31
0.0
  0
LINE
  5
5A33
  8
62_TEXT
 10
1153.647937283778
 20
2625.262718474959
 30
0.0
 11
1154.147937283778
 21
2625.262718474959
 31
0.0
  0
LINE
  5
5A34
  8
62_TEXT
 10
1153.647937283778
 20
2625.262718474959
 30
0.0
 11
1153.647937283778
 21
2636.4328998169799
 31
0.0
  0
LINE
  5
5A35
  8
62_TEXT
 10
992.34793728377736
 20
2625.512718474959
 30
0.0
 11
994.44793728377795
 21
2625.512718474959
 31
0.0
  0
LINE
  5
5A36
  8
62_TEXT
 10
992.34793728377736
 20
2620.012718474959
 30
0.0
 11
994.44793728377772
 21
2620.012718474959
 31
0.0
  0
LINE
  5
5A37
  8
62_TEXT
 10
992.34793728377736
 20
2620.012718474959
 30
0.0
 11
992.34793728377736
 21
2625.512718474959
 31
0.0
  0
LINE
  5
5A38
  8
62_TEXT
 10
994.44793728377772
 20
2620.012718474959
 30
0.0
 11
994.44793728377795
 21
2625.512718474959
 31
0.0
  0
LINE
  5
5A39
  8
62_TEXT
 10
1096.4479372837779
 20
2625.512718474959
 30
0.0
 11
1094.3479372837769
 21
2625.512718474959
 31
0.0
  0
LINE
  5
5A3A
  8
62_TEXT
 10
1096.447937283777
 20
2620.012718474959
 30
0.0
 11
1094.3479372837769
 21
2620.012718474959
 31
0.0
  0
LINE
  5
5A3B
  8
62_TEXT
 10
1096.447937283777
 20
2620.012718474959
 30
0.0
 11
1096.4479372837779
 21
2625.512718474959
 31
0.0
  0
LINE
  5
5A3C
  8
62_TEXT
 10
1094.3479372837769
 20
2620.012718474959
 30
0.0
 11
1094.3479372837769
 21
2625.512718474959
 31
0.0
  0
LINE
  5
5A3D
  8
62_TEXT
 10
1136.647937283778
 20
2625.1828998169799
 30
0.0
 11
1136.647937283778
 21
2624.6828998169799
 31
0.0
  0
ARC
  5
5A3E
  8
62_TEXT
 10
1139.647937283778
 20
2624.6828998169799
 30
0.0
 40
3.0
 50
180.0
 51
0.0
  0
LINE
  5
5A3F
  8
62_TEXT
 10
1142.6479372837771
 20
2625.1828998169799
 30
0.0
 11
1142.6479372837771
 21
2624.6828998169799
 31
0.0
  0
ARC
  5
5A40
  8
62_TEXT
 10
1139.647937283778
 20
2625.1828998169799
 30
0.0
 40
3.0
 50
0.0
 51
180.0
  0
CIRCLE
  5
5A41
  8
62_TEXT
 10
1072.8689067197861
 20
2609.3215443786062
 30
0.0
 40
2.125
  0
ARC
  5
5A42
  8
62_TEXT
 10
967.19711668760965
 20
2622.762718474959
 30
0.0
 40
4.0
 50
90.0
 51
270.0
  0
ARC
  5
5A43
  8
62_TEXT
 10
983.19711668760965
 20
2622.762718474959
 30
0.0
 40
4.0
 50
270.0
 51
90.0
  0
LINE
  5
5A44
  8
62_TEXT
 10
983.19711668760965
 20
2618.7627184749599
 30
0.0
 11
967.19711668760965
 21
2618.7627184749599
 31
0.0
  0
LINE
  5
5A45
  8
62_TEXT
 10
983.19711668760965
 20
2626.762718474959
 30
0.0
 11
967.19711668760965
 21
2626.762718474959
 31
0.0
  0
INSERT
  5
5A46
  8
62_TEXT
  2
*U7
 10
580.21382535324824
 20
-5.3163740075906381
 30
0.0
1001
ACAD
1000
DSTYLE
1002
{
1070
   147
1040
0.5
1070
    77
1070
     0
1002
}
  0
INSERT
  5
5A47
  8
62_TEXT
  2
*U8
 10
580.21382535324824
 20
-5.3163740075906381
 30
0.0
  0
INSERT
  5
5A48
  8
62_TEXT
  2
*U9
 10
580.21382535324824
 20
-5.3163740075906381
 30
0.0
1001
ACAD
1000
DSTYLE
1002
{
1070
   147
1040
0.5
1070
    77
1070
     0
1002
}
  0
INSERT
  5
5A49
  8
62_TEXT
  2
*U10
 10
580.21382535324824
 20
-5.3163740075906381
 30
0.0
  0
INSERT
  5
5A4A
  8
62_TEXT
  2
*U11
 10
580.21382535324824
 20
-5.3163740075906381
 30
0.0
1001
ACAD
1000
DSTYLE
1002
{
1070
   147
1040
0.5
1070
    77
1070
     0
1002
}
  0
INSERT
  5
5A4B
  8
62_TEXT
  2
*U12
 10
580.21382535324824
 20
-5.3163740075906381
 30
0.0
  0
INSERT
  5
5A4C
  8
62_TEXT
  2
*U13
 10
580.21382535324824
 20
-5.3163740075906381
 30
0.0
1001
ACAD
1000
DSTYLE
1002
{
1070
   147
1040
0.5
1070
    77
1070
     0
1002
}
  0
INSERT
  5
5A4D
  8
62_TEXT
  2
*U14
 10
580.21382535324824
 20
-5.3163740075906381
 30
0.0
  0
INSERT
  5
5A4E
  8
62_TEXT
  2
*U15
 10
580.21382535324824
 20
-5.3163740075906381
 30
0.0
1001
ACAD
1000
DSTYLE
1002
{
1070
   147
1040
0.5
1070
    77
1070
     0
1002
}
  0
INSERT
  5
5A4F
  8
62_TEXT
  2
*U16
 10
580.21382535324824
 20
-5.3163740075906381
 30
0.0
  0
SOLID
  5
5A50
  8
62_TEXT
 10
1055.8069629927811
 20
2631.7483095699199
 30
0.0
 11
1054.6873138741421
 21
2627.8507679991881
 31
0.0
 12
1054.4823738823479
 22
2631.9007610910598
 32
0.0
 13
1054.4823738823479
 23
2631.9007610910598
 33
0.0
1001
ACAD
1000
DSTYLE
1002
{
1070
   147
1040
0.5
1070
    77
1070
     0
1002
}
  0
LINE
  5
5A51
  8
62_TEXT
 62
     0
 10
1055.144668437564
 20
2631.824535330491
 30
0.0
 11
1057.30313880938
 21
2654.8667869521591
 31
0.0
1001
ACAD
1000
DSTYLE
1002
{
1070
   147
1040
0.5
1070
    77
1070
     0
1002
}
  0
INSERT
  5
5A52
  8
62_TEXT
  2
*U17
 10
580.21382535324824
 20
-5.3163740075906381
 30
0.0
1001
ACAD
1000
DSTYLE
1002
{
1070
   147
1040
0.5
1070
    77
1070
     0
1002
}
  0
INSERT
  5
5A53
  8
62_TEXT
  2
*U18
 10
580.21382535324824
 20
-5.3163740075906381
 30
0.0
  0
INSERT
  5
5A54
  8
62_TEXT
  2
*U19
 10
580.21382535324824
 20
-5.3163740075906381
 30
0.0
1001
ACAD
1000
DSTYLE
1002
{
1070
   147
1040
0.5
1070
    77
1070
     0
1002
}
  0
INSERT
  5
5A55
  8
62_TEXT
  2
*U20
 10
580.21382535324824
 20
-5.3163740075906381
 30
0.0
  0
INSERT
  5
5A56
  8
62_TEXT
  2
*U21
 10
580.21382535324824
 20
-5.3163740075906381
 30
0.0
1001
ACAD
1000
DSTYLE
1002
{
1070
   147
1040
0.5
1070
    77
1070
     0
1002
}
  0
INSERT
  5
5A57
  8
62_TEXT
  2
*U22
 10
580.21382535324824
 20
-5.3163740075906381
 30
0.0
  0
INSERT
  5
5A58
  8
62_TEXT
  2
*U23
 10
580.21382535324824
 20
-5.3163740075906381
 30
0.0
1001
ACAD
1000
DSTYLE
1002
{
1070
   147
1040
0.5
1070
    77
1070
     0
1002
}
  0
INSERT
  5
5A59
  8
62_TEXT
  2
*U24
 10
580.21382535324824
 20
-5.3163740075906381
 30
0.0
  0
TEXT
  5
5A5A
  8
62_TEXT
 10
967.0139854742672
 20
2565.5305787863072
 30
0.0
 40
4.0
  1
EXPLANATION OF HOLES - DO NOT CUT THIS PROFILE
  7
MECHTRONICS
 72
     1
 11
1041.34413554248
 21
2565.5305787863072
 31
0.0
  0
LINE
  5
5A5B
  8
62_TEXT
 10
965.495553692817
 20
2562.7962307313142
 30
0.0
 11
1116.199328716031
 21
2562.7962307313142
 31
0.0
  0
TEXT
  5
5A5C
  8
62_TEXT
 10
1257.255731765832
 20
2716.5771184597952
 30
0.0
 40
4.0
  1
PROFILE TO BE CUT
  7
MECHTRONICS
 72
     1
 11
1285.152048273336
 21
2716.5771184597952
 31
0.0
  0
LINE
  5
5A5D
  8
62_TEXT
 10
1257.5781929894979
 20
2713.8427704048031
 30
0.0
 11
1311.5292697686191
 21
2713.8427704048031
 31
0.0
  0
LINE
  5
5A5E
  8
01_FRAME0
 62
     8
 10
1181.278462465478
 20
2523.2816963971718
 30
0.0
 11
1181.278462465478
 21
2544.372777536079
 31
0.0
  0
CIRCLE
  5
5A5F
  8
10_OUTLINE
 62
     2
 10
1275.9566931828131
 20
2764.6547130264262
 30
0.0
 40
3.5
  0
CIRCLE
  5
5A60
  8
10_OUTLINE
 62
     2
 10
1268.885625370948
 20
2757.5836452145609
 30
0.0
 40
3.5
  0
CIRCLE
  5
5A61
  8
10_OUTLINE
 62
     2
 10
1283.0277609946791
 20
2771.7257808382919
 30
0.0
 40
3.5
  0
CIRCLE
  5
5A62
  8
62_TEXT
 10
1124.4824867059081
 20
2628.7799242391102
 30
0.0
 40
2.5
  0
CIRCLE
  5
5A63
  8
62_TEXT
 10
1114.0905826347459
 20
2618.3880201679472
 30
0.0
 40
2.5
  0
CIRCLE
  5
5A64
  8
10_OUTLINE
 62
     2
 10
1187.0941770624379
 20
2735.1608552334692
 30
0.0
 40
4.0
  0
CIRCLE
  5
5A65
  8
10_OUTLINE
 62
     2
 10
1183.0453216656231
 20
2719.5786655851371
 30
0.0
 40
4.0
  0
CIRCLE
  5
5A66
  8
10_OUTLINE
 62
     2
 10
1068.217090181183
 20
2757.7325996791669
 30
0.0
 40
5.0
  0
LINE
  5
5A67
  8
01_FRAME
 62
     7
 10
1069.242603004996
 20
2728.6636029932588
 30
0.0
 11
1074.352311372684
 21
2737.513877497955
 31
0.0
  0
LINE
  5
5A68
  8
01_FRAME
 62
     7
 10
1069.242603004996
 20
2728.6636029932588
 30
0.0
 11
1079.4620197403731
 21
2728.6636029932588
 31
0.0
  0
LINE
  5
5A69
  8
01_FRAME
 62
     7
 10
1079.4620197403731
 20
2728.6636029932588
 30
0.0
 11
1074.352311372684
 21
2737.513877497955
 31
0.0
  0
TEXT
  5
5A6A
  8
01_FRAME
 62
     7
 10
1071.7663937699469
 20
2729.2012322092519
 30
0.0
 40
5.0
  1
G
  7
MECHTRONICS
  0
LINE
  5
5A6B
  8
01_FRAME0
 62
     7
 10
1319.753920478518
 20
2758.1461427072272
 30
0.0
 11
1323.841687172669
 21
2765.2263623109839
 31
0.0
  0
LINE
  5
5A6C
  8
01_FRAME0
 62
     7
 10
1319.753920478518
 20
2758.1461427072272
 30
0.0
 11
1327.9294538668189
 21
2758.1461427072272
 31
0.0
  0
LINE
  5
5A6D
  8
01_FRAME0
 62
     7
 10
1327.9294538668189
 20
2758.1461427072272
 30
0.0
 11
1323.841687172669
 21
2765.2263623109839
 31
0.0
  0
TEXT
  5
5A6E
  8
01_FRAME0
 62
     7
 10
1321.505277356805
 20
2758.5611355785231
 30
0.0
 40
4.0
  1
E
  7
MECHTRONICS
  0
LINE
  5
5A6F
  8
01_FRAME0
 62
     7
 10
939.09023731695822
 20
2758.1461427072272
 30
0.0
 11
943.17800401110912
 21
2765.2263623109839
 31
0.0
  0
LINE
  5
5A70
  8
01_FRAME0
 62
     7
 10
939.09023731695822
 20
2758.1461427072272
 30
0.0
 11
947.26577070525946
 21
2758.1461427072272
 31
0.0
  0
LINE
  5
5A71
  8
01_FRAME0
 62
     7
 10
947.26577070525946
 20
2758.1461427072272
 30
0.0
 11
943.17800401110912
 21
2765.2263623109839
 31
0.0
  0
TEXT
  5
5A72
  8
01_FRAME0
 62
     7
 10
940.84159419524553
 20
2758.5611355785231
 30
0.0
 40
4.0
  1
E
  7
MECHTRONICS
  0
LINE
  5
5A73
  8
10_OUTLINE
 62
     2
 10
1069.9995641471171
 20
2709.5018080435998
 30
0.0
 11
1183.0453216656231
 21
2709.5018080436012
 31
0.0
  0
ARC
  5
5A74
  8
10_OUTLINE
 62
     2
 10
1183.0453216656231
 20
2719.5786655851371
 30
0.0
 40
10.07685754153613
 50
270.0
 51
281.52328655614451
  0
LINE
  5
5A75
  8
10_OUTLINE
 62
     2
 10
1185.058337062278
 20
2709.7049212636939
 30
0.0
 11
1337.020104765098
 21
2740.6862155052681
 31
0.0
  0
ARC
  5
5A76
  8
10_OUTLINE0
 62
     2
 10
918.02244290636895
 20
2750.484651456899
 30
0.0
 40
10.0
 50
180.0
 51
258.4767134438556
  0
ARC
  5
5A77
  8
10_OUTLINE
 62
     2
 10
1069.9995641471171
 20
2719.5786655851371
 30
0.0
 40
10.07685754153613
 50
258.4767134438556
 51
270.0
  0
LINE
  5
5A78
  8
10_OUTLINE
 62
     2
 10
1067.9865487504619
 20
2709.7049212636939
 30
0.0
 11
916.02478104764202
 21
2740.6862155052681
 31
0.0
  0
TEXT
  5
5A79
  8
01_FRAME0
 62
     8
 10
1242.2431903928441
 20
2539.6142812573589
 30
0.0
 40
2.799999999999998
  1
1:2
  7
MECHTRONICS
  0
LINE
  5
5A7A
  8
01_FRAME0
 62
     7
 10
1236.710668745091
 20
2495.2032964821728
 30
0.0
 11
1239.078832620617
 21
2495.2032964821728
 31
0.0
  0
LINE
  5
5A7B
  8
01_FRAME0
 62
     7
 10
1238.2996303054849
 20
2505.3201327890702
 30
0.0
 11
1236.710668745091
 21
2495.2032964821728
 31
0.0
  0
LINE
  5
5A7C
  8
01_FRAME0
 62
     7
 10
1234.7473844590429
 20
2498.3681685925599
 30
0.0
 11
1238.2996303054849
 21
2505.3201327890702
 31
0.0
  0
LINE
  5
5A7D
  8
01_FRAME0
 62
     7
 10
1240.828218196817
 20
2507.4095629169801
 30
0.0
 11
1237.1308268659441
 21
2507.4095629169801
 31
0.0
  0
LINE
  5
5A7E
  8
01_FRAME0
 62
     7
 10
1204.4055024077479
 20
2500.1827850172222
 30
0.0
 11
1209.450074448087
 21
2500.1827850172222
 31
0.0
  0
LINE
  5
5A7F
  8
01_FRAME0
 62
     7
 10
1208.988680664718
 20
2498.122337197115
 30
0.0
 11
1204.8976557678329
 21
2498.122337197115
 31
0.0
  0
LINE
  5
5A80
  8
01_FRAME0
 62
     7
 10
1203.8210702512031
 20
2496.5539365730929
 30
0.0
 11
1207.954971282627
 21
2496.5539365730929
 31
0.0
  0
LINE
  5
5A81
  8
01_FRAME0
 62
     7
 10
1208.1860780855459
 20
2504.70346914931
 30
0.0
 11
1205.2052516013091
 21
2504.70346914931
 31
0.0
  0
LINE
  5
5A82
  8
01_FRAME0
 62
     7
 10
1204.6118994805049
 20
2501.5051537874729
 30
0.0
 11
1207.594396560055
 21
2501.5051537874729
 31
0.0
  0
LINE
  5
5A83
  8
01_FRAME0
 62
     7
 10
1207.2284460030289
 20
2503.1571420831478
 30
0.0
 11
1205.325503053444
 21
2503.1571420831478
 31
0.0
  0
LINE
  5
5A84
  8
01_FRAME0
 62
     7
 10
1190.2486622563299
 20
2495.2032964821728
 30
0.0
 11
1191.692478265981
 21
2505.3662231502749
 31
0.0
  0
LINE
  5
5A85
  8
01_FRAME0
 62
     7
 10
1193.4800600048461
 20
2507.4095629169801
 30
0.0
 11
1189.7291940462439
 21
2507.4095629169801
 31
0.0
  0
LINE
  5
5A86
  8
01_FRAME0
 62
     7
 10
1189.7291940462439
 20
2507.4095629169801
 30
0.0
 11
1188.002726167641
 21
2495.2032964821728
 31
0.0
  0
LINE
  5
5A87
  8
01_FRAME0
 62
     7
 10
1188.002726167641
 20
2495.2032964821728
 30
0.0
 11
1190.2486622563299
 21
2495.2032964821728
 31
0.0
  0
LINE
  5
5A88
  8
01_FRAME0
 62
     7
 10
1198.7052990358541
 20
2505.3201327890702
 30
0.0
 11
1197.1163374754601
 21
2495.2032964821728
 31
0.0
  0
LINE
  5
5A89
  8
01_FRAME0
 62
     7
 10
1199.484501350986
 20
2495.2032964821728
 30
0.0
 11
1201.2338869271889
 21
2507.4095629169801
 31
0.0
  0
LINE
  5
5A8A
  8
01_FRAME0
 62
     7
 10
1197.1163374754601
 20
2495.2032964821728
 30
0.0
 11
1199.484501350986
 21
2495.2032964821728
 31
0.0
  0
LINE
  5
5A8B
  8
01_FRAME0
 62
     7
 10
1201.2338869271889
 20
2507.4095629169801
 30
0.0
 11
1197.536495596313
 21
2507.4095629169801
 31
0.0
  0
LINE
  5
5A8C
  8
01_FRAME0
 62
     7
 10
1195.153053189412
 20
2498.3681685925599
 30
0.0
 11
1198.7052990358541
 21
2505.3201327890702
 31
0.0
  0
LINE
  5
5A8D
  8
01_FRAME0
 62
     7
 10
1191.692478265981
 20
2505.3662231502749
 30
0.0
 11
1193.1133765780339
 21
2498.3681685925599
 31
0.0
  0
LINE
  5
5A8E
  8
01_FRAME0
 62
     7
 10
1194.5877495841271
 20
2501.579131064158
 30
0.0
 11
1193.4800600048461
 21
2507.4095629169801
 31
0.0
  0
LINE
  5
5A8F
  8
01_FRAME0
 62
     7
 10
1197.536495596313
 20
2507.4095629169801
 30
0.0
 11
1194.5877495841271
 21
2501.579131064158
 31
0.0
  0
LINE
  5
5A90
  8
01_FRAME0
 62
     7
 10
1193.1133765780339
 20
2498.3681685925599
 30
0.0
 11
1195.153053189412
 21
2498.3681685925599
 31
0.0
  0
LINE
  5
5A91
  8
01_FRAME0
 62
     7
 10
1202.7137252241671
 20
2502.8890449603982
 30
0.0
 11
1202.0677739141911
 21
2498.6451374051198
 31
0.0
  0
LINE
  5
5A92
  8
01_FRAME0
 62
     7
 10
1204.2074886388721
 20
2498.599016579718
 30
0.0
 11
1204.4055024077479
 21
2500.1827850172222
 31
0.0
  0
LINE
  5
5A93
  8
01_FRAME0
 62
     7
 10
1204.739982135678
 20
2502.577497054323
 30
0.0
 11
1204.6118994805049
 21
2501.5051537874729
 31
0.0
  0
LINE
  5
5A94
  8
01_FRAME0
 62
     7
 10
1221.507938995147
 20
2502.8845243368082
 30
0.0
 11
1224.3996468897881
 21
2502.8845243368082
 31
0.0
  0
LINE
  5
5A95
  8
01_FRAME0
 62
     7
 10
1217.1602605396149
 20
2497.2305015091538
 30
0.0
 11
1217.2525392697651
 21
2498.0300782939689
 31
0.0
  0
LINE
  5
5A96
  8
01_FRAME0
 62
     7
 10
1219.8515238397149
 20
2507.9274358156931
 30
0.0
 11
1218.429065560081
 21
2496.5180901426811
 31
0.0
  0
LINE
  5
5A97
  8
01_FRAME0
 62
     7
 10
1220.6095443480599
 20
2496.5180901426811
 30
0.0
 11
1221.507938995147
 21
2502.8845243368082
 31
0.0
  0
LINE
  5
5A98
  8
01_FRAME0
 62
     7
 10
1208.896401868257
 20
2497.2305015091538
 30
0.0
 11
1208.988680664718
 21
2498.122337197115
 31
0.0
  0
LINE
  5
5A99
  8
01_FRAME0
 62
     7
 10
1214.299619042943
 20
2496.5539365730929
 30
0.0
 11
1216.2188299539889
 21
2496.5539365730929
 31
0.0
  0
LINE
  5
5A9A
  8
01_FRAME0
 62
     7
 10
1212.700120589511
 20
2496.5539365730929
 30
0.0
 11
1214.299619042943
 21
2496.5539365730929
 31
0.0
  0
LINE
  5
5A9B
  8
01_FRAME0
 62
     7
 10
1218.429065560081
 20
2496.5180901426811
 30
0.0
 11
1220.6095443480599
 21
2496.5180901426811
 31
0.0
  0
LINE
  5
5A9C
  8
01_FRAME0
 62
     7
 10
1218.429065560081
 20
2496.5180901426811
 30
0.0
 11
1218.429065560081
 21
2496.5180901426811
 31
0.0
  0
LINE
  5
5A9D
  8
01_FRAME0
 62
     7
 10
1217.1295482991891
 20
2504.70346914931
 30
0.0
 11
1214.084301939617
 21
2504.70346914931
 31
0.0
  0
LINE
  5
5A9E
  8
01_FRAME0
 62
     7
 10
1214.2073403127929
 20
2503.1658215372058
 30
0.0
 11
1218.0850213507549
 21
2503.1658215372058
 31
0.0
  0
LINE
  5
5A9F
  8
01_FRAME0
 62
     7
 10
1217.2674940445729
 20
2498.122337197115
 30
0.0
 11
1214.299619042943
 21
2498.122337197115
 31
0.0
  0
LINE
  5
5AA0
  8
01_FRAME0
 62
     7
 10
1209.450074448087
 20
2500.1827850172222
 30
0.0
 11
1209.882294792885
 21
2503.0842101222938
 31
0.0
  0
LINE
  5
5AA1
  8
01_FRAME0
 62
     7
 10
1209.450074448087
 20
2500.1827850172222
 30
0.0
 11
1209.450074448087
 21
2500.1827850172222
 31
0.0
  0
LINE
  5
5AA2
  8
01_FRAME0
 62
     7
 10
1207.594396560055
 20
2501.5051537874729
 30
0.0
 11
1207.759537846355
 21
2502.7053188738701
 31
0.0
  0
LINE
  5
5AA3
  8
01_FRAME0
 62
     7
 10
1211.5927755624771
 20
2502.8890449603982
 30
0.0
 11
1211.1006222023909
 21
2499.5677259723798
 31
0.0
  0
LINE
  5
5AA4
  8
01_FRAME0
 62
     7
 10
1213.085471023197
 20
2498.599016579718
 30
0.0
 11
1213.6229081562469
 21
2502.5815153716671
 31
0.0
  0
LINE
  5
5AA5
  8
01_FRAME0
 62
     7
 10
1211.1006222023909
 20
2499.5677259723798
 30
0.0
 11
1210.946824252497
 21
2498.6451374051198
 31
0.0
  0
LINE
  5
5AA6
  8
01_FRAME0
 62
     7
 10
1214.299619042943
 20
2498.122337197115
 30
0.0
 11
1213.7756381521581
 21
2498.122337197115
 31
0.0
  0
LINE
  5
5AA7
  8
01_FRAME0
 62
     7
 10
1218.0850213507549
 20
2503.1658215372058
 30
0.0
 11
1218.1712012142989
 21
2503.697481811947
 31
0.0
  0
LINE
  5
5AA8
  8
01_FRAME0
 62
     7
 10
1217.2525392697651
 20
2498.0300782939689
 30
0.0
 11
1217.2674940445729
 21
2498.122337197115
 31
0.0
  0
LINE
  5
5AA9
  8
01_FRAME0
 62
     7
 10
1221.694490957804
 20
2503.8424880024668
 30
0.0
 11
1222.181734980461
 21
2507.9274358156931
 31
0.0
  0
LINE
  5
5AAA
  8
01_FRAME0
 62
     7
 10
1222.181734980461
 20
2507.9274358156931
 30
0.0
 11
1219.8515238397149
 21
2507.9274358156931
 31
0.0
  0
LINE
  5
5AAB
  8
01_FRAME0
 62
     7
 10
1225.8688965047961
 20
2496.5180901426811
 30
0.0
 11
1226.6824531173961
 21
2502.9536989759558
 31
0.0
  0
LINE
  5
5AAC
  8
01_FRAME0
 62
     7
 10
1224.3996468897881
 20
2502.8845243368082
 30
0.0
 11
1223.5948349797591
 21
2496.5180901426811
 31
0.0
  0
LINE
  5
5AAD
  8
01_FRAME0
 62
     7
 10
1229.8429935259619
 20
2495.2032964821728
 30
0.0
 11
1231.2868095356121
 21
2505.3662231502749
 31
0.0
  0
LINE
  5
5AAE
  8
01_FRAME0
 62
     7
 10
1229.3235253158739
 20
2507.4095629169801
 30
0.0
 11
1227.59705743727
 21
2495.2032964821728
 31
0.0
  0
LINE
  5
5AAF
  8
01_FRAME0
 62
     7
 10
1223.5948349797591
 20
2496.5180901426811
 30
0.0
 11
1225.8688965047961
 21
2496.5180901426811
 31
0.0
  0
LINE
  5
5AB0
  8
01_FRAME0
 62
     7
 10
1227.59705743727
 20
2495.2032964821728
 30
0.0
 11
1229.8429935259619
 21
2495.2032964821728
 31
0.0
  0
LINE
  5
5AB1
  8
01_FRAME0
 62
     7
 10
1233.074391274477
 20
2507.4095629169801
 30
0.0
 11
1229.3235253158739
 21
2507.4095629169801
 31
0.0
  0
LINE
  5
5AB2
  8
01_FRAME0
 62
     7
 10
1231.2868095356121
 20
2505.3662231502749
 30
0.0
 11
1232.7077078476659
 21
2498.3681685925599
 31
0.0
  0
LINE
  5
5AB3
  8
01_FRAME0
 62
     7
 10
1234.1820808537591
 20
2501.579131064158
 30
0.0
 11
1233.074391274477
 21
2507.4095629169801
 31
0.0
  0
LINE
  5
5AB4
  8
01_FRAME0
 62
     7
 10
1237.1308268659441
 20
2507.4095629169801
 30
0.0
 11
1234.1820808537591
 21
2501.579131064158
 31
0.0
  0
LINE
  5
5AB5
  8
01_FRAME0
 62
     7
 10
1232.7077078476659
 20
2498.3681685925599
 30
0.0
 11
1234.7473844590429
 21
2498.3681685925599
 31
0.0
  0
LINE
  5
5AB6
  8
01_FRAME0
 62
     7
 10
1254.6017093616981
 20
2507.0977788109249
 30
0.0
 11
1252.528575879471
 21
2506.8617259433499
 31
0.0
  0
LINE
  5
5AB7
  8
01_FRAME0
 62
     7
 10
1253.4175704626709
 20
2498.5945958205789
 30
0.0
 11
1254.0787964248959
 21
2503.2536596148989
 31
0.0
  0
LINE
  5
5AB8
  8
01_FRAME0
 62
     7
 10
1253.0329704849839
 20
2496.5495158139511
 30
0.0
 11
1255.1674984924909
 21
2496.5495158139511
 31
0.0
  0
LINE
  5
5AB9
  8
01_FRAME0
 62
     7
 10
1248.569510671884
 20
2496.5818064466312
 30
0.0
 11
1248.489269581333
 21
2497.491009656575
 31
0.0
  0
ARC
  5
5ABA
  8
01_FRAME0
 62
     7
 10
1250.4815259662871
 20
2497.6668348442099
 30
0.0
 40
2.0
 50
171.34562025558941
 51
185.04353146784209
  0
LINE
  5
5ABB
  8
01_FRAME0
 62
     7
 10
1239.078832620617
 20
2495.2032964821728
 30
0.0
 11
1240.828218196817
 21
2507.4095629169801
 31
0.0
  0
LINE
  5
5ABC
  8
01_FRAME0
 62
     7
 10
1243.278861951502
 20
2496.5510534347068
 30
0.0
 11
1245.2474754581531
 21
2496.5510534347068
 31
0.0
  0
LINE
  5
5ABD
  8
01_FRAME0
 62
     7
 10
1246.44709928165
 20
2496.5818064466312
 30
0.0
 11
1248.569510671884
 21
2496.5818064466312
 31
0.0
  0
LINE
  5
5ABE
  8
01_FRAME0
 62
     7
 10
1253.0329704849819
 20
2496.5495158139511
 30
0.0
 11
1253.186768434877
 21
2496.5495158139511
 31
0.0
  0
LINE
  5
5ABF
  8
01_FRAME0
 62
     7
 10
1246.81621433487
 20
2501.4715259923601
 30
0.0
 11
1243.863294108048
 21
2501.4715259923601
 31
0.0
  0
LINE
  5
5AC0
  8
01_FRAME0
 62
     7
 10
1242.2945552313331
 20
2503.1629383988238
 30
0.0
 11
1246.450549569591
 21
2503.1629383988238
 31
0.0
  0
LINE
  5
5AC1
  8
01_FRAME0
 62
     7
 10
1247.59107799548
 20
2504.7313390228428
 30
0.0
 11
1243.3403811712469
 21
2504.7313390228428
 31
0.0
  0
LINE
  5
5AC2
  8
01_FRAME0
 62
     7
 10
1242.386834027792
 20
2504.0547740867819
 30
0.0
 11
1242.2945552313331
 21
2503.1629383988238
 31
0.0
  0
LINE
  5
5AC3
  8
01_FRAME0
 62
     7
 10
1244.0477328052471
 20
2497.8682062436442
 30
0.0
 11
1245.529832574465
 21
2497.839224002149
 31
0.0
  0
LINE
  5
5AC4
  8
01_FRAME0
 62
     7
 10
1246.0257498725521
 20
2500.0515357439021
 30
0.0
 11
1244.4502784445001
 21
2500.0515357439021
 31
0.0
  0
LINE
  5
5AC5
  8
01_FRAME0
 62
     7
 10
1250.7459048556709
 20
2504.760554347698
 30
0.0
 11
1250.4799248880979
 21
2503.2536596148989
 31
0.0
  0
LINE
  5
5AC6
  8
01_FRAME0
 62
     7
 10
1248.5042979444829
 20
2497.9677822645222
 30
0.0
 11
1249.2872947028179
 21
2503.1120799958312
 31
0.0
  0
LINE
  5
5AC7
  8
01_FRAME0
 62
     7
 10
1246.3257751155711
 20
2498.6120839963719
 30
0.0
 11
1246.5044255146561
 21
2499.5997125346239
 31
0.0
  0
LINE
  5
5AC8
  8
01_FRAME0
 62
     7
 10
1246.970012218452
 20
2502.5786322995941
 30
0.0
 11
1246.81621433487
 21
2501.4715259923601
 31
0.0
  0
LINE
  5
5AC9
  8
01_FRAME0
 62
     7
 10
1246.981641412917
 20
2502.711115189546
 30
0.0
 11
1246.970012218452
 21
2502.5786322995941
 31
0.0
  0
LINE
  5
5ACA
  8
01_FRAME0
 62
     7
 10
1251.98714461138
 20
2503.2536596148989
 30
0.0
 11
1251.279674147969
 21
2498.6407166459821
 31
0.0
  0
LINE
  5
5ACB
  8
01_FRAME0
 62
     7
 10
1250.4799248880979
 20
2503.2536596148989
 30
0.0
 11
1251.98714461138
 21
2503.2536596148989
 31
0.0
  0
LINE
  5
5ACC
  8
01_FRAME0
 62
     7
 10
1252.528575879471
 20
2506.8617259433499
 30
0.0
 11
1252.202461714706
 21
2504.760554347698
 31
0.0
  0
LINE
  5
5ACD
  8
01_FRAME0
 62
     7
 10
1252.202461714706
 20
2504.760554347698
 30
0.0
 11
1250.7459048556709
 21
2504.760554347698
 31
0.0
  0
LINE
  5
5ACE
  8
01_FRAME0
 62
     7
 10
1256.108929078119
 20
2497.2260807500152
 30
0.0
 11
1256.2012078151299
 21
2498.1179164379741
 31
0.0
  0
LINE
  5
5ACF
  8
01_FRAME0
 62
     7
 10
1256.847159125108
 20
2503.2536596148989
 30
0.0
 11
1257.0317166517191
 21
2504.760554347698
 31
0.0
  0
LINE
  5
5AD0
  8
01_FRAME0
 62
     7
 10
1256.2012078151299
 20
2498.1179164379741
 30
0.0
 11
1254.1077375916359
 21
2498.1179164379741
 31
0.0
  0
LINE
  5
5AD1
  8
01_FRAME0
 62
     7
 10
1254.0787964248959
 20
2503.2536596148989
 30
0.0
 11
1256.847159125108
 21
2503.2536596148989
 31
0.0
  0
LINE
  5
5AD2
  8
01_FRAME0
 62
     7
 10
1254.263353951507
 20
2504.760554347698
 30
0.0
 11
1254.6017093616981
 21
2507.0977788109249
 31
0.0
  0
LINE
  5
5AD3
  8
01_FRAME0
 62
     7
 10
1257.0317166517191
 20
2504.760554347698
 30
0.0
 11
1254.263353951507
 21
2504.760554347698
 31
0.0
  0
ARC
  5
5AD4
  8
01_FRAME0
 62
     7
 10
1205.4452709532111
 20
2502.476134106651
 30
0.0
 40
0.7125354470469743
 50
129.9788673075646
 51
171.82154662075291
  0
ARC
  5
5AD5
  8
01_FRAME0
 62
     7
 10
1205.3425423775359
 20
2502.6237658501191
 30
0.0
 40
0.5336483341366188
 50
91.829758024394337
 51
131.711498769195
  0
ARC
  5
5AD6
  8
01_FRAME0
 62
     7
 10
1214.3271082125621
 20
2502.4848135607122
 30
0.0
 40
0.7125354470469743
 50
129.9788673075646
 51
171.82154662075291
  0
ARC
  5
5AD7
  8
01_FRAME0
 62
     7
 10
1214.2243796368871
 20
2502.6324453041761
 30
0.0
 40
0.5336483341366188
 50
91.829758024394337
 51
131.711498769195
  0
ARC
  5
5AD8
  8
01_FRAME0
 62
     7
 10
1207.25465410364
 20
2502.60985989552
 30
0.0
 40
0.5479093514715845
 50
41.694258406646668
 51
92.741670228047298
  0
ARC
  5
5AD9
  8
01_FRAME0
 62
     7
 10
1207.3804243113891
 20
2502.7218944568472
 30
0.0
 40
0.3794757203633443
 50
357.49651121804118
 51
41.694258406683453
  0
ARC
  5
5ADA
  8
01_FRAME0
 62
     7
 10
1246.476757670202
 20
2502.615656211196
 30
0.0
 40
0.5479093514715845
 50
41.694258406646668
 51
92.741670228047298
  0
ARC
  5
5ADB
  8
01_FRAME0
 62
     7
 10
1246.6025278779521
 20
2502.7276907725231
 30
0.0
 40
0.3794757203633443
 50
357.49651121804118
 51
41.694258406683453
  0
ARC
  5
5ADC
  8
01_FRAME0
 62
     7
 10
1204.893303557707
 20
2499.1190363911978
 30
0.0
 40
0.9967086962694947
 50
242.0549458700896
 51
270.25018750738548
  0
ARC
  5
5ADD
  8
01_FRAME0
 62
     7
 10
1204.619134495005
 20
2498.6022043005341
 30
0.0
 40
0.4116581985513369
 50
180.44368064352511
 51
242.0549458700896
  0
ARC
  5
5ADE
  8
01_FRAME0
 62
     7
 10
1213.7712859420301
 20
2499.1190363911978
 30
0.0
 40
0.9967086962694947
 50
242.0549458700896
 51
270.25018750738548
  0
ARC
  5
5ADF
  8
01_FRAME0
 62
     7
 10
1213.49711687933
 20
2498.6022043005341
 30
0.0
 40
0.4116581985513369
 50
180.44368064352511
 51
242.0549458700896
  0
ARC
  5
5AE0
  8
01_FRAME0
 62
     7
 10
1204.661751621655
 20
2502.5795928784419
 30
0.0
 40
1.972452137906753
 50
116.43431189308799
 51
170.9737479913808
  0
ARC
  5
5AE1
  8
01_FRAME0
 62
     7
 10
1205.313780526729
 20
2501.268061851355
 30
0.0
 40
3.4371211544680871
 50
91.809445418565659
 51
116.43431189308799
  0
ARC
  5
5AE2
  8
01_FRAME0
 62
     7
 10
1213.540801959962
 20
2502.5795928784419
 30
0.0
 40
1.972452137906753
 50
116.43431189308799
 51
170.9737479913808
  0
ARC
  5
5AE3
  8
01_FRAME0
 62
     7
 10
1214.1928308650381
 20
2501.268061851355
 30
0.0
 40
3.4371211544680871
 50
91.809445418565659
 51
116.43431189308799
  0
ARC
  5
5AE4
  8
01_FRAME0
 62
     7
 10
1207.9875674633849
 20
2502.4996248102962
 30
0.0
 40
2.2127666704133442
 50
44.53257550758628
 51
84.852989749609165
  0
ARC
  5
5AE5
  8
01_FRAME0
 62
     7
 10
1208.7479930095569
 20
2503.2477432362962
 30
0.0
 40
1.1460295000714911
 50
351.79615361502181
 51
44.53257550758628
  0
ARC
  5
5AE6
  8
01_FRAME0
 62
     7
 10
1203.851393060683
 20
2498.3309964684322
 30
0.0
 40
1.777318582695649
 50
213.3781401443897
 51
269.02243001409971
  0
ARC
  5
5AE7
  8
01_FRAME0
 62
     7
 10
1203.961158376411
 20
2498.4033132876152
 30
0.0
 40
1.908764947704904
 50
172.72155707448491
 51
213.3781401443897
  0
ARC
  5
5AE8
  8
01_FRAME0
 62
     7
 10
1207.9489130037171
 20
2497.66688178819
 30
0.0
 40
1.112961703990639
 50
269.68811547988628
 51
309.85159843335731
  0
ARC
  5
5AE9
  8
01_FRAME0
 62
     7
 10
1208.2312765295201
 20
2497.3285984912509
 30
0.0
 40
0.6723204103165288
 50
309.85159843335731
 51
351.61013221802148
  0
ARC
  5
5AEA
  8
01_FRAME0
 62
     7
 10
1212.7304433989891
 20
2498.3309964684322
 30
0.0
 40
1.777318582695649
 50
213.3781401443897
 51
269.02243001409971
  0
ARC
  5
5AEB
  8
01_FRAME0
 62
     7
 10
1212.840208714719
 20
2498.4033132876152
 30
0.0
 40
1.908764947704904
 50
172.72155707448491
 51
213.3781401443897
  0
ARC
  5
5AEC
  8
01_FRAME0
 62
     7
 10
1216.2127716750749
 20
2497.66688178819
 30
0.0
 40
1.112961703990639
 50
269.68811547988628
 51
309.85159843335731
  0
ARC
  5
5AED
  8
01_FRAME0
 62
     7
 10
1216.4951352008759
 20
2497.3285984912509
 30
0.0
 40
0.6723204103165288
 50
309.85159843335731
 51
351.61013221802148
  0
ARC
  5
5AEE
  8
01_FRAME0
 62
     7
 10
1217.1599596182939
 20
2503.6604117479492
 30
0.0
 40
1.0435006424816331
 50
29.017138568452069
 51
91.670039206039633
  0
ARC
  5
5AEF
  8
01_FRAME0
 62
     7
 10
1217.3609384648421
 20
2503.771894744134
 30
0.0
 40
0.8136725432480448
 50
354.75278767927108
 51
29.017138568452069
  0
LINE
  5
5AF0
  8
01_FRAME0
 62
     7
 10
1260.080264648549
 20
2500.1827850172222
 30
0.0
 11
1265.1248366888881
 21
2500.1827850172222
 31
0.0
  0
LINE
  5
5AF1
  8
01_FRAME0
 62
     7
 10
1264.663442905518
 20
2498.122337197115
 30
0.0
 11
1260.5724180086329
 21
2498.122337197115
 31
0.0
  0
LINE
  5
5AF2
  8
01_FRAME0
 62
     7
 10
1259.495832492003
 20
2496.5539365730929
 30
0.0
 11
1263.6297335234269
 21
2496.5539365730929
 31
0.0
  0
LINE
  5
5AF3
  8
01_FRAME0
 62
     7
 10
1263.860840326347
 20
2504.70346914931
 30
0.0
 11
1260.8800138421091
 21
2504.70346914931
 31
0.0
  0
LINE
  5
5AF4
  8
01_FRAME0
 62
     7
 10
1260.2866617213051
 20
2501.5051537874729
 30
0.0
 11
1263.2691588008549
 21
2501.5051537874729
 31
0.0
  0
LINE
  5
5AF5
  8
01_FRAME0
 62
     7
 10
1262.9032082438291
 20
2503.1571420831478
 30
0.0
 11
1261.0002652942451
 21
2503.1571420831478
 31
0.0
  0
LINE
  5
5AF6
  8
01_FRAME0
 62
     7
 10
1258.3884874649671
 20
2502.8890449603982
 30
0.0
 11
1257.7425361549911
 21
2498.6451374051198
 31
0.0
  0
LINE
  5
5AF7
  8
01_FRAME0
 62
     7
 10
1259.882250879672
 20
2498.599016579718
 30
0.0
 11
1260.080264648549
 21
2500.1827850172222
 31
0.0
  0
LINE
  5
5AF8
  8
01_FRAME0
 62
     7
 10
1260.4147443764789
 20
2502.577497054323
 30
0.0
 11
1260.2866617213051
 21
2501.5051537874729
 31
0.0
  0
LINE
  5
5AF9
  8
01_FRAME0
 62
     7
 10
1264.571164109057
 20
2497.2305015091538
 30
0.0
 11
1264.663442905518
 21
2498.122337197115
 31
0.0
  0
LINE
  5
5AFA
  8
01_FRAME0
 62
     7
 10
1265.1248366888881
 20
2500.1827850172222
 30
0.0
 11
1265.557057033684
 21
2503.0842101222938
 31
0.0
  0
LINE
  5
5AFB
  8
01_FRAME0
 62
     7
 10
1265.1248366888881
 20
2500.1827850172222
 30
0.0
 11
1265.1248366888881
 21
2500.1827850172222
 31
0.0
  0
LINE
  5
5AFC
  8
01_FRAME0
 62
     7
 10
1263.2691588008549
 20
2501.5051537874729
 30
0.0
 11
1263.434300087155
 21
2502.7053188738701
 31
0.0
  0
ARC
  5
5AFD
  8
01_FRAME0
 62
     7
 10
1261.120033194012
 20
2502.476134106651
 30
0.0
 40
0.7125354470469743
 50
129.9788673075646
 51
171.82154662075291
  0
ARC
  5
5AFE
  8
01_FRAME0
 62
     7
 10
1261.0173046183361
 20
2502.6237658501191
 30
0.0
 40
0.5336483341366188
 50
91.829758024394337
 51
131.711498769195
  0
ARC
  5
5AFF
  8
01_FRAME0
 62
     7
 10
1262.9294163444399
 20
2502.60985989552
 30
0.0
 40
0.5479093514715845
 50
41.694258406646668
 51
92.741670228047298
  0
ARC
  5
5B00
  8
01_FRAME0
 62
     7
 10
1263.0551865521891
 20
2502.7218944568472
 30
0.0
 40
0.3794757203633443
 50
357.49651121804118
 51
41.694258406683453
  0
ARC
  5
5B01
  8
01_FRAME0
 62
     7
 10
1260.568065798507
 20
2499.1190363911978
 30
0.0
 40
0.9967086962694947
 50
242.0549458700896
 51
270.25018750738548
  0
ARC
  5
5B02
  8
01_FRAME0
 62
     7
 10
1260.293896735805
 20
2498.6022043005341
 30
0.0
 40
0.4116581985513369
 50
180.44368064352511
 51
242.0549458700896
  0
ARC
  5
5B03
  8
01_FRAME0
 62
     7
 10
1260.336513862454
 20
2502.5795928784419
 30
0.0
 40
1.972452137906753
 50
116.43431189308799
 51
170.9737479913808
  0
ARC
  5
5B04
  8
01_FRAME0
 62
     7
 10
1260.9885427675299
 20
2501.268061851355
 30
0.0
 40
3.4371211544680871
 50
91.809445418565659
 51
116.43431189308799
  0
ARC
  5
5B05
  8
01_FRAME0
 62
     7
 10
1263.6623297041849
 20
2502.4996248102962
 30
0.0
 40
2.2127666704133442
 50
44.53257550758628
 51
84.852989749609165
  0
ARC
  5
5B06
  8
01_FRAME0
 62
     7
 10
1264.4227552503571
 20
2503.2477432362962
 30
0.0
 40
1.1460295000714911
 50
351.79615361502181
 51
44.53257550758628
  0
ARC
  5
5B07
  8
01_FRAME0
 62
     7
 10
1259.526155301483
 20
2498.3309964684322
 30
0.0
 40
1.777318582695649
 50
213.3781401443897
 51
269.02243001409971
  0
ARC
  5
5B08
  8
01_FRAME0
 62
     7
 10
1259.6359206172119
 20
2498.4033132876152
 30
0.0
 40
1.908764947704904
 50
172.72155707448491
 51
213.3781401443897
  0
ARC
  5
5B09
  8
01_FRAME0
 62
     7
 10
1263.623675244517
 20
2497.66688178819
 30
0.0
 40
1.112961703990639
 50
269.68811547988628
 51
309.85159843335731
  0
ARC
  5
5B0A
  8
01_FRAME0
 62
     7
 10
1263.90603877032
 20
2497.3285984912509
 30
0.0
 40
0.6723204103165288
 50
309.85159843335731
 51
351.61013221802148
  0
LINE
  5
5B0B
  8
01_FRAME0
 62
     7
 10
1224.0340421717749
 20
2504.70346914931
 30
0.0
 11
1225.3096308045699
 21
2504.70346914931
 31
0.0
  0
ARC
  5
5B0C
  8
01_FRAME0
 62
     7
 10
1224.9377958784071
 20
2503.0707333385649
 30
0.0
 40
1.748578257781626
 50
356.16225827570821
 51
57.030568872310127
  0
ARC
  5
5B0D
  8
01_FRAME0
 62
     7
 10
1225.3286628199701
 20
2503.6733192463412
 30
0.0
 40
1.030325696171674
 50
57.030568872310127
 51
91.058418890025166
  0
ARC
  5
5B0E
  8
01_FRAME0
 62
     7
 10
1224.188462900888
 20
2500.1297143495121
 30
0.0
 40
4.5763608610145283
 50
91.933705877925334
 51
118.1284095955082
  0
ARC
  5
5B0F
  8
01_FRAME0
 62
     7
 10
1222.4370062772589
 20
2503.4059902371791
 30
0.0
 40
0.8613125441598905
 50
118.1284095955082
 51
149.55027737963161
  0
ARC
  5
5B10
  8
01_FRAME0
 62
     7
 10
1255.161440213579
 20
2497.6624610290478
 30
0.0
 40
1.112961703990639
 50
269.68811547988628
 51
309.85159843335731
  0
ARC
  5
5B11
  8
01_FRAME0
 62
     7
 10
1255.44380373938
 20
2497.3241777321118
 30
0.0
 40
0.6723204103165288
 50
309.85159843335731
 51
351.61013221802148
  0
ARC
  5
5B12
  8
01_FRAME0
 62
     7
 10
1253.063293294462
 20
2498.32657570929
 30
0.0
 40
1.777318582695649
 50
213.3781401443897
 51
269.02243001409971
  0
ARC
  5
5B13
  8
01_FRAME0
 62
     7
 10
1253.1730586101901
 20
2498.3988925284748
 30
0.0
 40
1.908764947704904
 50
172.72155707448491
 51
213.3781401443897
  0
ARC
  5
5B14
  8
01_FRAME0
 62
     7
 10
1254.1033853815049
 20
2499.114615632056
 30
0.0
 40
0.9967086962694947
 50
242.0549458700896
 51
270.25018750738548
  0
ARC
  5
5B15
  8
01_FRAME0
 62
     7
 10
1253.8292163188021
 20
2498.5977835413969
 30
0.0
 40
0.4116581985513369
 50
180.44368064352511
 51
242.0549458700896
  0
ARC
  5
5B16
  8
01_FRAME0
 62
     7
 10
1247.3925673733179
 20
2502.527494683834
 30
0.0
 40
2.2127666704133442
 50
44.53257550758628
 51
84.852989749609165
  0
ARC
  5
5B17
  8
01_FRAME0
 62
     7
 10
1248.1529929194901
 20
2503.2756131098349
 30
0.0
 40
1.1460295000714911
 50
351.79615361502181
 51
44.53257550758628
  0
ARC
  5
5B18
  8
01_FRAME0
 62
     7
 10
1243.337725783088
 20
2503.6266393782148
 30
0.0
 40
1.104702836028159
 50
89.862277278542265
 51
130.9842092775009
  0
ARC
  5
5B19
  8
01_FRAME0
 62
     7
 10
1243.0617126919319
 20
2503.9443329095839
 30
0.0
 40
0.6838555877756896
 50
130.9842092775009
 51
170.70615505540579
  0
ARC
  5
5B1A
  8
01_FRAME0
 62
     7
 10
1248.336035727531
 20
2497.5703876813118
 30
0.0
 40
2.1319882162301562
 50
189.2518512240257
 51
207.62546243343959
  0
ARC
  5
5B1B
  8
01_FRAME0
 62
     7
 10
1244.992542737192
 20
2497.9762408859592
 30
0.0
 40
1.4478086763875591
 50
280.14161684226229
 51
328.86389698779629
  0
ARC
  5
5B1C
  8
01_FRAME0
 62
     7
 10
1243.9168629717719
 20
2498.9382177650868
 30
0.0
 40
2.533874542577931
 50
91.211385343645304
 51
150.30133372253451
  0
ARC
  5
5B1D
  8
01_FRAME0
 62
     7
 10
1244.954827986207
 20
2498.3462049955142
 30
0.0
 40
3.72880152383041
 50
150.30133372253451
 51
172.84077312505781
  0
ARC
  5
5B1E
  8
01_FRAME0
 62
     7
 10
1243.5696526256579
 20
2498.5201919705969
 30
0.0
 40
2.3327419810566861
 50
172.84077312505781
 51
205.63064895958891
  0
ARC
  5
5B1F
  8
01_FRAME0
 62
     7
 10
1242.6114004617109
 20
2498.0604440371412
 30
0.0
 40
1.2699083289608151
 50
205.63064895958891
 51
237.51101652280329
  0
ARC
  5
5B20
  8
01_FRAME0
 62
     7
 10
1243.4513566700809
 20
2499.3794707814068
 30
0.0
 40
2.8336723725668431
 50
237.51101652280329
 51
266.51006466087063
  0
ARC
  5
5B21
  8
01_FRAME0
 62
     7
 10
1245.9995417719419
 20
2499.5042535562739
 30
0.0
 40
0.5479093514715845
 50
41.694258406646668
 51
92.741670228047298
  0
ARC
  5
5B22
  8
01_FRAME0
 62
     7
 10
1246.12531197969
 20
2499.6162881176001
 30
0.0
 40
0.3794757203633443
 50
357.49651121804118
 51
41.694258406683453
  0
ARC
  5
5B23
  8
01_FRAME0
 62
     7
 10
1245.376375735058
 20
2498.7605366377061
 30
0.0
 40
0.9340053393850768
 50
279.45655767728039
 51
324.92940398283741
  0
ARC
  5
5B24
  8
01_FRAME0
 62
     7
 10
1245.085019308769
 20
2498.9650820651359
 30
0.0
 40
1.2899932591550991
 50
324.92940398283741
 51
344.11881738720848
  0
ARC
  5
5B25
  8
01_FRAME0
 62
     7
 10
1244.438608473371
 20
2499.0143778195588
 30
0.0
 40
1.0372235767923501
 50
89.35534226611162
 51
126.2501753015535
  0
ARC
  5
5B26
  8
01_FRAME0
 62
     7
 10
1244.2696130798579
 20
2499.2568386803018
 30
0.0
 40
0.7417975737914082
 50
126.79741703498409
 51
163.58374767656801
  0
ARC
  5
5B27
  8
01_FRAME0
 62
     7
 10
1236.20501052129
 20
2501.3557588216372
 30
0.0
 40
7.5918802454596772
 50
343.74206189479008
 51
345.59022698623642
  0
ARC
  5
5B28
  8
01_FRAME0
 62
     7
 10
1245.640391857017
 20
2498.646495630494
 30
0.0
 40
2.2250520557854911
 50
164.78824619774539
 51
186.82014585812891
  0
ARC
  5
5B29
  8
01_FRAME0
 62
     7
 10
1243.948074079123
 20
2498.4290523879372
 30
0.0
 40
0.5191023098803563
 50
185.171295796316
 51
236.50138254922001
  0
ARC
  5
5B2A
  8
01_FRAME0
 62
     7
 10
1244.0907334589849
 20
2498.6445985001651
 30
0.0
 40
0.7775821449902707
 50
236.50138254922001
 51
266.82989961253043
  0
LINE
  5
5B2B
  8
01_FRAME
 62
     7
 10
1141.035047236031
 20
2725.8804667223521
 30
0.0
 11
1146.1447556037181
 21
2734.7307412270479
 31
0.0
  0
LINE
  5
5B2C
  8
01_FRAME
 62
     7
 10
1141.035047236031
 20
2725.8804667223521
 30
0.0
 11
1151.2544639714069
 21
2725.8804667223521
 31
0.0
  0
LINE
  5
5B2D
  8
01_FRAME
 62
     7
 10
1151.2544639714069
 20
2725.8804667223521
 30
0.0
 11
1146.1447556037181
 21
2734.7307412270479
 31
0.0
  0
TEXT
  5
5B2E
  8
01_FRAME
 62
     7
 10
1143.558838000981
 20
2726.4180959383448
 30
0.0
 40
5.0
  1
G
  7
MECHTRONICS
  0
TEXT
  5
5B2F
  8
62_TEXT
 10
1356.8292332083161
 20
2532.0770356515009
 30
0.0
 40
4.0
  1
06-10-07
  7
MECHTRONICS
  0
TEXT
  5
5B30
  8
01_FRAME0
 62
     7
 10
1384.7584303333799
 20
2531.9826973785562
 30
0.0
 40
4.0
  1
F
  7
MECHTRONICS
  0
TEXT
  5
5B31
  8
01_FRAME0
 62
     7
 10
1272.9954448884921
 20
2532.0770356515009
 30
0.0
 40
4.0
  1
Motor position for 28mm tall rail
  7
MECHTRONICS
  0
ENDSEC
  0
EOF
