  0
SECTION
  2
HEADER
  9
$ACADVER
  1
AC1009
  9
$INSBASE
 10
0.0
 20
0.0
 30
0.0
  9
$EXTMIN
 10
503.55426815072019
 20
3678.233038479455
 30
0.0
  9
$EXTMAX
 10
773.18719422407071
 20
3871.6194419528101
 30
0.0
  9
$LIMMIN
 10
0.0
 20
0.0
  9
$LIMMAX
 10
0.0
 20
0.0
  9
$ORTHOMODE
 70
     0
  9
$REGENMODE
 70
     1
  9
$FILLMODE
 70
     1
  9
$QTEXTMODE
 70
     0
  9
$MIRRTEXT
 70
     1
  9
$DRAGMODE
 70
     2
  9
$LTSCALE
 40
10.0
  9
$OSMODE
 70
    47
  9
$ATTMODE
 70
     1
  9
$TEXTSIZE
 40
2.0
  9
$TRACEWID
 40
0.05
  9
$TEXTSTYLE
  7
MECHTRONICS
  9
$CLAYER
  8
50_DIMENSIONS
  9
$CELTYPE
  6
BYLAYER
  9
$CECOLOR
 62
   256
  9
$DIMSCALE
 40
1.0
  9
$DIMASZ
 40
2.0
  9
$DIMEXO
 40
1.0
  9
$DIMDLI
 40
6.0
  9
$DIMRND
 40
0.0
  9
$DIMDLE
 40
0.0
  9
$DIMEXE
 40
0.5
  9
$DIMTP
 40
0.0
  9
$DIMTM
 40
0.0
  9
$DIMTXT
 40
2.0
  9
$DIMCEN
 40
0.09
  9
$DIMTSZ
 40
0.0
  9
$DIMTOL
 70
     0
  9
$DIMLIM
 70
     0
  9
$DIMTIH
 70
     0
  9
$DIMTOH
 70
     1
  9
$DIMSE1
 70
     0
  9
$DIMSE2
 70
     0
  9
$DIMTAD
 70
     0
  9
$DIMZIN
 70
     0
  9
$DIMBLK
  1

  9
$DIMASO
 70
     1
  9
$DIMSHO
 70
     1
  9
$DIMPOST
  1

  9
$DIMAPOST
  1
"
  9
$DIMALT
 70
     1
  9
$DIMALTD
 70
     1
  9
$DIMALTF
 40
0.03937
  9
$DIMLFAC
 40
1.0
  9
$DIMTOFL
 70
     0
  9
$DIMTVP
 40
0.0
  9
$DIMTIX
 70
     0
  9
$DIMSOXD
 70
     0
  9
$DIMSAH
 70
     0
  9
$DIMBLK1
  1

  9
$DIMBLK2
  1

  9
$DIMSTYLE
  2
MECHTRONICS
  9
$DIMCLRD
 70
     7
  9
$DIMCLRE
 70
     7
  9
$DIMCLRT
 70
     0
  9
$DIMTFAC
 40
1.0
  9
$DIMGAP
 40
0.5
  9
$LUNITS
 70
     2
  9
$LUPREC
 70
    10
  9
$SKETCHINC
 40
0.1
  9
$FILLETRAD
 40
0.0
  9
$AUNITS
 70
     0
  9
$AUPREC
 70
     0
  9
$MENU
  1
acad
  9
$ELEVATION
 40
0.0
  9
$PELEVATION
 40
0.0
  9
$THICKNESS
 40
0.0
  9
$LIMCHECK
 70
     0
  9
$BLIPMODE
 70
     0
  9
$CHAMFERA
 40
0.0
  9
$CHAMFERB
 40
0.0
  9
$SKPOLY
 70
     0
  9
$TDCREATE
 40
2444972.083333333
  9
$TDUPDATE
 40
2454646.8319856711
  9
$TDINDWG
 40
1.2047679630000001
  9
$TDUSRTIMER
 40
1.2047672454
  9
$USRTIMER
 70
     1
  9
$ANGBASE
 50
0.0
  9
$ANGDIR
 70
     0
  9
$PDMODE
 70
     0
  9
$PDSIZE
 40
0.0
  9
$PLINEWID
 40
0.0
  9
$COORDS
 70
     1
  9
$SPLFRAME
 70
     0
  9
$SPLINETYPE
 70
     6
  9
$SPLINESEGS
 70
     8
  9
$ATTDIA
 70
     0
  9
$ATTREQ
 70
     1
  9
$HANDLING
 70
     1
  9
$HANDSEED
  5
5EBE
  9
$SURFTAB1
 70
     6
  9
$SURFTAB2
 70
     6
  9
$SURFTYPE
 70
     6
  9
$SURFU
 70
     6
  9
$SURFV
 70
     6
  9
$UCSNAME
  2

  9
$UCSORG
 10
0.0
 20
0.0
 30
0.0
  9
$UCSXDIR
 10
1.0
 20
0.0
 30
0.0
  9
$UCSYDIR
 10
0.0
 20
1.0
 30
0.0
  9
$PUCSNAME
  2

  9
$PUCSORG
 10
0.0
 20
0.0
 30
0.0
  9
$PUCSXDIR
 10
1.0
 20
0.0
 30
0.0
  9
$PUCSYDIR
 10
0.0
 20
1.0
 30
0.0
  9
$USERI1
 70
     0
  9
$USERI2
 70
     0
  9
$USERI3
 70
     0
  9
$USERI4
 70
     0
  9
$USERI5
 70
     0
  9
$USERR1
 40
0.0
  9
$USERR2
 40
0.0
  9
$USERR3
 40
0.0
  9
$USERR4
 40
0.0
  9
$USERR5
 40
0.0
  9
$WORLDVIEW
 70
     1
  9
$SHADEDGE
 70
     3
  9
$SHADEDIF
 70
    70
  9
$TILEMODE
 70
     1
  9
$MAXACTVP
 70
    16
  9
$PLIMCHECK
 70
     0
  9
$PEXTMIN
 10
1.0887500995726069
 20
0.7937499998122686
 30
0.0
  9
$PEXTMAX
 10
21.184573317709511
 20
7.1437499983104198
 30
0.0
  9
$PLIMMIN
 10
0.0
 20
0.0
  9
$PLIMMAX
 10
12.0
 20
9.0
  9
$UNITMODE
 70
     0
  9
$VISRETAIN
 70
     0
  9
$PLINEGEN
 70
     1
  9
$PSLTSCALE
 70
     0
  0
ENDSEC
  0
SECTION
  2
TABLES
  0
TABLE
  2
VPORT
 70
     2
  0
VPORT
  2
*ACTIVE
 70
     0
 10
0.0
 20
0.0
 11
1.0
 21
1.0
 12
678.82303438246731
 22
3774.8868693063059
 13
0.0
 23
0.0
 14
1.0
 24
1.0
 15
0.0
 25
0.0
 16
0.0
 26
0.0
 36
1.0
 17
0.0
 27
0.0
 37
0.0
 40
202.56932347422591
 41
1.7423423423423421
 42
50.0
 43
0.0
 44
0.0
 50
0.0
 51
0.0
 71
     0
 72
   100
 73
     1
 74
     0
 75
     0
 76
     0
 77
     0
 78
     0
  0
ENDTAB
  0
TABLE
  2
LTYPE
 70
     1
  0
LTYPE
  2
CONTINUOUS
 70
     0
  3
Solid line
 72
    65
 73
     0
 40
0.0
  0
ENDTAB
  0
TABLE
  2
LAYER
 70
     6
  0
LAYER
  2
0
 70
     0
 62
   221
  6
CONTINUOUS
  0
LAYER
  2
50_DIMENSIONS
 70
     0
 62
     7
  6
CONTINUOUS
  0
LAYER
  2
10_OUTLINE
 70
     0
 62
     2
  6
CONTINUOUS
  0
LAYER
  2
62_TEXT
 70
     0
 62
     7
  6
CONTINUOUS
  0
LAYER
  2
01_FRAME
 70
     0
 62
     4
  6
CONTINUOUS
  0
LAYER
  2
DEFPOINTS
 70
     0
 62
     7
  6
CONTINUOUS
  0
ENDTAB
  0
TABLE
  2
STYLE
 70
     2
  0
STYLE
  2
STANDARD
 70
     0
 40
0.0
 41
1.0
 50
0.0
 71
     0
 42
1.345608723561553
  3
txt
  4

  0
STYLE
  2
MECHTRONICS
 70
     0
 40
2.0
 41
1.0
 50
0.0
 71
     0
 42
2.0
  3
txt
  4

  0
ENDTAB
  0
TABLE
  2
VIEW
 70
     0
  0
ENDTAB
  0
TABLE
  2
UCS
 70
    16
  0
UCS
  2
AUDIT_D_000731094948-0
 70
     0
 10
0.0
 20
0.0
 30
1.0
 11
1.0
 21
0.0
 31
0.0
 12
0.0
 22
1.0
 32
0.0
  0
UCS
  2
AUDIT_D_000731094948-1
 70
     0
 10
0.0
 20
0.0
 30
1.0
 11
1.0
 21
0.0
 31
0.0
 12
0.0
 22
1.0
 32
0.0
  0
UCS
  2
AUDIT_D_000731094948-2
 70
     0
 10
0.0
 20
0.0
 30
1.0
 11
1.0
 21
0.0
 31
0.0
 12
0.0
 22
1.0
 32
0.0
  0
UCS
  2
AUDIT_D_000731094948-3
 70
     0
 10
0.0
 20
0.0
 30
1.0
 11
1.0
 21
0.0
 31
0.0
 12
0.0
 22
1.0
 32
0.0
  0
UCS
  2
AUDIT_D_000731094948-4
 70
     0
 10
0.0
 20
0.0
 30
1.0
 11
1.0
 21
0.0
 31
0.0
 12
0.0
 22
1.0
 32
0.0
  0
UCS
  2
AUDIT_D_000731094948-5
 70
     0
 10
0.0
 20
0.0
 30
1.0
 11
1.0
 21
0.0
 31
0.0
 12
0.0
 22
1.0
 32
0.0
  0
UCS
  2
AUDIT_D_000731094948-6
 70
     0
 10
0.0
 20
0.0
 30
1.0
 11
1.0
 21
0.0
 31
0.0
 12
0.0
 22
1.0
 32
0.0
  0
UCS
  2
AUDIT_D_000731094948-7
 70
     0
 10
0.0
 20
0.0
 30
1.0
 11
1.0
 21
0.0
 31
0.0
 12
0.0
 22
1.0
 32
0.0
  0
UCS
  2
AUDIT_D_000731094948-8
 70
     0
 10
0.0
 20
0.0
 30
1.0
 11
1.0
 21
0.0
 31
0.0
 12
0.0
 22
1.0
 32
0.0
  0
UCS
  2
AUDIT_D_000731094948-9
 70
     0
 10
0.0
 20
0.0
 30
1.0
 11
1.0
 21
0.0
 31
0.0
 12
0.0
 22
1.0
 32
0.0
  0
UCS
  2
AUDIT_D_000731094948-10
 70
     0
 10
0.0
 20
0.0
 30
1.0
 11
1.0
 21
0.0
 31
0.0
 12
0.0
 22
1.0
 32
0.0
  0
UCS
  2
AUDIT_D_000731094948-11
 70
     0
 10
0.0
 20
0.0
 30
1.0
 11
1.0
 21
0.0
 31
0.0
 12
0.0
 22
1.0
 32
0.0
  0
UCS
  2
AUDIT_D_000731094948-12
 70
     0
 10
0.0
 20
0.0
 30
1.0
 11
1.0
 21
0.0
 31
0.0
 12
0.0
 22
1.0
 32
0.0
  0
UCS
  2
AUDIT_D_000731094948-13
 70
     0
 10
0.0
 20
0.0
 30
1.0
 11
1.0
 21
0.0
 31
0.0
 12
0.0
 22
1.0
 32
0.0
  0
UCS
  2
AUDIT_D_000731094948-14
 70
     0
 10
0.0
 20
0.0
 30
1.0
 11
1.0
 21
0.0
 31
0.0
 12
0.0
 22
1.0
 32
0.0
  0
UCS
  2
CK_VIEW_1
 70
     0
 10
0.0
 20
0.0
 30
1.0
 11
1.0
 21
0.0
 31
0.0
 12
0.0
 22
1.0
 32
0.0
  0
ENDTAB
  0
TABLE
  2
APPID
 70
     4
  0
APPID
  2
ACAD
 70
     0
  0
APPID
  2
DCO15
 70
     0
  0
APPID
  2
ACAD_PSEXT
 70
     0
  0
APPID
  2
ACAD_DSTYLE_DIMTEXT_FILL
 70
     0
  0
ENDTAB
  0
TABLE
  2
DIMSTYLE
 70
     2
  0
DIMSTYLE
  2
STANDARD
 70
     0
  3

  4

  5

  6

  7

 40
1.0
 41
0.18
 42
0.0625
 43
0.38
 44
0.18
 45
0.0
 46
0.0
 47
0.0
 48
0.0
140
0.18
141
0.09
142
0.0
143
25.399999999999999
144
1.0
145
0.0
146
1.0
147
0.09
 71
     0
 72
     0
 73
     1
 74
     1
 75
     0
 76
     0
 77
     0
 78
     0
170
     0
171
     2
172
     0
173
     0
174
     0
175
     0
176
     0
177
     0
178
     0
  0
DIMSTYLE
  2
MECHTRONICS
 70
     0
  3

  4
"
  5

  6

  7

 40
1.0
 41
2.0
 42
1.0
 43
6.0
 44
0.5
 45
0.0
 46
0.0
 47
0.0
 48
0.0
140
2.0
141
0.09
142
0.0
143
0.03937
144
1.0
145
0.0
146
1.0
147
0.5
 71
     0
 72
     0
 73
     0
 74
     1
 75
     0
 76
     0
 77
     0
 78
     0
170
     1
171
     1
172
     0
173
     0
174
     0
175
     0
176
     7
177
     7
178
     0
  0
ENDTAB
  0
ENDSEC
  0
SECTION
  2
BLOCKS
  0
BLOCK
  8
0
  2
$MODEL_SPACE
 70
     0
 10
0.0
 20
0.0
 30
0.0
  3
$MODEL_SPACE
  1

  0
ENDBLK
  5
E
  8
0
  0
BLOCK
 67
     1
  8
0
  2
$PAPER_SPACE
 70
     0
 10
0.0
 20
0.0
 30
0.0
  3
$PAPER_SPACE
  1

  0
ENDBLK
  5
10
 67
     1
  8
0
  0
BLOCK
  8
0
  2
*D0
 70
     1
 10
0.0
 20
0.0
 30
0.0
  3
*D0
  1

  0
LINE
  5
5E86
  8
50_DIMENSIONS
 62
     7
 10
606.84391644117716
 20
3800.193562887443
 30
0.0
 11
606.84391644117716
 21
3813.712291030673
 31
0.0
  0
LINE
  5
5E87
  8
50_DIMENSIONS
 62
     7
 10
673.54391644117436
 20
3781.6935628874462
 30
0.0
 11
673.54391644117436
 21
3813.712291030673
 31
0.0
  0
LINE
  5
5E88
  8
50_DIMENSIONS
 62
     7
 10
608.84391644117727
 20
3813.212291030673
 30
0.0
 11
634.66458492685115
 21
3813.212291030673
 31
0.0
  0
LINE
  5
5E89
  8
50_DIMENSIONS
 62
     7
 10
671.54391644117425
 20
3813.212291030673
 30
0.0
 11
645.72324795550037
 21
3813.212291030673
 31
0.0
  0
SOLID
  5
5E8A
  8
50_DIMENSIONS
 62
     7
 10
608.84391644117727
 20
3813.5456243640069
 30
0.0
 11
608.84391644117727
 21
3812.878957697339
 31
0.0
 12
606.84391644117716
 22
3813.212291030673
 32
0.0
 13
606.84391644117716
 23
3813.212291030673
 33
0.0
  0
SOLID
  5
5E8B
  8
50_DIMENSIONS
 62
     7
 10
671.54391644117425
 20
3813.5456243640069
 30
0.0
 11
671.54391644117425
 21
3812.878957697339
 31
0.0
 12
673.54391644117436
 22
3813.212291030673
 32
0.0
 13
673.54391644117436
 23
3813.212291030673
 33
0.0
  0
INSERT
  5
5E8C
  8
50_DIMENSIONS
  2
*U2
 10
0.0
 20
0.0
 30
0.0
  0
POINT
  5
5E8D
  8
DEFPOINTS
 62
     0
 10
606.84391644117716
 20
3799.193562887443
 30
0.0
  0
POINT
  5
5E8E
  8
DEFPOINTS
 62
     0
 10
673.54391644117436
 20
3780.6935628874462
 30
0.0
  0
POINT
  5
5E8F
  8
DEFPOINTS
 62
     0
 10
673.54391644117436
 20
3813.212291030673
 30
0.0
  0
ENDBLK
  5
55DA
  8
0
  0
BLOCK
  8
0
  2
*D1
 70
     1
 10
0.0
 20
0.0
 30
0.0
  3
*D1
  1

  0
LINE
  5
5E90
  8
50_DIMENSIONS
 62
     7
 10
630.2554591730584
 20
3766.6935628874421
 30
0.0
 11
595.44570024225959
 21
3766.6935628874421
 31
0.0
  0
LINE
  5
5E91
  8
50_DIMENSIONS
 62
     7
 10
613.34391644117704
 20
3806.6935628874421
 30
0.0
 11
595.44570024225959
 21
3806.6935628874421
 31
0.0
  0
LINE
  5
5E92
  8
50_DIMENSIONS
 62
     7
 10
595.94570024225959
 20
3768.6935628874421
 30
0.0
 11
595.94570024225959
 21
3781.1110253703878
 31
0.0
  0
LINE
  5
5E93
  8
50_DIMENSIONS
 62
     7
 10
595.94570024225959
 20
3804.6935628874421
 30
0.0
 11
595.94570024225959
 21
3792.2761004044951
 31
0.0
  0
SOLID
  5
5E94
  8
50_DIMENSIONS
 62
     7
 10
595.61236690892633
 20
3768.6935628874421
 30
0.0
 11
596.27903357559296
 21
3768.6935628874421
 31
0.0
 12
595.94570024225959
 22
3766.6935628874421
 32
0.0
 13
595.94570024225959
 23
3766.6935628874421
 33
0.0
  0
SOLID
  5
5E95
  8
50_DIMENSIONS
 62
     7
 10
595.61236690892633
 20
3804.6935628874421
 30
0.0
 11
596.27903357559296
 21
3804.6935628874421
 31
0.0
 12
595.94570024225959
 22
3806.6935628874421
 32
0.0
 13
595.94570024225959
 23
3806.6935628874421
 33
0.0
  0
INSERT
  5
5E96
  8
50_DIMENSIONS
  2
*U3
 10
0.0
 20
0.0
 30
0.0
  0
POINT
  5
5E97
  8
DEFPOINTS
 62
     0
 10
631.2554591730584
 20
3766.6935628874421
 30
0.0
  0
POINT
  5
5E98
  8
DEFPOINTS
 62
     0
 10
614.34391644117704
 20
3806.6935628874421
 30
0.0
  0
POINT
  5
5E99
  8
DEFPOINTS
 62
     0
 10
595.94570024225959
 20
3806.6935628874421
 30
0.0
  0
ENDBLK
  5
55EA
  8
0
  0
BLOCK
  8
0
  2
*U2
 70
     1
 10
0.0
 20
0.0
 30
0.0
  3
*U2
  1

  0
TEXT
  5
5EB7
  8
50_DIMENSIONS
 62
     0
 10
634.93129706873367
 20
3812.4858244549569
 30
0.0
 40
2.0
  1
67 [2.6"]
  7
MECHTRONICS
  0
ENDBLK
  5
5EB9
  8
0
  0
BLOCK
  8
0
  2
*U3
 70
     1
 10
0.0
 20
0.0
 30
0.0
  3
*U3
  1

  0
TEXT
  5
5EBB
  8
50_DIMENSIONS
 62
     0
 10
596.67216681797527
 20
3781.4841495177288
 30
0.0
 40
2.0
  1
40 [1.6"]
 50
90.0
  7
MECHTRONICS
  0
ENDBLK
  5
5EBD
  8
0
  0
ENDSEC
  0
SECTION
  2
ENTITIES
  0
LINE
  5
2747
  8
01_FRAME
 62
     4
 10
503.55426815072019
 20
3871.6194419528101
 30
0.0
 11
503.5542681507203
 21
3678.233038479455
 31
0.0
  0
LINE
  5
2748
  8
01_FRAME
 62
     4
 10
773.18719422407071
 20
3871.6194419528101
 30
0.0
 11
503.55426815072019
 21
3871.6194419528101
 31
0.0
  0
LINE
  5
274D
  8
01_FRAME
 62
     4
 10
773.18719422407071
 20
3678.233038479455
 30
0.0
 11
773.18719422407071
 21
3871.6194419528101
 31
0.0
  0
LINE
  5
274E
  8
01_FRAME
 62
     4
 10
503.5542681507203
 20
3678.233038479455
 30
0.0
 11
773.18719422407071
 21
3678.233038479455
 31
0.0
  0
LINE
  5
3FC5
  8
01_FRAME
 62
     4
 10
667.61064135957633
 20
3699.2134374843108
 30
0.0
 11
697.19075910190895
 21
3699.2134374843108
 31
0.0
  0
LINE
  5
3FC6
  8
01_FRAME
 62
     4
 10
667.61059384816997
 20
3678.233038479455
 30
0.0
 11
667.61059384816997
 21
3709.7589780537651
 31
0.0
  0
TEXT
  5
3FCF
  8
62_TEXT
 10
755.38597921958876
 20
3703.611107111476
 30
0.0
 40
2.0
  1
10-10-07
  7
MECHTRONICS
  0
TEXT
  5
3FD0
  8
01_FRAME
 62
     8
 10
764.39794241455922
 20
3686.6970292069682
 30
0.0
 40
1.399999999999999
  1
Revision
  7
MECHTRONICS
  0
TEXT
  5
3FD1
  8
62_TEXT
 10
714.44955671336481
 20
3692.5571710951622
 30
0.0
 40
2.0
  1
UPPER STRUT BRACKET - LASER PROFILE
  7
MECHTRONICS
 72
     1
 11
743.54369041049983
 21
3692.5571710951622
 31
0.0
  0
LINE
  5
3FD2
  8
01_FRAME
 62
     8
 10
697.19075910190895
 20
3709.7589780537651
 30
0.0
 11
773.18719422407071
 21
3709.7589780537642
 31
0.0
  0
LINE
  5
3FD3
  8
01_FRAME
 62
     8
 10
697.19075910190895
 20
3706.246719511922
 30
0.0
 11
773.18719422407071
 21
3706.246719511922
 31
0.0
  0
LINE
  5
3FD4
  8
01_FRAME
 62
     4
 10
713.45429759680223
 20
3688.7698267746919
 30
0.0
 11
773.18714671266423
 21
3688.7698267746919
 31
0.0
  0
LINE
  5
3FD5
  8
01_FRAME
 62
     4
 10
667.61064135957645
 20
3694.8667797207631
 30
0.0
 11
713.45429759680223
 21
3694.8667797207631
 31
0.0
  0
LINE
  5
3FD6
  8
01_FRAME
 62
     8
 10
701.91497446666312
 20
3702.7344483003708
 30
0.0
 11
773.18719422407071
 21
3702.7344483003708
 31
0.0
  0
TEXT
  5
3FD9
  8
01_FRAME
 62
     8
 10
668.21549636737768
 20
3707.6530559858552
 30
0.0
 40
1.399999999999999
  1
Higher
  7
MECHTRONICS
  0
TEXT
  5
3FDA
  8
01_FRAME
 62
     8
 10
720.22109063495554
 20
3700.4203587480461
 30
0.0
 40
1.399999999999999
  1
Description of change
  7
MECHTRONICS
  0
LINE
  5
3FDB
  8
01_FRAME
 62
     4
 10
713.45429759680212
 20
3699.2134374843108
 30
0.0
 11
713.45429759680223
 21
3678.233038479455
 31
0.0
  0
LINE
  5
3FDC
  8
01_FRAME
 62
     4
 10
697.19075910190895
 20
3699.2134374843108
 30
0.0
 11
697.19075910190895
 21
3709.7589780537651
 31
0.0
  0
LINE
  5
3FDF
  8
01_FRAME
 62
     8
 10
701.91497446666301
 20
3699.2134374843108
 30
0.0
 11
701.91497446666301
 21
3709.8012340457431
 31
0.0
  0
LINE
  5
3FE0
  8
01_FRAME
 62
     7
 10
697.53353129739116
 20
3701.4015290244579
 30
0.0
 11
699.57741464446656
 21
3704.9416388263362
 31
0.0
  0
LINE
  5
3FE1
  8
01_FRAME
 62
     7
 10
697.53353129739116
 20
3701.4015290244579
 30
0.0
 11
701.62129799154195
 21
3701.4015290244579
 31
0.0
  0
LINE
  5
3FE2
  8
01_FRAME
 62
     7
 10
701.62129799154195
 20
3701.4015290244579
 30
0.0
 11
699.57741464446656
 21
3704.9416388263362
 31
0.0
  0
TEXT
  5
3FE3
  8
01_FRAME
 62
     8
 10
714.2282140621345
 20
3696.1226540110561
 30
0.0
 40
1.399999999999999
  1
Title
  7
MECHTRONICS
  0
LINE
  5
3FE4
  8
01_FRAME
 62
     8
 10
754.042982931246
 20
3688.7698267746919
 30
0.0
 11
754.042982931246
 21
3678.233038479455
 31
0.0
  0
LINE
  5
3FE6
  8
01_FRAME
 62
     8
 10
763.61506482195489
 20
3688.7698267746919
 30
0.0
 11
763.61506482195489
 21
3678.233038479455
 31
0.0
  0
TEXT
  5
3FE7
  8
01_FRAME
 62
     8
 10
754.82586052385022
 20
3686.4952771415951
 30
0.0
 40
1.399999999999999
  1
Process
  7
MECHTRONICS
  0
TEXT
  5
3FE8
  8
01_FRAME
 62
     8
 10
714.11385580813885
 20
3686.6817744733662
 30
0.0
 40
1.399999999999999
  1
Drawing Number
  7
MECHTRONICS
  0
TEXT
  5
3FE9
  8
62_TEXT
 10
720.36107855491696
 20
3680.5587808885339
 30
0.0
 40
4.0
  1
10 40 372
  7
MECHTRONICS
  0
TEXT
  5
3FEA
  8
62_TEXT
 10
756.64692002491267
 20
3680.5587808885339
 30
0.0
 40
4.0
  1
P
  7
MECHTRONICS
  0
LINE
  5
3FEB
  8
01_FRAME
 62
     8
 10
754.45910739289059
 20
3699.2134374843108
 30
0.0
 11
754.45910739289059
 21
3709.7924691018188
 31
0.0
  0
TEXT
  5
3FEC
  8
01_FRAME
 62
     8
 10
755.69991705124619
 20
3700.4203587480451
 30
0.0
 40
1.399999999999999
  1
Date (d-m-y)
  7
MECHTRONICS
  0
TEXT
  5
3FED
  8
62_TEXT
 10
766.2190019156219
 20
3680.5587808885339
 30
0.0
 40
4.0
  1
A
  7
MECHTRONICS
  0
LINE
  5
3FEE
  8
01_FRAME
 62
     8
 10
767.850843549876
 20
3699.2134374843108
 30
0.0
 11
767.850843549876
 21
3709.7924691018188
 31
0.0
  0
TEXT
  5
3FEF
  8
01_FRAME
 62
     8
 10
768.78774960274336
 20
3700.4203587480451
 30
0.0
 40
1.399999999999999
  1
Rev.
  7
MECHTRONICS
  0
TEXT
  5
3FF2
  8
01_FRAME
 62
     8
 10
680.92396862709666
 20
3681.9859894306278
 30
0.0
 40
1.399999999999999
  1
www.mechmate.com
  7
MECHTRONICS
  0
TEXT
  5
3FF6
  8
62_TEXT
 10
678.79417952911706
 20
3706.6577891986722
 30
0.0
 40
2.0
  1
10 40 372 B
  7
MECHTRONICS
  0
TEXT
  5
3FF8
  8
01_FRAME
 62
     8
 10
668.21549636737768
 20
3705.625423613671
 30
0.0
 40
1.399999999999999
  1
drawing/s:
  7
MECHTRONICS
  0
LINE
  5
3FF9
  8
01_FRAME
 62
     4
 10
667.61059384816997
 20
3709.7589780537651
 30
0.0
 11
697.19075910190895
 21
3709.7589780537651
 31
0.0
  0
LINE
  5
3FFB
  8
01_FRAME
 62
     4
 10
697.19075910190895
 20
3699.2134374843108
 30
0.0
 11
773.18714671266423
 21
3699.2134374843108
 31
0.0
  0
TEXT
  5
3FFC
  8
01_FRAME
 62
     8
 10
668.38455782490871
 20
3697.1384587060952
 30
0.0
 40
1.399999999999999
  1
Material:
  7
MECHTRONICS
  0
TEXT
  5
3FFD
  8
62_TEXT
 10
677.44188469238134
 20
460.5212923588366
 30
0.0
 40
2.0
  1

  7
MECHTRONICS
  0
TEXT
  5
3FFE
  8
01_FRAME
 62
     7
 10
769.35057778212149
 20
3703.5639379750028
 30
0.0
 40
2.0
  1
A
  7
MECHTRONICS
  0
TEXT
  5
3FFF
  8
01_FRAME
 62
     7
 10
739.48957365194178
 20
3703.611107111476
 30
0.0
 40
2.0
  1
First issue
  7
MECHTRONICS
  0
TEXT
  5
4339
  8
01_FRAME
 62
     8
 10
698.26349720923929
 20
3707.3362888633578
 30
0.0
 40
1.399999999999999
  1
1:1
  7
MECHTRONICS
  0
LINE
  5
55BC
  8
10_OUTLINE
 62
     2
 10
667.54391644117425
 20
3786.6935628874421
 30
0.0
 11
630.83351231641939
 21
3786.693562887443
 31
0.0
  0
ARC
  5
55BD
  8
10_OUTLINE
 62
     2
 10
667.54391644117425
 20
3780.6935628874421
 30
0.0
 40
6.0
 50
0.0000000000390897
 51
90.0
  0
CIRCLE
  5
55BE
  8
10_OUTLINE
 62
     2
 10
667.543916441178
 20
3776.693562887443
 30
0.0
 40
3.1749999999999989
  0
CIRCLE
  5
55BF
  8
10_OUTLINE
 62
     2
 10
637.543916441178
 20
3776.693562887443
 30
0.0
 40
3.1749999999999989
  0
LINE
  5
55C0
  8
10_OUTLINE
 62
     2
 10
673.54391644117436
 20
3780.6935628874462
 30
0.0
 11
673.54391644117982
 21
3772.693562887448
 31
0.0
  0
ARC
  5
55C1
  8
10_OUTLINE
 62
     2
 10
667.54391644117982
 20
3772.6935628874421
 30
0.0
 40
6.0
 50
270.0
 51
0.0000000000521172
  0
CIRCLE
  5
55C2
  8
10_OUTLINE
 62
     2
 10
614.34391644117716
 20
3799.1935628874421
 30
0.0
 40
3.25
  0
ARC
  5
55C3
  8
10_OUTLINE
 62
     2
 10
614.34391644117716
 20
3799.1935628874421
 30
0.0
 40
7.5
 50
18.875571433596491
 51
180.0
  0
LINE
  5
55C4
  8
10_OUTLINE
 62
     2
 10
625.15617204894966
 20
3790.7524787863908
 30
0.0
 11
621.44059177551537
 21
3801.619918013756
 31
0.0
  0
ARC
  5
55C5
  8
10_OUTLINE
 62
     2
 10
630.83351231641939
 20
3792.693562887443
 30
0.0
 40
6.0
 50
198.87557143359649
 51
270.0
  0
LINE
  5
55C6
  8
10_OUTLINE
 62
     2
 10
606.84391644117716
 20
3799.193562887443
 30
0.0
 11
606.84391644117716
 21
3781.1576645025798
 31
0.0
  0
ARC
  5
55C7
  8
10_OUTLINE
 62
     2
 10
612.84391644117727
 20
3781.1576645025798
 30
0.0
 40
6.0
 50
180.0
 51
239.9999999999938
  0
LINE
  5
55C8
  8
10_OUTLINE
 62
     2
 10
667.54391644117982
 20
3766.6935628874421
 30
0.0
 11
631.2554591730584
 21
3766.6935628874421
 31
0.0
  0
LINE
  5
55C9
  8
10_OUTLINE
 62
     2
 10
609.84391644117727
 20
3775.961512079874
 30
0.0
 11
621.2554591730584
 21
3769.3730548117528
 31
0.0
  0
ARC
  5
55CA
  8
10_OUTLINE
 62
     2
 10
631.2554591730584
 20
3786.6935628874421
 30
0.0
 40
20.0
 50
239.99999999999949
 51
270.0
  0
TEXT
  5
55CB
  8
62_TEXT
 10
678.23824902569436
 20
3696.1122486292202
 30
0.0
 40
2.0
  1
3mm [1/8"] STEEL 300MPa
  7
MECHTRONICS
  0
LINE
  5
55CC
  8
0
 10
623.72612459709444
 20
3786.6935628874421
 30
0.0
 11
611.24928820036052
 21
3786.6935628874421
 31
0.0
  0
DIMENSION
  5
55CD
  8
50_DIMENSIONS
  2
*D0
 10
673.54391644117436
 20
3813.212291030673
 30
0.0
 11
640.19391644117582
 21
3813.212291030673
 31
0.0
 70
     0
 13
606.84391644117716
 23
3799.193562887443
 33
0.0
 14
673.54391644117436
 24
3780.6935628874462
 34
0.0
  0
DIMENSION
  5
55DD
  8
50_DIMENSIONS
  2
*D1
 10
595.94570024225959
 20
3806.6935628874421
 30
0.0
 11
595.94570024225914
 21
3786.6935628874421
 31
0.0
 70
     0
 13
631.2554591730584
 23
3766.6935628874421
 33
0.0
 14
614.34391644117704
 24
3806.6935628874421
 34
0.0
 50
90.0
  0
TEXT
  5
5604
  8
62_TEXT
 62
     7
 10
629.60301222423664
 20
3794.9370892206948
 30
0.0
 40
2.0
  1
ENGRAVE BENDING MARK
  7
MECHTRONICS
  0
LINE
  5
5605
  8
50_DIMENSIONS
  6
CONTINUOUS
 62
   255
 10
628.70094554415539
 20
3795.2974621563171
 30
0.0
 11
620.09704627528026
 21
3786.6935628874421
 31
0.0
  0
SOLID
  5
5606
  8
50_DIMENSIONS
  6
CONTINUOUS
 62
   255
 10
622.42039712600774
 20
3788.410822211893
 30
0.0
 11
621.81430559973114
 21
3789.0169137381699
 31
0.0
 12
620.09704627528026
 22
3786.6935628874421
 32
0.0
 13
620.09704627528026
 23
3786.6935628874421
 33
0.0
  0
LINE
  5
5B50
  8
01_FRAME
 62
     7
 10
695.32669698797656
 20
3685.1742375268118
 30
0.0
 11
696.5107789257396
 21
3685.1742375268118
 31
0.0
  0
LINE
  5
5B51
  8
01_FRAME
 62
     7
 10
696.12117776817342
 20
3690.23265568026
 30
0.0
 11
695.32669698797656
 21
3685.1742375268118
 31
0.0
  0
LINE
  5
5B52
  8
01_FRAME
 62
     7
 10
694.34505484495241
 20
3686.756673582006
 30
0.0
 11
696.12117776817342
 21
3690.23265568026
 31
0.0
  0
LINE
  5
5B53
  8
01_FRAME
 62
     7
 10
697.38547171383993
 20
3691.2773707442161
 30
0.0
 11
695.53677604840288
 21
3691.2773707442161
 31
0.0
  0
LINE
  5
5B54
  8
01_FRAME
 62
     7
 10
679.17411381930515
 20
3687.6639817943369
 30
0.0
 11
681.69639983947445
 21
3687.6639817943369
 31
0.0
  0
LINE
  5
5B55
  8
01_FRAME
 62
     7
 10
681.46570294778985
 20
3686.6337578842831
 30
0.0
 11
679.42019049934754
 21
3686.6337578842831
 31
0.0
  0
LINE
  5
5B56
  8
01_FRAME
 62
     7
 10
678.8818977410325
 20
3685.8495575722718
 30
0.0
 11
680.94884825674455
 21
3685.8495575722718
 31
0.0
  0
LINE
  5
5B57
  8
01_FRAME
 62
     7
 10
681.06440165820425
 20
3689.9243238603799
 30
0.0
 11
679.5739884160854
 21
3689.9243238603799
 31
0.0
  0
LINE
  5
5B58
  8
01_FRAME
 62
     7
 10
679.27731235568308
 20
3688.325166179462
 30
0.0
 11
680.76856089545845
 21
3688.325166179462
 31
0.0
  0
LINE
  5
5B59
  8
01_FRAME
 62
     7
 10
680.58558561694508
 20
3689.1511603273002
 30
0.0
 11
679.63411414215318
 21
3689.1511603273002
 31
0.0
  0
LINE
  5
5B5A
  8
01_FRAME
 62
     7
 10
672.09569374359626
 20
3685.1742375268118
 30
0.0
 11
672.81760174842168
 21
3690.2557008608619
 31
0.0
  0
LINE
  5
5B5B
  8
01_FRAME
 62
     7
 10
673.71139261785413
 20
3691.2773707442161
 30
0.0
 11
671.83595963855305
 21
3691.2773707442161
 31
0.0
  0
LINE
  5
5B5C
  8
01_FRAME
 62
     7
 10
671.83595963855305
 20
3691.2773707442161
 30
0.0
 11
670.97272569925155
 21
3685.1742375268118
 31
0.0
  0
LINE
  5
5B5D
  8
01_FRAME
 62
     7
 10
670.97272569925155
 20
3685.1742375268118
 30
0.0
 11
672.09569374359626
 21
3685.1742375268118
 31
0.0
  0
LINE
  5
5B5E
  8
01_FRAME
 62
     7
 10
676.324012133358
 20
3690.23265568026
 30
0.0
 11
675.52953135316113
 21
3685.1742375268118
 31
0.0
  0
LINE
  5
5B5F
  8
01_FRAME
 62
     7
 10
676.71361329092406
 20
3685.1742375268118
 30
0.0
 11
677.5883060790253
 21
3691.2773707442161
 31
0.0
  0
LINE
  5
5B60
  8
01_FRAME
 62
     7
 10
675.52953135316113
 20
3685.1742375268118
 30
0.0
 11
676.71361329092406
 21
3685.1742375268118
 31
0.0
  0
LINE
  5
5B61
  8
01_FRAME
 62
     7
 10
677.5883060790253
 20
3691.2773707442161
 30
0.0
 11
675.73961041358746
 21
3691.2773707442161
 31
0.0
  0
LINE
  5
5B62
  8
01_FRAME
 62
     7
 10
674.54788921013687
 20
3686.756673582006
 30
0.0
 11
676.324012133358
 21
3690.23265568026
 31
0.0
  0
LINE
  5
5B63
  8
01_FRAME
 62
     7
 10
672.81760174842168
 20
3690.2557008608619
 30
0.0
 11
673.52805090444838
 21
3686.756673582006
 31
0.0
  0
LINE
  5
5B64
  8
01_FRAME
 62
     7
 10
674.26523740749474
 20
3688.3621548178039
 30
0.0
 11
673.71139261785413
 21
3691.2773707442161
 31
0.0
  0
LINE
  5
5B65
  8
01_FRAME
 62
     7
 10
675.73961041358746
 20
3691.2773707442161
 30
0.0
 11
674.26523740749474
 21
3688.3621548178039
 31
0.0
  0
LINE
  5
5B66
  8
01_FRAME
 62
     7
 10
673.52805090444838
 20
3686.756673582006
 30
0.0
 11
674.54788921013687
 21
3686.756673582006
 31
0.0
  0
LINE
  5
5B67
  8
01_FRAME
 62
     7
 10
678.32822522751451
 20
3689.0171117659252
 30
0.0
 11
678.00524957252628
 21
3686.8951579882851
 31
0.0
  0
LINE
  5
5B68
  8
01_FRAME
 62
     7
 10
679.07510693486665
 20
3686.8720975755841
 30
0.0
 11
679.17411381930515
 21
3687.6639817943369
 31
0.0
  0
LINE
  5
5B69
  8
01_FRAME
 62
     7
 10
679.34135368327009
 20
3688.8613378128871
 30
0.0
 11
679.27731235568308
 21
3688.325166179462
 31
0.0
  0
LINE
  5
5B6A
  8
01_FRAME
 62
     7
 10
687.72533211300436
 20
3689.0148514541288
 30
0.0
 11
689.17118606032511
 21
3689.0148514541288
 31
0.0
  0
LINE
  5
5B6B
  8
01_FRAME
 62
     7
 10
685.55149288523864
 20
3686.187840040302
 30
0.0
 11
685.5976322503135
 21
3686.5876284327101
 31
0.0
  0
LINE
  5
5B6C
  8
01_FRAME
 62
     7
 10
686.8971245352883
 20
3691.5363071935722
 30
0.0
 11
686.18589539547122
 21
3685.8316343570659
 31
0.0
  0
LINE
  5
5B6D
  8
01_FRAME
 62
     7
 10
687.27613478946068
 20
3685.8316343570659
 30
0.0
 11
687.72533211300436
 21
3689.0148514541288
 31
0.0
  0
LINE
  5
5B6E
  8
01_FRAME
 62
     7
 10
681.41956354955937
 20
3686.187840040302
 30
0.0
 11
681.46570294778985
 21
3686.6337578842831
 31
0.0
  0
LINE
  5
5B6F
  8
01_FRAME
 62
     7
 10
684.12117213690226
 20
3685.8495575722718
 30
0.0
 11
685.08077759242553
 21
3685.8495575722718
 31
0.0
  0
LINE
  5
5B70
  8
01_FRAME
 62
     7
 10
683.32142291018636
 20
3685.8495575722718
 30
0.0
 11
684.12117213690226
 21
3685.8495575722718
 31
0.0
  0
LINE
  5
5B71
  8
01_FRAME
 62
     7
 10
686.18589539547122
 20
3685.8316343570659
 30
0.0
 11
687.27613478946068
 21
3685.8316343570659
 31
0.0
  0
LINE
  5
5B72
  8
01_FRAME
 62
     7
 10
686.18589539547122
 20
3685.8316343570659
 30
0.0
 11
686.18589539547122
 21
3685.8316343570659
 31
0.0
  0
LINE
  5
5B73
  8
01_FRAME
 62
     7
 10
685.53613676502528
 20
3689.9243238603799
 30
0.0
 11
684.01351358523925
 21
3689.9243238603799
 31
0.0
  0
LINE
  5
5B74
  8
01_FRAME
 62
     7
 10
684.07503277182752
 20
3689.155500054329
 30
0.0
 11
686.01387329080865
 21
3689.155500054329
 31
0.0
  0
LINE
  5
5B75
  8
01_FRAME
 62
     7
 10
685.60510963771742
 20
3686.6337578842831
 30
0.0
 11
684.12117213690226
 21
3686.6337578842831
 31
0.0
  0
LINE
  5
5B76
  8
01_FRAME
 62
     7
 10
681.69639983947445
 20
3687.6639817943369
 30
0.0
 11
681.91251001187322
 21
3689.1146943468721
 31
0.0
  0
LINE
  5
5B77
  8
01_FRAME
 62
     7
 10
681.69639983947445
 20
3687.6639817943369
 30
0.0
 11
681.69639983947445
 21
3687.6639817943369
 31
0.0
  0
LINE
  5
5B78
  8
01_FRAME
 62
     7
 10
680.76856089545845
 20
3688.325166179462
 30
0.0
 11
680.85113153860823
 21
3688.9252487226609
 31
0.0
  0
LINE
  5
5B79
  8
01_FRAME
 62
     7
 10
682.76775039666927
 20
3689.0171117659252
 30
0.0
 11
682.5216737166262
 21
3687.3564522719162
 31
0.0
  0
LINE
  5
5B7A
  8
01_FRAME
 62
     7
 10
683.51409812702934
 20
3686.8720975755841
 30
0.0
 11
683.78281669355476
 21
3688.8633469715592
 31
0.0
  0
LINE
  5
5B7B
  8
01_FRAME
 62
     7
 10
682.5216737166262
 20
3687.3564522719162
 30
0.0
 11
682.44477474167945
 21
3686.8951579882851
 31
0.0
  0
LINE
  5
5B7C
  8
01_FRAME
 62
     7
 10
684.12117213690226
 20
3686.6337578842831
 30
0.0
 11
683.85918169151
 21
3686.6337578842831
 31
0.0
  0
LINE
  5
5B7D
  8
01_FRAME
 62
     7
 10
686.01387329080865
 20
3689.155500054329
 30
0.0
 11
686.05696322258029
 21
3689.4213301916989
 31
0.0
  0
LINE
  5
5B7E
  8
01_FRAME
 62
     7
 10
685.5976322503135
 20
3686.5876284327101
 30
0.0
 11
685.60510963771742
 21
3686.6337578842831
 31
0.0
  0
LINE
  5
5B7F
  8
01_FRAME
 62
     7
 10
687.81860809433294
 20
3689.4938332869592
 30
0.0
 11
688.06223010566146
 21
3691.5363071935722
 31
0.0
  0
LINE
  5
5B80
  8
01_FRAME
 62
     7
 10
688.06223010566146
 20
3691.5363071935722
 30
0.0
 11
686.8971245352883
 21
3691.5363071935722
 31
0.0
  0
LINE
  5
5B81
  8
01_FRAME
 62
     7
 10
689.90581086782868
 20
3685.8316343570659
 30
0.0
 11
690.31258917412879
 21
3689.049438773704
 31
0.0
  0
LINE
  5
5B82
  8
01_FRAME
 62
     7
 10
689.17118606032511
 20
3689.0148514541288
 30
0.0
 11
688.76878010531038
 21
3685.8316343570659
 31
0.0
  0
LINE
  5
5B83
  8
01_FRAME
 62
     7
 10
691.8928593784118
 20
3685.1742375268118
 30
0.0
 11
692.61476738323711
 21
3690.2557008608619
 31
0.0
  0
LINE
  5
5B84
  8
01_FRAME
 62
     7
 10
691.63312527336768
 20
3691.2773707442161
 30
0.0
 11
690.76989133406596
 21
3685.1742375268118
 31
0.0
  0
LINE
  5
5B85
  8
01_FRAME
 62
     7
 10
688.76878010531038
 20
3685.8316343570659
 30
0.0
 11
689.90581086782868
 21
3685.8316343570659
 31
0.0
  0
LINE
  5
5B86
  8
01_FRAME
 62
     7
 10
690.76989133406596
 20
3685.1742375268118
 30
0.0
 11
691.8928593784118
 21
3685.1742375268118
 31
0.0
  0
LINE
  5
5B87
  8
01_FRAME
 62
     7
 10
693.50855825266956
 20
3691.2773707442161
 30
0.0
 11
691.63312527336768
 21
3691.2773707442161
 31
0.0
  0
LINE
  5
5B88
  8
01_FRAME
 62
     7
 10
692.61476738323711
 20
3690.2557008608619
 30
0.0
 11
693.32521653926369
 21
3686.756673582006
 31
0.0
  0
LINE
  5
5B89
  8
01_FRAME
 62
     7
 10
694.06240304231005
 20
3688.3621548178039
 30
0.0
 11
693.50855825266956
 21
3691.2773707442161
 31
0.0
  0
LINE
  5
5B8A
  8
01_FRAME
 62
     7
 10
695.53677604840288
 20
3691.2773707442161
 30
0.0
 11
694.06240304231005
 21
3688.3621548178039
 31
0.0
  0
LINE
  5
5B8B
  8
01_FRAME
 62
     7
 10
693.32521653926369
 20
3686.756673582006
 30
0.0
 11
694.34505484495241
 21
3686.756673582006
 31
0.0
  0
LINE
  5
5B8C
  8
01_FRAME
 62
     7
 10
704.27221729628013
 20
3691.1214786911878
 30
0.0
 11
703.23565055516679
 21
3691.003452257401
 31
0.0
  0
LINE
  5
5B8D
  8
01_FRAME
 62
     7
 10
703.68014784676654
 20
3686.869887196015
 30
0.0
 11
704.01076082787915
 21
3689.199419093175
 31
0.0
  0
LINE
  5
5B8E
  8
01_FRAME
 62
     7
 10
703.48784785792282
 20
3685.8473471927018
 30
0.0
 11
704.55511186167655
 21
3685.8473471927018
 31
0.0
  0
LINE
  5
5B8F
  8
01_FRAME
 62
     7
 10
701.25611795137286
 20
3685.863492509041
 30
0.0
 11
701.21599740609759
 21
3686.3180941140131
 31
0.0
  0
ARC
  5
5B90
  8
01_FRAME
 62
     7
 10
702.21212559857463
 20
3686.4060067078299
 30
0.0
 40
1.0
 50
171.34562025558941
 51
185.0435314678453
  0
LINE
  5
5B91
  8
01_FRAME
 62
     7
 10
696.5107789257396
 20
3685.1742375268118
 30
0.0
 11
697.38547171383993
 21
3691.2773707442161
 31
0.0
  0
LINE
  5
5B92
  8
01_FRAME
 62
     7
 10
698.61079359118196
 20
3685.8481160030792
 30
0.0
 11
699.59510034450773
 21
3685.8481160030792
 31
0.0
  0
LINE
  5
5B93
  8
01_FRAME
 62
     7
 10
700.1949122562562
 20
3685.863492509041
 30
0.0
 11
701.25611795137286
 21
3685.863492509041
 31
0.0
  0
LINE
  5
5B94
  8
01_FRAME
 62
     7
 10
703.48784785792179
 20
3685.8473471927018
 30
0.0
 11
703.56474683286945
 21
3685.8473471927018
 31
0.0
  0
LINE
  5
5B95
  8
01_FRAME
 62
     7
 10
700.37946978286595
 20
3688.3083522819052
 30
0.0
 11
698.90300966945483
 21
3688.3083522819052
 31
0.0
  0
LINE
  5
5B96
  8
01_FRAME
 62
     7
 10
698.1186402310974
 20
3689.1540584851382
 30
0.0
 11
700.19663740022645
 21
3689.1540584851382
 31
0.0
  0
LINE
  5
5B97
  8
01_FRAME
 62
     7
 10
700.76690161317106
 20
3689.9382587971468
 30
0.0
 11
698.64155320105476
 21
3689.9382587971468
 31
0.0
  0
LINE
  5
5B98
  8
01_FRAME
 62
     7
 10
698.16477962932709
 20
3689.5999763291161
 30
0.0
 11
698.1186402310974
 21
3689.1540584851382
 31
0.0
  0
LINE
  5
5B99
  8
01_FRAME
 62
     7
 10
698.99522901805415
 20
3686.5066924075468
 30
0.0
 11
699.73627890266346
 21
3686.4922012867992
 31
0.0
  0
LINE
  5
5B9A
  8
01_FRAME
 62
     7
 10
699.984237551707
 20
3687.5983571576762
 30
0.0
 11
699.19650183768113
 21
3687.5983571576762
 31
0.0
  0
LINE
  5
5B9B
  8
01_FRAME
 62
     7
 10
702.34431504326653
 20
3689.952866459575
 30
0.0
 11
702.21132505948003
 21
3689.199419093175
 31
0.0
  0
LINE
  5
5B9C
  8
01_FRAME
 62
     7
 10
701.22351158767265
 20
3686.5564804179871
 30
0.0
 11
701.61500996684003
 21
3689.1286292836412
 31
0.0
  0
LINE
  5
5B9D
  8
01_FRAME
 62
     7
 10
700.13425017321674
 20
3686.8786312839111
 30
0.0
 11
700.22357537275889
 21
3687.3724455530369
 31
0.0
  0
LINE
  5
5B9E
  8
01_FRAME
 62
     7
 10
700.45636872465695
 20
3688.8619054355231
 30
0.0
 11
700.37946978286595
 21
3688.3083522819052
 31
0.0
  0
LINE
  5
5B9F
  8
01_FRAME
 62
     7
 10
700.46218332188948
 20
3688.9281468804988
 30
0.0
 11
700.45636872465695
 21
3688.8619054355231
 31
0.0
  0
LINE
  5
5BA0
  8
01_FRAME
 62
     7
 10
702.96493492112108
 20
3689.199419093175
 30
0.0
 11
702.6111996894158
 21
3686.892947608716
 31
0.0
  0
LINE
  5
5BA1
  8
01_FRAME
 62
     7
 10
702.21132505948003
 20
3689.199419093175
 30
0.0
 11
702.96493492112108
 21
3689.199419093175
 31
0.0
  0
LINE
  5
5BA2
  8
01_FRAME
 62
     7
 10
703.23565055516679
 20
3691.003452257401
 30
0.0
 11
703.07259347278409
 21
3689.952866459575
 31
0.0
  0
LINE
  5
5BA3
  8
01_FRAME
 62
     7
 10
703.07259347278409
 20
3689.952866459575
 30
0.0
 11
702.34431504326653
 21
3689.952866459575
 31
0.0
  0
LINE
  5
5BA4
  8
01_FRAME
 62
     7
 10
705.02582715449057
 20
3686.185629660733
 30
0.0
 11
705.07196652299604
 21
3686.6315475047122
 31
0.0
  0
LINE
  5
5BA5
  8
01_FRAME
 62
     7
 10
705.39494217798494
 20
3689.199419093175
 30
0.0
 11
705.48722094129039
 21
3689.952866459575
 31
0.0
  0
LINE
  5
5BA6
  8
01_FRAME
 62
     7
 10
705.07196652299604
 20
3686.6315475047122
 30
0.0
 11
704.02523141124925
 21
3686.6315475047122
 31
0.0
  0
LINE
  5
5BA7
  8
01_FRAME
 62
     7
 10
704.01076082787915
 20
3689.199419093175
 30
0.0
 11
705.39494217798494
 21
3689.199419093175
 31
0.0
  0
LINE
  5
5BA8
  8
01_FRAME
 62
     7
 10
704.1030395911846
 20
3689.952866459575
 30
0.0
 11
704.27221729628013
 21
3691.1214786911878
 31
0.0
  0
LINE
  5
5BA9
  8
01_FRAME
 62
     7
 10
705.48722094129039
 20
3689.952866459575
 30
0.0
 11
704.1030395911846
 21
3689.952866459575
 31
0.0
  0
ARC
  5
5BAA
  8
01_FRAME
 62
     7
 10
679.69399809203662
 20
3688.8106563390502
 30
0.0
 40
0.356267723523487
 50
129.9788673075646
 51
171.82154662074871
  0
ARC
  5
5BAB
  8
01_FRAME
 62
     7
 10
679.64263380419891
 20
3688.8844722107842
 30
0.0
 40
0.2668241670683093
 50
91.829758024394408
 51
131.71149876918361
  0
ARC
  5
5BAC
  8
01_FRAME
 62
     7
 10
684.13491672171176
 20
3688.8149960660812
 30
0.0
 40
0.356267723523487
 50
129.9788673075646
 51
171.82154662074871
  0
ARC
  5
5BAD
  8
01_FRAME
 62
     7
 10
684.08355243387405
 20
3688.8888119378139
 30
0.0
 40
0.2668241670683093
 50
91.829758024394408
 51
131.71149876918361
  0
ARC
  5
5BAE
  8
01_FRAME
 62
     7
 10
680.59868966725082
 20
3688.8775192334861
 30
0.0
 40
0.2739546757357922
 50
41.694258406644231
 51
92.74167022804761
  0
ARC
  5
5BAF
  8
01_FRAME
 62
     7
 10
680.6615747711254
 20
3688.9335365141492
 30
0.0
 40
0.1897378601816721
 50
357.49651121804118
 51
41.69425840668103
  0
ARC
  5
5BB0
  8
01_FRAME
 62
     7
 10
700.20974145053208
 20
3688.8804173913231
 30
0.0
 40
0.2739546757357922
 50
41.694258406644231
 51
92.74167022804761
  0
ARC
  5
5BB1
  8
01_FRAME
 62
     7
 10
700.27262655440666
 20
3688.9364346719872
 30
0.0
 40
0.1897378601816721
 50
357.49651121804118
 51
41.69425840668103
  0
ARC
  5
5BB2
  8
01_FRAME
 62
     7
 10
679.41801439428446
 20
3687.1321074813241
 30
0.0
 40
0.4983543481347475
 50
242.0549458700896
 51
270.25018750738548
  0
ARC
  5
5BB3
  8
01_FRAME
 62
     7
 10
679.28092986293325
 20
3686.8736914359929
 30
0.0
 40
0.2058290992756684
 50
180.44368064352511
 51
242.0549458700896
  0
ARC
  5
5BB4
  8
01_FRAME
 62
     7
 10
683.85700558644623
 20
3687.1321074813241
 30
0.0
 40
0.4983543481347475
 50
242.0549458700896
 51
270.25018750738548
  0
ARC
  5
5BB5
  8
01_FRAME
 62
     7
 10
683.71992105509582
 20
3686.8736914359929
 30
0.0
 40
0.2058290992756684
 50
180.44368064352511
 51
242.0549458700896
  0
ARC
  5
5BB6
  8
01_FRAME
 62
     7
 10
679.30223842625821
 20
3688.8623857249459
 30
0.0
 40
0.9862260689533767
 50
116.4343118930764
 51
170.97374799137759
  0
ARC
  5
5BB7
  8
01_FRAME
 62
     7
 10
679.62825287879571
 20
3688.206620211402
 30
0.0
 40
1.7185605772340431
 50
91.809445418565659
 51
116.4343118930764
  0
ARC
  5
5BB8
  8
01_FRAME
 62
     7
 10
683.74176359541207
 20
3688.8623857249459
 30
0.0
 40
0.9862260689533767
 50
116.4343118930764
 51
170.97374799137759
  0
ARC
  5
5BB9
  8
01_FRAME
 62
     7
 10
684.06777804794956
 20
3688.206620211402
 30
0.0
 40
1.7185605772340431
 50
91.809445418565659
 51
116.4343118930764
  0
ARC
  5
5BBA
  8
01_FRAME
 62
     7
 10
680.96514634712332
 20
3688.8224016908739
 30
0.0
 40
1.1063833352066721
 50
44.532575507597819
 51
84.852989749608284
  0
ARC
  5
5BBB
  8
01_FRAME
 62
     7
 10
681.34535912020931
 20
3689.1964609038728
 30
0.0
 40
0.5730147500357465
 50
351.79615361501862
 51
44.532575507597819
  0
ARC
  5
5BBC
  8
01_FRAME
 62
     7
 10
678.89705914577235
 20
3686.7380875199419
 30
0.0
 40
0.8886592913478247
 50
213.378140144387
 51
269.02243001409983
  0
ARC
  5
5BBD
  8
01_FRAME
 62
     7
 10
678.95194180363671
 20
3686.7742459295341
 30
0.0
 40
0.954382473852452
 50
172.72155707448491
 51
213.378140144387
  0
ARC
  5
5BBE
  8
01_FRAME
 62
     7
 10
680.94581911728937
 20
3686.4060301798199
 30
0.0
 40
0.5564808519953198
 50
269.68811547988628
 51
309.85159843335532
  0
ARC
  5
5BBF
  8
01_FRAME
 62
     7
 10
681.08700088019077
 20
3686.2368885313499
 30
0.0
 40
0.3361602051582644
 50
309.85159843335532
 51
351.61013221801829
  0
ARC
  5
5BC0
  8
01_FRAME
 62
     7
 10
683.3365843149254
 20
3686.7380875199419
 30
0.0
 40
0.8886592913478247
 50
213.378140144387
 51
269.02243001409983
  0
ARC
  5
5BC1
  8
01_FRAME
 62
     7
 10
683.39146697279057
 20
3686.7742459295341
 30
0.0
 40
0.954382473852452
 50
172.72155707448491
 51
213.378140144387
  0
ARC
  5
5BC2
  8
01_FRAME
 62
     7
 10
685.07774845296865
 20
3686.4060301798199
 30
0.0
 40
0.5564808519953198
 50
269.68811547988628
 51
309.85159843335532
  0
ARC
  5
5BC3
  8
01_FRAME
 62
     7
 10
685.21893021586914
 20
3686.2368885313499
 30
0.0
 40
0.3361602051582644
 50
309.85159843335532
 51
351.61013221801829
  0
ARC
  5
5BC4
  8
01_FRAME
 62
     7
 10
685.55134242457791
 20
3689.4027951597009
 30
0.0
 40
0.5217503212408174
 50
29.017138568443521
 51
91.670039206039846
  0
ARC
  5
5BC5
  8
01_FRAME
 62
     7
 10
685.65183184785155
 20
3689.4585366577921
 30
0.0
 40
0.4068362716240224
 50
354.75278767927108
 51
29.017138568443521
  0
LINE
  5
5BC6
  8
01_FRAME
 62
     7
 10
707.01149493970536
 20
3687.6639817943369
 30
0.0
 11
709.53378095987466
 21
3687.6639817943369
 31
0.0
  0
LINE
  5
5BC7
  8
01_FRAME
 62
     7
 10
709.30308406819006
 20
3686.6337578842831
 30
0.0
 11
707.25757161974775
 21
3686.6337578842831
 31
0.0
  0
LINE
  5
5BC8
  8
01_FRAME
 62
     7
 10
706.71927886143271
 20
3685.8495575722718
 30
0.0
 11
708.78622937714465
 21
3685.8495575722718
 31
0.0
  0
LINE
  5
5BC9
  8
01_FRAME
 62
     7
 10
708.90178277860446
 20
3689.9243238603799
 30
0.0
 11
707.41136953648561
 21
3689.9243238603799
 31
0.0
  0
LINE
  5
5BCA
  8
01_FRAME
 62
     7
 10
707.11469347608329
 20
3688.325166179462
 30
0.0
 11
708.60594201585866
 21
3688.325166179462
 31
0.0
  0
LINE
  5
5BCB
  8
01_FRAME
 62
     7
 10
708.42296673734529
 20
3689.1511603273002
 30
0.0
 11
707.47149526255339
 21
3689.1511603273002
 31
0.0
  0
LINE
  5
5BCC
  8
01_FRAME
 62
     7
 10
706.16560634791472
 20
3689.0171117659252
 30
0.0
 11
705.84263069292649
 21
3686.8951579882851
 31
0.0
  0
LINE
  5
5BCD
  8
01_FRAME
 62
     7
 10
706.91248805526698
 20
3686.8720975755841
 30
0.0
 11
707.01149493970536
 21
3687.6639817943369
 31
0.0
  0
LINE
  5
5BCE
  8
01_FRAME
 62
     7
 10
707.1787348036703
 20
3688.8613378128871
 30
0.0
 11
707.11469347608329
 21
3688.325166179462
 31
0.0
  0
LINE
  5
5BCF
  8
01_FRAME
 62
     7
 10
709.25694466995969
 20
3686.187840040302
 30
0.0
 11
709.30308406819006
 21
3686.6337578842831
 31
0.0
  0
LINE
  5
5BD0
  8
01_FRAME
 62
     7
 10
709.53378095987466
 20
3687.6639817943369
 30
0.0
 11
709.74989113227343
 21
3689.1146943468721
 31
0.0
  0
LINE
  5
5BD1
  8
01_FRAME
 62
     7
 10
709.53378095987466
 20
3687.6639817943369
 30
0.0
 11
709.53378095987466
 21
3687.6639817943369
 31
0.0
  0
LINE
  5
5BD2
  8
01_FRAME
 62
     7
 10
708.60594201585866
 20
3688.325166179462
 30
0.0
 11
708.68851265900844
 21
3688.9252487226609
 31
0.0
  0
ARC
  5
5BD3
  8
01_FRAME
 62
     7
 10
707.53137921243683
 20
3688.8106563390502
 30
0.0
 40
0.356267723523487
 50
129.9788673075646
 51
171.82154662074871
  0
ARC
  5
5BD4
  8
01_FRAME
 62
     7
 10
707.48001492459912
 20
3688.8844722107842
 30
0.0
 40
0.2668241670683093
 50
91.829758024394408
 51
131.71149876918361
  0
ARC
  5
5BD5
  8
01_FRAME
 62
     7
 10
708.43607078765103
 20
3688.8775192334861
 30
0.0
 40
0.2739546757357922
 50
41.694258406644231
 51
92.74167022804761
  0
ARC
  5
5BD6
  8
01_FRAME
 62
     7
 10
708.49895589152561
 20
3688.9335365141492
 30
0.0
 40
0.1897378601816721
 50
357.49651121804118
 51
41.69425840668103
  0
ARC
  5
5BD7
  8
01_FRAME
 62
     7
 10
707.25539551468466
 20
3687.1321074813241
 30
0.0
 40
0.4983543481347475
 50
242.0549458700896
 51
270.25018750738548
  0
ARC
  5
5BD8
  8
01_FRAME
 62
     7
 10
707.11831098333334
 20
3686.8736914359929
 30
0.0
 40
0.2058290992756684
 50
180.44368064352511
 51
242.0549458700896
  0
ARC
  5
5BD9
  8
01_FRAME
 62
     7
 10
707.13961954665842
 20
3688.8623857249459
 30
0.0
 40
0.9862260689533767
 50
116.4343118930764
 51
170.97374799137759
  0
ARC
  5
5BDA
  8
01_FRAME
 62
     7
 10
707.46563399919592
 20
3688.206620211402
 30
0.0
 40
1.7185605772340431
 50
91.809445418565659
 51
116.4343118930764
  0
ARC
  5
5BDB
  8
01_FRAME
 62
     7
 10
708.80252746752353
 20
3688.8224016908739
 30
0.0
 40
1.1063833352066721
 50
44.532575507597819
 51
84.852989749608284
  0
ARC
  5
5BDC
  8
01_FRAME
 62
     7
 10
709.18274024060952
 20
3689.1964609038728
 30
0.0
 40
0.5730147500357465
 50
351.79615361501862
 51
44.532575507597819
  0
ARC
  5
5BDD
  8
01_FRAME
 62
     7
 10
706.73444026617256
 20
3686.7380875199419
 30
0.0
 40
0.8886592913478247
 50
213.378140144387
 51
269.02243001409983
  0
ARC
  5
5BDE
  8
01_FRAME
 62
     7
 10
706.78932292403692
 20
3686.7742459295341
 30
0.0
 40
0.954382473852452
 50
172.72155707448491
 51
213.378140144387
  0
ARC
  5
5BDF
  8
01_FRAME
 62
     7
 10
708.7832002376897
 20
3686.4060301798199
 30
0.0
 40
0.5564808519953198
 50
269.68811547988628
 51
309.85159843335532
  0
ARC
  5
5BE0
  8
01_FRAME
 62
     7
 10
708.92438200059098
 20
3686.2368885313499
 30
0.0
 40
0.3361602051582644
 50
309.85159843335532
 51
351.61013221801829
  0
LINE
  5
5BE1
  8
01_FRAME
 62
     7
 10
688.98838370131807
 20
3689.9243238603799
 30
0.0
 11
689.62617801771614
 21
3689.9243238603799
 31
0.0
  0
ARC
  5
5BE2
  8
01_FRAME
 62
     7
 10
689.44026055463439
 20
3689.1079559550071
 30
0.0
 40
0.8742891288908129
 50
356.16225827570821
 51
57.030568872306567
  0
ARC
  5
5BE3
  8
01_FRAME
 62
     7
 10
689.63569402541589
 20
3689.4092489088962
 30
0.0
 40
0.515162848085838
 50
57.030568872306567
 51
91.058418890025422
  0
ARC
  5
5BE4
  8
01_FRAME
 62
     7
 10
689.06559406587485
 20
3687.637446460481
 30
0.0
 40
2.2881804305072628
 50
91.933705877925576
 51
118.1284095955113
  0
ARC
  5
5BE5
  8
01_FRAME
 62
     7
 10
688.18986575406018
 20
3689.2755844043149
 30
0.0
 40
0.4306562720799454
 50
118.1284095955113
 51
149.5502773796288
  0
ARC
  5
5BE6
  8
01_FRAME
 62
     7
 10
704.55208272222058
 20
3686.403819800249
 30
0.0
 40
0.5564808519953198
 50
269.68811547988628
 51
309.85159843335532
  0
ARC
  5
5BE7
  8
01_FRAME
 62
     7
 10
704.69326448512095
 20
3686.2346781517808
 30
0.0
 40
0.3361602051582644
 50
309.85159843335532
 51
351.61013221801829
  0
ARC
  5
5BE8
  8
01_FRAME
 62
     7
 10
703.50300926266186
 20
3686.735877140371
 30
0.0
 40
0.8886592913478247
 50
213.378140144387
 51
269.02243001409983
  0
ARC
  5
5BE9
  8
01_FRAME
 62
     7
 10
703.55789192052612
 20
3686.7720355499619
 30
0.0
 40
0.954382473852452
 50
172.72155707448491
 51
213.378140144387
  0
ARC
  5
5BEA
  8
01_FRAME
 62
     7
 10
704.02305530618355
 20
3687.1298971017532
 30
0.0
 40
0.4983543481347475
 50
242.0549458700896
 51
270.25018750738548
  0
ARC
  5
5BEB
  8
01_FRAME
 62
     7
 10
703.88597077483223
 20
3686.8714810564238
 30
0.0
 40
0.2058290992756684
 50
180.44368064352511
 51
242.0549458700896
  0
ARC
  5
5BEC
  8
01_FRAME
 62
     7
 10
700.66764630209013
 20
3688.836336627643
 30
0.0
 40
1.1063833352066721
 50
44.532575507597819
 51
84.852989749608284
  0
ARC
  5
5BED
  8
01_FRAME
 62
     7
 10
701.04785907517612
 20
3689.2103958406428
 30
0.0
 40
0.5730147500357465
 50
351.79615361501862
 51
44.532575507597819
  0
ARC
  5
5BEE
  8
01_FRAME
 62
     7
 10
698.64022550697484
 20
3689.385908974833
 30
0.0
 40
0.5523514180140796
 50
89.862277278542265
 51
130.98420927748739
  0
ARC
  5
5BEF
  8
01_FRAME
 62
     7
 10
698.50221896139715
 20
3689.5447557405168
 30
0.0
 40
0.3419277938878447
 50
130.98420927748739
 51
170.7061550554026
  0
ARC
  5
5BF0
  8
01_FRAME
 62
     7
 10
701.13938047919669
 20
3686.357783126381
 30
0.0
 40
1.0659941081150781
 50
189.2518512240257
 51
207.625462433428
  0
ARC
  5
5BF1
  8
01_FRAME
 62
     7
 10
699.46763398402675
 20
3686.5607097287052
 30
0.0
 40
0.7239043381937801
 50
280.14161684226292
 51
328.86389698780192
  0
ARC
  5
5BF2
  8
01_FRAME
 62
     7
 10
698.92979410131716
 20
3687.0416981682688
 30
0.0
 40
1.2669372712889659
 50
91.211385343645034
 51
150.30133372254059
  0
ARC
  5
5BF3
  8
01_FRAME
 62
     7
 10
699.44877660853456
 20
3686.745691783482
 30
0.0
 40
1.864400761915205
 50
150.30133372254059
 51
172.84077312506099
  0
ARC
  5
5BF4
  8
01_FRAME
 62
     7
 10
698.75618892826026
 20
3686.8326852710229
 30
0.0
 40
1.1663709905283439
 50
172.84077312506099
 51
205.63064895958601
  0
ARC
  5
5BF5
  8
01_FRAME
 62
     7
 10
698.27706284628653
 20
3686.6028113042962
 30
0.0
 40
0.634954164480408
 50
205.63064895958601
 51
237.5110165228015
  0
ARC
  5
5BF6
  8
01_FRAME
 62
     7
 10
698.69704095047166
 20
3687.2623246764292
 30
0.0
 40
1.4168361862834209
 50
237.5110165228015
 51
266.5100646608708
  0
ARC
  5
5BF7
  8
01_FRAME
 62
     7
 10
699.97113350140239
 20
3687.3247160638621
 30
0.0
 40
0.2739546757357922
 50
41.694258406644231
 51
92.74167022804761
  0
ARC
  5
5BF8
  8
01_FRAME
 62
     7
 10
700.03401860527595
 20
3687.3807333445261
 30
0.0
 40
0.1897378601816721
 50
357.49651121804118
 51
41.69425840668103
  0
ARC
  5
5BF9
  8
01_FRAME
 62
     7
 10
699.65955048295984
 20
3686.9528576045782
 30
0.0
 40
0.4670026696925385
 50
279.4565576772809
 51
324.92940398283741
  0
ARC
  5
5BFA
  8
01_FRAME
 62
     7
 10
699.51387226981535
 20
3687.0551303182929
 30
0.0
 40
0.6449966295775496
 50
324.92940398283741
 51
344.11881738721661
  0
ARC
  5
5BFB
  8
01_FRAME
 62
     7
 10
699.19066685211669
 20
3687.0797781955039
 30
0.0
 40
0.5186117883961751
 50
89.355342266111649
 51
126.25017530154049
  0
ARC
  5
5BFC
  8
01_FRAME
 62
     7
 10
699.10616915536025
 20
3687.2010086258761
 30
0.0
 40
0.3708987868957041
 50
126.7974170349802
 51
163.58374767656801
  0
ARC
  5
5BFD
  8
01_FRAME
 62
     7
 10
695.07386787607595
 20
3688.250468696544
 30
0.0
 40
3.7959401227298382
 50
343.74206189479008
 51
345.59022698623642
  0
ARC
  5
5BFE
  8
01_FRAME
 62
     7
 10
699.79155854393935
 20
3686.895837100973
 30
0.0
 40
1.112526027892746
 50
164.78824619774861
 51
186.82014585813221
  0
ARC
  5
5BFF
  8
01_FRAME
 62
     7
 10
698.94539965499257
 20
3686.787115479694
 30
0.0
 40
0.2595511549401781
 50
185.171295796316
 51
236.50138254920921
  0
ARC
  5
5C00
  8
01_FRAME
 62
     7
 10
699.01672934492365
 20
3686.8948885358081
 30
0.0
 40
0.3887910724951353
 50
236.50138254920921
 51
266.82989961253043
  0
ENDSEC
  0
EOF
