  0
SECTION
  2
HEADER
  9
$ACADVER
  1
AC1009
  9
$INSBASE
 10
0.0
 20
0.0
 30
0.0
  9
$EXTMIN
 10
503.55426815072019
 20
3712.5058825932911
 30
0.0
  9
$EXTMAX
 10
773.18719422407071
 20
3905.8922860666448
 30
0.0
  9
$LIMMIN
 10
0.0
 20
0.0
  9
$LIMMAX
 10
0.0
 20
0.0
  9
$ORTHOMODE
 70
     0
  9
$REGENMODE
 70
     1
  9
$FILLMODE
 70
     1
  9
$QTEXTMODE
 70
     0
  9
$MIRRTEXT
 70
     1
  9
$DRAGMODE
 70
     2
  9
$LTSCALE
 40
10.0
  9
$OSMODE
 70
    47
  9
$ATTMODE
 70
     1
  9
$TEXTSIZE
 40
2.0
  9
$TRACEWID
 40
0.05
  9
$TEXTSTYLE
  7
MECHTRONICS
  9
$CLAYER
  8
50_DIMENSIONS
  9
$CELTYPE
  6
BYLAYER
  9
$CECOLOR
 62
   256
  9
$DIMSCALE
 40
1.0
  9
$DIMASZ
 40
2.0
  9
$DIMEXO
 40
1.0
  9
$DIMDLI
 40
6.0
  9
$DIMRND
 40
0.0
  9
$DIMDLE
 40
0.0
  9
$DIMEXE
 40
0.5
  9
$DIMTP
 40
0.0
  9
$DIMTM
 40
0.0
  9
$DIMTXT
 40
2.0
  9
$DIMCEN
 40
0.09
  9
$DIMTSZ
 40
0.0
  9
$DIMTOL
 70
     0
  9
$DIMLIM
 70
     0
  9
$DIMTIH
 70
     0
  9
$DIMTOH
 70
     1
  9
$DIMSE1
 70
     0
  9
$DIMSE2
 70
     0
  9
$DIMTAD
 70
     0
  9
$DIMZIN
 70
     0
  9
$DIMBLK
  1

  9
$DIMASO
 70
     1
  9
$DIMSHO
 70
     1
  9
$DIMPOST
  1

  9
$DIMAPOST
  1
"
  9
$DIMALT
 70
     1
  9
$DIMALTD
 70
     1
  9
$DIMALTF
 40
0.03937
  9
$DIMLFAC
 40
1.0
  9
$DIMTOFL
 70
     0
  9
$DIMTVP
 40
0.0
  9
$DIMTIX
 70
     0
  9
$DIMSOXD
 70
     0
  9
$DIMSAH
 70
     0
  9
$DIMBLK1
  1

  9
$DIMBLK2
  1

  9
$DIMSTYLE
  2
MECHTRONICS
  9
$DIMCLRD
 70
     7
  9
$DIMCLRE
 70
     7
  9
$DIMCLRT
 70
     0
  9
$DIMTFAC
 40
1.0
  9
$DIMGAP
 40
0.5
  9
$LUNITS
 70
     2
  9
$LUPREC
 70
    10
  9
$SKETCHINC
 40
0.1
  9
$FILLETRAD
 40
5.0
  9
$AUNITS
 70
     0
  9
$AUPREC
 70
     0
  9
$MENU
  1
acad
  9
$ELEVATION
 40
0.0
  9
$PELEVATION
 40
0.0
  9
$THICKNESS
 40
0.0
  9
$LIMCHECK
 70
     0
  9
$BLIPMODE
 70
     0
  9
$CHAMFERA
 40
0.0
  9
$CHAMFERB
 40
0.0
  9
$SKPOLY
 70
     0
  9
$TDCREATE
 40
2444972.083333333
  9
$TDUPDATE
 40
2454646.8314319211
  9
$TDINDWG
 40
1.0487592014
  9
$TDUSRTIMER
 40
1.0487584837999999
  9
$USRTIMER
 70
     1
  9
$ANGBASE
 50
0.0
  9
$ANGDIR
 70
     0
  9
$PDMODE
 70
     0
  9
$PDSIZE
 40
0.0
  9
$PLINEWID
 40
0.0
  9
$COORDS
 70
     1
  9
$SPLFRAME
 70
     0
  9
$SPLINETYPE
 70
     6
  9
$SPLINESEGS
 70
     8
  9
$ATTDIA
 70
     0
  9
$ATTREQ
 70
     1
  9
$HANDLING
 70
     1
  9
$HANDSEED
  5
59B0
  9
$SURFTAB1
 70
     6
  9
$SURFTAB2
 70
     6
  9
$SURFTYPE
 70
     6
  9
$SURFU
 70
     6
  9
$SURFV
 70
     6
  9
$UCSNAME
  2

  9
$UCSORG
 10
0.0
 20
0.0
 30
0.0
  9
$UCSXDIR
 10
1.0
 20
0.0
 30
0.0
  9
$UCSYDIR
 10
0.0
 20
1.0
 30
0.0
  9
$PUCSNAME
  2

  9
$PUCSORG
 10
0.0
 20
0.0
 30
0.0
  9
$PUCSXDIR
 10
1.0
 20
0.0
 30
0.0
  9
$PUCSYDIR
 10
0.0
 20
1.0
 30
0.0
  9
$USERI1
 70
     0
  9
$USERI2
 70
     0
  9
$USERI3
 70
     0
  9
$USERI4
 70
     0
  9
$USERI5
 70
     0
  9
$USERR1
 40
0.0
  9
$USERR2
 40
0.0
  9
$USERR3
 40
0.0
  9
$USERR4
 40
0.0
  9
$USERR5
 40
0.0
  9
$WORLDVIEW
 70
     1
  9
$SHADEDGE
 70
     3
  9
$SHADEDIF
 70
    70
  9
$TILEMODE
 70
     1
  9
$MAXACTVP
 70
    16
  9
$PLIMCHECK
 70
     0
  9
$PEXTMIN
 10
1.0887500995726069
 20
0.7937499998122686
 30
0.0
  9
$PEXTMAX
 10
21.184573317709511
 20
7.1437499983104198
 30
0.0
  9
$PLIMMIN
 10
0.0
 20
0.0
  9
$PLIMMAX
 10
12.0
 20
9.0
  9
$UNITMODE
 70
     0
  9
$VISRETAIN
 70
     0
  9
$PLINEGEN
 70
     1
  9
$PSLTSCALE
 70
     0
  0
ENDSEC
  0
SECTION
  2
TABLES
  0
TABLE
  2
VPORT
 70
     2
  0
VPORT
  2
*ACTIVE
 70
     0
 10
0.0
 20
0.0
 11
1.0
 21
1.0
 12
671.88583506177304
 22
3809.1112563897068
 13
0.0
 23
0.0
 14
1.0
 24
1.0
 15
0.0
 25
0.0
 16
0.0
 26
0.0
 36
1.0
 17
0.0
 27
0.0
 37
0.0
 40
195.8311931399756
 41
1.7423423423423421
 42
50.0
 43
0.0
 44
0.0
 50
0.0
 51
0.0
 71
     0
 72
   100
 73
     1
 74
     0
 75
     0
 76
     0
 77
     0
 78
     0
  0
ENDTAB
  0
TABLE
  2
LTYPE
 70
     1
  0
LTYPE
  2
CONTINUOUS
 70
     0
  3
Solid line
 72
    65
 73
     0
 40
0.0
  0
ENDTAB
  0
TABLE
  2
LAYER
 70
     6
  0
LAYER
  2
0
 70
     0
 62
   221
  6
CONTINUOUS
  0
LAYER
  2
50_DIMENSIONS
 70
     0
 62
     7
  6
CONTINUOUS
  0
LAYER
  2
10_OUTLINE
 70
     0
 62
     2
  6
CONTINUOUS
  0
LAYER
  2
62_TEXT
 70
     0
 62
     7
  6
CONTINUOUS
  0
LAYER
  2
01_FRAME
 70
     0
 62
     4
  6
CONTINUOUS
  0
LAYER
  2
DEFPOINTS
 70
     0
 62
     7
  6
CONTINUOUS
  0
ENDTAB
  0
TABLE
  2
STYLE
 70
     2
  0
STYLE
  2
STANDARD
 70
     0
 40
0.0
 41
1.0
 50
0.0
 71
     0
 42
1.345608723561553
  3
txt
  4

  0
STYLE
  2
MECHTRONICS
 70
     0
 40
2.0
 41
1.0
 50
0.0
 71
     0
 42
2.0
  3
txt
  4

  0
ENDTAB
  0
TABLE
  2
VIEW
 70
     0
  0
ENDTAB
  0
TABLE
  2
UCS
 70
    16
  0
UCS
  2
AUDIT_D_000731094948-0
 70
     0
 10
0.0
 20
0.0
 30
1.0
 11
1.0
 21
0.0
 31
0.0
 12
0.0
 22
1.0
 32
0.0
  0
UCS
  2
AUDIT_D_000731094948-1
 70
     0
 10
0.0
 20
0.0
 30
1.0
 11
1.0
 21
0.0
 31
0.0
 12
0.0
 22
1.0
 32
0.0
  0
UCS
  2
AUDIT_D_000731094948-2
 70
     0
 10
0.0
 20
0.0
 30
1.0
 11
1.0
 21
0.0
 31
0.0
 12
0.0
 22
1.0
 32
0.0
  0
UCS
  2
AUDIT_D_000731094948-3
 70
     0
 10
0.0
 20
0.0
 30
1.0
 11
1.0
 21
0.0
 31
0.0
 12
0.0
 22
1.0
 32
0.0
  0
UCS
  2
AUDIT_D_000731094948-4
 70
     0
 10
0.0
 20
0.0
 30
1.0
 11
1.0
 21
0.0
 31
0.0
 12
0.0
 22
1.0
 32
0.0
  0
UCS
  2
AUDIT_D_000731094948-5
 70
     0
 10
0.0
 20
0.0
 30
1.0
 11
1.0
 21
0.0
 31
0.0
 12
0.0
 22
1.0
 32
0.0
  0
UCS
  2
AUDIT_D_000731094948-6
 70
     0
 10
0.0
 20
0.0
 30
1.0
 11
1.0
 21
0.0
 31
0.0
 12
0.0
 22
1.0
 32
0.0
  0
UCS
  2
AUDIT_D_000731094948-7
 70
     0
 10
0.0
 20
0.0
 30
1.0
 11
1.0
 21
0.0
 31
0.0
 12
0.0
 22
1.0
 32
0.0
  0
UCS
  2
AUDIT_D_000731094948-8
 70
     0
 10
0.0
 20
0.0
 30
1.0
 11
1.0
 21
0.0
 31
0.0
 12
0.0
 22
1.0
 32
0.0
  0
UCS
  2
AUDIT_D_000731094948-9
 70
     0
 10
0.0
 20
0.0
 30
1.0
 11
1.0
 21
0.0
 31
0.0
 12
0.0
 22
1.0
 32
0.0
  0
UCS
  2
AUDIT_D_000731094948-10
 70
     0
 10
0.0
 20
0.0
 30
1.0
 11
1.0
 21
0.0
 31
0.0
 12
0.0
 22
1.0
 32
0.0
  0
UCS
  2
AUDIT_D_000731094948-11
 70
     0
 10
0.0
 20
0.0
 30
1.0
 11
1.0
 21
0.0
 31
0.0
 12
0.0
 22
1.0
 32
0.0
  0
UCS
  2
AUDIT_D_000731094948-12
 70
     0
 10
0.0
 20
0.0
 30
1.0
 11
1.0
 21
0.0
 31
0.0
 12
0.0
 22
1.0
 32
0.0
  0
UCS
  2
AUDIT_D_000731094948-13
 70
     0
 10
0.0
 20
0.0
 30
1.0
 11
1.0
 21
0.0
 31
0.0
 12
0.0
 22
1.0
 32
0.0
  0
UCS
  2
AUDIT_D_000731094948-14
 70
     0
 10
0.0
 20
0.0
 30
1.0
 11
1.0
 21
0.0
 31
0.0
 12
0.0
 22
1.0
 32
0.0
  0
UCS
  2
CK_VIEW_1
 70
     0
 10
0.0
 20
0.0
 30
1.0
 11
1.0
 21
0.0
 31
0.0
 12
0.0
 22
1.0
 32
0.0
  0
ENDTAB
  0
TABLE
  2
APPID
 70
     4
  0
APPID
  2
ACAD
 70
     0
  0
APPID
  2
DCO15
 70
     0
  0
APPID
  2
ACAD_PSEXT
 70
     0
  0
APPID
  2
ACAD_DSTYLE_DIMTEXT_FILL
 70
     0
  0
ENDTAB
  0
TABLE
  2
DIMSTYLE
 70
     2
  0
DIMSTYLE
  2
STANDARD
 70
     0
  3

  4

  5

  6

  7

 40
1.0
 41
0.18
 42
0.0625
 43
0.38
 44
0.18
 45
0.0
 46
0.0
 47
0.0
 48
0.0
140
0.18
141
0.09
142
0.0
143
25.399999999999999
144
1.0
145
0.0
146
1.0
147
0.09
 71
     0
 72
     0
 73
     1
 74
     1
 75
     0
 76
     0
 77
     0
 78
     0
170
     0
171
     2
172
     0
173
     0
174
     0
175
     0
176
     0
177
     0
178
     0
  0
DIMSTYLE
  2
MECHTRONICS
 70
     0
  3

  4
"
  5

  6

  7

 40
1.0
 41
2.0
 42
1.0
 43
6.0
 44
0.5
 45
0.0
 46
0.0
 47
0.0
 48
0.0
140
2.0
141
0.09
142
0.0
143
0.03937
144
1.0
145
0.0
146
1.0
147
0.5
 71
     0
 72
     0
 73
     0
 74
     1
 75
     0
 76
     0
 77
     0
 78
     0
170
     1
171
     1
172
     0
173
     0
174
     0
175
     0
176
     7
177
     7
178
     0
  0
ENDTAB
  0
ENDSEC
  0
SECTION
  2
BLOCKS
  0
BLOCK
  8
0
  2
$MODEL_SPACE
 70
     0
 10
0.0
 20
0.0
 30
0.0
  3
$MODEL_SPACE
  1

  0
ENDBLK
  5
E
  8
0
  0
BLOCK
 67
     1
  8
0
  2
$PAPER_SPACE
 70
     0
 10
0.0
 20
0.0
 30
0.0
  3
$PAPER_SPACE
  1

  0
ENDBLK
  5
10
 67
     1
  8
0
  0
BLOCK
  8
0
  2
*D0
 70
     1
 10
0.0
 20
0.0
 30
0.0
  3
*D0
  1

  0
LINE
  5
5899
  8
50_DIMENSIONS
 62
     7
 10
588.8685525351267
 20
3833.6393121389301
 30
0.0
 11
588.8685525351267
 21
3790.4229048576099
 31
0.0
  0
LINE
  5
589A
  8
50_DIMENSIONS
 62
     7
 10
717.36855253512658
 20
3806.4544315324551
 30
0.0
 11
717.36855253512658
 21
3790.4229048576099
 31
0.0
  0
LINE
  5
589B
  8
50_DIMENSIONS
 62
     7
 10
590.86855253512681
 20
3790.9229048576099
 30
0.0
 11
646.90231788301196
 21
3790.9229048576099
 31
0.0
  0
LINE
  5
589C
  8
50_DIMENSIONS
 62
     7
 10
715.36855253512647
 20
3790.9229048576099
 30
0.0
 11
659.33478718724132
 21
3790.9229048576099
 31
0.0
  0
SOLID
  5
589D
  8
50_DIMENSIONS
 62
     7
 10
590.86855253512681
 20
3791.2562381909429
 30
0.0
 11
590.86855253512681
 21
3790.5895715242768
 31
0.0
 12
588.8685525351267
 22
3790.9229048576099
 32
0.0
 13
588.8685525351267
 23
3790.9229048576099
 33
0.0
  0
SOLID
  5
589E
  8
50_DIMENSIONS
 62
     7
 10
715.36855253512647
 20
3791.2562381909429
 30
0.0
 11
715.36855253512647
 21
3790.5895715242768
 31
0.0
 12
717.36855253512658
 22
3790.9229048576099
 32
0.0
 13
717.36855253512658
 23
3790.9229048576099
 33
0.0
  0
INSERT
  5
589F
  8
50_DIMENSIONS
  2
*U2
 10
0.0
 20
0.0
 30
0.0
  0
POINT
  5
58A0
  8
DEFPOINTS
 62
     0
 10
588.8685525351267
 20
3834.639312138931
 30
0.0
  0
POINT
  5
58A1
  8
DEFPOINTS
 62
     0
 10
717.36855253512658
 20
3807.4544315324538
 30
0.0
  0
POINT
  5
58A2
  8
DEFPOINTS
 62
     0
 10
717.36855253512658
 20
3790.9229048576099
 30
0.0
  0
ENDBLK
  5
4F9B
  8
0
  0
BLOCK
  8
0
  2
*D1
 70
     1
 10
0.0
 20
0.0
 30
0.0
  3
*D1
  1

  0
LINE
  5
598F
  8
50_DIMENSIONS
 62
     7
 10
607.86855253512647
 20
3854.6393121389301
 30
0.0
 11
575.35864337272062
 21
3854.6393121389301
 31
0.0
  0
LINE
  5
5990
  8
50_DIMENSIONS
 62
     7
 10
601.67411718814014
 20
3802.9544315324538
 30
0.0
 11
575.35864337272051
 21
3802.9544315324538
 31
0.0
  0
LINE
  5
5991
  8
50_DIMENSIONS
 62
     7
 10
575.85864337272062
 20
3852.639312138931
 30
0.0
 11
575.85864337272051
 21
3834.3459850689801
 31
0.0
  0
LINE
  5
5992
  8
50_DIMENSIONS
 62
     7
 10
575.85864337272051
 20
3804.9544315324538
 30
0.0
 11
575.85864337272051
 21
3823.2477586024052
 31
0.0
  0
SOLID
  5
5993
  8
50_DIMENSIONS
 62
     7
 10
575.52531003938725
 20
3852.639312138931
 30
0.0
 11
576.19197670605399
 21
3852.639312138931
 31
0.0
 12
575.85864337272062
 22
3854.6393121389301
 32
0.0
 13
575.85864337272062
 23
3854.6393121389301
 33
0.0
  0
SOLID
  5
5994
  8
50_DIMENSIONS
 62
     7
 10
575.52531003938714
 20
3804.9544315324538
 30
0.0
 11
576.19197670605388
 21
3804.9544315324538
 31
0.0
 12
575.85864337272051
 22
3802.9544315324538
 32
0.0
 13
575.85864337272051
 23
3802.9544315324538
 33
0.0
  0
INSERT
  5
5995
  8
50_DIMENSIONS
  2
*U3
 10
0.0
 20
0.0
 30
0.0
  0
POINT
  5
5996
  8
DEFPOINTS
 62
     0
 10
608.86855253512658
 20
3854.6393121389301
 30
0.0
  0
POINT
  5
5997
  8
DEFPOINTS
 62
     0
 10
602.67411718814014
 20
3802.9544315324538
 30
0.0
  0
POINT
  5
5998
  8
DEFPOINTS
 62
     0
 10
575.85864337272051
 20
3802.9544315324538
 30
0.0
  0
ENDBLK
  5
4FA9
  8
0
  0
BLOCK
  8
0
  2
*U2
 70
     1
 10
0.0
 20
0.0
 30
0.0
  3
*U2
  1

  0
TEXT
  5
59A9
  8
50_DIMENSIONS
 62
     0
 10
646.98894816950599
 20
3790.1964382818942
 30
0.0
 40
2.0
  1
128 [5.1"]
  7
MECHTRONICS
  0
ENDBLK
  5
59AB
  8
0
  0
BLOCK
  8
0
  2
*U3
 70
     1
 10
0.0
 20
0.0
 30
0.0
  3
*U3
  1

  0
TEXT
  5
59AD
  8
50_DIMENSIONS
 62
     0
 10
576.58510994843607
 20
3823.5540341822139
 30
0.0
 40
2.0
  1
52 [2.0"]
 50
90.0
  7
MECHTRONICS
  0
ENDBLK
  5
59AF
  8
0
  0
ENDSEC
  0
SECTION
  2
ENTITIES
  0
LINE
  5
2747
  8
01_FRAME
 62
     4
 10
503.55426815072019
 20
3905.8922860666448
 30
0.0
 11
503.5542681507203
 21
3712.5058825932911
 31
0.0
  0
LINE
  5
2748
  8
01_FRAME
 62
     4
 10
773.18719422407071
 20
3905.8922860666448
 30
0.0
 11
503.55426815072019
 21
3905.8922860666448
 31
0.0
  0
LINE
  5
274D
  8
01_FRAME
 62
     4
 10
773.18719422407071
 20
3712.5058825932911
 30
0.0
 11
773.18719422407071
 21
3905.8922860666448
 31
0.0
  0
LINE
  5
274E
  8
01_FRAME
 62
     4
 10
503.5542681507203
 20
3712.5058825932911
 30
0.0
 11
773.18719422407071
 21
3712.5058825932911
 31
0.0
  0
LINE
  5
3FC5
  8
01_FRAME
 62
     4
 10
667.61064135957633
 20
3733.4862815981469
 30
0.0
 11
697.19075910190895
 21
3733.4862815981469
 31
0.0
  0
LINE
  5
3FC6
  8
01_FRAME
 62
     4
 10
667.61059384816997
 20
3712.5058825932911
 30
0.0
 11
667.61059384816997
 21
3744.0318221675998
 31
0.0
  0
TEXT
  5
3FD0
  8
01_FRAME
 62
     8
 10
764.39794241455922
 20
3720.9698733208038
 30
0.0
 40
1.399999999999999
  1
Revision
  7
MECHTRONICS
  0
TEXT
  5
3FD1
  8
62_TEXT
 10
720.84877466105263
 20
3726.8300152089969
 30
0.0
 40
2.0
  1
MOTOR PLATE LUG - PROFILE CUT
  7
MECHTRONICS
 72
     1
 11
744.73213073199395
 21
3726.8300152089969
 31
0.0
  0
LINE
  5
3FD2
  8
01_FRAME
 62
     8
 10
697.19075910190895
 20
3744.0318221675998
 30
0.0
 11
773.18719422407071
 21
3744.0318221675998
 31
0.0
  0
LINE
  5
3FD3
  8
01_FRAME
 62
     8
 10
697.19075910190895
 20
3740.5195636257572
 30
0.0
 11
773.18719422407071
 21
3740.5195636257572
 31
0.0
  0
LINE
  5
3FD4
  8
01_FRAME
 62
     4
 10
713.45429759680223
 20
3723.0426708885279
 30
0.0
 11
773.18714671266423
 21
3723.0426708885279
 31
0.0
  0
LINE
  5
3FD5
  8
01_FRAME
 62
     4
 10
667.61064135957645
 20
3729.1396238345978
 30
0.0
 11
713.45429759680223
 21
3729.1396238345978
 31
0.0
  0
LINE
  5
3FD6
  8
01_FRAME
 62
     8
 10
701.91497446666312
 20
3737.0072924142059
 30
0.0
 11
773.18719422407071
 21
3737.0072924142059
 31
0.0
  0
TEXT
  5
3FD9
  8
01_FRAME
 62
     8
 10
668.21549636737768
 20
3741.9259000996899
 30
0.0
 40
1.399999999999999
  1
Higher
  7
MECHTRONICS
  0
TEXT
  5
3FDA
  8
01_FRAME
 62
     8
 10
720.22109063495554
 20
3734.6932028618812
 30
0.0
 40
1.399999999999999
  1
Description of change
  7
MECHTRONICS
  0
LINE
  5
3FDB
  8
01_FRAME
 62
     4
 10
713.45429759680212
 20
3733.4862815981469
 30
0.0
 11
713.45429759680223
 21
3712.5058825932911
 31
0.0
  0
LINE
  5
3FDC
  8
01_FRAME
 62
     4
 10
697.19075910190895
 20
3733.4862815981469
 30
0.0
 11
697.19075910190895
 21
3744.0318221675998
 31
0.0
  0
LINE
  5
3FDF
  8
01_FRAME
 62
     8
 10
701.91497446666301
 20
3733.4862815981469
 30
0.0
 11
701.91497446666301
 21
3744.0740781595791
 31
0.0
  0
LINE
  5
3FE0
  8
01_FRAME
 62
     7
 10
697.53353129739116
 20
3735.674373138293
 30
0.0
 11
699.57741464446656
 21
3739.2144829401718
 31
0.0
  0
LINE
  5
3FE1
  8
01_FRAME
 62
     7
 10
697.53353129739116
 20
3735.674373138293
 30
0.0
 11
701.62129799154195
 21
3735.674373138293
 31
0.0
  0
LINE
  5
3FE2
  8
01_FRAME
 62
     7
 10
701.62129799154195
 20
3735.674373138293
 30
0.0
 11
699.57741464446656
 21
3739.2144829401718
 31
0.0
  0
TEXT
  5
3FE3
  8
01_FRAME
 62
     8
 10
714.2282140621345
 20
3730.3954981248912
 30
0.0
 40
1.399999999999999
  1
Title
  7
MECHTRONICS
  0
LINE
  5
3FE4
  8
01_FRAME
 62
     8
 10
754.042982931246
 20
3723.0426708885279
 30
0.0
 11
754.042982931246
 21
3712.5058825932911
 31
0.0
  0
LINE
  5
3FE6
  8
01_FRAME
 62
     8
 10
763.61506482195489
 20
3723.0426708885279
 30
0.0
 11
763.61506482195489
 21
3712.5058825932911
 31
0.0
  0
TEXT
  5
3FE7
  8
01_FRAME
 62
     8
 10
754.82586052385022
 20
3720.7681212554312
 30
0.0
 40
1.399999999999999
  1
Process
  7
MECHTRONICS
  0
TEXT
  5
3FE8
  8
01_FRAME
 62
     8
 10
714.11385580813885
 20
3720.9546185872018
 30
0.0
 40
1.399999999999999
  1
Drawing Number
  7
MECHTRONICS
  0
TEXT
  5
3FE9
  8
62_TEXT
 10
720.36107855491696
 20
3714.8316250023699
 30
0.0
 40
4.0
  1
10 40 434
  7
MECHTRONICS
  0
TEXT
  5
3FEA
  8
62_TEXT
 10
756.64692002491267
 20
3714.8316250023699
 30
0.0
 40
4.0
  1
P
  7
MECHTRONICS
  0
LINE
  5
3FEB
  8
01_FRAME
 62
     8
 10
754.45910739289059
 20
3733.4862815981469
 30
0.0
 11
754.45910739289059
 21
3744.065313215654
 31
0.0
  0
TEXT
  5
3FED
  8
62_TEXT
 10
766.2190019156219
 20
3714.8316250023699
 30
0.0
 40
4.0
  1
D
  7
MECHTRONICS
  0
LINE
  5
3FEE
  8
01_FRAME
 62
     8
 10
767.850843549876
 20
3733.4862815981469
 30
0.0
 11
767.850843549876
 21
3744.065313215654
 31
0.0
  0
TEXT
  5
3FEF
  8
01_FRAME
 62
     8
 10
768.78774960274336
 20
3734.6932028618799
 30
0.0
 40
1.399999999999999
  1
Rev.
  7
MECHTRONICS
  0
TEXT
  5
3FF2
  8
01_FRAME
 62
     8
 10
680.92396862709666
 20
3716.258833544463
 30
0.0
 40
1.399999999999999
  1
www.mechmate.com
  7
MECHTRONICS
  0
TEXT
  5
3FF6
  8
62_TEXT
 10
678.79417952911706
 20
3740.9306333125078
 30
0.0
 40
2.0
  1
10 40 430 W
  7
MECHTRONICS
  0
TEXT
  5
3FF8
  8
01_FRAME
 62
     8
 10
668.21549636737768
 20
3739.8982677275062
 30
0.0
 40
1.399999999999999
  1
drawing/s:
  7
MECHTRONICS
  0
LINE
  5
3FF9
  8
01_FRAME
 62
     4
 10
667.61059384816997
 20
3744.0318221675998
 30
0.0
 11
697.19075910190895
 21
3744.0318221675998
 31
0.0
  0
LINE
  5
3FFB
  8
01_FRAME
 62
     4
 10
697.19075910190895
 20
3733.4862815981469
 30
0.0
 11
773.18714671266423
 21
3733.4862815981469
 31
0.0
  0
TEXT
  5
3FFC
  8
01_FRAME
 62
     8
 10
668.38455782490871
 20
3731.4113028199299
 30
0.0
 40
1.399999999999999
  1
Material:
  7
MECHTRONICS
  0
TEXT
  5
3FFD
  8
62_TEXT
 10
677.44188469238145
 20
3730.3924845742708
 30
0.0
 40
2.0
  1
6mm [1/4"] STEEL 300MPa
  7
MECHTRONICS
  0
TEXT
  5
4339
  8
01_FRAME
 62
     8
 10
698.26349720923929
 20
3741.609132977193
 30
0.0
 40
1.399999999999999
  1
1:1
  7
MECHTRONICS
  0
TEXT
  5
4E8A
  8
62_TEXT
 10
755.38597921958876
 20
3737.8839512253121
 30
0.0
 40
2.0
  1
27-06-08
  7
MECHTRONICS
  0
TEXT
  5
4E8B
  8
01_FRAME
 62
     7
 10
769.35057778212149
 20
3737.8367820888388
 30
0.0
 40
2.0
  1
D
  7
MECHTRONICS
  0
TEXT
  5
4E8C
  8
01_FRAME
 62
     7
 10
711.91669240571196
 20
3737.8839512253121
 30
0.0
 40
2.0
  1
Increased nose protrusion 2.5mm
  7
MECHTRONICS
  0
ARC
  5
4F67
  8
10_OUTLINE
 62
     2
 10
608.86855253512658
 20
3834.639312138931
 30
0.0
 40
19.999999999999769
 50
70.389645055764376
 51
200.13079720734211
  0
CIRCLE
  5
4F68
  8
10_OUTLINE
 10
608.86855253512658
 20
3834.639312138931
 30
0.0
 40
5.0499999999999989
  0
LINE
  5
4F69
  8
10_OUTLINE
 62
     2
 10
620.64720949320929
 20
3807.4544315324538
 30
0.0
 11
717.36855253512658
 21
3807.4544315324538
 31
0.0
  0
LINE
  5
4F6A
  8
10_OUTLINE
 62
     2
 10
620.64720949320929
 20
3807.4544315324538
 30
0.0
 11
620.64720949320929
 21
3802.9544315324551
 31
0.0
  0
LINE
  5
4F6C
  8
10_OUTLINE
 62
     2
 10
717.36855253512658
 20
3807.4544315324538
 30
0.0
 11
717.36855253512613
 21
3813.6871622468461
 31
0.0
  0
ARC
  5
4F6D
  8
10_OUTLINE
 62
     2
 10
712.36855253512613
 20
3813.6871622468461
 30
0.0
 40
5.0
 50
0.0
 51
70.389645055764376
  0
LINE
  5
4F6F
  8
10_OUTLINE
 62
     2
 10
590.09036463506879
 20
3827.7560237394719
 30
0.0
 11
597.97957021312584
 21
3806.2336094325879
 31
0.0
  0
LINE
  5
4F71
  8
10_OUTLINE
 62
     2
 10
714.046661636669
 20
3818.3971463066191
 30
0.0
 11
615.58098894129819
 21
3853.4792483780238
 31
0.0
  0
DIMENSION
  5
4F8E
  8
50_DIMENSIONS
  2
*D0
 10
717.36855253512658
 20
3790.9229048576099
 30
0.0
 11
653.1185525351267
 21
3790.9229048576099
 31
0.0
 70
     0
 13
588.8685525351267
 23
3834.639312138931
 33
0.0
 14
717.36855253512658
 24
3807.4544315324538
 34
0.0
  0
DIMENSION
  5
4F9C
  8
50_DIMENSIONS
  2
*D1
 10
575.85864337272051
 20
3802.9544315324538
 30
0.0
 11
575.85864337271994
 21
3828.7968718356919
 31
0.0
 70
     0
 13
608.86855253512658
 23
3854.6393121389301
 33
0.0
 14
602.67411718814014
 24
3802.9544315324538
 34
0.0
 50
90.0
  0
TEXT
  5
4FC8
  8
62_TEXT
 10
755.38597921958876
 20
3741.3962224368629
 30
0.0
 40
2.0
  1
21-11-06
  7
MECHTRONICS
  0
TEXT
  5
4FC9
  8
01_FRAME
 62
     7
 10
769.35057778212149
 20
3741.3490533003892
 30
0.0
 40
2.0
  1
C
  7
MECHTRONICS
  0
TEXT
  5
4FCA
  8
01_FRAME
 62
     7
 10
705.98650005286993
 20
3741.3962224368629
 30
0.0
 40
2.0
  1
Shape change to lower motor position
  7
MECHTRONICS
  0
TEXT
  5
58AD
  8
01_FRAME
 62
     8
 10
755.74775821347953
 20
3734.6932028618799
 30
0.0
 40
1.3999999999999999
  1
Date (d-m-y)
  7
MECHTRONICS
  0
LINE
  5
58AE
  8
01_FRAME
 62
     7
 10
695.32669698797656
 20
3719.447081640647
 30
0.0
 11
696.5107789257396
 21
3719.447081640647
 31
0.0
  0
LINE
  5
58AF
  8
01_FRAME
 62
     7
 10
696.12117776817354
 20
3724.5054997940961
 30
0.0
 11
695.32669698797656
 21
3719.447081640647
 31
0.0
  0
LINE
  5
58B0
  8
01_FRAME
 62
     7
 10
694.34505484495253
 20
3721.0295176958412
 30
0.0
 11
696.12117776817354
 21
3724.5054997940961
 31
0.0
  0
LINE
  5
58B1
  8
01_FRAME
 62
     7
 10
697.38547171383993
 20
3725.5502148580508
 30
0.0
 11
695.536776048403
 21
3725.5502148580508
 31
0.0
  0
LINE
  5
58B2
  8
01_FRAME
 62
     7
 10
679.17411381930526
 20
3721.9368259081721
 30
0.0
 11
681.69639983947457
 21
3721.9368259081721
 31
0.0
  0
LINE
  5
58B3
  8
01_FRAME
 62
     7
 10
681.46570294778996
 20
3720.9066019981192
 30
0.0
 11
679.42019049934765
 21
3720.9066019981192
 31
0.0
  0
LINE
  5
58B4
  8
01_FRAME
 62
     7
 10
678.88189774103262
 20
3720.1224016861079
 30
0.0
 11
680.94884825674455
 21
3720.1224016861079
 31
0.0
  0
LINE
  5
58B5
  8
01_FRAME
 62
     7
 10
681.06440165820436
 20
3724.1971679742151
 30
0.0
 11
679.5739884160854
 21
3724.1971679742151
 31
0.0
  0
LINE
  5
58B6
  8
01_FRAME
 62
     7
 10
679.27731235568331
 20
3722.5980102932981
 30
0.0
 11
680.76856089545856
 21
3722.5980102932981
 31
0.0
  0
LINE
  5
58B7
  8
01_FRAME
 62
     7
 10
680.5855856169452
 20
3723.4240044411349
 30
0.0
 11
679.63411414215329
 21
3723.4240044411349
 31
0.0
  0
LINE
  5
58B8
  8
01_FRAME
 62
     7
 10
672.09569374359637
 20
3719.447081640647
 30
0.0
 11
672.81760174842179
 21
3724.528544974698
 31
0.0
  0
LINE
  5
58B9
  8
01_FRAME
 62
     7
 10
673.71139261785424
 20
3725.5502148580508
 30
0.0
 11
671.83595963855316
 21
3725.5502148580508
 31
0.0
  0
LINE
  5
58BA
  8
01_FRAME
 62
     7
 10
671.83595963855316
 20
3725.5502148580508
 30
0.0
 11
670.97272569925167
 21
3719.447081640647
 31
0.0
  0
LINE
  5
58BB
  8
01_FRAME
 62
     7
 10
670.97272569925167
 20
3719.447081640647
 30
0.0
 11
672.09569374359637
 21
3719.447081640647
 31
0.0
  0
LINE
  5
58BC
  8
01_FRAME
 62
     7
 10
676.32401213335811
 20
3724.5054997940961
 30
0.0
 11
675.52953135316125
 21
3719.447081640647
 31
0.0
  0
LINE
  5
58BD
  8
01_FRAME
 62
     7
 10
676.71361329092429
 20
3719.447081640647
 30
0.0
 11
677.58830607902541
 21
3725.5502148580508
 31
0.0
  0
LINE
  5
58BE
  8
01_FRAME
 62
     7
 10
675.52953135316125
 20
3719.447081640647
 30
0.0
 11
676.71361329092429
 21
3719.447081640647
 31
0.0
  0
LINE
  5
58BF
  8
01_FRAME
 62
     7
 10
677.58830607902541
 20
3725.5502148580508
 30
0.0
 11
675.73961041358746
 21
3725.5502148580508
 31
0.0
  0
LINE
  5
58C0
  8
01_FRAME
 62
     7
 10
674.54788921013699
 20
3721.0295176958412
 30
0.0
 11
676.32401213335811
 21
3724.5054997940961
 31
0.0
  0
LINE
  5
58C1
  8
01_FRAME
 62
     7
 10
672.81760174842179
 20
3724.528544974698
 30
0.0
 11
673.52805090444849
 21
3721.0295176958412
 31
0.0
  0
LINE
  5
58C2
  8
01_FRAME
 62
     7
 10
674.26523740749485
 20
3722.6349989316391
 30
0.0
 11
673.71139261785424
 21
3725.5502148580508
 31
0.0
  0
LINE
  5
58C3
  8
01_FRAME
 62
     7
 10
675.73961041358746
 20
3725.5502148580508
 30
0.0
 11
674.26523740749485
 21
3722.6349989316391
 31
0.0
  0
LINE
  5
58C4
  8
01_FRAME
 62
     7
 10
673.52805090444849
 20
3721.0295176958412
 30
0.0
 11
674.54788921013699
 21
3721.0295176958412
 31
0.0
  0
LINE
  5
58C5
  8
01_FRAME
 62
     7
 10
678.32822522751462
 20
3723.2899558797599
 30
0.0
 11
678.0052495725264
 21
3721.1680021021211
 31
0.0
  0
LINE
  5
58C6
  8
01_FRAME
 62
     7
 10
679.07510693486688
 20
3721.1449416894202
 30
0.0
 11
679.17411381930526
 21
3721.9368259081721
 31
0.0
  0
LINE
  5
58C7
  8
01_FRAME
 62
     7
 10
679.34135368327009
 20
3723.1341819267218
 30
0.0
 11
679.27731235568331
 21
3722.5980102932981
 31
0.0
  0
LINE
  5
58C8
  8
01_FRAME
 62
     7
 10
687.72533211300436
 20
3723.2876955679649
 30
0.0
 11
689.17118606032523
 21
3723.2876955679649
 31
0.0
  0
LINE
  5
58C9
  8
01_FRAME
 62
     7
 10
685.55149288523864
 20
3720.4606841541381
 30
0.0
 11
685.59763225031361
 21
3720.8604725465461
 31
0.0
  0
LINE
  5
58CA
  8
01_FRAME
 62
     7
 10
686.8971245352883
 20
3725.8091513074069
 30
0.0
 11
686.18589539547133
 21
3720.104478470902
 31
0.0
  0
LINE
  5
58CB
  8
01_FRAME
 62
     7
 10
687.27613478946091
 20
3720.104478470902
 30
0.0
 11
687.72533211300436
 21
3723.2876955679649
 31
0.0
  0
LINE
  5
58CC
  8
01_FRAME
 62
     7
 10
681.4195635495596
 20
3720.4606841541381
 30
0.0
 11
681.46570294778996
 21
3720.9066019981192
 31
0.0
  0
LINE
  5
58CD
  8
01_FRAME
 62
     7
 10
684.12117213690249
 20
3720.1224016861079
 30
0.0
 11
685.08077759242565
 21
3720.1224016861079
 31
0.0
  0
LINE
  5
58CE
  8
01_FRAME
 62
     7
 10
683.32142291018658
 20
3720.1224016861079
 30
0.0
 11
684.12117213690249
 21
3720.1224016861079
 31
0.0
  0
LINE
  5
58CF
  8
01_FRAME
 62
     7
 10
686.18589539547133
 20
3720.104478470902
 30
0.0
 11
687.27613478946091
 21
3720.104478470902
 31
0.0
  0
LINE
  5
58D0
  8
01_FRAME
 62
     7
 10
686.18589539547133
 20
3720.104478470902
 30
0.0
 11
686.18589539547133
 21
3720.104478470902
 31
0.0
  0
LINE
  5
58D1
  8
01_FRAME
 62
     7
 10
685.5361367650255
 20
3724.1971679742151
 30
0.0
 11
684.01351358523948
 21
3724.1971679742151
 31
0.0
  0
LINE
  5
58D2
  8
01_FRAME
 62
     7
 10
684.07503277182764
 20
3723.4283441681641
 30
0.0
 11
686.01387329080876
 21
3723.4283441681641
 31
0.0
  0
LINE
  5
58D3
  8
01_FRAME
 62
     7
 10
685.60510963771753
 20
3720.9066019981192
 30
0.0
 11
684.12117213690249
 21
3720.9066019981192
 31
0.0
  0
LINE
  5
58D4
  8
01_FRAME
 62
     7
 10
681.69639983947457
 20
3721.9368259081721
 30
0.0
 11
681.91251001187334
 21
3723.3875384607081
 31
0.0
  0
LINE
  5
58D5
  8
01_FRAME
 62
     7
 10
681.69639983947457
 20
3721.9368259081721
 30
0.0
 11
681.69639983947457
 21
3721.9368259081721
 31
0.0
  0
LINE
  5
58D6
  8
01_FRAME
 62
     7
 10
680.76856089545856
 20
3722.5980102932981
 30
0.0
 11
680.85113153860834
 21
3723.198092836496
 31
0.0
  0
LINE
  5
58D7
  8
01_FRAME
 62
     7
 10
682.7677503966695
 20
3723.2899558797599
 30
0.0
 11
682.52167371662631
 21
3721.6292963857518
 31
0.0
  0
LINE
  5
58D8
  8
01_FRAME
 62
     7
 10
683.51409812702946
 20
3721.1449416894202
 30
0.0
 11
683.78281669355476
 21
3723.1361910853939
 31
0.0
  0
LINE
  5
58D9
  8
01_FRAME
 62
     7
 10
682.52167371662631
 20
3721.6292963857518
 30
0.0
 11
682.44477474167957
 21
3721.1680021021211
 31
0.0
  0
LINE
  5
58DA
  8
01_FRAME
 62
     7
 10
684.12117213690249
 20
3720.9066019981192
 30
0.0
 11
683.85918169151023
 21
3720.9066019981192
 31
0.0
  0
LINE
  5
58DB
  8
01_FRAME
 62
     7
 10
686.01387329080876
 20
3723.4283441681641
 30
0.0
 11
686.05696322258041
 21
3723.6941743055349
 31
0.0
  0
LINE
  5
58DC
  8
01_FRAME
 62
     7
 10
685.59763225031361
 20
3720.8604725465461
 30
0.0
 11
685.60510963771753
 21
3720.9066019981192
 31
0.0
  0
LINE
  5
58DD
  8
01_FRAME
 62
     7
 10
687.81860809433294
 20
3723.7666774007939
 30
0.0
 11
688.06223010566157
 21
3725.8091513074069
 31
0.0
  0
LINE
  5
58DE
  8
01_FRAME
 62
     7
 10
688.06223010566157
 20
3725.8091513074069
 30
0.0
 11
686.8971245352883
 21
3725.8091513074069
 31
0.0
  0
LINE
  5
58DF
  8
01_FRAME
 62
     7
 10
689.9058108678289
 20
3720.104478470902
 30
0.0
 11
690.3125891741289
 21
3723.3222828875391
 31
0.0
  0
LINE
  5
58E0
  8
01_FRAME
 62
     7
 10
689.17118606032523
 20
3723.2876955679649
 30
0.0
 11
688.7687801053105
 21
3720.104478470902
 31
0.0
  0
LINE
  5
58E1
  8
01_FRAME
 62
     7
 10
691.8928593784118
 20
3719.447081640647
 30
0.0
 11
692.61476738323722
 21
3724.528544974698
 31
0.0
  0
LINE
  5
58E2
  8
01_FRAME
 62
     7
 10
691.63312527336768
 20
3725.5502148580508
 30
0.0
 11
690.76989133406607
 21
3719.447081640647
 31
0.0
  0
LINE
  5
58E3
  8
01_FRAME
 62
     7
 10
688.7687801053105
 20
3720.104478470902
 30
0.0
 11
689.9058108678289
 21
3720.104478470902
 31
0.0
  0
LINE
  5
58E4
  8
01_FRAME
 62
     7
 10
690.76989133406607
 20
3719.447081640647
 30
0.0
 11
691.8928593784118
 21
3719.447081640647
 31
0.0
  0
LINE
  5
58E5
  8
01_FRAME
 62
     7
 10
693.50855825266967
 20
3725.5502148580508
 30
0.0
 11
691.63312527336768
 21
3725.5502148580508
 31
0.0
  0
LINE
  5
58E6
  8
01_FRAME
 62
     7
 10
692.61476738323722
 20
3724.528544974698
 30
0.0
 11
693.32521653926392
 21
3721.0295176958412
 31
0.0
  0
LINE
  5
58E7
  8
01_FRAME
 62
     7
 10
694.06240304231017
 20
3722.6349989316391
 30
0.0
 11
693.50855825266967
 21
3725.5502148580508
 31
0.0
  0
LINE
  5
58E8
  8
01_FRAME
 62
     7
 10
695.536776048403
 20
3725.5502148580508
 30
0.0
 11
694.06240304231017
 21
3722.6349989316391
 31
0.0
  0
LINE
  5
58E9
  8
01_FRAME
 62
     7
 10
693.32521653926392
 20
3721.0295176958412
 30
0.0
 11
694.34505484495253
 21
3721.0295176958412
 31
0.0
  0
LINE
  5
58EA
  8
01_FRAME
 62
     7
 10
704.27221729628013
 20
3725.394322805023
 30
0.0
 11
703.23565055516679
 21
3725.2762963712362
 31
0.0
  0
LINE
  5
58EB
  8
01_FRAME
 62
     7
 10
703.68014784676654
 20
3721.1427313098502
 30
0.0
 11
704.01076082787915
 21
3723.4722632070102
 31
0.0
  0
LINE
  5
58EC
  8
01_FRAME
 62
     7
 10
703.48784785792282
 20
3720.120191306537
 30
0.0
 11
704.55511186167655
 21
3720.120191306537
 31
0.0
  0
LINE
  5
58ED
  8
01_FRAME
 62
     7
 10
701.25611795137286
 20
3720.136336622877
 30
0.0
 11
701.21599740609759
 21
3720.5909382278492
 31
0.0
  0
ARC
  5
58EE
  8
01_FRAME
 62
     7
 10
702.21212559857463
 20
3720.678850821665
 30
0.0
 40
1.0
 50
171.34562025558941
 51
185.0435314678453
  0
LINE
  5
58EF
  8
01_FRAME
 62
     7
 10
696.5107789257396
 20
3719.447081640647
 30
0.0
 11
697.38547171383993
 21
3725.5502148580508
 31
0.0
  0
LINE
  5
58F0
  8
01_FRAME
 62
     7
 10
698.61079359118196
 20
3720.1209601169148
 30
0.0
 11
699.59510034450773
 21
3720.1209601169148
 31
0.0
  0
LINE
  5
58F1
  8
01_FRAME
 62
     7
 10
700.1949122562562
 20
3720.136336622877
 30
0.0
 11
701.25611795137286
 21
3720.136336622877
 31
0.0
  0
LINE
  5
58F2
  8
01_FRAME
 62
     7
 10
703.48784785792179
 20
3720.120191306537
 30
0.0
 11
703.56474683286945
 21
3720.120191306537
 31
0.0
  0
LINE
  5
58F3
  8
01_FRAME
 62
     7
 10
700.37946978286595
 20
3722.5811963957408
 30
0.0
 11
698.90300966945483
 21
3722.5811963957408
 31
0.0
  0
LINE
  5
58F4
  8
01_FRAME
 62
     7
 10
698.1186402310974
 20
3723.4269025989729
 30
0.0
 11
700.19663740022645
 21
3723.4269025989729
 31
0.0
  0
LINE
  5
58F5
  8
01_FRAME
 62
     7
 10
700.76690161317106
 20
3724.2111029109819
 30
0.0
 11
698.64155320105476
 21
3724.2111029109819
 31
0.0
  0
LINE
  5
58F6
  8
01_FRAME
 62
     7
 10
698.16477962932709
 20
3723.8728204429522
 30
0.0
 11
698.1186402310974
 21
3723.4269025989729
 31
0.0
  0
LINE
  5
58F7
  8
01_FRAME
 62
     7
 10
698.99522901805415
 20
3720.7795365213829
 30
0.0
 11
699.73627890266346
 21
3720.7650454006348
 31
0.0
  0
LINE
  5
58F8
  8
01_FRAME
 62
     7
 10
699.984237551707
 20
3721.8712012715118
 30
0.0
 11
699.19650183768113
 21
3721.8712012715118
 31
0.0
  0
LINE
  5
58F9
  8
01_FRAME
 62
     7
 10
702.34431504326653
 20
3724.2257105734102
 30
0.0
 11
702.21132505948003
 21
3723.4722632070102
 31
0.0
  0
LINE
  5
58FA
  8
01_FRAME
 62
     7
 10
701.22351158767265
 20
3720.8293245318218
 30
0.0
 11
701.61500996684003
 21
3723.4014733974768
 31
0.0
  0
LINE
  5
58FB
  8
01_FRAME
 62
     7
 10
700.13425017321674
 20
3721.1514753977472
 30
0.0
 11
700.22357537275889
 21
3721.6452896668729
 31
0.0
  0
LINE
  5
58FC
  8
01_FRAME
 62
     7
 10
700.45636872465695
 20
3723.1347495493578
 30
0.0
 11
700.37946978286595
 21
3722.5811963957408
 31
0.0
  0
LINE
  5
58FD
  8
01_FRAME
 62
     7
 10
700.46218332188948
 20
3723.200990994334
 30
0.0
 11
700.45636872465695
 21
3723.1347495493578
 31
0.0
  0
LINE
  5
58FE
  8
01_FRAME
 62
     7
 10
702.96493492112108
 20
3723.4722632070102
 30
0.0
 11
702.6111996894158
 21
3721.1657917225521
 31
0.0
  0
LINE
  5
58FF
  8
01_FRAME
 62
     7
 10
702.21132505948003
 20
3723.4722632070102
 30
0.0
 11
702.96493492112108
 21
3723.4722632070102
 31
0.0
  0
LINE
  5
5900
  8
01_FRAME
 62
     7
 10
703.23565055516679
 20
3725.2762963712362
 30
0.0
 11
703.07259347278409
 21
3724.2257105734102
 31
0.0
  0
LINE
  5
5901
  8
01_FRAME
 62
     7
 10
703.07259347278409
 20
3724.2257105734102
 30
0.0
 11
702.34431504326653
 21
3724.2257105734102
 31
0.0
  0
LINE
  5
5902
  8
01_FRAME
 62
     7
 10
705.02582715449057
 20
3720.458473774569
 30
0.0
 11
705.07196652299604
 21
3720.9043916185478
 31
0.0
  0
LINE
  5
5903
  8
01_FRAME
 62
     7
 10
705.39494217798494
 20
3723.4722632070102
 30
0.0
 11
705.48722094129039
 21
3724.2257105734102
 31
0.0
  0
LINE
  5
5904
  8
01_FRAME
 62
     7
 10
705.07196652299604
 20
3720.9043916185478
 30
0.0
 11
704.02523141124925
 21
3720.9043916185478
 31
0.0
  0
LINE
  5
5905
  8
01_FRAME
 62
     7
 10
704.01076082787915
 20
3723.4722632070102
 30
0.0
 11
705.39494217798494
 21
3723.4722632070102
 31
0.0
  0
LINE
  5
5906
  8
01_FRAME
 62
     7
 10
704.1030395911846
 20
3724.2257105734102
 30
0.0
 11
704.27221729628013
 21
3725.394322805023
 31
0.0
  0
LINE
  5
5907
  8
01_FRAME
 62
     7
 10
705.48722094129039
 20
3724.2257105734102
 30
0.0
 11
704.1030395911846
 21
3724.2257105734102
 31
0.0
  0
ARC
  5
5908
  8
01_FRAME
 62
     7
 10
679.69399809203674
 20
3723.0835004528858
 30
0.0
 40
0.356267723523487
 50
129.9788673075646
 51
171.82154662074871
  0
ARC
  5
5909
  8
01_FRAME
 62
     7
 10
679.64263380419902
 20
3723.1573163246198
 30
0.0
 40
0.2668241670683093
 50
91.829758024394408
 51
131.71149876918361
  0
ARC
  5
590A
  8
01_FRAME
 62
     7
 10
684.13491672171199
 20
3723.0878401799168
 30
0.0
 40
0.356267723523487
 50
129.9788673075646
 51
171.82154662074871
  0
ARC
  5
590B
  8
01_FRAME
 62
     7
 10
684.08355243387427
 20
3723.16165605165
 30
0.0
 40
0.2668241670683093
 50
91.829758024394408
 51
131.71149876918361
  0
ARC
  5
590C
  8
01_FRAME
 62
     7
 10
680.59868966725094
 20
3723.1503633473212
 30
0.0
 40
0.2739546757357922
 50
41.694258406644231
 51
92.74167022804761
  0
ARC
  5
590D
  8
01_FRAME
 62
     7
 10
680.66157477112552
 20
3723.2063806279848
 30
0.0
 40
0.1897378601816721
 50
357.49651121804118
 51
41.69425840668103
  0
ARC
  5
590E
  8
01_FRAME
 62
     7
 10
700.20974145053208
 20
3723.1532615051592
 30
0.0
 40
0.2739546757357922
 50
41.694258406644231
 51
92.74167022804761
  0
ARC
  5
590F
  8
01_FRAME
 62
     7
 10
700.27262655440666
 20
3723.2092787858219
 30
0.0
 40
0.1897378601816721
 50
357.49651121804118
 51
41.69425840668103
  0
ARC
  5
5910
  8
01_FRAME
 62
     7
 10
679.41801439428457
 20
3721.4049515951601
 30
0.0
 40
0.4983543481347475
 50
242.0549458700896
 51
270.25018750738548
  0
ARC
  5
5911
  8
01_FRAME
 62
     7
 10
679.28092986293325
 20
3721.1465355498281
 30
0.0
 40
0.2058290992756684
 50
180.44368064352511
 51
242.0549458700896
  0
ARC
  5
5912
  8
01_FRAME
 62
     7
 10
683.85700558644635
 20
3721.4049515951601
 30
0.0
 40
0.4983543481347475
 50
242.0549458700896
 51
270.25018750738548
  0
ARC
  5
5913
  8
01_FRAME
 62
     7
 10
683.71992105509594
 20
3721.1465355498281
 30
0.0
 40
0.2058290992756684
 50
180.44368064352511
 51
242.0549458700896
  0
ARC
  5
5914
  8
01_FRAME
 62
     7
 10
679.30223842625833
 20
3723.1352298387819
 30
0.0
 40
0.9862260689533767
 50
116.4343118930764
 51
170.97374799137759
  0
ARC
  5
5915
  8
01_FRAME
 62
     7
 10
679.62825287879582
 20
3722.479464325238
 30
0.0
 40
1.7185605772340431
 50
91.809445418565659
 51
116.4343118930764
  0
ARC
  5
5916
  8
01_FRAME
 62
     7
 10
683.74176359541229
 20
3723.1352298387819
 30
0.0
 40
0.9862260689533767
 50
116.4343118930764
 51
170.97374799137759
  0
ARC
  5
5917
  8
01_FRAME
 62
     7
 10
684.06777804794979
 20
3722.479464325238
 30
0.0
 40
1.7185605772340431
 50
91.809445418565659
 51
116.4343118930764
  0
ARC
  5
5918
  8
01_FRAME
 62
     7
 10
680.96514634712344
 20
3723.0952458047091
 30
0.0
 40
1.1063833352066721
 50
44.532575507597819
 51
84.852989749608284
  0
ARC
  5
5919
  8
01_FRAME
 62
     7
 10
681.34535912020942
 20
3723.4693050177088
 30
0.0
 40
0.5730147500357465
 50
351.79615361501862
 51
44.532575507597819
  0
ARC
  5
591A
  8
01_FRAME
 62
     7
 10
678.89705914577257
 20
3721.0109316337771
 30
0.0
 40
0.8886592913478247
 50
213.378140144387
 51
269.02243001409983
  0
ARC
  5
591B
  8
01_FRAME
 62
     7
 10
678.95194180363683
 20
3721.0470900433688
 30
0.0
 40
0.954382473852452
 50
172.72155707448491
 51
213.378140144387
  0
ARC
  5
591C
  8
01_FRAME
 62
     7
 10
680.9458191172896
 20
3720.678874293656
 30
0.0
 40
0.5564808519953198
 50
269.68811547988628
 51
309.85159843335532
  0
ARC
  5
591D
  8
01_FRAME
 62
     7
 10
681.08700088019089
 20
3720.509732645186
 30
0.0
 40
0.3361602051582644
 50
309.85159843335532
 51
351.61013221801829
  0
ARC
  5
591E
  8
01_FRAME
 62
     7
 10
683.33658431492563
 20
3721.0109316337771
 30
0.0
 40
0.8886592913478247
 50
213.378140144387
 51
269.02243001409983
  0
ARC
  5
591F
  8
01_FRAME
 62
     7
 10
683.39146697279068
 20
3721.0470900433688
 30
0.0
 40
0.954382473852452
 50
172.72155707448491
 51
213.378140144387
  0
ARC
  5
5920
  8
01_FRAME
 62
     7
 10
685.07774845296865
 20
3720.678874293656
 30
0.0
 40
0.5564808519953198
 50
269.68811547988628
 51
309.85159843335532
  0
ARC
  5
5921
  8
01_FRAME
 62
     7
 10
685.21893021586925
 20
3720.509732645186
 30
0.0
 40
0.3361602051582644
 50
309.85159843335532
 51
351.61013221801829
  0
ARC
  5
5922
  8
01_FRAME
 62
     7
 10
685.55134242457802
 20
3723.675639273536
 30
0.0
 40
0.5217503212408174
 50
29.017138568443521
 51
91.670039206039846
  0
ARC
  5
5923
  8
01_FRAME
 62
     7
 10
685.65183184785167
 20
3723.7313807716282
 30
0.0
 40
0.4068362716240224
 50
354.75278767927108
 51
29.017138568443521
  0
LINE
  5
5924
  8
01_FRAME
 62
     7
 10
707.01149493970536
 20
3721.9368259081721
 30
0.0
 11
709.53378095987466
 21
3721.9368259081721
 31
0.0
  0
LINE
  5
5925
  8
01_FRAME
 62
     7
 10
709.30308406819006
 20
3720.9066019981192
 30
0.0
 11
707.25757161974775
 21
3720.9066019981192
 31
0.0
  0
LINE
  5
5926
  8
01_FRAME
 62
     7
 10
706.71927886143271
 20
3720.1224016861079
 30
0.0
 11
708.78622937714465
 21
3720.1224016861079
 31
0.0
  0
LINE
  5
5927
  8
01_FRAME
 62
     7
 10
708.90178277860446
 20
3724.1971679742151
 30
0.0
 11
707.41136953648561
 21
3724.1971679742151
 31
0.0
  0
LINE
  5
5928
  8
01_FRAME
 62
     7
 10
707.11469347608329
 20
3722.5980102932981
 30
0.0
 11
708.60594201585866
 21
3722.5980102932981
 31
0.0
  0
LINE
  5
5929
  8
01_FRAME
 62
     7
 10
708.42296673734529
 20
3723.4240044411349
 30
0.0
 11
707.47149526255339
 21
3723.4240044411349
 31
0.0
  0
LINE
  5
592A
  8
01_FRAME
 62
     7
 10
706.16560634791472
 20
3723.2899558797599
 30
0.0
 11
705.84263069292649
 21
3721.1680021021211
 31
0.0
  0
LINE
  5
592B
  8
01_FRAME
 62
     7
 10
706.91248805526698
 20
3721.1449416894202
 30
0.0
 11
707.01149493970536
 21
3721.9368259081721
 31
0.0
  0
LINE
  5
592C
  8
01_FRAME
 62
     7
 10
707.1787348036703
 20
3723.1341819267218
 30
0.0
 11
707.11469347608329
 21
3722.5980102932981
 31
0.0
  0
LINE
  5
592D
  8
01_FRAME
 62
     7
 10
709.25694466995969
 20
3720.4606841541381
 30
0.0
 11
709.30308406819006
 21
3720.9066019981192
 31
0.0
  0
LINE
  5
592E
  8
01_FRAME
 62
     7
 10
709.53378095987466
 20
3721.9368259081721
 30
0.0
 11
709.74989113227343
 21
3723.3875384607081
 31
0.0
  0
LINE
  5
592F
  8
01_FRAME
 62
     7
 10
709.53378095987466
 20
3721.9368259081721
 30
0.0
 11
709.53378095987466
 21
3721.9368259081721
 31
0.0
  0
LINE
  5
5930
  8
01_FRAME
 62
     7
 10
708.60594201585866
 20
3722.5980102932981
 30
0.0
 11
708.68851265900844
 21
3723.198092836496
 31
0.0
  0
ARC
  5
5931
  8
01_FRAME
 62
     7
 10
707.53137921243683
 20
3723.0835004528858
 30
0.0
 40
0.356267723523487
 50
129.9788673075646
 51
171.82154662074871
  0
ARC
  5
5932
  8
01_FRAME
 62
     7
 10
707.48001492459912
 20
3723.1573163246198
 30
0.0
 40
0.2668241670683093
 50
91.829758024394408
 51
131.71149876918361
  0
ARC
  5
5933
  8
01_FRAME
 62
     7
 10
708.43607078765103
 20
3723.1503633473212
 30
0.0
 40
0.2739546757357922
 50
41.694258406644231
 51
92.74167022804761
  0
ARC
  5
5934
  8
01_FRAME
 62
     7
 10
708.49895589152561
 20
3723.2063806279848
 30
0.0
 40
0.1897378601816721
 50
357.49651121804118
 51
41.69425840668103
  0
ARC
  5
5935
  8
01_FRAME
 62
     7
 10
707.25539551468466
 20
3721.4049515951601
 30
0.0
 40
0.4983543481347475
 50
242.0549458700896
 51
270.25018750738548
  0
ARC
  5
5936
  8
01_FRAME
 62
     7
 10
707.11831098333334
 20
3721.1465355498281
 30
0.0
 40
0.2058290992756684
 50
180.44368064352511
 51
242.0549458700896
  0
ARC
  5
5937
  8
01_FRAME
 62
     7
 10
707.13961954665842
 20
3723.1352298387819
 30
0.0
 40
0.9862260689533767
 50
116.4343118930764
 51
170.97374799137759
  0
ARC
  5
5938
  8
01_FRAME
 62
     7
 10
707.46563399919592
 20
3722.479464325238
 30
0.0
 40
1.7185605772340431
 50
91.809445418565659
 51
116.4343118930764
  0
ARC
  5
5939
  8
01_FRAME
 62
     7
 10
708.80252746752353
 20
3723.0952458047091
 30
0.0
 40
1.1063833352066721
 50
44.532575507597819
 51
84.852989749608284
  0
ARC
  5
593A
  8
01_FRAME
 62
     7
 10
709.18274024060952
 20
3723.4693050177088
 30
0.0
 40
0.5730147500357465
 50
351.79615361501862
 51
44.532575507597819
  0
ARC
  5
593B
  8
01_FRAME
 62
     7
 10
706.73444026617256
 20
3721.0109316337771
 30
0.0
 40
0.8886592913478247
 50
213.378140144387
 51
269.02243001409983
  0
ARC
  5
593C
  8
01_FRAME
 62
     7
 10
706.78932292403692
 20
3721.0470900433688
 30
0.0
 40
0.954382473852452
 50
172.72155707448491
 51
213.378140144387
  0
ARC
  5
593D
  8
01_FRAME
 62
     7
 10
708.7832002376897
 20
3720.678874293656
 30
0.0
 40
0.5564808519953198
 50
269.68811547988628
 51
309.85159843335532
  0
ARC
  5
593E
  8
01_FRAME
 62
     7
 10
708.92438200059098
 20
3720.509732645186
 30
0.0
 40
0.3361602051582644
 50
309.85159843335532
 51
351.61013221801829
  0
LINE
  5
593F
  8
01_FRAME
 62
     7
 10
688.9883837013183
 20
3724.1971679742151
 30
0.0
 11
689.62617801771626
 21
3724.1971679742151
 31
0.0
  0
ARC
  5
5940
  8
01_FRAME
 62
     7
 10
689.44026055463439
 20
3723.3808000688432
 30
0.0
 40
0.8742891288908129
 50
356.16225827570821
 51
57.030568872306567
  0
ARC
  5
5941
  8
01_FRAME
 62
     7
 10
689.63569402541611
 20
3723.6820930227318
 30
0.0
 40
0.515162848085838
 50
57.030568872306567
 51
91.058418890025422
  0
ARC
  5
5942
  8
01_FRAME
 62
     7
 10
689.06559406587496
 20
3721.9102905743171
 30
0.0
 40
2.2881804305072628
 50
91.933705877925576
 51
118.1284095955113
  0
ARC
  5
5943
  8
01_FRAME
 62
     7
 10
688.18986575406018
 20
3723.548428518151
 30
0.0
 40
0.4306562720799454
 50
118.1284095955113
 51
149.5502773796288
  0
ARC
  5
5944
  8
01_FRAME
 62
     7
 10
704.55208272222058
 20
3720.6766639140851
 30
0.0
 40
0.5564808519953198
 50
269.68811547988628
 51
309.85159843335532
  0
ARC
  5
5945
  8
01_FRAME
 62
     7
 10
704.69326448512095
 20
3720.507522265616
 30
0.0
 40
0.3361602051582644
 50
309.85159843335532
 51
351.61013221801829
  0
ARC
  5
5946
  8
01_FRAME
 62
     7
 10
703.50300926266186
 20
3721.0087212542062
 30
0.0
 40
0.8886592913478247
 50
213.378140144387
 51
269.02243001409983
  0
ARC
  5
5947
  8
01_FRAME
 62
     7
 10
703.55789192052612
 20
3721.0448796637988
 30
0.0
 40
0.954382473852452
 50
172.72155707448491
 51
213.378140144387
  0
ARC
  5
5948
  8
01_FRAME
 62
     7
 10
704.02305530618355
 20
3721.4027412155888
 30
0.0
 40
0.4983543481347475
 50
242.0549458700896
 51
270.25018750738548
  0
ARC
  5
5949
  8
01_FRAME
 62
     7
 10
703.88597077483223
 20
3721.144325170259
 30
0.0
 40
0.2058290992756684
 50
180.44368064352511
 51
242.0549458700896
  0
ARC
  5
594A
  8
01_FRAME
 62
     7
 10
700.66764630209013
 20
3723.1091807414791
 30
0.0
 40
1.1063833352066721
 50
44.532575507597819
 51
84.852989749608284
  0
ARC
  5
594B
  8
01_FRAME
 62
     7
 10
701.04785907517612
 20
3723.483239954478
 30
0.0
 40
0.5730147500357465
 50
351.79615361501862
 51
44.532575507597819
  0
ARC
  5
594C
  8
01_FRAME
 62
     7
 10
698.64022550697484
 20
3723.6587530886691
 30
0.0
 40
0.5523514180140796
 50
89.862277278542265
 51
130.98420927748739
  0
ARC
  5
594D
  8
01_FRAME
 62
     7
 10
698.50221896139715
 20
3723.8175998543529
 30
0.0
 40
0.3419277938878447
 50
130.98420927748739
 51
170.7061550554026
  0
ARC
  5
594E
  8
01_FRAME
 62
     7
 10
701.13938047919669
 20
3720.6306272402171
 30
0.0
 40
1.0659941081150781
 50
189.2518512240257
 51
207.625462433428
  0
ARC
  5
594F
  8
01_FRAME
 62
     7
 10
699.46763398402675
 20
3720.8335538425399
 30
0.0
 40
0.7239043381937801
 50
280.14161684226292
 51
328.86389698780192
  0
ARC
  5
5950
  8
01_FRAME
 62
     7
 10
698.92979410131716
 20
3721.3145422821049
 30
0.0
 40
1.2669372712889659
 50
91.211385343645034
 51
150.30133372254059
  0
ARC
  5
5951
  8
01_FRAME
 62
     7
 10
699.44877660853456
 20
3721.0185358973181
 30
0.0
 40
1.864400761915205
 50
150.30133372254059
 51
172.84077312506099
  0
ARC
  5
5952
  8
01_FRAME
 62
     7
 10
698.75618892826026
 20
3721.105529384859
 30
0.0
 40
1.1663709905283439
 50
172.84077312506099
 51
205.63064895958601
  0
ARC
  5
5953
  8
01_FRAME
 62
     7
 10
698.27706284628653
 20
3720.8756554181318
 30
0.0
 40
0.634954164480408
 50
205.63064895958601
 51
237.5110165228015
  0
ARC
  5
5954
  8
01_FRAME
 62
     7
 10
698.69704095047166
 20
3721.5351687902648
 30
0.0
 40
1.4168361862834209
 50
237.5110165228015
 51
266.5100646608708
  0
ARC
  5
5955
  8
01_FRAME
 62
     7
 10
699.97113350140239
 20
3721.5975601776981
 30
0.0
 40
0.2739546757357922
 50
41.694258406644231
 51
92.74167022804761
  0
ARC
  5
5956
  8
01_FRAME
 62
     7
 10
700.03401860527595
 20
3721.6535774583608
 30
0.0
 40
0.1897378601816721
 50
357.49651121804118
 51
41.69425840668103
  0
ARC
  5
5957
  8
01_FRAME
 62
     7
 10
699.65955048295984
 20
3721.2257017184138
 30
0.0
 40
0.4670026696925385
 50
279.4565576772809
 51
324.92940398283741
  0
ARC
  5
5958
  8
01_FRAME
 62
     7
 10
699.51387226981535
 20
3721.327974432128
 30
0.0
 40
0.6449966295775496
 50
324.92940398283741
 51
344.11881738721661
  0
ARC
  5
5959
  8
01_FRAME
 62
     7
 10
699.19066685211669
 20
3721.3526223093399
 30
0.0
 40
0.5186117883961751
 50
89.355342266111649
 51
126.25017530154049
  0
ARC
  5
595A
  8
01_FRAME
 62
     7
 10
699.10616915536025
 20
3721.4738527397121
 30
0.0
 40
0.3708987868957041
 50
126.7974170349802
 51
163.58374767656801
  0
ARC
  5
595B
  8
01_FRAME
 62
     7
 10
695.07386787607595
 20
3722.52331281038
 30
0.0
 40
3.7959401227298382
 50
343.74206189479008
 51
345.59022698623642
  0
ARC
  5
595C
  8
01_FRAME
 62
     7
 10
699.79155854393935
 20
3721.1686812148082
 30
0.0
 40
1.112526027892746
 50
164.78824619774861
 51
186.82014585813221
  0
ARC
  5
595D
  8
01_FRAME
 62
     7
 10
698.94539965499257
 20
3721.05995959353
 30
0.0
 40
0.2595511549401781
 50
185.171295796316
 51
236.50138254920921
  0
ARC
  5
595E
  8
01_FRAME
 62
     7
 10
699.01672934492365
 20
3721.1677326496429
 30
0.0
 40
0.3887910724951353
 50
236.50138254920921
 51
266.82989961253043
  0
LINE
  5
5974
  8
01_FRAME
 62
     7
 10
612.33636760113166
 20
3797.2371875469812
 30
0.0
 11
614.38025094820705
 21
3800.7772973488582
 31
0.0
  0
LINE
  5
5975
  8
01_FRAME
 62
     7
 10
612.33636760113166
 20
3797.2371875469812
 30
0.0
 11
616.42413429528244
 21
3797.2371875469812
 31
0.0
  0
LINE
  5
5976
  8
01_FRAME
 62
     7
 10
616.42413429528244
 20
3797.2371875469812
 30
0.0
 11
614.38025094820705
 21
3800.7772973488582
 31
0.0
  0
TEXT
  5
5977
  8
01_FRAME
 62
     7
 10
613.24281674049723
 20
3797.3920728439389
 30
0.0
 40
2.0
  1
D
  7
MECHTRONICS
  0
LINE
  5
5978
  8
10_OUTLINE
 62
     2
 10
620.64720949320929
 20
3802.9544315324551
 30
0.0
 11
602.67411718814014
 21
3802.9544315324538
 31
0.0
  0
ARC
  5
5983
  8
10_OUTLINE
 62
     2
 10
602.67411718814014
 20
3807.9544315324538
 30
0.0
 40
5.0
 50
200.13079720729891
 51
270.0
  0
ENDSEC
  0
EOF
