  0
SECTION
  2
HEADER
  9
$ACADVER
  1
AC1009
  9
$INSBASE
 10
0.0
 20
0.0
 30
0.0
  9
$EXTMIN
 10
373.02569148998577
 20
3659.3775664976988
 30
-0.0015258207003583
  9
$EXTMAX
 10
642.70880959200576
 20
3853.0965191969958
 30
0.0000000349246037
  9
$LIMMIN
 10
0.0
 20
0.0
  9
$LIMMAX
 10
0.0
 20
0.0
  9
$ORTHOMODE
 70
     0
  9
$REGENMODE
 70
     1
  9
$FILLMODE
 70
     1
  9
$QTEXTMODE
 70
     0
  9
$MIRRTEXT
 70
     1
  9
$DRAGMODE
 70
     2
  9
$LTSCALE
 40
10.0
  9
$OSMODE
 70
    47
  9
$ATTMODE
 70
     1
  9
$TEXTSIZE
 40
2.0
  9
$TRACEWID
 40
0.05
  9
$TEXTSTYLE
  7
MECHTRONICS
  9
$CLAYER
  8
50_DIMENSIONS
  9
$CELTYPE
  6
BYLAYER
  9
$CECOLOR
 62
   256
  9
$DIMSCALE
 40
1.0
  9
$DIMASZ
 40
2.0
  9
$DIMEXO
 40
1.0
  9
$DIMDLI
 40
6.0
  9
$DIMRND
 40
0.0
  9
$DIMDLE
 40
0.0
  9
$DIMEXE
 40
0.5
  9
$DIMTP
 40
0.0
  9
$DIMTM
 40
0.0
  9
$DIMTXT
 40
2.0
  9
$DIMCEN
 40
0.09
  9
$DIMTSZ
 40
0.0
  9
$DIMTOL
 70
     0
  9
$DIMLIM
 70
     0
  9
$DIMTIH
 70
     0
  9
$DIMTOH
 70
     1
  9
$DIMSE1
 70
     0
  9
$DIMSE2
 70
     0
  9
$DIMTAD
 70
     0
  9
$DIMZIN
 70
     0
  9
$DIMBLK
  1

  9
$DIMASO
 70
     1
  9
$DIMSHO
 70
     1
  9
$DIMPOST
  1

  9
$DIMAPOST
  1
"
  9
$DIMALT
 70
     1
  9
$DIMALTD
 70
     1
  9
$DIMALTF
 40
0.03937
  9
$DIMLFAC
 40
1.0
  9
$DIMTOFL
 70
     0
  9
$DIMTVP
 40
0.0
  9
$DIMTIX
 70
     0
  9
$DIMSOXD
 70
     0
  9
$DIMSAH
 70
     0
  9
$DIMBLK1
  1

  9
$DIMBLK2
  1

  9
$DIMSTYLE
  2
MECHTRONICS
  9
$DIMCLRD
 70
     7
  9
$DIMCLRE
 70
     7
  9
$DIMCLRT
 70
     0
  9
$DIMTFAC
 40
1.0
  9
$DIMGAP
 40
0.5
  9
$LUNITS
 70
     2
  9
$LUPREC
 70
    10
  9
$SKETCHINC
 40
0.1
  9
$FILLETRAD
 40
0.0
  9
$AUNITS
 70
     0
  9
$AUPREC
 70
     0
  9
$MENU
  1
acad
  9
$ELEVATION
 40
0.0
  9
$PELEVATION
 40
0.0
  9
$THICKNESS
 40
0.0
  9
$LIMCHECK
 70
     0
  9
$BLIPMODE
 70
     0
  9
$CHAMFERA
 40
0.0
  9
$CHAMFERB
 40
0.0
  9
$SKPOLY
 70
     0
  9
$TDCREATE
 40
2444972.083333333
  9
$TDUPDATE
 40
2454647.7197697801
  9
$TDINDWG
 40
1.2264816782000001
  9
$TDUSRTIMER
 40
1.2264809606
  9
$USRTIMER
 70
     1
  9
$ANGBASE
 50
0.0
  9
$ANGDIR
 70
     0
  9
$PDMODE
 70
     0
  9
$PDSIZE
 40
0.0
  9
$PLINEWID
 40
0.0
  9
$COORDS
 70
     1
  9
$SPLFRAME
 70
     0
  9
$SPLINETYPE
 70
     6
  9
$SPLINESEGS
 70
     8
  9
$ATTDIA
 70
     0
  9
$ATTREQ
 70
     1
  9
$HANDLING
 70
     1
  9
$HANDSEED
  5
6232
  9
$SURFTAB1
 70
     6
  9
$SURFTAB2
 70
     6
  9
$SURFTYPE
 70
     6
  9
$SURFU
 70
     6
  9
$SURFV
 70
     6
  9
$UCSNAME
  2

  9
$UCSORG
 10
0.0
 20
0.0
 30
0.0
  9
$UCSXDIR
 10
1.0
 20
0.0
 30
0.0
  9
$UCSYDIR
 10
0.0
 20
1.0
 30
0.0
  9
$PUCSNAME
  2

  9
$PUCSORG
 10
0.0
 20
0.0
 30
0.0
  9
$PUCSXDIR
 10
1.0
 20
0.0
 30
0.0
  9
$PUCSYDIR
 10
0.0
 20
1.0
 30
0.0
  9
$USERI1
 70
     0
  9
$USERI2
 70
     0
  9
$USERI3
 70
     0
  9
$USERI4
 70
     0
  9
$USERI5
 70
     0
  9
$USERR1
 40
0.0
  9
$USERR2
 40
0.0
  9
$USERR3
 40
0.0
  9
$USERR4
 40
0.0
  9
$USERR5
 40
0.0
  9
$WORLDVIEW
 70
     1
  9
$SHADEDGE
 70
     3
  9
$SHADEDIF
 70
    70
  9
$TILEMODE
 70
     1
  9
$MAXACTVP
 70
    16
  9
$PLIMCHECK
 70
     0
  9
$PEXTMIN
 10
1.0887500995726069
 20
0.7937499998122686
 30
0.0
  9
$PEXTMAX
 10
21.184573317709511
 20
7.1437499983104198
 30
0.0
  9
$PLIMMIN
 10
0.0
 20
0.0
  9
$PLIMMAX
 10
12.0
 20
9.0
  9
$UNITMODE
 70
     0
  9
$VISRETAIN
 70
     0
  9
$PLINEGEN
 70
     1
  9
$PSLTSCALE
 70
     0
  0
ENDSEC
  0
SECTION
  2
TABLES
  0
TABLE
  2
VPORT
 70
     5
  0
VPORT
  2
*ACTIVE
 70
     0
 10
0.0
 20
0.0
 11
1.0
 21
1.0
 12
507.86725054099583
 22
3756.2370428473482
 13
0.0
 23
0.0
 14
1.0
 24
1.0
 15
0.0
 25
0.0
 16
0.0
 26
0.0
 36
1.0
 17
0.0
 27
0.0
 37
0.0
 40
195.8094449946129
 41
1.7423423423423421
 42
50.0
 43
0.0
 44
0.0
 50
0.0
 51
0.0
 71
     0
 72
   100
 73
     1
 74
     0
 75
     0
 76
     0
 77
     0
 78
     0
  0
ENDTAB
  0
TABLE
  2
LTYPE
 70
     3
  0
LTYPE
  2
CONTINUOUS
 70
     0
  3
Solid line
 72
    65
 73
     0
 40
0.0
  0
LTYPE
  2
CENTER
 70
     0
  3
___ _ ___ _ ___ _ ___ _ ___ _ ___ _ ___ _ ___ _
 72
    65
 73
     4
 40
0.95
 49
0.625
 49
-0.125
 49
0.075
 49
-0.125
  0
LTYPE
  2
HIDDEN
 70
     0
  3
Hidden __ __ __ __ __ __ __ __ __ __ __ __ __ _
 72
    65
 73
     2
 40
0.375
 49
0.25
 49
-0.125
  0
ENDTAB
  0
TABLE
  2
LAYER
 70
     8
  0
LAYER
  2
0
 70
     0
 62
   221
  6
CONTINUOUS
  0
LAYER
  2
50_DIMENSIONS
 70
     0
 62
     7
  6
CONTINUOUS
  0
LAYER
  2
10_OUTLINE
 70
     0
 62
     2
  6
CONTINUOUS
  0
LAYER
  2
25_CENTRE
 70
     0
 62
     6
  6
CENTER
  0
LAYER
  2
20_HIDDEN
 70
     0
 62
    10
  6
HIDDEN
  0
LAYER
  2
62_TEXT
 70
     0
 62
     7
  6
CONTINUOUS
  0
LAYER
  2
01_FRAME
 70
     0
 62
     4
  6
CONTINUOUS
  0
LAYER
  2
DEFPOINTS
 70
     0
 62
     7
  6
CONTINUOUS
  0
ENDTAB
  0
TABLE
  2
STYLE
 70
     2
  0
STYLE
  2
STANDARD
 70
     0
 40
0.0
 41
1.0
 50
0.0
 71
     0
 42
1.345608723561553
  3
txt
  4

  0
STYLE
  2
MECHTRONICS
 70
     0
 40
2.0
 41
1.0
 50
0.0
 71
     0
 42
2.0
  3
txt
  4

  0
ENDTAB
  0
TABLE
  2
VIEW
 70
     0
  0
ENDTAB
  0
TABLE
  2
UCS
 70
    16
  0
UCS
  2
AUDIT_D_000731094948-0
 70
     0
 10
0.0
 20
0.0
 30
1.0
 11
1.0
 21
0.0
 31
0.0
 12
0.0
 22
1.0
 32
0.0
  0
UCS
  2
AUDIT_D_000731094948-1
 70
     0
 10
0.0
 20
0.0
 30
1.0
 11
1.0
 21
0.0
 31
0.0
 12
0.0
 22
1.0
 32
0.0
  0
UCS
  2
AUDIT_D_000731094948-2
 70
     0
 10
0.0
 20
0.0
 30
1.0
 11
1.0
 21
0.0
 31
0.0
 12
0.0
 22
1.0
 32
0.0
  0
UCS
  2
AUDIT_D_000731094948-3
 70
     0
 10
0.0
 20
0.0
 30
1.0
 11
1.0
 21
0.0
 31
0.0
 12
0.0
 22
1.0
 32
0.0
  0
UCS
  2
AUDIT_D_000731094948-4
 70
     0
 10
0.0
 20
0.0
 30
1.0
 11
1.0
 21
0.0
 31
0.0
 12
0.0
 22
1.0
 32
0.0
  0
UCS
  2
AUDIT_D_000731094948-5
 70
     0
 10
0.0
 20
0.0
 30
1.0
 11
1.0
 21
0.0
 31
0.0
 12
0.0
 22
1.0
 32
0.0
  0
UCS
  2
AUDIT_D_000731094948-6
 70
     0
 10
0.0
 20
0.0
 30
1.0
 11
1.0
 21
0.0
 31
0.0
 12
0.0
 22
1.0
 32
0.0
  0
UCS
  2
AUDIT_D_000731094948-7
 70
     0
 10
0.0
 20
0.0
 30
1.0
 11
1.0
 21
0.0
 31
0.0
 12
0.0
 22
1.0
 32
0.0
  0
UCS
  2
AUDIT_D_000731094948-8
 70
     0
 10
0.0
 20
0.0
 30
1.0
 11
1.0
 21
0.0
 31
0.0
 12
0.0
 22
1.0
 32
0.0
  0
UCS
  2
AUDIT_D_000731094948-9
 70
     0
 10
0.0
 20
0.0
 30
1.0
 11
1.0
 21
0.0
 31
0.0
 12
0.0
 22
1.0
 32
0.0
  0
UCS
  2
AUDIT_D_000731094948-10
 70
     0
 10
0.0
 20
0.0
 30
1.0
 11
1.0
 21
0.0
 31
0.0
 12
0.0
 22
1.0
 32
0.0
  0
UCS
  2
AUDIT_D_000731094948-11
 70
     0
 10
0.0
 20
0.0
 30
1.0
 11
1.0
 21
0.0
 31
0.0
 12
0.0
 22
1.0
 32
0.0
  0
UCS
  2
AUDIT_D_000731094948-12
 70
     0
 10
0.0
 20
0.0
 30
1.0
 11
1.0
 21
0.0
 31
0.0
 12
0.0
 22
1.0
 32
0.0
  0
UCS
  2
AUDIT_D_000731094948-13
 70
     0
 10
0.0
 20
0.0
 30
1.0
 11
1.0
 21
0.0
 31
0.0
 12
0.0
 22
1.0
 32
0.0
  0
UCS
  2
AUDIT_D_000731094948-14
 70
     0
 10
0.0
 20
0.0
 30
1.0
 11
1.0
 21
0.0
 31
0.0
 12
0.0
 22
1.0
 32
0.0
  0
UCS
  2
CK_VIEW_1
 70
     0
 10
0.0
 20
0.0
 30
1.0
 11
1.0
 21
0.0
 31
0.0
 12
0.0
 22
1.0
 32
0.0
  0
ENDTAB
  0
TABLE
  2
APPID
 70
     4
  0
APPID
  2
ACAD
 70
     0
  0
APPID
  2
DCO15
 70
     0
  0
APPID
  2
ACAD_PSEXT
 70
     0
  0
APPID
  2
ACAD_DSTYLE_DIMTEXT_FILL
 70
     0
  0
ENDTAB
  0
TABLE
  2
DIMSTYLE
 70
     2
  0
DIMSTYLE
  2
STANDARD
 70
     0
  3

  4

  5

  6

  7

 40
1.0
 41
0.18
 42
0.0625
 43
0.38
 44
0.18
 45
0.0
 46
0.0
 47
0.0
 48
0.0
140
0.18
141
0.09
142
0.0
143
25.399999999999999
144
1.0
145
0.0
146
1.0
147
0.09
 71
     0
 72
     0
 73
     1
 74
     1
 75
     0
 76
     0
 77
     0
 78
     0
170
     0
171
     2
172
     0
173
     0
174
     0
175
     0
176
     0
177
     0
178
     0
  0
DIMSTYLE
  2
MECHTRONICS
 70
     0
  3

  4
"
  5

  6

  7

 40
1.0
 41
2.0
 42
1.0
 43
6.0
 44
0.5
 45
0.0
 46
0.0
 47
0.0
 48
0.0
140
2.0
141
0.09
142
0.0
143
0.03937
144
1.0
145
0.0
146
1.0
147
0.5
 71
     0
 72
     0
 73
     0
 74
     1
 75
     0
 76
     0
 77
     0
 78
     0
170
     1
171
     1
172
     0
173
     0
174
     0
175
     0
176
     7
177
     7
178
     0
  0
ENDTAB
  0
ENDSEC
  0
SECTION
  2
BLOCKS
  0
BLOCK
  8
0
  2
$MODEL_SPACE
 70
     0
 10
0.0
 20
0.0
 30
0.0
  3
$MODEL_SPACE
  1

  0
ENDBLK
  5
E
  8
0
  0
BLOCK
 67
     1
  8
0
  2
$PAPER_SPACE
 70
     0
 10
0.0
 20
0.0
 30
0.0
  3
$PAPER_SPACE
  1

  0
ENDBLK
  5
10
 67
     1
  8
0
  0
BLOCK
  8
0
  2
*D0
 70
     1
 10
0.0
 20
0.0
 30
0.0
  3
*D0
  1

  0
LINE
  5
6175
  8
50_DIMENSIONS
 62
     7
 10
488.9837997239722
 20
3769.111826766894
 30
0.0
 11
488.9837997239722
 21
3796.2792075378879
 31
0.0
  0
LINE
  5
6176
  8
50_DIMENSIONS
 62
     7
 10
573.73880297202425
 20
3769.111826766894
 30
0.0
 11
573.73880297202425
 21
3796.2792075378879
 31
0.0
  0
LINE
  5
6177
  8
50_DIMENSIONS
 62
     7
 10
490.98379972397231
 20
3795.7792075378889
 30
0.0
 11
525.81969152535146
 21
3795.7792075378889
 31
0.0
  0
LINE
  5
6178
  8
50_DIMENSIONS
 62
     7
 10
571.73880297202425
 20
3795.7792075378889
 30
0.0
 11
536.90291117064487
 21
3795.7792075378889
 31
0.0
  0
SOLID
  5
6179
  8
50_DIMENSIONS
 62
     7
 10
490.98379972397231
 20
3796.112540871221
 30
0.0
 11
490.98379972397231
 21
3795.4458742045549
 31
0.0
 12
488.9837997239722
 22
3795.7792075378889
 32
0.0
 13
488.9837997239722
 23
3795.7792075378889
 33
0.0
  0
SOLID
  5
617A
  8
50_DIMENSIONS
 62
     7
 10
571.73880297202425
 20
3796.112540871221
 30
0.0
 11
571.73880297202425
 21
3795.4458742045549
 31
0.0
 12
573.73880297202425
 22
3795.7792075378889
 32
0.0
 13
573.73880297202425
 23
3795.7792075378889
 33
0.0
  0
INSERT
  5
617B
  8
50_DIMENSIONS
  2
*U6
 10
0.0
 20
0.0
 30
0.0
  0
POINT
  5
617C
  8
DEFPOINTS
 62
     0
 10
488.9837997239722
 20
3768.111826766894
 30
0.0
  0
POINT
  5
617D
  8
DEFPOINTS
 62
     0
 10
573.73880297202425
 20
3768.111826766894
 30
0.0
  0
POINT
  5
617E
  8
DEFPOINTS
 62
     0
 10
573.73880297202425
 20
3795.7792075378889
 30
0.0
  0
ENDBLK
  5
6180
  8
0
  0
BLOCK
  8
0
  2
*D1
 70
     1
 10
0.0
 20
0.0
 30
0.0
  3
*D1
  1

  0
LINE
  5
6183
  8
50_DIMENSIONS
 62
     7
 10
495.48379972397248
 20
3760.611826766893
 30
0.0
 11
476.00879553506479
 21
3760.611826766893
 31
0.0
  0
LINE
  5
6184
  8
50_DIMENSIONS
 62
     7
 10
495.48379972397248
 20
3775.611826766894
 30
0.0
 11
476.00879553506479
 21
3775.611826766894
 31
0.0
  0
LINE
  5
6185
  8
50_DIMENSIONS
 62
     7
 10
476.50879553506479
 20
3758.611826766894
 30
0.0
 11
476.50879553506479
 21
3756.611826766893
 31
0.0
  0
LINE
  5
6186
  8
50_DIMENSIONS
 62
     7
 10
476.50879553506479
 20
3777.611826766893
 30
0.0
 11
476.50879553506479
 21
3779.611826766894
 31
0.0
  0
SOLID
  5
6187
  8
50_DIMENSIONS
 62
     7
 10
476.17546220173148
 20
3758.611826766894
 30
0.0
 11
476.84212886839811
 21
3758.611826766894
 31
0.0
 12
476.50879553506479
 22
3760.611826766893
 32
0.0
 13
476.50879553506479
 23
3760.611826766893
 33
0.0
  0
SOLID
  5
6188
  8
50_DIMENSIONS
 62
     7
 10
476.17546220173148
 20
3777.611826766893
 30
0.0
 11
476.84212886839811
 21
3777.611826766893
 31
0.0
 12
476.50879553506479
 22
3775.611826766894
 32
0.0
 13
476.50879553506479
 23
3775.611826766894
 33
0.0
  0
INSERT
  5
6189
  8
50_DIMENSIONS
  2
*U7
 10
0.0
 20
0.0
 30
0.0
  0
POINT
  5
618A
  8
DEFPOINTS
 62
     0
 10
496.48379972397248
 20
3760.611826766893
 30
0.0
  0
POINT
  5
618B
  8
DEFPOINTS
 62
     0
 10
496.48379972397248
 20
3775.611826766894
 30
0.0
  0
POINT
  5
618C
  8
DEFPOINTS
 62
     0
 10
476.50879553506479
 20
3775.611826766894
 30
0.0
  0
ENDBLK
  5
618E
  8
0
  0
BLOCK
  8
0
  2
A$C01085596
 70
     0
 10
0.0
 20
0.0
 30
0.0
  3
A$C01085596
  1

  0
TEXT
  5
61E9
  8
62_TEXT
 62
     1
 10
0.4607056032600667
 20
1.432283934722363
 30
0.0
 40
4.0
  1
OPTION
  7
MECHTRONICS
  0
LINE
  5
61EA
  8
62_TEXT
 62
    40
 10
22.258769894640871
 20
0.6456724046038289
 30
0.0
 11
0.7999677140314816
 21
0.6456724046038289
 31
0.0
  0
LINE
  5
61EB
  8
62_TEXT
 62
    40
 10
22.258769894640871
 20
6.2170770876782617
 30
0.0
 11
0.7999677140314816
 21
6.2170770876782617
 31
0.0
  0
ARC
  5
61EC
  8
62_TEXT
 62
    40
 10
0.7999677140314816
 20
5.4170770882774368
 30
0.0
 40
0.7999999994
 50
90.0
 51
180.0
  0
ARC
  5
61ED
  8
62_TEXT
 62
    40
 10
0.7999677140314816
 20
1.4456724040046529
 30
0.0
 40
0.7999999994
 50
180.0
 51
269.99999999994787
  0
LINE
  5
61EE
  8
62_TEXT
 62
    40
 10
-0.0000322853684338
 20
1.4456724040046529
 30
0.0
 11
-0.0000322853684338
 21
5.4170770882774368
 31
0.0
  0
ARC
  5
61EF
  8
62_TEXT
 62
    40
 10
22.258769894639961
 20
5.4170770882774368
 30
0.0
 40
0.7999999994
 50
0.0
 51
89.999999999947889
  0
ARC
  5
61F0
  8
62_TEXT
 62
    40
 10
22.258769894639961
 20
1.4456724040046529
 30
0.0
 40
0.7999999994
 50
269.99999999994787
 51
0.0
  0
LINE
  5
61F1
  8
62_TEXT
 62
    40
 10
23.05876989403987
 20
1.4456724040046529
 30
0.0
 11
23.05876989403987
 21
5.4170770882774368
 31
0.0
  0
ENDBLK
  5
61F5
  8
0
  0
BLOCK
  8
0
  2
*U4
 70
     1
 10
0.0
 20
0.0
 30
0.0
  3
*U4
  1

  0
SOLID
  5
621E
  8
50_DIMENSIONS
 10
509.38114754720232
 20
3778.8687412682948
 30
0.0
 11
507.73123172443371
 21
3777.6902299663161
 31
0.0
 12
508.90974302641121
 22
3779.340145789085
 32
0.0
 13
508.90974302641121
 23
3779.340145789085
 33
0.0
  0
POLYLINE
  5
621F
  8
50_DIMENSIONS
 66
     1
 10
0.0
 20
0.0
 30
0.0
  0
VERTEX
  5
6220
  8
50_DIMENSIONS
 10
509.14544528680682
 20
3779.1044435286899
 30
0.0
  0
VERTEX
  5
6221
  8
50_DIMENSIONS
 10
515.90662369235235
 20
3785.8656219342361
 30
0.0
  0
VERTEX
  5
6222
  8
50_DIMENSIONS
 10
523.14048093012525
 20
3785.8656219342361
 30
0.0
  0
SEQEND
  5
6223
  8
50_DIMENSIONS
  0
ENDBLK
  5
6225
  8
0
  0
BLOCK
  8
0
  2
*U5
 70
     1
 10
0.0
 20
0.0
 30
0.0
  3
*U5
  1

  0
TEXT
  5
6227
  8
50_DIMENSIONS
 10
523.51769784690555
 20
3784.8656219342361
 30
0.0
 40
2.0
  1
Mark bend line
  7
MECHTRONICS
  0
ENDBLK
  5
6229
  8
0
  0
BLOCK
  8
0
  2
*U6
 70
     1
 10
0.0
 20
0.0
 30
0.0
  3
*U6
  1

  0
TEXT
  5
622B
  8
50_DIMENSIONS
 62
     0
 10
526.11096028387806
 20
3795.0527409621718
 30
0.0
 40
2.0
  1
85 [3.3"]
  7
MECHTRONICS
  0
ENDBLK
  5
622D
  8
0
  0
BLOCK
  8
0
  2
*U7
 70
     1
 10
0.0
 20
0.0
 30
0.0
  3
*U7
  1

  0
TEXT
  5
622F
  8
50_DIMENSIONS
 62
     0
 10
477.23526211078041
 20
3762.7591664667571
 30
0.0
 40
2.0
  1
15 [0.6"]
 50
90.0
  7
MECHTRONICS
  0
ENDBLK
  5
6231
  8
0
  0
ENDSEC
  0
SECTION
  2
ENTITIES
  0
LINE
  5
2747
  8
01_FRAME
 62
     4
 10
373.05626870454341
 20
3852.9789266405369
 30
0.0
 11
373.05626870454358
 21
3659.5925231671822
 31
0.0
  0
LINE
  5
2748
  8
01_FRAME
 62
     4
 10
642.68919477789393
 20
3852.9789266405369
 30
0.0
 11
373.05626870454341
 21
3852.9789266405369
 31
0.0
  0
LINE
  5
274D
  8
01_FRAME
 62
     4
 10
642.68919477789393
 20
3659.5925231671822
 30
0.0
 11
642.68919477789393
 21
3852.9789266405369
 31
0.0
  0
LINE
  5
274E
  8
01_FRAME
 62
     4
 10
373.05626870454358
 20
3659.5925231671822
 30
0.0
 11
642.68919477789393
 21
3659.5925231671822
 31
0.0
  0
LINE
  5
3FC5
  8
01_FRAME
 62
     4
 10
537.11264191339944
 20
3680.572922172038
 30
0.0
 11
566.69275965573217
 21
3680.572922172038
 31
0.0
  0
LINE
  5
3FC6
  8
01_FRAME
 62
     4
 10
537.11259440199308
 20
3659.5925231671822
 30
0.0
 11
537.11259440199308
 21
3691.1184627414909
 31
0.0
  0
TEXT
  5
3FCF
  8
62_TEXT
 10
624.8879797734121
 20
3684.9705917992028
 30
0.0
 40
2.0
  1
17-06-08
  7
MECHTRONICS
  0
TEXT
  5
3FD0
  8
01_FRAME
 62
     8
 10
633.89994296838245
 20
3668.0565138946949
 30
0.0
 40
1.399999999999999
  1
Revision
  7
MECHTRONICS
  0
TEXT
  5
3FD1
  8
62_TEXT
 10
592.59613703014145
 20
3673.9166557828889
 30
0.0
 40
2.0
  1
Z-SPRING ANCHOR - PROFILE
  7
MECHTRONICS
 72
     1
 11
612.99381779412522
 21
3673.9166557828889
 31
0.0
  0
LINE
  5
3FD2
  8
01_FRAME
 62
     8
 10
566.69275965573217
 20
3691.1184627414909
 30
0.0
 11
642.68919477789393
 21
3691.1184627414909
 31
0.0
  0
LINE
  5
3FD3
  8
01_FRAME
 62
     8
 10
566.69275965573217
 20
3687.6062041996479
 30
0.0
 11
642.68919477789393
 21
3687.6062041996479
 31
0.0
  0
LINE
  5
3FD4
  8
01_FRAME
 62
     4
 10
582.95629815062546
 20
3670.1293114624191
 30
0.0
 11
642.68914726648745
 21
3670.1293114624191
 31
0.0
  0
LINE
  5
3FD5
  8
01_FRAME
 62
     4
 10
537.11264191339978
 20
3676.226264408489
 30
0.0
 11
582.95629815062546
 21
3676.226264408489
 31
0.0
  0
LINE
  5
3FD6
  8
01_FRAME
 62
     8
 10
571.41697502048635
 20
3684.0939329880971
 30
0.0
 11
642.68919477789393
 21
3684.0939329880971
 31
0.0
  0
TEXT
  5
3FD9
  8
01_FRAME
 62
     8
 10
537.71749692120102
 20
3689.012540673581
 30
0.0
 40
1.399999999999999
  1
Higher
  7
MECHTRONICS
  0
TEXT
  5
3FDA
  8
01_FRAME
 62
     8
 10
589.72309118877877
 20
3681.7798434357719
 30
0.0
 40
1.399999999999999
  1
Description of change
  7
MECHTRONICS
  0
LINE
  5
3FDB
  8
01_FRAME
 62
     4
 10
582.95629815062534
 20
3680.572922172038
 30
0.0
 11
582.95629815062546
 21
3659.5925231671822
 31
0.0
  0
LINE
  5
3FDC
  8
01_FRAME
 62
     4
 10
566.69275965573217
 20
3680.572922172038
 30
0.0
 11
566.69275965573217
 21
3691.1184627414909
 31
0.0
  0
LINE
  5
3FDF
  8
01_FRAME
 62
     8
 10
571.41697502048623
 20
3680.572922172038
 30
0.0
 11
571.41697502048623
 21
3691.1607187334698
 31
0.0
  0
LINE
  5
3FE0
  8
01_FRAME
 62
     7
 10
567.0355318512145
 20
3682.7610137121842
 30
0.0
 11
569.07941519828978
 21
3686.301123514063
 31
0.0
  0
LINE
  5
3FE1
  8
01_FRAME
 62
     7
 10
567.0355318512145
 20
3682.7610137121842
 30
0.0
 11
571.12329854536506
 21
3682.7610137121842
 31
0.0
  0
LINE
  5
3FE2
  8
01_FRAME
 62
     7
 10
571.12329854536506
 20
3682.7610137121842
 30
0.0
 11
569.07941519828978
 21
3686.301123514063
 31
0.0
  0
TEXT
  5
3FE3
  8
01_FRAME
 62
     8
 10
583.73021461595772
 20
3677.4821386987828
 30
0.0
 40
1.399999999999999
  1
Title
  7
MECHTRONICS
  0
LINE
  5
3FE4
  8
01_FRAME
 62
     8
 10
623.54498348506922
 20
3670.1293114624191
 30
0.0
 11
623.54498348506922
 21
3659.5925231671822
 31
0.0
  0
LINE
  5
3FE6
  8
01_FRAME
 62
     8
 10
633.11706537577822
 20
3670.1293114624191
 30
0.0
 11
633.11706537577822
 21
3659.5925231671822
 31
0.0
  0
TEXT
  5
3FE7
  8
01_FRAME
 62
     8
 10
624.32786107767345
 20
3667.8547618293219
 30
0.0
 40
1.399999999999999
  1
Process
  7
MECHTRONICS
  0
TEXT
  5
3FE8
  8
01_FRAME
 62
     8
 10
583.61585636196219
 20
3668.041259161093
 30
0.0
 40
1.399999999999999
  1
Drawing Number
  7
MECHTRONICS
  0
TEXT
  5
3FE9
  8
62_TEXT
 10
589.86307910874007
 20
3661.9182655762611
 30
0.0
 40
4.0
  1
10 40 387
  7
MECHTRONICS
  0
TEXT
  5
3FEA
  8
62_TEXT
 10
626.14892057873578
 20
3661.9182655762611
 30
0.0
 40
4.0
  1
P
  7
MECHTRONICS
  0
LINE
  5
3FEB
  8
01_FRAME
 62
     8
 10
623.96110794671381
 20
3680.572922172038
 30
0.0
 11
623.96110794671381
 21
3691.1519537895451
 31
0.0
  0
TEXT
  5
3FED
  8
62_TEXT
 10
635.72100246944512
 20
3661.9182655762611
 30
0.0
 40
4.0
  1
A
  7
MECHTRONICS
  0
LINE
  5
3FEE
  8
01_FRAME
 62
     8
 10
637.35284410369923
 20
3680.572922172038
 30
0.0
 11
637.35284410369923
 21
3691.1519537895451
 31
0.0
  0
TEXT
  5
3FEF
  8
01_FRAME
 62
     8
 10
638.2897501565667
 20
3681.7798434357719
 30
0.0
 40
1.399999999999999
  1
Rev.
  7
MECHTRONICS
  0
TEXT
  5
3FF2
  8
01_FRAME
 62
     8
 10
550.42596918091976
 20
3663.3454741183541
 30
0.0
 40
1.399999999999999
  1
www.mechmate.com
  7
MECHTRONICS
  0
TEXT
  5
3FF6
  8
62_TEXT
 10
548.2961800829404
 20
3688.0172738863998
 30
0.0
 40
2.0
  1
M5 10 150 A
  7
MECHTRONICS
  0
TEXT
  5
3FF8
  8
01_FRAME
 62
     8
 10
537.71749692120102
 20
3686.9849083013978
 30
0.0
 40
1.399999999999999
  1
drawing/s:
  7
MECHTRONICS
  0
LINE
  5
3FF9
  8
01_FRAME
 62
     4
 10
537.11259440199308
 20
3691.1184627414909
 30
0.0
 11
566.69275965573217
 21
3691.1184627414909
 31
0.0
  0
LINE
  5
3FFB
  8
01_FRAME
 62
     4
 10
566.69275965573217
 20
3680.572922172038
 30
0.0
 11
642.68914726648745
 21
3680.572922172038
 31
0.0
  0
TEXT
  5
3FFC
  8
01_FRAME
 62
     8
 10
537.88655837873193
 20
3678.497943393822
 30
0.0
 40
1.399999999999999
  1
Material:
  7
MECHTRONICS
  0
TEXT
  5
3FFD
  8
62_TEXT
 10
677.44188469238134
 20
460.5212923588366
 30
0.0
 40
2.0
  1

  7
MECHTRONICS
  0
TEXT
  5
3FFE
  8
01_FRAME
 62
     7
 10
638.85257833594471
 20
3684.92342266273
 30
0.0
 40
2.0
  1
A
  7
MECHTRONICS
  0
TEXT
  5
3FFF
  8
01_FRAME
 62
     7
 10
608.99157420576512
 20
3684.9705917992028
 30
0.0
 40
2.0
  1
First issue
  7
MECHTRONICS
  0
TEXT
  5
4339
  8
01_FRAME
 62
     8
 10
567.7654977630624
 20
3688.6957735510841
 30
0.0
 40
1.399999999999999
  1
1:1
  7
MECHTRONICS
  0
TEXT
  5
55E8
  8
62_TEXT
 10
548.2961800829404
 20
3677.6435682681681
 30
0.0
 40
2.0
  1
3mm STEEL
  7
MECHTRONICS
  0
TEXT
  5
6036
  8
01_FRAME
 62
     8
 10
625.24975876730275
 20
3681.7798434357719
 30
0.0
 40
1.3999999999999999
  1
Date (d-m-y)
  7
MECHTRONICS
  0
LINE
  5
6037
  8
01_FRAME
 62
     7
 10
564.8286975417999
 20
3666.5337222145381
 30
0.0
 11
566.01277947956294
 21
3666.5337222145381
 31
0.0
  0
LINE
  5
6038
  8
01_FRAME
 62
     7
 10
565.62317832199676
 20
3671.5921403679872
 30
0.0
 11
564.8286975417999
 21
3666.5337222145381
 31
0.0
  0
LINE
  5
6039
  8
01_FRAME
 62
     7
 10
563.84705539877575
 20
3668.1161582697318
 30
0.0
 11
565.62317832199676
 21
3671.5921403679872
 31
0.0
  0
LINE
  5
603A
  8
01_FRAME
 62
     7
 10
566.88747226766316
 20
3672.6368554319429
 30
0.0
 11
565.03877660222611
 21
3672.6368554319429
 31
0.0
  0
LINE
  5
603B
  8
01_FRAME
 62
     7
 10
548.67611437312848
 20
3669.0234664820632
 30
0.0
 11
551.1984003932979
 21
3669.0234664820632
 31
0.0
  0
LINE
  5
603C
  8
01_FRAME
 62
     7
 10
550.9677035016133
 20
3667.9932425720099
 30
0.0
 11
548.92219105317088
 21
3667.9932425720099
 31
0.0
  0
LINE
  5
603D
  8
01_FRAME
 62
     7
 10
548.38389829485584
 20
3667.209042259999
 30
0.0
 11
550.45084881056778
 21
3667.209042259999
 31
0.0
  0
LINE
  5
603E
  8
01_FRAME
 62
     7
 10
550.56640221202747
 20
3671.2838085481062
 30
0.0
 11
549.07598896990874
 21
3671.2838085481062
 31
0.0
  0
LINE
  5
603F
  8
01_FRAME
 62
     7
 10
548.77931290950653
 20
3669.6846508671888
 30
0.0
 11
550.2705614492819
 21
3669.6846508671888
 31
0.0
  0
LINE
  5
6040
  8
01_FRAME
 62
     7
 10
550.08758617076853
 20
3670.5106450150261
 30
0.0
 11
549.13611469597652
 21
3670.5106450150261
 31
0.0
  0
LINE
  5
6041
  8
01_FRAME
 62
     7
 10
541.59769429741971
 20
3666.5337222145381
 30
0.0
 11
542.31960230224502
 21
3671.6151855485891
 31
0.0
  0
LINE
  5
6042
  8
01_FRAME
 62
     7
 10
543.21339317167747
 20
3672.6368554319429
 30
0.0
 11
541.33796019237639
 21
3672.6368554319429
 31
0.0
  0
LINE
  5
6043
  8
01_FRAME
 62
     7
 10
541.33796019237639
 20
3672.6368554319429
 30
0.0
 11
540.47472625307478
 21
3666.5337222145381
 31
0.0
  0
LINE
  5
6044
  8
01_FRAME
 62
     7
 10
540.47472625307478
 20
3666.5337222145381
 30
0.0
 11
541.59769429741971
 21
3666.5337222145381
 31
0.0
  0
LINE
  5
6045
  8
01_FRAME
 62
     7
 10
545.82601268718133
 20
3671.5921403679872
 30
0.0
 11
545.03153190698447
 21
3666.5337222145381
 31
0.0
  0
LINE
  5
6046
  8
01_FRAME
 62
     7
 10
546.21561384474751
 20
3666.5337222145381
 30
0.0
 11
547.09030663284864
 21
3672.6368554319429
 31
0.0
  0
LINE
  5
6047
  8
01_FRAME
 62
     7
 10
545.03153190698447
 20
3666.5337222145381
 30
0.0
 11
546.21561384474751
 21
3666.5337222145381
 31
0.0
  0
LINE
  5
6048
  8
01_FRAME
 62
     7
 10
547.09030663284864
 20
3672.6368554319429
 30
0.0
 11
545.24161096741079
 21
3672.6368554319429
 31
0.0
  0
LINE
  5
6049
  8
01_FRAME
 62
     7
 10
544.04988976396032
 20
3668.1161582697318
 30
0.0
 11
545.82601268718133
 21
3671.5921403679872
 31
0.0
  0
LINE
  5
604A
  8
01_FRAME
 62
     7
 10
542.31960230224502
 20
3671.6151855485891
 30
0.0
 11
543.03005145827171
 21
3668.1161582697318
 31
0.0
  0
LINE
  5
604B
  8
01_FRAME
 62
     7
 10
543.76723796131796
 20
3669.7216395055302
 30
0.0
 11
543.21339317167747
 21
3672.6368554319429
 31
0.0
  0
LINE
  5
604C
  8
01_FRAME
 62
     7
 10
545.24161096741079
 20
3672.6368554319429
 30
0.0
 11
543.76723796131796
 21
3669.7216395055302
 31
0.0
  0
LINE
  5
604D
  8
01_FRAME
 62
     7
 10
543.03005145827171
 20
3668.1161582697318
 30
0.0
 11
544.04988976396032
 21
3668.1161582697318
 31
0.0
  0
LINE
  5
604E
  8
01_FRAME
 62
     7
 10
547.83022578133784
 20
3670.3765964536519
 30
0.0
 11
547.50725012634973
 21
3668.2546426760118
 31
0.0
  0
LINE
  5
604F
  8
01_FRAME
 62
     7
 10
548.57710748868999
 20
3668.2315822633109
 30
0.0
 11
548.67611437312848
 21
3669.0234664820632
 31
0.0
  0
LINE
  5
6050
  8
01_FRAME
 62
     7
 10
548.84335423709342
 20
3670.2208225006129
 30
0.0
 11
548.77931290950653
 21
3669.6846508671888
 31
0.0
  0
LINE
  5
6051
  8
01_FRAME
 62
     7
 10
557.22733266682769
 20
3670.3743361418551
 30
0.0
 11
558.67318661414845
 21
3670.3743361418551
 31
0.0
  0
LINE
  5
6052
  8
01_FRAME
 62
     7
 10
555.05349343906187
 20
3667.5473247280288
 30
0.0
 11
555.09963280413683
 21
3667.9471131204368
 31
0.0
  0
LINE
  5
6053
  8
01_FRAME
 62
     7
 10
556.39912508911164
 20
3672.8957918812989
 30
0.0
 11
555.68789594929444
 21
3667.1911190447931
 31
0.0
  0
LINE
  5
6054
  8
01_FRAME
 62
     7
 10
556.77813534328413
 20
3667.1911190447931
 30
0.0
 11
557.22733266682769
 21
3670.3743361418551
 31
0.0
  0
LINE
  5
6055
  8
01_FRAME
 62
     7
 10
550.92156410338271
 20
3667.5473247280288
 30
0.0
 11
550.9677035016133
 21
3667.9932425720099
 31
0.0
  0
LINE
  5
6056
  8
01_FRAME
 62
     7
 10
553.6231726907256
 20
3667.209042259999
 30
0.0
 11
554.58277814624876
 21
3667.209042259999
 31
0.0
  0
LINE
  5
6057
  8
01_FRAME
 62
     7
 10
552.82342346400969
 20
3667.209042259999
 30
0.0
 11
553.6231726907256
 21
3667.209042259999
 31
0.0
  0
LINE
  5
6058
  8
01_FRAME
 62
     7
 10
555.68789594929444
 20
3667.1911190447931
 30
0.0
 11
556.77813534328413
 21
3667.1911190447931
 31
0.0
  0
LINE
  5
6059
  8
01_FRAME
 62
     7
 10
555.68789594929444
 20
3667.1911190447931
 30
0.0
 11
555.68789594929444
 21
3667.1911190447931
 31
0.0
  0
LINE
  5
605A
  8
01_FRAME
 62
     7
 10
555.03813731884873
 20
3671.2838085481062
 30
0.0
 11
553.51551413906259
 21
3671.2838085481062
 31
0.0
  0
LINE
  5
605B
  8
01_FRAME
 62
     7
 10
553.57703332565075
 20
3670.5149847420548
 30
0.0
 11
555.51587384463187
 21
3670.5149847420548
 31
0.0
  0
LINE
  5
605C
  8
01_FRAME
 62
     7
 10
555.10711019154076
 20
3667.9932425720099
 30
0.0
 11
553.6231726907256
 21
3667.9932425720099
 31
0.0
  0
LINE
  5
605D
  8
01_FRAME
 62
     7
 10
551.1984003932979
 20
3669.0234664820632
 30
0.0
 11
551.41451056569645
 21
3670.4741790345988
 31
0.0
  0
LINE
  5
605E
  8
01_FRAME
 62
     7
 10
551.1984003932979
 20
3669.0234664820632
 30
0.0
 11
551.1984003932979
 21
3669.0234664820632
 31
0.0
  0
LINE
  5
605F
  8
01_FRAME
 62
     7
 10
550.2705614492819
 20
3669.6846508671888
 30
0.0
 11
550.35313209243157
 21
3670.2847334103872
 31
0.0
  0
LINE
  5
6060
  8
01_FRAME
 62
     7
 10
552.26975095049272
 20
3670.3765964536519
 30
0.0
 11
552.02367427044953
 21
3668.715936959642
 31
0.0
  0
LINE
  5
6061
  8
01_FRAME
 62
     7
 10
553.01609868085256
 20
3668.2315822633109
 30
0.0
 11
553.2848172473781
 21
3670.2228316592859
 31
0.0
  0
LINE
  5
6062
  8
01_FRAME
 62
     7
 10
552.02367427044953
 20
3668.715936959642
 30
0.0
 11
551.94677529550268
 21
3668.2546426760118
 31
0.0
  0
LINE
  5
6063
  8
01_FRAME
 62
     7
 10
553.6231726907256
 20
3667.9932425720099
 30
0.0
 11
553.36118224533345
 21
3667.9932425720099
 31
0.0
  0
LINE
  5
6064
  8
01_FRAME
 62
     7
 10
555.51587384463187
 20
3670.5149847420548
 30
0.0
 11
555.55896377640363
 21
3670.7808148794261
 31
0.0
  0
LINE
  5
6065
  8
01_FRAME
 62
     7
 10
555.09963280413683
 20
3667.9471131204368
 30
0.0
 11
555.10711019154076
 21
3667.9932425720099
 31
0.0
  0
LINE
  5
6066
  8
01_FRAME
 62
     7
 10
557.32060864815628
 20
3670.853317974686
 30
0.0
 11
557.56423065948491
 21
3672.8957918812989
 31
0.0
  0
LINE
  5
6067
  8
01_FRAME
 62
     7
 10
557.56423065948491
 20
3672.8957918812989
 30
0.0
 11
556.39912508911164
 21
3672.8957918812989
 31
0.0
  0
LINE
  5
6068
  8
01_FRAME
 62
     7
 10
559.40781142165213
 20
3667.1911190447931
 30
0.0
 11
559.81458972795224
 21
3670.4089234614298
 31
0.0
  0
LINE
  5
6069
  8
01_FRAME
 62
     7
 10
558.67318661414845
 20
3670.3743361418551
 30
0.0
 11
558.27078065913361
 21
3667.1911190447931
 31
0.0
  0
LINE
  5
606A
  8
01_FRAME
 62
     7
 10
561.39485993223514
 20
3666.5337222145381
 30
0.0
 11
562.11676793706044
 21
3671.6151855485891
 31
0.0
  0
LINE
  5
606B
  8
01_FRAME
 62
     7
 10
561.13512582719102
 20
3672.6368554319429
 30
0.0
 11
560.27189188788941
 21
3666.5337222145381
 31
0.0
  0
LINE
  5
606C
  8
01_FRAME
 62
     7
 10
558.27078065913361
 20
3667.1911190447931
 30
0.0
 11
559.40781142165213
 21
3667.1911190447931
 31
0.0
  0
LINE
  5
606D
  8
01_FRAME
 62
     7
 10
560.27189188788941
 20
3666.5337222145381
 30
0.0
 11
561.39485993223514
 21
3666.5337222145381
 31
0.0
  0
LINE
  5
606E
  8
01_FRAME
 62
     7
 10
563.01055880649278
 20
3672.6368554319429
 30
0.0
 11
561.13512582719102
 21
3672.6368554319429
 31
0.0
  0
LINE
  5
606F
  8
01_FRAME
 62
     7
 10
562.11676793706044
 20
3671.6151855485891
 30
0.0
 11
562.82721709308714
 21
3668.1161582697318
 31
0.0
  0
LINE
  5
6070
  8
01_FRAME
 62
     7
 10
563.5644035961335
 20
3669.7216395055302
 30
0.0
 11
563.01055880649278
 21
3672.6368554319429
 31
0.0
  0
LINE
  5
6071
  8
01_FRAME
 62
     7
 10
565.03877660222611
 20
3672.6368554319429
 30
0.0
 11
563.5644035961335
 21
3669.7216395055302
 31
0.0
  0
LINE
  5
6072
  8
01_FRAME
 62
     7
 10
562.82721709308714
 20
3668.1161582697318
 30
0.0
 11
563.84705539877575
 21
3668.1161582697318
 31
0.0
  0
LINE
  5
6073
  8
01_FRAME
 62
     7
 10
573.77421785010335
 20
3672.480963378915
 30
0.0
 11
572.73765110898989
 21
3672.3629369451269
 31
0.0
  0
LINE
  5
6074
  8
01_FRAME
 62
     7
 10
573.18214840058977
 20
3668.2293718837418
 30
0.0
 11
573.51276138170249
 21
3670.5589037809009
 31
0.0
  0
LINE
  5
6075
  8
01_FRAME
 62
     7
 10
572.98984841174604
 20
3667.2068318804281
 30
0.0
 11
574.05711241549966
 21
3667.2068318804281
 31
0.0
  0
LINE
  5
6076
  8
01_FRAME
 62
     7
 10
570.75811850519619
 20
3667.2229771967682
 30
0.0
 11
570.71799795992069
 21
3667.6775788017399
 31
0.0
  0
ARC
  5
6077
  8
01_FRAME
 62
     7
 10
571.71412615239785
 20
3667.7654913955562
 30
0.0
 40
1.0
 50
171.34562025558941
 51
185.0435314678453
  0
LINE
  5
6078
  8
01_FRAME
 62
     7
 10
566.01277947956294
 20
3666.5337222145381
 30
0.0
 11
566.88747226766316
 21
3672.6368554319429
 31
0.0
  0
LINE
  5
6079
  8
01_FRAME
 62
     7
 10
568.1127941450053
 20
3667.207600690806
 30
0.0
 11
569.09710089833095
 21
3667.207600690806
 31
0.0
  0
LINE
  5
607A
  8
01_FRAME
 62
     7
 10
569.69691281007943
 20
3667.2229771967682
 30
0.0
 11
570.75811850519619
 21
3667.2229771967682
 31
0.0
  0
LINE
  5
607B
  8
01_FRAME
 62
     7
 10
572.98984841174513
 20
3667.2068318804281
 30
0.0
 11
573.06674738669278
 21
3667.2068318804281
 31
0.0
  0
LINE
  5
607C
  8
01_FRAME
 62
     7
 10
569.88147033668906
 20
3669.6678369696319
 30
0.0
 11
568.40501022327805
 21
3669.6678369696319
 31
0.0
  0
LINE
  5
607D
  8
01_FRAME
 62
     7
 10
567.62064078492074
 20
3670.513543172865
 30
0.0
 11
569.69863795404967
 21
3670.513543172865
 31
0.0
  0
LINE
  5
607E
  8
01_FRAME
 62
     7
 10
570.26890216699417
 20
3671.297743484874
 30
0.0
 11
568.1435537548781
 21
3671.297743484874
 31
0.0
  0
LINE
  5
607F
  8
01_FRAME
 62
     7
 10
567.66678018315031
 20
3670.9594610168429
 30
0.0
 11
567.62064078492074
 21
3670.513543172865
 31
0.0
  0
LINE
  5
6080
  8
01_FRAME
 62
     7
 10
568.49722957187737
 20
3667.866177095274
 30
0.0
 11
569.23827945648679
 21
3667.8516859745259
 31
0.0
  0
LINE
  5
6081
  8
01_FRAME
 62
     7
 10
569.48623810553033
 20
3668.957841845403
 30
0.0
 11
568.69850239150435
 21
3668.957841845403
 31
0.0
  0
LINE
  5
6082
  8
01_FRAME
 62
     7
 10
571.84631559708976
 20
3671.3123511473018
 30
0.0
 11
571.71332561330325
 21
3670.5589037809009
 31
0.0
  0
LINE
  5
6083
  8
01_FRAME
 62
     7
 10
570.72551214149576
 20
3667.915965105713
 30
0.0
 11
571.11701052066314
 21
3670.488113971368
 31
0.0
  0
LINE
  5
6084
  8
01_FRAME
 62
     7
 10
569.63625072703985
 20
3668.2381159716379
 30
0.0
 11
569.72557592658211
 21
3668.731930240765
 31
0.0
  0
LINE
  5
6085
  8
01_FRAME
 62
     7
 10
569.95836927848029
 20
3670.221390123249
 30
0.0
 11
569.88147033668906
 21
3669.6678369696319
 31
0.0
  0
LINE
  5
6086
  8
01_FRAME
 62
     7
 10
569.96418387571282
 20
3670.2876315682252
 30
0.0
 11
569.95836927848029
 21
3670.221390123249
 31
0.0
  0
LINE
  5
6087
  8
01_FRAME
 62
     7
 10
572.46693547494431
 20
3670.5589037809009
 30
0.0
 11
572.11320024323902
 21
3668.2524322964432
 31
0.0
  0
LINE
  5
6088
  8
01_FRAME
 62
     7
 10
571.71332561330325
 20
3670.5589037809009
 30
0.0
 11
572.46693547494431
 21
3670.5589037809009
 31
0.0
  0
LINE
  5
6089
  8
01_FRAME
 62
     7
 10
572.73765110898989
 20
3672.3629369451269
 30
0.0
 11
572.5745940266072
 21
3671.3123511473018
 31
0.0
  0
LINE
  5
608A
  8
01_FRAME
 62
     7
 10
572.5745940266072
 20
3671.3123511473018
 30
0.0
 11
571.84631559708976
 21
3671.3123511473018
 31
0.0
  0
LINE
  5
608B
  8
01_FRAME
 62
     7
 10
574.52782770831368
 20
3667.5451143484602
 30
0.0
 11
574.57396707681914
 21
3667.991032192439
 31
0.0
  0
LINE
  5
608C
  8
01_FRAME
 62
     7
 10
574.89694273180817
 20
3670.5589037809009
 30
0.0
 11
574.98922149511361
 21
3671.3123511473018
 31
0.0
  0
LINE
  5
608D
  8
01_FRAME
 62
     7
 10
574.57396707681914
 20
3667.991032192439
 30
0.0
 11
573.52723196507236
 21
3667.991032192439
 31
0.0
  0
LINE
  5
608E
  8
01_FRAME
 62
     7
 10
573.51276138170249
 20
3670.5589037809009
 30
0.0
 11
574.89694273180817
 21
3670.5589037809009
 31
0.0
  0
LINE
  5
608F
  8
01_FRAME
 62
     7
 10
573.60504014500782
 20
3671.3123511473018
 30
0.0
 11
573.77421785010335
 21
3672.480963378915
 31
0.0
  0
LINE
  5
6090
  8
01_FRAME
 62
     7
 10
574.98922149511361
 20
3671.3123511473018
 30
0.0
 11
573.60504014500782
 21
3671.3123511473018
 31
0.0
  0
ARC
  5
6091
  8
01_FRAME
 62
     7
 10
549.19599864585985
 20
3670.1701410267769
 30
0.0
 40
0.356267723523487
 50
129.9788673075646
 51
171.82154662074871
  0
ARC
  5
6092
  8
01_FRAME
 62
     7
 10
549.14463435802224
 20
3670.2439568985119
 30
0.0
 40
0.2668241670683093
 50
91.829758024394408
 51
131.71149876918361
  0
ARC
  5
6093
  8
01_FRAME
 62
     7
 10
553.6369172755351
 20
3670.1744807538089
 30
0.0
 40
0.356267723523487
 50
129.9788673075646
 51
171.82154662074871
  0
ARC
  5
6094
  8
01_FRAME
 62
     7
 10
553.58555298769738
 20
3670.2482966255402
 30
0.0
 40
0.2668241670683093
 50
91.829758024394408
 51
131.71149876918361
  0
ARC
  5
6095
  8
01_FRAME
 62
     7
 10
550.10069022107405
 20
3670.2370039212119
 30
0.0
 40
0.2739546757357922
 50
41.694258406644231
 51
92.74167022804761
  0
ARC
  5
6096
  8
01_FRAME
 62
     7
 10
550.16357532494874
 20
3670.2930212018759
 30
0.0
 40
0.1897378601816721
 50
357.49651121804118
 51
41.69425840668103
  0
ARC
  5
6097
  8
01_FRAME
 62
     7
 10
569.71174200435541
 20
3670.2399020790499
 30
0.0
 40
0.2739546757357922
 50
41.694258406644231
 51
92.74167022804761
  0
ARC
  5
6098
  8
01_FRAME
 62
     7
 10
569.77462710822999
 20
3670.2959193597139
 30
0.0
 40
0.1897378601816721
 50
357.49651121804118
 51
41.69425840668103
  0
ARC
  5
6099
  8
01_FRAME
 62
     7
 10
548.92001494810791
 20
3668.4915921690508
 30
0.0
 40
0.4983543481347475
 50
242.0549458700896
 51
270.25018750738548
  0
ARC
  5
609A
  8
01_FRAME
 62
     7
 10
548.78293041675659
 20
3668.2331761237192
 30
0.0
 40
0.2058290992756684
 50
180.44368064352511
 51
242.0549458700896
  0
ARC
  5
609B
  8
01_FRAME
 62
     7
 10
553.35900614026946
 20
3668.4915921690508
 30
0.0
 40
0.4983543481347475
 50
242.0549458700896
 51
270.25018750738548
  0
ARC
  5
609C
  8
01_FRAME
 62
     7
 10
553.22192160891905
 20
3668.2331761237192
 30
0.0
 40
0.2058290992756684
 50
180.44368064352511
 51
242.0549458700896
  0
ARC
  5
609D
  8
01_FRAME
 62
     7
 10
548.80423898008155
 20
3670.2218704126731
 30
0.0
 40
0.9862260689533767
 50
116.4343118930764
 51
170.97374799137759
  0
ARC
  5
609E
  8
01_FRAME
 62
     7
 10
549.13025343261904
 20
3669.5661048991292
 30
0.0
 40
1.7185605772340431
 50
91.809445418565659
 51
116.4343118930764
  0
ARC
  5
609F
  8
01_FRAME
 62
     7
 10
553.24376414923552
 20
3670.2218704126731
 30
0.0
 40
0.9862260689533767
 50
116.4343118930764
 51
170.97374799137759
  0
ARC
  5
60A0
  8
01_FRAME
 62
     7
 10
553.5697786017729
 20
3669.5661048991292
 30
0.0
 40
1.7185605772340431
 50
91.809445418565659
 51
116.4343118930764
  0
ARC
  5
60A1
  8
01_FRAME
 62
     7
 10
550.46714690094655
 20
3670.1818863786002
 30
0.0
 40
1.1063833352066721
 50
44.532575507597819
 51
84.852989749608284
  0
ARC
  5
60A2
  8
01_FRAME
 62
     7
 10
550.84735967403265
 20
3670.5559455916
 30
0.0
 40
0.5730147500357465
 50
351.79615361501862
 51
44.532575507597819
  0
ARC
  5
60A3
  8
01_FRAME
 62
     7
 10
548.39905969959568
 20
3668.0975722076678
 30
0.0
 40
0.8886592913478247
 50
213.378140144387
 51
269.02243001409983
  0
ARC
  5
60A4
  8
01_FRAME
 62
     7
 10
548.45394235746005
 20
3668.13373061726
 30
0.0
 40
0.954382473852452
 50
172.72155707448491
 51
213.378140144387
  0
ARC
  5
60A5
  8
01_FRAME
 62
     7
 10
550.44781967111282
 20
3667.7655148675472
 30
0.0
 40
0.5564808519953198
 50
269.68811547988628
 51
309.85159843335532
  0
ARC
  5
60A6
  8
01_FRAME
 62
     7
 10
550.58900143401422
 20
3667.5963732190771
 30
0.0
 40
0.3361602051582644
 50
309.85159843335532
 51
351.61013221801829
  0
ARC
  5
60A7
  8
01_FRAME
 62
     7
 10
552.83858486874885
 20
3668.0975722076678
 30
0.0
 40
0.8886592913478247
 50
213.378140144387
 51
269.02243001409983
  0
ARC
  5
60A8
  8
01_FRAME
 62
     7
 10
552.89346752661402
 20
3668.13373061726
 30
0.0
 40
0.954382473852452
 50
172.72155707448491
 51
213.378140144387
  0
ARC
  5
60A9
  8
01_FRAME
 62
     7
 10
554.57974900679187
 20
3667.7655148675472
 30
0.0
 40
0.5564808519953198
 50
269.68811547988628
 51
309.85159843335532
  0
ARC
  5
60AA
  8
01_FRAME
 62
     7
 10
554.72093076969236
 20
3667.5963732190771
 30
0.0
 40
0.3361602051582644
 50
309.85159843335532
 51
351.61013221801829
  0
ARC
  5
60AB
  8
01_FRAME
 62
     7
 10
555.05334297840125
 20
3670.7622798474272
 30
0.0
 40
0.5217503212408174
 50
29.017138568443521
 51
91.670039206039846
  0
ARC
  5
60AC
  8
01_FRAME
 62
     7
 10
555.153832401675
 20
3670.8180213455189
 30
0.0
 40
0.4068362716240224
 50
354.75278767927108
 51
29.017138568443521
  0
LINE
  5
60AD
  8
01_FRAME
 62
     7
 10
576.51349549352869
 20
3669.0234664820632
 30
0.0
 11
579.035781513698
 21
3669.0234664820632
 31
0.0
  0
LINE
  5
60AE
  8
01_FRAME
 62
     7
 10
578.8050846220134
 20
3667.9932425720099
 30
0.0
 11
576.75957217357086
 21
3667.9932425720099
 31
0.0
  0
LINE
  5
60AF
  8
01_FRAME
 62
     7
 10
576.22127941525594
 20
3667.209042259999
 30
0.0
 11
578.28822993096799
 21
3667.209042259999
 31
0.0
  0
LINE
  5
60B0
  8
01_FRAME
 62
     7
 10
578.40378333242757
 20
3671.2838085481062
 30
0.0
 11
576.91337009030883
 21
3671.2838085481062
 31
0.0
  0
LINE
  5
60B1
  8
01_FRAME
 62
     7
 10
576.61669402990663
 20
3669.6846508671888
 30
0.0
 11
578.107942569682
 21
3669.6846508671888
 31
0.0
  0
LINE
  5
60B2
  8
01_FRAME
 62
     7
 10
577.92496729116863
 20
3670.5106450150261
 30
0.0
 11
576.9734958163765
 21
3670.5106450150261
 31
0.0
  0
LINE
  5
60B3
  8
01_FRAME
 62
     7
 10
575.66760690173794
 20
3670.3765964536519
 30
0.0
 11
575.34463124674983
 21
3668.2546426760118
 31
0.0
  0
LINE
  5
60B4
  8
01_FRAME
 62
     7
 10
576.41448860909009
 20
3668.2315822633109
 30
0.0
 11
576.51349549352869
 21
3669.0234664820632
 31
0.0
  0
LINE
  5
60B5
  8
01_FRAME
 62
     7
 10
576.68073535749352
 20
3670.2208225006129
 30
0.0
 11
576.61669402990663
 21
3669.6846508671888
 31
0.0
  0
LINE
  5
60B6
  8
01_FRAME
 62
     7
 10
578.75894522378292
 20
3667.5473247280288
 30
0.0
 11
578.8050846220134
 21
3667.9932425720099
 31
0.0
  0
LINE
  5
60B7
  8
01_FRAME
 62
     7
 10
579.035781513698
 20
3669.0234664820632
 30
0.0
 11
579.25189168609666
 21
3670.4741790345988
 31
0.0
  0
LINE
  5
60B8
  8
01_FRAME
 62
     7
 10
579.035781513698
 20
3669.0234664820632
 30
0.0
 11
579.035781513698
 21
3669.0234664820632
 31
0.0
  0
LINE
  5
60B9
  8
01_FRAME
 62
     7
 10
578.107942569682
 20
3669.6846508671888
 30
0.0
 11
578.19051321283155
 21
3670.2847334103872
 31
0.0
  0
ARC
  5
60BA
  8
01_FRAME
 62
     7
 10
577.03337976626005
 20
3670.1701410267769
 30
0.0
 40
0.356267723523487
 50
129.9788673075646
 51
171.82154662074871
  0
ARC
  5
60BB
  8
01_FRAME
 62
     7
 10
576.98201547842234
 20
3670.2439568985119
 30
0.0
 40
0.2668241670683093
 50
91.829758024394408
 51
131.71149876918361
  0
ARC
  5
60BC
  8
01_FRAME
 62
     7
 10
577.93807134147426
 20
3670.2370039212119
 30
0.0
 40
0.2739546757357922
 50
41.694258406644231
 51
92.74167022804761
  0
ARC
  5
60BD
  8
01_FRAME
 62
     7
 10
578.00095644534883
 20
3670.2930212018759
 30
0.0
 40
0.1897378601816721
 50
357.49651121804118
 51
41.69425840668103
  0
ARC
  5
60BE
  8
01_FRAME
 62
     7
 10
576.757396068508
 20
3668.4915921690508
 30
0.0
 40
0.4983543481347475
 50
242.0549458700896
 51
270.25018750738548
  0
ARC
  5
60BF
  8
01_FRAME
 62
     7
 10
576.62031153715657
 20
3668.2331761237192
 30
0.0
 40
0.2058290992756684
 50
180.44368064352511
 51
242.0549458700896
  0
ARC
  5
60C0
  8
01_FRAME
 62
     7
 10
576.64162010048165
 20
3670.2218704126731
 30
0.0
 40
0.9862260689533767
 50
116.4343118930764
 51
170.97374799137759
  0
ARC
  5
60C1
  8
01_FRAME
 62
     7
 10
576.96763455301914
 20
3669.5661048991292
 30
0.0
 40
1.7185605772340431
 50
91.809445418565659
 51
116.4343118930764
  0
ARC
  5
60C2
  8
01_FRAME
 62
     7
 10
578.30452802134675
 20
3670.1818863786002
 30
0.0
 40
1.1063833352066721
 50
44.532575507597819
 51
84.852989749608284
  0
ARC
  5
60C3
  8
01_FRAME
 62
     7
 10
578.68474079443274
 20
3670.5559455916
 30
0.0
 40
0.5730147500357465
 50
351.79615361501862
 51
44.532575507597819
  0
ARC
  5
60C4
  8
01_FRAME
 62
     7
 10
576.23644081999578
 20
3668.0975722076678
 30
0.0
 40
0.8886592913478247
 50
213.378140144387
 51
269.02243001409983
  0
ARC
  5
60C5
  8
01_FRAME
 62
     7
 10
576.29132347786015
 20
3668.13373061726
 30
0.0
 40
0.954382473852452
 50
172.72155707448491
 51
213.378140144387
  0
ARC
  5
60C6
  8
01_FRAME
 62
     7
 10
578.28520079151292
 20
3667.7655148675472
 30
0.0
 40
0.5564808519953198
 50
269.68811547988628
 51
309.85159843335532
  0
ARC
  5
60C7
  8
01_FRAME
 62
     7
 10
578.42638255441432
 20
3667.5963732190771
 30
0.0
 40
0.3361602051582644
 50
309.85159843335532
 51
351.61013221801829
  0
LINE
  5
60C8
  8
01_FRAME
 62
     7
 10
558.49038425514152
 20
3671.2838085481062
 30
0.0
 11
559.12817857153937
 21
3671.2838085481062
 31
0.0
  0
ARC
  5
60C9
  8
01_FRAME
 62
     7
 10
558.94226110845773
 20
3670.4674406427339
 30
0.0
 40
0.8742891288908129
 50
356.16225827570821
 51
57.030568872306567
  0
ARC
  5
60CA
  8
01_FRAME
 62
     7
 10
559.13769457923934
 20
3670.768733596623
 30
0.0
 40
0.515162848085838
 50
57.030568872306567
 51
91.058418890025422
  0
ARC
  5
60CB
  8
01_FRAME
 62
     7
 10
558.5675946196983
 20
3668.9969311482082
 30
0.0
 40
2.2881804305072628
 50
91.933705877925576
 51
118.1284095955113
  0
ARC
  5
60CC
  8
01_FRAME
 62
     7
 10
557.69186630788352
 20
3670.6350690920422
 30
0.0
 40
0.4306562720799454
 50
118.1284095955113
 51
149.5502773796288
  0
ARC
  5
60CD
  8
01_FRAME
 62
     7
 10
574.05408327604368
 20
3667.7633044879758
 30
0.0
 40
0.5564808519953198
 50
269.68811547988628
 51
309.85159843335532
  0
ARC
  5
60CE
  8
01_FRAME
 62
     7
 10
574.19526503894429
 20
3667.594162839508
 30
0.0
 40
0.3361602051582644
 50
309.85159843335532
 51
351.61013221801829
  0
ARC
  5
60CF
  8
01_FRAME
 62
     7
 10
573.00500981648497
 20
3668.0953618280969
 30
0.0
 40
0.8886592913478247
 50
213.378140144387
 51
269.02243001409983
  0
ARC
  5
60D0
  8
01_FRAME
 62
     7
 10
573.05989247434934
 20
3668.13152023769
 30
0.0
 40
0.954382473852452
 50
172.72155707448491
 51
213.378140144387
  0
ARC
  5
60D1
  8
01_FRAME
 62
     7
 10
573.52505586000677
 20
3668.4893817894808
 30
0.0
 40
0.4983543481347475
 50
242.0549458700896
 51
270.25018750738548
  0
ARC
  5
60D2
  8
01_FRAME
 62
     7
 10
573.38797132865545
 20
3668.2309657441501
 30
0.0
 40
0.2058290992756684
 50
180.44368064352511
 51
242.0549458700896
  0
ARC
  5
60D3
  8
01_FRAME
 62
     7
 10
570.16964685591336
 20
3670.1958213153698
 30
0.0
 40
1.1063833352066721
 50
44.532575507597819
 51
84.852989749608284
  0
ARC
  5
60D4
  8
01_FRAME
 62
     7
 10
570.54985962899934
 20
3670.56988052837
 30
0.0
 40
0.5730147500357465
 50
351.79615361501862
 51
44.532575507597819
  0
ARC
  5
60D5
  8
01_FRAME
 62
     7
 10
568.14222606079807
 20
3670.7453936625602
 30
0.0
 40
0.5523514180140796
 50
89.862277278542265
 51
130.98420927748739
  0
ARC
  5
60D6
  8
01_FRAME
 62
     7
 10
568.00421951522026
 20
3670.9042404282441
 30
0.0
 40
0.3419277938878447
 50
130.98420927748739
 51
170.7061550554026
  0
ARC
  5
60D7
  8
01_FRAME
 62
     7
 10
570.6413810330198
 20
3667.7172678141078
 30
0.0
 40
1.0659941081150781
 50
189.2518512240257
 51
207.625462433428
  0
ARC
  5
60D8
  8
01_FRAME
 62
     7
 10
568.96963453784997
 20
3667.920194416432
 30
0.0
 40
0.7239043381937801
 50
280.14161684226292
 51
328.86389698780192
  0
ARC
  5
60D9
  8
01_FRAME
 62
     7
 10
568.43179465514027
 20
3668.4011828559951
 30
0.0
 40
1.2669372712889659
 50
91.211385343645034
 51
150.30133372254059
  0
ARC
  5
60DA
  8
01_FRAME
 62
     7
 10
568.95077716235789
 20
3668.1051764712101
 30
0.0
 40
1.864400761915205
 50
150.30133372254059
 51
172.84077312506099
  0
ARC
  5
60DB
  8
01_FRAME
 62
     7
 10
568.25818948208348
 20
3668.1921699587501
 30
0.0
 40
1.1663709905283439
 50
172.84077312506099
 51
205.63064895958601
  0
ARC
  5
60DC
  8
01_FRAME
 62
     7
 10
567.77906340010975
 20
3667.962295992023
 30
0.0
 40
0.634954164480408
 50
205.63064895958601
 51
237.5110165228015
  0
ARC
  5
60DD
  8
01_FRAME
 62
     7
 10
568.199041504295
 20
3668.621809364156
 30
0.0
 40
1.4168361862834209
 50
237.5110165228015
 51
266.5100646608708
  0
ARC
  5
60DE
  8
01_FRAME
 62
     7
 10
569.47313405522561
 20
3668.6842007515888
 30
0.0
 40
0.2739546757357922
 50
41.694258406644231
 51
92.74167022804761
  0
ARC
  5
60DF
  8
01_FRAME
 62
     7
 10
569.53601915909917
 20
3668.740218032252
 30
0.0
 40
0.1897378601816721
 50
357.49651121804118
 51
41.69425840668103
  0
ARC
  5
60E0
  8
01_FRAME
 62
     7
 10
569.16155103678318
 20
3668.3123422923049
 30
0.0
 40
0.4670026696925385
 50
279.4565576772809
 51
324.92940398283741
  0
ARC
  5
60E1
  8
01_FRAME
 62
     7
 10
569.01587282363869
 20
3668.4146150060201
 30
0.0
 40
0.6449966295775496
 50
324.92940398283741
 51
344.11881738721661
  0
ARC
  5
60E2
  8
01_FRAME
 62
     7
 10
568.69266740593991
 20
3668.4392628832311
 30
0.0
 40
0.5186117883961751
 50
89.355342266111649
 51
126.25017530154049
  0
ARC
  5
60E3
  8
01_FRAME
 62
     7
 10
568.60816970918336
 20
3668.5604933136028
 30
0.0
 40
0.3708987868957041
 50
126.7974170349802
 51
163.58374767656801
  0
ARC
  5
60E4
  8
01_FRAME
 62
     7
 10
564.57586842989929
 20
3669.6099533842698
 30
0.0
 40
3.7959401227298382
 50
343.74206189479008
 51
345.59022698623642
  0
ARC
  5
60E5
  8
01_FRAME
 62
     7
 10
569.29355909776245
 20
3668.2553217886989
 30
0.0
 40
1.112526027892746
 50
164.78824619774861
 51
186.82014585813221
  0
ARC
  5
60E6
  8
01_FRAME
 62
     7
 10
568.44740020881568
 20
3668.1466001674212
 30
0.0
 40
0.2595511549401781
 50
185.171295796316
 51
236.50138254920921
  0
ARC
  5
60E7
  8
01_FRAME
 62
     7
 10
568.51872989874698
 20
3668.2543732235349
 30
0.0
 40
0.3887910724951353
 50
236.50138254920921
 51
266.82989961253043
  0
LINE
  5
6101
  8
10_OUTLINE
 10
496.48379972397248
 20
3775.611826766894
 30
0.0
 11
566.23880297202436
 21
3775.611826766894
 31
0.0
  0
LINE
  5
6102
  8
10_OUTLINE
 10
496.48379972397248
 20
3760.611826766893
 30
0.0
 11
566.23880297202436
 21
3760.611826766893
 31
0.0
  0
ARC
  5
6103
  8
10_OUTLINE
 10
566.23880297202436
 20
3768.111826766894
 30
0.0
 40
7.5
 50
270.0
 51
89.999999999999986
  0
CIRCLE
  5
6104
  8
10_OUTLINE
 10
566.23880297202436
 20
3768.111826766894
 30
0.0
 40
2.5
  0
CIRCLE
  5
6105
  8
10_OUTLINE
 10
556.23880297202459
 20
3768.111826766894
 30
0.0
 40
2.5
  0
LINE
  5
6106
  8
25_CENTRE
 10
566.23880297202436
 20
3758.158635073898
 30
0.0
 11
566.23880297202436
 21
3778.065018459889
 31
0.0
  0
LINE
  5
6107
  8
25_CENTRE
 10
485.79824913187349
 20
3768.111826766894
 30
0.0
 11
569.92267155076388
 21
3768.111826766894
 31
0.0
  0
LINE
  5
6108
  8
25_CENTRE
 10
556.23880297202459
 20
3758.158635073898
 30
0.0
 11
556.23880297202459
 21
3778.065018459889
 31
0.0
  0
LINE
  5
6109
  8
25_CENTRE
 10
546.23880297202436
 20
3758.158635073898
 30
0.0
 11
546.23880297202436
 21
3778.065018459889
 31
0.0
  0
CIRCLE
  5
610A
  8
10_OUTLINE
 10
546.23880297202436
 20
3768.111826766894
 30
0.0
 40
2.5
  0
LINE
  5
610F
  8
50_DIMENSIONS
 10
504.72644041109203
 20
3773.0032934044839
 30
0.0
 11
504.72644041109203
 21
3763.7699248464141
 31
0.0
  0
LINE
  5
6112
  8
25_CENTRE
 10
496.48379972397248
 20
3758.158635073898
 30
0.0
 11
496.48379972397248
 21
3778.065018459889
 31
0.0
  0
CIRCLE
  5
6122
  8
50_DIMENSIONS
 10
496.48379972397248
 20
3768.111826766894
 30
0.0
 40
3.5
  0
ARC
  5
6123
  8
10_OUTLINE
 10
496.48379972397248
 20
3768.111826766894
 30
0.0
 40
7.5000000000002256
 50
90.0
 51
270.0
  0
INSERT
  5
6125
  8
50_DIMENSIONS
  2
*U4
 10
0.0
 20
0.0
 30
0.0
1001
ACAD
1000
DSTYLE
1002
{
1070
   147
1040
0.5
1070
    77
1070
     0
1002
}
  0
INSERT
  5
6126
  8
50_DIMENSIONS
  2
*U5
 10
0.0
 20
0.0
 30
0.0
  0
DIMENSION
  5
6173
  8
50_DIMENSIONS
  2
*D0
 10
573.73880297202425
 20
3795.7792075378889
 30
0.0
 11
531.36130134799816
 21
3795.7792075378889
 31
0.0
 70
     0
 13
488.9837997239722
 23
3768.111826766894
 33
0.0
 14
573.73880297202425
 24
3768.111826766894
 34
0.0
  0
DIMENSION
  5
6181
  8
50_DIMENSIONS
  2
*D1
 10
476.50879553506479
 20
3775.611826766894
 30
0.0
 11
476.50879553506422
 21
3768.111826766894
 31
0.0
 70
     0
 13
496.48379972397248
 23
3760.611826766893
 33
0.0
 14
496.48379972397248
 24
3775.611826766894
 34
0.0
 50
90.0
  0
TEXT
  5
61DF
  8
62_TEXT
 62
     1
 10
500.83211795770632
 20
3671.1374930594302
 30
0.0
 40
4.0
  1
OPTION
  7
MECHTRONICS
  0
LINE
  5
61E0
  8
62_TEXT
 62
    40
 10
522.63018224908706
 20
3670.3508815293121
 30
0.0
 11
501.17138006847767
 21
3670.3508815293121
 31
0.0
  0
LINE
  5
61E1
  8
62_TEXT
 62
    40
 10
522.63018224908706
 20
3675.922286212387
 30
0.0
 11
501.17138006847767
 21
3675.922286212387
 31
0.0
  0
ARC
  5
61E2
  8
62_TEXT
 62
    40
 10
501.17138006847767
 20
3675.1222862129848
 30
0.0
 40
0.7999999994
 50
90.0
 51
180.0
  0
ARC
  5
61E3
  8
62_TEXT
 62
    40
 10
501.17138006847767
 20
3671.1508815287129
 30
0.0
 40
0.7999999994
 50
180.0
 51
269.99999999994787
  0
LINE
  5
61E4
  8
62_TEXT
 62
    40
 10
500.3713800690777
 20
3671.1508815287129
 30
0.0
 11
500.3713800690777
 21
3675.1222862129848
 31
0.0
  0
ARC
  5
61E5
  8
62_TEXT
 62
    40
 10
522.63018224908615
 20
3675.1222862129848
 30
0.0
 40
0.7999999994
 50
0.0
 51
89.999999999947889
  0
ARC
  5
61E6
  8
62_TEXT
 62
    40
 10
522.63018224908615
 20
3671.1508815287129
 30
0.0
 40
0.7999999994
 50
269.99999999994787
 51
0.0
  0
LINE
  5
61E7
  8
62_TEXT
 62
    40
 10
523.43018224848595
 20
3671.1508815287129
 30
0.0
 11
523.43018224848595
 21
3675.1222862129848
 31
0.0
  0
ENDSEC
  0
EOF
