  0
SECTION
  2
HEADER
  9
$ACADVER
  1
AC1009
  9
$INSBASE
 10
0.0
 20
0.0
 30
0.0
  9
$EXTMIN
 10
219.76932931324851
 20
370.01309102445248
 30
0.0
  9
$EXTMAX
 10
624.21871842327425
 20
660.09269623448472
 30
0.0
  9
$LIMMIN
 10
0.0
 20
0.0
  9
$LIMMAX
 10
0.0
 20
0.0
  9
$ORTHOMODE
 70
     0
  9
$REGENMODE
 70
     1
  9
$FILLMODE
 70
     1
  9
$QTEXTMODE
 70
     0
  9
$MIRRTEXT
 70
     1
  9
$DRAGMODE
 70
     2
  9
$LTSCALE
 40
10.0
  9
$OSMODE
 70
    47
  9
$ATTMODE
 70
     1
  9
$TEXTSIZE
 40
2.0
  9
$TRACEWID
 40
0.05
  9
$TEXTSTYLE
  7
MECHTRONICS
  9
$CLAYER
  8
50_DIMENSIONS
  9
$CELTYPE
  6
BYLAYER
  9
$CECOLOR
 62
   256
  9
$DIMSCALE
 40
1.5
  9
$DIMASZ
 40
2.0
  9
$DIMEXO
 40
1.0
  9
$DIMDLI
 40
6.0
  9
$DIMRND
 40
0.0
  9
$DIMDLE
 40
0.0
  9
$DIMEXE
 40
0.5
  9
$DIMTP
 40
0.0
  9
$DIMTM
 40
0.0
  9
$DIMTXT
 40
2.0
  9
$DIMCEN
 40
0.09
  9
$DIMTSZ
 40
0.0
  9
$DIMTOL
 70
     0
  9
$DIMLIM
 70
     0
  9
$DIMTIH
 70
     0
  9
$DIMTOH
 70
     1
  9
$DIMSE1
 70
     0
  9
$DIMSE2
 70
     0
  9
$DIMTAD
 70
     0
  9
$DIMZIN
 70
     0
  9
$DIMBLK
  1

  9
$DIMASO
 70
     1
  9
$DIMSHO
 70
     1
  9
$DIMPOST
  1

  9
$DIMAPOST
  1
"
  9
$DIMALT
 70
     1
  9
$DIMALTD
 70
     1
  9
$DIMALTF
 40
0.03937
  9
$DIMLFAC
 40
1.0
  9
$DIMTOFL
 70
     0
  9
$DIMTVP
 40
0.0
  9
$DIMTIX
 70
     0
  9
$DIMSOXD
 70
     0
  9
$DIMSAH
 70
     0
  9
$DIMBLK1
  1

  9
$DIMBLK2
  1

  9
$DIMSTYLE
  2
MECHTRONICS
  9
$DIMCLRD
 70
     7
  9
$DIMCLRE
 70
     7
  9
$DIMCLRT
 70
     0
  9
$DIMTFAC
 40
1.0
  9
$DIMGAP
 40
0.5
  9
$LUNITS
 70
     2
  9
$LUPREC
 70
    10
  9
$SKETCHINC
 40
0.1
  9
$FILLETRAD
 40
0.0
  9
$AUNITS
 70
     0
  9
$AUPREC
 70
     0
  9
$MENU
  1
acad
  9
$ELEVATION
 40
0.0
  9
$PELEVATION
 40
0.0
  9
$THICKNESS
 40
0.0
  9
$LIMCHECK
 70
     0
  9
$BLIPMODE
 70
     0
  9
$CHAMFERA
 40
0.0
  9
$CHAMFERB
 40
0.0
  9
$SKPOLY
 70
     0
  9
$TDCREATE
 40
2444972.083333333
  9
$TDUPDATE
 40
2454646.8311593868
  9
$TDINDWG
 40
1.0216152893999999
  9
$TDUSRTIMER
 40
1.0216145718
  9
$USRTIMER
 70
     1
  9
$ANGBASE
 50
0.0
  9
$ANGDIR
 70
     0
  9
$PDMODE
 70
     0
  9
$PDSIZE
 40
0.0
  9
$PLINEWID
 40
0.0
  9
$COORDS
 70
     1
  9
$SPLFRAME
 70
     0
  9
$SPLINETYPE
 70
     6
  9
$SPLINESEGS
 70
     8
  9
$ATTDIA
 70
     0
  9
$ATTREQ
 70
     1
  9
$HANDLING
 70
     1
  9
$HANDSEED
  5
5201
  9
$SURFTAB1
 70
     6
  9
$SURFTAB2
 70
     6
  9
$SURFTYPE
 70
     6
  9
$SURFU
 70
     6
  9
$SURFV
 70
     6
  9
$UCSNAME
  2

  9
$UCSORG
 10
0.0
 20
0.0
 30
0.0
  9
$UCSXDIR
 10
1.0
 20
0.0
 30
0.0
  9
$UCSYDIR
 10
0.0
 20
1.0
 30
0.0
  9
$PUCSNAME
  2

  9
$PUCSORG
 10
0.0
 20
0.0
 30
0.0
  9
$PUCSXDIR
 10
1.0
 20
0.0
 30
0.0
  9
$PUCSYDIR
 10
0.0
 20
1.0
 30
0.0
  9
$USERI1
 70
     0
  9
$USERI2
 70
     0
  9
$USERI3
 70
     0
  9
$USERI4
 70
     0
  9
$USERI5
 70
     0
  9
$USERR1
 40
0.0
  9
$USERR2
 40
0.0
  9
$USERR3
 40
0.0
  9
$USERR4
 40
0.0
  9
$USERR5
 40
0.0
  9
$WORLDVIEW
 70
     1
  9
$SHADEDGE
 70
     3
  9
$SHADEDIF
 70
    70
  9
$TILEMODE
 70
     1
  9
$MAXACTVP
 70
    16
  9
$PLIMCHECK
 70
     0
  9
$PEXTMIN
 10
1.0887500995726069
 20
0.7937499998122686
 30
0.0
  9
$PEXTMAX
 10
21.184573317709511
 20
7.1437499983104198
 30
0.0
  9
$PLIMMIN
 10
0.0
 20
0.0
  9
$PLIMMAX
 10
12.0
 20
9.0
  9
$UNITMODE
 70
     0
  9
$VISRETAIN
 70
     0
  9
$PLINEGEN
 70
     1
  9
$PSLTSCALE
 70
     0
  0
ENDSEC
  0
SECTION
  2
TABLES
  0
TABLE
  2
VPORT
 70
     2
  0
VPORT
  2
*ACTIVE
 70
     0
 10
0.0
 20
0.0
 11
1.0
 21
1.0
 12
466.52970706769747
 22
515.05622675208872
 13
0.0
 23
0.0
 14
1.0
 24
1.0
 15
0.0
 25
0.0
 16
0.0
 26
0.0
 36
1.0
 17
0.0
 27
0.0
 37
0.0
 40
293.43491467940009
 41
1.7423423423423421
 42
50.0
 43
0.0
 44
0.0
 50
0.0
 51
0.0
 71
     0
 72
   100
 73
     1
 74
     0
 75
     0
 76
     0
 77
     0
 78
     0
  0
ENDTAB
  0
TABLE
  2
LTYPE
 70
     4
  0
LTYPE
  2
CONTINUOUS
 70
     0
  3
Solid line
 72
    65
 73
     0
 40
0.0
  0
LTYPE
  2
CENTER
 70
     0
  3
___ _ ___ _ ___ _ ___ _ ___ _ ___ _ ___ _ ___ _
 72
    65
 73
     4
 40
0.95
 49
0.625
 49
-0.125
 49
0.075
 49
-0.125
  0
LTYPE
  2
HIDDEN
 70
     0
  3
Hidden __ __ __ __ __ __ __ __ __ __ __ __ __ _
 72
    65
 73
     2
 40
0.375
 49
0.25
 49
-0.125
  0
LTYPE
  2
DASHED
 70
     0
  3
_ _ _ _ _ _ _ _ _ _ _ _ _ _ _ _
 72
    65
 73
     2
 40
0.2
 49
0.1
 49
-0.1
  0
ENDTAB
  0
TABLE
  2
LAYER
 70
     9
  0
LAYER
  2
0
 70
     0
 62
   221
  6
CONTINUOUS
  0
LAYER
  2
50_DIMENSIONS
 70
     0
 62
     7
  6
CONTINUOUS
  0
LAYER
  2
10_OUTLINE
 70
     0
 62
     2
  6
CONTINUOUS
  0
LAYER
  2
25_CENTRE
 70
     0
 62
     6
  6
CENTER
  0
LAYER
  2
20_HIDDEN
 70
     0
 62
    10
  6
HIDDEN
  0
LAYER
  2
62_TEXT
 70
     0
 62
     7
  6
CONTINUOUS
  0
LAYER
  2
30_HATCHING
 70
     0
 62
     1
  6
CONTINUOUS
  0
LAYER
  2
01_FRAME
 70
     0
 62
     4
  6
CONTINUOUS
  0
LAYER
  2
DEFPOINTS
 70
     0
 62
     7
  6
CONTINUOUS
  0
ENDTAB
  0
TABLE
  2
STYLE
 70
     2
  0
STYLE
  2
STANDARD
 70
     0
 40
0.0
 41
1.0
 50
0.0
 71
     0
 42
1.345608723561553
  3
txt
  4

  0
STYLE
  2
MECHTRONICS
 70
     0
 40
3.0
 41
1.0
 50
0.0
 71
     0
 42
2.0
  3
txt
  4

  0
ENDTAB
  0
TABLE
  2
VIEW
 70
     0
  0
ENDTAB
  0
TABLE
  2
UCS
 70
    16
  0
UCS
  2
AUDIT_D_000731094948-0
 70
     0
 10
0.0
 20
0.0
 30
1.0
 11
1.0
 21
0.0
 31
0.0
 12
0.0
 22
1.0
 32
0.0
  0
UCS
  2
AUDIT_D_000731094948-1
 70
     0
 10
0.0
 20
0.0
 30
1.0
 11
1.0
 21
0.0
 31
0.0
 12
0.0
 22
1.0
 32
0.0
  0
UCS
  2
AUDIT_D_000731094948-2
 70
     0
 10
0.0
 20
0.0
 30
1.0
 11
1.0
 21
0.0
 31
0.0
 12
0.0
 22
1.0
 32
0.0
  0
UCS
  2
AUDIT_D_000731094948-3
 70
     0
 10
0.0
 20
0.0
 30
1.0
 11
1.0
 21
0.0
 31
0.0
 12
0.0
 22
1.0
 32
0.0
  0
UCS
  2
AUDIT_D_000731094948-4
 70
     0
 10
0.0
 20
0.0
 30
1.0
 11
1.0
 21
0.0
 31
0.0
 12
0.0
 22
1.0
 32
0.0
  0
UCS
  2
AUDIT_D_000731094948-5
 70
     0
 10
0.0
 20
0.0
 30
1.0
 11
1.0
 21
0.0
 31
0.0
 12
0.0
 22
1.0
 32
0.0
  0
UCS
  2
AUDIT_D_000731094948-6
 70
     0
 10
0.0
 20
0.0
 30
1.0
 11
1.0
 21
0.0
 31
0.0
 12
0.0
 22
1.0
 32
0.0
  0
UCS
  2
AUDIT_D_000731094948-7
 70
     0
 10
0.0
 20
0.0
 30
1.0
 11
1.0
 21
0.0
 31
0.0
 12
0.0
 22
1.0
 32
0.0
  0
UCS
  2
AUDIT_D_000731094948-8
 70
     0
 10
0.0
 20
0.0
 30
1.0
 11
1.0
 21
0.0
 31
0.0
 12
0.0
 22
1.0
 32
0.0
  0
UCS
  2
AUDIT_D_000731094948-9
 70
     0
 10
0.0
 20
0.0
 30
1.0
 11
1.0
 21
0.0
 31
0.0
 12
0.0
 22
1.0
 32
0.0
  0
UCS
  2
AUDIT_D_000731094948-10
 70
     0
 10
0.0
 20
0.0
 30
1.0
 11
1.0
 21
0.0
 31
0.0
 12
0.0
 22
1.0
 32
0.0
  0
UCS
  2
AUDIT_D_000731094948-11
 70
     0
 10
0.0
 20
0.0
 30
1.0
 11
1.0
 21
0.0
 31
0.0
 12
0.0
 22
1.0
 32
0.0
  0
UCS
  2
AUDIT_D_000731094948-12
 70
     0
 10
0.0
 20
0.0
 30
1.0
 11
1.0
 21
0.0
 31
0.0
 12
0.0
 22
1.0
 32
0.0
  0
UCS
  2
AUDIT_D_000731094948-13
 70
     0
 10
0.0
 20
0.0
 30
1.0
 11
1.0
 21
0.0
 31
0.0
 12
0.0
 22
1.0
 32
0.0
  0
UCS
  2
AUDIT_D_000731094948-14
 70
     0
 10
0.0
 20
0.0
 30
1.0
 11
1.0
 21
0.0
 31
0.0
 12
0.0
 22
1.0
 32
0.0
  0
UCS
  2
CK_VIEW_1
 70
     0
 10
0.0
 20
0.0
 30
1.0
 11
1.0
 21
0.0
 31
0.0
 12
0.0
 22
1.0
 32
0.0
  0
ENDTAB
  0
TABLE
  2
APPID
 70
     4
  0
APPID
  2
ACAD
 70
     0
  0
APPID
  2
DCO15
 70
     0
  0
APPID
  2
ACAD_PSEXT
 70
     0
  0
APPID
  2
ACAD_DSTYLE_DIMTEXT_FILL
 70
     0
  0
ENDTAB
  0
TABLE
  2
DIMSTYLE
 70
     2
  0
DIMSTYLE
  2
STANDARD
 70
     0
  3

  4

  5

  6

  7

 40
1.0
 41
0.18
 42
0.0625
 43
0.38
 44
0.18
 45
0.0
 46
0.0
 47
0.0
 48
0.0
140
0.18
141
0.09
142
0.0
143
25.399999999999999
144
1.0
145
0.0
146
1.0
147
0.09
 71
     0
 72
     0
 73
     1
 74
     1
 75
     0
 76
     0
 77
     0
 78
     0
170
     0
171
     2
172
     0
173
     0
174
     0
175
     0
176
     0
177
     0
178
     0
  0
DIMSTYLE
  2
MECHTRONICS
 70
     0
  3

  4
"
  5

  6

  7

 40
1.5
 41
2.0
 42
1.0
 43
6.0
 44
0.5
 45
0.0
 46
0.0
 47
0.0
 48
0.0
140
2.0
141
0.09
142
0.0
143
0.03937
144
1.0
145
0.0
146
1.0
147
0.5
 71
     0
 72
     0
 73
     0
 74
     1
 75
     0
 76
     0
 77
     0
 78
     0
170
     1
171
     1
172
     0
173
     0
174
     0
175
     0
176
     7
177
     7
178
     0
  0
ENDTAB
  0
ENDSEC
  0
SECTION
  2
BLOCKS
  0
BLOCK
  8
0
  2
$MODEL_SPACE
 70
     0
 10
0.0
 20
0.0
 30
0.0
  3
$MODEL_SPACE
  1

  0
ENDBLK
  5
E
  8
0
  0
BLOCK
 67
     1
  8
0
  2
$PAPER_SPACE
 70
     0
 10
0.0
 20
0.0
 30
0.0
  3
$PAPER_SPACE
  1

  0
ENDBLK
  5
10
 67
     1
  8
0
  0
BLOCK
  8
0
  2
_DOTSMALL
 70
     0
 10
0.0
 20
0.0
 30
0.0
  3
_DOTSMALL
  1

  0
POLYLINE
  5
4F07
  8
0
 62
     0
 66
     1
 10
0.0
 20
0.0
 30
0.0
 70
     1
 40
0.5
 41
0.5
  0
VERTEX
  5
51E9
  8
0
 62
     0
 10
-0.0625
 20
0.0
 30
0.0
 42
1.0
  0
VERTEX
  5
51EA
  8
0
 62
     0
 10
0.0625
 20
0.0
 30
0.0
 42
1.0
  0
SEQEND
  5
51EB
  8
0
 62
     0
  0
ENDBLK
  5
4F08
  8
0
  0
BLOCK
  8
0
  2
A$C536A1301
 70
     0
 10
0.0
 20
0.0
 30
0.0
  3
A$C536A1301
  1

  0
LINE
  5
513E
  8
10_OUTLINE
 62
     2
 10
92.435531976500442
 20
117.0000009782719
 30
0.0
 11
92.435531976500442
 21
138.58406145536881
 31
0.0
  0
LINE
  5
513F
  8
10_OUTLINE
 62
     2
 10
97.435531976500442
 20
112.0000009782719
 30
0.0
 11
100.4355319765011
 21
112.0000009782719
 31
0.0
  0
ARC
  5
5140
  8
10_OUTLINE
 62
     2
 10
100.4355319765011
 20
110.000000978272
 30
0.0
 40
1.9999999999999369
 50
270.0
 51
90.0
  0
LINE
  5
5141
  8
10_OUTLINE
 62
     2
 10
118.10219864316829
 20
112.0000009782719
 30
0.0
 11
121.1021986431692
 21
112.0000009782719
 31
0.0
  0
ARC
  5
5142
  8
10_OUTLINE
 62
     2
 10
118.10219864316829
 20
110.0000009782719
 30
0.0
 40
2.0
 50
90.0
 51
270.0
  0
LINE
  5
5143
  8
10_OUTLINE
 62
     2
 10
129.1021986431692
 20
112.0000009782719
 30
0.0
 11
152.76886530983799
 21
112.0000009782719
 31
0.0
  0
ARC
  5
5144
  8
10_OUTLINE
 62
     2
 10
97.435531976501366
 20
117.0000009782721
 30
0.0
 40
5.0
 50
180.0
 51
270.0
  0
LINE
  5
5145
  8
10_OUTLINE
 62
     2
 10
157.76886530983799
 20
117.0000009782719
 30
0.0
 11
157.76886530983799
 21
142.00000097827211
 31
0.0
  0
ARC
  5
5146
  8
10_OUTLINE
 62
     2
 10
152.7688653098389
 20
117.0000009782721
 30
0.0
 40
5.0
 50
270.0
 51
0.0
  0
CIRCLE
  5
5147
  8
10_OUTLINE
 62
     2
 10
138.3521986431692
 20
127.0000009782719
 30
0.0
 40
3.2000000000000002
  0
CIRCLE
  5
5148
  8
10_OUTLINE
 62
     2
 10
111.8521986431692
 20
127.0000009782719
 30
0.0
 40
3.2000000000000002
  0
LINE
  5
5149
  8
10_OUTLINE
 62
     2
 10
122.39485996165649
 20
202.5436927236523
 30
0.0
 11
88.859668592888283
 21
221.4451028058555
 31
0.0
  0
ARC
  5
514A
  8
10_OUTLINE
 62
     2
 10
108.49999931867789
 20
256.2912992838302
 30
0.0
 40
40.0
 50
196.40248496755501
 51
240.59312632125699
  0
ARC
  5
514B
  8
10_OUTLINE
 62
     2
 10
65.33142154767711
 20
243.58406145536929
 30
0.0
 40
5.0
 50
16.40248496755504
 51
90.0
  0
ARC
  5
514C
  8
10_OUTLINE
 62
     2
 10
88.270672835778456
 20
142.00000097827211
 30
0.0
 40
69.498192474059579
 50
0.0
 51
60.593126321257039
  0
LINE
  5
514D
  8
10_OUTLINE
 62
     2
 10
9.9999993186770553
 20
248.58406145536981
 30
0.0
 11
65.3314215476762
 21
248.58406145536941
 31
0.0
  0
LINE
  5
514E
  8
10_OUTLINE
 62
     2
 10
9.9999993186779648
 20
168.58406145536949
 30
0.0
 11
46.999999318677958
 21
168.5840614553689
 31
0.0
  0
LINE
  5
514F
  8
20_HIDDEN
 10
34.999999318677972
 20
168.5840614553691
 30
0.0
 11
34.999999318677972
 21
248.58406145536961
 31
0.0
  0
LINE
  5
5150
  8
10_OUTLINE
 62
     2
 10
-0.0000006813211257
 20
178.58406145536981
 30
0.0
 11
-0.0000006813220352
 21
238.58406145536961
 31
0.0
  0
CIRCLE
  5
5151
  8
10_OUTLINE
 62
     2
 10
9.9999993186770553
 20
238.58406145536981
 30
0.0
 40
3.2000000000000002
  0
ARC
  5
5152
  8
10_OUTLINE
 62
     2
 10
9.9999993186770553
 20
238.58406145536981
 30
0.0
 40
10.0
 50
90.0
 51
180.0
  0
CIRCLE
  5
5153
  8
10_OUTLINE
 62
     2
 10
9.9999993186770553
 20
178.58406145536961
 30
0.0
 40
3.2000000000000002
  0
ARC
  5
5154
  8
10_OUTLINE
 62
     2
 10
9.9999993186779648
 20
178.58406145536981
 30
0.0
 40
10.0
 50
180.0
 51
270.0
  0
ARC
  5
5155
  8
10_OUTLINE
 62
     2
 10
80.435531976500442
 20
138.58406145536881
 30
0.0
 40
12.0
 50
0.0
 51
61.704223961122217
  0
ARC
  5
5156
  8
10_OUTLINE
 62
     2
 10
46.999999318677958
 20
156.5840614553691
 30
0.0
 40
12.0
 50
61.704223961122217
 51
90.0
  0
LINE
  5
5157
  8
10_OUTLINE
 62
     2
 10
52.688278884862939
 20
167.15020907770179
 30
0.0
 11
86.123811542685416
 21
149.1502090777015
 31
0.0
  0
CIRCLE
  5
5158
  8
10_OUTLINE
 62
     2
 10
49.187232869212039
 20
188.65443114386781
 30
0.0
 40
3.5
  0
CIRCLE
  5
5159
  8
10_OUTLINE
 62
     2
 10
70.128502272801143
 20
197.3285889441425
 30
0.0
 40
3.5
  0
CIRCLE
  5
515A
  8
10_OUTLINE
 62
     2
 10
91.069771676390246
 20
206.0027467444182
 30
0.0
 40
3.5
  0
CIRCLE
  5
515B
  8
10_OUTLINE
 62
     2
 10
88.760441832428569
 20
161.28193394307559
 30
0.0
 40
3.5
  0
CIRCLE
  5
515C
  8
10_OUTLINE
 62
     2
 10
109.70171123601951
 20
169.95609174335081
 30
0.0
 40
3.5
  0
CIRCLE
  5
515D
  8
10_OUTLINE
 62
     2
 10
130.64298063960669
 20
178.63024954362601
 30
0.0
 40
3.5
  0
LINE
  5
515E
  8
10_OUTLINE
 62
     2
 10
121.1021986431692
 20
112.0000009782719
 30
0.0
 11
121.1021986431692
 21
115.0000009782719
 31
0.0
  0
LINE
  5
515F
  8
10_OUTLINE
 62
     2
 10
129.1021986431692
 20
112.0000009782719
 30
0.0
 11
129.1021986431692
 21
115.0000009782719
 31
0.0
  0
LINE
  5
5160
  8
10_OUTLINE
 62
     2
 10
121.1021986431692
 20
115.0000009782719
 30
0.0
 11
129.1021986431692
 21
115.0000009782719
 31
0.0
  0
LINE
  5
5161
  8
20_HIDDEN
 10
34.999999318676153
 20
44.00000097827251
 30
0.0
 11
34.999999318677048
 21
74.000000978272624
 31
0.0
  0
LINE
  5
5162
  8
10_OUTLINE
 62
     2
 10
121.1021986431701
 20
44.000000978272617
 30
0.0
 11
121.10219864316829
 21
74.000000978272283
 31
0.0
  0
LINE
  5
5163
  8
10_OUTLINE
 62
     2
 10
9.9999993186770553
 20
74.000000978272723
 30
0.0
 11
100.4355319765012
 21
74.000000978272965
 31
0.0
  0
ARC
  5
5164
  8
10_OUTLINE
 62
     2
 10
100.4355319765012
 20
76.000000978272567
 30
0.0
 40
1.999999999999601
 50
270.0
 51
90.0
  0
LINE
  5
5165
  8
10_OUTLINE
 62
     2
 10
118.10219864316829
 20
74.000000978272226
 30
0.0
 11
121.10219864316829
 21
74.000000978272283
 31
0.0
  0
CIRCLE
  5
5166
  8
10_OUTLINE
 62
     2
 10
9.9999993186770553
 20
59.00000097827251
 30
0.0
 40
3.2000000000000002
  0
ARC
  5
5167
  8
10_OUTLINE
 62
     2
 10
9.9999993186770553
 20
64.000000978272723
 30
0.0
 40
10.0
 50
90.0
 51
180.0
  0
LINE
  5
5168
  8
10_OUTLINE
 62
     2
 10
9.9999993186770553
 20
44.000000978272283
 30
0.0
 11
100.4355319765012
 21
44.00000097827251
 31
0.0
  0
LINE
  5
5169
  8
10_OUTLINE
 62
     2
 10
118.10219864316819
 20
44.00000097827251
 30
0.0
 11
121.1021986431701
 21
44.000000978272617
 31
0.0
  0
ARC
  5
516A
  8
10_OUTLINE
 62
     2
 10
118.10219864316829
 20
42.00000097827251
 30
0.0
 40
1.9999999999999709
 50
90.0
 51
270.0
  0
ARC
  5
516B
  8
10_OUTLINE
 62
     2
 10
9.9999993186770553
 20
54.000000978272283
 30
0.0
 40
10.0
 50
180.0
 51
270.0
  0
LINE
  5
516C
  8
10_OUTLINE
 62
     2
 10
-0.0000006813229447
 20
54.000000978272389
 30
0.0
 11
-0.0000006813229447
 21
64.000000978272624
 31
0.0
  0
LINE
  5
516D
  8
20_HIDDEN
 10
34.999999318676153
 20
0.0000009782728512
 30
0.0
 11
34.999999318677048
 21
40.000000978272958
 31
0.0
  0
LINE
  5
516E
  8
10_OUTLINE
 62
     2
 10
121.1021986431701
 20
30.000000978272631
 30
0.0
 11
121.10219864316829
 21
40.000000978272617
 31
0.0
  0
LINE
  5
516F
  8
10_OUTLINE
 62
     2
 10
9.9999993186770553
 20
40.000000978273079
 30
0.0
 11
100.4355319765012
 21
40.000000978273313
 31
0.0
  0
ARC
  5
5170
  8
10_OUTLINE
 62
     2
 10
100.4355319765012
 20
42.000000978272908
 30
0.0
 40
1.999999999999601
 50
270.0
 51
90.0
  0
LINE
  5
5171
  8
10_OUTLINE
 62
     2
 10
118.10219864316829
 20
40.00000097827256
 30
0.0
 11
121.10219864316829
 21
40.000000978272617
 31
0.0
  0
CIRCLE
  5
5172
  8
10_OUTLINE
 62
     2
 10
9.9999993186770553
 20
30.000000978272851
 30
0.0
 40
3.2000000000000002
  0
ARC
  5
5173
  8
10_OUTLINE
 62
     2
 10
9.9999993186770553
 20
30.000000978273079
 30
0.0
 40
10.0
 50
90.0
 51
180.0
  0
LINE
  5
5174
  8
10_OUTLINE
 62
     2
 10
9.9999993186770553
 20
0.0000009782726238
 30
0.0
 11
82.403468832393159
 21
0.0000009782730785
 31
0.0
  0
ARC
  5
5175
  8
10_OUTLINE
 62
     2
 10
9.9999993186770553
 20
10.00000097827262
 30
0.0
 40
10.0
 50
180.0
 51
270.0
  0
LINE
  5
5176
  8
10_OUTLINE
 62
     2
 10
-0.0000006813229447
 20
10.000000978272739
 30
0.0
 11
-0.0000006813229447
 21
30.000000978272961
 31
0.0
  0
LINE
  5
5177
  8
10_OUTLINE
 62
     2
 10
121.1021986431701
 20
30.000000978272631
 30
0.0
 11
129.1021986431692
 21
30.000000978272741
 31
0.0
  0
CIRCLE
  5
5178
  8
10_OUTLINE
 62
     2
 10
9.9999993186770553
 20
10.000000978272849
 30
0.0
 40
3.2000000000000002
  0
LINE
  5
5179
  8
10_OUTLINE
 62
     2
 10
129.1021986431692
 20
30.000000978272741
 30
0.0
 11
129.1021986431692
 21
25.000000978272741
 31
0.0
  0
ARC
  5
517A
  8
10_OUTLINE
 62
     2
 10
119.1021986431692
 20
25.000000978272741
 30
0.0
 40
10.0
 50
299.99999999999318
 51
0.0
  0
LINE
  5
517B
  8
10_OUTLINE
 62
     2
 10
124.1021986431701
 20
16.339746940428309
 30
0.0
 11
107.4034688323932
 21
6.698730789051182
 31
0.0
  0
ARC
  5
517C
  8
10_OUTLINE
 62
     2
 10
82.403468832393159
 20
50.000000978273079
 30
0.0
 40
50.0
 50
270.0
 51
299.99999999999318
  0
LINE
  5
517D
  8
20_HIDDEN
 10
34.999999318676153
 20
78.000000978272169
 30
0.0
 11
34.999999318677048
 21
108.0000009782723
 31
0.0
  0
LINE
  5
517E
  8
10_OUTLINE
 62
     2
 10
121.1021986431701
 20
78.000000978272283
 30
0.0
 11
121.10219864316829
 21
108.0000009782719
 31
0.0
  0
LINE
  5
517F
  8
10_OUTLINE
 62
     2
 10
9.9999993186770553
 20
108.0000009782724
 30
0.0
 11
100.4355319765011
 21
108.000000978272
 31
0.0
  0
LINE
  5
5180
  8
10_OUTLINE
 62
     2
 10
118.10219864316829
 20
108.0000009782719
 30
0.0
 11
121.10219864316829
 21
108.0000009782719
 31
0.0
  0
CIRCLE
  5
5181
  8
10_OUTLINE
 62
     2
 10
9.9999993186770553
 20
93.000000978272169
 30
0.0
 40
3.2000000000000002
  0
ARC
  5
5182
  8
10_OUTLINE
 62
     2
 10
9.9999993186770553
 20
98.000000978272396
 30
0.0
 40
10.0
 50
90.0
 51
180.0
  0
LINE
  5
5183
  8
10_OUTLINE
 62
     2
 10
9.9999993186770553
 20
78.000000978271942
 30
0.0
 11
100.4355319765012
 21
78.000000978272169
 31
0.0
  0
LINE
  5
5184
  8
10_OUTLINE
 62
     2
 10
118.10219864316819
 20
78.000000978272169
 30
0.0
 11
121.1021986431701
 21
78.000000978272283
 31
0.0
  0
ARC
  5
5185
  8
10_OUTLINE
 62
     2
 10
118.10219864316829
 20
76.000000978272169
 30
0.0
 40
1.9999999999999709
 50
90.0
 51
270.0
  0
ARC
  5
5186
  8
10_OUTLINE
 62
     2
 10
9.9999993186770553
 20
88.000000978271942
 30
0.0
 40
10.0
 50
180.0
 51
270.0
  0
LINE
  5
5187
  8
10_OUTLINE
 62
     2
 10
-0.0000006813229447
 20
88.000000978272055
 30
0.0
 11
-0.0000006813229447
 21
98.000000978272297
 31
0.0
  0
LINE
  5
5188
  8
0
 10
172.6476892310921
 20
103.1784015954772
 30
0.0
 11
172.6476892310921
 21
100.7020580808623
 31
0.0
  0
ENDBLK
  5
518C
  8
0
  0
BLOCK
  8
0
  2
*D2
 70
     1
 10
0.0
 20
0.0
 30
0.0
  3
*D2
  1

  0
LINE
  5
5195
  8
50_DIMENSIONS
 62
     7
 10
308.53511000268583
 20
519.53814217898741
 30
0.0
 11
308.53511000268583
 21
627.05122069502579
 31
0.0
  0
LINE
  5
5196
  8
50_DIMENSIONS
 62
     7
 10
557.11917047978204
 20
536.61018946370439
 30
0.0
 11
557.11917047978204
 21
627.05122069502579
 31
0.0
  0
LINE
  5
5197
  8
50_DIMENSIONS
 62
     7
 10
311.53511000268583
 20
626.3012206950259
 30
0.0
 11
423.31554406115202
 21
626.3012206950259
 31
0.0
  0
LINE
  5
5198
  8
50_DIMENSIONS
 62
     7
 10
554.11917047978204
 20
626.3012206950259
 30
0.0
 11
442.33873642131579
 21
626.3012206950259
 31
0.0
  0
SOLID
  5
5199
  8
50_DIMENSIONS
 62
     7
 10
311.53511000268583
 20
626.8012206950259
 30
0.0
 11
311.53511000268583
 21
625.8012206950259
 31
0.0
 12
308.53511000268583
 22
626.3012206950259
 32
0.0
 13
308.53511000268583
 23
626.3012206950259
 33
0.0
  0
SOLID
  5
519A
  8
50_DIMENSIONS
 62
     7
 10
554.11917047978204
 20
626.8012206950259
 30
0.0
 11
554.11917047978204
 21
625.8012206950259
 31
0.0
 12
557.11917047978204
 22
626.3012206950259
 32
0.0
 13
557.11917047978204
 23
626.3012206950259
 33
0.0
  0
INSERT
  5
519B
  8
50_DIMENSIONS
  2
*U4
 10
0.0
 20
0.0
 30
0.0
  0
POINT
  5
519C
  8
DEFPOINTS
 62
     0
 10
308.53511000268583
 20
518.0381421789873
 30
0.0
  0
POINT
  5
519D
  8
DEFPOINTS
 62
     0
 10
557.11917047978204
 20
535.11018946370439
 30
0.0
  0
POINT
  5
519E
  8
DEFPOINTS
 62
     0
 10
557.11917047978204
 20
626.3012206950259
 30
0.0
  0
ENDBLK
  5
51A0
  8
0
  0
BLOCK
  8
0
  2
*D3
 70
     1
 10
0.0
 20
0.0
 30
0.0
  3
*D3
  1

  0
LINE
  5
51A3
  8
50_DIMENSIONS
 62
     7
 10
317.03511000268531
 20
452.70671994998833
 30
0.0
 11
287.55922420598841
 21
452.70671994998833
 31
0.0
  0
LINE
  5
51A4
  8
50_DIMENSIONS
 62
     7
 10
413.61917047978289
 20
610.47558594114923
 30
0.0
 11
287.55922420598841
 21
610.47558594114923
 31
0.0
  0
LINE
  5
51A5
  8
50_DIMENSIONS
 62
     7
 10
288.30922420598841
 20
455.70671994998821
 30
0.0
 11
288.30922420598841
 21
522.26680096739676
 31
0.0
  0
LINE
  5
51A6
  8
50_DIMENSIONS
 62
     7
 10
288.30922420598841
 20
607.47558594114923
 30
0.0
 11
288.30922420598841
 21
540.91550492374063
 31
0.0
  0
SOLID
  5
51A7
  8
50_DIMENSIONS
 62
     7
 10
287.80922420598841
 20
455.70671994998821
 30
0.0
 11
288.8092242059883
 21
455.70671994998821
 31
0.0
 12
288.30922420598841
 22
452.70671994998833
 32
0.0
 13
288.30922420598841
 23
452.70671994998833
 33
0.0
  0
SOLID
  5
51A8
  8
50_DIMENSIONS
 62
     7
 10
287.80922420598841
 20
607.47558594114923
 30
0.0
 11
288.8092242059883
 21
607.47558594114923
 31
0.0
 12
288.30922420598841
 22
610.47558594114923
 32
0.0
 13
288.30922420598841
 23
610.47558594114923
 33
0.0
  0
INSERT
  5
51A9
  8
50_DIMENSIONS
  2
*U5
 10
0.0
 20
0.0
 30
0.0
  0
POINT
  5
51AA
  8
DEFPOINTS
 62
     0
 10
318.53511000268531
 20
452.70671994998833
 30
0.0
  0
POINT
  5
51AB
  8
DEFPOINTS
 62
     0
 10
415.11917047978289
 20
610.47558594114923
 30
0.0
  0
POINT
  5
51AC
  8
DEFPOINTS
 62
     0
 10
288.30922420598841
 20
610.47558594114923
 30
0.0
  0
ENDBLK
  5
51AE
  8
0
  0
BLOCK
  8
0
  2
*U4
 70
     1
 10
0.0
 20
0.0
 30
0.0
  3
*U4
  1

  0
TEXT
  5
51ED
  8
50_DIMENSIONS
 62
     0
 10
423.81997789471268
 20
625.21152083145148
 30
0.0
 40
3.0
  1
249 [9.8"]
  7
MECHTRONICS
  0
ENDBLK
  5
51EF
  8
0
  0
BLOCK
  8
0
  2
*U5
 70
     1
 10
0.0
 20
0.0
 30
0.0
  3
*U5
  1

  0
TEXT
  5
51F1
  8
50_DIMENSIONS
 62
     0
 10
289.39892406956272
 20
522.39674639713769
 30
0.0
 40
3.0
  1
158 [6.2"]
 50
90.0
  7
MECHTRONICS
  0
ENDBLK
  5
51F3
  8
0
  0
BLOCK
  8
0
  2
*U6
 70
     1
 10
0.0
 20
0.0
 30
0.0
  3
*U6
  1

  0
SOLID
  5
51F5
  8
62_TEXT
 10
317.48122698426488
 20
489.47448690295562
 30
0.0
 11
315.006353250112
 21
487.70671994998912
 31
0.0
 12
316.77412020307838
 22
490.18159368414211
 32
0.0
 13
316.77412020307838
 23
490.18159368414211
 33
0.0
  0
POLYLINE
  5
51F6
  8
62_TEXT
 66
     1
 10
0.0
 20
0.0
 30
0.0
  0
VERTEX
  5
51F7
  8
62_TEXT
 10
317.12767359367172
 20
489.82804029354878
 30
0.0
  0
VERTEX
  5
51F8
  8
62_TEXT
 10
322.19285859026621
 20
494.89322529014339
 30
0.0
  0
VERTEX
  5
51F9
  8
62_TEXT
 10
329.68728612997398
 20
494.89322529014339
 30
0.0
  0
SEQEND
  5
51FA
  8
62_TEXT
  0
ENDBLK
  5
51FC
  8
0
  0
BLOCK
  8
0
  2
*U7
 70
     1
 10
0.0
 20
0.0
 30
0.0
  3
*U7
  1

  0
TEXT
  5
51FE
  8
62_TEXT
 10
330.24901873570388
 20
493.39322529014339
 30
0.0
 40
3.0
  1
Engrave bend lines
  7
MECHTRONICS
  0
ENDBLK
  5
5200
  8
0
  0
ENDSEC
  0
SECTION
  2
ENTITIES
  0
LINE
  5
2747
  8
01_FRAME
 62
     4
 10
219.76932931324851
 20
660.09269623448472
 30
0.0
 11
219.76932931324879
 21
370.01309102445259
 31
0.0
  0
LINE
  5
2748
  8
01_FRAME
 62
     4
 10
624.21871842327425
 20
660.09269623448472
 30
0.0
 11
219.76932931324851
 21
660.09269623448472
 31
0.0
  0
LINE
  5
274D
  8
01_FRAME
 62
     4
 10
624.21871842327425
 20
370.01309102445259
 30
0.0
 11
624.21871842327425
 21
660.09269623448472
 31
0.0
  0
LINE
  5
274E
  8
01_FRAME
 62
     4
 10
219.76932931324879
 20
370.01309102445259
 30
0.0
 11
624.21871842327425
 21
370.01309102445259
 31
0.0
  0
LINE
  5
3FC5
  8
01_FRAME
 62
     4
 10
465.85388912653269
 20
401.4836895317369
 30
0.0
 11
510.22406574003179
 21
401.4836895317369
 31
0.0
  0
LINE
  5
3FC6
  8
01_FRAME
 62
     4
 10
465.85381785942309
 20
370.01309102445248
 30
0.0
 11
465.85381785942309
 21
417.30200038591659
 31
0.0
  0
TEXT
  5
3FCF
  8
62_TEXT
 10
597.51689591655145
 20
408.08019397248341
 30
0.0
 40
3.0
  1
06-11-07
  7
MECHTRONICS
  0
TEXT
  5
3FD0
  8
01_FRAME
 62
     8
 10
611.03484070900709
 20
382.70907711572141
 30
0.0
 40
2.0999999999999979
  1
Revision
  7
MECHTRONICS
  0
LINE
  5
3FD2
  8
01_FRAME
 62
     8
 10
510.22406574003179
 20
417.30200038591659
 30
0.0
 11
624.21871842327425
 21
417.30200038591647
 31
0.0
  0
LINE
  5
3FD3
  8
01_FRAME
 62
     8
 10
510.22406574003179
 20
412.03361257315231
 30
0.0
 11
624.21871842327425
 21
412.03361257315231
 31
0.0
  0
LINE
  5
3FD4
  8
01_FRAME
 62
     4
 10
534.61937348237154
 20
385.81827346730819
 30
0.0
 11
624.21864715616448
 21
385.81827346730819
 31
0.0
  0
LINE
  5
3FD5
  8
01_FRAME
 62
     4
 10
465.85388912653298
 20
394.96370288641401
 30
0.0
 11
534.61937348237154
 21
394.96370288641401
 31
0.0
  0
LINE
  5
3FD6
  8
01_FRAME
 62
     8
 10
517.31038878716276
 20
406.76520575582521
 30
0.0
 11
624.21871842327425
 21
406.76520575582521
 31
0.0
  0
TEXT
  5
3FD9
  8
01_FRAME
 62
     8
 10
466.76117163823483
 20
414.14311728405232
 30
0.0
 40
2.0999999999999979
  1
Higher
  7
MECHTRONICS
  0
TEXT
  5
3FDA
  8
01_FRAME
 62
     8
 10
544.76956303960173
 20
403.2940714273376
 30
0.0
 40
2.0999999999999979
  1
Description of change
  7
MECHTRONICS
  0
LINE
  5
3FDB
  8
01_FRAME
 62
     4
 10
534.61937348237143
 20
401.4836895317369
 30
0.0
 11
534.61937348237154
 21
370.01309102445248
 31
0.0
  0
LINE
  5
3FDC
  8
01_FRAME
 62
     4
 10
510.22406574003179
 20
401.4836895317369
 30
0.0
 11
510.22406574003179
 21
417.30200038591659
 31
0.0
  0
LINE
  5
3FDF
  8
01_FRAME
 62
     8
 10
517.31038878716276
 20
401.4836895317369
 30
0.0
 11
517.31038878716276
 21
417.36538437388413
 31
0.0
  0
LINE
  5
3FE0
  8
01_FRAME
 62
     7
 10
510.73822403325511
 20
404.76582684195648
 30
0.0
 11
513.80404905386808
 21
410.07599154477367
 31
0.0
  0
LINE
  5
3FE1
  8
01_FRAME
 62
     7
 10
510.73822403325511
 20
404.76582684195648
 30
0.0
 11
516.86987407448112
 21
404.76582684195648
 31
0.0
  0
LINE
  5
3FE2
  8
01_FRAME
 62
     7
 10
516.86987407448112
 20
404.76582684195648
 30
0.0
 11
513.80404905386808
 21
410.07599154477367
 31
0.0
  0
TEXT
  5
3FE3
  8
01_FRAME
 62
     8
 10
535.78024818036977
 20
396.84751432185311
 30
0.0
 40
2.0999999999999979
  1
Title
  7
MECHTRONICS
  0
LINE
  5
3FE4
  8
01_FRAME
 62
     8
 10
595.50240148403714
 20
385.81827346730819
 30
0.0
 11
595.50240148403714
 21
370.01309102445248
 31
0.0
  0
LINE
  5
3FE6
  8
01_FRAME
 62
     8
 10
609.86052432010058
 20
385.81827346730819
 30
0.0
 11
609.86052432010058
 21
370.01309102445248
 31
0.0
  0
TEXT
  5
3FE7
  8
01_FRAME
 62
     8
 10
596.67671787294353
 20
382.40644901766188
 30
0.0
 40
2.0999999999999979
  1
Process
  7
MECHTRONICS
  0
TEXT
  5
3FE8
  8
01_FRAME
 62
     8
 10
535.60871079937669
 20
382.6861950153185
 30
0.0
 40
2.0999999999999979
  1
Drawing Number
  7
MECHTRONICS
  0
TEXT
  5
3FE9
  8
62_TEXT
 10
544.97954491954363
 20
373.50170463807092
 30
0.0
 40
6.0
  1
10 60 315
  7
MECHTRONICS
  0
TEXT
  5
3FEA
  8
62_TEXT
 10
599.40830712453715
 20
373.50170463807092
 30
0.0
 40
6.0
  1
P
  7
MECHTRONICS
  0
LINE
  5
3FEB
  8
01_FRAME
 62
     8
 10
596.12658817650413
 20
401.4836895317369
 30
0.0
 11
596.12658817650413
 21
417.35223695799749
 31
0.0
  0
TEXT
  5
3FEC
  8
01_FRAME
 62
     8
 10
597.99438168863719
 20
403.29407142733731
 30
0.0
 40
2.0999999999999979
  1
Date (d-m-y)
  7
MECHTRONICS
  0
TEXT
  5
3FED
  8
62_TEXT
 10
613.76642996060104
 20
373.50170463807092
 30
0.0
 40
6.0
  1
A
  7
MECHTRONICS
  0
LINE
  5
3FEE
  8
01_FRAME
 62
     8
 10
616.21419241198214
 20
401.4836895317369
 30
0.0
 11
616.21419241198214
 21
417.35223695799749
 31
0.0
  0
TEXT
  5
3FEF
  8
01_FRAME
 62
     8
 10
617.61955149128335
 20
403.29407142733731
 30
0.0
 40
2.0999999999999979
  1
Rev.
  7
MECHTRONICS
  0
TEXT
  5
3FF2
  8
01_FRAME
 62
     8
 10
485.82388002781312
 20
375.64251745121118
 30
0.0
 40
2.0999999999999979
  1
www.mechmate.com
  7
MECHTRONICS
  0
TEXT
  5
3FF6
  8
62_TEXT
 10
482.62919638084389
 20
412.65021710327909
 30
0.0
 40
3.0
  1
10 60 315 B
  7
MECHTRONICS
  0
TEXT
  5
3FF8
  8
01_FRAME
 62
     8
 10
466.76117163823483
 20
411.10166872577639
 30
0.0
 40
2.0999999999999979
  1
drawing/s:
  7
MECHTRONICS
  0
LINE
  5
3FF9
  8
01_FRAME
 62
     4
 10
465.85381785942309
 20
417.30200038591659
 30
0.0
 11
510.22406574003179
 21
417.30200038591659
 31
0.0
  0
LINE
  5
3FFB
  8
01_FRAME
 62
     4
 10
510.22406574003179
 20
401.4836895317369
 30
0.0
 11
624.21864715616448
 21
401.4836895317369
 31
0.0
  0
TEXT
  5
3FFC
  8
01_FRAME
 62
     8
 10
467.01476382453109
 20
398.37122136441229
 30
0.0
 40
2.0999999999999979
  1
Material:
  7
MECHTRONICS
  0
TEXT
  5
3FFD
  8
62_TEXT
 10
479.61825629664918
 20
396.84299399592322
 30
0.0
 40
3.0
  1
4mm [3/16"] STEEL 300MPa
  7
MECHTRONICS
  0
TEXT
  5
3FFE
  8
01_FRAME
 62
     7
 10
618.46379376035043
 20
408.0094402677741
 30
0.0
 40
3.0
  1
A
  7
MECHTRONICS
  0
TEXT
  5
3FFF
  8
01_FRAME
 62
     7
 10
573.67228756508086
 20
408.08019397248341
 30
0.0
 40
3.0
  1
First issue
  7
MECHTRONICS
  0
TEXT
  5
4339
  8
01_FRAME
 62
     8
 10
510.53067438332948
 20
413.66796660030587
 30
0.0
 40
2.0999999999999979
  1
1:1.5
  7
MECHTRONICS
  0
LINE
  5
4FC0
  8
01_FRAME
 62
     7
 10
507.42797256913389
 20
380.4248895954878
 30
0.0
 11
509.20409547577827
 21
380.4248895954878
 31
0.0
  0
LINE
  5
4FC1
  8
01_FRAME
 62
     7
 10
508.61969373942981
 20
388.01251682565942
 30
0.0
 11
507.42797256913389
 21
380.4248895954878
 31
0.0
  0
LINE
  5
4FC2
  8
01_FRAME
 62
     7
 10
505.95550935459772
 20
382.79854367827971
 30
0.0
 11
508.61969373942981
 21
388.01251682565942
 31
0.0
  0
LINE
  5
4FC3
  8
01_FRAME
 62
     7
 10
510.5161346579294
 20
389.5795894215936
 30
0.0
 11
507.74309115977331
 21
389.5795894215936
 31
0.0
  0
LINE
  5
4FC4
  8
01_FRAME
 62
     7
 10
483.19909781612762
 20
384.15950599677342
 30
0.0
 11
486.98252684638078
 21
384.15950599677342
 31
0.0
  0
LINE
  5
4FC5
  8
01_FRAME
 62
     7
 10
486.63648150885399
 20
382.61417013169398
 30
0.0
 11
483.56821283619081
 21
382.61417013169398
 31
0.0
  0
LINE
  5
4FC6
  8
01_FRAME
 62
     7
 10
482.76077369871848
 20
381.43786966367787
 30
0.0
 11
485.86119947228599
 21
381.43786966367787
 31
0.0
  0
LINE
  5
4FC7
  8
01_FRAME
 62
     7
 10
486.03452957447507
 20
387.55001909583848
 30
0.0
 11
483.79890971129771
 21
387.55001909583848
 31
0.0
  0
LINE
  5
4FC8
  8
01_FRAME
 62
     7
 10
483.35389562069372
 20
385.15128257446253
 30
0.0
 11
485.59076843035689
 21
385.15128257446253
 31
0.0
  0
LINE
  5
4FC9
  8
01_FRAME
 62
     7
 10
485.31630551258729
 20
386.39027379621831
 30
0.0
 11
483.88909830039881
 21
386.39027379621831
 31
0.0
  0
LINE
  5
4FCA
  8
01_FRAME
 62
     7
 10
472.58146770256428
 20
380.4248895954878
 30
0.0
 11
473.6643297098023
 21
388.04708459656371
 31
0.0
  0
LINE
  5
4FCB
  8
01_FRAME
 62
     7
 10
475.00501601395069
 20
389.5795894215936
 30
0.0
 11
472.19186654499879
 21
389.5795894215936
 31
0.0
  0
LINE
  5
4FCC
  8
01_FRAME
 62
     7
 10
472.19186654499879
 20
389.5795894215936
 30
0.0
 11
470.89701563604632
 21
380.4248895954878
 31
0.0
  0
LINE
  5
4FCD
  8
01_FRAME
 62
     7
 10
470.89701563604632
 20
380.4248895954878
 30
0.0
 11
472.58146770256428
 21
380.4248895954878
 31
0.0
  0
LINE
  5
4FCE
  8
01_FRAME
 62
     7
 10
478.92394528720661
 20
388.01251682565942
 30
0.0
 11
477.7322241169112
 21
380.4248895954878
 31
0.0
  0
LINE
  5
4FCF
  8
01_FRAME
 62
     7
 10
479.5083470235553
 20
380.4248895954878
 30
0.0
 11
480.82038620570688
 21
389.5795894215936
 31
0.0
  0
LINE
  5
4FD0
  8
01_FRAME
 62
     7
 10
477.7322241169112
 20
380.4248895954878
 30
0.0
 11
479.5083470235553
 21
380.4248895954878
 31
0.0
  0
LINE
  5
4FD1
  8
01_FRAME
 62
     7
 10
480.82038620570688
 20
389.5795894215936
 30
0.0
 11
478.04734270755
 21
389.5795894215936
 31
0.0
  0
LINE
  5
4FD2
  8
01_FRAME
 62
     7
 10
476.2597609023743
 20
382.79854367827971
 30
0.0
 11
478.92394528720661
 21
388.01251682565942
 31
0.0
  0
LINE
  5
4FD3
  8
01_FRAME
 62
     7
 10
473.6643297098023
 20
388.04708459656371
 30
0.0
 11
474.73000344384212
 21
382.79854367827971
 31
0.0
  0
LINE
  5
4FD4
  8
01_FRAME
 62
     7
 10
475.83578319841098
 20
385.2067655319745
 30
0.0
 11
475.00501601395069
 21
389.5795894215936
 31
0.0
  0
LINE
  5
4FD5
  8
01_FRAME
 62
     7
 10
478.04734270755
 20
389.5795894215936
 30
0.0
 11
475.83578319841098
 21
385.2067655319745
 31
0.0
  0
LINE
  5
4FD6
  8
01_FRAME
 62
     7
 10
474.73000344384212
 20
382.79854367827971
 30
0.0
 11
476.2597609023743
 21
382.79854367827971
 31
0.0
  0
LINE
  5
4FD7
  8
01_FRAME
 62
     7
 10
481.93026492844149
 20
386.18920095415717
 30
0.0
 11
481.44580144595852
 21
383.00627028769912
 31
0.0
  0
LINE
  5
4FD8
  8
01_FRAME
 62
     7
 10
483.05058748946971
 20
382.97167966864782
 30
0.0
 11
483.19909781612762
 21
384.15950599677342
 31
0.0
  0
LINE
  5
4FD9
  8
01_FRAME
 62
     7
 10
483.44995761207417
 20
385.95554002460079
 30
0.0
 11
483.35389562069372
 21
385.15128257446253
 31
0.0
  0
LINE
  5
4FDA
  8
01_FRAME
 62
     7
 10
496.02592525667558
 20
386.18581048646467
 30
0.0
 11
498.19470617765739
 21
386.18581048646467
 31
0.0
  0
LINE
  5
4FDB
  8
01_FRAME
 62
     7
 10
492.76516641502673
 20
381.94529336572288
 30
0.0
 11
492.83437546263912
 21
382.544975954336
 31
0.0
  0
LINE
  5
4FDC
  8
01_FRAME
 62
     7
 10
494.78361389010132
 20
389.9679940956284
 30
0.0
 11
493.71677018037582
 21
381.41098484087041
 31
0.0
  0
LINE
  5
4FDD
  8
01_FRAME
 62
     7
 10
495.35212927136081
 20
381.41098484087041
 30
0.0
 11
496.02592525667558
 21
386.18581048646467
 31
0.0
  0
LINE
  5
4FDE
  8
01_FRAME
 62
     7
 10
486.56727241150878
 20
381.94529336572378
 30
0.0
 11
486.63648150885399
 21
382.61417013169398
 31
0.0
  0
LINE
  5
4FDF
  8
01_FRAME
 62
     7
 10
490.6196852925226
 20
381.43786966367787
 30
0.0
 11
492.05909347580717
 21
381.43786966367787
 31
0.0
  0
LINE
  5
4FE0
  8
01_FRAME
 62
     7
 10
489.42006145244869
 20
381.43786966367787
 30
0.0
 11
490.6196852925226
 21
381.43786966367787
 31
0.0
  0
LINE
  5
4FE1
  8
01_FRAME
 62
     7
 10
493.71677018037582
 20
381.41098484087041
 30
0.0
 11
495.35212927136081
 21
381.41098484087041
 31
0.0
  0
LINE
  5
4FE2
  8
01_FRAME
 62
     7
 10
493.71677018037582
 20
381.41098484087041
 30
0.0
 11
493.71677018037582
 21
381.41098484087041
 31
0.0
  0
LINE
  5
4FE3
  8
01_FRAME
 62
     7
 10
492.74213223470758
 20
387.55001909583871
 30
0.0
 11
490.45819746502872
 21
387.55001909583848
 31
0.0
  0
LINE
  5
4FE4
  8
01_FRAME
 62
     7
 10
490.55047624491101
 20
386.3967833867643
 30
0.0
 11
493.45873702338258
 21
386.3967833867643
 31
0.0
  0
LINE
  5
4FE5
  8
01_FRAME
 62
     7
 10
492.84559154374517
 20
382.61417013169398
 30
0.0
 11
490.6196852925226
 21
382.61417013169398
 31
0.0
  0
LINE
  5
4FE6
  8
01_FRAME
 62
     7
 10
486.98252684638078
 20
384.15950599677342
 30
0.0
 11
487.30669210497882
 21
386.33557482557961
 31
0.0
  0
LINE
  5
4FE7
  8
01_FRAME
 62
     7
 10
486.98252684638078
 20
384.15950599677342
 30
0.0
 11
486.98252684638078
 21
384.15950599677342
 31
0.0
  0
LINE
  5
4FE8
  8
01_FRAME
 62
     7
 10
485.59076843035689
 20
385.15128257446253
 30
0.0
 11
485.71462439508099
 21
386.05140638926258
 31
0.0
  0
LINE
  5
4FE9
  8
01_FRAME
 62
     7
 10
488.58955268217289
 20
386.18920095415717
 30
0.0
 11
488.22043766210822
 21
383.69821171314368
 31
0.0
  0
LINE
  5
4FEA
  8
01_FRAME
 62
     7
 10
489.7090742777134
 20
382.97167966864782
 30
0.0
 11
490.11215212750182
 21
385.95855376260891
 31
0.0
  0
LINE
  5
4FEB
  8
01_FRAME
 62
     7
 10
488.22043766210822
 20
383.69821171314368
 30
0.0
 11
488.10508919968879
 21
383.00627028769912
 31
0.0
  0
LINE
  5
4FEC
  8
01_FRAME
 62
     7
 10
490.6196852925226
 20
382.61417013169398
 30
0.0
 11
490.2266996244345
 21
382.61417013169398
 31
0.0
  0
LINE
  5
4FED
  8
01_FRAME
 62
     7
 10
493.45873702338258
 20
386.3967833867643
 30
0.0
 11
493.52337192103982
 21
386.79552859281807
 31
0.0
  0
LINE
  5
4FEE
  8
01_FRAME
 62
     7
 10
492.83437546263912
 20
382.544975954336
 30
0.0
 11
492.84559154374517
 21
382.61417013169398
 31
0.0
  0
LINE
  5
4FEF
  8
01_FRAME
 62
     7
 10
496.16583922866829
 20
386.90428323570927
 30
0.0
 11
496.5312722456614
 21
389.9679940956284
 31
0.0
  0
LINE
  5
4FF0
  8
01_FRAME
 62
     7
 10
496.5312722456614
 20
389.9679940956284
 30
0.0
 11
494.78361389010132
 21
389.9679940956284
 31
0.0
  0
LINE
  5
4FF1
  8
01_FRAME
 62
     7
 10
499.2966433889128
 20
381.41098484087041
 30
0.0
 11
499.90681084836228
 21
386.23769146582521
 31
0.0
  0
LINE
  5
4FF2
  8
01_FRAME
 62
     7
 10
498.19470617765739
 20
386.18581048646467
 30
0.0
 11
497.59109724513451
 21
381.41098484087041
 31
0.0
  0
LINE
  5
4FF3
  8
01_FRAME
 62
     7
 10
502.27721615478657
 20
380.4248895954878
 30
0.0
 11
503.36007816202448
 21
388.04708459656371
 31
0.0
  0
LINE
  5
4FF4
  8
01_FRAME
 62
     7
 10
501.88761499722108
 20
389.5795894215936
 30
0.0
 11
500.59276408826878
 21
380.4248895954878
 31
0.0
  0
LINE
  5
4FF5
  8
01_FRAME
 62
     7
 10
497.59109724513451
 20
381.41098484087041
 30
0.0
 11
499.2966433889128
 21
381.41098484087041
 31
0.0
  0
LINE
  5
4FF6
  8
01_FRAME
 62
     7
 10
500.59276408826878
 20
380.4248895954878
 30
0.0
 11
502.27721615478657
 21
380.4248895954878
 31
0.0
  0
LINE
  5
4FF7
  8
01_FRAME
 62
     7
 10
504.70076446617338
 20
389.5795894215936
 30
0.0
 11
501.88761499722108
 21
389.5795894215936
 31
0.0
  0
LINE
  5
4FF8
  8
01_FRAME
 62
     7
 10
503.36007816202448
 20
388.04708459656371
 30
0.0
 11
504.42575189606458
 21
382.79854367827971
 31
0.0
  0
LINE
  5
4FF9
  8
01_FRAME
 62
     7
 10
505.53153165063441
 20
385.2067655319745
 30
0.0
 11
504.70076446617338
 21
389.5795894215936
 31
0.0
  0
LINE
  5
4FFA
  8
01_FRAME
 62
     7
 10
507.74309115977331
 20
389.5795894215936
 30
0.0
 11
505.53153165063441
 21
385.2067655319745
 31
0.0
  0
LINE
  5
4FFB
  8
01_FRAME
 62
     7
 10
504.42575189606458
 20
382.79854367827971
 30
0.0
 11
505.95550935459772
 21
382.79854367827971
 31
0.0
  0
LINE
  5
4FFC
  8
01_FRAME
 62
     7
 10
520.84625303158896
 20
389.34575134205261
 30
0.0
 11
519.29140291991973
 21
389.16871169137238
 31
0.0
  0
LINE
  5
4FFD
  8
01_FRAME
 62
     7
 10
519.95814885731863
 20
382.96836409929239
 30
0.0
 11
520.45406832898755
 21
386.46266194503261
 31
0.0
  0
LINE
  5
4FFE
  8
01_FRAME
 62
     7
 10
519.66969887405253
 20
381.43455409432289
 30
0.0
 11
521.27059487968381
 21
381.43455409432289
 31
0.0
  0
LINE
  5
4FFF
  8
01_FRAME
 62
     7
 10
516.32210401422822
 20
381.4587720688308
 30
0.0
 11
516.26192319631468
 21
382.140674476291
 31
0.0
  0
ARC
  5
5000
  8
01_FRAME
 62
     7
 10
517.75611548503093
 20
382.27254336701662
 30
0.0
 40
1.5
 50
171.34562025559259
 51
185.04353146783211
  0
LINE
  5
5001
  8
01_FRAME
 62
     7
 10
509.20409547577827
 20
380.4248895954878
 30
0.0
 11
510.5161346579294
 21
389.5795894215936
 31
0.0
  0
LINE
  5
5002
  8
01_FRAME
 62
     7
 10
512.35411747394267
 20
381.43570730988972
 30
0.0
 11
513.83057760393115
 21
381.43570730988972
 31
0.0
  0
LINE
  5
5003
  8
01_FRAME
 62
     7
 10
514.73029547155295
 20
381.4587720688308
 30
0.0
 11
516.32210401422822
 21
381.4587720688308
 31
0.0
  0
LINE
  5
5004
  8
01_FRAME
 62
     7
 10
519.6696988740523
 20
381.43455409432289
 30
0.0
 11
519.7850473364731
 21
381.43455409432289
 31
0.0
  0
LINE
  5
5005
  8
01_FRAME
 62
     7
 10
515.00713176146769
 20
385.1260617281273
 30
0.0
 11
512.79244159135169
 21
385.1260617281273
 31
0.0
  0
LINE
  5
5006
  8
01_FRAME
 62
     7
 10
511.61588743381498
 20
386.39462103297541
 30
0.0
 11
514.73288318750929
 21
386.39462103297541
 31
0.0
  0
LINE
  5
5007
  8
01_FRAME
 62
     7
 10
515.58827950692546
 20
387.57092150099169
 30
0.0
 11
512.4002568887513
 21
387.57092150099169
 31
0.0
  0
LINE
  5
5008
  8
01_FRAME
 62
     7
 10
511.68509653116013
 20
387.06349779894549
 30
0.0
 11
511.61588743381498
 21
386.39462103297541
 31
0.0
  0
LINE
  5
5009
  8
01_FRAME
 62
     7
 10
512.93077061425015
 20
382.42357191659028
 30
0.0
 11
514.042345441164
 21
382.40183523546892
 31
0.0
  0
LINE
  5
500A
  8
01_FRAME
 62
     7
 10
514.41428341472988
 20
384.06106904178381
 30
0.0
 11
513.23267984369045
 21
384.06106904178381
 31
0.0
  0
LINE
  5
500B
  8
01_FRAME
 62
     7
 10
517.95439965206867
 20
387.59283299463272
 30
0.0
 11
517.75491467638881
 21
386.46266194503261
 31
0.0
  0
LINE
  5
500C
  8
01_FRAME
 62
     7
 10
516.27319446867784
 20
382.49825393225171
 30
0.0
 11
516.86044203742927
 21
386.35647723073367
 31
0.0
  0
LINE
  5
500D
  8
01_FRAME
 62
     7
 10
514.6393023469941
 20
382.98148023113652
 30
0.0
 11
514.77329014630789
 21
383.72220163482802
 31
0.0
  0
LINE
  5
500E
  8
01_FRAME
 62
     7
 10
515.12248017415425
 20
385.95639145855421
 30
0.0
 11
515.00713176146769
 21
385.1260617281273
 31
0.0
  0
LINE
  5
500F
  8
01_FRAME
 62
     7
 10
515.13120207000293
 20
386.05575362601911
 30
0.0
 11
515.12248017415425
 21
385.95639145855421
 31
0.0
  0
LINE
  5
5010
  8
01_FRAME
 62
     7
 10
518.88532946885107
 20
386.46266194503261
 30
0.0
 11
518.35472662129246
 21
383.00295471834357
 31
0.0
  0
LINE
  5
5011
  8
01_FRAME
 62
     7
 10
517.75491467638881
 20
386.46266194503261
 30
0.0
 11
518.88532946885107
 21
386.46266194503261
 31
0.0
  0
LINE
  5
5012
  8
01_FRAME
 62
     7
 10
519.29140291991973
 20
389.16871169137238
 30
0.0
 11
519.04681729634558
 21
387.59283299463272
 31
0.0
  0
LINE
  5
5013
  8
01_FRAME
 62
     7
 10
519.04681729634558
 20
387.59283299463272
 30
0.0
 11
517.95439965206867
 21
387.59283299463272
 31
0.0
  0
LINE
  5
5014
  8
01_FRAME
 62
     7
 10
521.97666781890473
 20
381.94197779636897
 30
0.0
 11
522.04587687166349
 21
382.61085456233849
 31
0.0
  0
LINE
  5
5015
  8
01_FRAME
 62
     7
 10
522.53034035414635
 20
386.46266194503261
 30
0.0
 11
522.66875849910446
 21
387.59283299463272
 31
0.0
  0
LINE
  5
5016
  8
01_FRAME
 62
     7
 10
522.04587687166349
 20
382.61085456233849
 30
0.0
 11
520.47577420404207
 21
382.61085456233849
 31
0.0
  0
LINE
  5
5017
  8
01_FRAME
 62
     7
 10
520.45406832898755
 20
386.46266194503261
 30
0.0
 11
522.53034035414635
 21
386.46266194503261
 31
0.0
  0
LINE
  5
5018
  8
01_FRAME
 62
     7
 10
520.59248647394566
 20
387.59283299463272
 30
0.0
 11
520.84625303158896
 21
389.34575134205261
 31
0.0
  0
LINE
  5
5019
  8
01_FRAME
 62
     7
 10
522.66875849910446
 20
387.59283299463272
 30
0.0
 11
520.59248647394566
 21
387.59283299463272
 31
0.0
  0
ARC
  5
501A
  8
01_FRAME
 62
     7
 10
483.97892422522432
 20
385.87951781384731
 30
0.0
 40
0.5344015852852304
 50
129.97886730759609
 51
171.82154662072941
  0
ARC
  5
501B
  8
01_FRAME
 62
     7
 10
483.90187779346769
 20
385.99024162144582
 30
0.0
 40
0.4002362506024639
 50
91.8297580244042
 51
131.71149876918361
  0
ARC
  5
501C
  8
01_FRAME
 62
     7
 10
490.64030216973669
 20
385.88602740439319
 30
0.0
 40
0.5344015852852304
 50
129.97886730759609
 51
171.82154662072941
  0
ARC
  5
501D
  8
01_FRAME
 62
     7
 10
490.56325573798028
 20
385.99675121199169
 30
0.0
 40
0.4002362506024639
 50
91.8297580244042
 51
131.71149876918361
  0
ARC
  5
501E
  8
01_FRAME
 62
     7
 10
485.33596158804528
 20
385.97981215549902
 30
0.0
 40
0.4109320136036884
 50
41.694258406700641
 51
92.74167022804761
  0
ARC
  5
501F
  8
01_FRAME
 62
     7
 10
485.43028924385658
 20
386.06383807649257
 30
0.0
 40
0.2846067902725082
 50
357.49651121806892
 51
41.694258406701849
  0
ARC
  5
5020
  8
01_FRAME
 62
     7
 10
514.75253926296716
 20
385.984159392256
 30
0.0
 40
0.4109320136036884
 50
41.694258406700641
 51
92.74167022804761
  0
ARC
  5
5021
  8
01_FRAME
 62
     7
 10
514.84686691877835
 20
386.06818531324961
 30
0.0
 40
0.2846067902725082
 50
357.49651121806892
 51
41.694258406701849
  0
ARC
  5
5022
  8
01_FRAME
 62
     7
 10
483.56494867859521
 20
383.36169452725647
 30
0.0
 40
0.7475315222021212
 50
242.05494587004509
 51
270.25018750737581
  0
ARC
  5
5023
  8
01_FRAME
 62
     7
 10
483.35932188156858
 20
382.9740704592607
 30
0.0
 40
0.3087436489135027
 50
180.44368064352511
 51
242.05494587004509
  0
ARC
  5
5024
  8
01_FRAME
 62
     7
 10
490.22343546683908
 20
383.36169452725647
 30
0.0
 40
0.7475315222021212
 50
242.05494587004509
 51
270.25018750737581
  0
ARC
  5
5025
  8
01_FRAME
 62
     7
 10
490.0178086698121
 20
382.9740704592607
 30
0.0
 40
0.3087436489135027
 50
180.44368064352511
 51
242.05494587004509
  0
ARC
  5
5026
  8
01_FRAME
 62
     7
 10
483.39128472655671
 20
385.95711189269082
 30
0.0
 40
1.4793391034300649
 50
116.43431189309101
 51
170.97374799139581
  0
ARC
  5
5027
  8
01_FRAME
 62
     7
 10
483.8803064053626
 20
384.97346362237272
 30
0.0
 40
2.5778408658510652
 50
91.809445418533045
 51
116.43431189309101
  0
ARC
  5
5028
  8
01_FRAME
 62
     7
 10
490.05057248028771
 20
385.95711189269082
 30
0.0
 40
1.4793391034300649
 50
116.43431189309101
 51
170.97374799139581
  0
ARC
  5
5029
  8
01_FRAME
 62
     7
 10
490.53959415909361
 20
384.97346362237272
 30
0.0
 40
2.5778408658510652
 50
91.809445418533045
 51
116.43431189309101
  0
ARC
  5
502A
  8
01_FRAME
 62
     7
 10
485.88564660785369
 20
385.89713584158193
 30
0.0
 40
1.6595750028100089
 50
44.532575507646193
 51
84.852989749604887
  0
ARC
  5
502B
  8
01_FRAME
 62
     7
 10
486.45596576748329
 20
386.45822466108001
 30
0.0
 40
0.8595221250536194
 50
351.79615361498588
 51
44.532575507646193
  0
ARC
  5
502C
  8
01_FRAME
 62
     7
 10
482.78351580582711
 20
382.77066458518169
 30
0.0
 40
1.3329889370217369
 50
213.3781401444177
 51
269.02243001405742
  0
ARC
  5
502D
  8
01_FRAME
 62
     7
 10
482.86583979262417
 20
382.82490219957009
 30
0.0
 40
1.4315737107786779
 50
172.7215570745241
 51
213.3781401444177
  0
ARC
  5
502E
  8
01_FRAME
 62
     7
 10
485.85665576310339
 20
382.2725785750003
 30
0.0
 40
0.8347212779929797
 50
269.68811547985359
 51
309.85159843339238
  0
ARC
  5
502F
  8
01_FRAME
 62
     7
 10
486.0684284074552
 20
382.01886610229678
 30
0.0
 40
0.5042403077373966
 50
309.85159843339238
 51
351.61013221800221
  0
ARC
  5
5030
  8
01_FRAME
 62
     7
 10
489.44280355955738
 20
382.77066458518198
 30
0.0
 40
1.3329889370217369
 50
213.3781401444177
 51
269.02243001405742
  0
ARC
  5
5031
  8
01_FRAME
 62
     7
 10
489.5251275463545
 20
382.82490219957032
 30
0.0
 40
1.4315737107786779
 50
172.7215570745241
 51
213.3781401444177
  0
ARC
  5
5032
  8
01_FRAME
 62
     7
 10
492.05454976662139
 20
382.2725785750003
 30
0.0
 40
0.8347212779929797
 50
269.68811547985359
 51
309.85159843339238
  0
ARC
  5
5033
  8
01_FRAME
 62
     7
 10
492.26632241097332
 20
382.01886610229678
 30
0.0
 40
0.5042403077373966
 50
309.85159843339238
 51
351.61013221800221
  0
ARC
  5
5034
  8
01_FRAME
 62
     7
 10
492.76494072403659
 20
386.76772604481931
 30
0.0
 40
0.7826254818612261
 50
29.01713856845949
 51
91.670039206065866
  0
ARC
  5
5035
  8
01_FRAME
 62
     7
 10
492.9156748589462
 20
386.8513382919578
 30
0.0
 40
0.6102544074360337
 50
354.75278767925619
 51
29.01713856845949
  0
LINE
  5
5036
  8
01_FRAME
 62
     7
 10
524.95516949672765
 20
384.15950599677342
 30
0.0
 11
528.73859852698092
 21
384.15950599677342
 31
0.0
  0
LINE
  5
5037
  8
01_FRAME
 62
     7
 10
528.39255318945413
 20
382.61417013169398
 30
0.0
 11
525.32428451679095
 21
382.61417013169398
 31
0.0
  0
LINE
  5
5038
  8
01_FRAME
 62
     7
 10
524.51684537931862
 20
381.43786966367787
 30
0.0
 11
527.61727115288625
 21
381.43786966367787
 31
0.0
  0
LINE
  5
5039
  8
01_FRAME
 62
     7
 10
527.79060125507522
 20
387.55001909583848
 30
0.0
 11
525.55498139189785
 21
387.55001909583848
 31
0.0
  0
LINE
  5
503A
  8
01_FRAME
 62
     7
 10
525.10996730129375
 20
385.15128257446253
 30
0.0
 11
527.34684011095703
 21
385.15128257446253
 31
0.0
  0
LINE
  5
503B
  8
01_FRAME
 62
     7
 10
527.07237719318755
 20
386.39027379621831
 30
0.0
 11
525.64516998099884
 21
386.39027379621831
 31
0.0
  0
LINE
  5
503C
  8
01_FRAME
 62
     7
 10
523.68633660904163
 20
386.18920095415717
 30
0.0
 11
523.20187312655855
 21
383.00627028769912
 31
0.0
  0
LINE
  5
503D
  8
01_FRAME
 62
     7
 10
524.80665917006968
 20
382.97167966864782
 30
0.0
 11
524.95516949672765
 21
384.15950599677342
 31
0.0
  0
LINE
  5
503E
  8
01_FRAME
 62
     7
 10
525.20602929267432
 20
385.95554002460079
 30
0.0
 11
525.10996730129375
 21
385.15128257446253
 31
0.0
  0
LINE
  5
503F
  8
01_FRAME
 62
     7
 10
528.32334409210887
 20
381.94529336572378
 30
0.0
 11
528.39255318945413
 21
382.61417013169398
 31
0.0
  0
LINE
  5
5040
  8
01_FRAME
 62
     7
 10
528.73859852698092
 20
384.15950599677342
 30
0.0
 11
529.06276378557891
 21
386.33557482557961
 31
0.0
  0
LINE
  5
5041
  8
01_FRAME
 62
     7
 10
528.73859852698092
 20
384.15950599677342
 30
0.0
 11
528.73859852698092
 21
384.15950599677342
 31
0.0
  0
LINE
  5
5042
  8
01_FRAME
 62
     7
 10
527.34684011095703
 20
385.15128257446253
 30
0.0
 11
527.47069607568119
 21
386.05140638926258
 31
0.0
  0
ARC
  5
5043
  8
01_FRAME
 62
     7
 10
525.73499590582435
 20
385.87951781384731
 30
0.0
 40
0.5344015852852304
 50
129.97886730759609
 51
171.82154662072941
  0
ARC
  5
5044
  8
01_FRAME
 62
     7
 10
525.65794947406778
 20
385.99024162144582
 30
0.0
 40
0.4002362506024639
 50
91.8297580244042
 51
131.71149876918361
  0
ARC
  5
5045
  8
01_FRAME
 62
     7
 10
527.09203326864554
 20
385.97981215549902
 30
0.0
 40
0.4109320136036884
 50
41.694258406700641
 51
92.74167022804761
  0
ARC
  5
5046
  8
01_FRAME
 62
     7
 10
527.18636092445684
 20
386.06383807649257
 30
0.0
 40
0.2846067902725082
 50
357.49651121806892
 51
41.694258406701849
  0
ARC
  5
5047
  8
01_FRAME
 62
     7
 10
525.32102035919547
 20
383.36169452725647
 30
0.0
 40
0.7475315222021212
 50
242.05494587004509
 51
270.25018750737581
  0
ARC
  5
5048
  8
01_FRAME
 62
     7
 10
525.11539356216872
 20
382.9740704592607
 30
0.0
 40
0.3087436489135027
 50
180.44368064352511
 51
242.05494587004509
  0
ARC
  5
5049
  8
01_FRAME
 62
     7
 10
525.14735640715685
 20
385.95711189269082
 30
0.0
 40
1.4793391034300649
 50
116.43431189309101
 51
170.97374799139581
  0
ARC
  5
504A
  8
01_FRAME
 62
     7
 10
525.63637808596275
 20
384.97346362237272
 30
0.0
 40
2.5778408658510652
 50
91.809445418533045
 51
116.43431189309101
  0
ARC
  5
504B
  8
01_FRAME
 62
     7
 10
527.64171828845383
 20
385.89713584158193
 30
0.0
 40
1.6595750028100089
 50
44.532575507646193
 51
84.852989749604887
  0
ARC
  5
504C
  8
01_FRAME
 62
     7
 10
528.21203744808338
 20
386.45822466108001
 30
0.0
 40
0.8595221250536194
 50
351.79615361498588
 51
44.532575507646193
  0
ARC
  5
504D
  8
01_FRAME
 62
     7
 10
524.53958748642719
 20
382.77066458518169
 30
0.0
 40
1.3329889370217369
 50
213.3781401444177
 51
269.02243001405742
  0
ARC
  5
504E
  8
01_FRAME
 62
     7
 10
524.62191147322437
 20
382.82490219957009
 30
0.0
 40
1.4315737107786779
 50
172.7215570745241
 51
213.3781401444177
  0
ARC
  5
504F
  8
01_FRAME
 62
     7
 10
527.61272744370353
 20
382.2725785750003
 30
0.0
 40
0.8347212779929797
 50
269.68811547985359
 51
309.85159843339238
  0
ARC
  5
5050
  8
01_FRAME
 62
     7
 10
527.8245000880554
 20
382.01886610229678
 30
0.0
 40
0.5042403077373966
 50
309.85159843339238
 51
351.61013221800221
  0
LINE
  5
5051
  8
01_FRAME
 62
     7
 10
497.92050263914672
 20
387.55001909583871
 30
0.0
 11
498.87719411374297
 21
387.55001909583871
 31
0.0
  0
ARC
  5
5052
  8
01_FRAME
 62
     7
 10
498.59831791912069
 20
386.32546723778052
 30
0.0
 40
1.311433693336219
 50
356.1622582756836
 51
57.030568872283979
  0
ARC
  5
5053
  8
01_FRAME
 62
     7
 10
498.8914681252931
 20
386.77740666861388
 30
0.0
 40
0.7727442721287569
 50
57.030568872283979
 51
91.058418890038453
  0
ARC
  5
5054
  8
01_FRAME
 62
     7
 10
498.03631818598149
 20
384.1197029959925
 30
0.0
 40
3.4322706457608949
 50
91.933705877954836
 51
118.1284095954894
  0
ARC
  5
5055
  8
01_FRAME
 62
     7
 10
496.72272571825943
 20
386.5769099117428
 30
0.0
 40
0.6459844081199181
 50
118.1284095954894
 51
149.55027737968859
  0
ARC
  5
5056
  8
01_FRAME
 62
     7
 10
521.26605117049905
 20
382.2692630056452
 30
0.0
 40
0.8347212779929797
 50
269.68811547985359
 51
309.85159843339238
  0
ARC
  5
5057
  8
01_FRAME
 62
     7
 10
521.47782381485104
 20
382.0155505329418
 30
0.0
 40
0.5042403077373966
 50
309.85159843339238
 51
351.61013221800221
  0
ARC
  5
5058
  8
01_FRAME
 62
     7
 10
519.69244098116121
 20
382.76734901582671
 30
0.0
 40
1.3329889370217369
 50
213.3781401444177
 51
269.02243001405742
  0
ARC
  5
5059
  8
01_FRAME
 62
     7
 10
519.77476496795828
 20
382.82158663021499
 30
0.0
 40
1.4315737107786779
 50
172.7215570745241
 51
213.3781401444177
  0
ARC
  5
505A
  8
01_FRAME
 62
     7
 10
520.47251004644443
 20
383.35837895790092
 30
0.0
 40
0.7475315222021212
 50
242.05494587004509
 51
270.25018750737581
  0
ARC
  5
505B
  8
01_FRAME
 62
     7
 10
520.26688324941745
 20
382.97075488990498
 30
0.0
 40
0.3087436489135027
 50
180.44368064352511
 51
242.05494587004509
  0
ARC
  5
505C
  8
01_FRAME
 62
     7
 10
515.43939654030407
 20
385.91803824673508
 30
0.0
 40
1.6595750028100089
 50
44.532575507646193
 51
84.852989749604887
  0
ARC
  5
505D
  8
01_FRAME
 62
     7
 10
516.00971569993385
 20
386.4791270662331
 30
0.0
 40
0.8595221250536194
 50
351.79615361498588
 51
44.532575507646193
  0
ARC
  5
505E
  8
01_FRAME
 62
     7
 10
512.39826534763188
 20
386.74239676752018
 30
0.0
 40
0.8285271270211193
 50
89.862277278532488
 51
130.98420927743871
  0
ARC
  5
505F
  8
01_FRAME
 62
     7
 10
512.19125552926471
 20
386.98066691604498
 30
0.0
 40
0.5128916908317671
 50
130.98420927743871
 51
170.70615505545081
  0
ARC
  5
5060
  8
01_FRAME
 62
     7
 10
516.14699780596459
 20
382.20020799484138
 30
0.0
 40
1.5989911621726169
 50
189.2518512240423
 51
207.62546243340469
  0
ARC
  5
5061
  8
01_FRAME
 62
     7
 10
513.63937806320939
 20
382.50459789832848
 30
0.0
 40
1.0858565072906701
 50
280.14161684222302
 51
328.86389698782398
  0
ARC
  5
5062
  8
01_FRAME
 62
     7
 10
512.83261823914506
 20
383.2260805576733
 30
0.0
 40
1.90040590693345
 50
91.211385343635285
 51
150.30133372258419
  0
ARC
  5
5063
  8
01_FRAME
 62
     7
 10
513.61109199997088
 20
382.78207098049472
 30
0.0
 40
2.7966011428728081
 50
150.30133372258419
 51
172.8407731250214
  0
ARC
  5
5064
  8
01_FRAME
 62
     7
 10
512.57221047955909
 20
382.91256121180533
 30
0.0
 40
1.7495564857925161
 50
172.84077312502299
 51
205.6306489595656
  0
ARC
  5
5065
  8
01_FRAME
 62
     7
 10
511.85352135659821
 20
382.56775026171368
 30
0.0
 40
0.9524312467206119
 50
205.6306489595656
 51
237.51101652277629
  0
ARC
  5
5066
  8
01_FRAME
 62
     7
 10
512.4834885128771
 20
383.55702031991427
 30
0.0
 40
2.1252542794251319
 50
237.51101652277629
 51
266.51006466087739
  0
ARC
  5
5067
  8
01_FRAME
 62
     7
 10
514.39462733927212
 20
383.65060740106441
 30
0.0
 40
0.4109320136036884
 50
41.694258406700641
 51
92.74167022804761
  0
ARC
  5
5068
  8
01_FRAME
 62
     7
 10
514.48895499508353
 20
383.73463332205802
 30
0.0
 40
0.2846067902725082
 50
357.49651121806892
 51
41.694258406701849
  0
ARC
  5
5069
  8
01_FRAME
 62
     7
 10
513.92725281160858
 20
383.09281971213738
 30
0.0
 40
0.7005040045388079
 50
279.45655767728761
 51
324.92940398282752
  0
ARC
  5
506A
  8
01_FRAME
 62
     7
 10
513.70873549189207
 20
383.24622878270992
 30
0.0
 40
0.9674949443663242
 50
324.92940398282752
 51
344.11881738719762
  0
ARC
  5
506B
  8
01_FRAME
 62
     7
 10
513.22392736534357
 20
383.28320059852649
 30
0.0
 40
0.7779176825942626
 50
89.3553422660856
 51
126.2501753015424
  0
ARC
  5
506C
  8
01_FRAME
 62
     7
 10
513.0971808202097
 20
383.46504624408402
 30
0.0
 40
0.5563481803435562
 50
126.7974170349532
 51
163.58374767657671
  0
ARC
  5
506D
  8
01_FRAME
 62
     7
 10
507.04872890128257
 20
385.03923635008692
 30
0.0
 40
5.693910184094757
 50
343.74206189480913
 51
345.59022698624977
  0
ARC
  5
506E
  8
01_FRAME
 62
     7
 10
514.12526490307778
 20
383.00728895672802
 30
0.0
 40
1.66878904183912
 50
164.78824619770899
 51
186.82014585811399
  0
ARC
  5
506F
  8
01_FRAME
 62
     7
 10
512.85602656965841
 20
382.84420652481072
 30
0.0
 40
0.3893267324102671
 50
185.1712957963212
 51
236.50138254922089
  0
ARC
  5
5070
  8
01_FRAME
 62
     7
 10
512.96302110455395
 20
383.00586610898102
 30
0.0
 40
0.583186608742703
 50
236.5013825492218
 51
266.829899612524
  0
LINE
  5
50F2
  8
10_OUTLINE
 62
     2
 10
440.11917047978312
 20
545.14225260781166
 30
0.0
 11
418.53511000268628
 21
545.14225260781166
 31
0.0
  0
LINE
  5
50F3
  8
10_OUTLINE
 62
     2
 10
445.11917047978318
 20
550.14225260781166
 30
0.0
 11
445.11917047978318
 21
553.14225260781234
 31
0.0
  0
ARC
  5
50F4
  8
10_OUTLINE
 62
     2
 10
447.11917047978301
 20
553.14225260781234
 30
0.0
 40
1.9999999999999369
 50
0.0
 51
180.0
  0
LINE
  5
50F5
  8
10_OUTLINE
 62
     2
 10
445.11917047978318
 20
570.80891927447954
 30
0.0
 11
445.11917047978318
 21
573.80891927448044
 31
0.0
  0
ARC
  5
50F6
  8
10_OUTLINE
 62
     2
 10
447.11917047978318
 20
570.80891927447954
 30
0.0
 40
2.0
 50
180.0
 51
0.0
  0
LINE
  5
50F7
  8
10_OUTLINE
 62
     2
 10
445.11917047978318
 20
581.80891927448044
 30
0.0
 11
445.11917047978318
 21
605.47558594114923
 31
0.0
  0
ARC
  5
50F8
  8
10_OUTLINE
 62
     2
 10
440.11917047978301
 20
550.14225260781245
 30
0.0
 40
5.0
 50
270.0
 51
0.0
  0
LINE
  5
50F9
  8
10_OUTLINE
 62
     2
 10
440.11917047978312
 20
610.47558594114923
 30
0.0
 11
415.11917047978289
 21
610.47558594114923
 31
0.0
  0
ARC
  5
50FA
  8
10_OUTLINE
 62
     2
 10
440.11917047978301
 20
605.47558594115014
 30
0.0
 40
5.0
 50
0.0
 51
90.0
  0
CIRCLE
  5
50FB
  8
10_OUTLINE
 62
     2
 10
430.11917047978318
 20
591.05891927448044
 30
0.0
 40
3.2000000000000002
  0
CIRCLE
  5
50FC
  8
10_OUTLINE
 62
     2
 10
430.11917047978318
 20
564.55891927448044
 30
0.0
 40
3.2000000000000002
  0
LINE
  5
50FD
  8
10_OUTLINE
 62
     2
 10
354.57547873440291
 20
575.10158059296771
 30
0.0
 11
335.67406865219959
 21
541.5663892241995
 31
0.0
  0
ARC
  5
50FE
  8
10_OUTLINE
 62
     2
 10
300.82787217422492
 20
561.20671994998906
 30
0.0
 40
40.0
 50
286.40248496755498
 51
330.5931263212571
  0
ARC
  5
50FF
  8
10_OUTLINE
 62
     2
 10
313.53511000268583
 20
518.03814217898832
 30
0.0
 40
5.0
 50
106.402484967555
 51
180.0
  0
ARC
  5
5100
  8
10_OUTLINE
 62
     2
 10
415.11917047978289
 20
540.97739346708966
 30
0.0
 40
69.498192474059579
 50
90.0
 51
150.59312632125699
  0
LINE
  5
5101
  8
10_OUTLINE
 62
     2
 10
308.53511000268531
 20
462.70671994998821
 30
0.0
 11
308.53511000268583
 21
518.0381421789873
 31
0.0
  0
LINE
  5
5102
  8
10_OUTLINE
 62
     2
 10
388.5351100026856
 20
462.70671994998912
 30
0.0
 11
388.53511000268622
 21
499.70671994998912
 31
0.0
  0
LINE
  5
5104
  8
10_OUTLINE
 62
     2
 10
378.53511000268531
 20
452.70671994998997
 30
0.0
 11
318.53511000268549
 21
452.70671994998912
 31
0.0
  0
CIRCLE
  5
5105
  8
10_OUTLINE
 62
     2
 10
318.53511000268531
 20
462.70671994998821
 30
0.0
 40
3.2000000000000002
  0
ARC
  5
5106
  8
10_OUTLINE
 62
     2
 10
318.53511000268531
 20
462.70671994998821
 30
0.0
 40
10.0
 50
180.0
 51
270.0
  0
CIRCLE
  5
5107
  8
10_OUTLINE
 62
     2
 10
378.5351100026856
 20
462.70671994998821
 30
0.0
 40
3.2000000000000002
  0
ARC
  5
5108
  8
10_OUTLINE
 62
     2
 10
378.53511000268543
 20
462.70671994998912
 30
0.0
 40
10.0
 50
270.0
 51
0.0
  0
ARC
  5
5109
  8
10_OUTLINE
 62
     2
 10
418.53511000268628
 20
533.14225260781166
 30
0.0
 40
12.0
 50
90.0
 51
151.70422396112221
  0
ARC
  5
510A
  8
10_OUTLINE
 62
     2
 10
400.535110002686
 20
499.70671994998912
 30
0.0
 40
12.0
 50
151.70422396112221
 51
180.0
  0
LINE
  5
510B
  8
10_OUTLINE
 62
     2
 10
389.96896238035328
 20
505.3949995161741
 30
0.0
 11
407.96896238035362
 21
538.83053217399663
 31
0.0
  0
CIRCLE
  5
510C
  8
10_OUTLINE
 62
     2
 10
368.4647403141874
 20
501.8939535005232
 30
0.0
 40
3.5
  0
CIRCLE
  5
510D
  8
10_OUTLINE
 62
     2
 10
359.79058251391263
 20
522.83522290411236
 30
0.0
 40
3.5
  0
CIRCLE
  5
510E
  8
10_OUTLINE
 62
     2
 10
351.11642471363689
 20
543.77649230770135
 30
0.0
 40
3.5
  0
CIRCLE
  5
510F
  8
10_OUTLINE
 62
     2
 10
395.83723751497962
 20
541.46716246373978
 30
0.0
 40
3.5
  0
CIRCLE
  5
5110
  8
10_OUTLINE
 62
     2
 10
387.16307971470439
 20
562.40843186733071
 30
0.0
 40
3.5
  0
CIRCLE
  5
5111
  8
10_OUTLINE
 62
     2
 10
378.48892191442911
 20
583.34970127091788
 30
0.0
 40
3.5
  0
LINE
  5
5112
  8
10_OUTLINE
 62
     2
 10
445.11917047978318
 20
573.80891927448044
 30
0.0
 11
442.11917047978312
 21
573.80891927448044
 31
0.0
  0
LINE
  5
5113
  8
10_OUTLINE
 62
     2
 10
445.11917047978318
 20
581.80891927448044
 30
0.0
 11
442.11917047978312
 21
581.80891927448044
 31
0.0
  0
LINE
  5
5114
  8
10_OUTLINE
 62
     2
 10
442.11917047978312
 20
573.80891927448044
 30
0.0
 11
442.11917047978312
 21
581.80891927448044
 31
0.0
  0
LINE
  5
5116
  8
10_OUTLINE
 62
     2
 10
513.11917047978238
 20
573.80891927448135
 30
0.0
 11
483.11917047978278
 21
573.80891927447954
 31
0.0
  0
LINE
  5
5117
  8
10_OUTLINE
 62
     2
 10
483.11917047978238
 20
462.70671994998821
 30
0.0
 11
483.1191704797821
 21
553.14225260781245
 31
0.0
  0
ARC
  5
5118
  8
10_OUTLINE
 62
     2
 10
481.11917047978272
 20
553.14225260781245
 30
0.0
 40
1.999999999999601
 50
0.0
 51
180.0
  0
LINE
  5
5119
  8
10_OUTLINE
 62
     2
 10
483.11917047978278
 20
570.80891927447954
 30
0.0
 11
483.11917047978278
 21
573.80891927447954
 31
0.0
  0
CIRCLE
  5
511A
  8
10_OUTLINE
 62
     2
 10
498.11917047978272
 20
462.70671994998821
 30
0.0
 40
3.2000000000000002
  0
ARC
  5
511B
  8
10_OUTLINE
 62
     2
 10
493.11917047978238
 20
462.70671994998821
 30
0.0
 40
10.0
 50
180.0
 51
270.0
  0
LINE
  5
511C
  8
10_OUTLINE
 62
     2
 10
513.11917047978284
 20
462.70671994998821
 30
0.0
 11
513.11917047978261
 21
553.14225260781245
 31
0.0
  0
LINE
  5
511D
  8
10_OUTLINE
 62
     2
 10
513.11917047978261
 20
570.80891927447942
 30
0.0
 11
513.11917047978238
 21
573.80891927448135
 31
0.0
  0
ARC
  5
511E
  8
10_OUTLINE
 62
     2
 10
515.11917047978272
 20
570.80891927447954
 30
0.0
 40
1.9999999999999709
 50
180.0
 51
0.0
  0
ARC
  5
511F
  8
10_OUTLINE
 62
     2
 10
503.11917047978278
 20
462.70671994998821
 30
0.0
 40
10.0
 50
270.0
 51
0.0
  0
LINE
  5
5120
  8
10_OUTLINE
 62
     2
 10
503.11917047978261
 20
452.70671994998833
 30
0.0
 11
493.11917047978238
 21
452.70671994998833
 31
0.0
  0
LINE
  5
5122
  8
10_OUTLINE
 62
     2
 10
527.1191704797825
 20
573.80891927448135
 30
0.0
 11
517.11917047978238
 21
573.80891927447954
 31
0.0
  0
LINE
  5
5123
  8
10_OUTLINE
 62
     2
 10
517.11917047978204
 20
462.70671994998821
 30
0.0
 11
517.11917047978181
 21
553.14225260781245
 31
0.0
  0
ARC
  5
5124
  8
10_OUTLINE
 62
     2
 10
515.11917047978216
 20
553.14225260781245
 30
0.0
 40
1.999999999999601
 50
0.0
 51
180.0
  0
LINE
  5
5125
  8
10_OUTLINE
 62
     2
 10
517.11917047978261
 20
570.80891927447954
 30
0.0
 11
517.11917047978238
 21
573.80891927447954
 31
0.0
  0
CIRCLE
  5
5126
  8
10_OUTLINE
 62
     2
 10
527.11917047978216
 20
462.70671994998821
 30
0.0
 40
3.2000000000000002
  0
ARC
  5
5127
  8
10_OUTLINE
 62
     2
 10
527.11917047978204
 20
462.70671994998821
 30
0.0
 40
10.0
 50
180.0
 51
270.0
  0
LINE
  5
5128
  8
10_OUTLINE
 62
     2
 10
557.1191704797825
 20
462.70671994998821
 30
0.0
 11
557.11917047978204
 21
535.11018946370439
 31
0.0
  0
ARC
  5
5129
  8
10_OUTLINE
 62
     2
 10
547.11917047978238
 20
462.70671994998821
 30
0.0
 40
10.0
 50
270.0
 51
0.0
  0
LINE
  5
512A
  8
10_OUTLINE
 62
     2
 10
547.11917047978227
 20
452.70671994998833
 30
0.0
 11
527.11917047978216
 21
452.70671994998833
 31
0.0
  0
LINE
  5
512B
  8
10_OUTLINE
 62
     2
 10
527.1191704797825
 20
573.80891927448135
 30
0.0
 11
527.11917047978227
 21
581.80891927448044
 31
0.0
  0
CIRCLE
  5
512C
  8
10_OUTLINE
 62
     2
 10
547.11917047978216
 20
462.70671994998821
 30
0.0
 40
3.2000000000000002
  0
LINE
  5
512D
  8
10_OUTLINE
 62
     2
 10
527.11917047978227
 20
581.80891927448044
 30
0.0
 11
532.11917047978238
 21
581.80891927448044
 31
0.0
  0
ARC
  5
512E
  8
10_OUTLINE
 62
     2
 10
532.1191704797825
 20
571.80891927448044
 30
0.0
 40
10.0
 50
29.999999999993261
 51
90.0
  0
LINE
  5
512F
  8
10_OUTLINE
 62
     2
 10
540.77942451762681
 20
576.80891927448135
 30
0.0
 11
550.42044066900394
 21
560.11018946370439
 31
0.0
  0
ARC
  5
5130
  8
10_OUTLINE
 62
     2
 10
507.11917047978199
 20
535.11018946370439
 30
0.0
 40
50.0
 50
0.0
 51
29.999999999993261
  0
LINE
  5
5132
  8
10_OUTLINE
 62
     2
 10
479.11917047978278
 20
573.80891927448135
 30
0.0
 11
449.11917047978318
 21
573.80891927447954
 31
0.0
  0
LINE
  5
5133
  8
10_OUTLINE
 62
     2
 10
449.11917047978261
 20
462.70671994998821
 30
0.0
 11
449.11917047978301
 21
553.14225260781234
 31
0.0
  0
LINE
  5
5134
  8
10_OUTLINE
 62
     2
 10
449.11917047978318
 20
570.80891927447954
 30
0.0
 11
449.11917047978318
 21
573.80891927447954
 31
0.0
  0
CIRCLE
  5
5135
  8
10_OUTLINE
 62
     2
 10
464.11917047978289
 20
462.70671994998821
 30
0.0
 40
3.2000000000000002
  0
ARC
  5
5136
  8
10_OUTLINE
 62
     2
 10
459.11917047978278
 20
462.70671994998821
 30
0.0
 40
10.0
 50
180.0
 51
270.0
  0
LINE
  5
5137
  8
10_OUTLINE
 62
     2
 10
479.11917047978318
 20
462.70671994998821
 30
0.0
 11
479.11917047978289
 21
553.14225260781245
 31
0.0
  0
LINE
  5
5138
  8
10_OUTLINE
 62
     2
 10
479.11917047978289
 20
570.80891927447942
 30
0.0
 11
479.11917047978278
 21
573.80891927448135
 31
0.0
  0
ARC
  5
5139
  8
10_OUTLINE
 62
     2
 10
481.11917047978289
 20
570.80891927447954
 30
0.0
 40
1.9999999999999709
 50
180.0
 51
0.0
  0
ARC
  5
513A
  8
10_OUTLINE
 62
     2
 10
469.11917047978318
 20
462.70671994998821
 30
0.0
 40
10.0
 50
270.0
 51
0.0
  0
LINE
  5
513B
  8
10_OUTLINE
 62
     2
 10
469.11917047978301
 20
452.70671994998833
 30
0.0
 11
459.11917047978278
 21
452.70671994998833
 31
0.0
  0
DIMENSION
  5
5193
  8
50_DIMENSIONS
  2
*D2
 10
557.11917047978204
 20
626.3012206950259
 30
0.0
 11
432.82714024123379
 21
626.3012206950259
 31
0.0
 70
     0
 13
308.53511000268583
 23
518.0381421789873
 33
0.0
 14
557.11917047978204
 24
535.11018946370439
 34
0.0
  0
DIMENSION
  5
51A1
  8
50_DIMENSIONS
  2
*D3
 10
288.30922420598841
 20
610.47558594114923
 30
0.0
 11
288.3092242059883
 21
531.59115294556875
 31
0.0
 70
     0
 13
318.53511000268531
 23
452.70671994998833
 33
0.0
 14
415.11917047978289
 24
610.47558594114923
 34
0.0
 50
90.0
  0
LINE
  5
51BA
  8
0
 10
308.53511000268549
 20
487.70671994998912
 30
0.0
 11
321.4775964975384
 21
487.70671994998912
 31
0.0
  0
LINE
  5
51BB
  8
0
 10
544.17668398492935
 20
487.70671994998912
 30
0.0
 11
557.11917047978238
 21
487.70671994998912
 31
0.0
  0
INSERT
  5
51BC
  8
50_DIMENSIONS
  2
*U6
 10
0.0
 20
0.0
 30
0.0
1001
ACAD
1000
DSTYLE
1002
{
1070
   147
1040
0.5
1070
    77
1070
     0
1002
}
  0
INSERT
  5
51BD
  8
50_DIMENSIONS
  2
*U7
 10
0.0
 20
0.0
 30
0.0
  0
TEXT
  5
51C8
  8
62_TEXT
 10
542.21586397642784
 20
391.49928994801252
 30
0.0
 40
3.0
  1
Y-CABLE CHAIN SHELF - PROFILE CUT
  7
MECHTRONICS
 72
     1
 11
581.53612318515911
 21
391.49928994801252
 31
0.0
  0
ENDSEC
  0
EOF
