  0
SECTION
  2
HEADER
  9
$ACADVER
  1
AC1009
  9
$INSBASE
 10
0.0
 20
0.0
 30
0.0
  9
$EXTMIN
 10
675.96588719045303
 20
397.23419815937018
 30
0.0
  9
$EXTMAX
 10
1080.415276300479
 20
687.31380336940254
 30
0.0
  9
$LIMMIN
 10
0.0
 20
0.0
  9
$LIMMAX
 10
0.0
 20
0.0
  9
$ORTHOMODE
 70
     0
  9
$REGENMODE
 70
     1
  9
$FILLMODE
 70
     1
  9
$QTEXTMODE
 70
     0
  9
$MIRRTEXT
 70
     1
  9
$DRAGMODE
 70
     2
  9
$LTSCALE
 40
10.0
  9
$OSMODE
 70
    47
  9
$ATTMODE
 70
     1
  9
$TEXTSIZE
 40
2.0
  9
$TRACEWID
 40
0.05
  9
$TEXTSTYLE
  7
MECHTRONICS
  9
$CLAYER
  8
62_TEXT0
  9
$CELTYPE
  6
BYLAYER
  9
$CECOLOR
 62
   256
  9
$DIMSCALE
 40
1.5
  9
$DIMASZ
 40
2.0
  9
$DIMEXO
 40
1.0
  9
$DIMDLI
 40
6.0
  9
$DIMRND
 40
0.0
  9
$DIMDLE
 40
0.0
  9
$DIMEXE
 40
0.5
  9
$DIMTP
 40
0.0
  9
$DIMTM
 40
0.0
  9
$DIMTXT
 40
2.0
  9
$DIMCEN
 40
0.09
  9
$DIMTSZ
 40
0.0
  9
$DIMTOL
 70
     0
  9
$DIMLIM
 70
     0
  9
$DIMTIH
 70
     0
  9
$DIMTOH
 70
     1
  9
$DIMSE1
 70
     0
  9
$DIMSE2
 70
     0
  9
$DIMTAD
 70
     0
  9
$DIMZIN
 70
     0
  9
$DIMBLK
  1

  9
$DIMASO
 70
     1
  9
$DIMSHO
 70
     1
  9
$DIMPOST
  1

  9
$DIMAPOST
  1
"
  9
$DIMALT
 70
     1
  9
$DIMALTD
 70
     1
  9
$DIMALTF
 40
0.03937
  9
$DIMLFAC
 40
1.0
  9
$DIMTOFL
 70
     0
  9
$DIMTVP
 40
0.0
  9
$DIMTIX
 70
     0
  9
$DIMSOXD
 70
     0
  9
$DIMSAH
 70
     0
  9
$DIMBLK1
  1

  9
$DIMBLK2
  1

  9
$DIMSTYLE
  2
MECHTRONICS
  9
$DIMCLRD
 70
     7
  9
$DIMCLRE
 70
     7
  9
$DIMCLRT
 70
     0
  9
$DIMTFAC
 40
1.0
  9
$DIMGAP
 40
0.5
  9
$LUNITS
 70
     2
  9
$LUPREC
 70
    10
  9
$SKETCHINC
 40
0.1
  9
$FILLETRAD
 40
0.0
  9
$AUNITS
 70
     0
  9
$AUPREC
 70
     0
  9
$MENU
  1
acad
  9
$ELEVATION
 40
0.0
  9
$PELEVATION
 40
0.0
  9
$THICKNESS
 40
0.0
  9
$LIMCHECK
 70
     0
  9
$BLIPMODE
 70
     0
  9
$CHAMFERA
 40
0.0
  9
$CHAMFERB
 40
0.0
  9
$SKPOLY
 70
     0
  9
$TDCREATE
 40
2444972.083333333
  9
$TDUPDATE
 40
2454646.8312935759
  9
$TDINDWG
 40
1.3275256481
  9
$TDUSRTIMER
 40
1.3275249306000001
  9
$USRTIMER
 70
     1
  9
$ANGBASE
 50
0.0
  9
$ANGDIR
 70
     0
  9
$PDMODE
 70
     0
  9
$PDSIZE
 40
0.0
  9
$PLINEWID
 40
0.0
  9
$COORDS
 70
     1
  9
$SPLFRAME
 70
     0
  9
$SPLINETYPE
 70
     6
  9
$SPLINESEGS
 70
     8
  9
$ATTDIA
 70
     0
  9
$ATTREQ
 70
     1
  9
$HANDLING
 70
     1
  9
$HANDSEED
  5
54E0
  9
$SURFTAB1
 70
     6
  9
$SURFTAB2
 70
     6
  9
$SURFTYPE
 70
     6
  9
$SURFU
 70
     6
  9
$SURFV
 70
     6
  9
$UCSNAME
  2

  9
$UCSORG
 10
0.0
 20
0.0
 30
0.0
  9
$UCSXDIR
 10
1.0
 20
0.0
 30
0.0
  9
$UCSYDIR
 10
0.0
 20
1.0
 30
0.0
  9
$PUCSNAME
  2

  9
$PUCSORG
 10
0.0
 20
0.0
 30
0.0
  9
$PUCSXDIR
 10
1.0
 20
0.0
 30
0.0
  9
$PUCSYDIR
 10
0.0
 20
1.0
 30
0.0
  9
$USERI1
 70
     0
  9
$USERI2
 70
     0
  9
$USERI3
 70
     0
  9
$USERI4
 70
     0
  9
$USERI5
 70
     0
  9
$USERR1
 40
0.0
  9
$USERR2
 40
0.0
  9
$USERR3
 40
0.0
  9
$USERR4
 40
0.0
  9
$USERR5
 40
0.0
  9
$WORLDVIEW
 70
     1
  9
$SHADEDGE
 70
     3
  9
$SHADEDIF
 70
    70
  9
$TILEMODE
 70
     1
  9
$MAXACTVP
 70
    16
  9
$PLIMCHECK
 70
     0
  9
$PEXTMIN
 10
1.0887500995726069
 20
0.7937499998122686
 30
0.0
  9
$PEXTMAX
 10
21.184573317709511
 20
7.1437499983104198
 30
0.0
  9
$PLIMMIN
 10
0.0
 20
0.0
  9
$PLIMMAX
 10
12.0
 20
9.0
  9
$UNITMODE
 70
     0
  9
$VISRETAIN
 70
     0
  9
$PLINEGEN
 70
     1
  9
$PSLTSCALE
 70
     0
  0
ENDSEC
  0
SECTION
  2
TABLES
  0
TABLE
  2
VPORT
 70
     2
  0
VPORT
  2
*ACTIVE
 70
     0
 10
0.0
 20
0.0
 11
1.0
 21
1.0
 12
878.18490101896953
 22
542.25621384980934
 13
0.0
 23
0.0
 14
1.0
 24
1.0
 15
0.0
 25
0.0
 16
0.0
 26
0.0
 36
1.0
 17
0.0
 27
0.0
 37
0.0
 40
293.33397699964831
 41
1.7423423423423421
 42
50.0
 43
0.0
 44
0.0
 50
0.0
 51
0.0
 71
     0
 72
   100
 73
     1
 74
     0
 75
     0
 76
     0
 77
     0
 78
     0
  0
ENDTAB
  0
TABLE
  2
LTYPE
 70
     4
  0
LTYPE
  2
CONTINUOUS
 70
     0
  3
Solid line
 72
    65
 73
     0
 40
0.0
  0
LTYPE
  2
CENTER
 70
     0
  3
___ _ ___ _ ___ _ ___ _ ___ _ ___ _ ___ _ ___ _
 72
    65
 73
     4
 40
0.95
 49
0.625
 49
-0.125
 49
0.075
 49
-0.125
  0
LTYPE
  2
HIDDEN
 70
     0
  3
Hidden __ __ __ __ __ __ __ __ __ __ __ __ __ _
 72
    65
 73
     2
 40
0.375
 49
0.25
 49
-0.125
  0
LTYPE
  2
DASHED
 70
     0
  3
_ _ _ _ _ _ _ _ _ _ _ _ _ _ _ _
 72
    65
 73
     2
 40
0.2
 49
0.1
 49
-0.1
  0
ENDTAB
  0
TABLE
  2
LAYER
 70
    13
  0
LAYER
  2
0
 70
     0
 62
   221
  6
CONTINUOUS
  0
LAYER
  2
50_DIMENSIONS0
 70
     0
 62
     7
  6
CONTINUOUS
  0
LAYER
  2
10_OUTLINE0
 70
     0
 62
     2
  6
CONTINUOUS
  0
LAYER
  2
25_CENTRE
 70
     0
 62
     6
  6
CENTER
  0
LAYER
  2
20_HIDDEN
 70
     0
 62
    10
  6
HIDDEN
  0
LAYER
  2
62_TEXT0
 70
     0
 62
     7
  6
CONTINUOUS
  0
LAYER
  2
30_HATCHING
 70
     0
 62
     1
  6
CONTINUOUS
  0
LAYER
  2
01_FRAME0
 70
     0
 62
     4
  6
CONTINUOUS
  0
LAYER
  2
DEFPOINTS
 70
     0
 62
     7
  6
CONTINUOUS
  0
LAYER
  2
62_TEXT
 70
     0
 62
     7
  6
CONTINUOUS
  0
LAYER
  2
50_DIMENSIONS
 70
     0
 62
     7
  6
CONTINUOUS
  0
LAYER
  2
10_OUTLINE
 70
     0
 62
     2
  6
CONTINUOUS
  0
LAYER
  2
01_FRAME
 70
     0
 62
     4
  6
CONTINUOUS
  0
ENDTAB
  0
TABLE
  2
STYLE
 70
     2
  0
STYLE
  2
STANDARD
 70
     0
 40
0.0
 41
1.0
 50
0.0
 71
     0
 42
1.345608723561553
  3
txt
  4

  0
STYLE
  2
MECHTRONICS
 70
     0
 40
3.0
 41
1.0
 50
0.0
 71
     0
 42
2.0
  3
txt
  4

  0
ENDTAB
  0
TABLE
  2
VIEW
 70
     0
  0
ENDTAB
  0
TABLE
  2
UCS
 70
    16
  0
UCS
  2
AUDIT_D_000731094948-0
 70
     0
 10
0.0
 20
0.0
 30
1.0
 11
1.0
 21
0.0
 31
0.0
 12
0.0
 22
1.0
 32
0.0
  0
UCS
  2
AUDIT_D_000731094948-1
 70
     0
 10
0.0
 20
0.0
 30
1.0
 11
1.0
 21
0.0
 31
0.0
 12
0.0
 22
1.0
 32
0.0
  0
UCS
  2
AUDIT_D_000731094948-2
 70
     0
 10
0.0
 20
0.0
 30
1.0
 11
1.0
 21
0.0
 31
0.0
 12
0.0
 22
1.0
 32
0.0
  0
UCS
  2
AUDIT_D_000731094948-3
 70
     0
 10
0.0
 20
0.0
 30
1.0
 11
1.0
 21
0.0
 31
0.0
 12
0.0
 22
1.0
 32
0.0
  0
UCS
  2
AUDIT_D_000731094948-4
 70
     0
 10
0.0
 20
0.0
 30
1.0
 11
1.0
 21
0.0
 31
0.0
 12
0.0
 22
1.0
 32
0.0
  0
UCS
  2
AUDIT_D_000731094948-5
 70
     0
 10
0.0
 20
0.0
 30
1.0
 11
1.0
 21
0.0
 31
0.0
 12
0.0
 22
1.0
 32
0.0
  0
UCS
  2
AUDIT_D_000731094948-6
 70
     0
 10
0.0
 20
0.0
 30
1.0
 11
1.0
 21
0.0
 31
0.0
 12
0.0
 22
1.0
 32
0.0
  0
UCS
  2
AUDIT_D_000731094948-7
 70
     0
 10
0.0
 20
0.0
 30
1.0
 11
1.0
 21
0.0
 31
0.0
 12
0.0
 22
1.0
 32
0.0
  0
UCS
  2
AUDIT_D_000731094948-8
 70
     0
 10
0.0
 20
0.0
 30
1.0
 11
1.0
 21
0.0
 31
0.0
 12
0.0
 22
1.0
 32
0.0
  0
UCS
  2
AUDIT_D_000731094948-9
 70
     0
 10
0.0
 20
0.0
 30
1.0
 11
1.0
 21
0.0
 31
0.0
 12
0.0
 22
1.0
 32
0.0
  0
UCS
  2
AUDIT_D_000731094948-10
 70
     0
 10
0.0
 20
0.0
 30
1.0
 11
1.0
 21
0.0
 31
0.0
 12
0.0
 22
1.0
 32
0.0
  0
UCS
  2
AUDIT_D_000731094948-11
 70
     0
 10
0.0
 20
0.0
 30
1.0
 11
1.0
 21
0.0
 31
0.0
 12
0.0
 22
1.0
 32
0.0
  0
UCS
  2
AUDIT_D_000731094948-12
 70
     0
 10
0.0
 20
0.0
 30
1.0
 11
1.0
 21
0.0
 31
0.0
 12
0.0
 22
1.0
 32
0.0
  0
UCS
  2
AUDIT_D_000731094948-13
 70
     0
 10
0.0
 20
0.0
 30
1.0
 11
1.0
 21
0.0
 31
0.0
 12
0.0
 22
1.0
 32
0.0
  0
UCS
  2
AUDIT_D_000731094948-14
 70
     0
 10
0.0
 20
0.0
 30
1.0
 11
1.0
 21
0.0
 31
0.0
 12
0.0
 22
1.0
 32
0.0
  0
UCS
  2
CK_VIEW_1
 70
     0
 10
0.0
 20
0.0
 30
1.0
 11
1.0
 21
0.0
 31
0.0
 12
0.0
 22
1.0
 32
0.0
  0
ENDTAB
  0
TABLE
  2
APPID
 70
     4
  0
APPID
  2
ACAD
 70
     0
  0
APPID
  2
DCO15
 70
     0
  0
APPID
  2
ACAD_PSEXT
 70
     0
  0
APPID
  2
ACAD_DSTYLE_DIMTEXT_FILL
 70
     0
  0
ENDTAB
  0
TABLE
  2
DIMSTYLE
 70
     2
  0
DIMSTYLE
  2
STANDARD
 70
     0
  3

  4

  5

  6

  7

 40
1.0
 41
0.18
 42
0.0625
 43
0.38
 44
0.18
 45
0.0
 46
0.0
 47
0.0
 48
0.0
140
0.18
141
0.09
142
0.0
143
25.399999999999999
144
1.0
145
0.0
146
1.0
147
0.09
 71
     0
 72
     0
 73
     1
 74
     1
 75
     0
 76
     0
 77
     0
 78
     0
170
     0
171
     2
172
     0
173
     0
174
     0
175
     0
176
     0
177
     0
178
     0
  0
DIMSTYLE
  2
MECHTRONICS
 70
     0
  3

  4
"
  5

  6

  7

 40
1.5
 41
2.0
 42
1.0
 43
6.0
 44
0.5
 45
0.0
 46
0.0
 47
0.0
 48
0.0
140
2.0
141
0.09
142
0.0
143
0.03937
144
1.0
145
0.0
146
1.0
147
0.5
 71
     0
 72
     0
 73
     0
 74
     1
 75
     0
 76
     0
 77
     0
 78
     0
170
     1
171
     1
172
     0
173
     0
174
     0
175
     0
176
     7
177
     7
178
     0
  0
ENDTAB
  0
ENDSEC
  0
SECTION
  2
BLOCKS
  0
BLOCK
  8
0
  2
$MODEL_SPACE
 70
     0
 10
0.0
 20
0.0
 30
0.0
  3
$MODEL_SPACE
  1

  0
ENDBLK
  5
E
  8
0
  0
BLOCK
 67
     1
  8
0
  2
$PAPER_SPACE
 70
     0
 10
0.0
 20
0.0
 30
0.0
  3
$PAPER_SPACE
  1

  0
ENDBLK
  5
10
 67
     1
  8
0
  0
BLOCK
  8
0
  2
_DOTSMALL
 70
     0
 10
0.0
 20
0.0
 30
0.0
  3
_DOTSMALL
  1

  0
POLYLINE
  5
4F07
  8
0
 62
     0
 66
     1
 10
0.0
 20
0.0
 30
0.0
 70
     1
 40
0.5
 41
0.5
  0
VERTEX
  5
54C9
  8
0
 62
     0
 10
-0.0625
 20
0.0
 30
0.0
 42
1.0
  0
VERTEX
  5
54CA
  8
0
 62
     0
 10
0.0625
 20
0.0
 30
0.0
 42
1.0
  0
SEQEND
  5
54CB
  8
0
 62
     0
  0
ENDBLK
  5
4F08
  8
0
  0
BLOCK
  8
0
  2
*U3
 70
     1
 10
0.0
 20
0.0
 30
0.0
  3
*U3
  1

  0
SOLID
  5
51B8
  8
62_TEXT
 10
294.41887769588652
 20
505.16771512299232
 30
0.0
 11
291.94400396173359
 21
503.39994817002582
 31
0.0
 12
293.71177091469991
 22
505.87482190417882
 32
0.0
 13
293.71177091469991
 23
505.87482190417882
 33
0.0
  0
POLYLINE
  5
51B9
  8
62_TEXT
 66
     1
 10
0.0
 20
0.0
 30
0.0
  0
VERTEX
  5
54D4
  8
62_TEXT
 10
294.0653243052933
 20
505.5212685135856
 30
0.0
  0
VERTEX
  5
54D5
  8
62_TEXT
 10
299.1305093018878
 20
510.58645351018021
 30
0.0
  0
VERTEX
  5
54D6
  8
62_TEXT
 10
306.62493684159563
 20
510.58645351018021
 30
0.0
  0
SEQEND
  5
54D7
  8
62_TEXT
  0
ENDBLK
  5
51BA
  8
0
  0
BLOCK
  8
0
  2
*U4
 70
     1
 10
0.0
 20
0.0
 30
0.0
  3
*U4
  1

  0
TEXT
  5
51BD
  8
62_TEXT
 10
307.18666944732553
 20
509.08645351017998
 30
0.0
 40
3.0
  1
Engrave bend lines
  7
MECHTRONICS
  0
ENDBLK
  5
51BE
  8
0
  0
BLOCK
  8
0
  2
*U6
 70
     1
 10
0.0
 20
0.0
 30
0.0
  3
*U6
  1

  0
TEXT
  5
51CE
  8
50_DIMENSIONS
 62
     0
 10
411.10921442800998
 20
645.2659363580002
 30
0.0
 40
3.0
  1
271.2729
  7
MECHTRONICS
  0
ENDBLK
  5
51CF
  8
0
  0
BLOCK
  8
0
  2
*U8
 70
     1
 10
0.0
 20
0.0
 30
0.0
  3
*U8
  1

  0
TEXT
  5
51DF
  8
50_DIMENSIONS
 62
     0
 10
256.3647922097648
 20
531.0375414244819
 30
0.0
 40
3.0
  1
209.4247
  7
MECHTRONICS
  0
ENDBLK
  5
51E0
  8
0
  0
BLOCK
  8
0
  2
*D9
 70
     1
 10
0.0
 20
0.0
 30
0.0
  3
*D9
  1

  0
LINE
  5
54AF
  8
50_DIMENSIONS0
 62
     7
 10
741.66931859151146
 20
596.68381624582798
 30
0.0
 11
741.66931859151146
 21
674.73704349291779
 31
0.0
  0
LINE
  5
54B0
  8
50_DIMENSIONS0
 62
     7
 10
1012.9422260189179
 20
583.28142842768773
 30
0.0
 11
1012.9422260189179
 21
674.73704349291779
 31
0.0
  0
LINE
  5
54B1
  8
50_DIMENSIONS0
 62
     7
 10
744.66931859151146
 20
673.98704349291768
 30
0.0
 11
866.62876002690609
 21
673.98704349291768
 31
0.0
  0
LINE
  5
54B2
  8
50_DIMENSIONS0
 62
     7
 10
1009.942226018917
 20
673.98704349291768
 30
0.0
 11
887.98278458352274
 21
673.98704349291768
 31
0.0
  0
SOLID
  5
54B3
  8
50_DIMENSIONS0
 62
     7
 10
744.66931859151146
 20
674.48704349291768
 30
0.0
 11
744.66931859151146
 21
673.48704349291768
 31
0.0
 12
741.66931859151146
 22
673.98704349291768
 32
0.0
 13
741.66931859151146
 23
673.98704349291768
 33
0.0
  0
SOLID
  5
54B4
  8
50_DIMENSIONS0
 62
     7
 10
1009.942226018917
 20
674.48704349291768
 30
0.0
 11
1009.942226018917
 21
673.48704349291768
 31
0.0
 12
1012.9422260189179
 22
673.98704349291768
 32
0.0
 13
1012.9422260189179
 23
673.98704349291768
 33
0.0
  0
INSERT
  5
54B5
  8
62_TEXT0
  2
*U14
 10
0.0
 20
0.0
 30
0.0
  0
POINT
  5
54B6
  8
DEFPOINTS
 62
     0
 10
741.66931859151146
 20
595.1838162458281
 30
0.0
  0
POINT
  5
54B7
  8
DEFPOINTS
 62
     0
 10
1012.9422260189179
 20
581.78142842768762
 30
0.0
  0
POINT
  5
54B8
  8
DEFPOINTS
 62
     0
 10
1012.9422260189179
 20
673.98704349291768
 30
0.0
  0
ENDBLK
  5
5483
  8
0
  0
BLOCK
  8
0
  2
*D10
 70
     1
 10
0.0
 20
0.0
 30
0.0
  3
*D10
  1

  0
LINE
  5
54A5
  8
50_DIMENSIONS0
 62
     7
 10
750.16931859151146
 20
455.04628298578092
 30
0.0
 11
722.06135008696936
 21
455.04628298578092
 31
0.0
  0
LINE
  5
54A6
  8
50_DIMENSIONS0
 62
     7
 10
830.44222601891965
 20
664.471014133018
 30
0.0
 11
722.06135008696936
 21
664.47101413301812
 31
0.0
  0
LINE
  5
54A7
  8
50_DIMENSIONS0
 62
     7
 10
722.81135008696936
 20
458.04628298578092
 30
0.0
 11
722.81135008696936
 21
550.24705237931767
 31
0.0
  0
LINE
  5
54A8
  8
50_DIMENSIONS0
 62
     7
 10
722.81135008696936
 20
661.471014133018
 30
0.0
 11
722.81135008696936
 21
569.27024473948143
 31
0.0
  0
SOLID
  5
54A9
  8
50_DIMENSIONS0
 62
     7
 10
722.31135008696936
 20
458.04628298578092
 30
0.0
 11
723.31135008696936
 21
458.04628298578092
 31
0.0
 12
722.81135008696936
 22
455.04628298578092
 32
0.0
 13
722.81135008696936
 23
455.04628298578092
 33
0.0
  0
SOLID
  5
54AA
  8
50_DIMENSIONS0
 62
     7
 10
722.31135008696936
 20
661.471014133018
 30
0.0
 11
723.31135008696936
 21
661.471014133018
 31
0.0
 12
722.81135008696936
 22
664.47101413301812
 32
0.0
 13
722.81135008696936
 23
664.47101413301812
 33
0.0
  0
INSERT
  5
54AB
  8
62_TEXT0
  2
*U13
 10
0.0
 20
0.0
 30
0.0
  0
POINT
  5
54AC
  8
DEFPOINTS
 62
     0
 10
751.66931859151146
 20
455.04628298578092
 30
0.0
  0
POINT
  5
54AD
  8
DEFPOINTS
 62
     0
 10
831.94222601891954
 20
664.471014133018
 30
0.0
  0
POINT
  5
54AE
  8
DEFPOINTS
 62
     0
 10
722.81135008696936
 20
664.47101413301812
 30
0.0
  0
ENDBLK
  5
5490
  8
0
  0
BLOCK
  8
0
  2
*U11
 70
     1
 10
0.0
 20
0.0
 30
0.0
  3
*U11
  1

  0
TEXT
  5
54CD
  8
50_DIMENSIONS0
 62
     0
 10
410.93663598326242
 20
628.15739195729998
 30
0.0
 40
3.0
  1
271 [10.7"]
  7
MECHTRONICS
  0
ENDBLK
  5
54CF
  8
0
  0
BLOCK
  8
0
  2
*U12
 70
     1
 10
0.0
 20
0.0
 30
0.0
  3
*U12
  1

  0
TEXT
  5
54D1
  8
50_DIMENSIONS0
 62
     0
 10
267.70449207333911
 20
531.41790719521373
 30
0.0
 40
3.0
  1
144 [5.7"]
 50
90.0
  7
MECHTRONICS
  0
ENDBLK
  5
54D3
  8
0
  0
BLOCK
  8
0
  2
*U13
 70
     1
 10
0.0
 20
0.0
 30
0.0
  3
*U13
  1

  0
TEXT
  5
54D9
  8
50_DIMENSIONS0
 62
     0
 10
723.90104995054355
 20
550.75148621287849
 30
0.0
 40
3.0
  1
209 [8.2"]
 50
90.0
  7
MECHTRONICS
  0
ENDBLK
  5
54DB
  8
0
  0
BLOCK
  8
0
  2
*U14
 70
     1
 10
0.0
 20
0.0
 30
0.0
  3
*U14
  1

  0
TEXT
  5
54DD
  8
50_DIMENSIONS0
 62
     0
 10
867.13319386046692
 20
672.89734362934348
 30
0.0
 40
3.0
  1
271 [10.7"]
  7
MECHTRONICS
  0
ENDBLK
  5
54DF
  8
0
  0
ENDSEC
  0
SECTION
  2
ENTITIES
  0
LINE
  5
5330
  8
01_FRAME
 62
     4
 10
675.96588719045303
 20
687.31380336940254
 30
0.0
 11
675.96588719045337
 21
397.23419815937029
 31
0.0
  0
LINE
  5
5331
  8
01_FRAME
 62
     4
 10
1080.415276300479
 20
687.31380336940254
 30
0.0
 11
675.96588719045303
 21
687.31380336940254
 31
0.0
  0
LINE
  5
5332
  8
01_FRAME
 62
     4
 10
1080.415276300479
 20
397.23419815937029
 30
0.0
 11
1080.415276300479
 21
687.31380336940254
 31
0.0
  0
LINE
  5
5333
  8
01_FRAME
 62
     4
 10
675.96588719045337
 20
397.23419815937029
 30
0.0
 11
1080.415276300479
 21
397.23419815937029
 31
0.0
  0
LINE
  5
5334
  8
01_FRAME
 62
     4
 10
922.05044700373719
 20
428.7047966666546
 30
0.0
 11
966.42062361723629
 21
428.7047966666546
 31
0.0
  0
LINE
  5
5335
  8
01_FRAME
 62
     4
 10
922.05037573662764
 20
397.23419815937018
 30
0.0
 11
922.05037573662764
 21
444.52310752083417
 31
0.0
  0
TEXT
  5
5336
  8
62_TEXT
 10
1053.7134537937559
 20
435.301301107401
 30
0.0
 40
3.0
  1
06-11-07
  7
MECHTRONICS
  0
TEXT
  5
5337
  8
01_FRAME
 62
     8
 10
1067.2313985862111
 20
409.93018425063912
 30
0.0
 40
2.0999999999999961
  1
Revision
  7
MECHTRONICS
  0
TEXT
  5
5338
  8
62_TEXT
 10
998.47892935704294
 20
418.72039708293011
 30
0.0
 40
3.0
  1
X-CABLE CHAIN SHELF - PROFILE CUT
  7
MECHTRONICS
 72
     1
 11
1037.7326810623631
 21
418.72039708293011
 31
0.0
  0
LINE
  5
5339
  8
01_FRAME
 62
     8
 10
966.42062361723629
 20
444.52310752083417
 30
0.0
 11
1080.415276300479
 21
444.52310752083417
 31
0.0
  0
LINE
  5
533A
  8
01_FRAME
 62
     8
 10
966.42062361723629
 20
439.25471970806979
 30
0.0
 11
1080.415276300479
 21
439.25471970806979
 31
0.0
  0
LINE
  5
533B
  8
01_FRAME
 62
     4
 10
990.81593135957598
 20
413.03938060222589
 30
0.0
 11
1080.4152050333689
 21
413.03938060222589
 31
0.0
  0
LINE
  5
533C
  8
01_FRAME
 62
     4
 10
922.05044700373764
 20
422.18481002133171
 30
0.0
 11
990.81593135957598
 21
422.18481002133171
 31
0.0
  0
LINE
  5
533D
  8
01_FRAME
 62
     8
 10
973.50694666436743
 20
433.98631289074279
 30
0.0
 11
1080.415276300479
 21
433.98631289074279
 31
0.0
  0
TEXT
  5
533E
  8
01_FRAME
 62
     8
 10
922.95772951543915
 20
441.36422441896991
 30
0.0
 40
2.0999999999999961
  1
Higher
  7
MECHTRONICS
  0
TEXT
  5
533F
  8
01_FRAME
 62
     8
 10
1000.9661209168059
 20
430.51517856225541
 30
0.0
 40
2.0999999999999961
  1
Description of change
  7
MECHTRONICS
  0
LINE
  5
5340
  8
01_FRAME
 62
     4
 10
990.81593135957576
 20
428.7047966666546
 30
0.0
 11
990.81593135957598
 21
397.23419815937018
 31
0.0
  0
LINE
  5
5341
  8
01_FRAME
 62
     4
 10
966.42062361723629
 20
428.7047966666546
 30
0.0
 11
966.42062361723629
 21
444.52310752083417
 31
0.0
  0
LINE
  5
5342
  8
01_FRAME
 62
     8
 10
973.50694666436743
 20
428.7047966666546
 30
0.0
 11
973.50694666436743
 21
444.5864915088016
 31
0.0
  0
LINE
  5
5343
  8
01_FRAME
 62
     7
 10
966.93478191045972
 20
431.98693397687413
 30
0.0
 11
970.00060693107264
 21
437.29709867969132
 31
0.0
  0
LINE
  5
5344
  8
01_FRAME
 62
     7
 10
966.93478191045972
 20
431.98693397687413
 30
0.0
 11
973.06643195168556
 21
431.98693397687413
 31
0.0
  0
LINE
  5
5345
  8
01_FRAME
 62
     7
 10
973.06643195168556
 20
431.98693397687413
 30
0.0
 11
970.00060693107264
 21
437.29709867969132
 31
0.0
  0
TEXT
  5
5346
  8
01_FRAME
 62
     8
 10
991.97680605757432
 20
424.0686214567707
 30
0.0
 40
2.0999999999999961
  1
Title
  7
MECHTRONICS
  0
LINE
  5
5347
  8
01_FRAME
 62
     8
 10
1051.698959361242
 20
413.03938060222589
 30
0.0
 11
1051.698959361242
 21
397.23419815937018
 31
0.0
  0
LINE
  5
5348
  8
01_FRAME
 62
     8
 10
1066.0570821973049
 20
413.03938060222589
 30
0.0
 11
1066.0570821973049
 21
397.23419815937018
 31
0.0
  0
TEXT
  5
5349
  8
01_FRAME
 62
     8
 10
1052.873275750148
 20
409.62755615257947
 30
0.0
 40
2.0999999999999961
  1
Process
  7
MECHTRONICS
  0
TEXT
  5
534A
  8
01_FRAME
 62
     8
 10
991.80526867658125
 20
409.90730215023621
 30
0.0
 40
2.0999999999999961
  1
Drawing Number
  7
MECHTRONICS
  0
TEXT
  5
534B
  8
62_TEXT
 10
1001.176102796748
 20
400.72281177298851
 30
0.0
 40
6.0
  1
10 60 215
  7
MECHTRONICS
  0
TEXT
  5
534C
  8
62_TEXT
 10
1055.6048650017419
 20
400.72281177298851
 30
0.0
 40
6.0
  1
P
  7
MECHTRONICS
  0
LINE
  5
534D
  8
01_FRAME
 62
     8
 10
1052.323146053709
 20
428.7047966666546
 30
0.0
 11
1052.323146053709
 21
444.57334409291502
 31
0.0
  0
TEXT
  5
534E
  8
01_FRAME
 62
     8
 10
1054.190939565842
 20
430.51517856225479
 30
0.0
 40
2.0999999999999961
  1
Date (d-m-y)
  7
MECHTRONICS
  0
TEXT
  5
534F
  8
62_TEXT
 10
1069.962987837805
 20
400.72281177298851
 30
0.0
 40
6.0
  1
B
  7
MECHTRONICS
  0
LINE
  5
5350
  8
01_FRAME
 62
     8
 10
1072.4107502891859
 20
428.7047966666546
 30
0.0
 11
1072.4107502891859
 21
444.57334409291502
 31
0.0
  0
TEXT
  5
5351
  8
01_FRAME
 62
     8
 10
1073.816109368488
 20
430.51517856225479
 30
0.0
 40
2.0999999999999961
  1
Rev.
  7
MECHTRONICS
  0
TEXT
  5
5352
  8
01_FRAME
 62
     8
 10
942.02043790501762
 20
402.86362458612888
 30
0.0
 40
2.0999999999999961
  1
www.mechmate.com
  7
MECHTRONICS
  0
TEXT
  5
5353
  8
62_TEXT
 10
938.82575425804839
 20
439.87132423819662
 30
0.0
 40
3.0
  1
10 60 215 B
  7
MECHTRONICS
  0
TEXT
  5
5354
  8
01_FRAME
 62
     8
 10
922.95772951543915
 20
438.32277586069392
 30
0.0
 40
2.0999999999999961
  1
drawing/s:
  7
MECHTRONICS
  0
LINE
  5
5355
  8
01_FRAME
 62
     4
 10
922.05037573662764
 20
444.52310752083417
 30
0.0
 11
966.42062361723629
 21
444.52310752083417
 31
0.0
  0
LINE
  5
5356
  8
01_FRAME
 62
     4
 10
966.42062361723629
 20
428.7047966666546
 30
0.0
 11
1080.4152050333689
 21
428.7047966666546
 31
0.0
  0
TEXT
  5
5357
  8
01_FRAME
 62
     8
 10
923.21132170173553
 20
425.59232849932988
 30
0.0
 40
2.0999999999999961
  1
Material:
  7
MECHTRONICS
  0
TEXT
  5
5358
  8
62_TEXT
 10
936.79731200294498
 20
424.06410113084081
 30
0.0
 40
3.0
  1
6mm [1/4"] STEEL 300MPa
  7
MECHTRONICS
  0
TEXT
  5
5359
  8
01_FRAME
 62
     7
 10
1074.6603516375551
 20
435.23054740269163
 30
0.0
 40
3.0
  1
A
  7
MECHTRONICS
  0
TEXT
  5
535A
  8
01_FRAME
 62
     7
 10
1029.868845442285
 20
435.301301107401
 30
0.0
 40
3.0
  1
First issue
  7
MECHTRONICS
  0
TEXT
  5
535B
  8
01_FRAME
 62
     8
 10
966.72723226053404
 20
440.88907373522341
 30
0.0
 40
2.0999999999999961
  1
1:1.5
  7
MECHTRONICS
  0
LINE
  5
535C
  8
01_FRAME
 62
     7
 10
963.62453044633833
 20
407.6459967304055
 30
0.0
 11
965.40065335298266
 21
407.6459967304055
 31
0.0
  0
LINE
  5
535D
  8
01_FRAME
 62
     7
 10
964.81625161663442
 20
415.23362396057712
 30
0.0
 11
963.62453044633833
 21
407.6459967304055
 31
0.0
  0
LINE
  5
535E
  8
01_FRAME
 62
     7
 10
962.15206723180211
 20
410.01965081319742
 30
0.0
 11
964.81625161663442
 21
415.23362396057712
 31
0.0
  0
LINE
  5
535F
  8
01_FRAME
 62
     7
 10
966.71269253513378
 20
416.8006965565113
 30
0.0
 11
963.93964903697758
 21
416.8006965565113
 31
0.0
  0
LINE
  5
5360
  8
01_FRAME
 62
     7
 10
939.39565569333206
 20
411.38061313169118
 30
0.0
 11
943.17908472358545
 21
411.38061313169118
 31
0.0
  0
LINE
  5
5361
  8
01_FRAME
 62
     7
 10
942.83303938605843
 20
409.83527726661168
 30
0.0
 11
939.76477071339536
 21
409.83527726661168
 31
0.0
  0
LINE
  5
5362
  8
01_FRAME
 62
     7
 10
938.95733157592281
 20
408.6589767985954
 30
0.0
 11
942.05775734949054
 21
408.6589767985954
 31
0.0
  0
LINE
  5
5363
  8
01_FRAME
 62
     7
 10
942.23108745167963
 20
414.77112623075612
 30
0.0
 11
939.99546758850227
 21
414.77112623075612
 31
0.0
  0
LINE
  5
5364
  8
01_FRAME
 62
     7
 10
939.55045349789805
 20
412.37238970938012
 30
0.0
 11
941.78732630756144
 21
412.37238970938012
 31
0.0
  0
LINE
  5
5365
  8
01_FRAME
 62
     7
 10
941.51286338979185
 20
413.61138093113601
 30
0.0
 11
940.08565617760337
 21
413.61138093113601
 31
0.0
  0
LINE
  5
5366
  8
01_FRAME
 62
     7
 10
928.77802557976861
 20
407.6459967304055
 30
0.0
 11
929.86088758700669
 21
415.26819173148129
 31
0.0
  0
LINE
  5
5367
  8
01_FRAME
 62
     7
 10
931.20157389115514
 20
416.8006965565113
 30
0.0
 11
928.38842442220334
 21
416.8006965565113
 31
0.0
  0
LINE
  5
5368
  8
01_FRAME
 62
     7
 10
928.38842442220334
 20
416.8006965565113
 30
0.0
 11
927.09357351325093
 21
407.6459967304055
 31
0.0
  0
LINE
  5
5369
  8
01_FRAME
 62
     7
 10
927.09357351325093
 20
407.6459967304055
 30
0.0
 11
928.77802557976861
 21
407.6459967304055
 31
0.0
  0
LINE
  5
536A
  8
01_FRAME
 62
     7
 10
935.12050316441105
 20
415.23362396057712
 30
0.0
 11
933.92878199411575
 21
407.6459967304055
 31
0.0
  0
LINE
  5
536B
  8
01_FRAME
 62
     7
 10
935.70490490075974
 20
407.6459967304055
 30
0.0
 11
937.01694408291144
 21
416.8006965565113
 31
0.0
  0
LINE
  5
536C
  8
01_FRAME
 62
     7
 10
933.92878199411575
 20
407.6459967304055
 30
0.0
 11
935.70490490075974
 21
407.6459967304055
 31
0.0
  0
LINE
  5
536D
  8
01_FRAME
 62
     7
 10
937.01694408291144
 20
416.8006965565113
 30
0.0
 11
934.24390058475433
 21
416.8006965565113
 31
0.0
  0
LINE
  5
536E
  8
01_FRAME
 62
     7
 10
932.45631877957885
 20
410.01965081319742
 30
0.0
 11
935.12050316441105
 21
415.23362396057712
 31
0.0
  0
LINE
  5
536F
  8
01_FRAME
 62
     7
 10
929.86088758700669
 20
415.26819173148129
 30
0.0
 11
930.92656132104673
 21
410.01965081319742
 31
0.0
  0
LINE
  5
5370
  8
01_FRAME
 62
     7
 10
932.03234107561536
 20
412.42787266689209
 30
0.0
 11
931.20157389115514
 21
416.8006965565113
 31
0.0
  0
LINE
  5
5371
  8
01_FRAME
 62
     7
 10
934.24390058475433
 20
416.8006965565113
 30
0.0
 11
932.03234107561536
 21
412.42787266689209
 31
0.0
  0
LINE
  5
5372
  8
01_FRAME
 62
     7
 10
930.92656132104673
 20
410.01965081319742
 30
0.0
 11
932.45631877957885
 21
410.01965081319742
 31
0.0
  0
LINE
  5
5373
  8
01_FRAME
 62
     7
 10
938.12682280564616
 20
413.41030808907482
 30
0.0
 11
937.64235932316285
 21
410.22737742261671
 31
0.0
  0
LINE
  5
5374
  8
01_FRAME
 62
     7
 10
939.24714536667409
 20
410.19278680356553
 30
0.0
 11
939.39565569333206
 21
411.38061313169118
 31
0.0
  0
LINE
  5
5375
  8
01_FRAME
 62
     7
 10
939.64651548927873
 20
413.1766471595185
 30
0.0
 11
939.55045349789805
 21
412.37238970938012
 31
0.0
  0
LINE
  5
5376
  8
01_FRAME
 62
     7
 10
952.22248313388013
 20
413.40691762138249
 30
0.0
 11
954.39126405486172
 21
413.40691762138249
 31
0.0
  0
LINE
  5
5377
  8
01_FRAME
 62
     7
 10
948.96172429223145
 20
409.16640050064052
 30
0.0
 11
949.03093333984373
 21
409.7660830892537
 31
0.0
  0
LINE
  5
5378
  8
01_FRAME
 62
     7
 10
950.98017176730582
 20
417.18910123054599
 30
0.0
 11
949.91332805758032
 21
408.632091975788
 31
0.0
  0
LINE
  5
5379
  8
01_FRAME
 62
     7
 10
951.54868714856525
 20
408.632091975788
 30
0.0
 11
952.22248313388013
 21
413.40691762138249
 31
0.0
  0
LINE
  5
537A
  8
01_FRAME
 62
     7
 10
942.76383028871317
 20
409.16640050064137
 30
0.0
 11
942.83303938605843
 21
409.83527726661168
 31
0.0
  0
LINE
  5
537B
  8
01_FRAME
 62
     7
 10
946.81624316972704
 20
408.6589767985954
 30
0.0
 11
948.25565135301156
 21
408.6589767985954
 31
0.0
  0
LINE
  5
537C
  8
01_FRAME
 62
     7
 10
945.6166193296533
 20
408.6589767985954
 30
0.0
 11
946.81624316972704
 21
408.6589767985954
 31
0.0
  0
LINE
  5
537D
  8
01_FRAME
 62
     7
 10
949.91332805758032
 20
408.632091975788
 30
0.0
 11
951.54868714856525
 21
408.632091975788
 31
0.0
  0
LINE
  5
537E
  8
01_FRAME
 62
     7
 10
949.91332805758032
 20
408.632091975788
 30
0.0
 11
949.91332805758032
 21
408.632091975788
 31
0.0
  0
LINE
  5
537F
  8
01_FRAME
 62
     7
 10
948.93869011191225
 20
414.77112623075652
 30
0.0
 11
946.65475534223344
 21
414.77112623075612
 31
0.0
  0
LINE
  5
5380
  8
01_FRAME
 62
     7
 10
946.74703412211556
 20
413.61789052168189
 30
0.0
 11
949.65529490058725
 21
413.61789052168189
 31
0.0
  0
LINE
  5
5381
  8
01_FRAME
 62
     7
 10
949.04214942094973
 20
409.83527726661168
 30
0.0
 11
946.81624316972704
 21
409.83527726661168
 31
0.0
  0
LINE
  5
5382
  8
01_FRAME
 62
     7
 10
943.17908472358545
 20
411.38061313169118
 30
0.0
 11
943.50324998218332
 21
413.55668196049731
 31
0.0
  0
LINE
  5
5383
  8
01_FRAME
 62
     7
 10
943.17908472358545
 20
411.38061313169118
 30
0.0
 11
943.17908472358545
 21
411.38061313169118
 31
0.0
  0
LINE
  5
5384
  8
01_FRAME
 62
     7
 10
941.78732630756144
 20
412.37238970938012
 30
0.0
 11
941.91118227228537
 21
413.27251352418011
 31
0.0
  0
LINE
  5
5385
  8
01_FRAME
 62
     7
 10
944.78611055937733
 20
413.41030808907482
 30
0.0
 11
944.41699553931255
 21
410.91931884806132
 31
0.0
  0
LINE
  5
5386
  8
01_FRAME
 62
     7
 10
945.90563215491795
 20
410.19278680356553
 30
0.0
 11
946.30871000470609
 21
413.1796608975265
 31
0.0
  0
LINE
  5
5387
  8
01_FRAME
 62
     7
 10
944.41699553931255
 20
410.91931884806132
 30
0.0
 11
944.30164707689335
 21
410.22737742261671
 31
0.0
  0
LINE
  5
5388
  8
01_FRAME
 62
     7
 10
946.81624316972704
 20
409.83527726661168
 30
0.0
 11
946.42325750163889
 21
409.83527726661168
 31
0.0
  0
LINE
  5
5389
  8
01_FRAME
 62
     7
 10
949.65529490058725
 20
413.61789052168189
 30
0.0
 11
949.71992979824438
 21
414.01663572773572
 31
0.0
  0
LINE
  5
538A
  8
01_FRAME
 62
     7
 10
949.03093333984373
 20
409.7660830892537
 30
0.0
 11
949.04214942094973
 21
409.83527726661168
 31
0.0
  0
LINE
  5
538B
  8
01_FRAME
 62
     7
 10
952.36239710587267
 20
414.1253903706268
 30
0.0
 11
952.72783012286595
 21
417.18910123054599
 31
0.0
  0
LINE
  5
538C
  8
01_FRAME
 62
     7
 10
952.72783012286595
 20
417.18910123054599
 30
0.0
 11
950.98017176730582
 21
417.18910123054599
 31
0.0
  0
LINE
  5
538D
  8
01_FRAME
 62
     7
 10
955.49320126611735
 20
408.632091975788
 30
0.0
 11
956.10336872556695
 21
413.45879860074291
 31
0.0
  0
LINE
  5
538E
  8
01_FRAME
 62
     7
 10
954.39126405486172
 20
413.40691762138249
 30
0.0
 11
953.78765512233906
 21
408.632091975788
 31
0.0
  0
LINE
  5
538F
  8
01_FRAME
 62
     7
 10
958.47377403199096
 20
407.6459967304055
 30
0.0
 11
959.55663603922903
 21
415.26819173148129
 31
0.0
  0
LINE
  5
5390
  8
01_FRAME
 62
     7
 10
958.08417287442546
 20
416.8006965565113
 30
0.0
 11
956.78932196547328
 21
407.6459967304055
 31
0.0
  0
LINE
  5
5391
  8
01_FRAME
 62
     7
 10
953.78765512233906
 20
408.632091975788
 30
0.0
 11
955.49320126611735
 21
408.632091975788
 31
0.0
  0
LINE
  5
5392
  8
01_FRAME
 62
     7
 10
956.78932196547328
 20
407.6459967304055
 30
0.0
 11
958.47377403199096
 21
407.6459967304055
 31
0.0
  0
LINE
  5
5393
  8
01_FRAME
 62
     7
 10
960.89732234337782
 20
416.8006965565113
 30
0.0
 11
958.08417287442546
 21
416.8006965565113
 31
0.0
  0
LINE
  5
5394
  8
01_FRAME
 62
     7
 10
959.55663603922903
 20
415.26819173148129
 30
0.0
 11
960.62230977326908
 21
410.01965081319742
 31
0.0
  0
LINE
  5
5395
  8
01_FRAME
 62
     7
 10
961.72808952783885
 20
412.42787266689209
 30
0.0
 11
960.89732234337782
 21
416.8006965565113
 31
0.0
  0
LINE
  5
5396
  8
01_FRAME
 62
     7
 10
963.93964903697758
 20
416.8006965565113
 30
0.0
 11
961.72808952783885
 21
412.42787266689209
 31
0.0
  0
LINE
  5
5397
  8
01_FRAME
 62
     7
 10
960.62230977326908
 20
410.01965081319742
 30
0.0
 11
962.15206723180211
 21
410.01965081319742
 31
0.0
  0
LINE
  5
5398
  8
01_FRAME
 62
     7
 10
977.0428109087934
 20
416.56685847697031
 30
0.0
 11
975.48796079712395
 21
416.38981882629002
 31
0.0
  0
LINE
  5
5399
  8
01_FRAME
 62
     7
 10
976.15470673452307
 20
410.18947123420998
 30
0.0
 11
976.65062620619221
 21
413.68376907995042
 31
0.0
  0
LINE
  5
539A
  8
01_FRAME
 62
     7
 10
975.86625675125708
 20
408.65566122924048
 30
0.0
 11
977.46715275688837
 21
408.65566122924048
 31
0.0
  0
LINE
  5
539B
  8
01_FRAME
 62
     7
 10
972.51866189143277
 20
408.6798792037485
 30
0.0
 11
972.45848107351912
 21
409.3617816112087
 31
0.0
  0
ARC
  5
539C
  8
01_FRAME
 62
     7
 10
973.95267336223549
 20
409.49365050193433
 30
0.0
 40
1.5
 50
171.34562025559259
 51
185.04353146783231
  0
LINE
  5
539D
  8
01_FRAME
 62
     7
 10
965.40065335298266
 20
407.6459967304055
 30
0.0
 11
966.71269253513378
 21
416.8006965565113
 31
0.0
  0
LINE
  5
539E
  8
01_FRAME
 62
     7
 10
968.55067535114722
 20
408.65681444480731
 30
0.0
 11
970.0271354811357
 21
408.65681444480731
 31
0.0
  0
LINE
  5
539F
  8
01_FRAME
 62
     7
 10
970.9268533487575
 20
408.6798792037485
 30
0.0
 11
972.51866189143277
 21
408.6798792037485
 31
0.0
  0
LINE
  5
53A0
  8
01_FRAME
 62
     7
 10
975.86625675125686
 20
408.65566122924048
 30
0.0
 11
975.98160521367765
 21
408.65566122924048
 31
0.0
  0
LINE
  5
53A1
  8
01_FRAME
 62
     7
 10
971.20368963867224
 20
412.34716886304489
 30
0.0
 11
968.98899946855624
 21
412.34716886304489
 31
0.0
  0
LINE
  5
53A2
  8
01_FRAME
 62
     7
 10
967.81244531101947
 20
413.61572816789311
 30
0.0
 11
970.92944106471396
 21
413.61572816789311
 31
0.0
  0
LINE
  5
53A3
  8
01_FRAME
 62
     7
 10
971.7848373841299
 20
414.79202863590928
 30
0.0
 11
968.59681476595586
 21
414.79202863590928
 31
0.0
  0
LINE
  5
53A4
  8
01_FRAME
 62
     7
 10
967.88165440836451
 20
414.28460493386319
 30
0.0
 11
967.81244531101947
 21
413.61572816789311
 31
0.0
  0
LINE
  5
53A5
  8
01_FRAME
 62
     7
 10
969.1273284914547
 20
409.64467905150798
 30
0.0
 11
970.23890331836844
 21
409.62294237038651
 31
0.0
  0
LINE
  5
53A6
  8
01_FRAME
 62
     7
 10
970.61084129193455
 20
411.28217617670151
 30
0.0
 11
969.42923772089512
 21
411.28217617670151
 31
0.0
  0
LINE
  5
53A7
  8
01_FRAME
 62
     7
 10
974.15095752927334
 20
414.8139401295503
 30
0.0
 11
973.95147255359325
 21
413.68376907995042
 31
0.0
  0
LINE
  5
53A8
  8
01_FRAME
 62
     7
 10
972.46975234588228
 20
409.7193610671693
 30
0.0
 11
973.05699991463382
 21
413.57758436565138
 31
0.0
  0
LINE
  5
53A9
  8
01_FRAME
 62
     7
 10
970.83586022419865
 20
410.2025873660541
 30
0.0
 11
970.96984802351244
 21
410.94330876974573
 31
0.0
  0
LINE
  5
53AA
  8
01_FRAME
 62
     7
 10
971.31903805135869
 20
413.1774985934718
 30
0.0
 11
971.20368963867224
 21
412.34716886304489
 31
0.0
  0
LINE
  5
53AB
  8
01_FRAME
 62
     7
 10
971.32775994720748
 20
413.27686076093681
 30
0.0
 11
971.31903805135869
 21
413.1774985934718
 31
0.0
  0
LINE
  5
53AC
  8
01_FRAME
 62
     7
 10
975.08188734605562
 20
413.68376907995042
 30
0.0
 11
974.55128449849678
 21
410.22406185326128
 31
0.0
  0
LINE
  5
53AD
  8
01_FRAME
 62
     7
 10
973.95147255359325
 20
413.68376907995042
 30
0.0
 11
975.08188734605562
 21
413.68376907995042
 31
0.0
  0
LINE
  5
53AE
  8
01_FRAME
 62
     7
 10
975.48796079712395
 20
416.38981882629002
 30
0.0
 11
975.24337517355025
 21
414.8139401295503
 31
0.0
  0
LINE
  5
53AF
  8
01_FRAME
 62
     7
 10
975.24337517355025
 20
414.8139401295503
 30
0.0
 11
974.15095752927334
 21
414.8139401295503
 31
0.0
  0
LINE
  5
53B0
  8
01_FRAME
 62
     7
 10
978.17322569610917
 20
409.16308493128651
 30
0.0
 11
978.24243474886805
 21
409.83196169725608
 31
0.0
  0
LINE
  5
53B1
  8
01_FRAME
 62
     7
 10
978.7268982313509
 20
413.68376907995042
 30
0.0
 11
978.86531637630924
 21
414.8139401295503
 31
0.0
  0
LINE
  5
53B2
  8
01_FRAME
 62
     7
 10
978.24243474886805
 20
409.83196169725608
 30
0.0
 11
976.67233208124651
 21
409.83196169725608
 31
0.0
  0
LINE
  5
53B3
  8
01_FRAME
 62
     7
 10
976.65062620619221
 20
413.68376907995042
 30
0.0
 11
978.7268982313509
 21
413.68376907995042
 31
0.0
  0
LINE
  5
53B4
  8
01_FRAME
 62
     7
 10
976.78904435115021
 20
414.8139401295503
 30
0.0
 11
977.0428109087934
 21
416.56685847697031
 31
0.0
  0
LINE
  5
53B5
  8
01_FRAME
 62
     7
 10
978.86531637630924
 20
414.8139401295503
 30
0.0
 11
976.78904435115021
 21
414.8139401295503
 31
0.0
  0
ARC
  5
53B6
  8
01_FRAME
 62
     7
 10
940.17548210242876
 20
413.1006249487649
 30
0.0
 40
0.5344015852852304
 50
129.9788673075972
 51
171.82154662072941
  0
ARC
  5
53B7
  8
01_FRAME
 62
     7
 10
940.09843567067219
 20
413.21134875636341
 30
0.0
 40
0.4002362506024639
 50
91.829758024400945
 51
131.71149876918361
  0
ARC
  5
53B8
  8
01_FRAME
 62
     7
 10
946.83686004694141
 20
413.10713453931078
 30
0.0
 40
0.5344015852852304
 50
129.9788673075972
 51
171.82154662072941
  0
ARC
  5
53B9
  8
01_FRAME
 62
     7
 10
946.75981361518473
 20
413.21785834690928
 30
0.0
 40
0.4002362506024639
 50
91.829758024400945
 51
131.71149876918361
  0
ARC
  5
53BA
  8
01_FRAME
 62
     7
 10
941.53251946524972
 20
413.20091929041672
 30
0.0
 40
0.4109320136036886
 50
41.694258406701849
 51
92.74167022804761
  0
ARC
  5
53BB
  8
01_FRAME
 62
     7
 10
941.62684712106125
 20
413.2849452114101
 30
0.0
 40
0.2846067902725082
 50
357.49651121806733
 51
41.694258406701849
  0
ARC
  5
53BC
  8
01_FRAME
 62
     7
 10
970.94909714017183
 20
413.20526652717371
 30
0.0
 40
0.4109320136036886
 50
41.694258406701849
 51
92.74167022804761
  0
ARC
  5
53BD
  8
01_FRAME
 62
     7
 10
971.0434247959829
 20
413.28929244816732
 30
0.0
 40
0.2846067902725082
 50
357.49651121806733
 51
41.694258406701849
  0
ARC
  5
53BE
  8
01_FRAME
 62
     7
 10
939.76150655579977
 20
410.58280166217418
 30
0.0
 40
0.7475315222021212
 50
242.05494587004591
 51
270.25018750737252
  0
ARC
  5
53BF
  8
01_FRAME
 62
     7
 10
939.55587975877302
 20
410.1951775941784
 30
0.0
 40
0.3087436489135027
 50
180.44368064352511
 51
242.05494587004591
  0
ARC
  5
53C0
  8
01_FRAME
 62
     7
 10
946.41999334404363
 20
410.58280166217418
 30
0.0
 40
0.7475315222021212
 50
242.05494587004591
 51
270.25018750737252
  0
ARC
  5
53C1
  8
01_FRAME
 62
     7
 10
946.21436654701665
 20
410.1951775941784
 30
0.0
 40
0.3087436489135027
 50
180.44368064352511
 51
242.05494587004591
  0
ARC
  5
53C2
  8
01_FRAME
 62
     7
 10
939.58784260376126
 20
413.17821902760841
 30
0.0
 40
1.479339103430064
 50
116.43431189309101
 51
170.97374799139689
  0
ARC
  5
53C3
  8
01_FRAME
 62
     7
 10
940.07686428256704
 20
412.19457075729042
 30
0.0
 40
2.577840865851063
 50
91.809445418533116
 51
116.43431189309101
  0
ARC
  5
53C4
  8
01_FRAME
 62
     7
 10
946.24713035749244
 20
413.17821902760841
 30
0.0
 40
1.479339103430064
 50
116.43431189309101
 51
170.97374799139689
  0
ARC
  5
53C5
  8
01_FRAME
 62
     7
 10
946.73615203629811
 20
412.19457075729042
 30
0.0
 40
2.577840865851063
 50
91.809445418533116
 51
116.43431189309101
  0
ARC
  5
53C6
  8
01_FRAME
 62
     7
 10
942.08220448505813
 20
413.11824297649952
 30
0.0
 40
1.659575002810008
 50
44.532575507646193
 51
84.852989749601505
  0
ARC
  5
53C7
  8
01_FRAME
 62
     7
 10
942.65252364468768
 20
413.67933179599771
 30
0.0
 40
0.8595221250536193
 50
351.79615361498628
 51
44.532575507646193
  0
ARC
  5
53C8
  8
01_FRAME
 62
     7
 10
938.98007368303149
 20
409.99177172009928
 30
0.0
 40
1.3329889370217349
 50
213.37814014441591
 51
269.02243001405412
  0
ARC
  5
53C9
  8
01_FRAME
 62
     7
 10
939.06239766982878
 20
410.04600933448768
 30
0.0
 40
1.4315737107786759
 50
172.7215570745245
 51
213.37814014441591
  0
ARC
  5
53CA
  8
01_FRAME
 62
     7
 10
942.05321364030794
 20
409.49368570991788
 30
0.0
 40
0.8347212779929796
 50
269.68811547985359
 51
309.85159843338988
  0
ARC
  5
53CB
  8
01_FRAME
 62
     7
 10
942.2649862846597
 20
409.23997323721449
 30
0.0
 40
0.5042403077373966
 50
309.85159843338988
 51
351.61013221800221
  0
ARC
  5
53CC
  8
01_FRAME
 62
     7
 10
945.63936143676176
 20
409.99177172009968
 30
0.0
 40
1.3329889370217349
 50
213.37814014441591
 51
269.02243001405412
  0
ARC
  5
53CD
  8
01_FRAME
 62
     7
 10
945.72168542355905
 20
410.04600933448802
 30
0.0
 40
1.4315737107786759
 50
172.7215570745245
 51
213.37814014441591
  0
ARC
  5
53CE
  8
01_FRAME
 62
     7
 10
948.25110764382566
 20
409.49368570991788
 30
0.0
 40
0.8347212779929796
 50
269.68811547985359
 51
309.85159843338988
  0
ARC
  5
53CF
  8
01_FRAME
 62
     7
 10
948.46288028817764
 20
409.23997323721449
 30
0.0
 40
0.5042403077373966
 50
309.85159843338988
 51
351.61013221800221
  0
ARC
  5
53D0
  8
01_FRAME
 62
     7
 10
948.96149860124103
 20
413.98883317973701
 30
0.0
 40
0.7826254818612261
 50
29.017138568460918
 51
91.670039206065866
  0
ARC
  5
53D1
  8
01_FRAME
 62
     7
 10
949.11223273615064
 20
414.07244542687539
 30
0.0
 40
0.6102544074360337
 50
354.75278767925488
 51
29.017138568460918
  0
LINE
  5
53D2
  8
01_FRAME
 62
     7
 10
981.15172737393232
 20
411.38061313169118
 30
0.0
 11
984.93515640418548
 21
411.38061313169118
 31
0.0
  0
LINE
  5
53D3
  8
01_FRAME
 62
     7
 10
984.58911106665846
 20
409.83527726661168
 30
0.0
 11
981.52084239399551
 21
409.83527726661168
 31
0.0
  0
LINE
  5
53D4
  8
01_FRAME
 62
     7
 10
980.71340325652295
 20
408.6589767985954
 30
0.0
 11
983.81382903009069
 21
408.6589767985954
 31
0.0
  0
LINE
  5
53D5
  8
01_FRAME
 62
     7
 10
983.98715913227966
 20
414.77112623075612
 30
0.0
 11
981.75153926910241
 21
414.77112623075612
 31
0.0
  0
LINE
  5
53D6
  8
01_FRAME
 62
     7
 10
981.3065251784983
 20
412.37238970938012
 30
0.0
 11
983.54339798816136
 21
412.37238970938012
 31
0.0
  0
LINE
  5
53D7
  8
01_FRAME
 62
     7
 10
983.26893507039233
 20
413.61138093113601
 30
0.0
 11
981.8417278582034
 21
413.61138093113601
 31
0.0
  0
LINE
  5
53D8
  8
01_FRAME
 62
     7
 10
979.88289448624619
 20
413.41030808907482
 30
0.0
 11
979.39843100376311
 21
410.22737742261671
 31
0.0
  0
LINE
  5
53D9
  8
01_FRAME
 62
     7
 10
981.00321704727435
 20
410.19278680356553
 30
0.0
 11
981.15172737393232
 21
411.38061313169118
 31
0.0
  0
LINE
  5
53DA
  8
01_FRAME
 62
     7
 10
981.40258716987876
 20
413.1766471595185
 30
0.0
 11
981.3065251784983
 21
412.37238970938012
 31
0.0
  0
LINE
  5
53DB
  8
01_FRAME
 62
     7
 10
984.51990196931354
 20
409.16640050064137
 30
0.0
 11
984.58911106665846
 21
409.83527726661168
 31
0.0
  0
LINE
  5
53DC
  8
01_FRAME
 62
     7
 10
984.93515640418548
 20
411.38061313169118
 30
0.0
 11
985.25932166278335
 21
413.55668196049731
 31
0.0
  0
LINE
  5
53DD
  8
01_FRAME
 62
     7
 10
984.93515640418548
 20
411.38061313169118
 30
0.0
 11
984.93515640418548
 21
411.38061313169118
 31
0.0
  0
LINE
  5
53DE
  8
01_FRAME
 62
     7
 10
983.54339798816136
 20
412.37238970938012
 30
0.0
 11
983.66725395288574
 21
413.27251352418011
 31
0.0
  0
ARC
  5
53DF
  8
01_FRAME
 62
     7
 10
981.93155378302902
 20
413.1006249487649
 30
0.0
 40
0.5344015852852304
 50
129.9788673075972
 51
171.82154662072941
  0
ARC
  5
53E0
  8
01_FRAME
 62
     7
 10
981.85450735127233
 20
413.21134875636341
 30
0.0
 40
0.4002362506024639
 50
91.829758024400945
 51
131.71149876918361
  0
ARC
  5
53E1
  8
01_FRAME
 62
     7
 10
983.28859114585021
 20
413.20091929041672
 30
0.0
 40
0.4109320136036886
 50
41.694258406701849
 51
92.74167022804761
  0
ARC
  5
53E2
  8
01_FRAME
 62
     7
 10
983.38291880166128
 20
413.2849452114101
 30
0.0
 40
0.2846067902725082
 50
357.49651121806733
 51
41.694258406701849
  0
ARC
  5
53E3
  8
01_FRAME
 62
     7
 10
981.51757823639991
 20
410.58280166217418
 30
0.0
 40
0.7475315222021212
 50
242.05494587004591
 51
270.25018750737252
  0
ARC
  5
53E4
  8
01_FRAME
 62
     7
 10
981.31195143937327
 20
410.1951775941784
 30
0.0
 40
0.3087436489135027
 50
180.44368064352511
 51
242.05494587004591
  0
ARC
  5
53E5
  8
01_FRAME
 62
     7
 10
981.3439142843614
 20
413.17821902760841
 30
0.0
 40
1.479339103430064
 50
116.43431189309101
 51
170.97374799139689
  0
ARC
  5
53E6
  8
01_FRAME
 62
     7
 10
981.83293596316742
 20
412.19457075729042
 30
0.0
 40
2.577840865851063
 50
91.809445418533116
 51
116.43431189309101
  0
ARC
  5
53E7
  8
01_FRAME
 62
     7
 10
983.83827616565816
 20
413.11824297649952
 30
0.0
 40
1.659575002810008
 50
44.532575507646193
 51
84.852989749601505
  0
ARC
  5
53E8
  8
01_FRAME
 62
     7
 10
984.40859532528793
 20
413.67933179599771
 30
0.0
 40
0.8595221250536193
 50
351.79615361498628
 51
44.532575507646193
  0
ARC
  5
53E9
  8
01_FRAME
 62
     7
 10
980.73614536363175
 20
409.99177172009928
 30
0.0
 40
1.3329889370217349
 50
213.37814014441591
 51
269.02243001405412
  0
ARC
  5
53EA
  8
01_FRAME
 62
     7
 10
980.81846935042893
 20
410.04600933448768
 30
0.0
 40
1.4315737107786759
 50
172.7215570745245
 51
213.37814014441591
  0
ARC
  5
53EB
  8
01_FRAME
 62
     7
 10
983.80928532090809
 20
409.49368570991788
 30
0.0
 40
0.8347212779929796
 50
269.68811547985359
 51
309.85159843338988
  0
ARC
  5
53EC
  8
01_FRAME
 62
     7
 10
984.02105796525962
 20
409.23997323721449
 30
0.0
 40
0.5042403077373966
 50
309.85159843338988
 51
351.61013221800221
  0
LINE
  5
53ED
  8
01_FRAME
 62
     7
 10
954.11706051635133
 20
414.77112623075652
 30
0.0
 11
955.07375199094747
 21
414.77112623075652
 31
0.0
  0
ARC
  5
53EE
  8
01_FRAME
 62
     7
 10
954.79487579632519
 20
413.54657437269822
 30
0.0
 40
1.3114336933362181
 50
356.16225827568218
 51
57.030568872283098
  0
ARC
  5
53EF
  8
01_FRAME
 62
     7
 10
955.0880260024976
 20
413.99851380353141
 30
0.0
 40
0.7727442721287569
 50
57.030568872283098
 51
91.058418890038453
  0
ARC
  5
53F0
  8
01_FRAME
 62
     7
 10
954.23287606318604
 20
411.3408101309102
 30
0.0
 40
3.432270645760894
 50
91.933705877951596
 51
118.1284095954894
  0
ARC
  5
53F1
  8
01_FRAME
 62
     7
 10
952.91928359546375
 20
413.7980170466605
 30
0.0
 40
0.6459844081199181
 50
118.1284095954894
 51
149.55027737969019
  0
ARC
  5
53F2
  8
01_FRAME
 62
     7
 10
977.46260904770372
 20
409.4903701405629
 30
0.0
 40
0.8347212779929796
 50
269.68811547985359
 51
309.85159843338988
  0
ARC
  5
53F3
  8
01_FRAME
 62
     7
 10
977.67438169205548
 20
409.23665766785939
 30
0.0
 40
0.5042403077373966
 50
309.85159843338988
 51
351.61013221800221
  0
ARC
  5
53F4
  8
01_FRAME
 62
     7
 10
975.88899885836565
 20
409.98845615074441
 30
0.0
 40
1.3329889370217349
 50
213.37814014441591
 51
269.02243001405412
  0
ARC
  5
53F5
  8
01_FRAME
 62
     7
 10
975.97132284516283
 20
410.04269376513253
 30
0.0
 40
1.4315737107786759
 50
172.7215570745245
 51
213.37814014441591
  0
ARC
  5
53F6
  8
01_FRAME
 62
     7
 10
976.66906792364887
 20
410.57948609281863
 30
0.0
 40
0.7475315222021212
 50
242.05494587004591
 51
270.25018750737252
  0
ARC
  5
53F7
  8
01_FRAME
 62
     7
 10
976.463441126622
 20
410.19186202482251
 30
0.0
 40
0.3087436489135027
 50
180.44368064352511
 51
242.05494587004591
  0
ARC
  5
53F8
  8
01_FRAME
 62
     7
 10
971.63595441750863
 20
413.13914538165278
 30
0.0
 40
1.659575002810008
 50
44.532575507646193
 51
84.852989749601505
  0
ARC
  5
53F9
  8
01_FRAME
 62
     7
 10
972.20627357713818
 20
413.70023420115081
 30
0.0
 40
0.8595221250536193
 50
351.79615361498628
 51
44.532575507646193
  0
ARC
  5
53FA
  8
01_FRAME
 62
     7
 10
968.59482322483643
 20
413.96350390243788
 30
0.0
 40
0.8285271270211193
 50
89.862277278535743
 51
130.98420927743871
  0
ARC
  5
53FB
  8
01_FRAME
 62
     7
 10
968.38781340646926
 20
414.20177405096263
 30
0.0
 40
0.5128916908317671
 50
130.98420927743871
 51
170.7061550554487
  0
ARC
  5
53FC
  8
01_FRAME
 62
     7
 10
972.34355568316926
 20
409.42131512975908
 30
0.0
 40
1.5989911621726161
 50
189.25185122404179
 51
207.62546243340461
  0
ARC
  5
53FD
  8
01_FRAME
 62
     7
 10
969.83593594041395
 20
409.72570503324607
 30
0.0
 40
1.0858565072906701
 50
280.14161684222319
 51
328.86389698782529
  0
ARC
  5
53FE
  8
01_FRAME
 62
     7
 10
969.0291761163495
 20
410.447187692591
 30
0.0
 40
1.900405906933448
 50
91.211385343632003
 51
150.30133372258419
  0
ARC
  5
53FF
  8
01_FRAME
 62
     7
 10
969.80764987717532
 20
410.00317811541248
 30
0.0
 40
2.7966011428728081
 50
150.30133372258419
 51
172.8407731250214
  0
ARC
  5
5400
  8
01_FRAME
 62
     7
 10
968.76876835676364
 20
410.13366834672291
 30
0.0
 40
1.7495564857925161
 50
172.84077312502461
 51
205.6306489595656
  0
ARC
  5
5401
  8
01_FRAME
 62
     7
 10
968.05007923380276
 20
409.78885739663139
 30
0.0
 40
0.9524312467206119
 50
205.6306489595656
 51
237.51101652277629
  0
ARC
  5
5402
  8
01_FRAME
 62
     7
 10
968.68004639008166
 20
410.77812745483197
 30
0.0
 40
2.1252542794251301
 50
237.51101652277629
 51
266.51006466087728
  0
ARC
  5
5403
  8
01_FRAME
 62
     7
 10
970.59118521647667
 20
410.87171453598188
 30
0.0
 40
0.4109320136036886
 50
41.694258406701849
 51
92.74167022804761
  0
ARC
  5
5404
  8
01_FRAME
 62
     7
 10
970.68551287228797
 20
410.9557404569756
 30
0.0
 40
0.2846067902725082
 50
357.49651121806733
 51
41.694258406701849
  0
ARC
  5
5405
  8
01_FRAME
 62
     7
 10
970.12381068881325
 20
410.31392684705509
 30
0.0
 40
0.7005040045388081
 50
279.45655767728778
 51
324.92940398282559
  0
ARC
  5
5406
  8
01_FRAME
 62
     7
 10
969.90529336909663
 20
410.46733591762768
 30
0.0
 40
0.9674949443663242
 50
324.92940398282559
 51
344.11881738719921
  0
ARC
  5
5407
  8
01_FRAME
 62
     7
 10
969.42048524254824
 20
410.50430773344419
 30
0.0
 40
0.7779176825942626
 50
89.3553422660856
 51
126.2501753015424
  0
ARC
  5
5408
  8
01_FRAME
 62
     7
 10
969.29373869741426
 20
410.68615337900161
 30
0.0
 40
0.5563481803435562
 50
126.79741703495679
 51
163.58374767657611
  0
ARC
  5
5409
  8
01_FRAME
 62
     7
 10
963.24528677848696
 20
412.26034348500463
 30
0.0
 40
5.693910184094757
 50
343.74206189480748
 51
345.59022698625063
  0
ARC
  5
540A
  8
01_FRAME
 62
     7
 10
970.32182278028233
 20
410.22839609164561
 30
0.0
 40
1.66878904183912
 50
164.78824619770739
 51
186.82014585811271
  0
ARC
  5
540B
  8
01_FRAME
 62
     7
 10
969.05258444686285
 20
410.06531365972842
 30
0.0
 40
0.3893267324102671
 50
185.17129579632251
 51
236.50138254921811
  0
ARC
  5
540C
  8
01_FRAME
 62
     7
 10
969.1595789817585
 20
410.22697324389861
 30
0.0
 40
0.583186608742703
 50
236.50138254921811
 51
266.829899612524
  0
LINE
  5
540D
  8
10_OUTLINE
 62
     2
 10
811.66931859151168
 20
455.04628298578092
 30
0.0
 11
751.66931859151146
 21
455.04628298578001
 31
0.0
  0
ARC
  5
540E
  8
10_OUTLINE
 62
     2
 10
811.66931859151168
 20
465.04628298578092
 30
0.0
 40
10.0
 50
270.0
 51
0.0
  0
LINE
  5
540F
  8
10_OUTLINE
 62
     2
 10
866.94222601891897
 20
596.47101413301766
 30
0.0
 11
866.94222601891897
 21
597.81349157179545
 31
0.0
  0
ARC
  5
5410
  8
10_OUTLINE
 62
     2
 10
868.94222601891886
 20
597.81349157179545
 30
0.0
 40
1.999999999999938
 50
0.0
 51
180.0
  0
LINE
  5
5411
  8
10_OUTLINE
 62
     2
 10
866.94222601891875
 20
615.48015823846265
 30
0.0
 11
866.94222601891875
 21
618.48015823846265
 31
0.0
  0
ARC
  5
5412
  8
10_OUTLINE
 62
     2
 10
868.94222601891863
 20
615.48015823846265
 30
0.0
 40
2.0000000000000551
 50
180.0
 51
0.0
  0
LINE
  5
5413
  8
10_OUTLINE
 62
     2
 10
866.94222601891875
 20
628.48015823846265
 30
0.0
 11
866.94222601891897
 21
659.47101413301982
 31
0.0
  0
ARC
  5
5414
  8
10_OUTLINE
 62
     2
 10
861.94222601891886
 20
596.47101413301766
 30
0.0
 40
5.0
 50
270.0
 51
0.0
  0
LINE
  5
5415
  8
10_OUTLINE
 62
     2
 10
848.69222601891886
 20
604.47101413301789
 30
0.0
 11
848.69222601891886
 21
607.47101413301777
 31
0.0
  0
ARC
  5
5416
  8
10_OUTLINE
 62
     2
 10
851.94222601891965
 20
604.47101413301789
 30
0.0
 40
3.25
 50
180.0
 51
0.0
  0
LINE
  5
5417
  8
10_OUTLINE
 62
     2
 10
855.19222601891897
 20
604.47101413301789
 30
0.0
 11
855.19222601891897
 21
607.47101413301777
 31
0.0
  0
ARC
  5
5418
  8
10_OUTLINE
 62
     2
 10
851.94222601891965
 20
607.47101413301777
 30
0.0
 40
3.25
 50
0.0
 51
180.0
  0
LINE
  5
5419
  8
10_OUTLINE
 62
     2
 10
848.69222601891886
 20
648.471014133018
 30
0.0
 11
848.69222601891886
 21
651.47101413301766
 31
0.0
  0
ARC
  5
541A
  8
10_OUTLINE
 62
     2
 10
851.94222601891965
 20
648.471014133018
 30
0.0
 40
3.25
 50
180.0
 51
0.0
  0
LINE
  5
541B
  8
10_OUTLINE
 62
     2
 10
855.19222601891897
 20
648.471014133018
 30
0.0
 11
855.19222601891897
 21
651.47101413301766
 31
0.0
  0
ARC
  5
541C
  8
10_OUTLINE
 62
     2
 10
851.94222601891965
 20
651.47101413301766
 30
0.0
 40
3.25
 50
0.0
 51
180.0
  0
LINE
  5
541D
  8
10_OUTLINE
 62
     2
 10
848.69222601891886
 20
623.471014133018
 30
0.0
 11
848.69222601891886
 21
632.471014133018
 31
0.0
  0
LINE
  5
541E
  8
10_OUTLINE
 62
     2
 10
855.19222601891897
 20
623.471014133018
 30
0.0
 11
855.19222601891897
 21
632.471014133018
 31
0.0
  0
ARC
  5
541F
  8
10_OUTLINE
 62
     2
 10
851.94222601891965
 20
632.471014133018
 30
0.0
 40
3.25
 50
0.0
 51
180.0
  0
LINE
  5
5420
  8
10_OUTLINE
 62
     2
 10
840.35816554182247
 20
591.47101413301777
 30
0.0
 11
861.94222601891886
 21
591.47101413301777
 31
0.0
  0
LINE
  5
5421
  8
10_OUTLINE
 62
     2
 10
855.19222601891897
 20
664.471014133018
 30
0.0
 11
861.94222601891886
 21
664.47101413301971
 31
0.0
  0
ARC
  5
5422
  8
10_OUTLINE
 62
     2
 10
861.94222601891886
 20
659.47101413301982
 30
0.0
 40
5.0
 50
0.0
 51
90.0
  0
LINE
  5
5423
  8
10_OUTLINE
 62
     2
 10
855.19222601891897
 20
664.471014133018
 30
0.0
 11
831.94222601891954
 21
664.471014133018
 31
0.0
  0
ARC
  5
5424
  8
10_OUTLINE
 62
     2
 10
851.94222601891965
 20
623.471014133018
 30
0.0
 40
3.25
 50
180.0
 51
0.0
  0
LINE
  5
5425
  8
10_OUTLINE
 62
     2
 10
777.51962951584323
 20
638.19526660397332
 30
0.0
 11
753.67308278887265
 21
608.16940869231075
 31
0.0
  0
ARC
  5
5426
  8
10_OUTLINE
 62
     2
 10
722.34991044974186
 20
633.04628298578075
 30
0.0
 40
40.0
 50
302.71300359070892
 51
321.54338509600268
  0
ARC
  5
5427
  8
10_OUTLINE
 62
     2
 10
746.66931859151146
 20
595.1838162458281
 30
0.0
 40
5.0
 50
122.71300359070889
 51
180.0
  0
ARC
  5
5428
  8
10_OUTLINE
 62
     2
 10
831.94222601891954
 20
594.97282165895831
 30
0.0
 40
69.498192474059579
 50
90.0
 51
141.54338509600271
  0
CIRCLE
  5
5429
  8
10_OUTLINE
 62
     2
 10
820.30732832964804
 20
597.7284751026956
 30
0.0
 40
3.5
  0
CIRCLE
  5
542A
  8
10_OUTLINE
 62
     2
 10
804.27957462275288
 20
613.75622880959145
 30
0.0
 40
3.5
  0
CIRCLE
  5
542B
  8
10_OUTLINE
 62
     2
 10
788.25182091585884
 20
629.78398251648559
 30
0.0
 40
3.5
  0
LINE
  5
542C
  8
10_OUTLINE
 62
     2
 10
821.66931859151168
 20
567.04628298578154
 30
0.0
 11
821.66931859151168
 21
465.04628298578092
 31
0.0
  0
ARC
  5
542D
  8
10_OUTLINE
 62
     2
 10
840.35816554182247
 20
579.47101413301971
 30
0.0
 40
12.0
 50
90.0
 51
151.70422396112059
  0
LINE
  5
542E
  8
10_OUTLINE
 62
     2
 10
823.10317096917845
 20
572.73456255196652
 30
0.0
 11
829.79201791948981
 21
585.15929369920457
 31
0.0
  0
ARC
  5
542F
  8
10_OUTLINE
 62
     2
 10
833.66931859151157
 20
567.04628298578154
 30
0.0
 40
12.0
 50
151.70422396112059
 51
180.0
  0
CIRCLE
  5
5430
  8
10_OUTLINE
 62
     2
 10
751.66931859151146
 20
465.04628298578092
 30
0.0
 40
3.2000000000000002
  0
ARC
  5
5431
  8
10_OUTLINE
 62
     2
 10
751.66931859151146
 20
465.04628298578092
 30
0.0
 40
10.0
 50
180.0
 51
270.0
  0
CIRCLE
  5
5432
  8
10_OUTLINE
 62
     2
 10
811.66931859151146
 20
465.04628298578092
 30
0.0
 40
3.2000000000000002
  0
LINE
  5
5433
  8
10_OUTLINE
 62
     2
 10
741.66931859151146
 20
465.04628298578092
 30
0.0
 11
741.66931859151146
 21
595.1838162458281
 31
0.0
  0
LINE
  5
5434
  8
10_OUTLINE
 62
     2
 10
866.94222601891897
 20
618.48015823846345
 30
0.0
 11
863.94222601891897
 21
618.48015823846345
 31
0.0
  0
LINE
  5
5435
  8
10_OUTLINE
 62
     2
 10
863.94222601891897
 20
618.48015823846345
 30
0.0
 11
863.94222601891897
 21
628.48015823846345
 31
0.0
  0
LINE
  5
5436
  8
10_OUTLINE
 62
     2
 10
863.94222601891897
 20
628.48015823846345
 30
0.0
 11
866.94222601891897
 21
628.48015823846345
 31
0.0
  0
LINE
  5
5437
  8
10_OUTLINE
 62
     2
 10
900.94222601891863
 20
618.48015823846436
 30
0.0
 11
870.94222601891886
 21
618.48015823846265
 31
0.0
  0
LINE
  5
5438
  8
10_OUTLINE
 62
     2
 10
870.94222601891829
 20
465.04628298578092
 30
0.0
 11
870.94222601891886
 21
597.81349157179545
 31
0.0
  0
LINE
  5
5439
  8
10_OUTLINE
 62
     2
 10
870.94222601891886
 20
615.48015823846265
 30
0.0
 11
870.94222601891886
 21
618.48015823846265
 31
0.0
  0
CIRCLE
  5
543A
  8
10_OUTLINE
 62
     2
 10
885.94222601891886
 20
465.04628298578092
 30
0.0
 40
3.2000000000000002
  0
ARC
  5
543B
  8
10_OUTLINE
 62
     2
 10
880.94222601891852
 20
465.04628298578092
 30
0.0
 40
10.0
 50
180.0
 51
270.0
  0
LINE
  5
543C
  8
10_OUTLINE
 62
     2
 10
900.94222601891875
 20
465.04628298578092
 30
0.0
 11
900.94222601891909
 21
597.81349157179545
 31
0.0
  0
ARC
  5
543D
  8
10_OUTLINE
 62
     2
 10
902.94222601891886
 20
597.81349157179545
 30
0.0
 40
1.9999999999996581
 50
0.0
 51
180.0
  0
LINE
  5
543E
  8
10_OUTLINE
 62
     2
 10
900.94222601891863
 20
615.48015823846265
 30
0.0
 11
900.94222601891863
 21
618.48015823846436
 31
0.0
  0
ARC
  5
543F
  8
10_OUTLINE
 62
     2
 10
902.94222601891863
 20
615.48015823846265
 30
0.0
 40
2.0
 50
180.0
 51
0.0
  0
ARC
  5
5440
  8
10_OUTLINE
 62
     2
 10
890.94222601891875
 20
465.04628298578092
 30
0.0
 40
10.0
 50
270.0
 51
0.0
  0
LINE
  5
5441
  8
10_OUTLINE
 62
     2
 10
890.94222601891875
 20
455.04628298578092
 30
0.0
 11
880.94222601891875
 21
455.04628298578092
 31
0.0
  0
LINE
  5
5442
  8
10_OUTLINE
 62
     2
 10
975.94222601891806
 20
618.48015823846174
 30
0.0
 11
972.94222601891806
 21
618.48015823846083
 31
0.0
  0
LINE
  5
5443
  8
10_OUTLINE
 62
     2
 10
972.94222601891784
 20
465.04628298578092
 30
0.0
 11
972.94222601891738
 21
597.81349157179545
 31
0.0
  0
ARC
  5
5444
  8
10_OUTLINE
 62
     2
 10
970.94222601891795
 20
597.81349157179545
 30
0.0
 40
1.9999999999996581
 50
0.0
 51
180.0
  0
LINE
  5
5445
  8
10_OUTLINE
 62
     2
 10
972.94222601891806
 20
615.48015823846265
 30
0.0
 11
972.94222601891806
 21
618.48015823846083
 31
0.0
  0
ARC
  5
5446
  8
10_OUTLINE
 62
     2
 10
970.94222601891818
 20
615.48015823846265
 30
0.0
 40
1.999999999999998
 50
180.0
 51
0.0
  0
CIRCLE
  5
5447
  8
10_OUTLINE
 62
     2
 10
982.94222601891806
 20
465.04628298578052
 30
0.0
 40
3.2000000000000002
  0
ARC
  5
5448
  8
10_OUTLINE
 62
     2
 10
982.94222601891761
 20
465.04628298578052
 30
0.0
 40
10.0
 50
180.0
 51
270.0
  0
LINE
  5
5449
  8
10_OUTLINE
 62
     2
 10
1012.9422260189179
 20
465.04628298578052
 30
0.0
 11
1012.9422260189179
 21
581.7814284276875
 31
0.0
  0
ARC
  5
544A
  8
10_OUTLINE
 62
     2
 10
1002.9422260189179
 20
465.04628298578052
 30
0.0
 40
10.0
 50
270.0
 51
0.0
  0
LINE
  5
544B
  8
10_OUTLINE
 62
     2
 10
1002.9422260189179
 20
455.04628298578069
 30
0.0
 11
982.94222601891795
 21
455.04628298578069
 31
0.0
  0
LINE
  5
544C
  8
10_OUTLINE
 62
     2
 10
975.94222601891806
 20
618.48015823846174
 30
0.0
 11
975.94222601891806
 21
628.48015823846265
 31
0.0
  0
CIRCLE
  5
544D
  8
10_OUTLINE
 62
     2
 10
1002.9422260189179
 20
465.04628298578052
 30
0.0
 40
3.2000000000000002
  0
LINE
  5
544E
  8
10_OUTLINE
 62
     2
 10
975.94222601891806
 20
628.48015823846265
 30
0.0
 11
979.86014350801565
 21
628.48015823846265
 31
0.0
  0
ARC
  5
544F
  8
10_OUTLINE
 62
     2
 10
962.94222601891761
 20
581.7814284276875
 30
0.0
 40
50.0
 50
0.0
 51
67.916729054526485
  0
ARC
  5
5450
  8
10_OUTLINE
 62
     2
 10
979.86014350801599
 20
623.48015823846265
 30
0.0
 40
5.0
 50
67.916729054561557
 51
90.0
  0
LINE
  5
5451
  8
10_OUTLINE
 62
     2
 10
934.94222601891818
 20
618.48015823846436
 30
0.0
 11
904.94222601891875
 21
618.48015823846265
 31
0.0
  0
LINE
  5
5452
  8
10_OUTLINE
 62
     2
 10
904.94222601891795
 20
465.04628298578092
 30
0.0
 11
904.94222601891875
 21
597.81349157179545
 31
0.0
  0
LINE
  5
5453
  8
10_OUTLINE
 62
     2
 10
904.94222601891875
 20
615.48015823846265
 30
0.0
 11
904.94222601891875
 21
618.48015823846265
 31
0.0
  0
CIRCLE
  5
5454
  8
10_OUTLINE
 62
     2
 10
919.94222601891852
 20
465.04628298578092
 30
0.0
 40
3.2000000000000002
  0
ARC
  5
5455
  8
10_OUTLINE
 62
     2
 10
914.94222601891806
 20
465.04628298578092
 30
0.0
 40
10.0
 50
180.0
 51
270.0
  0
LINE
  5
5456
  8
10_OUTLINE
 62
     2
 10
934.94222601891863
 20
465.04628298578092
 30
0.0
 11
934.94222601891818
 21
597.81349157179545
 31
0.0
  0
LINE
  5
5457
  8
10_OUTLINE
 62
     2
 10
934.94222601891818
 20
615.48015823846265
 30
0.0
 11
934.94222601891818
 21
618.48015823846436
 31
0.0
  0
ARC
  5
5458
  8
10_OUTLINE
 62
     2
 10
924.9422260189184
 20
465.04628298578092
 30
0.0
 40
10.0
 50
270.0
 51
0.0
  0
LINE
  5
5459
  8
10_OUTLINE
 62
     2
 10
924.9422260189184
 20
455.04628298578092
 30
0.0
 11
914.94222601891829
 21
455.04628298578092
 31
0.0
  0
LINE
  5
545A
  8
10_OUTLINE
 62
     2
 10
968.94222601891818
 20
618.48015823846436
 30
0.0
 11
938.94222601891829
 21
618.48015823846265
 31
0.0
  0
LINE
  5
545B
  8
10_OUTLINE
 62
     2
 10
938.94222601891795
 20
465.04628298578092
 30
0.0
 11
938.94222601891761
 21
597.81349157179545
 31
0.0
  0
ARC
  5
545C
  8
10_OUTLINE
 62
     2
 10
936.94222601891795
 20
597.81349157179545
 30
0.0
 40
1.9999999999996581
 50
0.0
 51
180.0
  0
LINE
  5
545D
  8
10_OUTLINE
 62
     2
 10
938.94222601891852
 20
615.48015823846265
 30
0.0
 11
938.94222601891829
 21
618.48015823846265
 31
0.0
  0
ARC
  5
545E
  8
10_OUTLINE
 62
     2
 10
936.94222601891852
 20
615.48015823846265
 30
0.0
 40
2.0000000000000551
 50
180.0
 51
0.0
  0
CIRCLE
  5
545F
  8
10_OUTLINE
 62
     2
 10
953.94222601891818
 20
465.04628298578092
 30
0.0
 40
3.2000000000000002
  0
ARC
  5
5460
  8
10_OUTLINE
 62
     2
 10
948.94222601891784
 20
465.04628298578092
 30
0.0
 40
10.0
 50
180.0
 51
270.0
  0
LINE
  5
5461
  8
10_OUTLINE
 62
     2
 10
968.94222601891818
 20
465.04628298578092
 30
0.0
 11
968.94222601891818
 21
597.81349157179545
 31
0.0
  0
LINE
  5
5462
  8
10_OUTLINE
 62
     2
 10
968.94222601891818
 20
615.48015823846265
 30
0.0
 11
968.94222601891818
 21
618.48015823846436
 31
0.0
  0
ARC
  5
5463
  8
10_OUTLINE
 62
     2
 10
958.9422260189184
 20
465.04628298578092
 30
0.0
 40
10.0
 50
270.0
 51
0.0
  0
LINE
  5
5464
  8
10_OUTLINE
 62
     2
 10
958.94222601891818
 20
455.04628298578092
 30
0.0
 11
948.94222601891806
 21
455.04628298578092
 31
0.0
  0
DIMENSION
  5
5465
  8
50_DIMENSIONS0
  2
*D9
 10
1012.9422260189179
 20
673.98704349291768
 30
0.0
 11
877.30577230521453
 21
673.98704349291768
 31
0.0
 70
     0
 13
741.66931859151146
 23
595.1838162458281
 33
0.0
 14
1012.9422260189179
 24
581.78142842768762
 34
0.0
  0
DIMENSION
  5
5466
  8
50_DIMENSIONS0
  2
*D10
 10
722.81135008696936
 20
664.47101413301812
 30
0.0
 11
722.81135008696924
 21
559.75864855939972
 31
0.0
 70
     0
 13
751.66931859151146
 23
455.04628298578092
 33
0.0
 14
831.94222601891954
 24
664.471014133018
 34
0.0
 50
90.0
  0
LINE
  5
5467
  8
0
 10
741.66931859151157
 20
555.04628298578064
 30
0.0
 11
754.61180508636437
 21
555.04628298578064
 31
0.0
  0
LINE
  5
5468
  8
0
 10
999.99973952406515
 20
555.04628298578064
 30
0.0
 11
1012.9422260189179
 21
555.04628298578064
 31
0.0
  0
INSERT
  5
5469
  8
62_TEXT
  2
*U3
 10
456.1965578772045
 20
51.646334815754699
 30
0.0
1001
ACAD
1000
DSTYLE
1002
{
1070
   147
1040
0.5
1070
    77
1070
     0
1002
}
  0
INSERT
  5
546A
  8
62_TEXT
  2
*U4
 10
456.1965578772045
 20
51.646334815754699
 30
0.0
  0
TEXT
  5
546B
  8
62_TEXT
 62
     1
 10
873.66462724704024
 20
409.10337457194288
 30
0.0
 40
6.0
  1
OPTION
  7
MECHTRONICS
  0
LINE
  5
546C
  8
62_TEXT
 62
    40
 10
906.36172368411121
 20
407.92345727676502
 30
0.0
 11
874.17352041319657
 21
407.92345727676502
 31
0.0
  0
LINE
  5
546D
  8
62_TEXT
 62
    40
 10
906.36172368411121
 20
416.28056430137588
 30
0.0
 11
874.17352041319657
 21
416.28056430137588
 31
0.0
  0
ARC
  5
546E
  8
62_TEXT
 62
    40
 10
874.17352041319657
 20
415.08056430227549
 30
0.0
 40
1.1999999991000001
 50
90.0
 51
180.0
  0
ARC
  5
546F
  8
62_TEXT
 62
    40
 10
874.17352041319657
 20
409.12345727586739
 30
0.0
 40
1.1999999991000001
 50
180.0
 51
269.99999999994787
  0
LINE
  5
5470
  8
62_TEXT
 62
    40
 10
872.97352041409715
 20
409.12345727586739
 30
0.0
 11
872.97352041409715
 21
415.08056430227549
 31
0.0
  0
ARC
  5
5471
  8
62_TEXT
 62
    40
 10
906.36172368410939
 20
415.08056430227549
 30
0.0
 40
1.1999999991000001
 50
0.0
 51
89.999999999947889
  0
ARC
  5
5472
  8
62_TEXT
 62
    40
 10
906.36172368410939
 20
409.12345727586739
 30
0.0
 40
1.1999999991000001
 50
269.99999999994787
 51
0.0
  0
LINE
  5
5473
  8
62_TEXT
 62
    40
 10
907.56172368320983
 20
409.12345727586739
 30
0.0
 11
907.56172368320983
 21
415.08056430227549
 31
0.0
  0
TEXT
  5
5474
  8
62_TEXT
 10
1053.7134537937559
 20
440.56968892016522
 30
0.0
 40
3.0
  1
17-06-08
  7
MECHTRONICS
  0
TEXT
  5
5475
  8
01_FRAME
 62
     7
 10
1074.6603516375551
 20
440.49893521545602
 30
0.0
 40
3.0
  1
B
  7
MECHTRONICS
  0
TEXT
  5
5476
  8
01_FRAME
 62
     7
 10
1020.240313073748
 20
440.56968892016522
 30
0.0
 40
3.0
  1
Lenthened legs
  7
MECHTRONICS
  0
ENDSEC
  0
EOF
