  0
SECTION
  2
HEADER
  9
$ACADVER
  1
AC1009
  9
$INSBASE
 10
0.0
 20
0.0
 30
0.0
  9
$EXTMIN
 10
297.20236618358342
 20
3671.6309709981269
 30
0.0
  9
$EXTMAX
 10
566.8352922569336
 20
3865.0173744714812
 30
0.0
  9
$LIMMIN
 10
0.0
 20
0.0
  9
$LIMMAX
 10
0.0
 20
0.0
  9
$ORTHOMODE
 70
     0
  9
$REGENMODE
 70
     1
  9
$FILLMODE
 70
     1
  9
$QTEXTMODE
 70
     0
  9
$MIRRTEXT
 70
     1
  9
$DRAGMODE
 70
     2
  9
$LTSCALE
 40
10.0
  9
$OSMODE
 70
    47
  9
$ATTMODE
 70
     1
  9
$TEXTSIZE
 40
2.0
  9
$TRACEWID
 40
0.05
  9
$TEXTSTYLE
  7
MECHTRONICS
  9
$CLAYER
  8
50_DIMENSIONS
  9
$CELTYPE
  6
BYLAYER
  9
$CECOLOR
 62
   256
  9
$DIMSCALE
 40
1.0
  9
$DIMASZ
 40
2.0
  9
$DIMEXO
 40
1.0
  9
$DIMDLI
 40
6.0
  9
$DIMRND
 40
0.0
  9
$DIMDLE
 40
0.0
  9
$DIMEXE
 40
0.5
  9
$DIMTP
 40
0.0
  9
$DIMTM
 40
0.0
  9
$DIMTXT
 40
2.0
  9
$DIMCEN
 40
0.09
  9
$DIMTSZ
 40
0.0
  9
$DIMTOL
 70
     0
  9
$DIMLIM
 70
     0
  9
$DIMTIH
 70
     0
  9
$DIMTOH
 70
     1
  9
$DIMSE1
 70
     0
  9
$DIMSE2
 70
     0
  9
$DIMTAD
 70
     0
  9
$DIMZIN
 70
     0
  9
$DIMBLK
  1

  9
$DIMASO
 70
     1
  9
$DIMSHO
 70
     1
  9
$DIMPOST
  1

  9
$DIMAPOST
  1

  9
$DIMALT
 70
     0
  9
$DIMALTD
 70
     2
  9
$DIMALTF
 40
25.399999999999999
  9
$DIMLFAC
 40
1.0
  9
$DIMTOFL
 70
     0
  9
$DIMTVP
 40
0.0
  9
$DIMTIX
 70
     0
  9
$DIMSOXD
 70
     0
  9
$DIMSAH
 70
     0
  9
$DIMBLK1
  1

  9
$DIMBLK2
  1

  9
$DIMSTYLE
  2
MECHTRONICS
  9
$DIMCLRD
 70
     7
  9
$DIMCLRE
 70
     7
  9
$DIMCLRT
 70
     0
  9
$DIMTFAC
 40
1.0
  9
$DIMGAP
 40
0.5
  9
$LUNITS
 70
     2
  9
$LUPREC
 70
    10
  9
$SKETCHINC
 40
0.1
  9
$FILLETRAD
 40
5.0
  9
$AUNITS
 70
     0
  9
$AUPREC
 70
     0
  9
$MENU
  1
acad
  9
$ELEVATION
 40
0.0
  9
$PELEVATION
 40
0.0
  9
$THICKNESS
 40
0.0
  9
$LIMCHECK
 70
     0
  9
$BLIPMODE
 70
     0
  9
$CHAMFERA
 40
0.0
  9
$CHAMFERB
 40
0.0
  9
$SKPOLY
 70
     0
  9
$TDCREATE
 40
2444972.083333333
  9
$TDUPDATE
 40
2454646.8309515971
  9
$TDINDWG
 40
1.2017377546000001
  9
$TDUSRTIMER
 40
1.2017377546000001
  9
$USRTIMER
 70
     1
  9
$ANGBASE
 50
0.0
  9
$ANGDIR
 70
     0
  9
$PDMODE
 70
     0
  9
$PDSIZE
 40
0.0
  9
$PLINEWID
 40
0.0
  9
$COORDS
 70
     1
  9
$SPLFRAME
 70
     0
  9
$SPLINETYPE
 70
     6
  9
$SPLINESEGS
 70
     8
  9
$ATTDIA
 70
     0
  9
$ATTREQ
 70
     1
  9
$HANDLING
 70
     1
  9
$HANDSEED
  5
52BF
  9
$SURFTAB1
 70
     6
  9
$SURFTAB2
 70
     6
  9
$SURFTYPE
 70
     6
  9
$SURFU
 70
     6
  9
$SURFV
 70
     6
  9
$UCSNAME
  2

  9
$UCSORG
 10
0.0
 20
0.0
 30
0.0
  9
$UCSXDIR
 10
1.0
 20
0.0
 30
0.0
  9
$UCSYDIR
 10
0.0
 20
1.0
 30
0.0
  9
$PUCSNAME
  2

  9
$PUCSORG
 10
0.0
 20
0.0
 30
0.0
  9
$PUCSXDIR
 10
1.0
 20
0.0
 30
0.0
  9
$PUCSYDIR
 10
0.0
 20
1.0
 30
0.0
  9
$USERI1
 70
     0
  9
$USERI2
 70
     0
  9
$USERI3
 70
     0
  9
$USERI4
 70
     0
  9
$USERI5
 70
     0
  9
$USERR1
 40
0.0
  9
$USERR2
 40
0.0
  9
$USERR3
 40
0.0
  9
$USERR4
 40
0.0
  9
$USERR5
 40
0.0
  9
$WORLDVIEW
 70
     1
  9
$SHADEDGE
 70
     3
  9
$SHADEDIF
 70
    70
  9
$TILEMODE
 70
     1
  9
$MAXACTVP
 70
    16
  9
$PLIMCHECK
 70
     0
  9
$PEXTMIN
 10
1.088750099572608
 20
0.7937499998122686
 30
0.0
  9
$PEXTMAX
 10
21.184573317709511
 20
7.1437499983104198
 30
0.0
  9
$PLIMMIN
 10
0.0
 20
0.0
  9
$PLIMMAX
 10
12.0
 20
9.0
  9
$UNITMODE
 70
     0
  9
$VISRETAIN
 70
     0
  9
$PLINEGEN
 70
     1
  9
$PSLTSCALE
 70
     0
  0
ENDSEC
  0
SECTION
  2
TABLES
  0
TABLE
  2
VPORT
 70
     2
  0
VPORT
  2
*ACTIVE
 70
     0
 10
0.0
 20
0.0
 11
1.0
 21
1.0
 12
472.45938203848903
 22
3768.3840403810541
 13
0.0
 23
0.0
 14
1.0
 24
1.0
 15
0.0
 25
0.0
 16
0.0
 26
0.0
 36
1.0
 17
0.0
 27
0.0
 37
0.0
 40
202.539222417254
 41
1.7423423423423421
 42
50.0
 43
0.0
 44
0.0
 50
0.0
 51
0.0
 71
     0
 72
   100
 73
     1
 74
     0
 75
     0
 76
     0
 77
     0
 78
     0
  0
ENDTAB
  0
TABLE
  2
LTYPE
 70
     1
  0
LTYPE
  2
CONTINUOUS
 70
     0
  3
Solid line
 72
    65
 73
     0
 40
0.0
  0
ENDTAB
  0
TABLE
  2
LAYER
 70
     6
  0
LAYER
  2
0
 70
     0
 62
   221
  6
CONTINUOUS
  0
LAYER
  2
50_DIMENSIONS
 70
     0
 62
     7
  6
CONTINUOUS
  0
LAYER
  2
10_OUTLINE
 70
     0
 62
     2
  6
CONTINUOUS
  0
LAYER
  2
62_TEXT
 70
     0
 62
     7
  6
CONTINUOUS
  0
LAYER
  2
01_FRAME
 70
     0
 62
     4
  6
CONTINUOUS
  0
LAYER
  2
DEFPOINTS
 70
     0
 62
     7
  6
CONTINUOUS
  0
ENDTAB
  0
TABLE
  2
STYLE
 70
     2
  0
STYLE
  2
STANDARD
 70
     0
 40
0.0
 41
1.0
 50
0.0
 71
     0
 42
1.3456087235615539
  3
txt
  4

  0
STYLE
  2
MECHTRONICS
 70
     0
 40
2.0
 41
1.0
 50
0.0
 71
     0
 42
2.0
  3
txt
  4

  0
ENDTAB
  0
TABLE
  2
VIEW
 70
     0
  0
ENDTAB
  0
TABLE
  2
UCS
 70
    16
  0
UCS
  2
AUDIT_D_000731094948-0
 70
     0
 10
0.0
 20
0.0
 30
1.0
 11
1.0
 21
0.0
 31
0.0
 12
0.0
 22
1.0
 32
0.0
  0
UCS
  2
AUDIT_D_000731094948-1
 70
     0
 10
0.0
 20
0.0
 30
1.0
 11
1.0
 21
0.0
 31
0.0
 12
0.0
 22
1.0
 32
0.0
  0
UCS
  2
AUDIT_D_000731094948-2
 70
     0
 10
0.0
 20
0.0
 30
1.0
 11
1.0
 21
0.0
 31
0.0
 12
0.0
 22
1.0
 32
0.0
  0
UCS
  2
AUDIT_D_000731094948-3
 70
     0
 10
0.0
 20
0.0
 30
1.0
 11
1.0
 21
0.0
 31
0.0
 12
0.0
 22
1.0
 32
0.0
  0
UCS
  2
AUDIT_D_000731094948-4
 70
     0
 10
0.0
 20
0.0
 30
1.0
 11
1.0
 21
0.0
 31
0.0
 12
0.0
 22
1.0
 32
0.0
  0
UCS
  2
AUDIT_D_000731094948-5
 70
     0
 10
0.0
 20
0.0
 30
1.0
 11
1.0
 21
0.0
 31
0.0
 12
0.0
 22
1.0
 32
0.0
  0
UCS
  2
AUDIT_D_000731094948-6
 70
     0
 10
0.0
 20
0.0
 30
1.0
 11
1.0
 21
0.0
 31
0.0
 12
0.0
 22
1.0
 32
0.0
  0
UCS
  2
AUDIT_D_000731094948-7
 70
     0
 10
0.0
 20
0.0
 30
1.0
 11
1.0
 21
0.0
 31
0.0
 12
0.0
 22
1.0
 32
0.0
  0
UCS
  2
AUDIT_D_000731094948-8
 70
     0
 10
0.0
 20
0.0
 30
1.0
 11
1.0
 21
0.0
 31
0.0
 12
0.0
 22
1.0
 32
0.0
  0
UCS
  2
AUDIT_D_000731094948-9
 70
     0
 10
0.0
 20
0.0
 30
1.0
 11
1.0
 21
0.0
 31
0.0
 12
0.0
 22
1.0
 32
0.0
  0
UCS
  2
AUDIT_D_000731094948-10
 70
     0
 10
0.0
 20
0.0
 30
1.0
 11
1.0
 21
0.0
 31
0.0
 12
0.0
 22
1.0
 32
0.0
  0
UCS
  2
AUDIT_D_000731094948-11
 70
     0
 10
0.0
 20
0.0
 30
1.0
 11
1.0
 21
0.0
 31
0.0
 12
0.0
 22
1.0
 32
0.0
  0
UCS
  2
AUDIT_D_000731094948-12
 70
     0
 10
0.0
 20
0.0
 30
1.0
 11
1.0
 21
0.0
 31
0.0
 12
0.0
 22
1.0
 32
0.0
  0
UCS
  2
AUDIT_D_000731094948-13
 70
     0
 10
0.0
 20
0.0
 30
1.0
 11
1.0
 21
0.0
 31
0.0
 12
0.0
 22
1.0
 32
0.0
  0
UCS
  2
AUDIT_D_000731094948-14
 70
     0
 10
0.0
 20
0.0
 30
1.0
 11
1.0
 21
0.0
 31
0.0
 12
0.0
 22
1.0
 32
0.0
  0
UCS
  2
CK_VIEW_1
 70
     0
 10
0.0
 20
0.0
 30
1.0
 11
1.0
 21
0.0
 31
0.0
 12
0.0
 22
1.0
 32
0.0
  0
ENDTAB
  0
TABLE
  2
APPID
 70
     3
  0
APPID
  2
ACAD
 70
     0
  0
APPID
  2
DCO15
 70
     0
  0
APPID
  2
ACAD_PSEXT
 70
     0
  0
ENDTAB
  0
TABLE
  2
DIMSTYLE
 70
     2
  0
DIMSTYLE
  2
STANDARD
 70
     0
  3

  4

  5

  6

  7

 40
1.0
 41
0.18
 42
0.0625
 43
0.38
 44
0.18
 45
0.0
 46
0.0
 47
0.0
 48
0.0
140
0.18
141
0.09
142
0.0
143
25.399999999999999
144
1.0
145
0.0
146
1.0
147
0.09
 71
     0
 72
     0
 73
     1
 74
     1
 75
     0
 76
     0
 77
     0
 78
     0
170
     0
171
     2
172
     0
173
     0
174
     0
175
     0
176
     0
177
     0
178
     0
  0
DIMSTYLE
  2
MECHTRONICS
 70
     0
  3

  4

  5

  6

  7

 40
1.0
 41
2.0
 42
1.0
 43
6.0
 44
0.5
 45
0.0
 46
0.0
 47
0.0
 48
0.0
140
2.0
141
0.09
142
0.0
143
25.399999999999999
144
1.0
145
0.0
146
1.0
147
0.5
 71
     0
 72
     0
 73
     0
 74
     1
 75
     0
 76
     0
 77
     0
 78
     0
170
     0
171
     2
172
     0
173
     0
174
     0
175
     0
176
     7
177
     7
178
     0
  0
ENDTAB
  0
ENDSEC
  0
SECTION
  2
BLOCKS
  0
BLOCK
  8
0
  2
$MODEL_SPACE
 70
     0
 10
0.0
 20
0.0
 30
0.0
  3
$MODEL_SPACE
  1

  0
ENDBLK
  5
E
  8
0
  0
BLOCK
 67
     1
  8
0
  2
$PAPER_SPACE
 70
     0
 10
0.0
 20
0.0
 30
0.0
  3
$PAPER_SPACE
  1

  0
ENDBLK
  5
10
 67
     1
  8
0
  0
BLOCK
  8
0
  2
_DOTSMALL
 70
     0
 10
0.0
 20
0.0
 30
0.0
  3
_DOTSMALL
  1

  0
POLYLINE
  5
1A9D
  8
0
 62
     0
 66
     1
 10
0.0
 20
0.0
 30
0.0
 70
     1
 40
0.5
 41
0.5
  0
VERTEX
  5
5212
  8
0
 62
     0
 10
-0.0625
 20
0.0
 30
0.0
 42
1.0
  0
VERTEX
  5
5213
  8
0
 62
     0
 10
0.0625
 20
0.0
 30
0.0
 42
1.0
  0
SEQEND
  5
5214
  8
0
 62
     0
  0
ENDBLK
  5
1A9F
  8
0
  0
BLOCK
  8
0
  2
*D1
 70
     1
 10
0.0
 20
0.0
 30
0.0
  3
*D1
  1

  0
LINE
  5
512F
  8
50_DIMENSIONS
 62
     7
 10
357.0752010890489
 20
3729.6851275594931
 30
0.0
 11
357.0752010890489
 21
3849.3073894457912
 31
0.0
  0
LINE
  5
5130
  8
50_DIMENSIONS
 62
     7
 10
515.45843442237981
 20
3812.685127559494
 30
0.0
 11
515.45843442237981
 21
3849.3073894457912
 31
0.0
  0
LINE
  5
5131
  8
50_DIMENSIONS
 62
     7
 10
359.0752010890489
 20
3848.8073894457912
 30
0.0
 11
429.27363903811539
 21
3848.8073894457912
 31
0.0
  0
LINE
  5
5132
  8
50_DIMENSIONS
 62
     7
 10
513.45843442237981
 20
3848.8073894457912
 30
0.0
 11
443.25999647331321
 21
3848.8073894457912
 31
0.0
  0
SOLID
  5
5133
  8
50_DIMENSIONS
 62
     7
 10
359.0752010890489
 20
3849.1407227791242
 30
0.0
 11
359.0752010890489
 21
3848.4740561124581
 31
0.0
 12
357.0752010890489
 22
3848.8073894457912
 32
0.0
 13
357.0752010890489
 23
3848.8073894457912
 33
0.0
  0
SOLID
  5
5134
  8
50_DIMENSIONS
 62
     7
 10
513.45843442237981
 20
3849.1407227791242
 30
0.0
 11
513.45843442237981
 21
3848.4740561124581
 31
0.0
 12
515.45843442237981
 22
3848.8073894457912
 32
0.0
 13
515.45843442237981
 23
3848.8073894457912
 33
0.0
  0
INSERT
  5
5135
  8
50_DIMENSIONS
  2
*U3
 10
0.0
 20
0.0
 30
0.0
  0
POINT
  5
5136
  8
DEFPOINTS
 62
     0
 10
357.0752010890489
 20
3728.685127559494
 30
0.0
  0
POINT
  5
5137
  8
DEFPOINTS
 62
     0
 10
515.45843442237981
 20
3811.685127559494
 30
0.0
  0
POINT
  5
5138
  8
DEFPOINTS
 62
     0
 10
515.45843442237981
 20
3848.8073894457912
 30
0.0
  0
ENDBLK
  5
47EE
  8
0
  0
BLOCK
  8
0
  2
*D2
 70
     1
 10
0.0
 20
0.0
 30
0.0
  3
*D2
  1

  0
LINE
  5
5139
  8
50_DIMENSIONS
 62
     7
 10
361.0752010890489
 20
3698.6851275594931
 30
0.0
 11
335.6600200910421
 21
3698.6851275594931
 31
0.0
  0
LINE
  5
513A
  8
50_DIMENSIONS
 62
     7
 10
440.40853442238563
 20
3835.6851275594931
 30
0.0
 11
335.6600200910421
 21
3835.6851275594931
 31
0.0
  0
LINE
  5
513B
  8
50_DIMENSIONS
 62
     7
 10
336.1600200910421
 20
3700.685127559494
 30
0.0
 11
336.16002009104221
 21
3760.1919488418948
 31
0.0
  0
LINE
  5
513C
  8
50_DIMENSIONS
 62
     7
 10
336.16002009104221
 20
3833.6851275594931
 30
0.0
 11
336.16002009104221
 21
3774.1783062770919
 31
0.0
  0
SOLID
  5
513D
  8
50_DIMENSIONS
 62
     7
 10
335.82668675770879
 20
3700.685127559494
 30
0.0
 11
336.49335342437541
 21
3700.685127559494
 31
0.0
 12
336.1600200910421
 22
3698.6851275594931
 32
0.0
 13
336.1600200910421
 23
3698.6851275594931
 33
0.0
  0
SOLID
  5
513E
  8
50_DIMENSIONS
 62
     7
 10
335.82668675770879
 20
3833.6851275594931
 30
0.0
 11
336.49335342437553
 21
3833.6851275594931
 31
0.0
 12
336.16002009104221
 22
3835.6851275594931
 32
0.0
 13
336.16002009104221
 23
3835.6851275594931
 33
0.0
  0
INSERT
  5
513F
  8
50_DIMENSIONS
  2
*U4
 10
0.0
 20
0.0
 30
0.0
  0
POINT
  5
5140
  8
DEFPOINTS
 62
     0
 10
362.07520108904879
 20
3698.6851275594931
 30
0.0
  0
POINT
  5
5141
  8
DEFPOINTS
 62
     0
 10
441.40853442238563
 20
3835.6851275594931
 30
0.0
  0
POINT
  5
5142
  8
DEFPOINTS
 62
     0
 10
336.16002009104221
 20
3835.6851275594931
 30
0.0
  0
ENDBLK
  5
47FC
  8
0
  0
BLOCK
  8
0
  2
*U3
 70
     1
 10
0.0
 20
0.0
 30
0.0
  3
*U3
  1

  0
TEXT
  5
5216
  8
50_DIMENSIONS
 62
     0
 10
429.36026932460931
 20
3848.080922870075
 30
0.0
 40
2.0
  1
158 [6.24"]
  7
MECHTRONICS
  0
ENDBLK
  5
5218
  8
0
  0
BLOCK
  8
0
  2
*U4
 70
     1
 10
0.0
 20
0.0
 30
0.0
  3
*U4
  1

  0
TEXT
  5
521A
  8
50_DIMENSIONS
 62
     0
 10
336.88648666675778
 20
3760.2785791283891
 30
0.0
 40
2.0
  1
137 [5.39"]
 50
90.0
  7
MECHTRONICS
  0
ENDBLK
  5
521C
  8
0
  0
ENDSEC
  0
SECTION
  2
ENTITIES
  0
LINE
  5
2747
  8
01_FRAME
 62
     4
 10
297.20236618358342
 20
3865.0173744714812
 30
0.0
 11
297.20236618358342
 21
3671.6309709981269
 31
0.0
  0
LINE
  5
2748
  8
01_FRAME
 62
     4
 10
566.8352922569336
 20
3865.0173744714812
 30
0.0
 11
297.20236618358342
 21
3865.0173744714812
 31
0.0
  0
LINE
  5
274D
  8
01_FRAME
 62
     4
 10
566.8352922569336
 20
3671.6309709981269
 30
0.0
 11
566.8352922569336
 21
3865.0173744714812
 31
0.0
  0
LINE
  5
274E
  8
01_FRAME
 62
     4
 10
297.20236618358342
 20
3671.6309709981269
 30
0.0
 11
566.8352922569336
 21
3671.6309709981269
 31
0.0
  0
LINE
  5
3FC5
  8
01_FRAME
 62
     4
 10
461.25873939243951
 20
3692.6113700029832
 30
0.0
 11
490.8388571347723
 21
3692.6113700029832
 31
0.0
  0
LINE
  5
3FC6
  8
01_FRAME
 62
     4
 10
461.2586918810332
 20
3671.6309709981269
 30
0.0
 11
461.2586918810332
 21
3703.156910572437
 31
0.0
  0
TEXT
  5
3FCF
  8
62_TEXT
 10
549.03407725245188
 20
3697.009039630148
 30
0.0
 40
2.0
  1
25-09-07
  7
MECHTRONICS
  0
TEXT
  5
3FD0
  8
01_FRAME
 62
     8
 10
558.04604044742234
 20
3680.0949617256392
 30
0.0
 40
1.399999999999999
  1
Revision
  7
MECHTRONICS
  0
TEXT
  5
3FD1
  8
62_TEXT
 10
517.09311372274101
 20
3685.9551036138341
 30
0.0
 40
2.0
  1
Y-CAR CABLE CHAIN ANCHOR
  7
MECHTRONICS
 72
     1
 11
537.59652436394151
 21
3685.9551036138341
 31
0.0
  0
LINE
  5
3FD2
  8
01_FRAME
 62
     8
 10
490.8388571347723
 20
3703.156910572437
 30
0.0
 11
566.8352922569336
 21
3703.1569105724361
 31
0.0
  0
LINE
  5
3FD3
  8
01_FRAME
 62
     8
 10
490.8388571347723
 20
3699.6446520305931
 30
0.0
 11
566.8352922569336
 21
3699.6446520305931
 31
0.0
  0
LINE
  5
3FD4
  8
01_FRAME
 62
     4
 10
507.10239562966541
 20
3682.1677592933638
 30
0.0
 11
566.83524474552735
 21
3682.1677592933638
 31
0.0
  0
LINE
  5
3FD5
  8
01_FRAME
 62
     4
 10
461.25873939243979
 20
3688.2647122394351
 30
0.0
 11
507.10239562966541
 21
3688.2647122394351
 31
0.0
  0
LINE
  5
3FD6
  8
01_FRAME
 62
     8
 10
495.56307249952619
 20
3696.1323808190418
 30
0.0
 11
566.8352922569336
 21
3696.1323808190418
 31
0.0
  0
TEXT
  5
3FD9
  8
01_FRAME
 62
     8
 10
461.86359440024103
 20
3701.0509885045271
 30
0.0
 40
1.399999999999999
  1
Higher
  7
MECHTRONICS
  0
TEXT
  5
3FDA
  8
01_FRAME
 62
     8
 10
513.86918866781866
 20
3693.8182912667171
 30
0.0
 40
1.399999999999999
  1
Description of change
  7
MECHTRONICS
  0
LINE
  5
3FDB
  8
01_FRAME
 62
     4
 10
507.1023956296653
 20
3692.6113700029832
 30
0.0
 11
507.10239562966541
 21
3671.6309709981269
 31
0.0
  0
LINE
  5
3FDC
  8
01_FRAME
 62
     4
 10
490.8388571347723
 20
3692.6113700029832
 30
0.0
 11
490.8388571347723
 21
3703.156910572437
 31
0.0
  0
LINE
  5
3FDF
  8
01_FRAME
 62
     8
 10
495.56307249952607
 20
3692.6113700029832
 30
0.0
 11
495.56307249952607
 21
3703.1991665644141
 31
0.0
  0
LINE
  5
3FE0
  8
01_FRAME
 62
     7
 10
491.1816293302544
 20
3694.7994615431289
 30
0.0
 11
493.22551267732979
 21
3698.3395713450082
 31
0.0
  0
LINE
  5
3FE1
  8
01_FRAME
 62
     7
 10
491.1816293302544
 20
3694.7994615431289
 30
0.0
 11
495.26939602440501
 21
3694.7994615431289
 31
0.0
  0
LINE
  5
3FE2
  8
01_FRAME
 62
     7
 10
495.26939602440501
 20
3694.7994615431289
 30
0.0
 11
493.22551267732979
 21
3698.3395713450082
 31
0.0
  0
TEXT
  5
3FE3
  8
01_FRAME
 62
     8
 10
507.87631209499762
 20
3689.5205865297262
 30
0.0
 40
1.399999999999999
  1
Title
  7
MECHTRONICS
  0
LINE
  5
3FE4
  8
01_FRAME
 62
     8
 10
547.69108096410912
 20
3682.1677592933638
 30
0.0
 11
547.69108096410912
 21
3671.6309709981269
 31
0.0
  0
LINE
  5
3FE6
  8
01_FRAME
 62
     8
 10
557.26316285481823
 20
3682.1677592933638
 30
0.0
 11
557.26316285481823
 21
3671.6309709981269
 31
0.0
  0
TEXT
  5
3FE7
  8
01_FRAME
 62
     8
 10
548.47395855671323
 20
3679.8932096602662
 30
0.0
 40
1.399999999999999
  1
Process
  7
MECHTRONICS
  0
TEXT
  5
3FE8
  8
01_FRAME
 62
     8
 10
507.76195384100203
 20
3680.0797069920368
 30
0.0
 40
1.399999999999999
  1
Drawing Number
  7
MECHTRONICS
  0
TEXT
  5
3FE9
  8
62_TEXT
 10
514.00917658778019
 20
3673.9567134072058
 30
0.0
 40
4.0
  1
10 60 325
  7
MECHTRONICS
  0
TEXT
  5
3FEA
  8
62_TEXT
 10
550.29501805777579
 20
3673.9567134072058
 30
0.0
 40
4.0
  1
P
  7
MECHTRONICS
  0
LINE
  5
3FEB
  8
01_FRAME
 62
     8
 10
548.10720542575359
 20
3692.6113700029832
 30
0.0
 11
548.10720542575359
 21
3703.1904016204899
 31
0.0
  0
TEXT
  5
3FEC
  8
01_FRAME
 62
     8
 10
549.4094824814498
 20
3693.8182912667171
 30
0.0
 40
1.399999999999999
  1
Date (d-m-y)
  7
MECHTRONICS
  0
TEXT
  5
3FED
  8
62_TEXT
 10
559.86709994848479
 20
3673.9567134072058
 30
0.0
 40
4.0
  1
A
  7
MECHTRONICS
  0
LINE
  5
3FEE
  8
01_FRAME
 62
     8
 10
561.49894158273912
 20
3692.6113700029832
 30
0.0
 11
561.49894158273912
 21
3703.1904016204899
 31
0.0
  0
TEXT
  5
3FEF
  8
01_FRAME
 62
     8
 10
562.43584763560648
 20
3693.8182912667171
 30
0.0
 40
1.399999999999999
  1
Rev.
  7
MECHTRONICS
  0
TEXT
  5
3FF2
  8
01_FRAME
 62
     8
 10
474.57206665995977
 20
3675.3839219492988
 30
0.0
 40
1.399999999999999
  1
www.mechmate.com
  7
MECHTRONICS
  0
TEXT
  5
3FF6
  8
62_TEXT
 10
472.4422775619804
 20
3700.0557217173441
 30
0.0
 40
2.0
  1
10 30 000 A
  7
MECHTRONICS
  0
TEXT
  5
3FF8
  8
01_FRAME
 62
     8
 10
461.86359440024103
 20
3699.023356132343
 30
0.0
 40
1.399999999999999
  1
drawing/s:
  7
MECHTRONICS
  0
LINE
  5
3FF9
  8
01_FRAME
 62
     4
 10
461.2586918810332
 20
3703.156910572437
 30
0.0
 11
490.8388571347723
 21
3703.156910572437
 31
0.0
  0
LINE
  5
3FFB
  8
01_FRAME
 62
     4
 10
490.8388571347723
 20
3692.6113700029832
 30
0.0
 11
566.83524474552735
 21
3692.6113700029832
 31
0.0
  0
TEXT
  5
3FFC
  8
01_FRAME
 62
     8
 10
462.03265585777189
 20
3690.5363912247672
 30
0.0
 40
1.399999999999999
  1
Material:
  7
MECHTRONICS
  0
TEXT
  5
3FFD
  8
62_TEXT
 10
470.50153901703379
 20
3689.5175729791072
 30
0.0
 40
2.0
  1
3mm [1/8"] STEEL 300MPa
  7
MECHTRONICS
  0
TEXT
  5
3FFE
  8
01_FRAME
 62
     7
 10
562.99867581498461
 20
3696.9618704936738
 30
0.0
 40
2.0
  1
A
  7
MECHTRONICS
  0
TEXT
  5
3FFF
  8
01_FRAME
 62
     7
 10
533.1376716848049
 20
3697.009039630148
 30
0.0
 40
2.0
  1
First issue
  7
MECHTRONICS
  0
TEXT
  5
4652
  8
62_TEXT
 62
     7
 10
463.50268943420451
 20
3733.3137770239259
 30
0.0
 40
2.0
  1
SUPPLY .dxf DRAWING TO CNC CUTTING COMPANY
  7
MECHTRONICS
  0
CIRCLE
  5
47B2
  8
10_OUTLINE
 62
     2
 10
491.05843442238557
 20
3772.0851275594891
 30
0.0
 40
15.0
  0
LINE
  5
47B4
  8
10_OUTLINE
 62
     2
 10
422.40853442238642
 20
3703.685127559494
 30
0.0
 11
422.40853442238642
 21
3728.685127559494
 31
0.0
  0
ARC
  5
47B5
  8
10_OUTLINE
 62
     2
 10
441.40853442238529
 20
3728.685127559494
 30
0.0
 40
19.0
 50
90.000000000000028
 51
180.0
  0
LINE
  5
47B6
  8
10_OUTLINE
 62
     2
 10
417.40853442238642
 20
3698.6851275594931
 30
0.0
 11
362.07520108904879
 21
3698.6851275594931
 31
0.0
  0
ARC
  5
47B7
  8
10_OUTLINE
 62
     2
 10
417.40853442238591
 20
3703.685127559494
 30
0.0
 40
5.0
 50
270.0
 51
0.0
  0
LINE
  5
47B8
  8
10_OUTLINE
 62
     2
 10
441.40853442238449
 20
3835.6851275594931
 30
0.0
 11
491.45843442237981
 21
3835.6851275594931
 31
0.0
  0
LINE
  5
47B9
  8
10_OUTLINE
 62
     2
 10
441.40853442238449
 20
3747.6851275594931
 30
0.0
 11
491.45843442238072
 21
3747.6851275594931
 31
0.0
  0
ARC
  5
47BA
  8
10_OUTLINE
 62
     2
 10
491.45843442238072
 20
3771.6851275594931
 30
0.0
 40
24.0
 50
270.0
 51
0.0
  0
LINE
  5
47BB
  8
10_OUTLINE
 62
     2
 10
515.45843442238072
 20
3771.6851275594931
 30
0.0
 11
515.45843442237981
 21
3811.685127559494
 31
0.0
  0
ARC
  5
47BC
  8
10_OUTLINE
 62
     2
 10
491.45843442237981
 20
3811.685127559494
 30
0.0
 40
24.0
 50
0.0
 51
90.000000000000028
  0
CIRCLE
  5
47BD
  8
10_OUTLINE
 62
     2
 10
491.05843442238557
 20
3811.285127559499
 30
0.0
 40
15.0
  0
CIRCLE
  5
47BE
  8
10_OUTLINE
 62
     2
 10
505.88330751882711
 20
3791.6851275594931
 30
0.0
 40
3.5
  0
CIRCLE
  5
47BF
  8
10_OUTLINE
 62
     2
 10
461.50853442238468
 20
3825.685127559494
 30
0.0
 40
3.5
  0
CIRCLE
  5
47C0
  8
10_OUTLINE
 62
     2
 10
461.50853442238468
 20
3757.685127559494
 30
0.0
 40
3.5
  0
CIRCLE
  5
47C1
  8
10_OUTLINE
 62
     2
 10
420.9024377679753
 20
3749.1912242139042
 30
0.0
 40
3.5
  0
CIRCLE
  5
47C2
  8
10_OUTLINE
 62
     2
 10
404.87468406108019
 20
3765.2189779207988
 30
0.0
 40
3.5
  0
CIRCLE
  5
47C3
  8
10_OUTLINE
 62
     2
 10
388.8469303541853
 20
3781.2467316276939
 30
0.0
 40
3.5
  0
CIRCLE
  5
47C4
  8
10_OUTLINE
 62
     2
 10
438.20853442238428
 20
3825.685127559494
 30
0.0
 40
3.5
  0
CIRCLE
  5
47C5
  8
10_OUTLINE
 62
     2
 10
438.20853442238428
 20
3757.685127559494
 30
0.0
 40
3.5
  0
CIRCLE
  5
47C6
  8
10_OUTLINE
 62
     2
 10
438.20853442238518
 20
3780.351794226161
 30
0.0
 40
3.5
  0
CIRCLE
  5
47C7
  8
10_OUTLINE
 62
     2
 10
438.20853442238428
 20
3803.0184608928271
 30
0.0
 40
3.5
  0
CIRCLE
  5
47C8
  8
10_OUTLINE
 62
     2
 10
412.408534422385
 20
3731.8851275594948
 30
0.0
 40
3.5
  0
CIRCLE
  5
47C9
  8
10_OUTLINE
 62
     2
 10
389.74186775571718
 20
3731.8851275594939
 30
0.0
 40
3.5
  0
CIRCLE
  5
47CA
  8
10_OUTLINE
 62
     2
 10
367.075201089053
 20
3731.8851275594948
 30
0.0
 40
3.5
  0
LINE
  5
47CB
  8
10_OUTLINE
 62
     2
 10
357.0752010890489
 20
3703.685127559494
 30
0.0
 11
357.0752010890489
 21
3728.685127559494
 31
0.0
  0
ARC
  5
47CC
  8
10_OUTLINE
 62
     2
 10
362.07520108904839
 20
3703.685127559494
 30
0.0
 40
5.0
 50
180.0
 51
270.0
  0
POLYLINE
  8
10_OUTLINE
  5
521D
  62
2
  66
     1
 10
0.000000
 20
0.000000
 30
0.000000
  70
     8
  0
VERTEX
  8
10_OUTLINE
  5
521E
 10
441.409
 20
3835.69
 30
0.000000
  70
    32
  0
VERTEX
  8
10_OUTLINE
  5
521F
 10
440.480
 20
3835.68
 30
0.000000
  70
    32
  0
VERTEX
  8
10_OUTLINE
  5
5220
 10
439.552
 20
3835.66
 30
0.000000
  70
    32
  0
VERTEX
  8
10_OUTLINE
  5
5221
 10
438.623
 20
3835.62
 30
0.000000
  70
    32
  0
VERTEX
  8
10_OUTLINE
  5
5222
 10
437.694
 20
3835.57
 30
0.000000
  70
    32
  0
VERTEX
  8
10_OUTLINE
  5
5223
 10
436.765
 20
3835.51
 30
0.000000
  70
    32
  0
VERTEX
  8
10_OUTLINE
  5
5224
 10
435.837
 20
3835.43
 30
0.000000
  70
    32
  0
VERTEX
  8
10_OUTLINE
  5
5225
 10
434.909
 20
3835.34
 30
0.000000
  70
    32
  0
VERTEX
  8
10_OUTLINE
  5
5226
 10
433.981
 20
3835.23
 30
0.000000
  70
    32
  0
VERTEX
  8
10_OUTLINE
  5
5227
 10
433.054
 20
3835.11
 30
0.000000
  70
    32
  0
VERTEX
  8
10_OUTLINE
  5
5228
 10
432.128
 20
3834.98
 30
0.000000
  70
    32
  0
VERTEX
  8
10_OUTLINE
  5
5229
 10
431.203
 20
3834.83
 30
0.000000
  70
    32
  0
VERTEX
  8
10_OUTLINE
  5
522A
 10
430.278
 20
3834.67
 30
0.000000
  70
    32
  0
VERTEX
  8
10_OUTLINE
  5
522B
 10
429.355
 20
3834.50
 30
0.000000
  70
    32
  0
VERTEX
  8
10_OUTLINE
  5
522C
 10
428.433
 20
3834.31
 30
0.000000
  70
    32
  0
VERTEX
  8
10_OUTLINE
  5
522D
 10
427.512
 20
3834.12
 30
0.000000
  70
    32
  0
VERTEX
  8
10_OUTLINE
  5
522E
 10
426.593
 20
3833.90
 30
0.000000
  70
    32
  0
VERTEX
  8
10_OUTLINE
  5
522F
 10
425.675
 20
3833.68
 30
0.000000
  70
    32
  0
VERTEX
  8
10_OUTLINE
  5
5230
 10
424.759
 20
3833.44
 30
0.000000
  70
    32
  0
VERTEX
  8
10_OUTLINE
  5
5231
 10
423.845
 20
3833.20
 30
0.000000
  70
    32
  0
VERTEX
  8
10_OUTLINE
  5
5232
 10
422.932
 20
3832.94
 30
0.000000
  70
    32
  0
VERTEX
  8
10_OUTLINE
  5
5233
 10
422.022
 20
3832.66
 30
0.000000
  70
    32
  0
VERTEX
  8
10_OUTLINE
  5
5234
 10
421.114
 20
3832.38
 30
0.000000
  70
    32
  0
VERTEX
  8
10_OUTLINE
  5
5235
 10
420.208
 20
3832.08
 30
0.000000
  70
    32
  0
VERTEX
  8
10_OUTLINE
  5
5236
 10
419.305
 20
3831.77
 30
0.000000
  70
    32
  0
VERTEX
  8
10_OUTLINE
  5
5237
 10
418.404
 20
3831.45
 30
0.000000
  70
    32
  0
VERTEX
  8
10_OUTLINE
  5
5238
 10
417.506
 20
3831.12
 30
0.000000
  70
    32
  0
VERTEX
  8
10_OUTLINE
  5
5239
 10
416.611
 20
3830.77
 30
0.000000
  70
    32
  0
VERTEX
  8
10_OUTLINE
  5
523A
 10
415.719
 20
3830.42
 30
0.000000
  70
    32
  0
VERTEX
  8
10_OUTLINE
  5
523B
 10
414.829
 20
3830.05
 30
0.000000
  70
    32
  0
VERTEX
  8
10_OUTLINE
  5
523C
 10
413.943
 20
3829.68
 30
0.000000
  70
    32
  0
VERTEX
  8
10_OUTLINE
  5
523D
 10
413.060
 20
3829.29
 30
0.000000
  70
    32
  0
VERTEX
  8
10_OUTLINE
  5
523E
 10
412.181
 20
3828.89
 30
0.000000
  70
    32
  0
VERTEX
  8
10_OUTLINE
  5
523F
 10
411.305
 20
3828.48
 30
0.000000
  70
    32
  0
VERTEX
  8
10_OUTLINE
  5
5240
 10
410.433
 20
3828.06
 30
0.000000
  70
    32
  0
VERTEX
  8
10_OUTLINE
  5
5241
 10
409.565
 20
3827.63
 30
0.000000
  70
    32
  0
VERTEX
  8
10_OUTLINE
  5
5242
 10
408.700
 20
3827.19
 30
0.000000
  70
    32
  0
VERTEX
  8
10_OUTLINE
  5
5243
 10
407.840
 20
3826.74
 30
0.000000
  70
    32
  0
VERTEX
  8
10_OUTLINE
  5
5244
 10
406.983
 20
3826.27
 30
0.000000
  70
    32
  0
VERTEX
  8
10_OUTLINE
  5
5245
 10
406.131
 20
3825.80
 30
0.000000
  70
    32
  0
VERTEX
  8
10_OUTLINE
  5
5246
 10
405.283
 20
3825.32
 30
0.000000
  70
    32
  0
VERTEX
  8
10_OUTLINE
  5
5247
 10
404.440
 20
3824.83
 30
0.000000
  70
    32
  0
VERTEX
  8
10_OUTLINE
  5
5248
 10
403.602
 20
3824.33
 30
0.000000
  70
    32
  0
VERTEX
  8
10_OUTLINE
  5
5249
 10
402.768
 20
3823.82
 30
0.000000
  70
    32
  0
VERTEX
  8
10_OUTLINE
  5
524A
 10
401.939
 20
3823.30
 30
0.000000
  70
    32
  0
VERTEX
  8
10_OUTLINE
  5
524B
 10
401.115
 20
3822.77
 30
0.000000
  70
    32
  0
VERTEX
  8
10_OUTLINE
  5
524C
 10
400.296
 20
3822.23
 30
0.000000
  70
    32
  0
VERTEX
  8
10_OUTLINE
  5
524D
 10
399.483
 20
3821.68
 30
0.000000
  70
    32
  0
VERTEX
  8
10_OUTLINE
  5
524E
 10
398.675
 20
3821.13
 30
0.000000
  70
    32
  0
VERTEX
  8
10_OUTLINE
  5
524F
 10
397.872
 20
3820.56
 30
0.000000
  70
    32
  0
VERTEX
  8
10_OUTLINE
  5
5250
 10
397.075
 20
3819.99
 30
0.000000
  70
    32
  0
VERTEX
  8
10_OUTLINE
  5
5251
 10
396.283
 20
3819.41
 30
0.000000
  70
    32
  0
VERTEX
  8
10_OUTLINE
  5
5252
 10
395.498
 20
3818.82
 30
0.000000
  70
    32
  0
VERTEX
  8
10_OUTLINE
  5
5253
 10
394.718
 20
3818.22
 30
0.000000
  70
    32
  0
VERTEX
  8
10_OUTLINE
  5
5254
 10
393.945
 20
3817.61
 30
0.000000
  70
    32
  0
VERTEX
  8
10_OUTLINE
  5
5255
 10
393.178
 20
3816.99
 30
0.000000
  70
    32
  0
VERTEX
  8
10_OUTLINE
  5
5256
 10
392.417
 20
3816.37
 30
0.000000
  70
    32
  0
VERTEX
  8
10_OUTLINE
  5
5257
 10
391.663
 20
3815.74
 30
0.000000
  70
    32
  0
VERTEX
  8
10_OUTLINE
  5
5258
 10
390.915
 20
3815.10
 30
0.000000
  70
    32
  0
VERTEX
  8
10_OUTLINE
  5
5259
 10
390.174
 20
3814.45
 30
0.000000
  70
    32
  0
VERTEX
  8
10_OUTLINE
  5
525A
 10
389.440
 20
3813.80
 30
0.000000
  70
    32
  0
VERTEX
  8
10_OUTLINE
  5
525B
 10
388.713
 20
3813.14
 30
0.000000
  70
    32
  0
VERTEX
  8
10_OUTLINE
  5
525C
 10
387.992
 20
3812.47
 30
0.000000
  70
    32
  0
VERTEX
  8
10_OUTLINE
  5
525D
 10
387.280
 20
3811.79
 30
0.000000
  70
    32
  0
VERTEX
  8
10_OUTLINE
  5
525E
 10
386.574
 20
3811.11
 30
0.000000
  70
    32
  0
VERTEX
  8
10_OUTLINE
  5
525F
 10
385.876
 20
3810.42
 30
0.000000
  70
    32
  0
VERTEX
  8
10_OUTLINE
  5
5260
 10
385.185
 20
3809.72
 30
0.000000
  70
    32
  0
VERTEX
  8
10_OUTLINE
  5
5261
 10
384.502
 20
3809.02
 30
0.000000
  70
    32
  0
VERTEX
  8
10_OUTLINE
  5
5262
 10
383.827
 20
3808.31
 30
0.000000
  70
    32
  0
VERTEX
  8
10_OUTLINE
  5
5263
 10
383.160
 20
3807.59
 30
0.000000
  70
    32
  0
VERTEX
  8
10_OUTLINE
  5
5264
 10
382.501
 20
3806.87
 30
0.000000
  70
    32
  0
VERTEX
  8
10_OUTLINE
  5
5265
 10
381.850
 20
3806.14
 30
0.000000
  70
    32
  0
VERTEX
  8
10_OUTLINE
  5
5266
 10
381.207
 20
3805.41
 30
0.000000
  70
    32
  0
VERTEX
  8
10_OUTLINE
  5
5267
 10
380.573
 20
3804.67
 30
0.000000
  70
    32
  0
VERTEX
  8
10_OUTLINE
  5
5268
 10
379.948
 20
3803.92
 30
0.000000
  70
    32
  0
VERTEX
  8
10_OUTLINE
  5
5269
 10
379.331
 20
3803.17
 30
0.000000
  70
    32
  0
VERTEX
  8
10_OUTLINE
  5
526A
 10
378.722
 20
3802.41
 30
0.000000
  70
    32
  0
VERTEX
  8
10_OUTLINE
  5
526B
 10
378.123
 20
3801.65
 30
0.000000
  70
    32
  0
VERTEX
  8
10_OUTLINE
  5
526C
 10
377.533
 20
3800.88
 30
0.000000
  70
    32
  0
VERTEX
  8
10_OUTLINE
  5
526D
 10
376.952
 20
3800.10
 30
0.000000
  70
    32
  0
VERTEX
  8
10_OUTLINE
  5
526E
 10
376.380
 20
3799.32
 30
0.000000
  70
    32
  0
VERTEX
  8
10_OUTLINE
  5
526F
 10
375.818
 20
3798.54
 30
0.000000
  70
    32
  0
VERTEX
  8
10_OUTLINE
  5
5270
 10
375.265
 20
3797.75
 30
0.000000
  70
    32
  0
VERTEX
  8
10_OUTLINE
  5
5271
 10
374.722
 20
3796.96
 30
0.000000
  70
    32
  0
VERTEX
  8
10_OUTLINE
  5
5272
 10
374.188
 20
3796.16
 30
0.000000
  70
    32
  0
VERTEX
  8
10_OUTLINE
  5
5273
 10
373.665
 20
3795.36
 30
0.000000
  70
    32
  0
VERTEX
  8
10_OUTLINE
  5
5274
 10
373.151
 20
3794.55
 30
0.000000
  70
    32
  0
VERTEX
  8
10_OUTLINE
  5
5275
 10
372.647
 20
3793.74
 30
0.000000
  70
    32
  0
VERTEX
  8
10_OUTLINE
  5
5276
 10
372.153
 20
3792.92
 30
0.000000
  70
    32
  0
VERTEX
  8
10_OUTLINE
  5
5277
 10
371.668
 20
3792.10
 30
0.000000
  70
    32
  0
VERTEX
  8
10_OUTLINE
  5
5278
 10
371.193
 20
3791.28
 30
0.000000
  70
    32
  0
VERTEX
  8
10_OUTLINE
  5
5279
 10
370.728
 20
3790.45
 30
0.000000
  70
    32
  0
VERTEX
  8
10_OUTLINE
  5
527A
 10
370.272
 20
3789.61
 30
0.000000
  70
    32
  0
VERTEX
  8
10_OUTLINE
  5
527B
 10
369.825
 20
3788.78
 30
0.000000
  70
    32
  0
VERTEX
  8
10_OUTLINE
  5
527C
 10
369.387
 20
3787.94
 30
0.000000
  70
    32
  0
VERTEX
  8
10_OUTLINE
  5
527D
 10
368.959
 20
3787.09
 30
0.000000
  70
    32
  0
VERTEX
  8
10_OUTLINE
  5
527E
 10
368.539
 20
3786.25
 30
0.000000
  70
    32
  0
VERTEX
  8
10_OUTLINE
  5
527F
 10
368.129
 20
3785.39
 30
0.000000
  70
    32
  0
VERTEX
  8
10_OUTLINE
  5
5280
 10
367.728
 20
3784.54
 30
0.000000
  70
    32
  0
VERTEX
  8
10_OUTLINE
  5
5281
 10
367.335
 20
3783.68
 30
0.000000
  70
    32
  0
VERTEX
  8
10_OUTLINE
  5
5282
 10
366.951
 20
3782.82
 30
0.000000
  70
    32
  0
VERTEX
  8
10_OUTLINE
  5
5283
 10
366.576
 20
3781.95
 30
0.000000
  70
    32
  0
VERTEX
  8
10_OUTLINE
  5
5284
 10
366.210
 20
3781.09
 30
0.000000
  70
    32
  0
VERTEX
  8
10_OUTLINE
  5
5285
 10
365.852
 20
3780.22
 30
0.000000
  70
    32
  0
VERTEX
  8
10_OUTLINE
  5
5286
 10
365.502
 20
3779.34
 30
0.000000
  70
    32
  0
VERTEX
  8
10_OUTLINE
  5
5287
 10
365.161
 20
3778.46
 30
0.000000
  70
    32
  0
VERTEX
  8
10_OUTLINE
  5
5288
 10
364.829
 20
3777.58
 30
0.000000
  70
    32
  0
VERTEX
  8
10_OUTLINE
  5
5289
 10
364.504
 20
3776.70
 30
0.000000
  70
    32
  0
VERTEX
  8
10_OUTLINE
  5
528A
 10
364.188
 20
3775.81
 30
0.000000
  70
    32
  0
VERTEX
  8
10_OUTLINE
  5
528B
 10
363.879
 20
3774.92
 30
0.000000
  70
    32
  0
VERTEX
  8
10_OUTLINE
  5
528C
 10
363.579
 20
3774.03
 30
0.000000
  70
    32
  0
VERTEX
  8
10_OUTLINE
  5
528D
 10
363.287
 20
3773.14
 30
0.000000
  70
    32
  0
VERTEX
  8
10_OUTLINE
  5
528E
 10
363.002
 20
3772.24
 30
0.000000
  70
    32
  0
VERTEX
  8
10_OUTLINE
  5
528F
 10
362.726
 20
3771.34
 30
0.000000
  70
    32
  0
VERTEX
  8
10_OUTLINE
  5
5290
 10
362.457
 20
3770.44
 30
0.000000
  70
    32
  0
VERTEX
  8
10_OUTLINE
  5
5291
 10
362.195
 20
3769.54
 30
0.000000
  70
    32
  0
VERTEX
  8
10_OUTLINE
  5
5292
 10
361.942
 20
3768.63
 30
0.000000
  70
    32
  0
VERTEX
  8
10_OUTLINE
  5
5293
 10
361.695
 20
3767.73
 30
0.000000
  70
    32
  0
VERTEX
  8
10_OUTLINE
  5
5294
 10
361.456
 20
3766.82
 30
0.000000
  70
    32
  0
VERTEX
  8
10_OUTLINE
  5
5295
 10
361.225
 20
3765.90
 30
0.000000
  70
    32
  0
VERTEX
  8
10_OUTLINE
  5
5296
 10
361.000
 20
3764.99
 30
0.000000
  70
    32
  0
VERTEX
  8
10_OUTLINE
  5
5297
 10
360.783
 20
3764.07
 30
0.000000
  70
    32
  0
VERTEX
  8
10_OUTLINE
  5
5298
 10
360.573
 20
3763.16
 30
0.000000
  70
    32
  0
VERTEX
  8
10_OUTLINE
  5
5299
 10
360.370
 20
3762.24
 30
0.000000
  70
    32
  0
VERTEX
  8
10_OUTLINE
  5
529A
 10
360.174
 20
3761.32
 30
0.000000
  70
    32
  0
VERTEX
  8
10_OUTLINE
  5
529B
 10
359.984
 20
3760.40
 30
0.000000
  70
    32
  0
VERTEX
  8
10_OUTLINE
  5
529C
 10
359.802
 20
3759.47
 30
0.000000
  70
    32
  0
VERTEX
  8
10_OUTLINE
  5
529D
 10
359.626
 20
3758.55
 30
0.000000
  70
    32
  0
VERTEX
  8
10_OUTLINE
  5
529E
 10
359.457
 20
3757.62
 30
0.000000
  70
    32
  0
VERTEX
  8
10_OUTLINE
  5
529F
 10
359.294
 20
3756.69
 30
0.000000
  70
    32
  0
VERTEX
  8
10_OUTLINE
  5
52A0
 10
359.138
 20
3755.77
 30
0.000000
  70
    32
  0
VERTEX
  8
10_OUTLINE
  5
52A1
 10
358.988
 20
3754.84
 30
0.000000
  70
    32
  0
VERTEX
  8
10_OUTLINE
  5
52A2
 10
358.844
 20
3753.91
 30
0.000000
  70
    32
  0
VERTEX
  8
10_OUTLINE
  5
52A3
 10
358.707
 20
3752.97
 30
0.000000
  70
    32
  0
VERTEX
  8
10_OUTLINE
  5
52A4
 10
358.576
 20
3752.04
 30
0.000000
  70
    32
  0
VERTEX
  8
10_OUTLINE
  5
52A5
 10
358.451
 20
3751.11
 30
0.000000
  70
    32
  0
VERTEX
  8
10_OUTLINE
  5
52A6
 10
358.332
 20
3750.18
 30
0.000000
  70
    32
  0
VERTEX
  8
10_OUTLINE
  5
52A7
 10
358.219
 20
3749.24
 30
0.000000
  70
    32
  0
VERTEX
  8
10_OUTLINE
  5
52A8
 10
358.111
 20
3748.31
 30
0.000000
  70
    32
  0
VERTEX
  8
10_OUTLINE
  5
52A9
 10
358.010
 20
3747.37
 30
0.000000
  70
    32
  0
VERTEX
  8
10_OUTLINE
  5
52AA
 10
357.914
 20
3746.44
 30
0.000000
  70
    32
  0
VERTEX
  8
10_OUTLINE
  5
52AB
 10
357.824
 20
3745.50
 30
0.000000
  70
    32
  0
VERTEX
  8
10_OUTLINE
  5
52AC
 10
357.739
 20
3744.56
 30
0.000000
  70
    32
  0
VERTEX
  8
10_OUTLINE
  5
52AD
 10
357.660
 20
3743.63
 30
0.000000
  70
    32
  0
VERTEX
  8
10_OUTLINE
  5
52AE
 10
357.587
 20
3742.69
 30
0.000000
  70
    32
  0
VERTEX
  8
10_OUTLINE
  5
52AF
 10
357.518
 20
3741.75
 30
0.000000
  70
    32
  0
VERTEX
  8
10_OUTLINE
  5
52B0
 10
357.455
 20
3740.82
 30
0.000000
  70
    32
  0
VERTEX
  8
10_OUTLINE
  5
52B1
 10
357.397
 20
3739.88
 30
0.000000
  70
    32
  0
VERTEX
  8
10_OUTLINE
  5
52B2
 10
357.344
 20
3738.95
 30
0.000000
  70
    32
  0
VERTEX
  8
10_OUTLINE
  5
52B3
 10
357.296
 20
3738.01
 30
0.000000
  70
    32
  0
VERTEX
  8
10_OUTLINE
  5
52B4
 10
357.253
 20
3737.07
 30
0.000000
  70
    32
  0
VERTEX
  8
10_OUTLINE
  5
52B5
 10
357.215
 20
3736.14
 30
0.000000
  70
    32
  0
VERTEX
  8
10_OUTLINE
  5
52B6
 10
357.182
 20
3735.21
 30
0.000000
  70
    32
  0
VERTEX
  8
10_OUTLINE
  5
52B7
 10
357.153
 20
3734.27
 30
0.000000
  70
    32
  0
VERTEX
  8
10_OUTLINE
  5
52B8
 10
357.129
 20
3733.34
 30
0.000000
  70
    32
  0
VERTEX
  8
10_OUTLINE
  5
52B9
 10
357.109
 20
3732.41
 30
0.000000
  70
    32
  0
VERTEX
  8
10_OUTLINE
  5
52BA
 10
357.094
 20
3731.47
 30
0.000000
  70
    32
  0
VERTEX
  8
10_OUTLINE
  5
52BB
 10
357.084
 20
3730.54
 30
0.000000
  70
    32
  0
VERTEX
  8
10_OUTLINE
  5
52BC
 10
357.077
 20
3729.61
 30
0.000000
  70
    32
  0
VERTEX
  8
10_OUTLINE
  5
52BD
 10
357.075
 20
3728.69
 30
0.000000
  70
    32
  0
SEQEND
  8
10_OUTLINE
  5
52BE
  0
DIMENSION
  5
47E1
  8
50_DIMENSIONS
  2
*D1
 10
515.45843442237981
 20
3848.8073894457912
 30
0.0
 11
436.26681775571433
 21
3848.8073894457912
 31
0.0
 70
     0
 13
357.0752010890489
 23
3728.685127559494
 33
0.0
 14
515.45843442237981
 24
3811.685127559494
 34
0.0
1001
ACAD
1000
DSTYLE
1002
{
1070
     4
1000
"
1070
   143
1040
0.03937
1070
   170
1070
     1
1002
}
  0
DIMENSION
  5
47EF
  8
50_DIMENSIONS
  2
*D2
 10
336.16002009104221
 20
3835.6851275594931
 30
0.0
 11
336.16002009104159
 21
3767.1851275594931
 31
0.0
 70
     0
 13
362.07520108904879
 23
3698.6851275594931
 33
0.0
 14
441.40853442238563
 24
3835.6851275594931
 34
0.0
 50
90.0
1001
ACAD
1000
DSTYLE
1002
{
1070
     4
1000
"
1070
   143
1040
0.03937
1070
   170
1070
     1
1002
}
  0
CIRCLE
  5
488F
  8
10_OUTLINE
 62
     2
 10
376.49186775571758
 20
3713.6851275594931
 30
0.0
 40
3.2000000000000002
  0
CIRCLE
  5
4890
  8
10_OUTLINE
 62
     2
 10
402.99186775571758
 20
3713.6851275594931
 30
0.0
 40
3.2000000000000002
  0
TEXT
  5
5143
  8
01_FRAME
 62
     8
 10
491.7410558447159
 20
3700.7776624330759
 30
0.0
 40
1.3999999999999999
  1
1:1
  7
MECHTRONICS
  0
LINE
  5
5144
  8
01_FRAME
 62
     7
 10
488.97479502083979
 20
3678.5721700454828
 30
0.0
 11
490.15887695860289
 21
3678.5721700454828
 31
0.0
  0
LINE
  5
5145
  8
01_FRAME
 62
     7
 10
489.76927580103671
 20
3683.6305881989319
 30
0.0
 11
488.97479502083979
 21
3678.5721700454828
 31
0.0
  0
LINE
  5
5146
  8
01_FRAME
 62
     7
 10
487.9931528778157
 20
3680.154606100677
 30
0.0
 11
489.76927580103671
 21
3683.6305881989319
 31
0.0
  0
LINE
  5
5147
  8
01_FRAME
 62
     7
 10
491.03356974670311
 20
3684.6753032628881
 30
0.0
 11
489.18487408126617
 21
3684.6753032628881
 31
0.0
  0
LINE
  5
5148
  8
01_FRAME
 62
     7
 10
472.82221185216861
 20
3681.0619143130079
 30
0.0
 11
475.3444978723378
 21
3681.0619143130079
 31
0.0
  0
LINE
  5
5149
  8
01_FRAME
 62
     7
 10
475.11380098065331
 20
3680.0316904029551
 30
0.0
 11
473.06828853221077
 21
3680.0316904029551
 31
0.0
  0
LINE
  5
514A
  8
01_FRAME
 62
     7
 10
472.52999577389579
 20
3679.2474900909428
 30
0.0
 11
474.5969462896079
 21
3679.2474900909428
 31
0.0
  0
LINE
  5
514B
  8
01_FRAME
 62
     7
 10
474.71249969106759
 20
3683.3222563790509
 30
0.0
 11
473.22208644894869
 21
3683.3222563790509
 31
0.0
  0
LINE
  5
514C
  8
01_FRAME
 62
     7
 10
472.92541038854648
 20
3681.723098698134
 30
0.0
 11
474.41665892832191
 21
3681.723098698134
 31
0.0
  0
LINE
  5
514D
  8
01_FRAME
 62
     7
 10
474.23368364980848
 20
3682.5490928459708
 30
0.0
 11
473.28221217501653
 21
3682.5490928459708
 31
0.0
  0
LINE
  5
514E
  8
01_FRAME
 62
     7
 10
465.74379177645972
 20
3678.5721700454828
 30
0.0
 11
466.46569978128502
 21
3683.6536333795339
 31
0.0
  0
LINE
  5
514F
  8
01_FRAME
 62
     7
 10
467.35949065071742
 20
3684.6753032628881
 30
0.0
 11
465.48405767141651
 21
3684.6753032628881
 31
0.0
  0
LINE
  5
5150
  8
01_FRAME
 62
     7
 10
465.48405767141651
 20
3684.6753032628881
 30
0.0
 11
464.6208237321149
 21
3678.5721700454828
 31
0.0
  0
LINE
  5
5151
  8
01_FRAME
 62
     7
 10
464.6208237321149
 20
3678.5721700454828
 30
0.0
 11
465.74379177645972
 21
3678.5721700454828
 31
0.0
  0
LINE
  5
5152
  8
01_FRAME
 62
     7
 10
469.97211016622128
 20
3683.6305881989319
 30
0.0
 11
469.17762938602442
 21
3678.5721700454828
 31
0.0
  0
LINE
  5
5153
  8
01_FRAME
 62
     7
 10
470.36171132378752
 20
3678.5721700454828
 30
0.0
 11
471.23640411188859
 21
3684.6753032628881
 31
0.0
  0
LINE
  5
5154
  8
01_FRAME
 62
     7
 10
469.17762938602442
 20
3678.5721700454828
 30
0.0
 11
470.36171132378752
 21
3678.5721700454828
 31
0.0
  0
LINE
  5
5155
  8
01_FRAME
 62
     7
 10
471.23640411188859
 20
3684.6753032628881
 30
0.0
 11
469.38770844645069
 21
3684.6753032628881
 31
0.0
  0
LINE
  5
5156
  8
01_FRAME
 62
     7
 10
468.19598724300027
 20
3680.154606100677
 30
0.0
 11
469.97211016622128
 21
3683.6305881989319
 31
0.0
  0
LINE
  5
5157
  8
01_FRAME
 62
     7
 10
466.46569978128502
 20
3683.6536333795339
 30
0.0
 11
467.17614893731172
 21
3680.154606100677
 31
0.0
  0
LINE
  5
5158
  8
01_FRAME
 62
     7
 10
467.91333544035808
 20
3681.760087336475
 30
0.0
 11
467.35949065071742
 21
3684.6753032628881
 31
0.0
  0
LINE
  5
5159
  8
01_FRAME
 62
     7
 10
469.38770844645069
 20
3684.6753032628881
 30
0.0
 11
467.91333544035808
 21
3681.760087336475
 31
0.0
  0
LINE
  5
515A
  8
01_FRAME
 62
     7
 10
467.17614893731172
 20
3680.154606100677
 30
0.0
 11
468.19598724300027
 21
3680.154606100677
 31
0.0
  0
LINE
  5
515B
  8
01_FRAME
 62
     7
 10
471.9763232603778
 20
3682.4150442845962
 30
0.0
 11
471.65334760538968
 21
3680.293090506957
 31
0.0
  0
LINE
  5
515C
  8
01_FRAME
 62
     7
 10
472.72320496773011
 20
3680.2700300942561
 30
0.0
 11
472.82221185216861
 21
3681.0619143130079
 31
0.0
  0
LINE
  5
515D
  8
01_FRAME
 62
     7
 10
472.98945171613337
 20
3682.259270331559
 30
0.0
 11
472.92541038854648
 21
3681.723098698134
 31
0.0
  0
LINE
  5
515E
  8
01_FRAME
 62
     7
 10
481.37343014586759
 20
3682.4127839728012
 30
0.0
 11
482.8192840931884
 21
3682.4127839728012
 31
0.0
  0
LINE
  5
515F
  8
01_FRAME
 62
     7
 10
479.19959091810199
 20
3679.585772558974
 30
0.0
 11
479.24573028317678
 21
3679.985560951382
 31
0.0
  0
LINE
  5
5160
  8
01_FRAME
 62
     7
 10
480.54522256815159
 20
3684.9342397122432
 30
0.0
 11
479.83399342833462
 21
3679.2295668757379
 31
0.0
  0
LINE
  5
5161
  8
01_FRAME
 62
     7
 10
480.92423282232409
 20
3679.2295668757379
 30
0.0
 11
481.37343014586759
 21
3682.4127839728012
 31
0.0
  0
LINE
  5
5162
  8
01_FRAME
 62
     7
 10
475.06766158242277
 20
3679.585772558974
 30
0.0
 11
475.11380098065331
 21
3680.0316904029551
 31
0.0
  0
LINE
  5
5163
  8
01_FRAME
 62
     7
 10
477.76927016976572
 20
3679.2474900909428
 30
0.0
 11
478.72887562528882
 21
3679.2474900909428
 31
0.0
  0
LINE
  5
5164
  8
01_FRAME
 62
     7
 10
476.96952094304982
 20
3679.2474900909428
 30
0.0
 11
477.76927016976572
 21
3679.2474900909428
 31
0.0
  0
LINE
  5
5165
  8
01_FRAME
 62
     7
 10
479.83399342833462
 20
3679.2295668757379
 30
0.0
 11
480.92423282232409
 21
3679.2295668757379
 31
0.0
  0
LINE
  5
5166
  8
01_FRAME
 62
     7
 10
479.83399342833462
 20
3679.2295668757379
 30
0.0
 11
479.83399342833462
 21
3679.2295668757379
 31
0.0
  0
LINE
  5
5167
  8
01_FRAME
 62
     7
 10
479.18423479788868
 20
3683.3222563790509
 30
0.0
 11
477.66161161810271
 21
3683.3222563790509
 31
0.0
  0
LINE
  5
5168
  8
01_FRAME
 62
     7
 10
477.72313080469081
 20
3682.553432573
 30
0.0
 11
479.66197132367199
 21
3682.553432573
 31
0.0
  0
LINE
  5
5169
  8
01_FRAME
 62
     7
 10
479.25320767058071
 20
3680.0316904029551
 30
0.0
 11
477.76927016976572
 21
3680.0316904029551
 31
0.0
  0
LINE
  5
516A
  8
01_FRAME
 62
     7
 10
475.3444978723378
 20
3681.0619143130079
 30
0.0
 11
475.56060804473651
 21
3682.512626865544
 31
0.0
  0
LINE
  5
516B
  8
01_FRAME
 62
     7
 10
475.3444978723378
 20
3681.0619143130079
 30
0.0
 11
475.3444978723378
 21
3681.0619143130079
 31
0.0
  0
LINE
  5
516C
  8
01_FRAME
 62
     7
 10
474.41665892832191
 20
3681.723098698134
 30
0.0
 11
474.49922957147152
 21
3682.3231812413319
 31
0.0
  0
LINE
  5
516D
  8
01_FRAME
 62
     7
 10
476.41584842953267
 20
3682.4150442845962
 30
0.0
 11
476.16977174948948
 21
3680.7543847905872
 31
0.0
  0
LINE
  5
516E
  8
01_FRAME
 62
     7
 10
477.16219615989269
 20
3680.2700300942561
 30
0.0
 11
477.430914726418
 21
3682.2612794902302
 31
0.0
  0
LINE
  5
516F
  8
01_FRAME
 62
     7
 10
476.16977174948948
 20
3680.7543847905872
 30
0.0
 11
476.0928727745428
 21
3680.293090506957
 31
0.0
  0
LINE
  5
5170
  8
01_FRAME
 62
     7
 10
477.76927016976572
 20
3680.0316904029551
 30
0.0
 11
477.5072797243734
 21
3680.0316904029551
 31
0.0
  0
LINE
  5
5171
  8
01_FRAME
 62
     7
 10
479.66197132367199
 20
3682.553432573
 30
0.0
 11
479.70506125544358
 21
3682.8192627103708
 31
0.0
  0
LINE
  5
5172
  8
01_FRAME
 62
     7
 10
479.24573028317678
 20
3679.985560951382
 30
0.0
 11
479.25320767058071
 21
3680.0316904029551
 31
0.0
  0
LINE
  5
5173
  8
01_FRAME
 62
     7
 10
481.46670612719618
 20
3682.8917658056312
 30
0.0
 11
481.71032813852491
 21
3684.9342397122432
 31
0.0
  0
LINE
  5
5174
  8
01_FRAME
 62
     7
 10
481.71032813852491
 20
3684.9342397122432
 30
0.0
 11
480.54522256815159
 21
3684.9342397122432
 31
0.0
  0
LINE
  5
5175
  8
01_FRAME
 62
     7
 10
483.55390890069208
 20
3679.2295668757379
 30
0.0
 11
483.96068720699219
 21
3682.447371292375
 31
0.0
  0
LINE
  5
5176
  8
01_FRAME
 62
     7
 10
482.8192840931884
 20
3682.4127839728012
 30
0.0
 11
482.41687813817367
 21
3679.2295668757379
 31
0.0
  0
LINE
  5
5177
  8
01_FRAME
 62
     7
 10
485.54095741127509
 20
3678.5721700454828
 30
0.0
 11
486.2628654161004
 21
3683.6536333795339
 31
0.0
  0
LINE
  5
5178
  8
01_FRAME
 62
     7
 10
485.28122330623103
 20
3684.6753032628881
 30
0.0
 11
484.41798936692942
 21
3678.5721700454828
 31
0.0
  0
LINE
  5
5179
  8
01_FRAME
 62
     7
 10
482.41687813817367
 20
3679.2295668757379
 30
0.0
 11
483.55390890069208
 21
3679.2295668757379
 31
0.0
  0
LINE
  5
517A
  8
01_FRAME
 62
     7
 10
484.41798936692942
 20
3678.5721700454828
 30
0.0
 11
485.54095741127509
 21
3678.5721700454828
 31
0.0
  0
LINE
  5
517B
  8
01_FRAME
 62
     7
 10
487.1566562855329
 20
3684.6753032628881
 30
0.0
 11
485.28122330623103
 21
3684.6753032628881
 31
0.0
  0
LINE
  5
517C
  8
01_FRAME
 62
     7
 10
486.2628654161004
 20
3683.6536333795339
 30
0.0
 11
486.97331457212709
 21
3680.154606100677
 31
0.0
  0
LINE
  5
517D
  8
01_FRAME
 62
     7
 10
487.7105010751734
 20
3681.760087336475
 30
0.0
 11
487.1566562855329
 21
3684.6753032628881
 31
0.0
  0
LINE
  5
517E
  8
01_FRAME
 62
     7
 10
489.18487408126617
 20
3684.6753032628881
 30
0.0
 11
487.7105010751734
 21
3681.760087336475
 31
0.0
  0
LINE
  5
517F
  8
01_FRAME
 62
     7
 10
486.97331457212709
 20
3680.154606100677
 30
0.0
 11
487.9931528778157
 21
3680.154606100677
 31
0.0
  0
LINE
  5
5180
  8
01_FRAME
 62
     7
 10
497.92031532914331
 20
3684.5194112098602
 30
0.0
 11
496.88374858803002
 21
3684.4013847760721
 31
0.0
  0
LINE
  5
5181
  8
01_FRAME
 62
     7
 10
497.32824587962978
 20
3680.267819714687
 30
0.0
 11
497.6588588607425
 21
3682.5973516118461
 31
0.0
  0
LINE
  5
5182
  8
01_FRAME
 62
     7
 10
497.13594589078599
 20
3679.2452797113729
 30
0.0
 11
498.20320989453973
 21
3679.2452797113729
 31
0.0
  0
LINE
  5
5183
  8
01_FRAME
 62
     7
 10
494.90421598423609
 20
3679.2614250277129
 30
0.0
 11
494.86409543896082
 21
3679.7160266326841
 31
0.0
  0
ARC
  5
5184
  8
01_FRAME
 62
     7
 10
495.8602236314378
 20
3679.8039392265018
 30
0.0
 40
1.0
 50
171.34562025558941
 51
185.0435314678453
  0
LINE
  5
5185
  8
01_FRAME
 62
     7
 10
490.15887695860289
 20
3678.5721700454828
 30
0.0
 11
491.03356974670311
 21
3684.6753032628881
 31
0.0
  0
LINE
  5
5186
  8
01_FRAME
 62
     7
 10
492.2588916240453
 20
3679.2460485217512
 30
0.0
 11
493.2431983773709
 21
3679.2460485217512
 31
0.0
  0
LINE
  5
5187
  8
01_FRAME
 62
     7
 10
493.84301028911938
 20
3679.2614250277129
 30
0.0
 11
494.90421598423609
 21
3679.2614250277129
 31
0.0
  0
LINE
  5
5188
  8
01_FRAME
 62
     7
 10
497.13594589078508
 20
3679.2452797113729
 30
0.0
 11
497.21284486573268
 21
3679.2452797113729
 31
0.0
  0
LINE
  5
5189
  8
01_FRAME
 62
     7
 10
494.02756781572913
 20
3681.7062848005771
 30
0.0
 11
492.55110770231801
 21
3681.7062848005771
 31
0.0
  0
LINE
  5
518A
  8
01_FRAME
 62
     7
 10
491.76673826396069
 20
3682.5519910038088
 30
0.0
 11
493.84473543308968
 21
3682.5519910038088
 31
0.0
  0
LINE
  5
518B
  8
01_FRAME
 62
     7
 10
494.41499964603429
 20
3683.3361913158192
 30
0.0
 11
492.28965123391811
 21
3683.3361913158192
 31
0.0
  0
LINE
  5
518C
  8
01_FRAME
 62
     7
 10
491.81287766219032
 20
3682.997908847788
 30
0.0
 11
491.76673826396069
 21
3682.5519910038088
 31
0.0
  0
LINE
  5
518D
  8
01_FRAME
 62
     7
 10
492.64332705091749
 20
3679.9046249262192
 30
0.0
 11
493.38437693552669
 21
3679.8901338054711
 31
0.0
  0
LINE
  5
518E
  8
01_FRAME
 62
     7
 10
493.63233558457028
 20
3680.9962896763482
 30
0.0
 11
492.8445998705443
 21
3680.9962896763482
 31
0.0
  0
LINE
  5
518F
  8
01_FRAME
 62
     7
 10
495.99241307612971
 20
3683.3507989782461
 30
0.0
 11
495.85942309234321
 21
3682.5973516118461
 31
0.0
  0
LINE
  5
5190
  8
01_FRAME
 62
     7
 10
494.87160962053582
 20
3679.9544129366582
 30
0.0
 11
495.26310799970321
 21
3682.5265618023132
 31
0.0
  0
LINE
  5
5191
  8
01_FRAME
 62
     7
 10
493.78234820607997
 20
3680.2765638025821
 30
0.0
 11
493.87167340562212
 21
3680.7703780717088
 31
0.0
  0
LINE
  5
5192
  8
01_FRAME
 62
     7
 10
494.10446675752019
 20
3682.2598379541942
 30
0.0
 11
494.02756781572913
 21
3681.7062848005771
 31
0.0
  0
LINE
  5
5193
  8
01_FRAME
 62
     7
 10
494.11028135475277
 20
3682.3260793991699
 30
0.0
 11
494.10446675752019
 21
3682.2598379541942
 31
0.0
  0
LINE
  5
5194
  8
01_FRAME
 62
     7
 10
496.61303295398432
 20
3682.5973516118461
 30
0.0
 11
496.25929772227897
 21
3680.290880127387
 31
0.0
  0
LINE
  5
5195
  8
01_FRAME
 62
     7
 10
495.85942309234321
 20
3682.5973516118461
 30
0.0
 11
496.61303295398432
 21
3682.5973516118461
 31
0.0
  0
LINE
  5
5196
  8
01_FRAME
 62
     7
 10
496.88374858803002
 20
3684.4013847760721
 30
0.0
 11
496.72069150564732
 21
3683.3507989782461
 31
0.0
  0
LINE
  5
5197
  8
01_FRAME
 62
     7
 10
496.72069150564732
 20
3683.3507989782461
 30
0.0
 11
495.99241307612971
 21
3683.3507989782461
 31
0.0
  0
LINE
  5
5198
  8
01_FRAME
 62
     7
 10
498.6739251873538
 20
3679.5835621794049
 30
0.0
 11
498.72006455585921
 21
3680.0294800233842
 31
0.0
  0
LINE
  5
5199
  8
01_FRAME
 62
     7
 10
499.04304021084829
 20
3682.5973516118461
 30
0.0
 11
499.13531897415362
 21
3683.3507989782461
 31
0.0
  0
LINE
  5
519A
  8
01_FRAME
 62
     7
 10
498.72006455585921
 20
3680.0294800233842
 30
0.0
 11
497.67332944411248
 21
3680.0294800233842
 31
0.0
  0
LINE
  5
519B
  8
01_FRAME
 62
     7
 10
497.6588588607425
 20
3682.5973516118461
 30
0.0
 11
499.04304021084829
 21
3682.5973516118461
 31
0.0
  0
LINE
  5
519C
  8
01_FRAME
 62
     7
 10
497.75113762404777
 20
3683.3507989782461
 30
0.0
 11
497.92031532914331
 21
3684.5194112098602
 31
0.0
  0
LINE
  5
519D
  8
01_FRAME
 62
     7
 10
499.13531897415362
 20
3683.3507989782461
 30
0.0
 11
497.75113762404777
 21
3683.3507989782461
 31
0.0
  0
ARC
  5
519E
  8
01_FRAME
 62
     7
 10
473.34209612490002
 20
3682.2085888577221
 30
0.0
 40
0.356267723523487
 50
129.9788673075646
 51
171.82154662074871
  0
ARC
  5
519F
  8
01_FRAME
 62
     7
 10
473.2907318370622
 20
3682.2824047294562
 30
0.0
 40
0.2668241670683093
 50
91.829758024394408
 51
131.71149876918361
  0
ARC
  5
51A0
  8
01_FRAME
 62
     7
 10
477.78301475457522
 20
3682.2129285847532
 30
0.0
 40
0.356267723523487
 50
129.9788673075646
 51
171.82154662074871
  0
ARC
  5
51A1
  8
01_FRAME
 62
     7
 10
477.73165046673751
 20
3682.2867444564849
 30
0.0
 40
0.2668241670683093
 50
91.829758024394408
 51
131.71149876918361
  0
ARC
  5
51A2
  8
01_FRAME
 62
     7
 10
474.24678770011411
 20
3682.2754517521571
 30
0.0
 40
0.2739546757357922
 50
41.694258406644231
 51
92.74167022804761
  0
ARC
  5
51A3
  8
01_FRAME
 62
     7
 10
474.30967280398869
 20
3682.3314690328211
 30
0.0
 40
0.1897378601816721
 50
357.49651121804118
 51
41.69425840668103
  0
ARC
  5
51A4
  8
01_FRAME
 62
     7
 10
493.85783948339542
 20
3682.2783499099951
 30
0.0
 40
0.2739546757357922
 50
41.694258406644231
 51
92.74167022804761
  0
ARC
  5
51A5
  8
01_FRAME
 62
     7
 10
493.92072458727
 20
3682.3343671906591
 30
0.0
 40
0.1897378601816721
 50
357.49651121804118
 51
41.69425840668103
  0
ARC
  5
51A6
  8
01_FRAME
 62
     7
 10
473.0661124271478
 20
3680.530039999996
 30
0.0
 40
0.4983543481347475
 50
242.0549458700896
 51
270.25018750738548
  0
ARC
  5
51A7
  8
01_FRAME
 62
     7
 10
472.92902789579648
 20
3680.2716239546639
 30
0.0
 40
0.2058290992756684
 50
180.44368064352511
 51
242.0549458700896
  0
ARC
  5
51A8
  8
01_FRAME
 62
     7
 10
477.50510361930958
 20
3680.530039999996
 30
0.0
 40
0.4983543481347475
 50
242.0549458700896
 51
270.25018750738548
  0
ARC
  5
51A9
  8
01_FRAME
 62
     7
 10
477.36801908795911
 20
3680.2716239546639
 30
0.0
 40
0.2058290992756684
 50
180.44368064352511
 51
242.0549458700896
  0
ARC
  5
51AA
  8
01_FRAME
 62
     7
 10
472.95033645912162
 20
3682.2603182436169
 30
0.0
 40
0.9862260689533767
 50
116.4343118930764
 51
170.97374799137759
  0
ARC
  5
51AB
  8
01_FRAME
 62
     7
 10
473.27635091165899
 20
3681.6045527300739
 30
0.0
 40
1.7185605772340431
 50
91.809445418565659
 51
116.4343118930764
  0
ARC
  5
51AC
  8
01_FRAME
 62
     7
 10
477.38986162827553
 20
3682.2603182436169
 30
0.0
 40
0.9862260689533767
 50
116.4343118930764
 51
170.97374799137759
  0
ARC
  5
51AD
  8
01_FRAME
 62
     7
 10
477.71587608081302
 20
3681.6045527300739
 30
0.0
 40
1.7185605772340431
 50
91.809445418565659
 51
116.4343118930764
  0
ARC
  5
51AE
  8
01_FRAME
 62
     7
 10
474.61324437998661
 20
3682.2203342095449
 30
0.0
 40
1.1063833352066721
 50
44.532575507597819
 51
84.852989749608284
  0
ARC
  5
51AF
  8
01_FRAME
 62
     7
 10
474.9934571530726
 20
3682.5943934225452
 30
0.0
 40
0.5730147500357465
 50
351.79615361501862
 51
44.532575507597819
  0
ARC
  5
51B0
  8
01_FRAME
 62
     7
 10
472.5451571786358
 20
3680.136020038613
 30
0.0
 40
0.8886592913478247
 50
213.378140144387
 51
269.02243001409983
  0
ARC
  5
51B1
  8
01_FRAME
 62
     7
 10
472.6000398365
 20
3680.1721784482052
 30
0.0
 40
0.954382473852452
 50
172.72155707448491
 51
213.378140144387
  0
ARC
  5
51B2
  8
01_FRAME
 62
     7
 10
474.59391715015278
 20
3679.8039626984919
 30
0.0
 40
0.5564808519953198
 50
269.68811547988628
 51
309.85159843335532
  0
ARC
  5
51B3
  8
01_FRAME
 62
     7
 10
474.73509891305417
 20
3679.6348210500209
 30
0.0
 40
0.3361602051582644
 50
309.85159843335532
 51
351.61013221801829
  0
ARC
  5
51B4
  8
01_FRAME
 62
     7
 10
476.98468234778881
 20
3680.136020038613
 30
0.0
 40
0.8886592913478247
 50
213.378140144387
 51
269.02243001409983
  0
ARC
  5
51B5
  8
01_FRAME
 62
     7
 10
477.03956500565403
 20
3680.1721784482052
 30
0.0
 40
0.954382473852452
 50
172.72155707448491
 51
213.378140144387
  0
ARC
  5
51B6
  8
01_FRAME
 62
     7
 10
478.72584648583199
 20
3679.8039626984919
 30
0.0
 40
0.5564808519953198
 50
269.68811547988628
 51
309.85159843335532
  0
ARC
  5
51B7
  8
01_FRAME
 62
     7
 10
478.86702824873242
 20
3679.6348210500209
 30
0.0
 40
0.3361602051582644
 50
309.85159843335532
 51
351.61013221801829
  0
ARC
  5
51B8
  8
01_FRAME
 62
     7
 10
479.1994404574412
 20
3682.8007276783719
 30
0.0
 40
0.5217503212408174
 50
29.017138568443521
 51
91.670039206039846
  0
ARC
  5
51B9
  8
01_FRAME
 62
     7
 10
479.29992988071501
 20
3682.8564691764641
 30
0.0
 40
0.4068362716240224
 50
354.75278767927108
 51
29.017138568443521
  0
LINE
  5
51BA
  8
01_FRAME
 62
     7
 10
500.6595929725687
 20
3681.0619143130079
 30
0.0
 11
503.18187899273789
 21
3681.0619143130079
 31
0.0
  0
LINE
  5
51BB
  8
01_FRAME
 62
     7
 10
502.9511821010534
 20
3680.0316904029551
 30
0.0
 11
500.90566965261092
 21
3680.0316904029551
 31
0.0
  0
LINE
  5
51BC
  8
01_FRAME
 62
     7
 10
500.36737689429589
 20
3679.2474900909428
 30
0.0
 11
502.434327410008
 21
3679.2474900909428
 31
0.0
  0
LINE
  5
51BD
  8
01_FRAME
 62
     7
 10
502.54988081146769
 20
3683.3222563790509
 30
0.0
 11
501.05946756934878
 21
3683.3222563790509
 31
0.0
  0
LINE
  5
51BE
  8
01_FRAME
 62
     7
 10
500.76279150894658
 20
3681.723098698134
 30
0.0
 11
502.254040048722
 21
3681.723098698134
 31
0.0
  0
LINE
  5
51BF
  8
01_FRAME
 62
     7
 10
502.07106477020858
 20
3682.5490928459708
 30
0.0
 11
501.11959329541662
 21
3682.5490928459708
 31
0.0
  0
LINE
  5
51C0
  8
01_FRAME
 62
     7
 10
499.81370438077789
 20
3682.4150442845962
 30
0.0
 11
499.49072872578978
 21
3680.293090506957
 31
0.0
  0
LINE
  5
51C1
  8
01_FRAME
 62
     7
 10
500.56058608813021
 20
3680.2700300942561
 30
0.0
 11
500.6595929725687
 21
3681.0619143130079
 31
0.0
  0
LINE
  5
51C2
  8
01_FRAME
 62
     7
 10
500.82683283653353
 20
3682.259270331559
 30
0.0
 11
500.76279150894658
 21
3681.723098698134
 31
0.0
  0
LINE
  5
51C3
  8
01_FRAME
 62
     7
 10
502.90504270282293
 20
3679.585772558974
 30
0.0
 11
502.9511821010534
 21
3680.0316904029551
 31
0.0
  0
LINE
  5
51C4
  8
01_FRAME
 62
     7
 10
503.18187899273789
 20
3681.0619143130079
 30
0.0
 11
503.39798916513661
 21
3682.512626865544
 31
0.0
  0
LINE
  5
51C5
  8
01_FRAME
 62
     7
 10
503.18187899273789
 20
3681.0619143130079
 30
0.0
 11
503.18187899273789
 21
3681.0619143130079
 31
0.0
  0
LINE
  5
51C6
  8
01_FRAME
 62
     7
 10
502.254040048722
 20
3681.723098698134
 30
0.0
 11
502.33661069187161
 21
3682.3231812413319
 31
0.0
  0
ARC
  5
51C7
  8
01_FRAME
 62
     7
 10
501.17947724530001
 20
3682.2085888577221
 30
0.0
 40
0.356267723523487
 50
129.9788673075646
 51
171.82154662074871
  0
ARC
  5
51C8
  8
01_FRAME
 62
     7
 10
501.12811295746229
 20
3682.2824047294562
 30
0.0
 40
0.2668241670683093
 50
91.829758024394408
 51
131.71149876918361
  0
ARC
  5
51C9
  8
01_FRAME
 62
     7
 10
502.08416882051421
 20
3682.2754517521571
 30
0.0
 40
0.2739546757357922
 50
41.694258406644231
 51
92.74167022804761
  0
ARC
  5
51CA
  8
01_FRAME
 62
     7
 10
502.14705392438879
 20
3682.3314690328211
 30
0.0
 40
0.1897378601816721
 50
357.49651121804118
 51
41.69425840668103
  0
ARC
  5
51CB
  8
01_FRAME
 62
     7
 10
500.9034935475479
 20
3680.530039999996
 30
0.0
 40
0.4983543481347475
 50
242.0549458700896
 51
270.25018750738548
  0
ARC
  5
51CC
  8
01_FRAME
 62
     7
 10
500.76640901619658
 20
3680.2716239546639
 30
0.0
 40
0.2058290992756684
 50
180.44368064352511
 51
242.0549458700896
  0
ARC
  5
51CD
  8
01_FRAME
 62
     7
 10
500.7877175795216
 20
3682.2603182436169
 30
0.0
 40
0.9862260689533767
 50
116.4343118930764
 51
170.97374799137759
  0
ARC
  5
51CE
  8
01_FRAME
 62
     7
 10
501.1137320320592
 20
3681.6045527300739
 30
0.0
 40
1.7185605772340431
 50
91.809445418565659
 51
116.4343118930764
  0
ARC
  5
51CF
  8
01_FRAME
 62
     7
 10
502.45062550038671
 20
3682.2203342095449
 30
0.0
 40
1.1063833352066721
 50
44.532575507597819
 51
84.852989749608284
  0
ARC
  5
51D0
  8
01_FRAME
 62
     7
 10
502.83083827347269
 20
3682.5943934225452
 30
0.0
 40
0.5730147500357465
 50
351.79615361501862
 51
44.532575507597819
  0
ARC
  5
51D1
  8
01_FRAME
 62
     7
 10
500.3825382990359
 20
3680.136020038613
 30
0.0
 40
0.8886592913478247
 50
213.378140144387
 51
269.02243001409983
  0
ARC
  5
51D2
  8
01_FRAME
 62
     7
 10
500.4374209569001
 20
3680.1721784482052
 30
0.0
 40
0.954382473852452
 50
172.72155707448491
 51
213.378140144387
  0
ARC
  5
51D3
  8
01_FRAME
 62
     7
 10
502.43129827055287
 20
3679.8039626984919
 30
0.0
 40
0.5564808519953198
 50
269.68811547988628
 51
309.85159843335532
  0
ARC
  5
51D4
  8
01_FRAME
 62
     7
 10
502.57248003345421
 20
3679.6348210500209
 30
0.0
 40
0.3361602051582644
 50
309.85159843335532
 51
351.61013221801829
  0
LINE
  5
51D5
  8
01_FRAME
 62
     7
 10
482.63648173418147
 20
3683.3222563790509
 30
0.0
 11
483.27427605057937
 21
3683.3222563790509
 31
0.0
  0
ARC
  5
51D6
  8
01_FRAME
 62
     7
 10
483.08835858749768
 20
3682.5058884736782
 30
0.0
 40
0.8742891288908129
 50
356.16225827570821
 51
57.030568872306567
  0
ARC
  5
51D7
  8
01_FRAME
 62
     7
 10
483.28379205827929
 20
3682.8071814275681
 30
0.0
 40
0.515162848085838
 50
57.030568872306567
 51
91.058418890025422
  0
ARC
  5
51D8
  8
01_FRAME
 62
     7
 10
482.71369209873831
 20
3681.0353789791529
 30
0.0
 40
2.2881804305072628
 50
91.933705877925576
 51
118.1284095955113
  0
ARC
  5
51D9
  8
01_FRAME
 62
     7
 10
481.83796378692341
 20
3682.673516922986
 30
0.0
 40
0.4306562720799454
 50
118.1284095955113
 51
149.5502773796288
  0
ARC
  5
51DA
  8
01_FRAME
 62
     7
 10
498.20018075508381
 20
3679.801752318921
 30
0.0
 40
0.5564808519953198
 50
269.68811547988628
 51
309.85159843335532
  0
ARC
  5
51DB
  8
01_FRAME
 62
     7
 10
498.34136251798418
 20
3679.6326106704528
 30
0.0
 40
0.3361602051582644
 50
309.85159843335532
 51
351.61013221801829
  0
ARC
  5
51DC
  8
01_FRAME
 62
     7
 10
497.15110729552509
 20
3680.1338096590421
 30
0.0
 40
0.8886592913478247
 50
213.378140144387
 51
269.02243001409983
  0
ARC
  5
51DD
  8
01_FRAME
 62
     7
 10
497.20598995338929
 20
3680.1699680686338
 30
0.0
 40
0.954382473852452
 50
172.72155707448491
 51
213.378140144387
  0
ARC
  5
51DE
  8
01_FRAME
 62
     7
 10
497.67115333904673
 20
3680.5278296204251
 30
0.0
 40
0.4983543481347475
 50
242.0549458700896
 51
270.25018750738548
  0
ARC
  5
51DF
  8
01_FRAME
 62
     7
 10
497.53406880769541
 20
3680.2694135750949
 30
0.0
 40
0.2058290992756684
 50
180.44368064352511
 51
242.0549458700896
  0
ARC
  5
51E0
  8
01_FRAME
 62
     7
 10
494.31574433495331
 20
3682.2342691463141
 30
0.0
 40
1.1063833352066721
 50
44.532575507597819
 51
84.852989749608284
  0
ARC
  5
51E1
  8
01_FRAME
 62
     7
 10
494.69595710803929
 20
3682.6083283593139
 30
0.0
 40
0.5730147500357465
 50
351.79615361501862
 51
44.532575507597819
  0
ARC
  5
51E2
  8
01_FRAME
 62
     7
 10
492.28832353983819
 20
3682.783841493505
 30
0.0
 40
0.5523514180140796
 50
89.862277278542265
 51
130.98420927748739
  0
ARC
  5
51E3
  8
01_FRAME
 62
     7
 10
492.15031699426032
 20
3682.9426882591879
 30
0.0
 40
0.3419277938878447
 50
130.98420927748739
 51
170.7061550554026
  0
ARC
  5
51E4
  8
01_FRAME
 62
     7
 10
494.78747851205992
 20
3679.755715645053
 30
0.0
 40
1.0659941081150781
 50
189.2518512240257
 51
207.625462433428
  0
ARC
  5
51E5
  8
01_FRAME
 62
     7
 10
493.11573201688998
 20
3679.9586422473772
 30
0.0
 40
0.7239043381937801
 50
280.14161684226292
 51
328.86389698780192
  0
ARC
  5
51E6
  8
01_FRAME
 62
     7
 10
492.57789213418027
 20
3680.4396306869398
 30
0.0
 40
1.2669372712889659
 50
91.211385343645034
 51
150.30133372254059
  0
ARC
  5
51E7
  8
01_FRAME
 62
     7
 10
493.0968746413979
 20
3680.143624302154
 30
0.0
 40
1.864400761915205
 50
150.30133372254059
 51
172.84077312506099
  0
ARC
  5
51E8
  8
01_FRAME
 62
     7
 10
492.4042869611236
 20
3680.2306177896949
 30
0.0
 40
1.1663709905283439
 50
172.84077312506099
 51
205.63064895958601
  0
ARC
  5
51E9
  8
01_FRAME
 62
     7
 10
491.9251608791497
 20
3680.0007438229668
 30
0.0
 40
0.634954164480408
 50
205.63064895958601
 51
237.5110165228015
  0
ARC
  5
51EA
  8
01_FRAME
 62
     7
 10
492.345138983335
 20
3680.6602571950998
 30
0.0
 40
1.4168361862834209
 50
237.5110165228015
 51
266.5100646608708
  0
ARC
  5
51EB
  8
01_FRAME
 62
     7
 10
493.61923153426562
 20
3680.722648582534
 30
0.0
 40
0.2739546757357922
 50
41.694258406644231
 51
92.74167022804761
  0
ARC
  5
51EC
  8
01_FRAME
 62
     7
 10
493.68211663813929
 20
3680.7786658631981
 30
0.0
 40
0.1897378601816721
 50
357.49651121804118
 51
41.69425840668103
  0
ARC
  5
51ED
  8
01_FRAME
 62
     7
 10
493.30764851582308
 20
3680.3507901232492
 30
0.0
 40
0.4670026696925385
 50
279.4565576772809
 51
324.92940398283741
  0
ARC
  5
51EE
  8
01_FRAME
 62
     7
 10
493.1619703026787
 20
3680.4530628369648
 30
0.0
 40
0.6449966295775496
 50
324.92940398283741
 51
344.11881738721661
  0
ARC
  5
51EF
  8
01_FRAME
 62
     7
 10
492.83876488497992
 20
3680.4777107141758
 30
0.0
 40
0.5186117883961751
 50
89.355342266111649
 51
126.25017530154049
  0
ARC
  5
51F0
  8
01_FRAME
 62
     7
 10
492.75426718822348
 20
3680.5989411445471
 30
0.0
 40
0.3708987868957041
 50
126.7974170349802
 51
163.58374767656801
  0
ARC
  5
51F1
  8
01_FRAME
 62
     7
 10
488.72196590893918
 20
3681.648401215215
 30
0.0
 40
3.7959401227298382
 50
343.74206189479008
 51
345.59022698623642
  0
ARC
  5
51F2
  8
01_FRAME
 62
     7
 10
493.43965657680252
 20
3680.2937696196441
 30
0.0
 40
1.112526027892746
 50
164.78824619774861
 51
186.82014585813221
  0
ARC
  5
51F3
  8
01_FRAME
 62
     7
 10
492.5934976878558
 20
3680.1850479983659
 30
0.0
 40
0.2595511549401781
 50
185.171295796316
 51
236.50138254920921
  0
ARC
  5
51F4
  8
01_FRAME
 62
     7
 10
492.66482737778688
 20
3680.2928210544792
 30
0.0
 40
0.3887910724951353
 50
236.50138254920921
 51
266.82989961253043
  0
ENDSEC
  0
EOF
