  0
SECTION
  2
HEADER
  9
$ACADVER
  1
AC1009
  9
$INSBASE
 10
0.0
 20
0.0
 30
0.0
  9
$EXTMIN
 10
425.33714234501662
 20
1501.0896234297199
 30
0.0
  9
$EXTMAX
 10
694.97006841836719
 20
1694.4760269030751
 30
0.0
  9
$LIMMIN
 10
0.0
 20
0.0
  9
$LIMMAX
 10
0.0
 20
0.0
  9
$ORTHOMODE
 70
     0
  9
$REGENMODE
 70
     1
  9
$FILLMODE
 70
     1
  9
$QTEXTMODE
 70
     0
  9
$MIRRTEXT
 70
     1
  9
$DRAGMODE
 70
     2
  9
$LTSCALE
 40
10.0
  9
$OSMODE
 70
    47
  9
$ATTMODE
 70
     1
  9
$TEXTSIZE
 40
2.0
  9
$TRACEWID
 40
0.05
  9
$TEXTSTYLE
  7
MECHTRONICS
  9
$CLAYER
  8
0
  9
$CELTYPE
  6
BYLAYER
  9
$CECOLOR
 62
   256
  9
$DIMSCALE
 40
1.0
  9
$DIMASZ
 40
2.0
  9
$DIMEXO
 40
1.0
  9
$DIMDLI
 40
6.0
  9
$DIMRND
 40
0.0
  9
$DIMDLE
 40
0.0
  9
$DIMEXE
 40
0.5
  9
$DIMTP
 40
0.0
  9
$DIMTM
 40
0.0
  9
$DIMTXT
 40
2.0
  9
$DIMCEN
 40
0.09
  9
$DIMTSZ
 40
0.0
  9
$DIMTOL
 70
     0
  9
$DIMLIM
 70
     0
  9
$DIMTIH
 70
     0
  9
$DIMTOH
 70
     1
  9
$DIMSE1
 70
     0
  9
$DIMSE2
 70
     0
  9
$DIMTAD
 70
     0
  9
$DIMZIN
 70
     0
  9
$DIMBLK
  1

  9
$DIMASO
 70
     1
  9
$DIMSHO
 70
     1
  9
$DIMPOST
  1

  9
$DIMAPOST
  1
"
  9
$DIMALT
 70
     1
  9
$DIMALTD
 70
     1
  9
$DIMALTF
 40
0.03937
  9
$DIMLFAC
 40
1.0
  9
$DIMTOFL
 70
     0
  9
$DIMTVP
 40
0.0
  9
$DIMTIX
 70
     0
  9
$DIMSOXD
 70
     0
  9
$DIMSAH
 70
     0
  9
$DIMBLK1
  1

  9
$DIMBLK2
  1

  9
$DIMSTYLE
  2
MECHTRONICS
  9
$DIMCLRD
 70
     7
  9
$DIMCLRE
 70
     7
  9
$DIMCLRT
 70
     0
  9
$DIMTFAC
 40
1.0
  9
$DIMGAP
 40
0.5
  9
$LUNITS
 70
     2
  9
$LUPREC
 70
    10
  9
$SKETCHINC
 40
0.1
  9
$FILLETRAD
 40
0.0
  9
$AUNITS
 70
     0
  9
$AUPREC
 70
     0
  9
$MENU
  1
acad
  9
$ELEVATION
 40
0.0
  9
$PELEVATION
 40
0.0
  9
$THICKNESS
 40
0.0
  9
$LIMCHECK
 70
     0
  9
$BLIPMODE
 70
     0
  9
$CHAMFERA
 40
0.0
  9
$CHAMFERB
 40
0.0
  9
$SKPOLY
 70
     0
  9
$TDCREATE
 40
2444972.083333333
  9
$TDUPDATE
 40
2454646.8308293521
  9
$TDINDWG
 40
1.0015945022999999
  9
$TDUSRTIMER
 40
1.0015937847
  9
$USRTIMER
 70
     1
  9
$ANGBASE
 50
0.0
  9
$ANGDIR
 70
     0
  9
$PDMODE
 70
     0
  9
$PDSIZE
 40
0.0
  9
$PLINEWID
 40
0.0
  9
$COORDS
 70
     1
  9
$SPLFRAME
 70
     0
  9
$SPLINETYPE
 70
     6
  9
$SPLINESEGS
 70
     8
  9
$ATTDIA
 70
     0
  9
$ATTREQ
 70
     1
  9
$HANDLING
 70
     1
  9
$HANDSEED
  5
57FB
  9
$SURFTAB1
 70
     6
  9
$SURFTAB2
 70
     6
  9
$SURFTYPE
 70
     6
  9
$SURFU
 70
     6
  9
$SURFV
 70
     6
  9
$UCSNAME
  2

  9
$UCSORG
 10
0.0
 20
0.0
 30
0.0
  9
$UCSXDIR
 10
1.0
 20
0.0
 30
0.0
  9
$UCSYDIR
 10
0.0
 20
1.0
 30
0.0
  9
$PUCSNAME
  2

  9
$PUCSORG
 10
0.0
 20
0.0
 30
0.0
  9
$PUCSXDIR
 10
1.0
 20
0.0
 30
0.0
  9
$PUCSYDIR
 10
0.0
 20
1.0
 30
0.0
  9
$USERI1
 70
     0
  9
$USERI2
 70
     0
  9
$USERI3
 70
     0
  9
$USERI4
 70
     0
  9
$USERI5
 70
     0
  9
$USERR1
 40
0.0
  9
$USERR2
 40
0.0
  9
$USERR3
 40
0.0
  9
$USERR4
 40
0.0
  9
$USERR5
 40
0.0
  9
$WORLDVIEW
 70
     1
  9
$SHADEDGE
 70
     3
  9
$SHADEDIF
 70
    70
  9
$TILEMODE
 70
     1
  9
$MAXACTVP
 70
    16
  9
$PLIMCHECK
 70
     0
  9
$PEXTMIN
 10
1.0887500995726069
 20
0.7937499998122686
 30
0.0
  9
$PEXTMAX
 10
21.184573317709511
 20
7.1437499983104198
 30
0.0
  9
$PLIMMIN
 10
0.0
 20
0.0
  9
$PLIMMAX
 10
12.0
 20
9.0
  9
$UNITMODE
 70
     0
  9
$VISRETAIN
 70
     0
  9
$PLINEGEN
 70
     1
  9
$PSLTSCALE
 70
     0
  0
ENDSEC
  0
SECTION
  2
TABLES
  0
TABLE
  2
VPORT
 70
     2
  0
VPORT
  2
*ACTIVE
 70
     0
 10
0.0
 20
0.0
 11
1.0
 21
1.0
 12
600.60538040680933
 22
1597.7509620056051
 13
0.0
 23
0.0
 14
1.0
 24
1.0
 15
0.0
 25
0.0
 16
0.0
 26
0.0
 36
1.0
 17
0.0
 27
0.0
 37
0.0
 40
202.53850349646311
 41
1.7423423423423421
 42
50.0
 43
0.0
 44
0.0
 50
0.0
 51
0.0
 71
     0
 72
   100
 73
     1
 74
     0
 75
     0
 76
     0
 77
     0
 78
     0
  0
ENDTAB
  0
TABLE
  2
LTYPE
 70
     1
  0
LTYPE
  2
CONTINUOUS
 70
     0
  3
Solid line
 72
    65
 73
     0
 40
0.0
  0
ENDTAB
  0
TABLE
  2
LAYER
 70
     6
  0
LAYER
  2
0
 70
     0
 62
   221
  6
CONTINUOUS
  0
LAYER
  2
50_DIMENSIONS
 70
     0
 62
     7
  6
CONTINUOUS
  0
LAYER
  2
10_OUTLINE
 70
     0
 62
     2
  6
CONTINUOUS
  0
LAYER
  2
62_TEXT
 70
     0
 62
     7
  6
CONTINUOUS
  0
LAYER
  2
01_FRAME
 70
     0
 62
     4
  6
CONTINUOUS
  0
LAYER
  2
DEFPOINTS
 70
     0
 62
     7
  6
CONTINUOUS
  0
ENDTAB
  0
TABLE
  2
STYLE
 70
     2
  0
STYLE
  2
STANDARD
 70
     0
 40
0.0
 41
1.0
 50
0.0
 71
     0
 42
1.345608723561553
  3
txt
  4

  0
STYLE
  2
MECHTRONICS
 70
     0
 40
2.0
 41
1.0
 50
0.0
 71
     0
 42
2.0
  3
txt
  4

  0
ENDTAB
  0
TABLE
  2
VIEW
 70
     0
  0
ENDTAB
  0
TABLE
  2
UCS
 70
    16
  0
UCS
  2
AUDIT_D_000731094948-0
 70
     0
 10
0.0
 20
0.0
 30
1.0
 11
1.0
 21
0.0
 31
0.0
 12
0.0
 22
1.0
 32
0.0
  0
UCS
  2
AUDIT_D_000731094948-1
 70
     0
 10
0.0
 20
0.0
 30
1.0
 11
1.0
 21
0.0
 31
0.0
 12
0.0
 22
1.0
 32
0.0
  0
UCS
  2
AUDIT_D_000731094948-2
 70
     0
 10
0.0
 20
0.0
 30
1.0
 11
1.0
 21
0.0
 31
0.0
 12
0.0
 22
1.0
 32
0.0
  0
UCS
  2
AUDIT_D_000731094948-3
 70
     0
 10
0.0
 20
0.0
 30
1.0
 11
1.0
 21
0.0
 31
0.0
 12
0.0
 22
1.0
 32
0.0
  0
UCS
  2
AUDIT_D_000731094948-4
 70
     0
 10
0.0
 20
0.0
 30
1.0
 11
1.0
 21
0.0
 31
0.0
 12
0.0
 22
1.0
 32
0.0
  0
UCS
  2
AUDIT_D_000731094948-5
 70
     0
 10
0.0
 20
0.0
 30
1.0
 11
1.0
 21
0.0
 31
0.0
 12
0.0
 22
1.0
 32
0.0
  0
UCS
  2
AUDIT_D_000731094948-6
 70
     0
 10
0.0
 20
0.0
 30
1.0
 11
1.0
 21
0.0
 31
0.0
 12
0.0
 22
1.0
 32
0.0
  0
UCS
  2
AUDIT_D_000731094948-7
 70
     0
 10
0.0
 20
0.0
 30
1.0
 11
1.0
 21
0.0
 31
0.0
 12
0.0
 22
1.0
 32
0.0
  0
UCS
  2
AUDIT_D_000731094948-8
 70
     0
 10
0.0
 20
0.0
 30
1.0
 11
1.0
 21
0.0
 31
0.0
 12
0.0
 22
1.0
 32
0.0
  0
UCS
  2
AUDIT_D_000731094948-9
 70
     0
 10
0.0
 20
0.0
 30
1.0
 11
1.0
 21
0.0
 31
0.0
 12
0.0
 22
1.0
 32
0.0
  0
UCS
  2
AUDIT_D_000731094948-10
 70
     0
 10
0.0
 20
0.0
 30
1.0
 11
1.0
 21
0.0
 31
0.0
 12
0.0
 22
1.0
 32
0.0
  0
UCS
  2
AUDIT_D_000731094948-11
 70
     0
 10
0.0
 20
0.0
 30
1.0
 11
1.0
 21
0.0
 31
0.0
 12
0.0
 22
1.0
 32
0.0
  0
UCS
  2
AUDIT_D_000731094948-12
 70
     0
 10
0.0
 20
0.0
 30
1.0
 11
1.0
 21
0.0
 31
0.0
 12
0.0
 22
1.0
 32
0.0
  0
UCS
  2
AUDIT_D_000731094948-13
 70
     0
 10
0.0
 20
0.0
 30
1.0
 11
1.0
 21
0.0
 31
0.0
 12
0.0
 22
1.0
 32
0.0
  0
UCS
  2
AUDIT_D_000731094948-14
 70
     0
 10
0.0
 20
0.0
 30
1.0
 11
1.0
 21
0.0
 31
0.0
 12
0.0
 22
1.0
 32
0.0
  0
UCS
  2
CK_VIEW_1
 70
     0
 10
0.0
 20
0.0
 30
1.0
 11
1.0
 21
0.0
 31
0.0
 12
0.0
 22
1.0
 32
0.0
  0
ENDTAB
  0
TABLE
  2
APPID
 70
     4
  0
APPID
  2
ACAD
 70
     0
  0
APPID
  2
DCO15
 70
     0
  0
APPID
  2
ACAD_PSEXT
 70
     0
  0
APPID
  2
ACAD_DSTYLE_DIMTEXT_FILL
 70
     0
  0
ENDTAB
  0
TABLE
  2
DIMSTYLE
 70
     2
  0
DIMSTYLE
  2
STANDARD
 70
     0
  3

  4

  5

  6

  7

 40
1.0
 41
0.18
 42
0.0625
 43
0.38
 44
0.18
 45
0.0
 46
0.0
 47
0.0
 48
0.0
140
0.18
141
0.09
142
0.0
143
25.399999999999999
144
1.0
145
0.0
146
1.0
147
0.09
 71
     0
 72
     0
 73
     1
 74
     1
 75
     0
 76
     0
 77
     0
 78
     0
170
     0
171
     2
172
     0
173
     0
174
     0
175
     0
176
     0
177
     0
178
     0
  0
DIMSTYLE
  2
MECHTRONICS
 70
     0
  3

  4
"
  5

  6

  7

 40
1.0
 41
2.0
 42
1.0
 43
6.0
 44
0.5
 45
0.0
 46
0.0
 47
0.0
 48
0.0
140
2.0
141
0.09
142
0.0
143
0.03937
144
1.0
145
0.0
146
1.0
147
0.5
 71
     0
 72
     0
 73
     0
 74
     1
 75
     0
 76
     0
 77
     0
 78
     0
170
     1
171
     1
172
     0
173
     0
174
     0
175
     0
176
     7
177
     7
178
     0
  0
ENDTAB
  0
ENDSEC
  0
SECTION
  2
BLOCKS
  0
BLOCK
  8
0
  2
$MODEL_SPACE
 70
     0
 10
0.0
 20
0.0
 30
0.0
  3
$MODEL_SPACE
  1

  0
ENDBLK
  5
E
  8
0
  0
BLOCK
 67
     1
  8
0
  2
$PAPER_SPACE
 70
     0
 10
0.0
 20
0.0
 30
0.0
  3
$PAPER_SPACE
  1

  0
ENDBLK
  5
10
 67
     1
  8
0
  0
BLOCK
  8
0
  2
*D0
 70
     1
 10
0.0
 20
0.0
 30
0.0
  3
*D0
  1

  0
LINE
  5
5703
  8
50_DIMENSIONS
 62
     7
 10
480.89385831202668
 20
1646.414564290319
 30
0.0
 11
480.89385831202668
 21
1675.68942462481
 31
0.0
  0
LINE
  5
5704
  8
50_DIMENSIONS
 62
     7
 10
640.77704889356733
 20
1629.1561547608819
 30
0.0
 11
640.77704889356733
 21
1675.68942462481
 31
0.0
  0
LINE
  5
5705
  8
50_DIMENSIONS
 62
     7
 10
482.89385831202668
 20
1675.18942462481
 30
0.0
 11
554.61921895068235
 21
1675.18942462481
 31
0.0
  0
LINE
  5
5706
  8
50_DIMENSIONS
 62
     7
 10
638.77704889356733
 20
1675.18942462481
 30
0.0
 11
567.05168825491171
 21
1675.18942462481
 31
0.0
  0
SOLID
  5
5707
  8
50_DIMENSIONS
 62
     7
 10
482.89385831202668
 20
1675.5227579581431
 30
0.0
 11
482.89385831202668
 21
1674.8560912914761
 31
0.0
 12
480.89385831202668
 22
1675.18942462481
 32
0.0
 13
480.89385831202668
 23
1675.18942462481
 33
0.0
  0
SOLID
  5
5708
  8
50_DIMENSIONS
 62
     7
 10
638.77704889356733
 20
1675.5227579581431
 30
0.0
 11
638.77704889356733
 21
1674.8560912914761
 31
0.0
 12
640.77704889356733
 22
1675.18942462481
 32
0.0
 13
640.77704889356733
 23
1675.18942462481
 33
0.0
  0
INSERT
  5
5709
  8
0
  2
*U3
 10
0.0
 20
0.0
 30
0.0
  0
POINT
  5
570A
  8
DEFPOINTS
 62
     0
 10
480.89385831202668
 20
1645.414564290319
 30
0.0
  0
POINT
  5
570B
  8
DEFPOINTS
 62
     0
 10
640.77704889356733
 20
1628.1561547608819
 30
0.0
  0
POINT
  5
570C
  8
DEFPOINTS
 62
     0
 10
640.77704889356733
 20
1675.18942462481
 30
0.0
  0
ENDBLK
  5
4E0E
  8
0
  0
BLOCK
  8
0
  2
*D1
 70
     1
 10
0.0
 20
0.0
 30
0.0
  3
*D1
  1

  0
LINE
  5
570D
  8
50_DIMENSIONS
 62
     7
 10
620.5767950399437
 20
1549.133902050401
 30
0.0
 11
463.51341344281087
 21
1549.133902050401
 31
0.0
  0
LINE
  5
570E
  8
50_DIMENSIONS
 62
     7
 10
497.38149683096901
 20
1663.2628164282571
 30
0.0
 11
463.51341344281087
 21
1663.2628164282571
 31
0.0
  0
LINE
  5
570F
  8
50_DIMENSIONS
 62
     7
 10
464.01341344281087
 20
1551.133902050401
 30
0.0
 11
464.01341344281087
 21
1599.9821245872149
 31
0.0
  0
LINE
  5
5710
  8
50_DIMENSIONS
 62
     7
 10
464.01341344281087
 20
1661.2628164282571
 30
0.0
 11
464.01341344281087
 21
1612.414593891443
 31
0.0
  0
SOLID
  5
5711
  8
50_DIMENSIONS
 62
     7
 10
463.68008010947761
 20
1551.133902050401
 30
0.0
 11
464.34674677614419
 21
1551.133902050401
 31
0.0
 12
464.01341344281087
 22
1549.133902050401
 32
0.0
 13
464.01341344281087
 23
1549.133902050401
 33
0.0
  0
SOLID
  5
5712
  8
50_DIMENSIONS
 62
     7
 10
463.68008010947761
 20
1661.2628164282571
 30
0.0
 11
464.34674677614419
 21
1661.2628164282571
 31
0.0
 12
464.01341344281087
 22
1663.2628164282571
 32
0.0
 13
464.01341344281087
 23
1663.2628164282571
 33
0.0
  0
INSERT
  5
5713
  8
0
  2
*U4
 10
0.0
 20
0.0
 30
0.0
  0
POINT
  5
5714
  8
DEFPOINTS
 62
     0
 10
621.57679503994359
 20
1549.133902050401
 30
0.0
  0
POINT
  5
5715
  8
DEFPOINTS
 62
     0
 10
498.3814968309689
 20
1663.2628164282571
 30
0.0
  0
POINT
  5
5716
  8
DEFPOINTS
 62
     0
 10
464.01341344281087
 20
1663.2628164282571
 30
0.0
  0
ENDBLK
  5
4E1B
  8
0
  0
BLOCK
  8
0
  2
*U2
 70
     1
 10
0.0
 20
0.0
 30
0.0
  3
*U2
  1

  0
TEXT
  5
57EE
  8
62_TEXT
 62
     7
 10
460.81948052007232
 20
1530.448386362031
 30
0.0
 40
2.0
  1
SUPPLY THIS DRAWING IN .dxf FORMAT TO THE CNC LASER CUTTING 
  7
MECHTRONICS
  0
TEXT
  5
57EF
  8
62_TEXT
 62
     7
 10
460.76218174790318
 20
1527.080946616692
 30
0.0
 40
2.0
  1
COMPANY FOR REMAINDER OF DIMENSIONS. THE TWO GIVEN 
  7
MECHTRONICS
  0
TEXT
  5
57F0
  8
62_TEXT
 62
     7
 10
460.89178611352401
 20
1523.713506871353
 30
0.0
 40
2.0
  1
DIMENSIONS ARE TO CHECK SCALE.
  7
MECHTRONICS
  0
ENDBLK
  5
57F2
  8
0
  0
BLOCK
  8
0
  2
*U3
 70
     1
 10
0.0
 20
0.0
 30
0.0
  3
*U3
  1

  0
TEXT
  5
57F4
  8
50_DIMENSIONS
 62
     0
 10
554.70584923717627
 20
1674.462958049093
 30
0.0
 40
2.0
  1
160 [6.3"]
  7
MECHTRONICS
  0
ENDBLK
  5
57F6
  8
0
  0
BLOCK
  8
0
  2
*U4
 70
     1
 10
0.0
 20
0.0
 30
0.0
  3
*U4
  1

  0
TEXT
  5
57F8
  8
50_DIMENSIONS
 62
     0
 10
464.73988001852689
 20
1600.068754873708
 30
0.0
 40
2.0
  1
114 [4.5"]
 50
90.0
  7
MECHTRONICS
  0
ENDBLK
  5
57FA
  8
0
  0
ENDSEC
  0
SECTION
  2
ENTITIES
  0
LINE
  5
2747
  8
01_FRAME
 62
     4
 10
425.33714234501662
 20
1694.4760269030751
 30
0.0
 11
425.33714234501679
 21
1501.0896234297199
 31
0.0
  0
LINE
  5
2748
  8
01_FRAME
 62
     4
 10
694.97006841836719
 20
1694.4760269030751
 30
0.0
 11
425.33714234501662
 21
1694.4760269030751
 31
0.0
  0
LINE
  5
274D
  8
01_FRAME
 62
     4
 10
694.97006841836719
 20
1501.0896234297199
 30
0.0
 11
694.97006841836719
 21
1694.4760269030751
 31
0.0
  0
LINE
  5
274E
  8
01_FRAME
 62
     4
 10
425.33714234501679
 20
1501.0896234297199
 30
0.0
 11
694.97006841836719
 21
1501.0896234297199
 31
0.0
  0
INSERT
  5
4DAE
  8
0
  2
*U2
 10
0.0
 20
0.0
 30
0.0
  0
ARC
  5
4DEA
  8
10_OUTLINE
 62
     2
 10
500.89385831202668
 20
1643.2628164282571
 30
0.0
 40
20.0
 50
49.999999999997407
 51
225.0
  0
CIRCLE
  5
4DEB
  8
10_OUTLINE
 62
     2
 10
500.89385831202668
 20
1643.2628164282571
 30
0.0
 40
5.0499999999999989
  0
ARC
  5
4DEC
  8
10_OUTLINE
 62
     2
 10
620.65776244515928
 20
1626.0044068988191
 30
0.0
 40
20.11928644840788
 50
348.00727201992112
 51
148.1519524371536
  0
CIRCLE
  5
4DED
  8
10_OUTLINE
 62
     2
 10
621.57679503994359
 20
1556.133902050401
 30
0.0
 40
3.0
  0
ARC
  5
4DEE
  8
10_OUTLINE
 62
     2
 10
621.57679503994359
 20
1556.133902050401
 30
0.0
 40
7.0
 50
258.15669873166979
 51
81.462970904028964
  0
ARC
  5
4DEF
  8
10_OUTLINE
 62
     2
 10
617.33220908506837
 20
1610.3491383545011
 30
0.0
 40
20.11928644840788
 50
324.53648027735193
 51
348.00727201992112
  0
LINE
  5
4DF0
  8
10_OUTLINE
 62
     2
 10
617.28764275597644
 20
1575.6091799288779
 30
0.0
 11
633.71906786722229
 21
1598.6762404089679
 31
0.0
  0
LINE
  5
4DF1
  8
10_OUTLINE
 62
     2
 10
637.01237160821995
 20
1606.168601277112
 30
0.0
 11
640.33792496831086
 21
1621.82386982143
 31
0.0
  0
ARC
  5
4DF2
  8
10_OUTLINE
 62
     2
 10
623.80352345549318
 20
1570.9677040095539
 30
0.0
 40
8.0
 50
144.53648027735181
 51
261.46297090402902
  0
ARC
  5
4DF3
  8
10_OUTLINE
 62
     2
 10
616.77247979921492
 20
1608.429061033168
 30
0.0
 40
4.0499999999999989
 50
163.26893098919359
 51
343.26893098919987
  0
ARC
  5
4DF4
  8
10_OUTLINE
 62
     2
 10
620.92665348243577
 20
1627.9862488728611
 30
0.0
 40
4.0499999999999989
 50
352.74696211038429
 51
172.7469621103908
  0
ARC
  5
4DF5
  8
10_OUTLINE
 62
     2
 10
500.89385831202668
 20
1643.2628164282571
 30
0.0
 40
116.95101418044391
 50
343.26893098919351
 51
352.74696211039071
  0
ARC
  5
4DF6
  8
10_OUTLINE
 62
     2
 10
500.89385831202668
 20
1643.2628164282571
 30
0.0
 40
125.0510141804439
 50
343.26893098919351
 51
352.74696211039071
  0
ARC
  5
4DF7
  8
10_OUTLINE
 62
     2
 10
562.31225886491359
 20
1581.84441587537
 30
0.0
 40
20.0
 50
225.0
 51
258.15669873166979
  0
LINE
  5
4DF8
  8
10_OUTLINE
 62
     2
 10
486.75172268829579
 20
1629.120680804526
 30
0.0
 11
548.17012324118264
 21
1567.702280251639
 31
0.0
  0
LINE
  5
4DF9
  8
10_OUTLINE
 62
     2
 10
558.20754342272005
 20
1562.2701646473249
 30
0.0
 11
620.14014463517594
 21
1549.282914120585
 31
0.0
  0
LINE
  5
4DFA
  8
10_OUTLINE
 62
     2
 10
513.74961050575746
 20
1658.5837052906361
 30
0.0
 11
564.08867361104046
 21
1616.3442160051841
 31
0.0
  0
LINE
  5
4DFB
  8
10_OUTLINE
 62
     2
 10
603.56742460632074
 20
1636.6207169803611
 30
0.0
 11
593.93343571092635
 21
1621.111738465861
 31
0.0
  0
ARC
  5
4DFC
  8
10_OUTLINE
 62
     2
 10
576.9444258047713
 20
1631.6651048675631
 30
0.0
 40
20.0
 50
229.99999999999741
 51
328.15195243715362
  0
CIRCLE
  5
4DFD
  8
10_OUTLINE
 62
     2
 10
562.31225886491359
 20
1581.84441587537
 30
0.0
 40
5.0999999999999988
  0
TEXT
  5
4DFE
  8
62_TEXT
 10
648.37991740455209
 20
1577.364757136874
 30
0.0
 40
2.0
  1
PROFILE TO BE CUT
  7
MECHTRONICS
 72
     1
 11
662.32807565830365
 21
1577.364757136874
 31
0.0
  0
LINE
  5
4DFF
  8
62_TEXT
 10
648.24198956924624
 20
1576.519321265602
 30
0.0
 11
675.21752795880707
 21
1576.519321265602
 31
0.0
  0
DIMENSION
  5
4E00
  8
50_DIMENSIONS
  2
*D0
 10
640.77704889356733
 20
1675.18942462481
 30
0.0
 11
560.83545360279697
 21
1675.18942462481
 31
0.0
 70
     0
 13
480.89385831202668
 23
1645.414564290319
 33
0.0
 14
640.77704889356733
 24
1628.1561547608819
 34
0.0
1001
ACAD
1000
DSTYLE
1002
{
1070
     4
1000
"
1070
   143
1040
0.039370078
1070
   170
1070
     1
1002
}
  0
DIMENSION
  5
4E01
  8
50_DIMENSIONS
  2
*D1
 10
464.01341344281087
 20
1663.2628164282571
 30
0.0
 11
464.0134134428107
 21
1606.198359239329
 31
0.0
 70
     0
 13
621.57679503994359
 23
1549.133902050401
 33
0.0
 14
498.3814968309689
 24
1663.2628164282571
 34
0.0
 50
90.0
1001
ACAD
1000
DSTYLE
1002
{
1070
     4
1000
"
1070
   143
1040
0.039370078
1070
   170
1070
     1
1002
}
  0
LINE
  5
500D
  8
01_FRAME
 62
     4
 10
589.39346804246645
 20
1522.0700224345769
 30
0.0
 11
618.97363329620555
 21
1522.0700224345769
 31
0.0
  0
LINE
  5
500E
  8
01_FRAME
 62
     4
 10
589.39346804246645
 20
1501.0896234297199
 30
0.0
 11
589.39346804246645
 21
1522.0700224345769
 31
0.0
  0
TEXT
  5
500F
  8
62_TEXT
 10
677.16885341388547
 20
1526.467692061741
 30
0.0
 40
2.0
  1
24-09-07
  7
MECHTRONICS
  0
TEXT
  5
5010
  8
01_FRAME
 62
     8
 10
686.18081660885571
 20
1509.5536141572329
 30
0.0
 40
1.399999999999999
  1
Revision
  7
MECHTRONICS
  0
TEXT
  5
5011
  8
62_TEXT
 10
636.40998858918044
 20
1515.484421332407
 30
0.0
 40
2.0
  1
HOLD-DOWN SWINGPLATE - PROFILE CUT
  7
MECHTRONICS
 72
     1
 11
665.33700086748877
 21
1515.484421332407
 31
0.0
  0
LINE
  5
5012
  8
01_FRAME
 62
     8
 10
618.97363329620555
 20
1532.61556300403
 30
0.0
 11
694.97006841836719
 21
1532.61556300403
 31
0.0
  0
LINE
  5
5013
  8
01_FRAME
 62
     8
 10
618.97363329620555
 20
1529.103304462187
 30
0.0
 11
694.97006841836719
 21
1529.103304462187
 31
0.0
  0
LINE
  5
5014
  8
01_FRAME
 62
     4
 10
635.23717179109894
 20
1511.6264117249571
 30
0.0
 11
694.97002090696083
 21
1511.6264117249571
 31
0.0
  0
LINE
  5
5015
  8
01_FRAME
 62
     4
 10
589.39351555387316
 20
1517.7233646710281
 30
0.0
 11
635.23717179109894
 21
1517.7233646710281
 31
0.0
  0
LINE
  5
5016
  8
01_FRAME
 62
     8
 10
623.69784866095949
 20
1525.591033250636
 30
0.0
 11
694.97006841836719
 21
1525.591033250636
 31
0.0
  0
TEXT
  5
5017
  8
01_FRAME
 62
     8
 10
589.99837056167439
 20
1530.5096409361199
 30
0.0
 40
1.399999999999999
  1
Higher
  7
MECHTRONICS
  0
TEXT
  5
5018
  8
01_FRAME
 62
     8
 10
642.00396482925225
 20
1523.276943698311
 30
0.0
 40
1.399999999999999
  1
Description of change
  7
MECHTRONICS
  0
LINE
  5
5019
  8
01_FRAME
 62
     4
 10
635.23717179109872
 20
1522.0700224345769
 30
0.0
 11
635.23717179109894
 21
1501.0896234297199
 31
0.0
  0
LINE
  5
501A
  8
01_FRAME
 62
     8
 10
618.97363329620555
 20
1522.0700224345769
 30
0.0
 11
618.97363329620555
 21
1532.61556300403
 31
0.0
  0
LINE
  5
501B
  8
01_FRAME
 62
     8
 10
623.69784866095949
 20
1522.0700224345769
 30
0.0
 11
623.69784866095949
 21
1532.657818996008
 31
0.0
  0
LINE
  5
501C
  8
01_FRAME
 62
     7
 10
619.31640549168776
 20
1524.2581139747231
 30
0.0
 11
621.36028883876315
 21
1527.7982237766009
 31
0.0
  0
LINE
  5
501D
  8
01_FRAME
 62
     7
 10
619.31640549168776
 20
1524.2581139747231
 30
0.0
 11
623.40417218583843
 21
1524.2581139747231
 31
0.0
  0
LINE
  5
501E
  8
01_FRAME
 62
     7
 10
623.40417218583843
 20
1524.2581139747231
 30
0.0
 11
621.36028883876315
 21
1527.7982237766009
 31
0.0
  0
TEXT
  5
501F
  8
01_FRAME
 62
     8
 10
636.01108825643109
 20
1518.979238961321
 30
0.0
 40
1.399999999999999
  1
Title
  7
MECHTRONICS
  0
LINE
  5
5020
  8
01_FRAME
 62
     8
 10
675.82585712554248
 20
1511.6264117249571
 30
0.0
 11
675.82585712554248
 21
1501.0896234297199
 31
0.0
  0
LINE
  5
5021
  8
01_FRAME
 62
     8
 10
685.39793901625171
 20
1511.6264117249571
 30
0.0
 11
685.39793901625171
 21
1501.0896234297199
 31
0.0
  0
TEXT
  5
5022
  8
01_FRAME
 62
     8
 10
676.60873471814671
 20
1509.3518620918601
 30
0.0
 40
1.399999999999999
  1
Process
  7
MECHTRONICS
  0
TEXT
  5
5023
  8
01_FRAME
 62
     8
 10
635.89673000243545
 20
1509.5383594236309
 30
0.0
 40
1.399999999999999
  1
Drawing Number
  7
MECHTRONICS
  0
TEXT
  5
5024
  8
62_TEXT
 10
642.14395274921355
 20
1503.4843215804369
 30
0.0
 40
4.0
  1
M1 30 332
  7
MECHTRONICS
  0
TEXT
  5
5025
  8
62_TEXT
 10
678.42979421920916
 20
1503.4153658387991
 30
0.0
 40
4.0
  1
P
  7
MECHTRONICS
  0
LINE
  5
5026
  8
01_FRAME
 62
     8
 10
676.24198158718696
 20
1522.0700224345769
 30
0.0
 11
676.24198158718696
 21
1532.649054052084
 31
0.0
  0
TEXT
  5
5027
  8
01_FRAME
 62
     8
 10
677.7025539723212
 20
1523.2769436983101
 30
0.0
 40
1.399999999999999
  1
Date (d-m-y)
  7
MECHTRONICS
  0
TEXT
  5
5028
  8
62_TEXT
 10
688.00187610991838
 20
1503.4153658387991
 30
0.0
 40
4.0
  1
A
  7
MECHTRONICS
  0
LINE
  5
5029
  8
01_FRAME
 62
     8
 10
689.6337177441726
 20
1522.0700224345769
 30
0.0
 11
689.6337177441726
 21
1532.649054052084
 31
0.0
  0
TEXT
  5
502A
  8
01_FRAME
 62
     8
 10
690.57062379704007
 20
1523.2769436983101
 30
0.0
 40
1.399999999999999
  1
Rev.
  7
MECHTRONICS
  0
TEXT
  5
502B
  8
01_FRAME
 62
     8
 10
602.70684282139314
 20
1504.842574380893
 30
0.0
 40
1.399999999999999
  1
www.mechmate.com
  7
MECHTRONICS
  0
TEXT
  5
502C
  8
62_TEXT
 10
600.57705372341388
 20
1529.514374148938
 30
0.0
 40
2.0
  1
M1 30 222 W
  7
MECHTRONICS
  0
TEXT
  5
502D
  8
01_FRAME
 62
     8
 10
589.99837056167439
 20
1528.4820085639369
 30
0.0
 40
1.399999999999999
  1
drawing/s:
  7
MECHTRONICS
  0
LINE
  5
502E
  8
01_FRAME
 62
     8
 10
589.39346804246645
 20
1532.61556300403
 30
0.0
 11
618.97363329620555
 21
1532.61556300403
 31
0.0
  0
LINE
  5
502F
  8
01_FRAME
 62
     4
 10
618.97363329620555
 20
1522.0700224345769
 30
0.0
 11
694.97002090696083
 21
1522.0700224345769
 31
0.0
  0
TEXT
  5
5030
  8
01_FRAME
 62
     8
 10
590.16743201920531
 20
1519.9950436563599
 30
0.0
 40
1.399999999999999
  1
Material:
  7
MECHTRONICS
  0
TEXT
  5
5031
  8
62_TEXT
 10
599.22475888667816
 20
1518.9762254107011
 30
0.0
 40
2.0
  1
6mm [1/4"] STEEL 300MPa
  7
MECHTRONICS
  0
TEXT
  5
5032
  8
01_FRAME
 62
     7
 10
691.13345197641797
 20
1526.420522925268
 30
0.0
 40
2.0
  1
A
  7
MECHTRONICS
  0
TEXT
  5
5033
  8
01_FRAME
 62
     7
 10
661.27244784623815
 20
1526.467692061741
 30
0.0
 40
2.0
  1
First issue
  7
MECHTRONICS
  0
LINE
  5
519E
  8
01_FRAME
 62
     8
 10
589.39346804246645
 20
1532.61556300403
 30
0.0
 11
589.39346804246645
 21
1522.0700224345769
 31
0.0
  0
TEXT
  5
5717
  8
01_FRAME
 62
     8
 10
619.87583200614949
 20
1530.23631486467
 30
0.0
 40
1.3999999999999999
  1
1:1
  7
MECHTRONICS
  0
LINE
  5
5718
  8
01_FRAME
 62
     7
 10
617.10957118227338
 20
1508.030822477077
 30
0.0
 11
618.29365312003642
 21
1508.030822477077
 31
0.0
  0
LINE
  5
5719
  8
01_FRAME
 62
     7
 10
617.90405196247025
 20
1513.0892406305261
 30
0.0
 11
617.10957118227338
 21
1508.030822477077
 31
0.0
  0
LINE
  5
571A
  8
01_FRAME
 62
     7
 10
616.12792903924924
 20
1509.6132585322709
 30
0.0
 11
617.90405196247025
 21
1513.0892406305261
 31
0.0
  0
LINE
  5
571B
  8
01_FRAME
 62
     7
 10
619.16834590813664
 20
1514.1339556944811
 30
0.0
 11
617.31965024269959
 21
1514.1339556944811
 31
0.0
  0
LINE
  5
571C
  8
01_FRAME
 62
     7
 10
600.95698801360197
 20
1510.5205667446021
 30
0.0
 11
603.47927403377139
 21
1510.5205667446021
 31
0.0
  0
LINE
  5
571D
  8
01_FRAME
 62
     7
 10
603.24857714208667
 20
1509.4903428345481
 30
0.0
 11
601.20306469364436
 21
1509.4903428345481
 31
0.0
  0
LINE
  5
571E
  8
01_FRAME
 62
     7
 10
600.66477193532933
 20
1508.706142522537
 30
0.0
 11
602.73172245104126
 21
1508.706142522537
 31
0.0
  0
LINE
  5
571F
  8
01_FRAME
 62
     7
 10
602.84727585250096
 20
1512.7809088106451
 30
0.0
 11
601.35686261038222
 21
1512.7809088106451
 31
0.0
  0
LINE
  5
5720
  8
01_FRAME
 62
     7
 10
601.06018654998002
 20
1511.1817511297279
 30
0.0
 11
602.55143508975527
 21
1511.1817511297279
 31
0.0
  0
LINE
  5
5721
  8
01_FRAME
 62
     7
 10
602.36845981124202
 20
1512.0077452775649
 30
0.0
 11
601.41698833645
 21
1512.0077452775649
 31
0.0
  0
LINE
  5
5722
  8
01_FRAME
 62
     7
 10
593.87856793789308
 20
1508.030822477077
 30
0.0
 11
594.6004759427185
 21
1513.1122858111271
 31
0.0
  0
LINE
  5
5723
  8
01_FRAME
 62
     7
 10
595.49426681215095
 20
1514.1339556944811
 30
0.0
 11
593.61883383284987
 21
1514.1339556944811
 31
0.0
  0
LINE
  5
5724
  8
01_FRAME
 62
     7
 10
593.61883383284987
 20
1514.1339556944811
 30
0.0
 11
592.75559989354826
 21
1508.030822477077
 31
0.0
  0
LINE
  5
5725
  8
01_FRAME
 62
     7
 10
592.75559989354826
 20
1508.030822477077
 30
0.0
 11
593.87856793789308
 21
1508.030822477077
 31
0.0
  0
LINE
  5
5726
  8
01_FRAME
 62
     7
 10
598.10688632765482
 20
1513.0892406305261
 30
0.0
 11
597.31240554745796
 21
1508.030822477077
 31
0.0
  0
LINE
  5
5727
  8
01_FRAME
 62
     7
 10
598.49648748522088
 20
1508.030822477077
 30
0.0
 11
599.37118027332212
 21
1514.1339556944811
 31
0.0
  0
LINE
  5
5728
  8
01_FRAME
 62
     7
 10
597.31240554745796
 20
1508.030822477077
 30
0.0
 11
598.49648748522088
 21
1508.030822477077
 31
0.0
  0
LINE
  5
5729
  8
01_FRAME
 62
     7
 10
599.37118027332212
 20
1514.1339556944811
 30
0.0
 11
597.52248460788428
 21
1514.1339556944811
 31
0.0
  0
LINE
  5
572A
  8
01_FRAME
 62
     7
 10
596.33076340443381
 20
1509.6132585322709
 30
0.0
 11
598.10688632765482
 21
1513.0892406305261
 31
0.0
  0
LINE
  5
572B
  8
01_FRAME
 62
     7
 10
594.6004759427185
 20
1513.1122858111271
 30
0.0
 11
595.31092509874509
 21
1509.6132585322709
 31
0.0
  0
LINE
  5
572C
  8
01_FRAME
 62
     7
 10
596.04811160179145
 20
1511.2187397680691
 30
0.0
 11
595.49426681215095
 21
1514.1339556944811
 31
0.0
  0
LINE
  5
572D
  8
01_FRAME
 62
     7
 10
597.52248460788428
 20
1514.1339556944811
 30
0.0
 11
596.04811160179145
 21
1511.2187397680691
 31
0.0
  0
LINE
  5
572E
  8
01_FRAME
 62
     7
 10
595.31092509874509
 20
1509.6132585322709
 30
0.0
 11
596.33076340443381
 21
1509.6132585322709
 31
0.0
  0
LINE
  5
572F
  8
01_FRAME
 62
     7
 10
600.11109942181133
 20
1511.8736967161899
 30
0.0
 11
599.78812376682322
 21
1509.7517429385509
 31
0.0
  0
LINE
  5
5730
  8
01_FRAME
 62
     7
 10
600.85798112916348
 20
1509.72868252585
 30
0.0
 11
600.95698801360197
 21
1510.5205667446021
 31
0.0
  0
LINE
  5
5731
  8
01_FRAME
 62
     7
 10
601.12422787756691
 20
1511.717922763152
 30
0.0
 11
601.06018654998002
 21
1511.1817511297279
 31
0.0
  0
LINE
  5
5732
  8
01_FRAME
 62
     7
 10
609.50820630730118
 20
1511.871436404394
 30
0.0
 11
610.95406025462194
 21
1511.871436404394
 31
0.0
  0
LINE
  5
5733
  8
01_FRAME
 62
     7
 10
607.33436707953535
 20
1509.044424990567
 30
0.0
 11
607.38050644461032
 21
1509.444213382975
 31
0.0
  0
LINE
  5
5734
  8
01_FRAME
 62
     7
 10
608.67999872958512
 20
1514.3928921438369
 30
0.0
 11
607.96876958976804
 21
1508.6882193073311
 31
0.0
  0
LINE
  5
5735
  8
01_FRAME
 62
     7
 10
609.05900898375762
 20
1508.6882193073311
 30
0.0
 11
609.50820630730118
 21
1511.871436404394
 31
0.0
  0
LINE
  5
5736
  8
01_FRAME
 62
     7
 10
603.20243774385619
 20
1509.044424990567
 30
0.0
 11
603.24857714208667
 21
1509.4903428345481
 31
0.0
  0
LINE
  5
5737
  8
01_FRAME
 62
     7
 10
605.90404633119908
 20
1508.706142522537
 30
0.0
 11
606.86365178672224
 21
1508.706142522537
 31
0.0
  0
LINE
  5
5738
  8
01_FRAME
 62
     7
 10
605.10429710448318
 20
1508.706142522537
 30
0.0
 11
605.90404633119908
 21
1508.706142522537
 31
0.0
  0
LINE
  5
5739
  8
01_FRAME
 62
     7
 10
607.96876958976804
 20
1508.6882193073311
 30
0.0
 11
609.05900898375762
 21
1508.6882193073311
 31
0.0
  0
LINE
  5
573A
  8
01_FRAME
 62
     7
 10
607.96876958976804
 20
1508.6882193073311
 30
0.0
 11
607.96876958976804
 21
1508.6882193073311
 31
0.0
  0
LINE
  5
573B
  8
01_FRAME
 62
     7
 10
607.3190109593221
 20
1512.7809088106451
 30
0.0
 11
605.79638777953608
 21
1512.7809088106451
 31
0.0
  0
LINE
  5
573C
  8
01_FRAME
 62
     7
 10
605.85790696612435
 20
1512.0120850045939
 30
0.0
 11
607.79674748510536
 21
1512.0120850045939
 31
0.0
  0
LINE
  5
573D
  8
01_FRAME
 62
     7
 10
607.38798383201424
 20
1509.4903428345481
 30
0.0
 11
605.90404633119908
 21
1509.4903428345481
 31
0.0
  0
LINE
  5
573E
  8
01_FRAME
 62
     7
 10
603.47927403377139
 20
1510.5205667446021
 30
0.0
 11
603.69538420617005
 21
1511.9712792971379
 31
0.0
  0
LINE
  5
573F
  8
01_FRAME
 62
     7
 10
603.47927403377139
 20
1510.5205667446021
 30
0.0
 11
603.47927403377139
 21
1510.5205667446021
 31
0.0
  0
LINE
  5
5740
  8
01_FRAME
 62
     7
 10
602.55143508975527
 20
1511.1817511297279
 30
0.0
 11
602.63400573290505
 21
1511.781833672926
 31
0.0
  0
LINE
  5
5741
  8
01_FRAME
 62
     7
 10
604.55062459096621
 20
1511.8736967161899
 30
0.0
 11
604.30454791092302
 21
1510.2130372221809
 31
0.0
  0
LINE
  5
5742
  8
01_FRAME
 62
     7
 10
605.29697232132605
 20
1509.72868252585
 30
0.0
 11
605.56569088785159
 21
1511.7199319218239
 31
0.0
  0
LINE
  5
5743
  8
01_FRAME
 62
     7
 10
604.30454791092302
 20
1510.2130372221809
 30
0.0
 11
604.22764893597616
 21
1509.7517429385509
 31
0.0
  0
LINE
  5
5744
  8
01_FRAME
 62
     7
 10
605.90404633119908
 20
1509.4903428345481
 30
0.0
 11
605.64205588580694
 21
1509.4903428345481
 31
0.0
  0
LINE
  5
5745
  8
01_FRAME
 62
     7
 10
607.79674748510536
 20
1512.0120850045939
 30
0.0
 11
607.83983741687712
 21
1512.2779151419641
 31
0.0
  0
LINE
  5
5746
  8
01_FRAME
 62
     7
 10
607.38050644461032
 20
1509.444213382975
 30
0.0
 11
607.38798383201424
 21
1509.4903428345481
 31
0.0
  0
LINE
  5
5747
  8
01_FRAME
 62
     7
 10
609.60148228862977
 20
1512.3504182372239
 30
0.0
 11
609.84510429995839
 21
1514.3928921438369
 31
0.0
  0
LINE
  5
5748
  8
01_FRAME
 62
     7
 10
609.84510429995839
 20
1514.3928921438369
 30
0.0
 11
608.67999872958512
 21
1514.3928921438369
 31
0.0
  0
LINE
  5
5749
  8
01_FRAME
 62
     7
 10
611.68868506212561
 20
1508.6882193073311
 30
0.0
 11
612.09546336842573
 21
1511.9060237239689
 31
0.0
  0
LINE
  5
574A
  8
01_FRAME
 62
     7
 10
610.95406025462194
 20
1511.871436404394
 30
0.0
 11
610.55165429960709
 21
1508.6882193073311
 31
0.0
  0
LINE
  5
574B
  8
01_FRAME
 62
     7
 10
613.67573357270862
 20
1508.030822477077
 30
0.0
 11
614.39764157753393
 21
1513.1122858111271
 31
0.0
  0
LINE
  5
574C
  8
01_FRAME
 62
     7
 10
613.41599946766451
 20
1514.1339556944811
 30
0.0
 11
612.5527655283629
 21
1508.030822477077
 31
0.0
  0
LINE
  5
574D
  8
01_FRAME
 62
     7
 10
610.55165429960709
 20
1508.6882193073311
 30
0.0
 11
611.68868506212561
 21
1508.6882193073311
 31
0.0
  0
LINE
  5
574E
  8
01_FRAME
 62
     7
 10
612.5527655283629
 20
1508.030822477077
 30
0.0
 11
613.67573357270862
 21
1508.030822477077
 31
0.0
  0
LINE
  5
574F
  8
01_FRAME
 62
     7
 10
615.29143244696627
 20
1514.1339556944811
 30
0.0
 11
613.41599946766451
 21
1514.1339556944811
 31
0.0
  0
LINE
  5
5750
  8
01_FRAME
 62
     7
 10
614.39764157753393
 20
1513.1122858111271
 30
0.0
 11
615.10809073356063
 21
1509.6132585322709
 31
0.0
  0
LINE
  5
5751
  8
01_FRAME
 62
     7
 10
615.84527723660699
 20
1511.2187397680691
 30
0.0
 11
615.29143244696627
 21
1514.1339556944811
 31
0.0
  0
LINE
  5
5752
  8
01_FRAME
 62
     7
 10
617.31965024269959
 20
1514.1339556944811
 30
0.0
 11
615.84527723660699
 21
1511.2187397680691
 31
0.0
  0
LINE
  5
5753
  8
01_FRAME
 62
     7
 10
615.10809073356063
 20
1509.6132585322709
 30
0.0
 11
616.12792903924924
 21
1509.6132585322709
 31
0.0
  0
LINE
  5
5754
  8
01_FRAME
 62
     7
 10
626.05509149057684
 20
1513.978063641453
 30
0.0
 11
625.01852474946338
 21
1513.860037207666
 31
0.0
  0
LINE
  5
5755
  8
01_FRAME
 62
     7
 10
625.46302204106325
 20
1509.7264721462809
 30
0.0
 11
625.79363502217586
 21
1512.05600404344
 31
0.0
  0
LINE
  5
5756
  8
01_FRAME
 62
     7
 10
625.27072205221953
 20
1508.7039321429661
 30
0.0
 11
626.33798605597315
 21
1508.7039321429661
 31
0.0
  0
LINE
  5
5757
  8
01_FRAME
 62
     7
 10
623.03899214566968
 20
1508.7200774593059
 30
0.0
 11
622.99887160039418
 21
1509.1746790642781
 31
0.0
  0
ARC
  5
5758
  8
01_FRAME
 62
     7
 10
623.99499979287134
 20
1509.2625916580951
 30
0.0
 40
1.0
 50
171.34562025558941
 51
185.0435314678453
  0
LINE
  5
5759
  8
01_FRAME
 62
     7
 10
618.29365312003642
 20
1508.030822477077
 30
0.0
 11
619.16834590813664
 21
1514.1339556944811
 31
0.0
  0
LINE
  5
575A
  8
01_FRAME
 62
     7
 10
620.39366778547867
 20
1508.7047009533439
 30
0.0
 11
621.37797453880444
 21
1508.7047009533439
 31
0.0
  0
LINE
  5
575B
  8
01_FRAME
 62
     7
 10
621.97778645055291
 20
1508.7200774593059
 30
0.0
 11
623.03899214566968
 21
1508.7200774593059
 31
0.0
  0
LINE
  5
575C
  8
01_FRAME
 62
     7
 10
625.27072205221862
 20
1508.7039321429661
 30
0.0
 11
625.34762102716627
 21
1508.7039321429661
 31
0.0
  0
LINE
  5
575D
  8
01_FRAME
 62
     7
 10
622.16234397716255
 20
1511.164937232171
 30
0.0
 11
620.68588386375154
 21
1511.164937232171
 31
0.0
  0
LINE
  5
575E
  8
01_FRAME
 62
     7
 10
619.90151442539423
 20
1512.0106434354029
 30
0.0
 11
621.97951159452316
 21
1512.0106434354029
 31
0.0
  0
LINE
  5
575F
  8
01_FRAME
 62
     7
 10
622.54977580746765
 20
1512.794843747412
 30
0.0
 11
620.42442739535147
 21
1512.794843747412
 31
0.0
  0
LINE
  5
5760
  8
01_FRAME
 62
     7
 10
619.9476538236238
 20
1512.456561279382
 30
0.0
 11
619.90151442539423
 21
1512.0106434354029
 31
0.0
  0
LINE
  5
5761
  8
01_FRAME
 62
     7
 10
620.77810321235086
 20
1509.3632773578131
 30
0.0
 11
621.51915309696028
 21
1509.348786237065
 31
0.0
  0
LINE
  5
5762
  8
01_FRAME
 62
     7
 10
621.76711174600382
 20
1510.4549421079421
 30
0.0
 11
620.97937603197784
 21
1510.4549421079421
 31
0.0
  0
LINE
  5
5763
  8
01_FRAME
 62
     7
 10
624.12718923756324
 20
1512.80945140984
 30
0.0
 11
623.99419925377674
 21
1512.05600404344
 31
0.0
  0
LINE
  5
5764
  8
01_FRAME
 62
     7
 10
623.00638578196936
 20
1509.4130653682521
 30
0.0
 11
623.39788416113674
 21
1511.9852142339071
 31
0.0
  0
LINE
  5
5765
  8
01_FRAME
 62
     7
 10
621.91712436751345
 20
1509.735216234177
 30
0.0
 11
622.00644956705548
 21
1510.229030503303
 31
0.0
  0
LINE
  5
5766
  8
01_FRAME
 62
     7
 10
622.23924291895378
 20
1511.7184903857881
 30
0.0
 11
622.16234397716255
 21
1511.164937232171
 31
0.0
  0
LINE
  5
5767
  8
01_FRAME
 62
     7
 10
622.24505751618631
 20
1511.784731830764
 30
0.0
 11
622.23924291895378
 21
1511.7184903857881
 31
0.0
  0
LINE
  5
5768
  8
01_FRAME
 62
     7
 10
624.74780911541779
 20
1512.05600404344
 30
0.0
 11
624.39407388371251
 21
1509.7495325589821
 31
0.0
  0
LINE
  5
5769
  8
01_FRAME
 62
     7
 10
623.99419925377674
 20
1512.05600404344
 30
0.0
 11
624.74780911541779
 21
1512.05600404344
 31
0.0
  0
LINE
  5
576A
  8
01_FRAME
 62
     7
 10
625.01852474946338
 20
1513.860037207666
 30
0.0
 11
624.85546766708069
 21
1512.80945140984
 31
0.0
  0
LINE
  5
576B
  8
01_FRAME
 62
     7
 10
624.85546766708069
 20
1512.80945140984
 30
0.0
 11
624.12718923756324
 21
1512.80945140984
 31
0.0
  0
LINE
  5
576C
  8
01_FRAME
 62
     7
 10
626.80870134878717
 20
1509.0422146109991
 30
0.0
 11
626.85484071729275
 21
1509.4881324549769
 31
0.0
  0
LINE
  5
576D
  8
01_FRAME
 62
     7
 10
627.17781637228165
 20
1512.05600404344
 30
0.0
 11
627.27009513558698
 21
1512.80945140984
 31
0.0
  0
LINE
  5
576E
  8
01_FRAME
 62
     7
 10
626.85484071729275
 20
1509.4881324549769
 30
0.0
 11
625.80810560554585
 21
1509.4881324549769
 31
0.0
  0
LINE
  5
576F
  8
01_FRAME
 62
     7
 10
625.79363502217586
 20
1512.05600404344
 30
0.0
 11
627.17781637228165
 21
1512.05600404344
 31
0.0
  0
LINE
  5
5770
  8
01_FRAME
 62
     7
 10
625.88591378548131
 20
1512.80945140984
 30
0.0
 11
626.05509149057684
 21
1513.978063641453
 31
0.0
  0
LINE
  5
5771
  8
01_FRAME
 62
     7
 10
627.27009513558698
 20
1512.80945140984
 30
0.0
 11
625.88591378548131
 21
1512.80945140984
 31
0.0
  0
ARC
  5
5772
  8
01_FRAME
 62
     7
 10
601.47687228633345
 20
1511.6672412893161
 30
0.0
 40
0.356267723523487
 50
129.9788673075646
 51
171.82154662074871
  0
ARC
  5
5773
  8
01_FRAME
 62
     7
 10
601.42550799849573
 20
1511.7410571610501
 30
0.0
 40
0.2668241670683093
 50
91.829758024394408
 51
131.71149876918361
  0
ARC
  5
5774
  8
01_FRAME
 62
     7
 10
605.91779091600858
 20
1511.6715810163471
 30
0.0
 40
0.356267723523487
 50
129.9788673075646
 51
171.82154662074871
  0
ARC
  5
5775
  8
01_FRAME
 62
     7
 10
605.86642662817087
 20
1511.7453968880791
 30
0.0
 40
0.2668241670683093
 50
91.829758024394408
 51
131.71149876918361
  0
ARC
  5
5776
  8
01_FRAME
 62
     7
 10
602.38156386154765
 20
1511.734104183751
 30
0.0
 40
0.2739546757357922
 50
41.694258406644231
 51
92.74167022804761
  0
ARC
  5
5777
  8
01_FRAME
 62
     7
 10
602.44444896542211
 20
1511.7901214644139
 30
0.0
 40
0.1897378601816721
 50
357.49651121804118
 51
41.69425840668103
  0
ARC
  5
5778
  8
01_FRAME
 62
     7
 10
621.9926156448289
 20
1511.737002341589
 30
0.0
 40
0.2739546757357922
 50
41.694258406644231
 51
92.74167022804761
  0
ARC
  5
5779
  8
01_FRAME
 62
     7
 10
622.05550074870348
 20
1511.7930196222519
 30
0.0
 40
0.1897378601816721
 50
357.49651121804118
 51
41.69425840668103
  0
ARC
  5
577A
  8
01_FRAME
 62
     7
 10
601.20088858858139
 20
1509.988692431589
 30
0.0
 40
0.4983543481347475
 50
242.0549458700896
 51
270.25018750738548
  0
ARC
  5
577B
  8
01_FRAME
 62
     7
 10
601.06380405723007
 20
1509.7302763862581
 30
0.0
 40
0.2058290992756684
 50
180.44368064352511
 51
242.0549458700896
  0
ARC
  5
577C
  8
01_FRAME
 62
     7
 10
605.63987978074294
 20
1509.988692431589
 30
0.0
 40
0.4983543481347475
 50
242.0549458700896
 51
270.25018750738548
  0
ARC
  5
577D
  8
01_FRAME
 62
     7
 10
605.50279524939265
 20
1509.7302763862581
 30
0.0
 40
0.2058290992756684
 50
180.44368064352511
 51
242.0549458700896
  0
ARC
  5
577E
  8
01_FRAME
 62
     7
 10
601.08511262055504
 20
1511.718970675211
 30
0.0
 40
0.9862260689533767
 50
116.4343118930764
 51
170.97374799137759
  0
ARC
  5
577F
  8
01_FRAME
 62
     7
 10
601.41112707309253
 20
1511.0632051616669
 30
0.0
 40
1.7185605772340431
 50
91.809445418565659
 51
116.4343118930764
  0
ARC
  5
5780
  8
01_FRAME
 62
     7
 10
605.52463778970889
 20
1511.718970675211
 30
0.0
 40
0.9862260689533767
 50
116.4343118930764
 51
170.97374799137759
  0
ARC
  5
5781
  8
01_FRAME
 62
     7
 10
605.85065224224638
 20
1511.0632051616669
 30
0.0
 40
1.7185605772340431
 50
91.809445418565659
 51
116.4343118930764
  0
ARC
  5
5782
  8
01_FRAME
 62
     7
 10
602.74802054142015
 20
1511.6789866411391
 30
0.0
 40
1.1063833352066721
 50
44.532575507597819
 51
84.852989749608284
  0
ARC
  5
5783
  8
01_FRAME
 62
     7
 10
603.12823331450613
 20
1512.0530458541391
 30
0.0
 40
0.5730147500357465
 50
351.79615361501862
 51
44.532575507597819
  0
ARC
  5
5784
  8
01_FRAME
 62
     7
 10
600.67993334006917
 20
1509.5946724702069
 30
0.0
 40
0.8886592913478247
 50
213.378140144387
 51
269.02243001409983
  0
ARC
  5
5785
  8
01_FRAME
 62
     7
 10
600.73481599793354
 20
1509.6308308797991
 30
0.0
 40
0.954382473852452
 50
172.72155707448491
 51
213.378140144387
  0
ARC
  5
5786
  8
01_FRAME
 62
     7
 10
602.7286933115862
 20
1509.2626151300849
 30
0.0
 40
0.5564808519953198
 50
269.68811547988628
 51
309.85159843335532
  0
ARC
  5
5787
  8
01_FRAME
 62
     7
 10
602.86987507448771
 20
1509.0934734816151
 30
0.0
 40
0.3361602051582644
 50
309.85159843335532
 51
351.61013221801829
  0
ARC
  5
5788
  8
01_FRAME
 62
     7
 10
605.11945850922234
 20
1509.5946724702069
 30
0.0
 40
0.8886592913478247
 50
213.378140144387
 51
269.02243001409983
  0
ARC
  5
5789
  8
01_FRAME
 62
     7
 10
605.1743411670875
 20
1509.6308308797991
 30
0.0
 40
0.954382473852452
 50
172.72155707448491
 51
213.378140144387
  0
ARC
  5
578A
  8
01_FRAME
 62
     7
 10
606.86062264726536
 20
1509.2626151300849
 30
0.0
 40
0.5564808519953198
 50
269.68811547988628
 51
309.85159843335532
  0
ARC
  5
578B
  8
01_FRAME
 62
     7
 10
607.00180441016585
 20
1509.0934734816151
 30
0.0
 40
0.3361602051582644
 50
309.85159843335532
 51
351.61013221801829
  0
ARC
  5
578C
  8
01_FRAME
 62
     7
 10
607.33421661887473
 20
1512.2593801099649
 30
0.0
 40
0.5217503212408174
 50
29.017138568443521
 51
91.670039206039846
  0
ARC
  5
578D
  8
01_FRAME
 62
     7
 10
607.43470604214849
 20
1512.315121608058
 30
0.0
 40
0.4068362716240224
 50
354.75278767927108
 51
29.017138568443521
  0
LINE
  5
578E
  8
01_FRAME
 62
     7
 10
628.79436913400207
 20
1510.5205667446021
 30
0.0
 11
631.31665515417149
 21
1510.5205667446021
 31
0.0
  0
LINE
  5
578F
  8
01_FRAME
 62
     7
 10
631.08595826248688
 20
1509.4903428345481
 30
0.0
 11
629.04044581404435
 21
1509.4903428345481
 31
0.0
  0
LINE
  5
5790
  8
01_FRAME
 62
     7
 10
628.50215305572942
 20
1508.706142522537
 30
0.0
 11
630.56910357144136
 21
1508.706142522537
 31
0.0
  0
LINE
  5
5791
  8
01_FRAME
 62
     7
 10
630.68465697290105
 20
1512.7809088106451
 30
0.0
 11
629.19424373078232
 21
1512.7809088106451
 31
0.0
  0
LINE
  5
5792
  8
01_FRAME
 62
     7
 10
628.89756767038011
 20
1511.1817511297279
 30
0.0
 11
630.38881621015548
 21
1511.1817511297279
 31
0.0
  0
LINE
  5
5793
  8
01_FRAME
 62
     7
 10
630.20584093164211
 20
1512.0077452775649
 30
0.0
 11
629.25436945684999
 21
1512.0077452775649
 31
0.0
  0
LINE
  5
5794
  8
01_FRAME
 62
     7
 10
627.94848054221143
 20
1511.8736967161899
 30
0.0
 11
627.62550488722331
 21
1509.7517429385509
 31
0.0
  0
LINE
  5
5795
  8
01_FRAME
 62
     7
 10
628.69536224956357
 20
1509.72868252585
 30
0.0
 11
628.79436913400207
 21
1510.5205667446021
 31
0.0
  0
LINE
  5
5796
  8
01_FRAME
 62
     7
 10
628.96160899796701
 20
1511.717922763152
 30
0.0
 11
628.89756767038011
 21
1511.1817511297279
 31
0.0
  0
LINE
  5
5797
  8
01_FRAME
 62
     7
 10
631.03981886425629
 20
1509.044424990567
 30
0.0
 11
631.08595826248688
 21
1509.4903428345481
 31
0.0
  0
LINE
  5
5798
  8
01_FRAME
 62
     7
 10
631.31665515417149
 20
1510.5205667446021
 30
0.0
 11
631.53276532657014
 21
1511.9712792971379
 31
0.0
  0
LINE
  5
5799
  8
01_FRAME
 62
     7
 10
631.31665515417149
 20
1510.5205667446021
 30
0.0
 11
631.31665515417149
 21
1510.5205667446021
 31
0.0
  0
LINE
  5
579A
  8
01_FRAME
 62
     7
 10
630.38881621015548
 20
1511.1817511297279
 30
0.0
 11
630.47138685330515
 21
1511.781833672926
 31
0.0
  0
ARC
  5
579B
  8
01_FRAME
 62
     7
 10
629.31425340673354
 20
1511.6672412893161
 30
0.0
 40
0.356267723523487
 50
129.9788673075646
 51
171.82154662074871
  0
ARC
  5
579C
  8
01_FRAME
 62
     7
 10
629.26288911889583
 20
1511.7410571610501
 30
0.0
 40
0.2668241670683093
 50
91.829758024394408
 51
131.71149876918361
  0
ARC
  5
579D
  8
01_FRAME
 62
     7
 10
630.21894498194774
 20
1511.734104183751
 30
0.0
 40
0.2739546757357922
 50
41.694258406644231
 51
92.74167022804761
  0
ARC
  5
579E
  8
01_FRAME
 62
     7
 10
630.28183008582232
 20
1511.7901214644139
 30
0.0
 40
0.1897378601816721
 50
357.49651121804118
 51
41.69425840668103
  0
ARC
  5
579F
  8
01_FRAME
 62
     7
 10
629.03826970898149
 20
1509.988692431589
 30
0.0
 40
0.4983543481347475
 50
242.0549458700896
 51
270.25018750738548
  0
ARC
  5
57A0
  8
01_FRAME
 62
     7
 10
628.90118517763005
 20
1509.7302763862581
 30
0.0
 40
0.2058290992756684
 50
180.44368064352511
 51
242.0549458700896
  0
ARC
  5
57A1
  8
01_FRAME
 62
     7
 10
628.92249374095513
 20
1511.718970675211
 30
0.0
 40
0.9862260689533767
 50
116.4343118930764
 51
170.97374799137759
  0
ARC
  5
57A2
  8
01_FRAME
 62
     7
 10
629.24850819349263
 20
1511.0632051616669
 30
0.0
 40
1.7185605772340431
 50
91.809445418565659
 51
116.4343118930764
  0
ARC
  5
57A3
  8
01_FRAME
 62
     7
 10
630.58540166182024
 20
1511.6789866411391
 30
0.0
 40
1.1063833352066721
 50
44.532575507597819
 51
84.852989749608284
  0
ARC
  5
57A4
  8
01_FRAME
 62
     7
 10
630.96561443490623
 20
1512.0530458541391
 30
0.0
 40
0.5730147500357465
 50
351.79615361501862
 51
44.532575507597819
  0
ARC
  5
57A5
  8
01_FRAME
 62
     7
 10
628.51731446046927
 20
1509.5946724702069
 30
0.0
 40
0.8886592913478247
 50
213.378140144387
 51
269.02243001409983
  0
ARC
  5
57A6
  8
01_FRAME
 62
     7
 10
628.57219711833363
 20
1509.6308308797991
 30
0.0
 40
0.954382473852452
 50
172.72155707448491
 51
213.378140144387
  0
ARC
  5
57A7
  8
01_FRAME
 62
     7
 10
630.56607443198641
 20
1509.2626151300849
 30
0.0
 40
0.5564808519953198
 50
269.68811547988628
 51
309.85159843335532
  0
ARC
  5
57A8
  8
01_FRAME
 62
     7
 10
630.7072561948878
 20
1509.0934734816151
 30
0.0
 40
0.3361602051582644
 50
309.85159843335532
 51
351.61013221801829
  0
LINE
  5
57A9
  8
01_FRAME
 62
     7
 10
610.77125789561489
 20
1512.7809088106451
 30
0.0
 11
611.40905221201285
 21
1512.7809088106451
 31
0.0
  0
ARC
  5
57AA
  8
01_FRAME
 62
     7
 10
611.22313474893122
 20
1511.964540905273
 30
0.0
 40
0.8742891288908129
 50
356.16225827570821
 51
57.030568872306567
  0
ARC
  5
57AB
  8
01_FRAME
 62
     7
 10
611.41856821971282
 20
1512.2658338591621
 30
0.0
 40
0.515162848085838
 50
57.030568872306567
 51
91.058418890025422
  0
ARC
  5
57AC
  8
01_FRAME
 62
     7
 10
610.84846826017179
 20
1510.4940314107471
 30
0.0
 40
2.2881804305072628
 50
91.933705877925576
 51
118.1284095955113
  0
ARC
  5
57AD
  8
01_FRAME
 62
     7
 10
609.972739948357
 20
1512.1321693545799
 30
0.0
 40
0.4306562720799454
 50
118.1284095955113
 51
149.5502773796288
  0
ARC
  5
57AE
  8
01_FRAME
 62
     7
 10
626.33495691651717
 20
1509.2604047505149
 30
0.0
 40
0.5564808519953198
 50
269.68811547988628
 51
309.85159843335532
  0
ARC
  5
57AF
  8
01_FRAME
 62
     7
 10
626.47613867941777
 20
1509.091263102046
 30
0.0
 40
0.3361602051582644
 50
309.85159843335532
 51
351.61013221801829
  0
ARC
  5
57B0
  8
01_FRAME
 62
     7
 10
625.28588345695846
 20
1509.592462090636
 30
0.0
 40
0.8886592913478247
 50
213.378140144387
 51
269.02243001409983
  0
ARC
  5
57B1
  8
01_FRAME
 62
     7
 10
625.34076611482283
 20
1509.628620500228
 30
0.0
 40
0.954382473852452
 50
172.72155707448491
 51
213.378140144387
  0
ARC
  5
57B2
  8
01_FRAME
 62
     7
 10
625.80592950048026
 20
1509.986482052019
 30
0.0
 40
0.4983543481347475
 50
242.0549458700896
 51
270.25018750738548
  0
ARC
  5
57B3
  8
01_FRAME
 62
     7
 10
625.66884496912894
 20
1509.728066006689
 30
0.0
 40
0.2058290992756684
 50
180.44368064352511
 51
242.0549458700896
  0
ARC
  5
57B4
  8
01_FRAME
 62
     7
 10
622.45052049638684
 20
1511.692921577908
 30
0.0
 40
1.1063833352066721
 50
44.532575507597819
 51
84.852989749608284
  0
ARC
  5
57B5
  8
01_FRAME
 62
     7
 10
622.83073326947283
 20
1512.066980790908
 30
0.0
 40
0.5730147500357465
 50
351.79615361501862
 51
44.532575507597819
  0
ARC
  5
57B6
  8
01_FRAME
 62
     7
 10
620.42309970127155
 20
1512.242493925098
 30
0.0
 40
0.5523514180140796
 50
89.862277278542265
 51
130.98420927748739
  0
ARC
  5
57B7
  8
01_FRAME
 62
     7
 10
620.28509315569374
 20
1512.401340690782
 30
0.0
 40
0.3419277938878447
 50
130.98420927748739
 51
170.7061550554026
  0
ARC
  5
57B8
  8
01_FRAME
 62
     7
 10
622.92225467349328
 20
1509.214368076646
 30
0.0
 40
1.0659941081150781
 50
189.2518512240257
 51
207.625462433428
  0
ARC
  5
57B9
  8
01_FRAME
 62
     7
 10
621.25050817832346
 20
1509.4172946789699
 30
0.0
 40
0.7239043381937801
 50
280.14161684226292
 51
328.86389698780192
  0
ARC
  5
57BA
  8
01_FRAME
 62
     7
 10
620.71266829561375
 20
1509.898283118534
 30
0.0
 40
1.2669372712889659
 50
91.211385343645034
 51
150.30133372254059
  0
ARC
  5
57BB
  8
01_FRAME
 62
     7
 10
621.23165080283138
 20
1509.6022767337481
 30
0.0
 40
1.864400761915205
 50
150.30133372254059
 51
172.84077312506099
  0
ARC
  5
57BC
  8
01_FRAME
 62
     7
 10
620.53906312255697
 20
1509.689270221289
 30
0.0
 40
1.1663709905283439
 50
172.84077312506099
 51
205.63064895958601
  0
ARC
  5
57BD
  8
01_FRAME
 62
     7
 10
620.05993704058324
 20
1509.4593962545609
 30
0.0
 40
0.634954164480408
 50
205.63064895958601
 51
237.5110165228015
  0
ARC
  5
57BE
  8
01_FRAME
 62
     7
 10
620.47991514476848
 20
1510.1189096266939
 30
0.0
 40
1.4168361862834209
 50
237.5110165228015
 51
266.5100646608708
  0
ARC
  5
57BF
  8
01_FRAME
 62
     7
 10
621.7540076956991
 20
1510.1813010141279
 30
0.0
 40
0.2739546757357922
 50
41.694258406644231
 51
92.74167022804761
  0
ARC
  5
57C0
  8
01_FRAME
 62
     7
 10
621.81689279957266
 20
1510.2373182947911
 30
0.0
 40
0.1897378601816721
 50
357.49651121804118
 51
41.69425840668103
  0
ARC
  5
57C1
  8
01_FRAME
 62
     7
 10
621.44242467725655
 20
1509.8094425548429
 30
0.0
 40
0.4670026696925385
 50
279.4565576772809
 51
324.92940398283741
  0
ARC
  5
57C2
  8
01_FRAME
 62
     7
 10
621.29674646411206
 20
1509.9117152685581
 30
0.0
 40
0.6449966295775496
 50
324.92940398283741
 51
344.11881738721661
  0
ARC
  5
57C3
  8
01_FRAME
 62
     7
 10
620.9735410464134
 20
1509.93636314577
 30
0.0
 40
0.5186117883961751
 50
89.355342266111649
 51
126.25017530154049
  0
ARC
  5
57C4
  8
01_FRAME
 62
     7
 10
620.88904334965684
 20
1510.057593576141
 30
0.0
 40
0.3708987868957041
 50
126.7974170349802
 51
163.58374767656801
  0
ARC
  5
57C5
  8
01_FRAME
 62
     7
 10
616.85674207037277
 20
1511.1070536468089
 30
0.0
 40
3.7959401227298382
 50
343.74206189479008
 51
345.59022698623642
  0
ARC
  5
57C6
  8
01_FRAME
 62
     7
 10
621.57443273823606
 20
1509.752422051238
 30
0.0
 40
1.112526027892746
 50
164.78824619774861
 51
186.82014585813221
  0
ARC
  5
57C7
  8
01_FRAME
 62
     7
 10
620.72827384928917
 20
1509.6437004299601
 30
0.0
 40
0.2595511549401781
 50
185.171295796316
 51
236.50138254920921
  0
ARC
  5
57C8
  8
01_FRAME
 62
     7
 10
620.79960353922047
 20
1509.7514734860731
 30
0.0
 40
0.3887910724951353
 50
236.50138254920921
 51
266.82989961253043
  0
ENDSEC
  0
EOF
