  0
SECTION
  2
HEADER
  9
$ACADVER
  1
AC1009
  9
$INSBASE
 10
0.0
 20
0.0
 30
0.0
  9
$EXTMIN
 10
464.54985357137201
 20
1116.727435870808
 30
0.0
  9
$EXTMAX
 10
1003.815705718073
 20
1503.500242817518
 30
0.0
  9
$LIMMIN
 10
0.0
 20
0.0
  9
$LIMMAX
 10
0.0
 20
0.0
  9
$ORTHOMODE
 70
     0
  9
$REGENMODE
 70
     1
  9
$FILLMODE
 70
     1
  9
$QTEXTMODE
 70
     0
  9
$MIRRTEXT
 70
     1
  9
$DRAGMODE
 70
     2
  9
$LTSCALE
 40
20.0
  9
$OSMODE
 70
    47
  9
$ATTMODE
 70
     1
  9
$TEXTSIZE
 40
4.0
  9
$TRACEWID
 40
0.05
  9
$TEXTSTYLE
  7
MECHTRONICS
  9
$CLAYER
  8
50_DIMENSIONS
  9
$CELTYPE
  6
BYLAYER
  9
$CECOLOR
 62
   256
  9
$DIMSCALE
 40
2.0
  9
$DIMASZ
 40
2.0
  9
$DIMEXO
 40
1.0
  9
$DIMDLI
 40
6.0
  9
$DIMRND
 40
0.0
  9
$DIMDLE
 40
0.0
  9
$DIMEXE
 40
0.5
  9
$DIMTP
 40
0.0
  9
$DIMTM
 40
0.0
  9
$DIMTXT
 40
2.0
  9
$DIMCEN
 40
0.09
  9
$DIMTSZ
 40
0.0
  9
$DIMTOL
 70
     0
  9
$DIMLIM
 70
     0
  9
$DIMTIH
 70
     0
  9
$DIMTOH
 70
     1
  9
$DIMSE1
 70
     0
  9
$DIMSE2
 70
     0
  9
$DIMTAD
 70
     0
  9
$DIMZIN
 70
     0
  9
$DIMBLK
  1

  9
$DIMASO
 70
     1
  9
$DIMSHO
 70
     1
  9
$DIMPOST
  1

  9
$DIMAPOST
  1

  9
$DIMALT
 70
     0
  9
$DIMALTD
 70
     2
  9
$DIMALTF
 40
25.399999999999999
  9
$DIMLFAC
 40
1.0
  9
$DIMTOFL
 70
     0
  9
$DIMTVP
 40
0.0
  9
$DIMTIX
 70
     0
  9
$DIMSOXD
 70
     0
  9
$DIMSAH
 70
     0
  9
$DIMBLK1
  1

  9
$DIMBLK2
  1

  9
$DIMSTYLE
  2
MECHTRONICS
  9
$DIMCLRD
 70
     7
  9
$DIMCLRE
 70
     7
  9
$DIMCLRT
 70
     0
  9
$DIMTFAC
 40
1.0
  9
$DIMGAP
 40
0.5
  9
$LUNITS
 70
     2
  9
$LUPREC
 70
    10
  9
$SKETCHINC
 40
0.1
  9
$FILLETRAD
 40
0.0
  9
$AUNITS
 70
     0
  9
$AUPREC
 70
     0
  9
$MENU
  1
acad
  9
$ELEVATION
 40
0.0
  9
$PELEVATION
 40
0.0
  9
$THICKNESS
 40
0.0
  9
$LIMCHECK
 70
     0
  9
$BLIPMODE
 70
     0
  9
$CHAMFERA
 40
0.0
  9
$CHAMFERB
 40
0.0
  9
$SKPOLY
 70
     0
  9
$TDCREATE
 40
2444972.083333333
  9
$TDUPDATE
 40
2454646.8339304752
  9
$TDINDWG
 40
1.1098884144000001
  9
$TDUSRTIMER
 40
1.1098884144000001
  9
$USRTIMER
 70
     1
  9
$ANGBASE
 50
0.0
  9
$ANGDIR
 70
     0
  9
$PDMODE
 70
     0
  9
$PDSIZE
 40
0.0
  9
$PLINEWID
 40
0.0
  9
$COORDS
 70
     1
  9
$SPLFRAME
 70
     0
  9
$SPLINETYPE
 70
     6
  9
$SPLINESEGS
 70
     8
  9
$ATTDIA
 70
     0
  9
$ATTREQ
 70
     1
  9
$HANDLING
 70
     1
  9
$HANDSEED
  5
537F
  9
$SURFTAB1
 70
     6
  9
$SURFTAB2
 70
     6
  9
$SURFTYPE
 70
     6
  9
$SURFU
 70
     6
  9
$SURFV
 70
     6
  9
$UCSNAME
  2

  9
$UCSORG
 10
0.0
 20
0.0
 30
0.0
  9
$UCSXDIR
 10
1.0
 20
0.0
 30
0.0
  9
$UCSYDIR
 10
0.0
 20
1.0
 30
0.0
  9
$PUCSNAME
  2

  9
$PUCSORG
 10
0.0
 20
0.0
 30
0.0
  9
$PUCSXDIR
 10
1.0
 20
0.0
 30
0.0
  9
$PUCSYDIR
 10
0.0
 20
1.0
 30
0.0
  9
$USERI1
 70
     0
  9
$USERI2
 70
     0
  9
$USERI3
 70
     0
  9
$USERI4
 70
     0
  9
$USERI5
 70
     0
  9
$USERR1
 40
0.0
  9
$USERR2
 40
0.0
  9
$USERR3
 40
0.0
  9
$USERR4
 40
0.0
  9
$USERR5
 40
0.0
  9
$WORLDVIEW
 70
     1
  9
$SHADEDGE
 70
     3
  9
$SHADEDIF
 70
    70
  9
$TILEMODE
 70
     1
  9
$MAXACTVP
 70
    16
  9
$PLIMCHECK
 70
     0
  9
$PEXTMIN
 10
1.088750099572608
 20
0.7937499998122686
 30
0.0
  9
$PEXTMAX
 10
21.184573317709511
 20
7.1437499983104198
 30
0.0
  9
$PLIMMIN
 10
0.0
 20
0.0
  9
$PLIMMAX
 10
12.0
 20
9.0
  9
$UNITMODE
 70
     0
  9
$VISRETAIN
 70
     0
  9
$PLINEGEN
 70
     1
  9
$PSLTSCALE
 70
     0
  0
ENDSEC
  0
SECTION
  2
TABLES
  0
TABLE
  2
VPORT
 70
     2
  0
VPORT
  2
*ACTIVE
 70
     0
 10
0.0
 20
0.0
 11
1.0
 21
1.0
 12
815.03534579150835
 22
1310.121701268652
 13
0.0
 23
0.0
 14
1.0
 24
1.0
 15
0.0
 25
0.0
 16
0.0
 26
0.0
 36
1.0
 17
0.0
 27
0.0
 37
0.0
 40
404.93675656768607
 41
1.7423423423423421
 42
50.0
 43
0.0
 44
0.0
 50
0.0
 51
0.0
 71
     0
 72
   100
 73
     1
 74
     0
 75
     0
 76
     0
 77
     0
 78
     0
  0
ENDTAB
  0
TABLE
  2
LTYPE
 70
     1
  0
LTYPE
  2
CONTINUOUS
 70
     0
  3
Solid line
 72
    65
 73
     0
 40
0.0
  0
ENDTAB
  0
TABLE
  2
LAYER
 70
     6
  0
LAYER
  2
0
 70
     0
 62
   221
  6
CONTINUOUS
  0
LAYER
  2
50_DIMENSIONS
 70
     0
 62
     7
  6
CONTINUOUS
  0
LAYER
  2
10_OUTLINE
 70
     0
 62
     2
  6
CONTINUOUS
  0
LAYER
  2
62_TEXT
 70
     0
 62
     7
  6
CONTINUOUS
  0
LAYER
  2
01_FRAME
 70
     0
 62
     4
  6
CONTINUOUS
  0
LAYER
  2
DEFPOINTS
 70
     0
 62
     7
  6
CONTINUOUS
  0
ENDTAB
  0
TABLE
  2
STYLE
 70
     2
  0
STYLE
  2
STANDARD
 70
     0
 40
0.0
 41
1.0
 50
0.0
 71
     0
 42
1.3456087235615539
  3
txt
  4

  0
STYLE
  2
MECHTRONICS
 70
     0
 40
4.0
 41
1.0
 50
0.0
 71
     0
 42
4.0
  3
txt
  4

  0
ENDTAB
  0
TABLE
  2
VIEW
 70
     0
  0
ENDTAB
  0
TABLE
  2
UCS
 70
    16
  0
UCS
  2
AUDIT_D_000731094948-0
 70
     0
 10
0.0
 20
0.0
 30
1.0
 11
1.0
 21
0.0
 31
0.0
 12
0.0
 22
1.0
 32
0.0
  0
UCS
  2
AUDIT_D_000731094948-1
 70
     0
 10
0.0
 20
0.0
 30
1.0
 11
1.0
 21
0.0
 31
0.0
 12
0.0
 22
1.0
 32
0.0
  0
UCS
  2
AUDIT_D_000731094948-2
 70
     0
 10
0.0
 20
0.0
 30
1.0
 11
1.0
 21
0.0
 31
0.0
 12
0.0
 22
1.0
 32
0.0
  0
UCS
  2
AUDIT_D_000731094948-3
 70
     0
 10
0.0
 20
0.0
 30
1.0
 11
1.0
 21
0.0
 31
0.0
 12
0.0
 22
1.0
 32
0.0
  0
UCS
  2
AUDIT_D_000731094948-4
 70
     0
 10
0.0
 20
0.0
 30
1.0
 11
1.0
 21
0.0
 31
0.0
 12
0.0
 22
1.0
 32
0.0
  0
UCS
  2
AUDIT_D_000731094948-5
 70
     0
 10
0.0
 20
0.0
 30
1.0
 11
1.0
 21
0.0
 31
0.0
 12
0.0
 22
1.0
 32
0.0
  0
UCS
  2
AUDIT_D_000731094948-6
 70
     0
 10
0.0
 20
0.0
 30
1.0
 11
1.0
 21
0.0
 31
0.0
 12
0.0
 22
1.0
 32
0.0
  0
UCS
  2
AUDIT_D_000731094948-7
 70
     0
 10
0.0
 20
0.0
 30
1.0
 11
1.0
 21
0.0
 31
0.0
 12
0.0
 22
1.0
 32
0.0
  0
UCS
  2
AUDIT_D_000731094948-8
 70
     0
 10
0.0
 20
0.0
 30
1.0
 11
1.0
 21
0.0
 31
0.0
 12
0.0
 22
1.0
 32
0.0
  0
UCS
  2
AUDIT_D_000731094948-9
 70
     0
 10
0.0
 20
0.0
 30
1.0
 11
1.0
 21
0.0
 31
0.0
 12
0.0
 22
1.0
 32
0.0
  0
UCS
  2
AUDIT_D_000731094948-10
 70
     0
 10
0.0
 20
0.0
 30
1.0
 11
1.0
 21
0.0
 31
0.0
 12
0.0
 22
1.0
 32
0.0
  0
UCS
  2
AUDIT_D_000731094948-11
 70
     0
 10
0.0
 20
0.0
 30
1.0
 11
1.0
 21
0.0
 31
0.0
 12
0.0
 22
1.0
 32
0.0
  0
UCS
  2
AUDIT_D_000731094948-12
 70
     0
 10
0.0
 20
0.0
 30
1.0
 11
1.0
 21
0.0
 31
0.0
 12
0.0
 22
1.0
 32
0.0
  0
UCS
  2
AUDIT_D_000731094948-13
 70
     0
 10
0.0
 20
0.0
 30
1.0
 11
1.0
 21
0.0
 31
0.0
 12
0.0
 22
1.0
 32
0.0
  0
UCS
  2
AUDIT_D_000731094948-14
 70
     0
 10
0.0
 20
0.0
 30
1.0
 11
1.0
 21
0.0
 31
0.0
 12
0.0
 22
1.0
 32
0.0
  0
UCS
  2
CK_VIEW_1
 70
     0
 10
0.0
 20
0.0
 30
1.0
 11
1.0
 21
0.0
 31
0.0
 12
0.0
 22
1.0
 32
0.0
  0
ENDTAB
  0
TABLE
  2
APPID
 70
     4
  0
APPID
  2
ACAD
 70
     0
  0
APPID
  2
ACAD_PSEXT
 70
     0
  0
APPID
  2
DCO15
 70
     0
  0
APPID
  2
ACAD_DSTYLE_DIMTEXT_FILL
 70
     0
  0
ENDTAB
  0
TABLE
  2
DIMSTYLE
 70
     2
  0
DIMSTYLE
  2
STANDARD
 70
     0
  3

  4

  5

  6

  7

 40
1.0
 41
0.18
 42
0.0625
 43
0.38
 44
0.18
 45
0.0
 46
0.0
 47
0.0
 48
0.0
140
0.18
141
0.09
142
0.0
143
25.399999999999999
144
1.0
145
0.0
146
1.0
147
0.09
 71
     0
 72
     0
 73
     1
 74
     1
 75
     0
 76
     0
 77
     0
 78
     0
170
     0
171
     2
172
     0
173
     0
174
     0
175
     0
176
     0
177
     0
178
     0
  0
DIMSTYLE
  2
MECHTRONICS
 70
     0
  3

  4

  5

  6

  7

 40
2.0
 41
2.0
 42
1.0
 43
6.0
 44
0.5
 45
0.0
 46
0.0
 47
0.0
 48
0.0
140
2.0
141
0.09
142
0.0
143
25.399999999999999
144
1.0
145
0.0
146
1.0
147
0.5
 71
     0
 72
     0
 73
     0
 74
     1
 75
     0
 76
     0
 77
     0
 78
     0
170
     0
171
     2
172
     0
173
     0
174
     0
175
     0
176
     7
177
     7
178
     0
  0
ENDTAB
  0
ENDSEC
  0
SECTION
  2
BLOCKS
  0
BLOCK
  8
0
  2
$MODEL_SPACE
 70
     0
 10
0.0
 20
0.0
 30
0.0
  3
$MODEL_SPACE
  1

  0
ENDBLK
  5
E
  8
0
  0
BLOCK
 67
     1
  8
0
  2
$PAPER_SPACE
 70
     0
 10
0.0
 20
0.0
 30
0.0
  3
$PAPER_SPACE
  1

  0
ENDBLK
  5
10
 67
     1
  8
0
  0
BLOCK
  8
0
  2
*D0
 70
     1
 10
0.0
 20
0.0
 30
0.0
  3
*D0
  1

  0
LINE
  5
5212
  8
50_DIMENSIONS
 62
     7
 10
665.72292335044438
 20
1403.7169896727589
 30
0.0
 11
665.72292335044438
 21
1440.9493701578581
 31
0.0
  0
LINE
  5
5213
  8
50_DIMENSIONS
 62
     7
 10
825.60611393198496
 20
1386.4585801433209
 30
0.0
 11
825.60611393198496
 21
1440.9493701578581
 31
0.0
  0
LINE
  5
5214
  8
50_DIMENSIONS
 62
     7
 10
669.72292335044438
 20
1439.9493701578581
 30
0.0
 11
731.67816120601685
 21
1439.9493701578581
 31
0.0
  0
LINE
  5
5215
  8
50_DIMENSIONS
 62
     7
 10
821.60611393198485
 20
1439.9493701578581
 30
0.0
 11
759.65087607641237
 21
1439.9493701578581
 31
0.0
  0
SOLID
  5
5216
  8
50_DIMENSIONS
 62
     7
 10
669.72292335044438
 20
1440.6160368245251
 30
0.0
 11
669.72292335044438
 21
1439.2827034911909
 31
0.0
 12
665.72292335044438
 22
1439.9493701578581
 32
0.0
 13
665.72292335044438
 23
1439.9493701578581
 33
0.0
  0
SOLID
  5
5217
  8
50_DIMENSIONS
 62
     7
 10
821.60611393198485
 20
1440.6160368245251
 30
0.0
 11
821.60611393198485
 21
1439.2827034911909
 31
0.0
 12
825.60611393198496
 22
1439.9493701578581
 32
0.0
 13
825.60611393198496
 23
1439.9493701578581
 33
0.0
  0
INSERT
  5
5218
  8
50_DIMENSIONS
  2
*U23
 10
0.0
 20
0.0
 30
0.0
  0
POINT
  5
5219
  8
DEFPOINTS
 62
     0
 10
665.72292335044438
 20
1401.7169896727589
 30
0.0
  0
POINT
  5
521A
  8
DEFPOINTS
 62
     0
 10
825.60611393198496
 20
1384.4585801433209
 30
0.0
  0
POINT
  5
521B
  8
DEFPOINTS
 62
     0
 10
825.60611393198496
 20
1439.9493701578581
 30
0.0
  0
ENDBLK
  5
442A
  8
0
  0
BLOCK
  8
0
  2
*D1
 70
     1
 10
0.0
 20
0.0
 30
0.0
  3
*D1
  1

  0
LINE
  5
521C
  8
50_DIMENSIONS
 62
     7
 10
687.85940980057319
 20
1291.3772886361089
 30
0.0
 11
641.26074286140044
 21
1291.3772886361089
 31
0.0
  0
LINE
  5
521D
  8
50_DIMENSIONS
 62
     7
 10
681.21056186938665
 20
1419.565241810697
 30
0.0
 11
641.26074286140044
 21
1419.565241810697
 31
0.0
  0
LINE
  5
521E
  8
50_DIMENSIONS
 62
     7
 10
642.26074286140044
 20
1295.3772886361089
 30
0.0
 11
642.26074286140044
 21
1341.484907788205
 31
0.0
  0
LINE
  5
521F
  8
50_DIMENSIONS
 62
     7
 10
642.26074286140044
 20
1415.5652418106961
 30
0.0
 11
642.26074286140044
 21
1369.4576226586009
 31
0.0
  0
SOLID
  5
5220
  8
50_DIMENSIONS
 62
     7
 10
641.59407619473382
 20
1295.3772886361089
 30
0.0
 11
642.92740952806696
 21
1295.3772886361089
 31
0.0
 12
642.26074286140044
 22
1291.3772886361089
 32
0.0
 13
642.26074286140044
 23
1291.3772886361089
 33
0.0
  0
SOLID
  5
5221
  8
50_DIMENSIONS
 62
     7
 10
641.59407619473382
 20
1415.5652418106961
 30
0.0
 11
642.92740952806696
 21
1415.5652418106961
 31
0.0
 12
642.26074286140044
 22
1419.565241810697
 32
0.0
 13
642.26074286140044
 23
1419.565241810697
 33
0.0
  0
INSERT
  5
5222
  8
50_DIMENSIONS
  2
*U24
 10
0.0
 20
0.0
 30
0.0
  0
POINT
  5
5223
  8
DEFPOINTS
 62
     0
 10
689.85940980057308
 20
1291.3772886361089
 30
0.0
  0
POINT
  5
5224
  8
DEFPOINTS
 62
     0
 10
683.21056186938665
 20
1419.565241810697
 30
0.0
  0
POINT
  5
5225
  8
DEFPOINTS
 62
     0
 10
642.26074286140044
 20
1419.565241810697
 30
0.0
  0
ENDBLK
  5
4438
  8
0
  0
BLOCK
  8
0
  2
*U2
 70
     1
 10
0.0
 20
0.0
 30
0.0
  3
*U2
  1

  0
SOLID
  5
5300
  8
50_DIMENSIONS
 10
718.76413054391548
 20
1295.5822713308819
 30
0.0
 11
716.40710793996038
 21
1298.8821029764199
 31
0.0
 12
719.70693958549759
 22
1296.525080372465
 32
0.0
 13
719.70693958549759
 23
1296.525080372465
 33
0.0
  0
POLYLINE
  5
5301
  8
50_DIMENSIONS
 66
     1
 10
0.0
 20
0.0
 30
0.0
  0
VERTEX
  5
5302
  8
50_DIMENSIONS
 10
719.2355350647066
 20
1296.0536758516739
 30
0.0
  0
VERTEX
  5
5303
  8
50_DIMENSIONS
 10
749.4406025952494
 20
1265.8486083211301
 30
0.0
  0
VERTEX
  5
5304
  8
50_DIMENSIONS
 10
760.14379877941985
 20
1265.8486083211301
 30
0.0
  0
SEQEND
  5
5305
  8
50_DIMENSIONS
  0
ENDBLK
  5
5307
  8
0
  0
BLOCK
  8
0
  2
*U3
 70
     1
 10
0.0
 20
0.0
 30
0.0
  3
*U3
  1

  0
TEXT
  5
5309
  8
50_DIMENSIONS
 10
760.89277558705965
 20
1263.7803954971189
 30
0.0
 40
4.0
  1
ENGRAVE CENTER MARKS FOR DRILLING & TAPPING THREADS
  7
MECHTRONICS
  0
ENDBLK
  5
530B
  8
0
  0
BLOCK
  8
0
  2
*U4
 70
     1
 10
0.0
 20
0.0
 30
0.0
  3
*U4
  1

  0
TEXT
  5
530D
  8
50_DIMENSIONS
 10
651.28272050226519
 20
1478.0112986623201
 30
0.0
 40
4.0
  1
SUPPLY THIS DRAWING IN .dxf FORMAT TO THE CNC LASER CUTTING 
  7
MECHTRONICS
  0
TEXT
  5
530E
  8
50_DIMENSIONS
 10
651.16812295792693
 20
1471.2764191716419
 30
0.0
 40
4.0
  1
COMPANY FOR REMAINDER OF DIMENSIONS. THE TWO GIVEN 
  7
MECHTRONICS
  0
TEXT
  5
530F
  8
50_DIMENSIONS
 10
651.42733168916845
 20
1464.5415396809649
 30
0.0
 40
4.0
  1
DIMENSIONS ARE TO CHECK SCALE.
  7
MECHTRONICS
  0
ENDBLK
  5
5311
  8
0
  0
BLOCK
  8
0
  2
*U5
 70
     1
 10
0.0
 20
0.0
 30
0.0
  3
*U5
  1

  0
SOLID
  5
5313
  8
50_DIMENSIONS
 10
577.53961275765334
 20
1247.508249344309
 30
0.0
 11
574.23978111211613
 21
1245.1512267403541
 31
0.0
 12
576.59680371607124
 22
1248.4510583858921
 32
0.0
 13
576.59680371607124
 23
1248.4510583858921
 33
0.0
  0
POLYLINE
  5
5314
  8
50_DIMENSIONS
 66
     1
 10
0.0
 20
0.0
 30
0.0
  0
VERTEX
  5
5315
  8
50_DIMENSIONS
 10
577.06820823686235
 20
1247.9796538651001
 30
0.0
  0
VERTEX
  5
5316
  8
50_DIMENSIONS
 10
588.27226883361345
 20
1259.183714461851
 30
0.0
  0
VERTEX
  5
5317
  8
50_DIMENSIONS
 10
595.15344383323804
 20
1259.183714461851
 30
0.0
  0
SEQEND
  5
5318
  8
50_DIMENSIONS
  0
ENDBLK
  5
531A
  8
0
  0
BLOCK
  8
0
  2
*U6
 70
     1
 10
0.0
 20
0.0
 30
0.0
  3
*U6
  1

  0
TEXT
  5
531C
  8
50_DIMENSIONS
 10
595.76053796693509
 20
1257.1496080498459
 30
0.0
 40
4.0
  1
Swivel point
  7
MECHTRONICS
  0
ENDBLK
  5
531E
  8
0
  0
BLOCK
  8
0
  2
*U7
 70
     1
 10
0.0
 20
0.0
 30
0.0
  3
*U7
  1

  0
SOLID
  5
5320
  8
50_DIMENSIONS
 10
649.58421602937153
 20
1236.347580837725
 30
0.0
 11
646.28438438383432
 21
1233.9905582337699
 31
0.0
 12
648.64140698778942
 22
1237.290389879307
 32
0.0
 13
648.64140698778942
 23
1237.290389879307
 33
0.0
  0
POLYLINE
  5
5321
  8
50_DIMENSIONS
 66
     1
 10
0.0
 20
0.0
 30
0.0
  0
VERTEX
  5
5322
  8
50_DIMENSIONS
 10
649.11281150858053
 20
1236.8189853585161
 30
0.0
  0
VERTEX
  5
5323
  8
50_DIMENSIONS
 10
660.31687210533164
 20
1248.0230459552679
 30
0.0
  0
VERTEX
  5
5324
  8
50_DIMENSIONS
 10
667.19804710495623
 20
1248.0230459552679
 30
0.0
  0
SEQEND
  5
5325
  8
50_DIMENSIONS
  0
ENDBLK
  5
5327
  8
0
  0
BLOCK
  8
0
  2
*U8
 70
     1
 10
0.0
 20
0.0
 30
0.0
  3
*U8
  1

  0
TEXT
  5
5329
  8
50_DIMENSIONS
 10
667.80514123865328
 20
1245.954833131256
 30
0.0
 40
4.0
  1
Stabiliser screw
  7
MECHTRONICS
  0
ENDBLK
  5
532B
  8
0
  0
BLOCK
  8
0
  2
*U9
 70
     1
 10
0.0
 20
0.0
 30
0.0
  3
*U9
  1

  0
SOLID
  5
532D
  8
50_DIMENSIONS
 10
649.58421602937153
 20
1194.4863874096509
 30
0.0
 11
646.28438438383432
 21
1192.129364805696
 31
0.0
 12
648.64140698778942
 22
1195.4291964512331
 32
0.0
 13
648.64140698778942
 23
1195.4291964512331
 33
0.0
  0
POLYLINE
  5
532E
  8
50_DIMENSIONS
 66
     1
 10
0.0
 20
0.0
 30
0.0
  0
VERTEX
  5
532F
  8
50_DIMENSIONS
 10
649.11281150858053
 20
1194.957791930442
 30
0.0
  0
VERTEX
  5
5330
  8
50_DIMENSIONS
 10
660.31687210533164
 20
1206.1618525271931
 30
0.0
  0
VERTEX
  5
5331
  8
50_DIMENSIONS
 10
667.19804710495623
 20
1206.1618525271931
 30
0.0
  0
SEQEND
  5
5332
  8
50_DIMENSIONS
  0
ENDBLK
  5
5334
  8
0
  0
BLOCK
  8
0
  2
*U10
 70
     1
 10
0.0
 20
0.0
 30
0.0
  3
*U10
  1

  0
TEXT
  5
5336
  8
50_DIMENSIONS
 10
667.80514123865328
 20
1204.0936397031819
 30
0.0
 40
4.0
  1
Spring attachment
  7
MECHTRONICS
  0
ENDBLK
  5
5338
  8
0
  0
BLOCK
  8
0
  2
*U11
 70
     1
 10
0.0
 20
0.0
 30
0.0
  3
*U11
  1

  0
TEXT
  5
533A
  8
50_DIMENSIONS
 10
631.512341389521
 20
1228.2293018481539
 30
0.0
 40
4.0
  1
A
  7
MECHTRONICS
  0
ENDBLK
  5
533C
  8
0
  0
BLOCK
  8
0
  2
*U12
 70
     1
 10
0.0
 20
0.0
 30
0.0
  3
*U12
  1

  0
TEXT
  5
533E
  8
50_DIMENSIONS
 10
589.76434138952095
 20
1228.2293018481539
 30
0.0
 40
4.0
  1
A
  7
MECHTRONICS
  0
ENDBLK
  5
5340
  8
0
  0
BLOCK
  8
0
  2
*U13
 70
     1
 10
0.0
 20
0.0
 30
0.0
  3
*U13
  1

  0
TEXT
  5
5342
  8
50_DIMENSIONS
 10
631.51234138952077
 20
1186.4813018481541
 30
0.0
 40
4.0
  1
A
  7
MECHTRONICS
  0
ENDBLK
  5
5344
  8
0
  0
BLOCK
  8
0
  2
*U14
 70
     1
 10
0.0
 20
0.0
 30
0.0
  3
*U14
  1

  0
TEXT
  5
5346
  8
50_DIMENSIONS
 10
589.76434138952095
 20
1179.8809449045491
 30
0.0
 40
4.0
  1
A
  7
MECHTRONICS
  0
ENDBLK
  5
5348
  8
0
  0
BLOCK
  8
0
  2
*U15
 70
     1
 10
0.0
 20
0.0
 30
0.0
  3
*U15
  1

  0
TEXT
  5
534A
  8
50_DIMENSIONS
 10
570.42357300691094
 20
1230.498175088022
 30
0.0
 40
4.0
  1
B
  7
MECHTRONICS
  0
ENDBLK
  5
534C
  8
0
  0
BLOCK
  8
0
  2
*U16
 70
     1
 10
0.0
 20
0.0
 30
0.0
  3
*U16
  1

  0
TEXT
  5
534E
  8
50_DIMENSIONS
 10
615.50102339346745
 20
1230.498175088022
 30
0.0
 40
4.0
  1
B
  7
MECHTRONICS
  0
ENDBLK
  5
5350
  8
0
  0
BLOCK
  8
0
  2
*U17
 70
     1
 10
0.0
 20
0.0
 30
0.0
  3
*U17
  1

  0
TEXT
  5
5352
  8
50_DIMENSIONS
 10
572.10559477232164
 20
1187.1027464668759
 30
0.0
 40
4.0
  1
B
  7
MECHTRONICS
  0
ENDBLK
  5
5354
  8
0
  0
BLOCK
  8
0
  2
*U18
 70
     1
 10
0.0
 20
0.0
 30
0.0
  3
*U18
  1

  0
TEXT
  5
5356
  8
50_DIMENSIONS
 10
612.90316092786793
 20
1179.279443576399
 30
0.0
 40
4.0
  1
B
  7
MECHTRONICS
  0
ENDBLK
  5
5358
  8
0
  0
BLOCK
  8
0
  2
*U19
 70
     1
 10
0.0
 20
0.0
 30
0.0
  3
*U19
  1

  0
SOLID
  5
535A
  8
50_DIMENSIONS
 10
631.58624722281036
 20
1177.665007708046
 30
0.0
 11
629.22922461885526
 21
1180.9648393535831
 31
0.0
 12
632.52905626439247
 22
1178.607816749628
 32
0.0
 13
632.52905626439247
 23
1178.607816749628
 33
0.0
  0
POLYLINE
  5
535B
  8
50_DIMENSIONS
 66
     1
 10
0.0
 20
0.0
 30
0.0
  0
VERTEX
  5
535C
  8
50_DIMENSIONS
 10
632.05765174360135
 20
1178.1364122288369
 30
0.0
  0
VERTEX
  5
535D
  8
50_DIMENSIONS
 10
636.29802904356188
 20
1173.896034928877
 30
0.0
  0
VERTEX
  5
535E
  8
50_DIMENSIONS
 10
649.95299846130467
 20
1173.896034928877
 30
0.0
  0
SEQEND
  5
535F
  8
50_DIMENSIONS
  0
ENDBLK
  5
5361
  8
0
  0
BLOCK
  8
0
  2
*U20
 70
     1
 10
0.0
 20
0.0
 30
0.0
  3
*U20
  1

  0
TEXT
  5
5363
  8
50_DIMENSIONS
 10
650.71834634670722
 20
1171.8619285168711
 30
0.0
 40
4.0
  1
Holes A for direct 
  7
MECHTRONICS
  0
TEXT
  5
5364
  8
50_DIMENSIONS
 10
650.48096571914925
 20
1165.1270490261941
 30
0.0
 40
4.0
  1
(un-geared) motor
  7
MECHTRONICS
  0
ENDBLK
  5
5366
  8
0
  0
BLOCK
  8
0
  2
*U21
 70
     1
 10
0.0
 20
0.0
 30
0.0
  3
*U21
  1

  0
SOLID
  5
5368
  8
50_DIMENSIONS
 10
568.32515406528887
 20
1176.559480536064
 30
0.0
 11
571.62498571082619
 21
1178.9165031400189
 31
0.0
 12
569.26796310687109
 22
1175.616671494482
 32
0.0
 13
569.26796310687109
 23
1175.616671494482
 33
0.0
  0
POLYLINE
  5
5369
  8
50_DIMENSIONS
 66
     1
 10
0.0
 20
0.0
 30
0.0
  0
VERTEX
  5
536A
  8
50_DIMENSIONS
 10
568.79655858607998
 20
1176.0880760152729
 30
0.0
  0
VERTEX
  5
536B
  8
50_DIMENSIONS
 10
562.25891132948493
 20
1169.550428758678
 30
0.0
  0
VERTEX
  5
536C
  8
50_DIMENSIONS
 10
551.19560106527729
 20
1169.550428758678
 30
0.0
  0
SEQEND
  5
536D
  8
50_DIMENSIONS
  0
ENDBLK
  5
536F
  8
0
  0
BLOCK
  8
0
  2
*U22
 70
     1
 10
0.0
 20
0.0
 30
0.0
  3
*U22
  1

  0
TEXT
  5
5371
  8
50_DIMENSIONS
 10
510.2481320899314
 20
1174.1200014307919
 30
0.0
 40
4.0
  1
Holes B for geared 
  7
MECHTRONICS
  0
TEXT
  5
5372
  8
50_DIMENSIONS
 10
509.9725522809274
 20
1167.385121940114
 30
0.0
 40
4.0
  1
Oriental Motor 
  7
MECHTRONICS
  0
TEXT
  5
5373
  8
50_DIMENSIONS
 10
509.78974191257811
 20
1160.7020841956851
 30
0.0
 40
4.0
  1
Vexta PK296 
  7
MECHTRONICS
  0
TEXT
  5
5374
  8
50_DIMENSIONS
 10
510.26996019361502
 20
1154.0354175290181
 30
0.0
 40
4.0
  1
series
  7
MECHTRONICS
  0
ENDBLK
  5
5376
  8
0
  0
BLOCK
  8
0
  2
*U23
 70
     1
 10
0.0
 20
0.0
 30
0.0
  3
*U23
  1

  0
TEXT
  5
5378
  8
50_DIMENSIONS
 62
     0
 10
731.85142177900457
 20
1438.496437006426
 30
0.0
 40
4.0
  1
160 [6.29"]
  7
MECHTRONICS
  0
ENDBLK
  5
537A
  8
0
  0
BLOCK
  8
0
  2
*U24
 70
     1
 10
0.0
 20
0.0
 30
0.0
  3
*U24
  1

  0
TEXT
  5
537C
  8
50_DIMENSIONS
 62
     0
 10
643.71367601283271
 20
1341.658168361193
 30
0.0
 40
4.0
  1
128 [5.05"]
 50
90.0
  7
MECHTRONICS
  0
ENDBLK
  5
537E
  8
0
  0
ENDSEC
  0
SECTION
  2
ENTITIES
  0
LINE
  5
2747
  8
01_FRAME
 62
     4
 10
464.54985357137201
 20
1503.500242817518
 30
0.0
 11
464.54985357137201
 21
1116.7274358708089
 31
0.0
  0
LINE
  5
2748
  8
01_FRAME
 62
     4
 10
1003.815705718073
 20
1503.500242817518
 30
0.0
 11
464.54985357137201
 21
1503.500242817518
 31
0.0
  0
LINE
  5
274D
  8
01_FRAME
 62
     4
 10
1003.815705718072
 20
1116.727435870808
 30
0.0
 11
1003.815705718073
 21
1503.500242817518
 31
0.0
  0
LINE
  5
274E
  8
01_FRAME
 62
     4
 10
464.54985357137201
 20
1116.7274358708089
 30
0.0
 11
1003.815705718072
 21
1116.727435870808
 31
0.0
  0
LINE
  5
372C
  8
01_FRAME
 62
     4
 10
792.66250496627174
 20
1158.688233880521
 30
0.0
 11
851.82283547374982
 21
1158.688233880521
 31
0.0
  0
LINE
  5
372D
  8
01_FRAME
 62
     4
 10
792.66250496627174
 20
1116.727435870808
 30
0.0
 11
792.66250496627174
 21
1158.688233880521
 31
0.0
  0
TEXT
  5
372E
  8
62_TEXT
 10
968.21327570910933
 20
1167.4835731348501
 30
0.0
 40
4.0
  1
14-07-06
  7
MECHTRONICS
  0
TEXT
  5
372F
  8
01_FRAME
 62
     8
 10
986.23720209905002
 20
1133.6554173258339
 30
0.0
 40
2.7999999999999989
  1
Revision
  7
MECHTRONICS
  0
TEXT
  5
3730
  8
62_TEXT
 10
896.19207259476536
 20
1145.517031676181
 30
0.0
 40
4.0
  1
MOTOR SWINGPLATE - PROFILE CUT
  7
MECHTRONICS
 72
     1
 11
946.9055787339197
 21
1145.517031676181
 31
0.0
  0
LINE
  5
3731
  8
01_FRAME
 62
     8
 10
851.82283547374982
 20
1179.7793150194279
 30
0.0
 11
1003.815705718072
 21
1179.779315019427
 31
0.0
  0
LINE
  5
3732
  8
01_FRAME
 62
     8
 10
851.82283547374982
 20
1172.7547979357421
 30
0.0
 11
1003.815705718072
 21
1172.7547979357421
 31
0.0
  0
LINE
  5
3733
  8
01_FRAME
 62
     4
 10
884.34991246353616
 20
1137.8010124612831
 30
0.0
 11
1003.81561069526
 21
1137.8010124612831
 31
0.0
  0
LINE
  5
3734
  8
01_FRAME
 62
     4
 10
792.66259998908492
 20
1149.9949183534241
 30
0.0
 11
884.34991246353616
 21
1149.9949183534241
 31
0.0
  0
LINE
  5
3735
  8
01_FRAME
 62
     8
 10
861.27126620325782
 20
1165.7302555126389
 30
0.0
 11
1003.815705718072
 21
1165.7302555126389
 31
0.0
  0
TEXT
  5
3736
  8
01_FRAME
 62
     8
 10
793.87231000468739
 20
1175.5674708836079
 30
0.0
 40
2.7999999999999989
  1
Higher
  7
MECHTRONICS
  0
TEXT
  5
3737
  8
01_FRAME
 62
     8
 10
897.88349853984278
 20
1161.102076407989
 30
0.0
 40
2.7999999999999989
  1
Description of change
  7
MECHTRONICS
  0
LINE
  5
3738
  8
01_FRAME
 62
     4
 10
884.34991246353616
 20
1158.688233880521
 30
0.0
 11
884.34991246353616
 21
1116.727435870808
 31
0.0
  0
LINE
  5
3739
  8
01_FRAME
 62
     8
 10
851.82283547374982
 20
1158.688233880521
 30
0.0
 11
851.82283547374982
 21
1179.7793150194279
 31
0.0
  0
LINE
  5
373A
  8
01_FRAME
 62
     8
 10
861.2712662032576
 20
1158.688233880521
 30
0.0
 11
861.2712662032576
 21
1179.8638270033839
 31
0.0
  0
LINE
  5
373B
  8
01_FRAME
 62
     7
 10
852.50837986471436
 20
1163.064416960814
 30
0.0
 11
856.59614655886503
 21
1170.14463656457
 31
0.0
  0
LINE
  5
373C
  8
01_FRAME
 62
     7
 10
852.50837986471436
 20
1163.064416960814
 30
0.0
 11
860.68391325301536
 21
1163.064416960814
 31
0.0
  0
LINE
  5
373D
  8
01_FRAME
 62
     7
 10
860.68391325301536
 20
1163.064416960814
 30
0.0
 11
856.59614655886503
 21
1170.14463656457
 31
0.0
  0
TEXT
  5
373E
  8
01_FRAME
 62
     8
 10
885.89774539420046
 20
1152.506666934009
 30
0.0
 40
2.7999999999999989
  1
Title
  7
MECHTRONICS
  0
LINE
  5
373F
  8
01_FRAME
 62
     8
 10
965.52728313242358
 20
1137.8010124612831
 30
0.0
 11
965.52728313242358
 21
1116.727435870808
 31
0.0
  0
LINE
  5
3740
  8
01_FRAME
 62
     8
 10
984.67144691384169
 20
1137.8010124612831
 30
0.0
 11
984.67144691384169
 21
1116.727435870808
 31
0.0
  0
TEXT
  5
3741
  8
01_FRAME
 62
     8
 10
967.09303831763168
 20
1133.251913195088
 30
0.0
 40
2.7999999999999989
  1
Process
  7
MECHTRONICS
  0
TEXT
  5
3742
  8
01_FRAME
 62
     8
 10
885.6690288862095
 20
1133.62490785863
 30
0.0
 40
2.7999999999999989
  1
Drawing Number
  7
MECHTRONICS
  0
TEXT
  5
3743
  8
62_TEXT
 10
898.16347437976572
 20
1121.378920688966
 30
0.0
 40
8.0
  1
M5 10 312
  7
MECHTRONICS
  0
TEXT
  5
3744
  8
62_TEXT
 10
970.73515731975681
 20
1121.378920688966
 30
0.0
 40
8.0
  1
P
  7
MECHTRONICS
  0
LINE
  5
3745
  8
01_FRAME
 62
     8
 10
966.35953205571241
 20
1158.688233880521
 30
0.0
 11
966.35953205571241
 21
1179.846297115535
 31
0.0
  0
TEXT
  5
3747
  8
62_TEXT
 10
989.87932110117515
 20
1121.378920688966
 30
0.0
 40
8.0
  1
B
  7
MECHTRONICS
  0
LINE
  5
3748
  8
01_FRAME
 62
     8
 10
993.14300436968347
 20
1158.688233880521
 30
0.0
 11
993.14300436968347
 21
1179.846297115535
 31
0.0
  0
TEXT
  5
3749
  8
01_FRAME
 62
     8
 10
995.01681647541852
 20
1161.1020764079881
 30
0.0
 40
2.7999999999999989
  1
Rev.
  7
MECHTRONICS
  0
TEXT
  5
374A
  8
01_FRAME
 62
     8
 10
819.28925452412477
 20
1124.2333377731541
 30
0.0
 40
2.7999999999999989
  1
www.mechmate.com
  7
MECHTRONICS
  0
TEXT
  5
374B
  8
62_TEXT
 10
815.02967632816603
 20
1173.5769373092439
 30
0.0
 40
4.0
  1
M5 10 312 D
  7
MECHTRONICS
  0
TEXT
  5
374C
  8
01_FRAME
 62
     8
 10
793.87231000468739
 20
1171.512206139241
 30
0.0
 40
2.7999999999999989
  1
drawing/s:
  7
MECHTRONICS
  0
LINE
  5
374D
  8
01_FRAME
 62
     8
 10
792.66250496627174
 20
1179.7793150194279
 30
0.0
 11
851.82283547374982
 21
1179.7793150194279
 31
0.0
  0
LINE
  5
374E
  8
01_FRAME
 62
     4
 10
851.82283547374982
 20
1158.688233880521
 30
0.0
 11
1003.81561069526
 21
1158.688233880521
 31
0.0
  0
TEXT
  5
374F
  8
01_FRAME
 62
     8
 10
794.21043291974911
 20
1154.5382763240891
 30
0.0
 40
2.7999999999999989
  1
Material:
  7
MECHTRONICS
  0
TEXT
  5
3750
  8
62_TEXT
 10
811.0957768136218
 20
1152.5006398327689
 30
0.0
 40
4.0
  1
6mm [1/4"] STEEL 300MPa
  7
MECHTRONICS
  0
TEXT
  5
3751
  8
01_FRAME
 62
     7
 10
996.14247283417455
 20
1167.389234861904
 30
0.0
 40
4.0
  1
A
  7
MECHTRONICS
  0
TEXT
  5
3752
  8
01_FRAME
 62
     7
 10
936.42046457381514
 20
1167.4835731348501
 30
0.0
 40
4.0
  1
First issue
  7
MECHTRONICS
  0
INSERT
  5
42CF
  8
50_DIMENSIONS
  2
*U2
 10
0.0
 20
0.0
 30
0.0
1001
ACAD
1000
DSTYLE
1002
{
1070
   341
1005
0
1070
   147
1040
0.5
1070
    77
1070
     0
1002
}
  0
INSERT
  5
42D0
  8
50_DIMENSIONS
  2
*U3
 10
0.0
 20
0.0
 30
0.0
  0
LINE
  5
43C2
  8
10_OUTLINE
 62
     2
 10
666.00920395285516
 20
1396.193407367382
 30
0.0
 11
682.51491158283613
 21
1299.6913714144521
 31
0.0
  0
ARC
  5
43C3
  8
10_OUTLINE
 62
     2
 10
692.3717712816308
 20
1301.3772886361089
 30
0.0
 40
10.0
 50
189.7059488997605
 51
270.0
  0
ARC
  5
43C4
  8
10_OUTLINE
 62
     2
 10
685.72292335044426
 20
1399.5652418106961
 30
0.0
 40
20.0
 50
19.600447863629501
 51
189.7059488997605
  0
CIRCLE
  5
43C5
  8
10_OUTLINE
 62
     2
 10
685.72292335044426
 20
1399.5652418106961
 30
0.0
 40
5.0499999999999989
  0
LINE
  5
43C7
  8
10_OUTLINE
 62
     2
 10
723.40511657588036
 20
1392.983599151328
 30
0.0
 11
779.63159359314739
 21
1392.983599151328
 31
0.0
  0
ARC
  5
43C8
  8
10_OUTLINE
 62
     2
 10
805.48682748357703
 20
1382.3068322812589
 30
0.0
 40
20.11928644840788
 50
348.00727201992112
 51
130.125122765903
  0
ARC
  5
43C9
  8
10_OUTLINE
 62
     2
 10
723.40511657588036
 20
1412.983599151328
 30
0.0
 40
20.0
 50
199.60044786363559
 51
270.0
  0
ARC
  5
43CA
  8
10_OUTLINE
 62
     2
 10
779.63159359314739
 20
1412.983599151328
 30
0.0
 40
20.0
 50
270.0
 51
310.12512276590309
  0
CIRCLE
  5
43CB
  8
10_OUTLINE
 62
     2
 10
692.3717712816308
 20
1374.91639387951
 30
0.0
 40
3.25
  0
CIRCLE
  5
43CC
  8
10_OUTLINE
 62
     2
 10
765.91087652503154
 20
1374.91639387951
 30
0.0
 40
3.25
  0
CIRCLE
  5
43CD
  8
10_OUTLINE
 62
     2
 10
692.3717712816308
 20
1301.3772886361089
 30
0.0
 40
3.25
  0
CIRCLE
  5
43CE
  8
10_OUTLINE
 62
     2
 10
765.91087652503154
 20
1301.3772886361089
 30
0.0
 40
3.25
  0
CIRCLE
  5
43D3
  8
10_OUTLINE
 62
     2
 10
747.14132390333123
 20
1338.1468412578099
 30
0.0
 40
36.549999999999997
  0
LINE
  5
43D4
  8
10_OUTLINE
 62
     2
 10
692.3717712816308
 20
1291.3772886361089
 30
0.0
 11
791.10418059451138
 21
1291.3772886361089
 31
0.0
  0
CIRCLE
  5
43D5
  8
10_OUTLINE
 62
     2
 10
806.40586007836146
 20
1312.43632743284
 30
0.0
 40
3.0
  0
ARC
  5
43D6
  8
10_OUTLINE
 62
     2
 10
806.40586007836146
 20
1312.43632743284
 30
0.0
 40
7.0
 50
315.0
 51
81.462970904028964
  0
ARC
  5
43D7
  8
10_OUTLINE
 62
     2
 10
802.16127412348612
 20
1366.65156373694
 30
0.0
 40
20.11928644840788
 50
324.53648027735193
 51
348.00727201992112
  0
LINE
  5
43D8
  8
10_OUTLINE
 62
     2
 10
802.11670779439407
 20
1331.911605311318
 30
0.0
 11
818.54813290564005
 21
1354.978665791408
 31
0.0
  0
LINE
  5
43D9
  8
10_OUTLINE
 62
     2
 10
821.84143664663759
 20
1362.4710266595509
 30
0.0
 11
825.16699000672838
 21
1378.1262952038689
 31
0.0
  0
ARC
  5
43DA
  8
10_OUTLINE
 62
     2
 10
791.10418059451138
 20
1301.3772886361089
 30
0.0
 40
10.0
 50
270.0
 51
315.0
  0
LINE
  5
43DB
  8
10_OUTLINE
 62
     2
 10
798.17524840637668
 20
1294.3062208242441
 30
0.0
 11
811.35560754666722
 21
1307.486579964534
 31
0.0
  0
ARC
  5
43DC
  8
10_OUTLINE
 62
     2
 10
808.63258849391093
 20
1327.270129391994
 30
0.0
 40
8.0
 50
144.53648027735181
 51
261.46297090402902
  0
LINE
  5
4403
  8
10_OUTLINE
 62
     6
 10
775.72174018658859
 20
1372.9368412578101
 30
0.0
 11
788.14090762007368
 21
1372.9368412578101
 31
0.0
  0
LINE
  5
4404
  8
10_OUTLINE
 62
     6
 10
781.93132390333119
 20
1366.727257541067
 30
0.0
 11
781.93132390333119
 21
1379.146424974552
 31
0.0
  0
LINE
  5
4405
  8
10_OUTLINE
 62
     6
 10
706.14174018658855
 20
1372.9368412578101
 30
0.0
 11
718.56090762007375
 21
1372.9368412578101
 31
0.0
  0
LINE
  5
4406
  8
10_OUTLINE
 62
     6
 10
712.35132390333126
 20
1366.727257541067
 30
0.0
 11
712.35132390333126
 21
1379.146424974552
 31
0.0
  0
LINE
  5
4407
  8
10_OUTLINE
 62
     6
 10
706.14174018658855
 20
1303.3568412578099
 30
0.0
 11
718.56090762007375
 21
1303.3568412578099
 31
0.0
  0
LINE
  5
4408
  8
10_OUTLINE
 62
     6
 10
712.35132390333126
 20
1297.1472575410669
 30
0.0
 11
712.35132390333126
 21
1309.5664249745521
 31
0.0
  0
LINE
  5
4409
  8
10_OUTLINE
 62
     6
 10
775.72174018658859
 20
1303.3568412578099
 30
0.0
 11
788.14090762007368
 21
1303.3568412578099
 31
0.0
  0
LINE
  5
440A
  8
10_OUTLINE
 62
     6
 10
781.93132390333119
 20
1297.1472575410669
 30
0.0
 11
781.93132390333119
 21
1309.5664249745521
 31
0.0
  0
DIMENSION
  5
441D
  8
50_DIMENSIONS
  2
*D0
 10
825.60611393198496
 20
1439.9493701578581
 30
0.0
 11
745.66451864121473
 21
1439.9493701578581
 31
0.0
 70
     0
 13
665.72292335044438
 23
1401.7169896727589
 33
0.0
 14
825.60611393198496
 24
1384.4585801433209
 34
0.0
1001
ACAD
1000
DSTYLE
1002
{
1070
     4
1000
"
1070
   143
1040
0.039370078
1070
   170
1070
     1
1002
}
  0
DIMENSION
  5
442B
  8
50_DIMENSIONS
  2
*D1
 10
642.26074286140044
 20
1419.565241810697
 30
0.0
 11
642.26074286140022
 21
1355.471265223403
 31
0.0
 70
     0
 13
689.85940980057308
 23
1291.3772886361089
 33
0.0
 14
683.21056186938665
 24
1419.565241810697
 34
0.0
 50
90.0
1001
ACAD
1000
DSTYLE
1002
{
1070
     4
1000
"
1070
   143
1040
0.039370078
1070
   170
1070
     1
1002
}
  0
LINE
  5
4491
  8
01_FRAME
 62
     8
 10
792.66250496627174
 20
1179.7793150194279
 30
0.0
 11
792.66250496627174
 21
1158.688233880521
 31
0.0
  0
INSERT
  5
44D5
  8
50_DIMENSIONS
  2
*U4
 10
0.0
 20
0.0
 30
0.0
  0
LINE
  5
4550
  8
50_DIMENSIONS
 10
559.67595264856959
 20
1240.392529249373
 30
0.0
 11
569.57937722655811
 21
1182.491307677614
 31
0.0
  0
ARC
  5
4551
  8
50_DIMENSIONS
 10
575.49349304583495
 20
1183.5028580106091
 30
0.0
 40
6.0
 50
189.7059488997605
 51
270.0
  0
ARC
  5
4552
  8
50_DIMENSIONS
 10
571.50418428712305
 20
1242.415629915361
 30
0.0
 40
12.0
 50
19.600447863629501
 51
189.7059488997605
  0
CIRCLE
  5
4553
  8
50_DIMENSIONS
 10
571.50418428712305
 20
1242.415629915361
 30
0.0
 40
3.0299999999999989
  0
ARC
  5
4554
  8
50_DIMENSIONS
 10
571.50418428712305
 20
1242.415629915361
 30
0.0
 40
70.200608508266342
 50
344.21597151013822
 51
351.79992158944248
  0
LINE
  5
4555
  8
50_DIMENSIONS
 10
594.11350022238469
 20
1238.46664431974
 30
0.0
 11
627.84938643274495
 21
1238.46664431974
 31
0.0
  0
ARC
  5
4556
  8
50_DIMENSIONS
 10
643.36252676700258
 20
1232.0605841976981
 30
0.0
 40
12.07157186904473
 50
348.00727201992112
 51
130.125122765903
  0
ARC
  5
4557
  8
50_DIMENSIONS
 10
594.11350022238469
 20
1250.46664431974
 30
0.0
 40
12.0
 50
199.60044786363559
 51
270.0
  0
ARC
  5
4558
  8
50_DIMENSIONS
 10
627.84938643274495
 20
1250.46664431974
 30
0.0
 40
12.0
 50
270.0
 51
310.12512276590309
  0
CIRCLE
  5
4559
  8
50_DIMENSIONS
 10
575.49349304583495
 20
1227.6263211566491
 30
0.0
 40
1.95
  0
CIRCLE
  5
455A
  8
50_DIMENSIONS
 10
619.61695619187526
 20
1227.6263211566491
 30
0.0
 40
1.95
  0
CIRCLE
  5
455B
  8
50_DIMENSIONS
 10
575.49349304583495
 20
1183.5028580106091
 30
0.0
 40
1.95
  0
CIRCLE
  5
455C
  8
50_DIMENSIONS
 10
619.61695619187526
 20
1183.5028580106091
 30
0.0
 40
1.95
  0
CIRCLE
  5
455D
  8
50_DIMENSIONS
 10
608.35522461885523
 20
1205.564589583629
 30
0.0
 40
21.93
  0
LINE
  5
455E
  8
50_DIMENSIONS
 10
575.49349304583495
 20
1177.5028580106091
 30
0.0
 11
634.73293863356332
 21
1177.5028580106091
 31
0.0
  0
CIRCLE
  5
455F
  8
50_DIMENSIONS
 10
643.91394632387335
 20
1190.1382812886479
 30
0.0
 40
1.7999999999999989
  0
ARC
  5
4560
  8
50_DIMENSIONS
 10
643.91394632387335
 20
1190.1382812886479
 30
0.0
 40
4.2000000000000002
 50
315.0
 51
81.462970904028964
  0
ARC
  5
4561
  8
50_DIMENSIONS
 10
641.36719475094822
 20
1222.6674230711069
 30
0.0
 40
12.07157186904473
 50
324.53648027735193
 51
348.00727201992112
  0
LINE
  5
4562
  8
50_DIMENSIONS
 10
641.34045495349289
 20
1201.8234480157339
 30
0.0
 11
651.19931002024055
 21
1215.6636843037879
 31
0.0
  0
LINE
  5
4563
  8
50_DIMENSIONS
 10
653.17529226483896
 20
1220.1591008246739
 30
0.0
 11
655.17062428089355
 21
1229.5522619512651
 31
0.0
  0
ARC
  5
4564
  8
50_DIMENSIONS
 10
634.73293863356332
 20
1183.5028580106091
 30
0.0
 40
6.0
 50
270.0
 51
315.0
  0
LINE
  5
4565
  8
50_DIMENSIONS
 10
638.97557932068253
 20
1179.26021732349
 30
0.0
 11
646.88379480485673
 21
1187.168432807664
 31
0.0
  0
ARC
  5
4566
  8
50_DIMENSIONS
 10
645.24998337320301
 20
1199.038562464139
 30
0.0
 40
4.7999999999999989
 50
144.53648027735181
 51
261.46297090402902
  0
ARC
  5
4567
  8
50_DIMENSIONS
 10
571.50418428712305
 20
1242.415629915361
 30
0.0
 40
75.030608508266354
 50
344.21597151013822
 51
351.79992158944248
  0
ARC
  5
4568
  8
50_DIMENSIONS
 10
643.36252676700258
 20
1232.0605841976981
 30
0.0
 40
2.4299999999999988
 50
351.7999215894489
 51
171.7999215894425
  0
ARC
  5
4569
  8
50_DIMENSIONS
 10
641.36719475094822
 20
1222.6674230711069
 30
0.0
 40
2.4299999999999988
 50
164.21597151013819
 51
344.21597151013822
  0
LINE
  5
456A
  8
50_DIMENSIONS
 10
625.50347438880965
 20
1226.438589583629
 30
0.0
 11
632.95497484890075
 21
1226.438589583629
 31
0.0
  0
LINE
  5
456B
  8
50_DIMENSIONS
 10
629.22922461885526
 20
1222.7128393535829
 30
0.0
 11
629.22922461885526
 21
1230.164339813675
 31
0.0
  0
LINE
  5
456C
  8
50_DIMENSIONS
 10
583.75547438880972
 20
1226.438589583629
 30
0.0
 11
591.20697484890081
 21
1226.438589583629
 31
0.0
  0
LINE
  5
456D
  8
50_DIMENSIONS
 10
587.48122461885532
 20
1222.7128393535829
 30
0.0
 11
587.48122461885532
 21
1230.164339813675
 31
0.0
  0
LINE
  5
456E
  8
50_DIMENSIONS
 10
583.75547438880972
 20
1184.6905895836289
 30
0.0
 11
591.20697484890081
 21
1184.6905895836289
 31
0.0
  0
LINE
  5
456F
  8
50_DIMENSIONS
 10
587.48122461885532
 20
1180.9648393535831
 30
0.0
 11
587.48122461885532
 21
1188.416339813675
 31
0.0
  0
LINE
  5
4570
  8
50_DIMENSIONS
 10
625.50347438880965
 20
1184.6905895836289
 30
0.0
 11
632.95497484890075
 21
1184.6905895836289
 31
0.0
  0
LINE
  5
4571
  8
50_DIMENSIONS
 10
629.22922461885526
 20
1180.9648393535831
 30
0.0
 11
629.22922461885526
 21
1188.416339813675
 31
0.0
  0
ARC
  5
45A3
  8
50_DIMENSIONS
 10
587.48122461885532
 20
1226.438589583629
 30
0.0
 40
1.8
 50
90.0
 51
0.0
  0
CIRCLE
  5
45A4
  8
50_DIMENSIONS
 10
587.48122461885532
 20
1226.438589583629
 30
0.0
 40
1.4134749559966679
  0
ARC
  5
45A5
  8
50_DIMENSIONS
 10
629.22922461885514
 20
1226.438589583629
 30
0.0
 40
1.8
 50
90.0
 51
0.0
  0
CIRCLE
  5
45A6
  8
50_DIMENSIONS
 10
629.22922461885514
 20
1226.438589583629
 30
0.0
 40
1.4134749559966679
  0
ARC
  5
45A7
  8
50_DIMENSIONS
 10
629.22922461885526
 20
1184.6905895836289
 30
0.0
 40
1.8
 50
90.0
 51
0.0
  0
CIRCLE
  5
45A8
  8
50_DIMENSIONS
 10
629.22922461885526
 20
1184.6905895836289
 30
0.0
 40
1.4134749559966679
  0
ARC
  5
45A9
  8
50_DIMENSIONS
 10
587.48122461885532
 20
1184.6905895836289
 30
0.0
 40
1.8
 50
90.0
 51
0.0
  0
CIRCLE
  5
45AA
  8
50_DIMENSIONS
 10
587.48122461885532
 20
1184.6905895836289
 30
0.0
 40
1.4134749559966679
  0
INSERT
  5
45AB
  8
50_DIMENSIONS
  2
*U5
 10
0.0
 20
0.0
 30
0.0
1001
ACAD
1000
DSTYLE
1002
{
1070
   147
1040
0.5
1070
    77
1070
     0
1002
}
  0
INSERT
  5
45AC
  8
50_DIMENSIONS
  2
*U6
 10
0.0
 20
0.0
 30
0.0
  0
INSERT
  5
45FB
  8
50_DIMENSIONS
  2
*U7
 10
0.0
 20
0.0
 30
0.0
1001
ACAD
1000
DSTYLE
1002
{
1070
   147
1040
0.5
1070
    77
1070
     0
1002
}
  0
INSERT
  5
45FC
  8
50_DIMENSIONS
  2
*U8
 10
0.0
 20
0.0
 30
0.0
  0
INSERT
  5
45FD
  8
50_DIMENSIONS
  2
*U9
 10
0.0
 20
0.0
 30
0.0
1001
ACAD
1000
DSTYLE
1002
{
1070
   147
1040
0.5
1070
    77
1070
     0
1002
}
  0
INSERT
  5
45FE
  8
50_DIMENSIONS
  2
*U10
 10
0.0
 20
0.0
 30
0.0
  0
INSERT
  5
45FF
  8
50_DIMENSIONS
  2
*U11
 10
0.0
 20
0.0
 30
0.0
  0
INSERT
  5
4600
  8
50_DIMENSIONS
  2
*U12
 10
0.0
 20
0.0
 30
0.0
  0
INSERT
  5
4601
  8
50_DIMENSIONS
  2
*U13
 10
0.0
 20
0.0
 30
0.0
  0
INSERT
  5
4602
  8
50_DIMENSIONS
  2
*U14
 10
0.0
 20
0.0
 30
0.0
  0
INSERT
  5
4603
  8
50_DIMENSIONS
  2
*U15
 10
0.0
 20
0.0
 30
0.0
  0
INSERT
  5
4604
  8
50_DIMENSIONS
  2
*U16
 10
0.0
 20
0.0
 30
0.0
  0
INSERT
  5
4605
  8
50_DIMENSIONS
  2
*U17
 10
0.0
 20
0.0
 30
0.0
  0
INSERT
  5
4606
  8
50_DIMENSIONS
  2
*U18
 10
0.0
 20
0.0
 30
0.0
  0
INSERT
  5
4607
  8
50_DIMENSIONS
  2
*U19
 10
0.0
 20
0.0
 30
0.0
1001
ACAD
1000
DSTYLE
1002
{
1070
   147
1040
0.5
1070
    77
1070
     0
1002
}
  0
INSERT
  5
4608
  8
50_DIMENSIONS
  2
*U20
 10
0.0
 20
0.0
 30
0.0
  0
INSERT
  5
4609
  8
50_DIMENSIONS
  2
*U21
 10
0.0
 20
0.0
 30
0.0
1001
ACAD
1000
DSTYLE
1002
{
1070
   147
1040
0.5
1070
    77
1070
     0
1002
}
  0
INSERT
  5
460A
  8
50_DIMENSIONS
  2
*U22
 10
0.0
 20
0.0
 30
0.0
  0
TEXT
  5
461D
  8
62_TEXT
 10
538.06082969489501
 20
1146.563355781376
 30
0.0
 40
4.0
  1
EXPLANATION OF HOLES - DO NOT CUT THIS PROFILE
  7
MECHTRONICS
 72
     1
 11
612.39097976310768
 21
1146.563355781376
 31
0.0
  0
LINE
  5
461E
  8
62_TEXT
 10
536.5423979134448
 20
1143.829007726383
 30
0.0
 11
687.24617293665915
 21
1143.829007726383
 31
0.0
  0
TEXT
  5
461F
  8
62_TEXT
 10
824.49312539375467
 20
1334.343821223998
 30
0.0
 40
4.0
  1
PROFILE TO BE CUT
  7
MECHTRONICS
 72
     1
 11
852.38944190125812
 21
1334.343821223998
 31
0.0
  0
LINE
  5
4620
  8
62_TEXT
 10
824.81558661742008
 20
1331.609473169005
 30
0.0
 11
878.76666339654184
 21
1331.609473169005
 31
0.0
  0
ARC
  5
47F1
  8
10_OUTLINE
 62
     2
 10
801.60154483763245
 20
1364.7314864156069
 30
0.0
 40
4.0499999999999989
 50
163.26893098919439
 51
343.26893098919788
  0
ARC
  5
47F2
  8
10_OUTLINE
 62
     2
 10
805.75571852085352
 20
1384.2886742553001
 30
0.0
 40
4.0499999999999989
 50
352.74696211038571
 51
172.74696211038889
  0
ARC
  5
47F5
  8
10_OUTLINE
 62
     2
 10
685.72292335044426
 20
1399.5652418106961
 30
0.0
 40
116.95101418044391
 50
343.26893098919538
 51
352.74696211038759
  0
ARC
  5
47F6
  8
10_OUTLINE
 62
     2
 10
685.72292335044426
 20
1399.5652418106961
 30
0.0
 40
125.0510141804439
 50
343.26893098919538
 51
352.74696211038759
  0
TEXT
  5
47F7
  8
62_TEXT
 10
970.26690915591951
 20
1174.508115557953
 30
0.0
 40
4.0
  1
5-12-06
  7
MECHTRONICS
  0
TEXT
  5
47F8
  8
01_FRAME
 62
     7
 10
996.14247283417455
 20
1174.413777285007
 30
0.0
 40
4.0
  1
B
  7
MECHTRONICS
  0
TEXT
  5
47F9
  8
01_FRAME
 62
     7
 10
889.59760390500924
 20
1174.508115557953
 30
0.0
 40
4.0
  1
Lengthen slot 2mm either side
  7
MECHTRONICS
  0
LINE
  5
47FA
  8
01_FRAME
 62
     7
 10
810.45156932997577
 20
1373.4949396752529
 30
0.0
 11
814.53933602412621
 21
1380.5751592790091
 31
0.0
  0
LINE
  5
47FB
  8
01_FRAME
 62
     7
 10
810.45156932997577
 20
1373.4949396752529
 30
0.0
 11
818.62710271827689
 21
1373.4949396752529
 31
0.0
  0
LINE
  5
47FC
  8
01_FRAME
 62
     7
 10
818.62710271827689
 20
1373.4949396752529
 30
0.0
 11
814.53933602412621
 21
1380.5751592790091
 31
0.0
  0
TEXT
  5
47FD
  8
01_FRAME
 62
     7
 10
812.36796590339645
 20
1373.943662532675
 30
0.0
 40
4.0
  1
B
  7
MECHTRONICS
  0
TEXT
  5
5226
  8
62_TEXT
 62
     1
 10
728.01018502215697
 20
1132.248187419757
 30
0.0
 40
8.0
  1
OPTION
  7
MECHTRONICS
  0
LINE
  5
5227
  8
62_TEXT
 62
    40
 10
771.60631360491868
 20
1130.6749643595199
 30
0.0
 11
728.68870924369992
 21
1130.6749643595199
 31
0.0
  0
LINE
  5
5228
  8
62_TEXT
 62
    40
 10
771.60631360491868
 20
1141.8177737256681
 30
0.0
 11
728.68870924369992
 21
1141.8177737256681
 31
0.0
  0
ARC
  5
5229
  8
62_TEXT
 62
    40
 10
728.68870924369992
 20
1140.2177737268671
 30
0.0
 40
1.5999999987999991
 50
90.0
 51
180.0
  0
ARC
  5
522A
  8
62_TEXT
 62
    40
 10
728.68870924369992
 20
1132.2749643583211
 30
0.0
 40
1.5999999987999991
 50
180.0
 51
269.99999999994787
  0
LINE
  5
522B
  8
62_TEXT
 62
    40
 10
727.08870924490009
 20
1132.2749643583211
 30
0.0
 11
727.08870924490009
 21
1140.2177737268671
 31
0.0
  0
ARC
  5
522C
  8
62_TEXT
 62
    40
 10
771.60631360491675
 20
1140.2177737268671
 30
0.0
 40
1.5999999987999991
 50
0.0
 51
89.999999999947889
  0
ARC
  5
522D
  8
62_TEXT
 62
    40
 10
771.60631360491675
 20
1132.2749643583211
 30
0.0
 40
1.5999999987999991
 50
269.99999999994787
 51
0.0
  0
LINE
  5
522E
  8
62_TEXT
 62
    40
 10
773.20631360371669
 20
1132.2749643583211
 30
0.0
 11
773.20631360371669
 21
1140.2177737268671
 31
0.0
  0
TEXT
  5
522F
  8
01_FRAME
 62
     8
 10
968.93683369689086
 20
1161.1020764079869
 30
0.0
 40
2.7999999999999998
  1
Date (d-m-y)
  7
MECHTRONICS
  0
TEXT
  5
5230
  8
01_FRAME
 62
     8
 10
853.62723289363726
 20
1175.020818740707
 30
0.0
 40
2.7999999999999998
  1
1:2
  7
MECHTRONICS
  0
LINE
  5
5231
  8
01_FRAME
 62
     7
 10
848.09471124588515
 20
1130.6098339655209
 30
0.0
 11
850.46287512141112
 21
1130.6098339655209
 31
0.0
  0
LINE
  5
5232
  8
01_FRAME
 62
     7
 10
849.68367280627876
 20
1140.726670272418
 30
0.0
 11
848.09471124588515
 21
1130.6098339655209
 31
0.0
  0
LINE
  5
5233
  8
01_FRAME
 62
     7
 10
846.13142695983674
 20
1133.77470607591
 30
0.0
 11
849.68367280627876
 21
1140.726670272418
 31
0.0
  0
LINE
  5
5234
  8
01_FRAME
 62
     7
 10
852.21226069761155
 20
1142.81610040033
 30
0.0
 11
848.5148693667378
 21
1142.81610040033
 31
0.0
  0
LINE
  5
5235
  8
01_FRAME
 62
     7
 10
815.78954490854255
 20
1135.58932250057
 30
0.0
 11
820.83411694888105
 21
1135.58932250057
 31
0.0
  0
LINE
  5
5236
  8
01_FRAME
 62
     7
 10
820.37272316551184
 20
1133.5288746804649
 30
0.0
 11
816.28169826862711
 21
1133.5288746804649
 31
0.0
  0
LINE
  5
5237
  8
01_FRAME
 62
     7
 10
815.20511275199692
 20
1131.9604740564421
 30
0.0
 11
819.33901378342102
 21
1131.9604740564421
 31
0.0
  0
LINE
  5
5238
  8
01_FRAME
 62
     7
 10
819.57012058634064
 20
1140.1100066326569
 30
0.0
 11
816.58929410210271
 21
1140.1100066326569
 31
0.0
  0
LINE
  5
5239
  8
01_FRAME
 62
     7
 10
815.99594198129853
 20
1136.911691270823
 30
0.0
 11
818.97843906084904
 21
1136.911691270823
 31
0.0
  0
LINE
  5
523A
  8
01_FRAME
 62
     7
 10
818.61248850382231
 20
1138.5636795664971
 30
0.0
 11
816.70954555423839
 21
1138.5636795664971
 31
0.0
  0
LINE
  5
523B
  8
01_FRAME
 62
     7
 10
801.63270475712477
 20
1130.6098339655209
 30
0.0
 11
803.07652076677527
 21
1140.7727606336221
 31
0.0
  0
LINE
  5
523C
  8
01_FRAME
 62
     7
 10
804.86410250564029
 20
1142.81610040033
 30
0.0
 11
801.11323654703835
 21
1142.81610040033
 31
0.0
  0
LINE
  5
523D
  8
01_FRAME
 62
     7
 10
801.11323654703835
 20
1142.81610040033
 30
0.0
 11
799.38676866843514
 21
1130.6098339655209
 31
0.0
  0
LINE
  5
523E
  8
01_FRAME
 62
     7
 10
799.38676866843514
 20
1130.6098339655209
 30
0.0
 11
801.63270475712477
 21
1130.6098339655209
 31
0.0
  0
LINE
  5
523F
  8
01_FRAME
 62
     7
 10
810.08934153664791
 20
1140.726670272418
 30
0.0
 11
808.50037997625418
 21
1130.6098339655209
 31
0.0
  0
LINE
  5
5240
  8
01_FRAME
 62
     7
 10
810.86854385178037
 20
1130.6098339655209
 30
0.0
 11
812.61792942798252
 21
1142.81610040033
 31
0.0
  0
LINE
  5
5241
  8
01_FRAME
 62
     7
 10
808.50037997625418
 20
1130.6098339655209
 30
0.0
 11
810.86854385178037
 21
1130.6098339655209
 31
0.0
  0
LINE
  5
5242
  8
01_FRAME
 62
     7
 10
812.61792942798252
 20
1142.81610040033
 30
0.0
 11
808.92053809710694
 21
1142.81610040033
 31
0.0
  0
LINE
  5
5243
  8
01_FRAME
 62
     7
 10
806.53709569020589
 20
1133.77470607591
 30
0.0
 11
810.08934153664791
 21
1140.726670272418
 31
0.0
  0
LINE
  5
5244
  8
01_FRAME
 62
     7
 10
803.07652076677527
 20
1140.7727606336221
 30
0.0
 11
804.49741907882878
 21
1133.77470607591
 31
0.0
  0
LINE
  5
5245
  8
01_FRAME
 62
     7
 10
805.97179208492139
 20
1136.9856685475049
 30
0.0
 11
804.86410250564029
 21
1142.81610040033
 31
0.0
  0
LINE
  5
5246
  8
01_FRAME
 62
     7
 10
808.92053809710694
 20
1142.81610040033
 30
0.0
 11
805.97179208492139
 21
1136.9856685475049
 31
0.0
  0
LINE
  5
5247
  8
01_FRAME
 62
     7
 10
804.49741907882878
 20
1133.77470607591
 30
0.0
 11
806.53709569020589
 21
1133.77470607591
 31
0.0
  0
LINE
  5
5248
  8
01_FRAME
 62
     7
 10
814.09776772496105
 20
1138.2955824437479
 30
0.0
 11
813.45181641498493
 21
1134.0516748884691
 31
0.0
  0
LINE
  5
5249
  8
01_FRAME
 62
     7
 10
815.59153113966556
 20
1134.0055540630669
 30
0.0
 11
815.78954490854255
 21
1135.58932250057
 31
0.0
  0
LINE
  5
524A
  8
01_FRAME
 62
     7
 10
816.12402463647209
 20
1137.984034537672
 30
0.0
 11
815.99594198129853
 21
1136.911691270823
 31
0.0
  0
LINE
  5
524B
  8
01_FRAME
 62
     7
 10
832.89198149594074
 20
1138.2910618201561
 30
0.0
 11
835.78368939058225
 21
1138.2910618201561
 31
0.0
  0
LINE
  5
524C
  8
01_FRAME
 62
     7
 10
828.5443030404092
 20
1132.637038992503
 30
0.0
 11
828.63658177055902
 21
1133.4366157773179
 31
0.0
  0
LINE
  5
524D
  8
01_FRAME
 62
     7
 10
831.23556634050851
 20
1143.3339732990421
 30
0.0
 11
829.81310806087436
 21
1131.9246276260301
 31
0.0
  0
LINE
  5
524E
  8
01_FRAME
 62
     7
 10
831.99358684885374
 20
1131.9246276260301
 30
0.0
 11
832.89198149594074
 21
1138.2910618201561
 31
0.0
  0
LINE
  5
524F
  8
01_FRAME
 62
     7
 10
820.280444369051
 20
1132.637038992503
 30
0.0
 11
820.37272316551184
 21
1133.5288746804649
 31
0.0
  0
LINE
  5
5250
  8
01_FRAME
 62
     7
 10
825.68366154373678
 20
1131.9604740564421
 30
0.0
 11
827.6028724547831
 21
1131.9604740564421
 31
0.0
  0
LINE
  5
5251
  8
01_FRAME
 62
     7
 10
824.08416309030497
 20
1131.9604740564421
 30
0.0
 11
825.68366154373678
 21
1131.9604740564421
 31
0.0
  0
LINE
  5
5252
  8
01_FRAME
 62
     7
 10
829.81310806087436
 20
1131.9246276260301
 30
0.0
 11
831.99358684885374
 21
1131.9246276260301
 31
0.0
  0
LINE
  5
5253
  8
01_FRAME
 62
     7
 10
829.81310806087436
 20
1131.9246276260301
 30
0.0
 11
829.81310806087436
 21
1131.9246276260301
 31
0.0
  0
LINE
  5
5254
  8
01_FRAME
 62
     7
 10
828.51359079998281
 20
1140.1100066326569
 30
0.0
 11
825.46834444041076
 21
1140.1100066326569
 31
0.0
  0
LINE
  5
5255
  8
01_FRAME
 62
     7
 10
825.59138281358696
 20
1138.572359020556
 30
0.0
 11
829.46906385154932
 21
1138.572359020556
 31
0.0
  0
LINE
  5
5256
  8
01_FRAME
 62
     7
 10
828.65153654536675
 20
1133.5288746804649
 30
0.0
 11
825.68366154373678
 21
1133.5288746804649
 31
0.0
  0
LINE
  5
5257
  8
01_FRAME
 62
     7
 10
820.83411694888105
 20
1135.58932250057
 30
0.0
 11
821.26633729367836
 21
1138.490747605643
 31
0.0
  0
LINE
  5
5258
  8
01_FRAME
 62
     7
 10
820.83411694888105
 20
1135.58932250057
 30
0.0
 11
820.83411694888105
 21
1135.58932250057
 31
0.0
  0
LINE
  5
5259
  8
01_FRAME
 62
     7
 10
818.97843906084904
 20
1136.911691270823
 30
0.0
 11
819.14358034714849
 21
1138.111856357219
 31
0.0
  0
LINE
  5
525A
  8
01_FRAME
 62
     7
 10
822.9768180632708
 20
1138.2955824437479
 30
0.0
 11
822.48466470318442
 21
1134.974263455729
 31
0.0
  0
LINE
  5
525B
  8
01_FRAME
 62
     7
 10
824.4695135239906
 20
1134.0055540630669
 30
0.0
 11
825.00695065704144
 21
1137.9880528550159
 31
0.0
  0
LINE
  5
525C
  8
01_FRAME
 62
     7
 10
822.48466470318442
 20
1134.974263455729
 30
0.0
 11
822.33086675329105
 21
1134.0516748884691
 31
0.0
  0
LINE
  5
525D
  8
01_FRAME
 62
     7
 10
825.68366154373678
 20
1133.5288746804649
 30
0.0
 11
825.15968065295226
 21
1133.5288746804649
 31
0.0
  0
LINE
  5
525E
  8
01_FRAME
 62
     7
 10
829.46906385154932
 20
1138.572359020556
 30
0.0
 11
829.5552437150925
 21
1139.104019295296
 31
0.0
  0
LINE
  5
525F
  8
01_FRAME
 62
     7
 10
828.63658177055902
 20
1133.4366157773179
 30
0.0
 11
828.65153654536675
 21
1133.5288746804649
 31
0.0
  0
LINE
  5
5260
  8
01_FRAME
 62
     7
 10
833.07853345859792
 20
1139.249025485816
 30
0.0
 11
833.56577748125505
 21
1143.3339732990421
 31
0.0
  0
LINE
  5
5261
  8
01_FRAME
 62
     7
 10
833.56577748125505
 20
1143.3339732990421
 30
0.0
 11
831.23556634050851
 21
1143.3339732990421
 31
0.0
  0
LINE
  5
5262
  8
01_FRAME
 62
     7
 10
837.25293900558972
 20
1131.9246276260301
 30
0.0
 11
838.06649561818995
 21
1138.360236459305
 31
0.0
  0
LINE
  5
5263
  8
01_FRAME
 62
     7
 10
835.78368939058225
 20
1138.2910618201561
 30
0.0
 11
834.9788774805528
 21
1131.9246276260301
 31
0.0
  0
LINE
  5
5264
  8
01_FRAME
 62
     7
 10
841.22703602675551
 20
1130.6098339655209
 30
0.0
 11
842.67085203640625
 21
1140.7727606336221
 31
0.0
  0
LINE
  5
5265
  8
01_FRAME
 62
     7
 10
840.70756781666728
 20
1142.81610040033
 30
0.0
 11
838.98109993806406
 21
1130.6098339655209
 31
0.0
  0
LINE
  5
5266
  8
01_FRAME
 62
     7
 10
834.9788774805528
 20
1131.9246276260301
 30
0.0
 11
837.25293900558972
 21
1131.9246276260301
 31
0.0
  0
LINE
  5
5267
  8
01_FRAME
 62
     7
 10
838.98109993806406
 20
1130.6098339655209
 30
0.0
 11
841.22703602675551
 21
1130.6098339655209
 31
0.0
  0
LINE
  5
5268
  8
01_FRAME
 62
     7
 10
844.45843377527115
 20
1142.81610040033
 30
0.0
 11
840.70756781666728
 21
1142.81610040033
 31
0.0
  0
LINE
  5
5269
  8
01_FRAME
 62
     7
 10
842.67085203640625
 20
1140.7727606336221
 30
0.0
 11
844.09175034845964
 21
1133.77470607591
 31
0.0
  0
LINE
  5
526A
  8
01_FRAME
 62
     7
 10
845.56612335455225
 20
1136.9856685475049
 30
0.0
 11
844.45843377527115
 21
1142.81610040033
 31
0.0
  0
LINE
  5
526B
  8
01_FRAME
 62
     7
 10
848.5148693667378
 20
1142.81610040033
 30
0.0
 11
845.56612335455225
 21
1136.9856685475049
 31
0.0
  0
LINE
  5
526C
  8
01_FRAME
 62
     7
 10
844.09175034845964
 20
1133.77470607591
 30
0.0
 11
846.13142695983674
 21
1133.77470607591
 31
0.0
  0
LINE
  5
526D
  8
01_FRAME
 62
     7
 10
865.98575186249207
 20
1142.5043162942741
 30
0.0
 11
863.91261838026537
 21
1142.2682634267001
 31
0.0
  0
LINE
  5
526E
  8
01_FRAME
 62
     7
 10
864.80161296346512
 20
1134.001133303929
 30
0.0
 11
865.46283892569022
 21
1138.6601970982481
 31
0.0
  0
LINE
  5
526F
  8
01_FRAME
 62
     7
 10
864.41701298577755
 20
1131.9560532973001
 30
0.0
 11
866.5515409932849
 21
1131.9560532973001
 31
0.0
  0
LINE
  5
5270
  8
01_FRAME
 62
     7
 10
859.95355317267774
 20
1131.9883439299799
 30
0.0
 11
859.87331208212697
 21
1132.897547139924
 31
0.0
  0
ARC
  5
5271
  8
01_FRAME
 62
     7
 10
861.86556846708106
 20
1133.073372327558
 30
0.0
 40
2.0
 50
171.34562025558941
 51
185.0435314678447
  0
LINE
  5
5272
  8
01_FRAME
 62
     7
 10
850.46287512141112
 20
1130.6098339655209
 30
0.0
 11
852.21226069761155
 21
1142.81610040033
 31
0.0
  0
LINE
  5
5273
  8
01_FRAME
 62
     7
 10
854.66290445229583
 20
1131.957590918056
 30
0.0
 11
856.63151795894726
 21
1131.957590918056
 31
0.0
  0
LINE
  5
5274
  8
01_FRAME
 62
     7
 10
857.83114178244421
 20
1131.9883439299799
 30
0.0
 11
859.95355317267774
 21
1131.9883439299799
 31
0.0
  0
LINE
  5
5275
  8
01_FRAME
 62
     7
 10
864.4170129857755
 20
1131.9560532973001
 30
0.0
 11
864.57081093567092
 21
1131.9560532973001
 31
0.0
  0
LINE
  5
5276
  8
01_FRAME
 62
     7
 10
858.20025683566371
 20
1136.878063475709
 30
0.0
 11
855.24733660884147
 21
1136.878063475709
 31
0.0
  0
LINE
  5
5277
  8
01_FRAME
 62
     7
 10
853.67859773212695
 20
1138.569475882173
 30
0.0
 11
857.83459207038493
 21
1138.569475882173
 31
0.0
  0
LINE
  5
5278
  8
01_FRAME
 62
     7
 10
858.97512049627392
 20
1140.137876506192
 30
0.0
 11
854.72442367204144
 21
1140.137876506192
 31
0.0
  0
LINE
  5
5279
  8
01_FRAME
 62
     7
 10
853.77087652858586
 20
1139.461311570132
 30
0.0
 11
853.67859773212695
 21
1138.569475882173
 31
0.0
  0
LINE
  5
527A
  8
01_FRAME
 62
     7
 10
855.43177530604021
 20
1133.2747437269929
 30
0.0
 11
856.91387507525894
 21
1133.245761485497
 31
0.0
  0
LINE
  5
527B
  8
01_FRAME
 62
     7
 10
857.40979237334591
 20
1135.4580732272509
 30
0.0
 11
855.83432094529405
 21
1135.4580732272509
 31
0.0
  0
LINE
  5
527C
  8
01_FRAME
 62
     7
 10
862.12994735646487
 20
1140.1670918310481
 30
0.0
 11
861.86396738889187
 21
1138.6601970982481
 31
0.0
  0
LINE
  5
527D
  8
01_FRAME
 62
     7
 10
859.88834044527698
 20
1133.3743197478721
 30
0.0
 11
860.67133720361176
 21
1138.5186174791811
 31
0.0
  0
LINE
  5
527E
  8
01_FRAME
 62
     7
 10
857.70981761636529
 20
1134.0186214797211
 30
0.0
 11
857.88846801544958
 21
1135.0062500179729
 31
0.0
  0
LINE
  5
527F
  8
01_FRAME
 62
     7
 10
858.35405471924594
 20
1137.9851697829431
 30
0.0
 11
858.20025683566371
 21
1136.878063475709
 31
0.0
  0
LINE
  5
5280
  8
01_FRAME
 62
     7
 10
858.36568391371088
 20
1138.117652672895
 30
0.0
 11
858.35405471924594
 21
1137.9851697829431
 31
0.0
  0
LINE
  5
5281
  8
01_FRAME
 62
     7
 10
863.37118711217386
 20
1138.6601970982481
 30
0.0
 11
862.6637166487634
 21
1134.04725412933
 31
0.0
  0
LINE
  5
5282
  8
01_FRAME
 62
     7
 10
861.86396738889187
 20
1138.6601970982481
 30
0.0
 11
863.37118711217386
 21
1138.6601970982481
 31
0.0
  0
LINE
  5
5283
  8
01_FRAME
 62
     7
 10
863.91261838026537
 20
1142.2682634267001
 30
0.0
 11
863.58650421549999
 21
1140.1670918310481
 31
0.0
  0
LINE
  5
5284
  8
01_FRAME
 62
     7
 10
863.58650421549999
 20
1140.1670918310481
 30
0.0
 11
862.12994735646487
 21
1140.1670918310481
 31
0.0
  0
LINE
  5
5285
  8
01_FRAME
 62
     7
 10
867.49297157891294
 20
1132.6326182333651
 30
0.0
 11
867.58525031592387
 21
1133.5244539213229
 31
0.0
  0
LINE
  5
5286
  8
01_FRAME
 62
     7
 10
868.2312016259018
 20
1138.6601970982481
 30
0.0
 11
868.41575915251258
 21
1140.1670918310481
 31
0.0
  0
LINE
  5
5287
  8
01_FRAME
 62
     7
 10
867.58525031592387
 20
1133.5244539213229
 30
0.0
 11
865.4917800924303
 21
1133.5244539213229
 31
0.0
  0
LINE
  5
5288
  8
01_FRAME
 62
     7
 10
865.46283892569022
 20
1138.6601970982481
 30
0.0
 11
868.2312016259018
 21
1138.6601970982481
 31
0.0
  0
LINE
  5
5289
  8
01_FRAME
 62
     7
 10
865.647396452301
 20
1140.1670918310481
 30
0.0
 11
865.98575186249207
 21
1142.5043162942741
 31
0.0
  0
LINE
  5
528A
  8
01_FRAME
 62
     7
 10
868.41575915251258
 20
1140.1670918310481
 30
0.0
 11
865.647396452301
 21
1140.1670918310481
 31
0.0
  0
ARC
  5
528B
  8
01_FRAME
 62
     7
 10
816.82931345400516
 20
1137.8826715899991
 30
0.0
 40
0.712535447046974
 50
129.9788673075646
 51
171.82154662074871
  0
ARC
  5
528C
  8
01_FRAME
 62
     7
 10
816.72658487832985
 20
1138.0303033334669
 30
0.0
 40
0.5336483341366187
 50
91.829758024394408
 51
131.71149876918849
  0
ARC
  5
528D
  8
01_FRAME
 62
     7
 10
825.71115071335578
 20
1137.8913510440609
 30
0.0
 40
0.712535447046974
 50
129.9788673075646
 51
171.82154662074871
  0
ARC
  5
528E
  8
01_FRAME
 62
     7
 10
825.60842213768035
 20
1138.0389827875249
 30
0.0
 40
0.5336483341366187
 50
91.829758024394408
 51
131.71149876918849
  0
ARC
  5
528F
  8
01_FRAME
 62
     7
 10
818.63869660443356
 20
1138.016397378869
 30
0.0
 40
0.5479093514715845
 50
41.694258406644231
 51
92.74167022804761
  0
ARC
  5
5290
  8
01_FRAME
 62
     7
 10
818.76446681218283
 20
1138.1284319401959
 30
0.0
 40
0.3794757203633443
 50
357.49651121804101
 51
41.69425840668103
  0
ARC
  5
5291
  8
01_FRAME
 62
     7
 10
857.86080017099619
 20
1138.022193694545
 30
0.0
 40
0.5479093514715845
 50
41.694258406644231
 51
92.74167022804761
  0
ARC
  5
5292
  8
01_FRAME
 62
     7
 10
857.98657037874534
 20
1138.1342282558719
 30
0.0
 40
0.3794757203633443
 50
357.49651121804101
 51
41.69425840668103
  0
ARC
  5
5293
  8
01_FRAME
 62
     7
 10
816.27734605850105
 20
1134.5255738745459
 30
0.0
 40
0.9967086962694949
 50
242.0549458700896
 51
270.25018750738548
  0
ARC
  5
5294
  8
01_FRAME
 62
     7
 10
816.00317699579853
 20
1134.0087417838829
 30
0.0
 40
0.4116581985513369
 50
180.443680643525
 51
242.0549458700896
  0
ARC
  5
5295
  8
01_FRAME
 62
     7
 10
825.1553284428245
 20
1134.5255738745459
 30
0.0
 40
0.9967086962694949
 50
242.0549458700896
 51
270.25018750738548
  0
ARC
  5
5296
  8
01_FRAME
 62
     7
 10
824.88115938012368
 20
1134.0087417838829
 30
0.0
 40
0.4116581985513369
 50
180.443680643525
 51
242.0549458700896
  0
ARC
  5
5297
  8
01_FRAME
 62
     7
 10
816.04579412244846
 20
1137.9861303617899
 30
0.0
 40
1.972452137906753
 50
116.4343118930705
 51
170.97374799137759
  0
ARC
  5
5298
  8
01_FRAME
 62
     7
 10
816.69782302752333
 20
1136.674599334702
 30
0.0
 40
3.4371211544680871
 50
91.809445418565659
 51
116.4343118930705
  0
ARC
  5
5299
  8
01_FRAME
 62
     7
 10
824.92484446075639
 20
1137.9861303617899
 30
0.0
 40
1.972452137906753
 50
116.4343118930705
 51
170.97374799137759
  0
ARC
  5
529A
  8
01_FRAME
 62
     7
 10
825.57687336583137
 20
1136.674599334702
 30
0.0
 40
3.4371211544680871
 50
91.809445418565659
 51
116.4343118930705
  0
ARC
  5
529B
  8
01_FRAME
 62
     7
 10
819.37160996417856
 20
1137.9061622936449
 30
0.0
 40
2.2127666704133451
 50
44.532575507593243
 51
84.852989749614764
  0
ARC
  5
529C
  8
01_FRAME
 62
     7
 10
820.13203551035065
 20
1138.6542807196449
 30
0.0
 40
1.146029500071492
 50
351.79615361501862
 51
44.532575507593243
  0
ARC
  5
529D
  8
01_FRAME
 62
     7
 10
815.23543556147695
 20
1133.737533951781
 30
0.0
 40
1.777318582695649
 50
213.37814014438339
 51
269.02243001409983
  0
ARC
  5
529E
  8
01_FRAME
 62
     7
 10
815.34520087720534
 20
1133.8098507709651
 30
0.0
 40
1.908764947704904
 50
172.72155707448491
 51
213.37814014438339
  0
ARC
  5
529F
  8
01_FRAME
 62
     7
 10
819.33295550451101
 20
1133.0734192715379
 30
0.0
 40
1.112961703990639
 50
269.68811547988628
 51
309.85159843336021
  0
ARC
  5
52A0
  8
01_FRAME
 62
     7
 10
819.61531903031369
 20
1132.7351359745981
 30
0.0
 40
0.6723204103165288
 50
309.85159843336021
 51
351.61013221801932
  0
ARC
  5
52A1
  8
01_FRAME
 62
     7
 10
824.11448589978306
 20
1133.737533951781
 30
0.0
 40
1.777318582695649
 50
213.37814014438339
 51
269.02243001409983
  0
ARC
  5
52A2
  8
01_FRAME
 62
     7
 10
824.22425121551328
 20
1133.8098507709651
 30
0.0
 40
1.908764947704904
 50
172.72155707448491
 51
213.37814014438339
  0
ARC
  5
52A3
  8
01_FRAME
 62
     7
 10
827.59681417586921
 20
1133.0734192715379
 30
0.0
 40
1.112961703990639
 50
269.68811547988628
 51
309.85159843336021
  0
ARC
  5
52A4
  8
01_FRAME
 62
     7
 10
827.8791777016703
 20
1132.7351359745981
 30
0.0
 40
0.6723204103165288
 50
309.85159843336021
 51
351.61013221801932
  0
ARC
  5
52A5
  8
01_FRAME
 62
     7
 10
828.54400211908774
 20
1139.0669492312979
 30
0.0
 40
1.043500642481634
 50
29.017138568440359
 51
91.670039206039846
  0
ARC
  5
52A6
  8
01_FRAME
 62
     7
 10
828.74498096563525
 20
1139.178432227483
 30
0.0
 40
0.8136725432480448
 50
354.75278767927051
 51
29.017138568440359
  0
LINE
  5
52A7
  8
01_FRAME
 62
     7
 10
871.46430714934263
 20
1135.58932250057
 30
0.0
 11
876.50887918968135
 21
1135.58932250057
 31
0.0
  0
LINE
  5
52A8
  8
01_FRAME
 62
     7
 10
876.04748540631203
 20
1133.5288746804649
 30
0.0
 11
871.9564605094273
 21
1133.5288746804649
 31
0.0
  0
LINE
  5
52A9
  8
01_FRAME
 62
     7
 10
870.87987499279711
 20
1131.9604740564421
 30
0.0
 11
875.01377602422122
 21
1131.9604740564421
 31
0.0
  0
LINE
  5
52AA
  8
01_FRAME
 62
     7
 10
875.24488282714083
 20
1140.1100066326569
 30
0.0
 11
872.2640563429029
 21
1140.1100066326569
 31
0.0
  0
LINE
  5
52AB
  8
01_FRAME
 62
     7
 10
871.67070422209872
 20
1136.911691270823
 30
0.0
 11
874.65320130164923
 21
1136.911691270823
 31
0.0
  0
LINE
  5
52AC
  8
01_FRAME
 62
     7
 10
874.2872507446225
 20
1138.5636795664971
 30
0.0
 11
872.38430779503858
 21
1138.5636795664971
 31
0.0
  0
LINE
  5
52AD
  8
01_FRAME
 62
     7
 10
869.77252996576124
 20
1138.2955824437479
 30
0.0
 11
869.1265786557849
 21
1134.0516748884691
 31
0.0
  0
LINE
  5
52AE
  8
01_FRAME
 62
     7
 10
871.26629338046575
 20
1134.0055540630669
 30
0.0
 11
871.46430714934263
 21
1135.58932250057
 31
0.0
  0
LINE
  5
52AF
  8
01_FRAME
 62
     7
 10
871.79878687727228
 20
1137.984034537672
 30
0.0
 11
871.67070422209872
 21
1136.911691270823
 31
0.0
  0
LINE
  5
52B0
  8
01_FRAME
 62
     7
 10
875.95520660985119
 20
1132.637038992503
 30
0.0
 11
876.04748540631203
 21
1133.5288746804649
 31
0.0
  0
LINE
  5
52B1
  8
01_FRAME
 62
     7
 10
876.50887918968135
 20
1135.58932250057
 30
0.0
 11
876.94109953447855
 21
1138.490747605643
 31
0.0
  0
LINE
  5
52B2
  8
01_FRAME
 62
     7
 10
876.50887918968135
 20
1135.58932250057
 30
0.0
 11
876.50887918968135
 21
1135.58932250057
 31
0.0
  0
LINE
  5
52B3
  8
01_FRAME
 62
     7
 10
874.65320130164923
 20
1136.911691270823
 30
0.0
 11
874.81834258794868
 21
1138.111856357219
 31
0.0
  0
ARC
  5
52B4
  8
01_FRAME
 62
     7
 10
872.50407569480535
 20
1137.8826715899991
 30
0.0
 40
0.712535447046974
 50
129.9788673075646
 51
171.82154662074871
  0
ARC
  5
52B5
  8
01_FRAME
 62
     7
 10
872.40134711913004
 20
1138.0303033334669
 30
0.0
 40
0.5336483341366187
 50
91.829758024394408
 51
131.71149876918849
  0
ARC
  5
52B6
  8
01_FRAME
 62
     7
 10
874.31345884523375
 20
1138.016397378869
 30
0.0
 40
0.5479093514715845
 50
41.694258406644231
 51
92.74167022804761
  0
ARC
  5
52B7
  8
01_FRAME
 62
     7
 10
874.43922905298302
 20
1138.1284319401959
 30
0.0
 40
0.3794757203633443
 50
357.49651121804101
 51
41.69425840668103
  0
ARC
  5
52B8
  8
01_FRAME
 62
     7
 10
871.95210829930124
 20
1134.5255738745459
 30
0.0
 40
0.9967086962694949
 50
242.0549458700896
 51
270.25018750738548
  0
ARC
  5
52B9
  8
01_FRAME
 62
     7
 10
871.67793923659872
 20
1134.0087417838829
 30
0.0
 40
0.4116581985513369
 50
180.443680643525
 51
242.0549458700896
  0
ARC
  5
52BA
  8
01_FRAME
 62
     7
 10
871.72055636324865
 20
1137.9861303617899
 30
0.0
 40
1.972452137906753
 50
116.4343118930705
 51
170.97374799137759
  0
ARC
  5
52BB
  8
01_FRAME
 62
     7
 10
872.37258526832352
 20
1136.674599334702
 30
0.0
 40
3.4371211544680871
 50
91.809445418565659
 51
116.4343118930705
  0
ARC
  5
52BC
  8
01_FRAME
 62
     7
 10
875.04637220497875
 20
1137.9061622936449
 30
0.0
 40
2.2127666704133451
 50
44.532575507593243
 51
84.852989749614764
  0
ARC
  5
52BD
  8
01_FRAME
 62
     7
 10
875.80679775115084
 20
1138.6542807196449
 30
0.0
 40
1.146029500071492
 50
351.79615361501862
 51
44.532575507593243
  0
ARC
  5
52BE
  8
01_FRAME
 62
     7
 10
870.91019780227703
 20
1133.737533951781
 30
0.0
 40
1.777318582695649
 50
213.37814014438339
 51
269.02243001409983
  0
ARC
  5
52BF
  8
01_FRAME
 62
     7
 10
871.01996311800565
 20
1133.8098507709651
 30
0.0
 40
1.908764947704904
 50
172.72155707448491
 51
213.37814014438339
  0
ARC
  5
52C0
  8
01_FRAME
 62
     7
 10
875.0077177453112
 20
1133.0734192715379
 30
0.0
 40
1.112961703990639
 50
269.68811547988628
 51
309.85159843336021
  0
ARC
  5
52C1
  8
01_FRAME
 62
     7
 10
875.29008127111388
 20
1132.7351359745981
 30
0.0
 40
0.6723204103165288
 50
309.85159843336021
 51
351.61013221801932
  0
LINE
  5
52C2
  8
01_FRAME
 62
     7
 10
835.4180846725684
 20
1140.1100066326569
 30
0.0
 11
836.69367330536431
 21
1140.1100066326569
 31
0.0
  0
ARC
  5
52C3
  8
01_FRAME
 62
     7
 10
836.3218383792007
 20
1138.477270821913
 30
0.0
 40
1.748578257781626
 50
356.16225827570781
 51
57.03056887230111
  0
ARC
  5
52C4
  8
01_FRAME
 62
     7
 10
836.71270532076403
 20
1139.0798567296911
 30
0.0
 40
1.0303256961716749
 50
57.03056887230111
 51
91.058418890025422
  0
ARC
  5
52C5
  8
01_FRAME
 62
     7
 10
835.57250540168195
 20
1135.5362518328609
 30
0.0
 40
4.5763608610145274
 50
91.933705877925576
 51
118.128409595517
  0
ARC
  5
52C6
  8
01_FRAME
 62
     7
 10
833.82104877805227
 20
1138.8125277205279
 30
0.0
 40
0.8613125441598906
 50
118.128409595517
 51
149.55027737962561
  0
ARC
  5
52C7
  8
01_FRAME
 62
     7
 10
866.54548271437295
 20
1133.0689985123961
 30
0.0
 40
1.112961703990639
 50
269.68811547988628
 51
309.85159843336021
  0
ARC
  5
52C8
  8
01_FRAME
 62
     7
 10
866.82784624017393
 20
1132.7307152154599
 30
0.0
 40
0.6723204103165288
 50
309.85159843336021
 51
351.61013221801932
  0
ARC
  5
52C9
  8
01_FRAME
 62
     7
 10
864.44733579525564
 20
1133.7331131926401
 30
0.0
 40
1.777318582695649
 50
213.37814014438339
 51
269.02243001409983
  0
ARC
  5
52CA
  8
01_FRAME
 62
     7
 10
864.55710111098404
 20
1133.8054300118231
 30
0.0
 40
1.908764947704904
 50
172.72155707448491
 51
213.37814014438339
  0
ARC
  5
52CB
  8
01_FRAME
 62
     7
 10
865.4874278822989
 20
1134.521153115405
 30
0.0
 40
0.9967086962694949
 50
242.0549458700896
 51
270.25018750738548
  0
ARC
  5
52CC
  8
01_FRAME
 62
     7
 10
865.21325881959615
 20
1134.004321024745
 30
0.0
 40
0.4116581985513369
 50
180.443680643525
 51
242.0549458700896
  0
ARC
  5
52CD
  8
01_FRAME
 62
     7
 10
858.77660987411195
 20
1137.9340321671839
 30
0.0
 40
2.2127666704133451
 50
44.532575507593243
 51
84.852989749614764
  0
ARC
  5
52CE
  8
01_FRAME
 62
     7
 10
859.53703542028404
 20
1138.682150593183
 30
0.0
 40
1.146029500071492
 50
351.79615361501862
 51
44.532575507593243
  0
ARC
  5
52CF
  8
01_FRAME
 62
     7
 10
854.72176828388183
 20
1139.033176861564
 30
0.0
 40
1.104702836028159
 50
89.862277278542265
 51
130.98420927748739
  0
ARC
  5
52D0
  8
01_FRAME
 62
     7
 10
854.44575519272598
 20
1139.3508703929319
 30
0.0
 40
0.6838555877756896
 50
130.98420927748739
 51
170.7061550554026
  0
ARC
  5
52D1
  8
01_FRAME
 62
     7
 10
859.72007822832518
 20
1132.976925164661
 30
0.0
 40
2.1319882162301562
 50
189.25185122402681
 51
207.6254624334249
  0
ARC
  5
52D2
  8
01_FRAME
 62
     7
 10
856.37658523798552
 20
1133.382778369308
 30
0.0
 40
1.4478086763875599
 50
280.1416168422565
 51
328.86389698780192
  0
ARC
  5
52D3
  8
01_FRAME
 62
     7
 10
855.30090547256611
 20
1134.3447552484349
 30
0.0
 40
2.5338745425779332
 50
91.211385343645034
 51
150.30133372253729
  0
ARC
  5
52D4
  8
01_FRAME
 62
     7
 10
856.33887048700115
 20
1133.752742478863
 30
0.0
 40
3.7288015238304109
 50
150.30133372253729
 51
172.8407731250602
  0
ARC
  5
52D5
  8
01_FRAME
 62
     7
 10
854.95369512645254
 20
1133.926729453945
 30
0.0
 40
2.3327419810566878
 50
172.8407731250602
 51
205.6306489595832
  0
ARC
  5
52D6
  8
01_FRAME
 62
     7
 10
853.99544296250485
 20
1133.46698152049
 30
0.0
 40
1.2699083289608151
 50
205.6306489595832
 51
237.5110165228015
  0
ARC
  5
52D7
  8
01_FRAME
 62
     7
 10
854.83539917087523
 20
1134.786008264756
 30
0.0
 40
2.8336723725668431
 50
237.5110165228015
 51
266.5100646608708
  0
ARC
  5
52D8
  8
01_FRAME
 62
     7
 10
857.38358427273647
 20
1134.9107910396231
 30
0.0
 40
0.5479093514715845
 50
41.694258406644231
 51
92.74167022804761
  0
ARC
  5
52D9
  8
01_FRAME
 62
     7
 10
857.50935448048403
 20
1135.02282560095
 30
0.0
 40
0.3794757203633443
 50
357.49651121804101
 51
41.69425840668103
  0
ARC
  5
52DA
  8
01_FRAME
 62
     7
 10
856.7604182358516
 20
1134.1670741210539
 30
0.0
 40
0.9340053393850769
 50
279.4565576772809
 51
324.92940398283741
  0
ARC
  5
52DB
  8
01_FRAME
 62
     7
 10
856.46906180956262
 20
1134.371619548484
 30
0.0
 40
1.2899932591550991
 50
324.92940398283741
 51
344.1188173872149
  0
ARC
  5
52DC
  8
01_FRAME
 62
     7
 10
855.82265097416519
 20
1134.4209153029069
 30
0.0
 40
1.0372235767923501
 50
89.355342266111649
 51
126.25017530153529
  0
ARC
  5
52DD
  8
01_FRAME
 62
     7
 10
855.6536555806523
 20
1134.663376163651
 30
0.0
 40
0.7417975737914082
 50
126.797417034975
 51
163.58374767656801
  0
ARC
  5
52DE
  8
01_FRAME
 62
     7
 10
847.58905302208393
 20
1136.762296304986
 30
0.0
 40
7.5918802454596763
 50
343.74206189479008
 51
345.59022698623801
  0
ARC
  5
52DF
  8
01_FRAME
 62
     7
 10
857.02443435781049
 20
1134.053033113843
 30
0.0
 40
2.2250520557854929
 50
164.78824619774861
 51
186.82014585813221
  0
ARC
  5
52E0
  8
01_FRAME
 62
     7
 10
855.33211657991706
 20
1133.8355898712859
 30
0.0
 40
0.5191023098803562
 50
185.171295796316
 51
236.50138254920921
  0
ARC
  5
52E1
  8
01_FRAME
 62
     7
 10
855.47477595977932
 20
1134.0511359835141
 30
0.0
 40
0.7775821449902707
 50
236.50138254920921
 51
266.82989961253043
  0
ENDSEC
  0
EOF
