  0
SECTION
  2
HEADER
  9
$ACADVER
  1
AC1009
  9
$INSBASE
 10
0.0
 20
0.0
 30
0.0
  9
$EXTMIN
 10
503.55426815071991
 20
442.63469037785609
 30
0.0
  9
$EXTMAX
 10
773.18719422407037
 20
636.02109385121105
 30
0.0
  9
$LIMMIN
 10
0.0
 20
0.0
  9
$LIMMAX
 10
0.0
 20
0.0
  9
$ORTHOMODE
 70
     0
  9
$REGENMODE
 70
     1
  9
$FILLMODE
 70
     1
  9
$QTEXTMODE
 70
     0
  9
$MIRRTEXT
 70
     1
  9
$DRAGMODE
 70
     2
  9
$LTSCALE
 40
10.0
  9
$OSMODE
 70
    47
  9
$ATTMODE
 70
     1
  9
$TEXTSIZE
 40
2.0
  9
$TRACEWID
 40
0.05
  9
$TEXTSTYLE
  7
MECHTRONICS
  9
$CLAYER
  8
50_DIMENSIONS
  9
$CELTYPE
  6
BYLAYER
  9
$CECOLOR
 62
   256
  9
$DIMSCALE
 40
1.0
  9
$DIMASZ
 40
2.0
  9
$DIMEXO
 40
1.0
  9
$DIMDLI
 40
6.0
  9
$DIMRND
 40
0.0
  9
$DIMDLE
 40
0.0
  9
$DIMEXE
 40
0.5
  9
$DIMTP
 40
0.0
  9
$DIMTM
 40
0.0
  9
$DIMTXT
 40
2.0
  9
$DIMCEN
 40
0.09
  9
$DIMTSZ
 40
0.0
  9
$DIMTOL
 70
     0
  9
$DIMLIM
 70
     0
  9
$DIMTIH
 70
     0
  9
$DIMTOH
 70
     1
  9
$DIMSE1
 70
     0
  9
$DIMSE2
 70
     0
  9
$DIMTAD
 70
     0
  9
$DIMZIN
 70
     0
  9
$DIMBLK
  1

  9
$DIMASO
 70
     1
  9
$DIMSHO
 70
     1
  9
$DIMPOST
  1

  9
$DIMAPOST
  1
"
  9
$DIMALT
 70
     1
  9
$DIMALTD
 70
     1
  9
$DIMALTF
 40
0.03937
  9
$DIMLFAC
 40
1.0
  9
$DIMTOFL
 70
     0
  9
$DIMTVP
 40
0.0
  9
$DIMTIX
 70
     0
  9
$DIMSOXD
 70
     0
  9
$DIMSAH
 70
     0
  9
$DIMBLK1
  1

  9
$DIMBLK2
  1

  9
$DIMSTYLE
  2
MECHTRONICS
  9
$DIMCLRD
 70
     7
  9
$DIMCLRE
 70
     7
  9
$DIMCLRT
 70
     0
  9
$DIMTFAC
 40
1.0
  9
$DIMGAP
 40
0.5
  9
$LUNITS
 70
     2
  9
$LUPREC
 70
    10
  9
$SKETCHINC
 40
0.1
  9
$FILLETRAD
 40
0.0
  9
$AUNITS
 70
     0
  9
$AUPREC
 70
     0
  9
$MENU
  1
acad
  9
$ELEVATION
 40
0.0
  9
$PELEVATION
 40
0.0
  9
$THICKNESS
 40
0.0
  9
$LIMCHECK
 70
     0
  9
$BLIPMODE
 70
     0
  9
$CHAMFERA
 40
0.0
  9
$CHAMFERB
 40
0.0
  9
$SKPOLY
 70
     0
  9
$TDCREATE
 40
2444972.083333333
  9
$TDUPDATE
 40
2454646.8336830791
  9
$TDINDWG
 40
1.0161876272999999
  9
$TDUSRTIMER
 40
1.0161869097
  9
$USRTIMER
 70
     1
  9
$ANGBASE
 50
0.0
  9
$ANGDIR
 70
     0
  9
$PDMODE
 70
     0
  9
$PDSIZE
 40
0.0
  9
$PLINEWID
 40
0.0
  9
$COORDS
 70
     1
  9
$SPLFRAME
 70
     0
  9
$SPLINETYPE
 70
     6
  9
$SPLINESEGS
 70
     8
  9
$ATTDIA
 70
     0
  9
$ATTREQ
 70
     1
  9
$HANDLING
 70
     1
  9
$HANDSEED
  5
5571
  9
$SURFTAB1
 70
     6
  9
$SURFTAB2
 70
     6
  9
$SURFTYPE
 70
     6
  9
$SURFU
 70
     6
  9
$SURFV
 70
     6
  9
$UCSNAME
  2

  9
$UCSORG
 10
0.0
 20
0.0
 30
0.0
  9
$UCSXDIR
 10
1.0
 20
0.0
 30
0.0
  9
$UCSYDIR
 10
0.0
 20
1.0
 30
0.0
  9
$PUCSNAME
  2

  9
$PUCSORG
 10
0.0
 20
0.0
 30
0.0
  9
$PUCSXDIR
 10
1.0
 20
0.0
 30
0.0
  9
$PUCSYDIR
 10
0.0
 20
1.0
 30
0.0
  9
$USERI1
 70
     0
  9
$USERI2
 70
     0
  9
$USERI3
 70
     0
  9
$USERI4
 70
     0
  9
$USERI5
 70
     0
  9
$USERR1
 40
0.0
  9
$USERR2
 40
0.0
  9
$USERR3
 40
0.0
  9
$USERR4
 40
0.0
  9
$USERR5
 40
0.0
  9
$WORLDVIEW
 70
     1
  9
$SHADEDGE
 70
     3
  9
$SHADEDIF
 70
    70
  9
$TILEMODE
 70
     1
  9
$MAXACTVP
 70
    16
  9
$PLIMCHECK
 70
     0
  9
$PEXTMIN
 10
1.0887500995726069
 20
0.7937499998122686
 30
0.0
  9
$PEXTMAX
 10
21.184573317709511
 20
7.1437499983104198
 30
0.0
  9
$PLIMMIN
 10
0.0
 20
0.0
  9
$PLIMMAX
 10
12.0
 20
9.0
  9
$UNITMODE
 70
     0
  9
$VISRETAIN
 70
     0
  9
$PLINEGEN
 70
     1
  9
$PSLTSCALE
 70
     0
  0
ENDSEC
  0
SECTION
  2
TABLES
  0
TABLE
  2
VPORT
 70
     2
  0
VPORT
  2
*ACTIVE
 70
     0
 10
0.0
 20
0.0
 11
1.0
 21
1.0
 12
678.79413878312653
 22
539.34047039468965
 13
0.0
 23
0.0
 14
1.0
 24
1.0
 15
0.0
 25
0.0
 16
0.0
 26
0.0
 36
1.0
 17
0.0
 27
0.0
 37
0.0
 40
202.51915324444391
 41
1.7423423423423421
 42
50.0
 43
0.0
 44
0.0
 50
0.0
 51
0.0
 71
     0
 72
   100
 73
     1
 74
     0
 75
     0
 76
     0
 77
     0
 78
     0
  0
ENDTAB
  0
TABLE
  2
LTYPE
 70
     1
  0
LTYPE
  2
CONTINUOUS
 70
     0
  3
Solid line
 72
    65
 73
     0
 40
0.0
  0
ENDTAB
  0
TABLE
  2
LAYER
 70
     6
  0
LAYER
  2
0
 70
     0
 62
   221
  6
CONTINUOUS
  0
LAYER
  2
50_DIMENSIONS
 70
     0
 62
     7
  6
CONTINUOUS
  0
LAYER
  2
10_OUTLINE
 70
     0
 62
     2
  6
CONTINUOUS
  0
LAYER
  2
62_TEXT
 70
     0
 62
     7
  6
CONTINUOUS
  0
LAYER
  2
01_FRAME
 70
     0
 62
     4
  6
CONTINUOUS
  0
LAYER
  2
DEFPOINTS
 70
     0
 62
     7
  6
CONTINUOUS
  0
ENDTAB
  0
TABLE
  2
STYLE
 70
     2
  0
STYLE
  2
STANDARD
 70
     0
 40
0.0
 41
1.0
 50
0.0
 71
     0
 42
1.345608723561553
  3
txt
  4

  0
STYLE
  2
MECHTRONICS
 70
     0
 40
2.0
 41
1.0
 50
0.0
 71
     0
 42
2.0
  3
txt
  4

  0
ENDTAB
  0
TABLE
  2
VIEW
 70
     0
  0
ENDTAB
  0
TABLE
  2
UCS
 70
    16
  0
UCS
  2
AUDIT_D_000731094948-0
 70
     0
 10
0.0
 20
0.0
 30
1.0
 11
1.0
 21
0.0
 31
0.0
 12
0.0
 22
1.0
 32
0.0
  0
UCS
  2
AUDIT_D_000731094948-1
 70
     0
 10
0.0
 20
0.0
 30
1.0
 11
1.0
 21
0.0
 31
0.0
 12
0.0
 22
1.0
 32
0.0
  0
UCS
  2
AUDIT_D_000731094948-2
 70
     0
 10
0.0
 20
0.0
 30
1.0
 11
1.0
 21
0.0
 31
0.0
 12
0.0
 22
1.0
 32
0.0
  0
UCS
  2
AUDIT_D_000731094948-3
 70
     0
 10
0.0
 20
0.0
 30
1.0
 11
1.0
 21
0.0
 31
0.0
 12
0.0
 22
1.0
 32
0.0
  0
UCS
  2
AUDIT_D_000731094948-4
 70
     0
 10
0.0
 20
0.0
 30
1.0
 11
1.0
 21
0.0
 31
0.0
 12
0.0
 22
1.0
 32
0.0
  0
UCS
  2
AUDIT_D_000731094948-5
 70
     0
 10
0.0
 20
0.0
 30
1.0
 11
1.0
 21
0.0
 31
0.0
 12
0.0
 22
1.0
 32
0.0
  0
UCS
  2
AUDIT_D_000731094948-6
 70
     0
 10
0.0
 20
0.0
 30
1.0
 11
1.0
 21
0.0
 31
0.0
 12
0.0
 22
1.0
 32
0.0
  0
UCS
  2
AUDIT_D_000731094948-7
 70
     0
 10
0.0
 20
0.0
 30
1.0
 11
1.0
 21
0.0
 31
0.0
 12
0.0
 22
1.0
 32
0.0
  0
UCS
  2
AUDIT_D_000731094948-8
 70
     0
 10
0.0
 20
0.0
 30
1.0
 11
1.0
 21
0.0
 31
0.0
 12
0.0
 22
1.0
 32
0.0
  0
UCS
  2
AUDIT_D_000731094948-9
 70
     0
 10
0.0
 20
0.0
 30
1.0
 11
1.0
 21
0.0
 31
0.0
 12
0.0
 22
1.0
 32
0.0
  0
UCS
  2
AUDIT_D_000731094948-10
 70
     0
 10
0.0
 20
0.0
 30
1.0
 11
1.0
 21
0.0
 31
0.0
 12
0.0
 22
1.0
 32
0.0
  0
UCS
  2
AUDIT_D_000731094948-11
 70
     0
 10
0.0
 20
0.0
 30
1.0
 11
1.0
 21
0.0
 31
0.0
 12
0.0
 22
1.0
 32
0.0
  0
UCS
  2
AUDIT_D_000731094948-12
 70
     0
 10
0.0
 20
0.0
 30
1.0
 11
1.0
 21
0.0
 31
0.0
 12
0.0
 22
1.0
 32
0.0
  0
UCS
  2
AUDIT_D_000731094948-13
 70
     0
 10
0.0
 20
0.0
 30
1.0
 11
1.0
 21
0.0
 31
0.0
 12
0.0
 22
1.0
 32
0.0
  0
UCS
  2
AUDIT_D_000731094948-14
 70
     0
 10
0.0
 20
0.0
 30
1.0
 11
1.0
 21
0.0
 31
0.0
 12
0.0
 22
1.0
 32
0.0
  0
UCS
  2
CK_VIEW_1
 70
     0
 10
0.0
 20
0.0
 30
1.0
 11
1.0
 21
0.0
 31
0.0
 12
0.0
 22
1.0
 32
0.0
  0
ENDTAB
  0
TABLE
  2
APPID
 70
     4
  0
APPID
  2
ACAD
 70
     0
  0
APPID
  2
DCO15
 70
     0
  0
APPID
  2
ACAD_PSEXT
 70
     0
  0
APPID
  2
ACAD_DSTYLE_DIMTEXT_FILL
 70
     0
  0
ENDTAB
  0
TABLE
  2
DIMSTYLE
 70
     2
  0
DIMSTYLE
  2
STANDARD
 70
     0
  3

  4

  5

  6

  7

 40
1.0
 41
0.18
 42
0.0625
 43
0.38
 44
0.18
 45
0.0
 46
0.0
 47
0.0
 48
0.0
140
0.18
141
0.09
142
0.0
143
25.399999999999999
144
1.0
145
0.0
146
1.0
147
0.09
 71
     0
 72
     0
 73
     1
 74
     1
 75
     0
 76
     0
 77
     0
 78
     0
170
     0
171
     2
172
     0
173
     0
174
     0
175
     0
176
     0
177
     0
178
     0
  0
DIMSTYLE
  2
MECHTRONICS
 70
     0
  3

  4
"
  5

  6

  7

 40
1.0
 41
2.0
 42
1.0
 43
6.0
 44
0.5
 45
0.0
 46
0.0
 47
0.0
 48
0.0
140
2.0
141
0.09
142
0.0
143
0.03937
144
1.0
145
0.0
146
1.0
147
0.5
 71
     0
 72
     0
 73
     0
 74
     1
 75
     0
 76
     0
 77
     0
 78
     0
170
     1
171
     1
172
     0
173
     0
174
     0
175
     0
176
     7
177
     7
178
     0
  0
ENDTAB
  0
ENDSEC
  0
SECTION
  2
BLOCKS
  0
BLOCK
  8
0
  2
$MODEL_SPACE
 70
     0
 10
0.0
 20
0.0
 30
0.0
  3
$MODEL_SPACE
  1

  0
ENDBLK
  5
E
  8
0
  0
BLOCK
 67
     1
  8
0
  2
$PAPER_SPACE
 70
     0
 10
0.0
 20
0.0
 30
0.0
  3
$PAPER_SPACE
  1

  0
ENDBLK
  5
10
 67
     1
  8
0
  0
BLOCK
  8
0
  2
*D0
 70
     1
 10
0.0
 20
0.0
 30
0.0
  3
*D0
  1

  0
LINE
  5
4ED1
  8
50_DIMENSIONS
 62
     7
 10
562.10954581024976
 20
533.08910091753751
 30
0.0
 11
562.10954581024976
 21
493.3069239680342
 31
0.0
  0
LINE
  5
4ED2
  8
50_DIMENSIONS
 62
     7
 10
706.86472560852644
 20
518.17598762553882
 30
0.0
 11
706.86472560852644
 21
493.3069239680342
 31
0.0
  0
LINE
  5
4ED3
  8
50_DIMENSIONS
 62
     7
 10
564.10954581024976
 20
493.80692396803431
 30
0.0
 11
628.27090105727348
 21
493.80692396803431
 31
0.0
  0
LINE
  5
4ED4
  8
50_DIMENSIONS
 62
     7
 10
704.86472560852644
 20
493.80692396803431
 30
0.0
 11
640.70337036150272
 21
493.80692396803431
 31
0.0
  0
SOLID
  5
4ED5
  8
50_DIMENSIONS
 62
     7
 10
564.10954581024976
 20
494.14025730136763
 30
0.0
 11
564.10954581024976
 21
493.47359063470088
 31
0.0
 12
562.10954581024976
 22
493.80692396803431
 32
0.0
 13
562.10954581024976
 23
493.80692396803431
 33
0.0
  0
SOLID
  5
4ED6
  8
50_DIMENSIONS
 62
     7
 10
704.86472560852644
 20
494.14025730136763
 30
0.0
 11
704.86472560852644
 21
493.47359063470088
 31
0.0
 12
706.86472560852644
 22
493.80692396803431
 32
0.0
 13
706.86472560852644
 23
493.80692396803431
 33
0.0
  0
INSERT
  5
4ED7
  8
50_DIMENSIONS
  2
*U2
 10
0.0
 20
0.0
 30
0.0
  0
POINT
  5
4ED8
  8
DEFPOINTS
 62
     0
 10
562.10954581024976
 20
534.08910091753751
 30
0.0
  0
POINT
  5
4ED9
  8
DEFPOINTS
 62
     0
 10
706.86472560852644
 20
519.17598762553882
 30
0.0
  0
POINT
  5
4EDA
  8
DEFPOINTS
 62
     0
 10
706.86472560852644
 20
493.80692396803431
 30
0.0
  0
ENDBLK
  5
4EDC
  8
0
  0
BLOCK
  8
0
  2
*D1
 70
     1
 10
0.0
 20
0.0
 30
0.0
  3
*D1
  1

  0
LINE
  5
4EDF
  8
50_DIMENSIONS
 62
     7
 10
695.88517298682609
 20
507.1964350038366
 30
0.0
 11
722.48183807379883
 21
507.1964350038366
 31
0.0
  0
LINE
  5
4EE0
  8
50_DIMENSIONS
 62
     7
 10
689.10892317301466
 20
612.05236962798199
 30
0.0
 11
722.48183807379883
 21
612.05236962798199
 31
0.0
  0
LINE
  5
4EE1
  8
50_DIMENSIONS
 62
     7
 10
721.98183807379883
 20
509.1964350038366
 30
0.0
 11
721.98183807379883
 21
553.40816766379476
 31
0.0
  0
LINE
  5
4EE2
  8
50_DIMENSIONS
 62
     7
 10
721.98183807379883
 20
610.0523696279821
 30
0.0
 11
721.98183807379883
 21
565.840636968024
 31
0.0
  0
SOLID
  5
4EE3
  8
50_DIMENSIONS
 62
     7
 10
721.64850474046546
 20
509.1964350038366
 30
0.0
 11
722.31517140713208
 21
509.1964350038366
 31
0.0
 12
721.98183807379883
 22
507.1964350038366
 32
0.0
 13
721.98183807379883
 23
507.1964350038366
 33
0.0
  0
SOLID
  5
4EE4
  8
50_DIMENSIONS
 62
     7
 10
721.64850474046546
 20
610.0523696279821
 30
0.0
 11
722.31517140713208
 21
610.0523696279821
 31
0.0
 12
721.98183807379883
 22
612.05236962798199
 32
0.0
 13
721.98183807379883
 23
612.05236962798199
 33
0.0
  0
INSERT
  5
4EE5
  8
50_DIMENSIONS
  2
*U3
 10
0.0
 20
0.0
 30
0.0
  0
POINT
  5
4EE6
  8
DEFPOINTS
 62
     0
 10
694.88517298682621
 20
507.1964350038366
 30
0.0
  0
POINT
  5
4EE7
  8
DEFPOINTS
 62
     0
 10
688.10892317301455
 20
612.05236962798199
 30
0.0
  0
POINT
  5
4EE8
  8
DEFPOINTS
 62
     0
 10
721.98183807379883
 20
612.05236962798199
 30
0.0
  0
ENDBLK
  5
4EEA
  8
0
  0
BLOCK
  8
0
  2
*U2
 70
     1
 10
0.0
 20
0.0
 30
0.0
  3
*U2
  1

  0
TEXT
  5
556A
  8
50_DIMENSIONS
 62
     0
 10
628.35753134376728
 20
493.08045739231812
 30
0.0
 40
2.0
  1
145 [5.7"]
  7
MECHTRONICS
  0
ENDBLK
  5
556C
  8
0
  0
BLOCK
  8
0
  2
*U3
 70
     1
 10
0.0
 20
0.0
 30
0.0
  3
*U3
  1

  0
TEXT
  5
556E
  8
50_DIMENSIONS
 62
     0
 10
722.70830464951484
 20
553.49479795028867
 30
0.0
 40
2.0
  1
105 [4.1"]
 50
90.0
  7
MECHTRONICS
  0
ENDBLK
  5
5570
  8
0
  0
ENDSEC
  0
SECTION
  2
ENTITIES
  0
LINE
  5
2747
  8
01_FRAME
 62
     4
 10
503.55426815071991
 20
636.02109385121105
 30
0.0
 11
503.55426815072008
 21
442.63469037785632
 31
0.0
  0
LINE
  5
2748
  8
01_FRAME
 62
     4
 10
773.18719422407037
 20
636.02109385121105
 30
0.0
 11
503.55426815071991
 21
636.02109385121105
 31
0.0
  0
LINE
  5
274D
  8
01_FRAME
 62
     4
 10
773.18719422407037
 20
442.63469037785632
 30
0.0
 11
773.18719422407037
 21
636.02109385121105
 31
0.0
  0
LINE
  5
274E
  8
01_FRAME
 62
     4
 10
503.55426815072008
 20
442.63469037785632
 30
0.0
 11
773.18719422407037
 21
442.63469037785632
 31
0.0
  0
LINE
  5
3FC5
  8
01_FRAME
 62
     4
 10
667.61064135957611
 20
463.61508938271243
 30
0.0
 11
697.19075910190884
 21
463.61508938271243
 31
0.0
  0
LINE
  5
3FC6
  8
01_FRAME
 62
     4
 10
667.61059384816974
 20
442.63469037785609
 30
0.0
 11
667.61059384816974
 21
474.16062995216561
 31
0.0
  0
TEXT
  5
3FD0
  8
01_FRAME
 62
     8
 10
764.397942414559
 20
451.09868110536888
 30
0.0
 40
1.399999999999999
  1
Revision
  7
MECHTRONICS
  0
TEXT
  5
3FD1
  8
62_TEXT
 10
718.67687834454478
 20
456.95882299356288
 30
0.0
 40
2.0
  1
UNIV. Z-MOTOR PLATE - PROFILE CUT
  7
MECHTRONICS
 72
     1
 11
744.73213073199372
 21
456.95882299356288
 31
0.0
  0
LINE
  5
3FD2
  8
01_FRAME
 62
     8
 10
697.19075910190884
 20
474.16062995216561
 30
0.0
 11
773.18719422407037
 21
474.16062995216561
 31
0.0
  0
LINE
  5
3FD3
  8
01_FRAME
 62
     8
 10
697.19075910190884
 20
470.64837141032268
 30
0.0
 11
773.18719422407037
 21
470.64837141032268
 31
0.0
  0
LINE
  5
3FD4
  8
01_FRAME
 62
     4
 10
713.45429759680189
 20
453.1714786730933
 30
0.0
 11
773.187146712664
 21
453.1714786730933
 31
0.0
  0
LINE
  5
3FD5
  8
01_FRAME
 62
     4
 10
667.61064135957633
 20
459.26843161916389
 30
0.0
 11
713.45429759680189
 21
459.26843161916389
 31
0.0
  0
LINE
  5
3FD6
  8
01_FRAME
 62
     8
 10
701.9149744666629
 20
467.13610019877137
 30
0.0
 11
773.18719422407037
 21
467.13610019877137
 31
0.0
  0
TEXT
  5
3FD9
  8
01_FRAME
 62
     8
 10
668.21549636737757
 20
472.05470788425612
 30
0.0
 40
1.399999999999999
  1
Higher
  7
MECHTRONICS
  0
TEXT
  5
3FDA
  8
01_FRAME
 62
     8
 10
720.22109063495543
 20
464.8220106464463
 30
0.0
 40
1.399999999999999
  1
Description of change
  7
MECHTRONICS
  0
LINE
  5
3FDB
  8
01_FRAME
 62
     4
 10
713.45429759680189
 20
463.61508938271243
 30
0.0
 11
713.45429759680189
 21
442.63469037785609
 31
0.0
  0
LINE
  5
3FDC
  8
01_FRAME
 62
     4
 10
697.19075910190884
 20
463.61508938271243
 30
0.0
 11
697.19075910190884
 21
474.16062995216561
 31
0.0
  0
LINE
  5
3FDF
  8
01_FRAME
 62
     8
 10
701.91497446666267
 20
463.61508938271243
 30
0.0
 11
701.91497446666267
 21
474.20288594414399
 31
0.0
  0
LINE
  5
3FE0
  8
01_FRAME
 62
     7
 10
697.53353129739105
 20
465.80318092285899
 30
0.0
 11
699.57741464446644
 21
469.34329072473707
 31
0.0
  0
LINE
  5
3FE1
  8
01_FRAME
 62
     7
 10
697.53353129739105
 20
465.80318092285899
 30
0.0
 11
701.62129799154172
 21
465.80318092285899
 31
0.0
  0
LINE
  5
3FE2
  8
01_FRAME
 62
     7
 10
701.62129799154172
 20
465.80318092285899
 30
0.0
 11
699.57741464446644
 21
469.34329072473707
 31
0.0
  0
TEXT
  5
3FE3
  8
01_FRAME
 62
     8
 10
714.22821406213416
 20
460.52430590945659
 30
0.0
 40
1.399999999999999
  1
Title
  7
MECHTRONICS
  0
LINE
  5
3FE4
  8
01_FRAME
 62
     8
 10
754.04298293124577
 20
453.1714786730933
 30
0.0
 11
754.04298293124577
 21
442.63469037785609
 31
0.0
  0
LINE
  5
3FE6
  8
01_FRAME
 62
     8
 10
763.61506482195477
 20
453.1714786730933
 30
0.0
 11
763.61506482195477
 21
442.63469037785609
 31
0.0
  0
TEXT
  5
3FE7
  8
01_FRAME
 62
     8
 10
754.82586052384988
 20
450.89692903999583
 30
0.0
 40
1.399999999999999
  1
Process
  7
MECHTRONICS
  0
TEXT
  5
3FE8
  8
01_FRAME
 62
     8
 10
714.11385580813874
 20
451.0834263717669
 30
0.0
 40
1.399999999999999
  1
Drawing Number
  7
MECHTRONICS
  0
TEXT
  5
3FE9
  8
62_TEXT
 10
720.36107855491673
 20
444.96043278693509
 30
0.0
 40
4.0
  1
M5 10 322
  7
MECHTRONICS
  0
TEXT
  5
3FEA
  8
62_TEXT
 10
756.64692002491245
 20
444.96043278693509
 30
0.0
 40
4.0
  1
P
  7
MECHTRONICS
  0
LINE
  5
3FEB
  8
01_FRAME
 62
     8
 10
754.45910739289025
 20
463.61508938271243
 30
0.0
 11
754.45910739289025
 21
474.19412100021958
 31
0.0
  0
TEXT
  5
3FED
  8
62_TEXT
 10
766.21900191562156
 20
444.96043278693509
 30
0.0
 40
4.0
  1
C
  7
MECHTRONICS
  0
LINE
  5
3FEE
  8
01_FRAME
 62
     8
 10
767.85084354987566
 20
463.61508938271243
 30
0.0
 11
767.85084354987566
 21
474.19412100021958
 31
0.0
  0
TEXT
  5
3FEF
  8
01_FRAME
 62
     8
 10
768.78774960274325
 20
464.82201064644607
 30
0.0
 40
1.399999999999999
  1
Rev.
  7
MECHTRONICS
  0
TEXT
  5
3FF2
  8
01_FRAME
 62
     8
 10
680.92396862709643
 20
446.38764132902872
 30
0.0
 40
1.399999999999999
  1
www.mechmate.com
  7
MECHTRONICS
  0
TEXT
  5
3FF6
  8
62_TEXT
 10
678.79417952911695
 20
471.059441097074
 30
0.0
 40
2.0
  1
M5 10 322 D
  7
MECHTRONICS
  0
TEXT
  5
3FF8
  8
01_FRAME
 62
     8
 10
668.21549636737757
 20
470.0270755120722
 30
0.0
 40
1.399999999999999
  1
drawing/s:
  7
MECHTRONICS
  0
LINE
  5
3FF9
  8
01_FRAME
 62
     4
 10
667.61059384816974
 20
474.16062995216561
 30
0.0
 11
697.19075910190884
 21
474.16062995216561
 31
0.0
  0
LINE
  5
3FFB
  8
01_FRAME
 62
     4
 10
697.19075910190884
 20
463.61508938271243
 30
0.0
 11
773.187146712664
 21
463.61508938271243
 31
0.0
  0
TEXT
  5
3FFC
  8
01_FRAME
 62
     8
 10
668.38455782490837
 20
461.54011060449608
 30
0.0
 40
1.399999999999999
  1
Material:
  7
MECHTRONICS
  0
TEXT
  5
3FFD
  8
62_TEXT
 10
677.44188469238134
 20
460.5212923588366
 30
0.0
 40
2.0
  1
6mm STEEL 300MPa
  7
MECHTRONICS
  0
TEXT
  5
4339
  8
01_FRAME
 62
     8
 10
698.26349720923895
 20
471.73794076175852
 30
0.0
 40
1.399999999999999
  1
1:1
  7
MECHTRONICS
  0
TEXT
  5
4E33
  8
62_TEXT
 10
755.38597921958865
 20
471.52503022142821
 30
0.0
 40
2.0
  1
21-11-06
  7
MECHTRONICS
  0
TEXT
  5
4E34
  8
01_FRAME
 62
     7
 10
769.35057778212115
 20
471.47786108495529
 30
0.0
 40
2.0
  1
C
  7
MECHTRONICS
  0
TEXT
  5
4E35
  8
01_FRAME
 62
     7
 10
712.85163660727642
 20
471.52503022142821
 30
0.0
 40
2.0
  1
Moved hinge point - lower motor
  7
MECHTRONICS
  0
LINE
  5
4E36
  8
01_FRAME
 62
     7
 10
563.68942658388755
 20
553.25552151180682
 30
0.0
 11
565.73330993096306
 21
556.79563131368491
 31
0.0
  0
LINE
  5
4E37
  8
01_FRAME
 62
     7
 10
563.68942658388755
 20
553.25552151180682
 30
0.0
 11
567.77719327803834
 21
553.25552151180682
 31
0.0
  0
LINE
  5
4E38
  8
01_FRAME
 62
     7
 10
567.77719327803834
 20
553.25552151180682
 30
0.0
 11
565.73330993096306
 21
556.79563131368491
 31
0.0
  0
TEXT
  5
4E39
  8
01_FRAME
 62
     7
 10
564.67029518877985
 20
553.50906516941257
 30
0.0
 40
2.0
  1
C
  7
MECHTRONICS
  0
ARC
  5
4E8B
  8
10_OUTLINE
 10
605.32562036512445
 20
517.19643500383665
 30
0.0
 40
10.0
 50
255.92342108179969
 51
270.0
  0
ARC
  5
4E8C
  8
10_OUTLINE
 10
582.09517298682579
 20
533.33100701906244
 30
0.0
 40
20.0
 50
99.731980046732758
 51
255.92342108179969
  0
CIRCLE
  5
4E8D
  8
10_OUTLINE
 10
605.32562036512445
 20
590.7355402472391
 30
0.0
 40
3.25
  0
CIRCLE
  5
4E8E
  8
10_OUTLINE
 10
678.86472560852701
 20
590.7355402472391
 30
0.0
 40
3.25
  0
CIRCLE
  5
4E8F
  8
10_OUTLINE
 10
605.32562036512445
 20
517.19643500383665
 30
0.0
 40
3.25
  0
CIRCLE
  5
4E90
  8
10_OUTLINE
 10
678.86472560852701
 20
517.19643500383665
 30
0.0
 40
3.25
  0
CIRCLE
  5
4E91
  8
10_OUTLINE
 10
660.09517298682567
 20
553.96598762553776
 30
0.0
 40
36.549999999999997
  0
LINE
  5
4E92
  8
10_OUTLINE
 10
605.325620365124
 20
507.1964350038366
 30
0.0
 11
694.88517298682621
 21
507.1964350038366
 31
0.0
  0
LINE
  5
4E93
  8
10_OUTLINE
 62
    30
 10
688.67558927008452
 20
588.75598762553693
 30
0.0
 11
701.09475670356778
 21
588.75598762553693
 31
0.0
  0
LINE
  5
4E94
  8
10_OUTLINE
 62
    30
 10
694.88517298682439
 20
582.54640390879524
 30
0.0
 11
694.88517298682439
 21
594.96557134228044
 31
0.0
  0
LINE
  5
4E95
  8
10_OUTLINE
 62
    30
 10
619.09558927008266
 20
588.75598762553693
 30
0.0
 11
631.51475670356797
 21
588.75598762553693
 31
0.0
  0
LINE
  5
4E96
  8
10_OUTLINE
 62
    30
 10
625.30517298682616
 20
582.54640390879524
 30
0.0
 11
625.30517298682616
 21
594.96557134228044
 31
0.0
  0
LINE
  5
4E97
  8
10_OUTLINE
 62
    30
 10
619.09558927008266
 20
519.17598762553689
 30
0.0
 11
631.51475670356797
 21
519.17598762553689
 31
0.0
  0
LINE
  5
4E98
  8
10_OUTLINE
 62
    30
 10
625.30517298682616
 20
512.96640390879531
 30
0.0
 11
625.30517298682616
 21
525.3855713422804
 31
0.0
  0
LINE
  5
4E99
  8
10_OUTLINE
 62
    30
 10
688.67558927008452
 20
519.17598762553689
 30
0.0
 11
701.09475670356778
 21
519.17598762553689
 31
0.0
  0
LINE
  5
4E9A
  8
10_OUTLINE
 62
    30
 10
694.88517298682439
 20
512.96640390879531
 30
0.0
 11
694.88517298682439
 21
525.3855713422804
 31
0.0
  0
ARC
  5
4E9B
  8
10_OUTLINE
 10
605.32562036512445
 20
590.7355402472391
 30
0.0
 40
10.0
 50
89.999999999999986
 51
172.7154832708504
  0
LINE
  5
4E9C
  8
10_OUTLINE
 10
605.325620365124
 20
600.73554024723728
 30
0.0
 11
673.56814416398379
 21
600.73554024723899
 31
0.0
  0
ARC
  5
4E9D
  8
10_OUTLINE
 10
694.88517298682655
 20
588.75598762553693
 30
0.0
 40
11.9795526217004
 50
0.0
 51
38.9663015421594
  0
LINE
  5
4E9E
  8
10_OUTLINE
 10
706.86472560852656
 20
588.75598762553693
 30
0.0
 11
706.86472560852656
 21
519.17598762553689
 31
0.0
  0
ARC
  5
4E9F
  8
10_OUTLINE
 10
694.88517298682655
 20
519.17598762553882
 30
0.0
 40
11.9795526217004
 50
270.0
 51
0.0
  0
CIRCLE
  5
4EA0
  8
10_OUTLINE
 10
688.10892317301455
 20
605.0523696279821
 30
0.0
 40
3.0
  0
ARC
  5
4EA1
  8
10_OUTLINE
 10
688.10892317301455
 20
605.0523696279821
 30
0.0
 40
7.0
 50
38.9663015421594
 51
165.78597344927161
  0
ARC
  5
4EA2
  8
10_OUTLINE
 10
673.56814416398413
 20
608.73554024723728
 30
0.0
 40
8.0
 50
270.0
 51
345.78597344927158
  0
LINE
  5
4EA3
  8
10_OUTLINE
 10
704.19946635830388
 20
596.28948747661025
 30
0.0
 11
693.55153490145597
 21
609.45441206001362
 31
0.0
  0
LINE
  5
4EB4
  8
10_OUTLINE
 10
577.2308023464534
 20
513.93157665956335
 30
0.0
 11
602.89343504493843
 21
507.49671982408699
 31
0.0
  0
ARC
  5
4EB5
  8
10_OUTLINE
 10
581.70729535178577
 20
563.70250838053892
 30
0.0
 40
10.0
 50
279.7319800467327
 51
352.71548327085043
  0
LINE
  5
4EB6
  8
10_OUTLINE
 10
595.40633292955715
 20
592.00350585032049
 30
0.0
 11
591.62658278735307
 21
562.43454277745752
 31
0.0
  0
LINE
  5
4EB7
  8
10_OUTLINE
 10
583.39769065869586
 20
553.84641566048094
 30
0.0
 11
578.71438237300515
 21
553.04319245917804
 31
0.0
  0
CIRCLE
  5
4EB8
  8
10_OUTLINE
 10
582.09517298682579
 20
533.33100701906244
 30
0.0
 40
5.0499999999999989
  0
DIMENSION
  5
4ECF
  8
50_DIMENSIONS
  2
*D0
 10
706.86472560852644
 20
493.80692396803431
 30
0.0
 11
634.4871357093881
 21
493.80692396803431
 31
0.0
 70
     0
 13
562.10954581024976
 23
534.08910091753751
 33
0.0
 14
706.86472560852644
 24
519.17598762553882
 34
0.0
  0
DIMENSION
  5
4EDD
  8
50_DIMENSIONS
  2
*D1
 10
721.98183807379883
 20
612.05236962798199
 30
0.0
 11
721.9818380737986
 21
559.62440231590938
 31
0.0
 70
     0
 13
694.88517298682621
 23
507.1964350038366
 33
0.0
 14
688.10892317301455
 24
612.05236962798199
 34
0.0
 50
90.0
  0
TEXT
  5
4EEB
  8
62_TEXT
 10
755.38597921958865
 20
468.01275900987667
 30
0.0
 40
2.0
  1
19-11-06
  7
MECHTRONICS
  0
TEXT
  5
4EEC
  8
01_FRAME
 62
     7
 10
769.35057778212115
 20
467.96558987340393
 30
0.0
 40
2.0
  1
B
  7
MECHTRONICS
  0
TEXT
  5
4EED
  8
01_FRAME
 62
     7
 10
707.4683972625686
 20
468.01275900987667
 30
0.0
 40
2.0
  1
Moved hinge point - bolt to miss rack
  7
MECHTRONICS
  0
TEXT
  5
5492
  8
62_TEXT
 62
     1
 10
635.82845079762592
 20
450.93908307384402
 30
0.0
 40
4.0
  1
OPTION
  7
MECHTRONICS
  0
LINE
  5
5493
  8
62_TEXT
 62
    40
 10
657.6265150890066
 20
450.15247154372548
 30
0.0
 11
636.16771290839733
 21
450.15247154372548
 31
0.0
  0
LINE
  5
5494
  8
62_TEXT
 62
    40
 10
657.6265150890066
 20
455.7238762267998
 30
0.0
 11
636.16771290839733
 21
455.7238762267998
 31
0.0
  0
ARC
  5
5495
  8
62_TEXT
 62
    40
 10
636.16771290839733
 20
454.92387622739909
 30
0.0
 40
0.7999999994
 50
90.0
 51
180.0
  0
ARC
  5
5496
  8
62_TEXT
 62
    40
 10
636.16771290839733
 20
450.95247154312631
 30
0.0
 40
0.7999999994
 50
180.0
 51
269.99999999994787
  0
LINE
  5
5497
  8
62_TEXT
 62
    40
 10
635.36771290899742
 20
450.95247154312631
 30
0.0
 11
635.36771290899742
 21
454.92387622739909
 31
0.0
  0
ARC
  5
5498
  8
62_TEXT
 62
    40
 10
657.62651508900581
 20
454.92387622739909
 30
0.0
 40
0.7999999994
 50
0.0
 51
89.999999999947889
  0
ARC
  5
5499
  8
62_TEXT
 62
    40
 10
657.62651508900581
 20
450.95247154312631
 30
0.0
 40
0.7999999994
 50
269.99999999994787
 51
0.0
  0
LINE
  5
549A
  8
62_TEXT
 62
    40
 10
658.42651508840572
 20
450.95247154312631
 30
0.0
 11
658.42651508840572
 21
454.92387622739909
 31
0.0
  0
TEXT
  5
549B
  8
01_FRAME
 62
     8
 10
755.74775821347941
 20
464.82201064644562
 30
0.0
 40
1.3999999999999999
  1
Date (d-m-y)
  7
MECHTRONICS
  0
LINE
  5
549C
  8
01_FRAME
 62
     7
 10
695.32669698797645
 20
449.57588942521261
 30
0.0
 11
696.51077892573949
 21
449.57588942521261
 31
0.0
  0
LINE
  5
549D
  8
01_FRAME
 62
     7
 10
696.1211777681732
 20
454.63430757866132
 30
0.0
 11
695.32669698797645
 21
449.57588942521261
 31
0.0
  0
LINE
  5
549E
  8
01_FRAME
 62
     7
 10
694.3450548449523
 20
451.1583254804068
 30
0.0
 11
696.1211777681732
 21
454.63430757866132
 31
0.0
  0
LINE
  5
549F
  8
01_FRAME
 62
     7
 10
697.38547171383959
 20
455.67902264261693
 30
0.0
 11
695.53677604840266
 21
455.67902264261693
 31
0.0
  0
LINE
  5
54A0
  8
01_FRAME
 62
     7
 10
679.17411381930515
 20
452.06563369273721
 30
0.0
 11
681.69639983947445
 21
452.06563369273721
 31
0.0
  0
LINE
  5
54A1
  8
01_FRAME
 62
     7
 10
681.46570294778985
 20
451.03540978268438
 30
0.0
 11
679.42019049934743
 21
451.03540978268438
 31
0.0
  0
LINE
  5
54A2
  8
01_FRAME
 62
     7
 10
678.88189774103239
 20
450.25120947067307
 30
0.0
 11
680.94884825674444
 21
450.25120947067307
 31
0.0
  0
LINE
  5
54A3
  8
01_FRAME
 62
     7
 10
681.06440165820413
 20
454.32597575878071
 30
0.0
 11
679.57398841608529
 21
454.32597575878071
 31
0.0
  0
LINE
  5
54A4
  8
01_FRAME
 62
     7
 10
679.27731235568297
 20
452.7268180778633
 30
0.0
 11
680.76856089545845
 21
452.7268180778633
 31
0.0
  0
LINE
  5
54A5
  8
01_FRAME
 62
     7
 10
680.58558561694508
 20
453.55281222570062
 30
0.0
 11
679.63411414215295
 21
453.55281222570062
 31
0.0
  0
LINE
  5
54A6
  8
01_FRAME
 62
     7
 10
672.09569374359614
 20
449.57588942521261
 30
0.0
 11
672.81760174842157
 21
454.65735275926318
 31
0.0
  0
LINE
  5
54A7
  8
01_FRAME
 62
     7
 10
673.7113926178539
 20
455.67902264261693
 30
0.0
 11
671.83595963855305
 21
455.67902264261693
 31
0.0
  0
LINE
  5
54A8
  8
01_FRAME
 62
     7
 10
671.83595963855305
 20
455.67902264261693
 30
0.0
 11
670.97272569925144
 21
449.57588942521261
 31
0.0
  0
LINE
  5
54A9
  8
01_FRAME
 62
     7
 10
670.97272569925144
 20
449.57588942521261
 30
0.0
 11
672.09569374359614
 21
449.57588942521261
 31
0.0
  0
LINE
  5
54AA
  8
01_FRAME
 62
     7
 10
676.32401213335788
 20
454.63430757866132
 30
0.0
 11
675.52953135316102
 21
449.57588942521261
 31
0.0
  0
LINE
  5
54AB
  8
01_FRAME
 62
     7
 10
676.71361329092394
 20
449.57588942521261
 30
0.0
 11
677.58830607902519
 21
455.67902264261693
 31
0.0
  0
LINE
  5
54AC
  8
01_FRAME
 62
     7
 10
675.52953135316102
 20
449.57588942521261
 30
0.0
 11
676.71361329092394
 21
449.57588942521261
 31
0.0
  0
LINE
  5
54AD
  8
01_FRAME
 62
     7
 10
677.58830607902519
 20
455.67902264261693
 30
0.0
 11
675.73961041358734
 21
455.67902264261693
 31
0.0
  0
LINE
  5
54AE
  8
01_FRAME
 62
     7
 10
674.54788921013687
 20
451.1583254804068
 30
0.0
 11
676.32401213335788
 21
454.63430757866132
 31
0.0
  0
LINE
  5
54AF
  8
01_FRAME
 62
     7
 10
672.81760174842157
 20
454.65735275926318
 30
0.0
 11
673.52805090444815
 21
451.1583254804068
 31
0.0
  0
LINE
  5
54B0
  8
01_FRAME
 62
     7
 10
674.26523740749462
 20
452.76380671620473
 30
0.0
 11
673.7113926178539
 21
455.67902264261693
 31
0.0
  0
LINE
  5
54B1
  8
01_FRAME
 62
     7
 10
675.73961041358734
 20
455.67902264261693
 30
0.0
 11
674.26523740749462
 21
452.76380671620473
 31
0.0
  0
LINE
  5
54B2
  8
01_FRAME
 62
     7
 10
673.52805090444815
 20
451.1583254804068
 30
0.0
 11
674.54788921013687
 21
451.1583254804068
 31
0.0
  0
LINE
  5
54B3
  8
01_FRAME
 62
     7
 10
678.32822522751428
 20
453.41876366432598
 30
0.0
 11
678.00524957252628
 21
451.29680988668628
 31
0.0
  0
LINE
  5
54B4
  8
01_FRAME
 62
     7
 10
679.07510693486665
 20
451.27374947398539
 30
0.0
 11
679.17411381930515
 21
452.06563369273721
 31
0.0
  0
LINE
  5
54B5
  8
01_FRAME
 62
     7
 10
679.34135368326997
 20
453.26298971128801
 30
0.0
 11
679.27731235568297
 21
452.7268180778633
 31
0.0
  0
LINE
  5
54B6
  8
01_FRAME
 62
     7
 10
687.72533211300424
 20
453.41650335253013
 30
0.0
 11
689.17118606032489
 21
453.41650335253013
 31
0.0
  0
LINE
  5
54B7
  8
01_FRAME
 62
     7
 10
685.55149288523853
 20
450.5894919387033
 30
0.0
 11
685.59763225031327
 21
450.98928033111088
 31
0.0
  0
LINE
  5
54B8
  8
01_FRAME
 62
     7
 10
686.89712453528819
 20
455.93795909197303
 30
0.0
 11
686.18589539547111
 21
450.23328625546731
 31
0.0
  0
LINE
  5
54B9
  8
01_FRAME
 62
     7
 10
687.27613478946068
 20
450.23328625546731
 30
0.0
 11
687.72533211300424
 21
453.41650335253013
 31
0.0
  0
LINE
  5
54BA
  8
01_FRAME
 62
     7
 10
681.41956354955926
 20
450.5894919387033
 30
0.0
 11
681.46570294778985
 21
451.03540978268438
 31
0.0
  0
LINE
  5
54BB
  8
01_FRAME
 62
     7
 10
684.12117213690215
 20
450.25120947067307
 30
0.0
 11
685.08077759242542
 21
450.25120947067307
 31
0.0
  0
LINE
  5
54BC
  8
01_FRAME
 62
     7
 10
683.32142291018636
 20
450.25120947067307
 30
0.0
 11
684.12117213690215
 21
450.25120947067307
 31
0.0
  0
LINE
  5
54BD
  8
01_FRAME
 62
     7
 10
686.18589539547111
 20
450.23328625546731
 30
0.0
 11
687.27613478946068
 21
450.23328625546731
 31
0.0
  0
LINE
  5
54BE
  8
01_FRAME
 62
     7
 10
686.18589539547111
 20
450.23328625546731
 30
0.0
 11
686.18589539547111
 21
450.23328625546731
 31
0.0
  0
LINE
  5
54BF
  8
01_FRAME
 62
     7
 10
685.53613676502516
 20
454.32597575878071
 30
0.0
 11
684.01351358523925
 21
454.32597575878071
 31
0.0
  0
LINE
  5
54C0
  8
01_FRAME
 62
     7
 10
684.07503277182741
 20
453.55715195272978
 30
0.0
 11
686.01387329080853
 21
453.55715195272978
 31
0.0
  0
LINE
  5
54C1
  8
01_FRAME
 62
     7
 10
685.60510963771719
 20
451.03540978268438
 30
0.0
 11
684.12117213690215
 21
451.03540978268438
 31
0.0
  0
LINE
  5
54C2
  8
01_FRAME
 62
     7
 10
681.69639983947445
 20
452.06563369273721
 30
0.0
 11
681.91251001187311
 21
453.51634624527333
 31
0.0
  0
LINE
  5
54C3
  8
01_FRAME
 62
     7
 10
681.69639983947445
 20
452.06563369273721
 30
0.0
 11
681.69639983947445
 21
452.06563369273721
 31
0.0
  0
LINE
  5
54C4
  8
01_FRAME
 62
     7
 10
680.76856089545845
 20
452.7268180778633
 30
0.0
 11
680.85113153860812
 21
453.32690062106172
 31
0.0
  0
LINE
  5
54C5
  8
01_FRAME
 62
     7
 10
682.76775039666916
 20
453.41876366432598
 30
0.0
 11
682.52167371662597
 21
451.75810417031659
 31
0.0
  0
LINE
  5
54C6
  8
01_FRAME
 62
     7
 10
683.51409812702923
 20
451.27374947398539
 30
0.0
 11
683.78281669355465
 21
453.26499886995998
 31
0.0
  0
LINE
  5
54C7
  8
01_FRAME
 62
     7
 10
682.52167371662597
 20
451.75810417031659
 30
0.0
 11
682.44477474167934
 21
451.29680988668628
 31
0.0
  0
LINE
  5
54C8
  8
01_FRAME
 62
     7
 10
684.12117213690215
 20
451.03540978268438
 30
0.0
 11
683.85918169151
 21
451.03540978268438
 31
0.0
  0
LINE
  5
54C9
  8
01_FRAME
 62
     7
 10
686.01387329080853
 20
453.55715195272978
 30
0.0
 11
686.05696322258018
 21
453.82298209010008
 31
0.0
  0
LINE
  5
54CA
  8
01_FRAME
 62
     7
 10
685.59763225031327
 20
450.98928033111088
 30
0.0
 11
685.60510963771719
 21
451.03540978268438
 31
0.0
  0
LINE
  5
54CB
  8
01_FRAME
 62
     7
 10
687.81860809433283
 20
453.89548518536009
 30
0.0
 11
688.06223010566146
 21
455.93795909197303
 31
0.0
  0
LINE
  5
54CC
  8
01_FRAME
 62
     7
 10
688.06223010566146
 20
455.93795909197303
 30
0.0
 11
686.89712453528819
 21
455.93795909197303
 31
0.0
  0
LINE
  5
54CD
  8
01_FRAME
 62
     7
 10
689.90581086782856
 20
450.23328625546731
 30
0.0
 11
690.31258917412879
 21
453.45109067210478
 31
0.0
  0
LINE
  5
54CE
  8
01_FRAME
 62
     7
 10
689.17118606032489
 20
453.41650335253013
 30
0.0
 11
688.76878010531016
 21
450.23328625546731
 31
0.0
  0
LINE
  5
54CF
  8
01_FRAME
 62
     7
 10
691.89285937841169
 20
449.57588942521261
 30
0.0
 11
692.61476738323688
 21
454.65735275926318
 31
0.0
  0
LINE
  5
54D0
  8
01_FRAME
 62
     7
 10
691.63312527336757
 20
455.67902264261693
 30
0.0
 11
690.76989133406585
 21
449.57588942521261
 31
0.0
  0
LINE
  5
54D1
  8
01_FRAME
 62
     7
 10
688.76878010531016
 20
450.23328625546731
 30
0.0
 11
689.90581086782856
 21
450.23328625546731
 31
0.0
  0
LINE
  5
54D2
  8
01_FRAME
 62
     7
 10
690.76989133406585
 20
449.57588942521261
 30
0.0
 11
691.89285937841169
 21
449.57588942521261
 31
0.0
  0
LINE
  5
54D3
  8
01_FRAME
 62
     7
 10
693.50855825266945
 20
455.67902264261693
 30
0.0
 11
691.63312527336757
 21
455.67902264261693
 31
0.0
  0
LINE
  5
54D4
  8
01_FRAME
 62
     7
 10
692.61476738323688
 20
454.65735275926318
 30
0.0
 11
693.32521653926358
 21
451.1583254804068
 31
0.0
  0
LINE
  5
54D5
  8
01_FRAME
 62
     7
 10
694.06240304231005
 20
452.76380671620473
 30
0.0
 11
693.50855825266945
 21
455.67902264261693
 31
0.0
  0
LINE
  5
54D6
  8
01_FRAME
 62
     7
 10
695.53677604840266
 20
455.67902264261693
 30
0.0
 11
694.06240304231005
 21
452.76380671620473
 31
0.0
  0
LINE
  5
54D7
  8
01_FRAME
 62
     7
 10
693.32521653926358
 20
451.1583254804068
 30
0.0
 11
694.3450548449523
 21
451.1583254804068
 31
0.0
  0
LINE
  5
54D8
  8
01_FRAME
 62
     7
 10
704.2722172962799
 20
455.52313058958907
 30
0.0
 11
703.23565055516644
 21
455.40510415580178
 31
0.0
  0
LINE
  5
54D9
  8
01_FRAME
 62
     7
 10
703.68014784676643
 20
451.27153909441643
 30
0.0
 11
704.01076082787904
 21
453.60107099157591
 31
0.0
  0
LINE
  5
54DA
  8
01_FRAME
 62
     7
 10
703.48784785792247
 20
450.24899909110218
 30
0.0
 11
704.55511186167632
 21
450.24899909110218
 31
0.0
  0
LINE
  5
54DB
  8
01_FRAME
 62
     7
 10
701.25611795137274
 20
450.26514440744222
 30
0.0
 11
701.21599740609724
 21
450.71974601241391
 31
0.0
  0
ARC
  5
54DC
  8
01_FRAME
 62
     7
 10
702.21212559857429
 20
450.8076586062312
 30
0.0
 40
1.0
 50
171.34562025558941
 51
185.0435314678453
  0
LINE
  5
54DD
  8
01_FRAME
 62
     7
 10
696.51077892573949
 20
449.57588942521261
 30
0.0
 11
697.38547171383959
 21
455.67902264261693
 31
0.0
  0
LINE
  5
54DE
  8
01_FRAME
 62
     7
 10
698.61079359118185
 20
450.24976790148003
 30
0.0
 11
699.5951003445075
 21
450.24976790148003
 31
0.0
  0
LINE
  5
54DF
  8
01_FRAME
 62
     7
 10
700.19491225625586
 20
450.26514440744222
 30
0.0
 11
701.25611795137274
 21
450.26514440744222
 31
0.0
  0
LINE
  5
54E0
  8
01_FRAME
 62
     7
 10
703.48784785792168
 20
450.24899909110218
 30
0.0
 11
703.56474683286933
 21
450.24899909110218
 31
0.0
  0
LINE
  5
54E1
  8
01_FRAME
 62
     7
 10
700.37946978286573
 20
452.71000418030638
 30
0.0
 11
698.9030096694546
 21
452.71000418030638
 31
0.0
  0
LINE
  5
54E2
  8
01_FRAME
 62
     7
 10
698.11864023109729
 20
453.55571038353861
 30
0.0
 11
700.19663740022634
 21
453.55571038353861
 31
0.0
  0
LINE
  5
54E3
  8
01_FRAME
 62
     7
 10
700.76690161317083
 20
454.33991069554799
 30
0.0
 11
698.64155320105465
 21
454.33991069554799
 31
0.0
  0
LINE
  5
54E4
  8
01_FRAME
 62
     7
 10
698.16477962932674
 20
454.00162822751781
 30
0.0
 11
698.11864023109729
 21
453.55571038353861
 31
0.0
  0
LINE
  5
54E5
  8
01_FRAME
 62
     7
 10
698.99522901805403
 20
450.9083443059485
 30
0.0
 11
699.73627890266334
 21
450.89385318520038
 31
0.0
  0
LINE
  5
54E6
  8
01_FRAME
 62
     7
 10
699.98423755170688
 20
452.00000905607749
 30
0.0
 11
699.19650183768078
 21
452.00000905607749
 31
0.0
  0
LINE
  5
54E7
  8
01_FRAME
 62
     7
 10
702.34431504326631
 20
454.35451835797591
 30
0.0
 11
702.2113250594798
 21
453.60107099157591
 31
0.0
  0
LINE
  5
54E8
  8
01_FRAME
 62
     7
 10
701.22351158767242
 20
450.958132316388
 30
0.0
 11
701.61500996683981
 21
453.53028118204247
 31
0.0
  0
LINE
  5
54E9
  8
01_FRAME
 62
     7
 10
700.13425017321651
 20
451.2802831823123
 30
0.0
 11
700.22357537275855
 21
451.77409745143859
 31
0.0
  0
LINE
  5
54EA
  8
01_FRAME
 62
     7
 10
700.45636872465684
 20
453.26355733392347
 30
0.0
 11
700.37946978286573
 21
452.71000418030638
 31
0.0
  0
LINE
  5
54EB
  8
01_FRAME
 62
     7
 10
700.46218332188937
 20
453.32979877889971
 30
0.0
 11
700.45636872465684
 21
453.26355733392347
 31
0.0
  0
LINE
  5
54EC
  8
01_FRAME
 62
     7
 10
702.96493492112074
 20
453.60107099157591
 30
0.0
 11
702.61119968941546
 21
451.29459950711731
 31
0.0
  0
LINE
  5
54ED
  8
01_FRAME
 62
     7
 10
702.2113250594798
 20
453.60107099157591
 30
0.0
 11
702.96493492112074
 21
453.60107099157591
 31
0.0
  0
LINE
  5
54EE
  8
01_FRAME
 62
     7
 10
703.23565055516644
 20
455.40510415580178
 30
0.0
 11
703.07259347278375
 21
454.35451835797591
 31
0.0
  0
LINE
  5
54EF
  8
01_FRAME
 62
     7
 10
703.07259347278375
 20
454.35451835797591
 30
0.0
 11
702.34431504326631
 21
454.35451835797591
 31
0.0
  0
LINE
  5
54F0
  8
01_FRAME
 62
     7
 10
705.02582715449034
 20
450.58728155913428
 30
0.0
 11
705.07196652299581
 21
451.03319940311349
 31
0.0
  0
LINE
  5
54F1
  8
01_FRAME
 62
     7
 10
705.39494217798483
 20
453.60107099157591
 30
0.0
 11
705.48722094129005
 21
454.35451835797591
 31
0.0
  0
LINE
  5
54F2
  8
01_FRAME
 62
     7
 10
705.07196652299581
 20
451.03319940311349
 30
0.0
 11
704.02523141124902
 21
451.03319940311349
 31
0.0
  0
LINE
  5
54F3
  8
01_FRAME
 62
     7
 10
704.01076082787904
 20
453.60107099157591
 30
0.0
 11
705.39494217798483
 21
453.60107099157591
 31
0.0
  0
LINE
  5
54F4
  8
01_FRAME
 62
     7
 10
704.10303959118426
 20
454.35451835797591
 30
0.0
 11
704.2722172962799
 21
455.52313058958907
 31
0.0
  0
LINE
  5
54F5
  8
01_FRAME
 62
     7
 10
705.48722094129005
 20
454.35451835797591
 30
0.0
 11
704.10303959118426
 21
454.35451835797591
 31
0.0
  0
ARC
  5
54F6
  8
01_FRAME
 62
     7
 10
679.69399809203651
 20
453.21230823745151
 30
0.0
 40
0.356267723523487
 50
129.9788673075646
 51
171.82154662074871
  0
ARC
  5
54F7
  8
01_FRAME
 62
     7
 10
679.64263380419879
 20
453.28612410918549
 30
0.0
 40
0.2668241670683093
 50
91.829758024394408
 51
131.71149876918361
  0
ARC
  5
54F8
  8
01_FRAME
 62
     7
 10
684.13491672171165
 20
453.21664796448249
 30
0.0
 40
0.356267723523487
 50
129.9788673075646
 51
171.82154662074871
  0
ARC
  5
54F9
  8
01_FRAME
 62
     7
 10
684.08355243387405
 20
453.29046383621471
 30
0.0
 40
0.2668241670683093
 50
91.829758024394408
 51
131.71149876918361
  0
ARC
  5
54FA
  8
01_FRAME
 62
     7
 10
680.59868966725071
 20
453.27917113188641
 30
0.0
 40
0.2739546757357922
 50
41.694258406644231
 51
92.74167022804761
  0
ARC
  5
54FB
  8
01_FRAME
 62
     7
 10
680.66157477112517
 20
453.33518841255
 30
0.0
 40
0.1897378601816721
 50
357.49651121804118
 51
41.69425840668103
  0
ARC
  5
54FC
  8
01_FRAME
 62
     7
 10
700.20974145053185
 20
453.2820692897244
 30
0.0
 40
0.2739546757357922
 50
41.694258406644231
 51
92.74167022804761
  0
ARC
  5
54FD
  8
01_FRAME
 62
     7
 10
700.27262655440654
 20
453.33808657038799
 30
0.0
 40
0.1897378601816721
 50
357.49651121804118
 51
41.69425840668103
  0
ARC
  5
54FE
  8
01_FRAME
 62
     7
 10
679.41801439428446
 20
451.53375937972532
 30
0.0
 40
0.4983543481347475
 50
242.0549458700896
 51
270.25018750738548
  0
ARC
  5
54FF
  8
01_FRAME
 62
     7
 10
679.28092986293314
 20
451.27534333439371
 30
0.0
 40
0.2058290992756684
 50
180.44368064352511
 51
242.0549458700896
  0
ARC
  5
5500
  8
01_FRAME
 62
     7
 10
683.85700558644612
 20
451.53375937972532
 30
0.0
 40
0.4983543481347475
 50
242.0549458700896
 51
270.25018750738548
  0
ARC
  5
5501
  8
01_FRAME
 62
     7
 10
683.71992105509571
 20
451.27534333439371
 30
0.0
 40
0.2058290992756684
 50
180.44368064352511
 51
242.0549458700896
  0
ARC
  5
5502
  8
01_FRAME
 62
     7
 10
679.3022384262581
 20
453.26403762334712
 30
0.0
 40
0.9862260689533767
 50
116.4343118930764
 51
170.97374799137759
  0
ARC
  5
5503
  8
01_FRAME
 62
     7
 10
679.62825287879559
 20
452.60827210980329
 30
0.0
 40
1.7185605772340431
 50
91.809445418565659
 51
116.4343118930764
  0
ARC
  5
5504
  8
01_FRAME
 62
     7
 10
683.74176359541195
 20
453.26403762334712
 30
0.0
 40
0.9862260689533767
 50
116.4343118930764
 51
170.97374799137759
  0
ARC
  5
5505
  8
01_FRAME
 62
     7
 10
684.06777804794945
 20
452.60827210980329
 30
0.0
 40
1.7185605772340431
 50
91.809445418565659
 51
116.4343118930764
  0
ARC
  5
5506
  8
01_FRAME
 62
     7
 10
680.96514634712321
 20
453.22405358927472
 30
0.0
 40
1.1063833352066721
 50
44.532575507597819
 51
84.852989749608284
  0
ARC
  5
5507
  8
01_FRAME
 62
     7
 10
681.34535912020908
 20
453.5981128022745
 30
0.0
 40
0.5730147500357465
 50
351.79615361501862
 51
44.532575507597819
  0
ARC
  5
5508
  8
01_FRAME
 62
     7
 10
678.89705914577235
 20
451.13973941834269
 30
0.0
 40
0.8886592913478247
 50
213.378140144387
 51
269.02243001409983
  0
ARC
  5
5509
  8
01_FRAME
 62
     7
 10
678.95194180363649
 20
451.17589782793448
 30
0.0
 40
0.954382473852452
 50
172.72155707448491
 51
213.378140144387
  0
ARC
  5
550A
  8
01_FRAME
 62
     7
 10
680.94581911728926
 20
450.80768207822121
 30
0.0
 40
0.5564808519953198
 50
269.68811547988628
 51
309.85159843335532
  0
ARC
  5
550B
  8
01_FRAME
 62
     7
 10
681.08700088019077
 20
450.63854042975117
 30
0.0
 40
0.3361602051582644
 50
309.85159843335532
 51
351.61013221801829
  0
ARC
  5
550C
  8
01_FRAME
 62
     7
 10
683.3365843149254
 20
451.13973941834269
 30
0.0
 40
0.8886592913478247
 50
213.378140144387
 51
269.02243001409983
  0
ARC
  5
550D
  8
01_FRAME
 62
     7
 10
683.39146697279057
 20
451.17589782793448
 30
0.0
 40
0.954382473852452
 50
172.72155707448491
 51
213.378140144387
  0
ARC
  5
550E
  8
01_FRAME
 62
     7
 10
685.07774845296854
 20
450.80768207822121
 30
0.0
 40
0.5564808519953198
 50
269.68811547988628
 51
309.85159843335532
  0
ARC
  5
550F
  8
01_FRAME
 62
     7
 10
685.21893021586902
 20
450.63854042975117
 30
0.0
 40
0.3361602051582644
 50
309.85159843335532
 51
351.61013221801829
  0
ARC
  5
5510
  8
01_FRAME
 62
     7
 10
685.5513424245778
 20
453.80444705810118
 30
0.0
 40
0.5217503212408174
 50
29.017138568443521
 51
91.670039206039846
  0
ARC
  5
5511
  8
01_FRAME
 62
     7
 10
685.65183184785155
 20
453.86018855619341
 30
0.0
 40
0.4068362716240224
 50
354.75278767927108
 51
29.017138568443521
  0
LINE
  5
5512
  8
01_FRAME
 62
     7
 10
707.01149493970524
 20
452.06563369273721
 30
0.0
 11
709.53378095987455
 21
452.06563369273721
 31
0.0
  0
LINE
  5
5513
  8
01_FRAME
 62
     7
 10
709.30308406818995
 20
451.03540978268438
 30
0.0
 11
707.25757161974752
 21
451.03540978268438
 31
0.0
  0
LINE
  5
5514
  8
01_FRAME
 62
     7
 10
706.71927886143249
 20
450.25120947067307
 30
0.0
 11
708.78622937714454
 21
450.25120947067307
 31
0.0
  0
LINE
  5
5515
  8
01_FRAME
 62
     7
 10
708.90178277860423
 20
454.32597575878071
 30
0.0
 11
707.41136953648538
 21
454.32597575878071
 31
0.0
  0
LINE
  5
5516
  8
01_FRAME
 62
     7
 10
707.11469347608318
 20
452.7268180778633
 30
0.0
 11
708.60594201585855
 21
452.7268180778633
 31
0.0
  0
LINE
  5
5517
  8
01_FRAME
 62
     7
 10
708.42296673734518
 20
453.55281222570062
 30
0.0
 11
707.47149526255305
 21
453.55281222570062
 31
0.0
  0
LINE
  5
5518
  8
01_FRAME
 62
     7
 10
706.16560634791438
 20
453.41876366432598
 30
0.0
 11
705.84263069292638
 21
451.29680988668628
 31
0.0
  0
LINE
  5
5519
  8
01_FRAME
 62
     7
 10
706.91248805526675
 20
451.27374947398539
 30
0.0
 11
707.01149493970524
 21
452.06563369273721
 31
0.0
  0
LINE
  5
551A
  8
01_FRAME
 62
     7
 10
707.17873480366995
 20
453.26298971128801
 30
0.0
 11
707.11469347608318
 21
452.7268180778633
 31
0.0
  0
LINE
  5
551B
  8
01_FRAME
 62
     7
 10
709.25694466995935
 20
450.5894919387033
 30
0.0
 11
709.30308406818995
 21
451.03540978268438
 31
0.0
  0
LINE
  5
551C
  8
01_FRAME
 62
     7
 10
709.53378095987455
 20
452.06563369273721
 30
0.0
 11
709.74989113227309
 21
453.51634624527333
 31
0.0
  0
LINE
  5
551D
  8
01_FRAME
 62
     7
 10
709.53378095987455
 20
452.06563369273721
 30
0.0
 11
709.53378095987455
 21
452.06563369273721
 31
0.0
  0
LINE
  5
551E
  8
01_FRAME
 62
     7
 10
708.60594201585855
 20
452.7268180778633
 30
0.0
 11
708.68851265900821
 21
453.32690062106172
 31
0.0
  0
ARC
  5
551F
  8
01_FRAME
 62
     7
 10
707.5313792124366
 20
453.21230823745151
 30
0.0
 40
0.356267723523487
 50
129.9788673075646
 51
171.82154662074871
  0
ARC
  5
5520
  8
01_FRAME
 62
     7
 10
707.48001492459878
 20
453.28612410918549
 30
0.0
 40
0.2668241670683093
 50
91.829758024394408
 51
131.71149876918361
  0
ARC
  5
5521
  8
01_FRAME
 62
     7
 10
708.43607078765069
 20
453.27917113188641
 30
0.0
 40
0.2739546757357922
 50
41.694258406644231
 51
92.74167022804761
  0
ARC
  5
5522
  8
01_FRAME
 62
     7
 10
708.49895589152527
 20
453.33518841255
 30
0.0
 40
0.1897378601816721
 50
357.49651121804118
 51
41.69425840668103
  0
ARC
  5
5523
  8
01_FRAME
 62
     7
 10
707.25539551468455
 20
451.53375937972532
 30
0.0
 40
0.4983543481347475
 50
242.0549458700896
 51
270.25018750738548
  0
ARC
  5
5524
  8
01_FRAME
 62
     7
 10
707.11831098333323
 20
451.27534333439371
 30
0.0
 40
0.2058290992756684
 50
180.44368064352511
 51
242.0549458700896
  0
ARC
  5
5525
  8
01_FRAME
 62
     7
 10
707.1396195466582
 20
453.26403762334712
 30
0.0
 40
0.9862260689533767
 50
116.4343118930764
 51
170.97374799137759
  0
ARC
  5
5526
  8
01_FRAME
 62
     7
 10
707.46563399919569
 20
452.60827210980329
 30
0.0
 40
1.7185605772340431
 50
91.809445418565659
 51
116.4343118930764
  0
ARC
  5
5527
  8
01_FRAME
 62
     7
 10
708.80252746752319
 20
453.22405358927472
 30
0.0
 40
1.1063833352066721
 50
44.532575507597819
 51
84.852989749608284
  0
ARC
  5
5528
  8
01_FRAME
 62
     7
 10
709.18274024060918
 20
453.5981128022745
 30
0.0
 40
0.5730147500357465
 50
351.79615361501862
 51
44.532575507597819
  0
ARC
  5
5529
  8
01_FRAME
 62
     7
 10
706.73444026617244
 20
451.13973941834269
 30
0.0
 40
0.8886592913478247
 50
213.378140144387
 51
269.02243001409983
  0
ARC
  5
552A
  8
01_FRAME
 62
     7
 10
706.78932292403658
 20
451.17589782793448
 30
0.0
 40
0.954382473852452
 50
172.72155707448491
 51
213.378140144387
  0
ARC
  5
552B
  8
01_FRAME
 62
     7
 10
708.78320023768936
 20
450.80768207822121
 30
0.0
 40
0.5564808519953198
 50
269.68811547988628
 51
309.85159843335532
  0
ARC
  5
552C
  8
01_FRAME
 62
     7
 10
708.92438200059087
 20
450.63854042975117
 30
0.0
 40
0.3361602051582644
 50
309.85159843335532
 51
351.61013221801829
  0
LINE
  5
552D
  8
01_FRAME
 62
     7
 10
688.98838370131796
 20
454.32597575878071
 30
0.0
 11
689.62617801771603
 21
454.32597575878071
 31
0.0
  0
ARC
  5
552E
  8
01_FRAME
 62
     7
 10
689.44026055463428
 20
453.5096078534084
 30
0.0
 40
0.8742891288908129
 50
356.16225827570821
 51
57.030568872306567
  0
ARC
  5
552F
  8
01_FRAME
 62
     7
 10
689.63569402541577
 20
453.81090080729751
 30
0.0
 40
0.515162848085838
 50
57.030568872306567
 51
91.058418890025422
  0
ARC
  5
5530
  8
01_FRAME
 62
     7
 10
689.06559406587485
 20
452.03909835888282
 30
0.0
 40
2.2881804305072628
 50
91.933705877925576
 51
118.1284095955113
  0
ARC
  5
5531
  8
01_FRAME
 62
     7
 10
688.18986575406007
 20
453.67723630271632
 30
0.0
 40
0.4306562720799454
 50
118.1284095955113
 51
149.5502773796288
  0
ARC
  5
5532
  8
01_FRAME
 62
     7
 10
704.55208272222035
 20
450.80547169865031
 30
0.0
 40
0.5564808519953198
 50
269.68811547988628
 51
309.85159843335532
  0
ARC
  5
5533
  8
01_FRAME
 62
     7
 10
704.69326448512084
 20
450.6363300501821
 30
0.0
 40
0.3361602051582644
 50
309.85159843335532
 51
351.61013221801829
  0
ARC
  5
5534
  8
01_FRAME
 62
     7
 10
703.50300926266164
 20
451.1375290387719
 30
0.0
 40
0.8886592913478247
 50
213.378140144387
 51
269.02243001409983
  0
ARC
  5
5535
  8
01_FRAME
 62
     7
 10
703.55789192052578
 20
451.17368744836358
 30
0.0
 40
0.954382473852452
 50
172.72155707448491
 51
213.378140144387
  0
ARC
  5
5536
  8
01_FRAME
 62
     7
 10
704.02305530618321
 20
451.53154900015448
 30
0.0
 40
0.4983543481347475
 50
242.0549458700896
 51
270.25018750738548
  0
ARC
  5
5537
  8
01_FRAME
 62
     7
 10
703.88597077483189
 20
451.27313295482458
 30
0.0
 40
0.2058290992756684
 50
180.44368064352511
 51
242.0549458700896
  0
ARC
  5
5538
  8
01_FRAME
 62
     7
 10
700.66764630208991
 20
453.23798852604381
 30
0.0
 40
1.1063833352066721
 50
44.532575507597819
 51
84.852989749608284
  0
ARC
  5
5539
  8
01_FRAME
 62
     7
 10
701.04785907517589
 20
453.61204773904359
 30
0.0
 40
0.5730147500357465
 50
351.79615361501862
 51
44.532575507597819
  0
ARC
  5
553A
  8
01_FRAME
 62
     7
 10
698.64022550697473
 20
453.78756087323433
 30
0.0
 40
0.5523514180140796
 50
89.862277278542265
 51
130.98420927748739
  0
ARC
  5
553B
  8
01_FRAME
 62
     7
 10
698.50221896139692
 20
453.94640763891812
 30
0.0
 40
0.3419277938878447
 50
130.98420927748739
 51
170.7061550554026
  0
ARC
  5
553C
  8
01_FRAME
 62
     7
 10
701.13938047919635
 20
450.75943502478231
 30
0.0
 40
1.0659941081150781
 50
189.2518512240257
 51
207.625462433428
  0
ARC
  5
553D
  8
01_FRAME
 62
     7
 10
699.46763398402663
 20
450.96236162710608
 30
0.0
 40
0.7239043381937801
 50
280.14161684226292
 51
328.86389698780192
  0
ARC
  5
553E
  8
01_FRAME
 62
     7
 10
698.92979410131693
 20
451.44335006666961
 30
0.0
 40
1.2669372712889659
 50
91.211385343645034
 51
150.30133372254059
  0
ARC
  5
553F
  8
01_FRAME
 62
     7
 10
699.44877660853444
 20
451.1473436818838
 30
0.0
 40
1.864400761915205
 50
150.30133372254059
 51
172.84077312506099
  0
ARC
  5
5540
  8
01_FRAME
 62
     7
 10
698.75618892826014
 20
451.23433716942469
 30
0.0
 40
1.1663709905283439
 50
172.84077312506099
 51
205.63064895958601
  0
ARC
  5
5541
  8
01_FRAME
 62
     7
 10
698.2770628462863
 20
451.00446320269702
 30
0.0
 40
0.634954164480408
 50
205.63064895958601
 51
237.5110165228015
  0
ARC
  5
5542
  8
01_FRAME
 62
     7
 10
698.69704095047155
 20
451.66397657482997
 30
0.0
 40
1.4168361862834209
 50
237.5110165228015
 51
266.5100646608708
  0
ARC
  5
5543
  8
01_FRAME
 62
     7
 10
699.97113350140205
 20
451.7263679622634
 30
0.0
 40
0.2739546757357922
 50
41.694258406644231
 51
92.74167022804761
  0
ARC
  5
5544
  8
01_FRAME
 62
     7
 10
700.03401860527583
 20
451.78238524292698
 30
0.0
 40
0.1897378601816721
 50
357.49651121804118
 51
41.69425840668103
  0
ARC
  5
5545
  8
01_FRAME
 62
     7
 10
699.65955048295973
 20
451.354509502979
 30
0.0
 40
0.4670026696925385
 50
279.4565576772809
 51
324.92940398283741
  0
ARC
  5
5546
  8
01_FRAME
 62
     7
 10
699.51387226981524
 20
451.45678221669419
 30
0.0
 40
0.6449966295775496
 50
324.92940398283741
 51
344.11881738721661
  0
ARC
  5
5547
  8
01_FRAME
 62
     7
 10
699.19066685211635
 20
451.48143009390571
 30
0.0
 40
0.5186117883961751
 50
89.355342266111649
 51
126.25017530154049
  0
ARC
  5
5548
  8
01_FRAME
 62
     7
 10
699.10616915536002
 20
451.60266052427738
 30
0.0
 40
0.3708987868957041
 50
126.7974170349802
 51
163.58374767656801
  0
ARC
  5
5549
  8
01_FRAME
 62
     7
 10
695.07386787607584
 20
452.65212059494519
 30
0.0
 40
3.7959401227298382
 50
343.74206189479008
 51
345.59022698623642
  0
ARC
  5
554A
  8
01_FRAME
 62
     7
 10
699.79155854393912
 20
451.2974889993734
 30
0.0
 40
1.112526027892746
 50
164.78824619774861
 51
186.82014585813221
  0
ARC
  5
554B
  8
01_FRAME
 62
     7
 10
698.94539965499234
 20
451.18876737809529
 30
0.0
 40
0.2595511549401781
 50
185.171295796316
 51
236.50138254920921
  0
ARC
  5
554C
  8
01_FRAME
 62
     7
 10
699.01672934492353
 20
451.29654043420891
 30
0.0
 40
0.3887910724951353
 50
236.50138254920921
 51
266.82989961253043
  0
ENDSEC
  0
EOF
