  0
SECTION
  2
HEADER
  9
$ACADVER
  1
AC1009
  9
$INSBASE
 10
0.0
 20
0.0
 30
0.0
  9
$EXTMIN
 10
750.62542649350746
 20
1617.771076359619
 30
0.0
  9
$EXTMAX
 10
1020.258352566858
 20
1811.1574798329741
 30
0.0
  9
$LIMMIN
 10
0.0
 20
0.0
  9
$LIMMAX
 10
0.0
 20
0.0
  9
$ORTHOMODE
 70
     0
  9
$REGENMODE
 70
     1
  9
$FILLMODE
 70
     1
  9
$QTEXTMODE
 70
     0
  9
$MIRRTEXT
 70
     1
  9
$DRAGMODE
 70
     2
  9
$LTSCALE
 40
10.0
  9
$OSMODE
 70
    47
  9
$ATTMODE
 70
     1
  9
$TEXTSIZE
 40
2.0
  9
$TRACEWID
 40
0.05
  9
$TEXTSTYLE
  7
MECHTRONICS
  9
$CLAYER
  8
0
  9
$CELTYPE
  6
BYLAYER
  9
$CECOLOR
 62
   256
  9
$DIMSCALE
 40
1.0
  9
$DIMASZ
 40
2.0
  9
$DIMEXO
 40
1.0
  9
$DIMDLI
 40
6.0
  9
$DIMRND
 40
0.0
  9
$DIMDLE
 40
0.0
  9
$DIMEXE
 40
0.5
  9
$DIMTP
 40
0.0
  9
$DIMTM
 40
0.0
  9
$DIMTXT
 40
2.0
  9
$DIMCEN
 40
0.09
  9
$DIMTSZ
 40
0.0
  9
$DIMTOL
 70
     0
  9
$DIMLIM
 70
     0
  9
$DIMTIH
 70
     0
  9
$DIMTOH
 70
     1
  9
$DIMSE1
 70
     0
  9
$DIMSE2
 70
     0
  9
$DIMTAD
 70
     0
  9
$DIMZIN
 70
     0
  9
$DIMBLK
  1

  9
$DIMASO
 70
     1
  9
$DIMSHO
 70
     1
  9
$DIMPOST
  1

  9
$DIMAPOST
  1
"
  9
$DIMALT
 70
     1
  9
$DIMALTD
 70
     1
  9
$DIMALTF
 40
0.03937
  9
$DIMLFAC
 40
1.0
  9
$DIMTOFL
 70
     0
  9
$DIMTVP
 40
0.0
  9
$DIMTIX
 70
     0
  9
$DIMSOXD
 70
     0
  9
$DIMSAH
 70
     0
  9
$DIMBLK1
  1

  9
$DIMBLK2
  1

  9
$DIMSTYLE
  2
MECHTRONICS
  9
$DIMCLRD
 70
     7
  9
$DIMCLRE
 70
     7
  9
$DIMCLRT
 70
     0
  9
$DIMTFAC
 40
1.0
  9
$DIMGAP
 40
0.5
  9
$LUNITS
 70
     2
  9
$LUPREC
 70
    10
  9
$SKETCHINC
 40
0.1
  9
$FILLETRAD
 40
0.0
  9
$AUNITS
 70
     0
  9
$AUPREC
 70
     0
  9
$MENU
  1
acad
  9
$ELEVATION
 40
0.0
  9
$PELEVATION
 40
0.0
  9
$THICKNESS
 40
0.0
  9
$LIMCHECK
 70
     0
  9
$BLIPMODE
 70
     0
  9
$CHAMFERA
 40
0.0
  9
$CHAMFERB
 40
0.0
  9
$SKPOLY
 70
     0
  9
$TDCREATE
 40
2444972.083333333
  9
$TDUPDATE
 40
2454646.83381456
  9
$TDINDWG
 40
0.9940796875
  9
$TDUSRTIMER
 40
0.9940789699
  9
$USRTIMER
 70
     1
  9
$ANGBASE
 50
0.0
  9
$ANGDIR
 70
     0
  9
$PDMODE
 70
     0
  9
$PDSIZE
 40
0.0
  9
$PLINEWID
 40
0.0
  9
$COORDS
 70
     1
  9
$SPLFRAME
 70
     0
  9
$SPLINETYPE
 70
     6
  9
$SPLINESEGS
 70
     8
  9
$ATTDIA
 70
     0
  9
$ATTREQ
 70
     1
  9
$HANDLING
 70
     1
  9
$HANDSEED
  5
5B5B
  9
$SURFTAB1
 70
     6
  9
$SURFTAB2
 70
     6
  9
$SURFTYPE
 70
     6
  9
$SURFU
 70
     6
  9
$SURFV
 70
     6
  9
$UCSNAME
  2

  9
$UCSORG
 10
0.0
 20
0.0
 30
0.0
  9
$UCSXDIR
 10
1.0
 20
0.0
 30
0.0
  9
$UCSYDIR
 10
0.0
 20
1.0
 30
0.0
  9
$PUCSNAME
  2

  9
$PUCSORG
 10
0.0
 20
0.0
 30
0.0
  9
$PUCSXDIR
 10
1.0
 20
0.0
 30
0.0
  9
$PUCSYDIR
 10
0.0
 20
1.0
 30
0.0
  9
$USERI1
 70
     0
  9
$USERI2
 70
     0
  9
$USERI3
 70
     0
  9
$USERI4
 70
     0
  9
$USERI5
 70
     0
  9
$USERR1
 40
0.0
  9
$USERR2
 40
0.0
  9
$USERR3
 40
0.0
  9
$USERR4
 40
0.0
  9
$USERR5
 40
0.0
  9
$WORLDVIEW
 70
     1
  9
$SHADEDGE
 70
     3
  9
$SHADEDIF
 70
    70
  9
$TILEMODE
 70
     1
  9
$MAXACTVP
 70
    16
  9
$PLIMCHECK
 70
     0
  9
$PEXTMIN
 10
1.0887500995726069
 20
0.7937499998122686
 30
0.0
  9
$PEXTMAX
 10
21.184573317709511
 20
7.1437499983104198
 30
0.0
  9
$PLIMMIN
 10
0.0
 20
0.0
  9
$PLIMMAX
 10
12.0
 20
9.0
  9
$UNITMODE
 70
     0
  9
$VISRETAIN
 70
     0
  9
$PLINEGEN
 70
     1
  9
$PSLTSCALE
 70
     0
  0
ENDSEC
  0
SECTION
  2
TABLES
  0
TABLE
  2
VPORT
 70
     2
  0
VPORT
  2
*ACTIVE
 70
     0
 10
0.0
 20
0.0
 11
1.0
 21
1.0
 12
919.62364881080612
 22
1715.1327367783881
 13
0.0
 23
0.0
 14
1.0
 24
1.0
 15
0.0
 25
0.0
 16
0.0
 26
0.0
 36
1.0
 17
0.0
 27
0.0
 37
0.0
 40
195.6324968407107
 41
1.7423423423423421
 42
50.0
 43
0.0
 44
0.0
 50
0.0
 51
0.0
 71
     0
 72
   100
 73
     1
 74
     0
 75
     0
 76
     0
 77
     0
 78
     0
  0
ENDTAB
  0
TABLE
  2
LTYPE
 70
     1
  0
LTYPE
  2
CONTINUOUS
 70
     0
  3
Solid line
 72
    65
 73
     0
 40
0.0
  0
ENDTAB
  0
TABLE
  2
LAYER
 70
    10
  0
LAYER
  2
0
 70
     0
 62
   221
  6
CONTINUOUS
  0
LAYER
  2
50_DIMENSIONS0
 70
     0
 62
     7
  6
CONTINUOUS
  0
LAYER
  2
10_OUTLINE0
 70
     0
 62
     2
  6
CONTINUOUS
  0
LAYER
  2
62_TEXT0
 70
     0
 62
     7
  6
CONTINUOUS
  0
LAYER
  2
01_FRAME0
 70
     0
 62
     4
  6
CONTINUOUS
  0
LAYER
  2
DEFPOINTS
 70
     0
 62
     7
  6
CONTINUOUS
  0
LAYER
  2
50_DIMENSIONS
 70
     0
 62
     7
  6
CONTINUOUS
  0
LAYER
  2
62_TEXT
 70
     0
 62
     7
  6
CONTINUOUS
  0
LAYER
  2
01_FRAME
 70
     0
 62
     4
  6
CONTINUOUS
  0
LAYER
  2
10_OUTLINE
 70
     0
 62
     2
  6
CONTINUOUS
  0
ENDTAB
  0
TABLE
  2
STYLE
 70
     2
  0
STYLE
  2
STANDARD
 70
     0
 40
0.0
 41
1.0
 50
0.0
 71
     0
 42
1.345608723561553
  3
txt
  4

  0
STYLE
  2
MECHTRONICS
 70
     0
 40
2.0
 41
1.0
 50
0.0
 71
     0
 42
2.0
  3
txt
  4

  0
ENDTAB
  0
TABLE
  2
VIEW
 70
     0
  0
ENDTAB
  0
TABLE
  2
UCS
 70
    16
  0
UCS
  2
AUDIT_D_000731094948-0
 70
     0
 10
0.0
 20
0.0
 30
1.0
 11
1.0
 21
0.0
 31
0.0
 12
0.0
 22
1.0
 32
0.0
  0
UCS
  2
AUDIT_D_000731094948-1
 70
     0
 10
0.0
 20
0.0
 30
1.0
 11
1.0
 21
0.0
 31
0.0
 12
0.0
 22
1.0
 32
0.0
  0
UCS
  2
AUDIT_D_000731094948-2
 70
     0
 10
0.0
 20
0.0
 30
1.0
 11
1.0
 21
0.0
 31
0.0
 12
0.0
 22
1.0
 32
0.0
  0
UCS
  2
AUDIT_D_000731094948-3
 70
     0
 10
0.0
 20
0.0
 30
1.0
 11
1.0
 21
0.0
 31
0.0
 12
0.0
 22
1.0
 32
0.0
  0
UCS
  2
AUDIT_D_000731094948-4
 70
     0
 10
0.0
 20
0.0
 30
1.0
 11
1.0
 21
0.0
 31
0.0
 12
0.0
 22
1.0
 32
0.0
  0
UCS
  2
AUDIT_D_000731094948-5
 70
     0
 10
0.0
 20
0.0
 30
1.0
 11
1.0
 21
0.0
 31
0.0
 12
0.0
 22
1.0
 32
0.0
  0
UCS
  2
AUDIT_D_000731094948-6
 70
     0
 10
0.0
 20
0.0
 30
1.0
 11
1.0
 21
0.0
 31
0.0
 12
0.0
 22
1.0
 32
0.0
  0
UCS
  2
AUDIT_D_000731094948-7
 70
     0
 10
0.0
 20
0.0
 30
1.0
 11
1.0
 21
0.0
 31
0.0
 12
0.0
 22
1.0
 32
0.0
  0
UCS
  2
AUDIT_D_000731094948-8
 70
     0
 10
0.0
 20
0.0
 30
1.0
 11
1.0
 21
0.0
 31
0.0
 12
0.0
 22
1.0
 32
0.0
  0
UCS
  2
AUDIT_D_000731094948-9
 70
     0
 10
0.0
 20
0.0
 30
1.0
 11
1.0
 21
0.0
 31
0.0
 12
0.0
 22
1.0
 32
0.0
  0
UCS
  2
AUDIT_D_000731094948-10
 70
     0
 10
0.0
 20
0.0
 30
1.0
 11
1.0
 21
0.0
 31
0.0
 12
0.0
 22
1.0
 32
0.0
  0
UCS
  2
AUDIT_D_000731094948-11
 70
     0
 10
0.0
 20
0.0
 30
1.0
 11
1.0
 21
0.0
 31
0.0
 12
0.0
 22
1.0
 32
0.0
  0
UCS
  2
AUDIT_D_000731094948-12
 70
     0
 10
0.0
 20
0.0
 30
1.0
 11
1.0
 21
0.0
 31
0.0
 12
0.0
 22
1.0
 32
0.0
  0
UCS
  2
AUDIT_D_000731094948-13
 70
     0
 10
0.0
 20
0.0
 30
1.0
 11
1.0
 21
0.0
 31
0.0
 12
0.0
 22
1.0
 32
0.0
  0
UCS
  2
AUDIT_D_000731094948-14
 70
     0
 10
0.0
 20
0.0
 30
1.0
 11
1.0
 21
0.0
 31
0.0
 12
0.0
 22
1.0
 32
0.0
  0
UCS
  2
CK_VIEW_1
 70
     0
 10
0.0
 20
0.0
 30
1.0
 11
1.0
 21
0.0
 31
0.0
 12
0.0
 22
1.0
 32
0.0
  0
ENDTAB
  0
TABLE
  2
APPID
 70
     4
  0
APPID
  2
ACAD
 70
     0
  0
APPID
  2
DCO15
 70
     0
  0
APPID
  2
ACAD_PSEXT
 70
     0
  0
APPID
  2
ACAD_DSTYLE_DIMTEXT_FILL
 70
     0
  0
ENDTAB
  0
TABLE
  2
DIMSTYLE
 70
     2
  0
DIMSTYLE
  2
STANDARD
 70
     0
  3

  4

  5

  6

  7

 40
1.0
 41
0.18
 42
0.0625
 43
0.38
 44
0.18
 45
0.0
 46
0.0
 47
0.0
 48
0.0
140
0.18
141
0.09
142
0.0
143
25.399999999999999
144
1.0
145
0.0
146
1.0
147
0.09
 71
     0
 72
     0
 73
     1
 74
     1
 75
     0
 76
     0
 77
     0
 78
     0
170
     0
171
     2
172
     0
173
     0
174
     0
175
     0
176
     0
177
     0
178
     0
  0
DIMSTYLE
  2
MECHTRONICS
 70
     0
  3

  4
"
  5

  6

  7

 40
1.0
 41
2.0
 42
1.0
 43
6.0
 44
0.5
 45
0.0
 46
0.0
 47
0.0
 48
0.0
140
2.0
141
0.09
142
0.0
143
0.03937
144
1.0
145
0.0
146
1.0
147
0.5
 71
     0
 72
     0
 73
     0
 74
     1
 75
     0
 76
     0
 77
     0
 78
     0
170
     1
171
     1
172
     0
173
     0
174
     0
175
     0
176
     7
177
     7
178
     0
  0
ENDTAB
  0
ENDSEC
  0
SECTION
  2
BLOCKS
  0
BLOCK
  8
0
  2
$MODEL_SPACE
 70
     0
 10
0.0
 20
0.0
 30
0.0
  3
$MODEL_SPACE
  1

  0
ENDBLK
  5
E
  8
0
  0
BLOCK
 67
     1
  8
0
  2
$PAPER_SPACE
 70
     0
 10
0.0
 20
0.0
 30
0.0
  3
$PAPER_SPACE
  1

  0
ENDBLK
  5
10
 67
     1
  8
0
  0
BLOCK
  8
0
  2
*U3
 70
     1
 10
0.0
 20
0.0
 30
0.0
  3
*U3
  1

  0
TEXT
  5
58C0
  8
50_DIMENSIONS
 62
     0
 10
551.4450361850146
 20
1668.352692418453
 30
0.0
 40
2.0
  1
160 [6.3"]
  7
MECHTRONICS
  0
ENDBLK
  5
58C1
  8
0
  0
BLOCK
  8
0
  2
*U5
 70
     1
 10
0.0
 20
0.0
 30
0.0
  3
*U5
  1

  0
TEXT
  5
58D1
  8
50_DIMENSIONS
 62
     0
 10
464.39634879875592
 20
1580.6300651468459
 30
0.0
 40
2.0
  1
146 [5.8"]
 50
90.0
  7
MECHTRONICS
  0
ENDBLK
  5
58D2
  8
0
  0
BLOCK
  8
0
  2
*U6
 70
     1
 10
0.0
 20
0.0
 30
0.0
  3
*U6
  1

  0
TEXT
  5
58D5
  8
62_TEXT
 62
     7
 10
640.9500810075873
 20
1576.00746249293
 30
0.0
 40
2.0
  1
SUPPLY THIS DRAWING IN .dxf FORMAT TO THE 
  7
MECHTRONICS
  0
TEXT
  5
58D6
  8
62_TEXT
 62
     7
 10
640.89278223541805
 20
1572.640022747592
 30
0.0
 40
2.0
  1
CNC LASER CUTTING COMPANY FOR REMAINDER 
  7
MECHTRONICS
  0
TEXT
  5
58D7
  8
62_TEXT
 62
     7
 10
640.89141797893797
 20
1569.272583002253
 30
0.0
 40
2.0
  1
OF DIMENSIONS. THE TWO GIVEN DIMENSIONS 
  7
MECHTRONICS
  0
TEXT
  5
58D8
  8
62_TEXT
 62
     7
 10
641.2024684564276
 20
1565.905143256914
 30
0.0
 40
2.0
  1
ARE TO CHECK SCALE.
  7
MECHTRONICS
  0
ENDBLK
  5
58D9
  8
0
  0
BLOCK
  8
0
  2
*D7
 70
     1
 10
0.0
 20
0.0
 30
0.0
  3
*D7
  1

  0
LINE
  5
5B30
  8
50_DIMENSIONS0
 62
     7
 10
778.87118017118064
 20
1769.2040391327539
 30
0.0
 11
778.87118017118064
 21
1797.9295520271619
 31
0.0
  0
LINE
  5
5B31
  8
50_DIMENSIONS0
 62
     7
 10
938.65652255392502
 20
1753.9274715773579
 30
0.0
 11
938.65652255392502
 21
1797.9295520271619
 31
0.0
  0
LINE
  5
5B32
  8
50_DIMENSIONS0
 62
     7
 10
780.87118017118064
 20
1797.4295520271619
 30
0.0
 11
852.54761671043832
 21
1797.4295520271619
 31
0.0
  0
LINE
  5
5B33
  8
50_DIMENSIONS0
 62
     7
 10
936.65652255392502
 20
1797.4295520271619
 30
0.0
 11
864.98008601466745
 21
1797.4295520271619
 31
0.0
  0
SOLID
  5
5B34
  8
50_DIMENSIONS0
 62
     7
 10
780.87118017118064
 20
1797.7628853604949
 30
0.0
 11
780.87118017118064
 21
1797.0962186938291
 31
0.0
 12
778.87118017118064
 22
1797.4295520271619
 32
0.0
 13
778.87118017118064
 23
1797.4295520271619
 33
0.0
  0
SOLID
  5
5B35
  8
50_DIMENSIONS0
 62
     7
 10
936.65652255392502
 20
1797.7628853604949
 30
0.0
 11
936.65652255392502
 21
1797.0962186938291
 31
0.0
 12
938.65652255392502
 22
1797.4295520271619
 32
0.0
 13
938.65652255392502
 23
1797.4295520271619
 33
0.0
  0
INSERT
  5
5B36
  8
0
  2
*U12
 10
0.0
 20
0.0
 30
0.0
  0
POINT
  5
5B37
  8
DEFPOINTS
 62
     0
 10
778.87118017118064
 20
1768.204039132753
 30
0.0
  0
POINT
  5
5B38
  8
DEFPOINTS
 62
     0
 10
938.65652255392502
 20
1752.9274715773579
 30
0.0
  0
POINT
  5
5B39
  8
DEFPOINTS
 62
     0
 10
938.65652255392502
 20
1797.4295520271619
 30
0.0
  0
ENDBLK
  5
5B04
  8
0
  0
BLOCK
  8
0
  2
*D8
 70
     1
 10
0.0
 20
0.0
 30
0.0
  3
*D8
  1

  0
LINE
  5
5B26
  8
50_DIMENSIONS0
 62
     7
 10
822.52002810236718
 20
1642.016085958167
 30
0.0
 11
764.35909303495725
 21
1642.016085958167
 31
0.0
  0
LINE
  5
5B27
  8
50_DIMENSIONS0
 62
     7
 10
797.87118017118064
 20
1788.204039132753
 30
0.0
 11
764.35909303495725
 21
1788.204039132753
 31
0.0
  0
LINE
  5
5B28
  8
50_DIMENSIONS0
 62
     7
 10
764.85909303495725
 20
1644.016085958167
 30
0.0
 11
764.85909303495725
 21
1708.893827893346
 31
0.0
  0
LINE
  5
5B29
  8
50_DIMENSIONS0
 62
     7
 10
764.85909303495725
 20
1786.204039132753
 30
0.0
 11
764.85909303495725
 21
1721.3262971975751
 31
0.0
  0
SOLID
  5
5B2A
  8
50_DIMENSIONS0
 62
     7
 10
764.52575970162388
 20
1644.016085958167
 30
0.0
 11
765.19242636829074
 21
1644.016085958167
 31
0.0
 12
764.85909303495725
 22
1642.016085958167
 32
0.0
 13
764.85909303495725
 23
1642.016085958167
 33
0.0
  0
SOLID
  5
5B2B
  8
50_DIMENSIONS0
 62
     7
 10
764.52575970162388
 20
1786.204039132753
 30
0.0
 11
765.19242636829074
 21
1786.204039132753
 31
0.0
 12
764.85909303495725
 22
1788.204039132753
 32
0.0
 13
764.85909303495725
 23
1788.204039132753
 33
0.0
  0
INSERT
  5
5B2C
  8
0
  2
*U11
 10
0.0
 20
0.0
 30
0.0
  0
POINT
  5
5B2D
  8
DEFPOINTS
 62
     0
 10
823.52002810236718
 20
1642.016085958167
 30
0.0
  0
POINT
  5
5B2E
  8
DEFPOINTS
 62
     0
 10
798.87118017118064
 20
1788.204039132753
 30
0.0
  0
POINT
  5
5B2F
  8
DEFPOINTS
 62
     0
 10
764.85909303495725
 20
1788.204039132753
 30
0.0
  0
ENDBLK
  5
5B11
  8
0
  0
BLOCK
  8
0
  2
*U9
 70
     1
 10
0.0
 20
0.0
 30
0.0
  3
*U9
  1

  0
TEXT
  5
5B4C
  8
50_DIMENSIONS0
 62
     0
 10
570.41779552164439
 20
1672.9138893793549
 30
0.0
 40
2.0
  1
160 [6.3"]
  7
MECHTRONICS
  0
ENDBLK
  5
5B4E
  8
0
  0
BLOCK
  8
0
  2
*U10
 70
     1
 10
0.0
 20
0.0
 30
0.0
  3
*U10
  1

  0
TEXT
  5
5B50
  8
50_DIMENSIONS0
 62
     0
 10
473.87009068316689
 20
1583.0326466549959
 30
0.0
 40
2.0
  1
128 [5.0"]
 50
90.0
  7
MECHTRONICS
  0
ENDBLK
  5
5B52
  8
0
  0
BLOCK
  8
0
  2
*U11
 70
     1
 10
0.0
 20
0.0
 30
0.0
  3
*U11
  1

  0
TEXT
  5
5B54
  8
50_DIMENSIONS0
 62
     0
 10
765.58555961067327
 20
1708.9804581798401
 30
0.0
 40
2.0
  1
146 [5.8"]
 50
90.0
  7
MECHTRONICS
  0
ENDBLK
  5
5B56
  8
0
  0
BLOCK
  8
0
  2
*U12
 70
     1
 10
0.0
 20
0.0
 30
0.0
  3
*U12
  1

  0
TEXT
  5
5B58
  8
50_DIMENSIONS0
 62
     0
 10
852.63424699693212
 20
1796.7030854514451
 30
0.0
 40
2.0
  1
160 [6.3"]
  7
MECHTRONICS
  0
ENDBLK
  5
5B5A
  8
0
  0
ENDSEC
  0
SECTION
  2
ENTITIES
  0
LINE
  5
59ED
  8
01_FRAME
 62
     4
 10
750.62542649350746
 20
1811.1574798329741
 30
0.0
 11
750.6254264935078
 21
1617.771076359619
 31
0.0
  0
LINE
  5
59EE
  8
01_FRAME
 62
     4
 10
1020.258352566858
 20
1811.1574798329741
 30
0.0
 11
750.62542649350746
 21
1811.1574798329741
 31
0.0
  0
LINE
  5
59EF
  8
01_FRAME
 62
     4
 10
1020.258352566858
 20
1617.771076359619
 30
0.0
 11
1020.258352566858
 21
1811.1574798329741
 31
0.0
  0
LINE
  5
59F0
  8
01_FRAME
 62
     4
 10
750.6254264935078
 20
1617.771076359619
 30
0.0
 11
1020.258352566858
 21
1617.771076359619
 31
0.0
  0
LINE
  5
59F1
  8
01_FRAME
 62
     4
 10
914.6817521909577
 20
1638.7514753644739
 30
0.0
 11
944.26191744469668
 21
1638.7514753644739
 31
0.0
  0
LINE
  5
59F2
  8
01_FRAME
 62
     4
 10
914.6817521909577
 20
1617.771076359619
 30
0.0
 11
914.6817521909577
 21
1638.7514753644739
 31
0.0
  0
TEXT
  5
59F3
  8
62_TEXT
 10
1002.457137562376
 20
1643.1491449916391
 30
0.0
 40
2.0
  1
06-10-07
  7
MECHTRONICS
  0
TEXT
  5
59F4
  8
01_FRAME
 62
     8
 10
1011.469100757347
 20
1626.235067087131
 30
0.0
 40
1.399999999999999
  1
Revision
  7
MECHTRONICS
  0
TEXT
  5
59F5
  8
62_TEXT
 10
964.89264787423576
 20
1632.1658742623049
 30
0.0
 40
2.0
  1
GEARED MOTOR PLATE - PROFILE CUT
  7
MECHTRONICS
 72
     1
 11
991.80328907478145
 21
1632.1658742623049
 31
0.0
  0
LINE
  5
59F6
  8
01_FRAME
 62
     8
 10
944.26191744469668
 20
1649.2970159339279
 30
0.0
 11
1020.258352566858
 21
1649.2970159339279
 31
0.0
  0
LINE
  5
59F7
  8
01_FRAME
 62
     8
 10
944.26191744469668
 20
1645.7847573920851
 30
0.0
 11
1020.258352566858
 21
1645.7847573920851
 31
0.0
  0
LINE
  5
59F8
  8
01_FRAME
 62
     4
 10
960.52545593958985
 20
1628.3078646548561
 30
0.0
 11
1020.258305055452
 21
1628.3078646548561
 31
0.0
  0
LINE
  5
59F9
  8
01_FRAME
 62
     4
 10
914.68179970236417
 20
1634.4048176009269
 30
0.0
 11
960.52545593958985
 21
1634.4048176009269
 31
0.0
  0
LINE
  5
59FA
  8
01_FRAME
 62
     8
 10
948.98613280945051
 20
1642.2724861805341
 30
0.0
 11
1020.258352566858
 21
1642.2724861805341
 31
0.0
  0
TEXT
  5
59FB
  8
01_FRAME
 62
     8
 10
915.28665471016495
 20
1647.1910938660189
 30
0.0
 40
1.399999999999999
  1
Higher
  7
MECHTRONICS
  0
TEXT
  5
59FC
  8
01_FRAME
 62
     8
 10
967.29224897774316
 20
1639.9583966282089
 30
0.0
 40
1.399999999999999
  1
Description of change
  7
MECHTRONICS
  0
LINE
  5
59FD
  8
01_FRAME
 62
     4
 10
960.52545593958951
 20
1638.7514753644739
 30
0.0
 11
960.52545593958985
 21
1617.771076359619
 31
0.0
  0
LINE
  5
59FE
  8
01_FRAME
 62
     8
 10
944.26191744469668
 20
1638.7514753644739
 30
0.0
 11
944.26191744469668
 21
1649.2970159339279
 31
0.0
  0
LINE
  5
59FF
  8
01_FRAME
 62
     8
 10
948.98613280945051
 20
1638.7514753644739
 30
0.0
 11
948.98613280945051
 21
1649.339271925907
 31
0.0
  0
LINE
  5
5A00
  8
01_FRAME
 62
     7
 10
944.60468964017866
 20
1640.9395669046221
 30
0.0
 11
946.64857298725428
 21
1644.4796767065
 31
0.0
  0
LINE
  5
5A01
  8
01_FRAME
 62
     7
 10
944.60468964017866
 20
1640.9395669046221
 30
0.0
 11
948.69245633432934
 21
1640.9395669046221
 31
0.0
  0
LINE
  5
5A02
  8
01_FRAME
 62
     7
 10
948.69245633432934
 20
1640.9395669046221
 30
0.0
 11
946.64857298725428
 21
1644.4796767065
 31
0.0
  0
TEXT
  5
5A03
  8
01_FRAME
 62
     8
 10
961.29937240492177
 20
1635.6606918912189
 30
0.0
 40
1.399999999999999
  1
Title
  7
MECHTRONICS
  0
LINE
  5
5A04
  8
01_FRAME
 62
     8
 10
1001.114141274033
 20
1628.3078646548561
 30
0.0
 11
1001.114141274033
 21
1617.771076359619
 31
0.0
  0
LINE
  5
5A05
  8
01_FRAME
 62
     8
 10
1010.686223164742
 20
1628.3078646548561
 30
0.0
 11
1010.686223164742
 21
1617.771076359619
 31
0.0
  0
TEXT
  5
5A06
  8
01_FRAME
 62
     8
 10
1001.897018866637
 20
1626.0333150217591
 30
0.0
 40
1.399999999999999
  1
Process
  7
MECHTRONICS
  0
TEXT
  5
5A07
  8
01_FRAME
 62
     8
 10
961.18501415092646
 20
1626.21981235353
 30
0.0
 40
1.399999999999999
  1
Drawing Number
  7
MECHTRONICS
  0
TEXT
  5
5A08
  8
62_TEXT
 10
967.43223689770457
 20
1620.0968187686981
 30
0.0
 40
4.0
  1
M5 10 314
  7
MECHTRONICS
  0
TEXT
  5
5A09
  8
62_TEXT
 10
1003.7180783676999
 20
1620.0968187686981
 30
0.0
 40
4.0
  1
P
  7
MECHTRONICS
  0
LINE
  5
5A0A
  8
01_FRAME
 62
     8
 10
1001.530265735678
 20
1638.7514753644739
 30
0.0
 11
1001.530265735678
 21
1649.3305069819819
 31
0.0
  0
TEXT
  5
5A0B
  8
01_FRAME
 62
     8
 10
1002.838594947082
 20
1639.9583966282089
 30
0.0
 40
1.399999999999999
  1
Date (d-m-y)
  7
MECHTRONICS
  0
TEXT
  5
5A0C
  8
62_TEXT
 10
1013.2901602584089
 20
1620.0968187686981
 30
0.0
 40
4.0
  1
B
  7
MECHTRONICS
  0
LINE
  5
5A0D
  8
01_FRAME
 62
     8
 10
1014.922001892663
 20
1638.7514753644739
 30
0.0
 11
1014.922001892663
 21
1649.3305069819819
 31
0.0
  0
TEXT
  5
5A0E
  8
01_FRAME
 62
     8
 10
1015.858907945531
 20
1639.9583966282089
 30
0.0
 40
1.399999999999999
  1
Rev.
  7
MECHTRONICS
  0
TEXT
  5
5A0F
  8
01_FRAME
 62
     8
 10
927.99512696988393
 20
1621.5240273107911
 30
0.0
 40
1.399999999999999
  1
www.mechmate.com
  7
MECHTRONICS
  0
TEXT
  5
5A10
  8
01_FRAME
 62
     8
 10
915.28665471016495
 20
1645.1634614938339
 30
0.0
 40
1.399999999999999
  1
drawing/s:
  7
MECHTRONICS
  0
LINE
  5
5A11
  8
01_FRAME
 62
     8
 10
914.6817521909577
 20
1649.2970159339279
 30
0.0
 11
944.26191744469668
 21
1649.2970159339279
 31
0.0
  0
LINE
  5
5A12
  8
01_FRAME
 62
     4
 10
944.26191744469668
 20
1638.7514753644739
 30
0.0
 11
1020.258305055452
 21
1638.7514753644739
 31
0.0
  0
TEXT
  5
5A13
  8
01_FRAME
 62
     8
 10
915.45571616769598
 20
1636.676496586259
 30
0.0
 40
1.399999999999999
  1
Material:
  7
MECHTRONICS
  0
TEXT
  5
5A14
  8
62_TEXT
 10
924.51304303516906
 20
1635.657678340599
 30
0.0
 40
2.0
  1
6mm [1/4"] STEEL 300MPa
  7
MECHTRONICS
  0
TEXT
  5
5A15
  8
01_FRAME
 62
     7
 10
1016.421736124909
 20
1643.101975855167
 30
0.0
 40
2.0
  1
A
  7
MECHTRONICS
  0
TEXT
  5
5A16
  8
01_FRAME
 62
     7
 10
986.56073199472917
 20
1643.1491449916391
 30
0.0
 40
2.0
  1
First issue
  7
MECHTRONICS
  0
LINE
  5
5A17
  8
01_FRAME
 62
     8
 10
914.6817521909577
 20
1649.2970159339279
 30
0.0
 11
914.6817521909577
 21
1638.7514753644739
 31
0.0
  0
INSERT
  5
5A18
  8
50_DIMENSIONS
  2
*U6
 10
301.18921081191752
 20
128.35039303299391
 30
0.0
  0
TEXT
  5
5A19
  8
62_TEXT
 10
925.97268821134878
 20
1645.2297013161181
 30
0.0
 40
2.0
  1
M5 10 314 D
  7
MECHTRONICS
  0
TEXT
  5
5A1A
  8
62_TEXT
 62
     1
 10
882.01253070652228
 20
1625.1883906217149
 30
0.0
 40
4.0
  1
OPTION
  7
MECHTRONICS
  0
LINE
  5
5A1B
  8
62_TEXT
 62
    40
 10
903.81059499790297
 20
1624.4017790915959
 30
0.0
 11
882.35179281729359
 21
1624.4017790915959
 31
0.0
  0
LINE
  5
5A1C
  8
62_TEXT
 62
    40
 10
903.81059499790297
 20
1629.973183774669
 30
0.0
 11
882.35179281729359
 21
1629.973183774669
 31
0.0
  0
ARC
  5
5A1D
  8
62_TEXT
 62
    40
 10
882.35179281729359
 20
1629.17318377527
 30
0.0
 40
0.7999999994
 50
90.0
 51
180.0
  0
ARC
  5
5A1E
  8
62_TEXT
 62
    40
 10
882.35179281729359
 20
1625.201779090997
 30
0.0
 40
0.7999999994
 50
180.0
 51
269.99999999994787
  0
LINE
  5
5A1F
  8
62_TEXT
 62
    40
 10
881.55179281789356
 20
1625.201779090997
 30
0.0
 11
881.55179281789356
 21
1629.17318377527
 31
0.0
  0
ARC
  5
5A20
  8
62_TEXT
 62
    40
 10
903.81059499790229
 20
1629.17318377527
 30
0.0
 40
0.7999999994
 50
0.0
 51
89.999999999947889
  0
ARC
  5
5A21
  8
62_TEXT
 62
    40
 10
903.81059499790229
 20
1625.201779090997
 30
0.0
 40
0.7999999994
 50
269.99999999994787
 51
0.0
  0
LINE
  5
5A22
  8
62_TEXT
 62
    40
 10
904.61059499730209
 20
1625.201779090997
 30
0.0
 11
904.61059499730209
 21
1629.17318377527
 31
0.0
  0
TEXT
  5
5A23
  8
01_FRAME
 62
     8
 10
945.16411615464006
 20
1646.9177677945679
 30
0.0
 40
1.399999999999999
  1
1:1
  7
MECHTRONICS
  0
LINE
  5
5A24
  8
01_FRAME
 62
     7
 10
942.39785533076406
 20
1624.7122754069751
 30
0.0
 11
943.5819372685271
 21
1624.7122754069751
 31
0.0
  0
LINE
  5
5A25
  8
01_FRAME
 62
     7
 10
943.19233611096104
 20
1629.770693560424
 30
0.0
 11
942.39785533076406
 21
1624.7122754069751
 31
0.0
  0
LINE
  5
5A26
  8
01_FRAME
 62
     7
 10
941.41621318774003
 20
1626.29471146217
 30
0.0
 11
943.19233611096104
 21
1629.770693560424
 31
0.0
  0
LINE
  5
5A27
  8
01_FRAME
 62
     7
 10
944.45663005662755
 20
1630.8154086243801
 30
0.0
 11
942.60793439119038
 21
1630.8154086243801
 31
0.0
  0
LINE
  5
5A28
  8
01_FRAME
 62
     7
 10
926.24527216209287
 20
1627.2020196745
 30
0.0
 11
928.76755818226229
 21
1627.2020196745
 31
0.0
  0
LINE
  5
5A29
  8
01_FRAME
 62
     7
 10
928.53686129057769
 20
1626.1717957644471
 30
0.0
 11
926.49134884213527
 21
1626.1717957644471
 31
0.0
  0
LINE
  5
5A2A
  8
01_FRAME
 62
     7
 10
925.95305608382
 20
1625.387595452436
 30
0.0
 11
928.02000659953205
 21
1625.387595452436
 31
0.0
  0
LINE
  5
5A2B
  8
01_FRAME
 62
     7
 10
928.13556000099197
 20
1629.462361740543
 30
0.0
 11
926.64514675887278
 21
1629.462361740543
 31
0.0
  0
LINE
  5
5A2C
  8
01_FRAME
 62
     7
 10
926.34847069847092
 20
1627.863204059626
 30
0.0
 11
927.83971923824629
 21
1627.863204059626
 31
0.0
  0
LINE
  5
5A2D
  8
01_FRAME
 62
     7
 10
927.65674395973269
 20
1628.6891982074619
 30
0.0
 11
926.70527248494079
 21
1628.6891982074619
 31
0.0
  0
LINE
  5
5A2E
  8
01_FRAME
 62
     7
 10
919.16685208638387
 20
1624.7122754069751
 30
0.0
 11
919.88876009120918
 21
1629.7937387410259
 31
0.0
  0
LINE
  5
5A2F
  8
01_FRAME
 62
     7
 10
920.78255096064186
 20
1630.8154086243801
 30
0.0
 11
918.90711798134078
 21
1630.8154086243801
 31
0.0
  0
LINE
  5
5A30
  8
01_FRAME
 62
     7
 10
918.90711798134078
 20
1630.8154086243801
 30
0.0
 11
918.04388404203905
 21
1624.7122754069751
 31
0.0
  0
LINE
  5
5A31
  8
01_FRAME
 62
     7
 10
918.04388404203905
 20
1624.7122754069751
 30
0.0
 11
919.16685208638387
 21
1624.7122754069751
 31
0.0
  0
LINE
  5
5A32
  8
01_FRAME
 62
     7
 10
923.39517047614595
 20
1629.770693560424
 30
0.0
 11
922.60068969594874
 21
1624.7122754069751
 31
0.0
  0
LINE
  5
5A33
  8
01_FRAME
 62
     7
 10
923.7847716337119
 20
1624.7122754069751
 30
0.0
 11
924.65946442181291
 21
1630.8154086243801
 31
0.0
  0
LINE
  5
5A34
  8
01_FRAME
 62
     7
 10
922.60068969594874
 20
1624.7122754069751
 30
0.0
 11
923.7847716337119
 21
1624.7122754069751
 31
0.0
  0
LINE
  5
5A35
  8
01_FRAME
 62
     7
 10
924.65946442181291
 20
1630.8154086243801
 30
0.0
 11
922.81076875637507
 21
1630.8154086243801
 31
0.0
  0
LINE
  5
5A36
  8
01_FRAME
 62
     7
 10
921.61904755292471
 20
1626.29471146217
 30
0.0
 11
923.39517047614595
 21
1629.770693560424
 31
0.0
  0
LINE
  5
5A37
  8
01_FRAME
 62
     7
 10
919.88876009120918
 20
1629.7937387410259
 30
0.0
 11
920.59920924723599
 21
1626.29471146217
 31
0.0
  0
LINE
  5
5A38
  8
01_FRAME
 62
     7
 10
921.33639575028258
 20
1627.900192697967
 30
0.0
 11
920.78255096064186
 21
1630.8154086243801
 31
0.0
  0
LINE
  5
5A39
  8
01_FRAME
 62
     7
 10
922.81076875637507
 20
1630.8154086243801
 30
0.0
 11
921.33639575028258
 21
1627.900192697967
 31
0.0
  0
LINE
  5
5A3A
  8
01_FRAME
 62
     7
 10
920.59920924723599
 20
1626.29471146217
 30
0.0
 11
921.61904755292471
 21
1626.29471146217
 31
0.0
  0
LINE
  5
5A3B
  8
01_FRAME
 62
     7
 10
925.39938357030235
 20
1628.5551496460889
 30
0.0
 11
925.07640791531389
 21
1626.433195868449
 31
0.0
  0
LINE
  5
5A3C
  8
01_FRAME
 62
     7
 10
926.14626527765449
 20
1626.4101354557481
 30
0.0
 11
926.24527216209287
 21
1627.2020196745
 31
0.0
  0
LINE
  5
5A3D
  8
01_FRAME
 62
     7
 10
926.41251202605758
 20
1628.3993756930499
 30
0.0
 11
926.34847069847092
 21
1627.863204059626
 31
0.0
  0
LINE
  5
5A3E
  8
01_FRAME
 62
     7
 10
934.79649045579208
 20
1628.552889334293
 30
0.0
 11
936.24234440311284
 21
1628.552889334293
 31
0.0
  0
LINE
  5
5A3F
  8
01_FRAME
 62
     7
 10
932.62265122802637
 20
1625.725877920466
 30
0.0
 11
932.66879059310133
 21
1626.1256663128729
 31
0.0
  0
LINE
  5
5A40
  8
01_FRAME
 62
     7
 10
933.96828287807591
 20
1631.074345073735
 30
0.0
 11
933.25705373825895
 21
1625.3696722372299
 31
0.0
  0
LINE
  5
5A41
  8
01_FRAME
 62
     7
 10
934.34729313224864
 20
1625.3696722372299
 30
0.0
 11
934.79649045579208
 21
1628.552889334293
 31
0.0
  0
LINE
  5
5A42
  8
01_FRAME
 62
     7
 10
928.4907218923471
 20
1625.725877920466
 30
0.0
 11
928.53686129057769
 21
1626.1717957644471
 31
0.0
  0
LINE
  5
5A43
  8
01_FRAME
 62
     7
 10
931.19233047968987
 20
1625.387595452436
 30
0.0
 11
932.15193593521315
 21
1625.387595452436
 31
0.0
  0
LINE
  5
5A44
  8
01_FRAME
 62
     7
 10
930.3925812529742
 20
1625.387595452436
 30
0.0
 11
931.19233047968987
 21
1625.387595452436
 31
0.0
  0
LINE
  5
5A45
  8
01_FRAME
 62
     7
 10
933.25705373825895
 20
1625.3696722372299
 30
0.0
 11
934.34729313224864
 21
1625.3696722372299
 31
0.0
  0
LINE
  5
5A46
  8
01_FRAME
 62
     7
 10
933.25705373825895
 20
1625.3696722372299
 30
0.0
 11
933.25705373825895
 21
1625.3696722372299
 31
0.0
  0
LINE
  5
5A47
  8
01_FRAME
 62
     7
 10
932.60729510781312
 20
1629.462361740543
 30
0.0
 11
931.08467192802698
 21
1629.462361740543
 31
0.0
  0
LINE
  5
5A48
  8
01_FRAME
 62
     7
 10
931.14619111461514
 20
1628.693537934492
 30
0.0
 11
933.08503163359626
 21
1628.693537934492
 31
0.0
  0
LINE
  5
5A49
  8
01_FRAME
 62
     7
 10
932.67626798050514
 20
1626.1717957644471
 30
0.0
 11
931.19233047968987
 21
1626.1717957644471
 31
0.0
  0
LINE
  5
5A4A
  8
01_FRAME
 62
     7
 10
928.76755818226229
 20
1627.2020196745
 30
0.0
 11
928.98366835466084
 21
1628.652732227036
 31
0.0
  0
LINE
  5
5A4B
  8
01_FRAME
 62
     7
 10
928.76755818226229
 20
1627.2020196745
 30
0.0
 11
928.76755818226229
 21
1627.2020196745
 31
0.0
  0
LINE
  5
5A4C
  8
01_FRAME
 62
     7
 10
927.83971923824629
 20
1627.863204059626
 30
0.0
 11
927.92228988139595
 21
1628.4632866028239
 31
0.0
  0
LINE
  5
5A4D
  8
01_FRAME
 62
     7
 10
929.83890873945711
 20
1628.5551496460889
 30
0.0
 11
929.59283205941369
 21
1626.894490152079
 31
0.0
  0
LINE
  5
5A4E
  8
01_FRAME
 62
     7
 10
930.58525646981718
 20
1626.4101354557481
 30
0.0
 11
930.85397503634215
 21
1628.4013848517229
 31
0.0
  0
LINE
  5
5A4F
  8
01_FRAME
 62
     7
 10
929.59283205941369
 20
1626.894490152079
 30
0.0
 11
929.51593308446695
 21
1626.433195868449
 31
0.0
  0
LINE
  5
5A50
  8
01_FRAME
 62
     7
 10
931.19233047968987
 20
1626.1717957644471
 30
0.0
 11
930.93034003429784
 21
1626.1717957644471
 31
0.0
  0
LINE
  5
5A51
  8
01_FRAME
 62
     7
 10
933.08503163359626
 20
1628.693537934492
 30
0.0
 11
933.12812156536802
 21
1628.9593680718619
 31
0.0
  0
LINE
  5
5A52
  8
01_FRAME
 62
     7
 10
932.66879059310133
 20
1626.1256663128729
 30
0.0
 11
932.67626798050514
 21
1626.1717957644471
 31
0.0
  0
LINE
  5
5A53
  8
01_FRAME
 62
     7
 10
934.88976643712067
 20
1629.031871167123
 30
0.0
 11
935.13338844844907
 21
1631.074345073735
 31
0.0
  0
LINE
  5
5A54
  8
01_FRAME
 62
     7
 10
935.13338844844907
 20
1631.074345073735
 30
0.0
 11
933.96828287807591
 21
1631.074345073735
 31
0.0
  0
LINE
  5
5A55
  8
01_FRAME
 62
     7
 10
936.97696921061652
 20
1625.3696722372299
 30
0.0
 11
937.3837475169164
 21
1628.587476653868
 31
0.0
  0
LINE
  5
5A56
  8
01_FRAME
 62
     7
 10
936.24234440311284
 20
1628.552889334293
 30
0.0
 11
935.839938448098
 21
1625.3696722372299
 31
0.0
  0
LINE
  5
5A57
  8
01_FRAME
 62
     7
 10
938.96401772119918
 20
1624.7122754069751
 30
0.0
 11
939.68592572602472
 21
1629.7937387410259
 31
0.0
  0
LINE
  5
5A58
  8
01_FRAME
 62
     7
 10
938.70428361615529
 20
1630.8154086243801
 30
0.0
 11
937.84104967685357
 21
1624.7122754069751
 31
0.0
  0
LINE
  5
5A59
  8
01_FRAME
 62
     7
 10
935.839938448098
 20
1625.3696722372299
 30
0.0
 11
936.97696921061652
 21
1625.3696722372299
 31
0.0
  0
LINE
  5
5A5A
  8
01_FRAME
 62
     7
 10
937.84104967685357
 20
1624.7122754069751
 30
0.0
 11
938.96401772119918
 21
1624.7122754069751
 31
0.0
  0
LINE
  5
5A5B
  8
01_FRAME
 62
     7
 10
940.57971659545717
 20
1630.8154086243801
 30
0.0
 11
938.70428361615529
 21
1630.8154086243801
 31
0.0
  0
LINE
  5
5A5C
  8
01_FRAME
 62
     7
 10
939.68592572602472
 20
1629.7937387410259
 30
0.0
 11
940.39637488205153
 21
1626.29471146217
 31
0.0
  0
LINE
  5
5A5D
  8
01_FRAME
 62
     7
 10
941.13356138509755
 20
1627.900192697967
 30
0.0
 11
940.57971659545717
 21
1630.8154086243801
 31
0.0
  0
LINE
  5
5A5E
  8
01_FRAME
 62
     7
 10
942.60793439119038
 20
1630.8154086243801
 30
0.0
 11
941.13356138509755
 21
1627.900192697967
 31
0.0
  0
LINE
  5
5A5F
  8
01_FRAME
 62
     7
 10
940.39637488205153
 20
1626.29471146217
 30
0.0
 11
941.41621318774003
 21
1626.29471146217
 31
0.0
  0
LINE
  5
5A60
  8
01_FRAME
 62
     7
 10
951.34337563906774
 20
1630.6595165713511
 30
0.0
 11
950.3068088979544
 21
1630.5414901375641
 31
0.0
  0
LINE
  5
5A61
  8
01_FRAME
 62
     7
 10
950.75130618955416
 20
1626.407925076179
 30
0.0
 11
951.08191917066677
 21
1628.7374569733381
 31
0.0
  0
LINE
  5
5A62
  8
01_FRAME
 62
     7
 10
950.55900620071043
 20
1625.3853850728649
 30
0.0
 11
951.62627020446405
 21
1625.3853850728649
 31
0.0
  0
LINE
  5
5A63
  8
01_FRAME
 62
     7
 10
948.32727629416036
 20
1625.4015303892049
 30
0.0
 11
948.28715574888486
 21
1625.8561319941771
 31
0.0
  0
ARC
  5
5A64
  8
01_FRAME
 62
     7
 10
949.28328394136224
 20
1625.9440445879941
 30
0.0
 40
1.0
 50
171.34562025558941
 51
185.04353146784209
  0
LINE
  5
5A65
  8
01_FRAME
 62
     7
 10
943.5819372685271
 20
1624.7122754069751
 30
0.0
 11
944.45663005662755
 21
1630.8154086243801
 31
0.0
  0
LINE
  5
5A66
  8
01_FRAME
 62
     7
 10
945.68195193396969
 20
1625.386153883243
 30
0.0
 11
946.66625868729534
 21
1625.386153883243
 31
0.0
  0
LINE
  5
5A67
  8
01_FRAME
 62
     7
 10
947.2660705990437
 20
1625.4015303892049
 30
0.0
 11
948.32727629416036
 21
1625.4015303892049
 31
0.0
  0
LINE
  5
5A68
  8
01_FRAME
 62
     7
 10
950.55900620070918
 20
1625.3853850728649
 30
0.0
 11
950.63590517565717
 21
1625.3853850728649
 31
0.0
  0
LINE
  5
5A69
  8
01_FRAME
 62
     7
 10
947.45062812565357
 20
1627.8463901620689
 30
0.0
 11
945.97416801224233
 21
1627.8463901620689
 31
0.0
  0
LINE
  5
5A6A
  8
01_FRAME
 62
     7
 10
945.1897985738849
 20
1628.692096365301
 30
0.0
 11
947.26779574301406
 21
1628.692096365301
 31
0.0
  0
LINE
  5
5A6B
  8
01_FRAME
 62
     7
 10
947.83805995595867
 20
1629.476296677311
 30
0.0
 11
945.71271154384226
 21
1629.476296677311
 31
0.0
  0
LINE
  5
5A6C
  8
01_FRAME
 62
     7
 10
945.23593797211436
 20
1629.1380142092801
 30
0.0
 11
945.1897985738849
 21
1628.692096365301
 31
0.0
  0
LINE
  5
5A6D
  8
01_FRAME
 62
     7
 10
946.06638736084187
 20
1626.044730287711
 30
0.0
 11
946.80743724545107
 21
1626.0302391669629
 31
0.0
  0
LINE
  5
5A6E
  8
01_FRAME
 62
     7
 10
947.0553958944945
 20
1627.13639503784
 30
0.0
 11
946.26766018046874
 21
1627.13639503784
 31
0.0
  0
LINE
  5
5A6F
  8
01_FRAME
 62
     7
 10
949.41547338605415
 20
1629.490904339739
 30
0.0
 11
949.28248340226764
 21
1628.7374569733381
 31
0.0
  0
LINE
  5
5A70
  8
01_FRAME
 62
     7
 10
948.29466993046026
 20
1626.0945182981509
 30
0.0
 11
948.68616830962765
 21
1628.666667163805
 31
0.0
  0
LINE
  5
5A71
  8
01_FRAME
 62
     7
 10
947.20540851600435
 20
1626.4166691640739
 30
0.0
 11
947.2947337155465
 21
1626.9104834331999
 31
0.0
  0
LINE
  5
5A72
  8
01_FRAME
 62
     7
 10
947.52752706744457
 20
1628.399943315686
 30
0.0
 11
947.45062812565357
 21
1627.8463901620689
 31
0.0
  0
LINE
  5
5A73
  8
01_FRAME
 62
     7
 10
947.53334166467687
 20
1628.4661847606619
 30
0.0
 11
947.52752706744457
 21
1628.399943315686
 31
0.0
  0
LINE
  5
5A74
  8
01_FRAME
 62
     7
 10
950.03609326390881
 20
1628.7374569733381
 30
0.0
 11
949.68235803220341
 21
1626.43098548888
 31
0.0
  0
LINE
  5
5A75
  8
01_FRAME
 62
     7
 10
949.28248340226764
 20
1628.7374569733381
 30
0.0
 11
950.03609326390881
 21
1628.7374569733381
 31
0.0
  0
LINE
  5
5A76
  8
01_FRAME
 62
     7
 10
950.3068088979544
 20
1630.5414901375641
 30
0.0
 11
950.14375181557159
 21
1629.490904339739
 31
0.0
  0
LINE
  5
5A77
  8
01_FRAME
 62
     7
 10
950.14375181557159
 20
1629.490904339739
 30
0.0
 11
949.41547338605415
 21
1629.490904339739
 31
0.0
  0
LINE
  5
5A78
  8
01_FRAME
 62
     7
 10
952.09698549727796
 20
1625.7236675408969
 30
0.0
 11
952.14312486578365
 21
1626.169585384876
 31
0.0
  0
LINE
  5
5A79
  8
01_FRAME
 62
     7
 10
952.46610052077267
 20
1628.7374569733381
 30
0.0
 11
952.558379284078
 21
1629.490904339739
 31
0.0
  0
LINE
  5
5A7A
  8
01_FRAME
 62
     7
 10
952.14312486578365
 20
1626.169585384876
 30
0.0
 11
951.09638975403686
 21
1626.169585384876
 31
0.0
  0
LINE
  5
5A7B
  8
01_FRAME
 62
     7
 10
951.08191917066677
 20
1628.7374569733381
 30
0.0
 11
952.46610052077267
 21
1628.7374569733381
 31
0.0
  0
LINE
  5
5A7C
  8
01_FRAME
 62
     7
 10
951.17419793397187
 20
1629.490904339739
 30
0.0
 11
951.34337563906774
 21
1630.6595165713511
 31
0.0
  0
LINE
  5
5A7D
  8
01_FRAME
 62
     7
 10
952.558379284078
 20
1629.490904339739
 30
0.0
 11
951.17419793397187
 21
1629.490904339739
 31
0.0
  0
ARC
  5
5A7E
  8
01_FRAME
 62
     7
 10
926.76515643482412
 20
1628.3486942192139
 30
0.0
 40
0.3562677235234871
 50
129.9788673075646
 51
171.82154662075291
  0
ARC
  5
5A7F
  8
01_FRAME
 62
     7
 10
926.71379214698652
 20
1628.422510090948
 30
0.0
 40
0.2668241670683093
 50
91.829758024394337
 51
131.71149876918139
  0
ARC
  5
5A80
  8
01_FRAME
 62
     7
 10
931.20607506449949
 20
1628.353033946245
 30
0.0
 40
0.3562677235234871
 50
129.9788673075646
 51
171.82154662075291
  0
ARC
  5
5A81
  8
01_FRAME
 62
     7
 10
931.15471077666189
 20
1628.426849817977
 30
0.0
 40
0.2668241670683093
 50
91.829758024394337
 51
131.71149876918139
  0
ARC
  5
5A82
  8
01_FRAME
 62
     7
 10
927.66984801003855
 20
1628.4155571136489
 30
0.0
 40
0.2739546757357922
 50
41.694258406646668
 51
92.741670228047298
  0
ARC
  5
5A83
  8
01_FRAME
 62
     7
 10
927.73273311391313
 20
1628.4715743943129
 30
0.0
 40
0.1897378601816721
 50
357.49651121804118
 51
41.694258406683453
  0
ARC
  5
5A84
  8
01_FRAME
 62
     7
 10
947.28089979331969
 20
1628.4184552714869
 30
0.0
 40
0.2739546757357922
 50
41.694258406646668
 51
92.741670228047298
  0
ARC
  5
5A85
  8
01_FRAME
 62
     7
 10
947.34378489719415
 20
1628.4744725521509
 30
0.0
 40
0.1897378601816721
 50
357.49651121804118
 51
41.694258406683453
  0
ARC
  5
5A86
  8
01_FRAME
 62
     7
 10
926.48917273707195
 20
1626.670145361488
 30
0.0
 40
0.4983543481347475
 50
242.0549458700896
 51
270.25018750738548
  0
ARC
  5
5A87
  8
01_FRAME
 62
     7
 10
926.35208820572086
 20
1626.411729316156
 30
0.0
 40
0.2058290992756684
 50
180.44368064352511
 51
242.0549458700896
  0
ARC
  5
5A88
  8
01_FRAME
 62
     7
 10
930.92816392923396
 20
1626.670145361488
 30
0.0
 40
0.4983543481347475
 50
242.0549458700896
 51
270.25018750738548
  0
ARC
  5
5A89
  8
01_FRAME
 62
     7
 10
930.79107939788355
 20
1626.411729316156
 30
0.0
 40
0.2058290992756684
 50
180.44368064352511
 51
242.0549458700896
  0
ARC
  5
5A8A
  8
01_FRAME
 62
     7
 10
926.37339676904594
 20
1628.4004236051101
 30
0.0
 40
0.9862260689533767
 50
116.4343118930764
 51
170.9737479913808
  0
ARC
  5
5A8B
  8
01_FRAME
 62
     7
 10
926.69941122158332
 20
1627.744658091566
 30
0.0
 40
1.7185605772340431
 50
91.809445418565659
 51
116.4343118930764
  0
ARC
  5
5A8C
  8
01_FRAME
 62
     7
 10
930.81292193819991
 20
1628.4004236051101
 30
0.0
 40
0.9862260689533767
 50
116.4343118930764
 51
170.9737479913808
  0
ARC
  5
5A8D
  8
01_FRAME
 62
     7
 10
931.13893639073729
 20
1627.744658091566
 30
0.0
 40
1.7185605772340431
 50
91.809445418565659
 51
116.4343118930764
  0
ARC
  5
5A8E
  8
01_FRAME
 62
     7
 10
928.03630468991093
 20
1628.360439571037
 30
0.0
 40
1.1063833352066721
 50
44.532575507600143
 51
84.852989749607985
  0
ARC
  5
5A8F
  8
01_FRAME
 62
     7
 10
928.41651746299704
 20
1628.734498784037
 30
0.0
 40
0.5730147500357467
 50
351.79615361502181
 51
44.532575507600143
  0
ARC
  5
5A90
  8
01_FRAME
 62
     7
 10
925.96821748855996
 20
1626.276125400105
 30
0.0
 40
0.8886592913478247
 50
213.3781401443897
 51
269.02243001409971
  0
ARC
  5
5A91
  8
01_FRAME
 62
     7
 10
926.02310014642444
 20
1626.312283809697
 30
0.0
 40
0.954382473852452
 50
172.72155707448491
 51
213.3781401443897
  0
ARC
  5
5A92
  8
01_FRAME
 62
     7
 10
928.0169774600771
 20
1625.9440680599839
 30
0.0
 40
0.5564808519953198
 50
269.68811547988628
 51
309.85159843335731
  0
ARC
  5
5A93
  8
01_FRAME
 62
     7
 10
928.15815922297838
 20
1625.7749264115139
 30
0.0
 40
0.3361602051582644
 50
309.85159843335731
 51
351.61013221802148
  0
ARC
  5
5A94
  8
01_FRAME
 62
     7
 10
930.40774265771302
 20
1626.276125400105
 30
0.0
 40
0.8886592913478247
 50
213.3781401443897
 51
269.02243001409971
  0
ARC
  5
5A95
  8
01_FRAME
 62
     7
 10
930.46262531557829
 20
1626.312283809697
 30
0.0
 40
0.954382473852452
 50
172.72155707448491
 51
213.3781401443897
  0
ARC
  5
5A96
  8
01_FRAME
 62
     7
 10
932.14890679575637
 20
1625.9440680599839
 30
0.0
 40
0.5564808519953198
 50
269.68811547988628
 51
309.85159843335731
  0
ARC
  5
5A97
  8
01_FRAME
 62
     7
 10
932.29008855865675
 20
1625.7749264115139
 30
0.0
 40
0.3361602051582644
 50
309.85159843335731
 51
351.61013221802148
  0
ARC
  5
5A98
  8
01_FRAME
 62
     7
 10
932.62250076736541
 20
1628.940833039863
 30
0.0
 40
0.5217503212408176
 50
29.017138568440679
 51
91.670039206039633
  0
ARC
  5
5A99
  8
01_FRAME
 62
     7
 10
932.72299019063917
 20
1628.996574537955
 30
0.0
 40
0.4068362716240224
 50
354.75278767927108
 51
29.017138568440679
  0
LINE
  5
5A9A
  8
01_FRAME
 62
     7
 10
954.08265328249286
 20
1627.2020196745
 30
0.0
 11
956.60493930266216
 21
1627.2020196745
 31
0.0
  0
LINE
  5
5A9B
  8
01_FRAME
 62
     7
 10
956.37424241097756
 20
1626.1717957644471
 30
0.0
 11
954.32872996253514
 21
1626.1717957644471
 31
0.0
  0
LINE
  5
5A9C
  8
01_FRAME
 62
     7
 10
953.79043720422044
 20
1625.387595452436
 30
0.0
 11
955.85738771993215
 21
1625.387595452436
 31
0.0
  0
LINE
  5
5A9D
  8
01_FRAME
 62
     7
 10
955.97294112139195
 20
1629.462361740543
 30
0.0
 11
954.48252787927322
 21
1629.462361740543
 31
0.0
  0
LINE
  5
5A9E
  8
01_FRAME
 62
     7
 10
954.18585181887067
 20
1627.863204059626
 30
0.0
 11
955.67710035864616
 21
1627.863204059626
 31
0.0
  0
LINE
  5
5A9F
  8
01_FRAME
 62
     7
 10
955.49412508013268
 20
1628.6891982074619
 30
0.0
 11
954.542653605341
 21
1628.6891982074619
 31
0.0
  0
LINE
  5
5AA0
  8
01_FRAME
 62
     7
 10
953.23676469070222
 20
1628.5551496460889
 30
0.0
 11
952.91378903571388
 21
1626.433195868449
 31
0.0
  0
LINE
  5
5AA1
  8
01_FRAME
 62
     7
 10
953.98364639805447
 20
1626.4101354557481
 30
0.0
 11
954.08265328249286
 21
1627.2020196745
 31
0.0
  0
LINE
  5
5AA2
  8
01_FRAME
 62
     7
 10
954.24989314645779
 20
1628.3993756930499
 30
0.0
 11
954.18585181887067
 21
1627.863204059626
 31
0.0
  0
LINE
  5
5AA3
  8
01_FRAME
 62
     7
 10
956.32810301274731
 20
1625.725877920466
 30
0.0
 11
956.37424241097756
 21
1626.1717957644471
 31
0.0
  0
LINE
  5
5AA4
  8
01_FRAME
 62
     7
 10
956.60493930266216
 20
1627.2020196745
 30
0.0
 11
956.82104947506093
 21
1628.652732227036
 31
0.0
  0
LINE
  5
5AA5
  8
01_FRAME
 62
     7
 10
956.60493930266216
 20
1627.2020196745
 30
0.0
 11
956.60493930266216
 21
1627.2020196745
 31
0.0
  0
LINE
  5
5AA6
  8
01_FRAME
 62
     7
 10
955.67710035864616
 20
1627.863204059626
 30
0.0
 11
955.75967100179571
 21
1628.4632866028239
 31
0.0
  0
ARC
  5
5AA7
  8
01_FRAME
 62
     7
 10
954.60253755522444
 20
1628.3486942192139
 30
0.0
 40
0.3562677235234871
 50
129.9788673075646
 51
171.82154662075291
  0
ARC
  5
5AA8
  8
01_FRAME
 62
     7
 10
954.55117326738684
 20
1628.422510090948
 30
0.0
 40
0.2668241670683093
 50
91.829758024394337
 51
131.71149876918139
  0
ARC
  5
5AA9
  8
01_FRAME
 62
     7
 10
955.50722913043853
 20
1628.4155571136489
 30
0.0
 40
0.2739546757357922
 50
41.694258406646668
 51
92.741670228047298
  0
ARC
  5
5AAA
  8
01_FRAME
 62
     7
 10
955.57011423431334
 20
1628.4715743943129
 30
0.0
 40
0.1897378601816721
 50
357.49651121804118
 51
41.694258406683453
  0
ARC
  5
5AAB
  8
01_FRAME
 62
     7
 10
954.32655385747205
 20
1626.670145361488
 30
0.0
 40
0.4983543481347475
 50
242.0549458700896
 51
270.25018750738548
  0
ARC
  5
5AAC
  8
01_FRAME
 62
     7
 10
954.18946932612107
 20
1626.411729316156
 30
0.0
 40
0.2058290992756684
 50
180.44368064352511
 51
242.0549458700896
  0
ARC
  5
5AAD
  8
01_FRAME
 62
     7
 10
954.21077788944592
 20
1628.4004236051101
 30
0.0
 40
0.9862260689533767
 50
116.4343118930764
 51
170.9737479913808
  0
ARC
  5
5AAE
  8
01_FRAME
 62
     7
 10
954.53679234198353
 20
1627.744658091566
 30
0.0
 40
1.7185605772340431
 50
91.809445418565659
 51
116.4343118930764
  0
ARC
  5
5AAF
  8
01_FRAME
 62
     7
 10
955.87368581031114
 20
1628.360439571037
 30
0.0
 40
1.1063833352066721
 50
44.532575507600143
 51
84.852989749607985
  0
ARC
  5
5AB0
  8
01_FRAME
 62
     7
 10
956.25389858339702
 20
1628.734498784037
 30
0.0
 40
0.5730147500357467
 50
351.79615361502181
 51
44.532575507600143
  0
ARC
  5
5AB1
  8
01_FRAME
 62
     7
 10
953.80559860896005
 20
1626.276125400105
 30
0.0
 40
0.8886592913478247
 50
213.3781401443897
 51
269.02243001409971
  0
ARC
  5
5AB2
  8
01_FRAME
 62
     7
 10
953.86048126682454
 20
1626.312283809697
 30
0.0
 40
0.954382473852452
 50
172.72155707448491
 51
213.3781401443897
  0
ARC
  5
5AB3
  8
01_FRAME
 62
     7
 10
955.8543585804772
 20
1625.9440680599839
 30
0.0
 40
0.5564808519953198
 50
269.68811547988628
 51
309.85159843335731
  0
ARC
  5
5AB4
  8
01_FRAME
 62
     7
 10
955.99554034337859
 20
1625.7749264115139
 30
0.0
 40
0.3361602051582644
 50
309.85159843335731
 51
351.61013221802148
  0
LINE
  5
5AB5
  8
01_FRAME
 62
     7
 10
936.05954204410591
 20
1629.462361740543
 30
0.0
 11
936.69733636050387
 21
1629.462361740543
 31
0.0
  0
ARC
  5
5AB6
  8
01_FRAME
 62
     7
 10
936.51141889742189
 20
1628.6459938351711
 30
0.0
 40
0.8742891288908129
 50
356.16225827570821
 51
57.030568872310127
  0
ARC
  5
5AB7
  8
01_FRAME
 62
     7
 10
936.70685236820373
 20
1628.9472867890599
 30
0.0
 40
0.5151628480858382
 50
57.030568872310127
 51
91.058418890025422
  0
ARC
  5
5AB8
  8
01_FRAME
 62
     7
 10
936.13675240866235
 20
1627.175484340645
 30
0.0
 40
2.2881804305072611
 50
91.933705877925334
 51
118.1284095955082
  0
ARC
  5
5AB9
  8
01_FRAME
 62
     7
 10
935.2610240968479
 20
1628.8136222844789
 30
0.0
 40
0.4306562720799454
 50
118.1284095955082
 51
149.55027737963161
  0
ARC
  5
5ABA
  8
01_FRAME
 62
     7
 10
951.62324106500807
 20
1625.941857680413
 30
0.0
 40
0.5564808519953198
 50
269.68811547988628
 51
309.85159843335731
  0
ARC
  5
5ABB
  8
01_FRAME
 62
     7
 10
951.76442282790879
 20
1625.772716031945
 30
0.0
 40
0.3361602051582644
 50
309.85159843335731
 51
351.61013221802148
  0
ARC
  5
5ABC
  8
01_FRAME
 62
     7
 10
950.57416760544959
 20
1626.2739150205341
 30
0.0
 40
0.8886592913478247
 50
213.3781401443897
 51
269.02243001409971
  0
ARC
  5
5ABD
  8
01_FRAME
 62
     7
 10
950.62905026331362
 20
1626.3100734301261
 30
0.0
 40
0.954382473852452
 50
172.72155707448491
 51
213.3781401443897
  0
ARC
  5
5ABE
  8
01_FRAME
 62
     7
 10
951.09421364897105
 20
1626.6679349819169
 30
0.0
 40
0.4983543481347475
 50
242.0549458700896
 51
270.25018750738548
  0
ARC
  5
5ABF
  8
01_FRAME
 62
     7
 10
950.95712911761984
 20
1626.4095189365869
 30
0.0
 40
0.2058290992756684
 50
180.44368064352511
 51
242.0549458700896
  0
ARC
  5
5AC0
  8
01_FRAME
 62
     7
 10
947.73880464487763
 20
1628.3743745078059
 30
0.0
 40
1.1063833352066721
 50
44.532575507600143
 51
84.852989749607985
  0
ARC
  5
5AC1
  8
01_FRAME
 62
     7
 10
948.11901741796373
 20
1628.7484337208059
 30
0.0
 40
0.5730147500357467
 50
351.79615361502181
 51
44.532575507600143
  0
ARC
  5
5AC2
  8
01_FRAME
 62
     7
 10
945.71138384976257
 20
1628.923946854997
 30
0.0
 40
0.5523514180140796
 50
89.862277278542265
 51
130.98420927748739
  0
ARC
  5
5AC3
  8
01_FRAME
 62
     7
 10
945.57337730418465
 20
1629.082793620679
 30
0.0
 40
0.3419277938878447
 50
130.98420927748739
 51
170.70615505540579
  0
ARC
  5
5AC4
  8
01_FRAME
 62
     7
 10
948.21053882198419
 20
1625.895821006545
 30
0.0
 40
1.0659941081150781
 50
189.2518512240257
 51
207.6254624334251
  0
ARC
  5
5AC5
  8
01_FRAME
 62
     7
 10
946.53879232681436
 20
1626.098747608869
 30
0.0
 40
0.7239043381937801
 50
280.14161684226229
 51
328.86389698779629
  0
ARC
  5
5AC6
  8
01_FRAME
 62
     7
 10
946.00095244410477
 20
1626.5797360484321
 30
0.0
 40
1.2669372712889651
 50
91.211385343645034
 51
150.30133372253451
  0
ARC
  5
5AC7
  8
01_FRAME
 62
     7
 10
946.51993495132228
 20
1626.283729663646
 30
0.0
 40
1.864400761915205
 50
150.30133372253451
 51
172.84077312505781
  0
ARC
  5
5AC8
  8
01_FRAME
 62
     7
 10
945.82734727104776
 20
1626.3707231511869
 30
0.0
 40
1.166370990528343
 50
172.84077312505781
 51
205.63064895958891
  0
ARC
  5
5AC9
  8
01_FRAME
 62
     7
 10
945.34822118907425
 20
1626.14084918446
 30
0.0
 40
0.634954164480408
 50
205.63064895958891
 51
237.51101652280329
  0
ARC
  5
5ACA
  8
01_FRAME
 62
     7
 10
945.76819929325916
 20
1626.800362556593
 30
0.0
 40
1.4168361862834189
 50
237.51101652280329
 51
266.51006466087063
  0
ARC
  5
5ACB
  8
01_FRAME
 62
     7
 10
947.04229184418989
 20
1626.8627539440261
 30
0.0
 40
0.2739546757357922
 50
41.694258406646668
 51
92.741670228047298
  0
ARC
  5
5ACC
  8
01_FRAME
 62
     7
 10
947.10517694806356
 20
1626.9187712246901
 30
0.0
 40
0.1897378601816721
 50
357.49651121804118
 51
41.694258406683453
  0
ARC
  5
5ACD
  8
01_FRAME
 62
     7
 10
946.73070882574768
 20
1626.4908954847419
 30
0.0
 40
0.4670026696925385
 50
279.45655767728039
 51
324.92940398283741
  0
ARC
  5
5ACE
  8
01_FRAME
 62
     7
 10
946.58503061260285
 20
1626.5931681984559
 30
0.0
 40
0.6449966295775496
 50
324.92940398283741
 51
344.1188173872228
  0
ARC
  5
5ACF
  8
01_FRAME
 62
     7
 10
946.2618251949043
 20
1626.6178160756681
 30
0.0
 40
0.5186117883961751
 50
89.35534226611162
 51
126.25017530154049
  0
ARC
  5
5AD0
  8
01_FRAME
 62
     7
 10
946.17732749814775
 20
1626.73904650604
 30
0.0
 40
0.3708987868957041
 50
126.79741703498409
 51
163.58374767656801
  0
ARC
  5
5AD1
  8
01_FRAME
 62
     7
 10
942.14502621886368
 20
1627.788506576708
 30
0.0
 40
3.7959401227298382
 50
343.74206189479008
 51
345.59022698623642
  0
ARC
  5
5AD2
  8
01_FRAME
 62
     7
 10
946.86271688672696
 20
1626.4338749811359
 30
0.0
 40
1.112526027892744
 50
164.78824619774539
 51
186.82014585812891
  0
ARC
  5
5AD3
  8
01_FRAME
 62
     7
 10
946.01655799778018
 20
1626.3251533598579
 30
0.0
 40
0.2595511549401781
 50
185.171295796316
 51
236.50138254920739
  0
ARC
  5
5AD4
  8
01_FRAME
 62
     7
 10
946.08788768771137
 20
1626.4329264159719
 30
0.0
 40
0.3887910724951353
 50
236.50138254920739
 51
266.82989961253043
  0
ARC
  5
5AD5
  8
10_OUTLINE
 62
     2
 10
798.87118017118064
 20
1768.204039132753
 30
0.0
 40
20.0
 50
24.518290552000881
 51
196.80716959393081
  0
CIRCLE
  5
5AD6
  8
10_OUTLINE
 62
     2
 10
798.87118017118064
 20
1768.204039132753
 30
0.0
 40
5.049999999999998
  0
ARC
  5
5AD7
  8
10_OUTLINE
 62
     2
 10
918.63508430431307
 20
1750.9456296033161
 30
0.0
 40
20.11928644840788
 50
348.00727201992822
 51
130.12512276591221
  0
CIRCLE
  5
5AD8
  8
10_OUTLINE
 62
     2
 10
823.52002810236718
 20
1652.016085958167
 30
0.0
 40
3.25
  0
CIRCLE
  5
5AD9
  8
10_OUTLINE
 62
     2
 10
823.52002810236718
 20
1725.5551912015669
 30
0.0
 40
3.25
  0
CIRCLE
  5
5ADA
  8
10_OUTLINE
 62
     2
 10
897.05913334576792
 20
1652.016085958167
 30
0.0
 40
3.25
  0
CIRCLE
  5
5ADB
  8
10_OUTLINE
 62
     2
 10
897.05913334576792
 20
1725.5551912015669
 30
0.0
 40
3.25
  0
CIRCLE
  5
5ADC
  8
10_OUTLINE
 62
     2
 10
919.55411689909738
 20
1681.0751247548981
 30
0.0
 40
3.0
  0
ARC
  5
5ADD
  8
10_OUTLINE
 62
     2
 10
919.55411689909738
 20
1681.0751247548981
 30
0.0
 40
7.0
 50
289.3730097308009
 51
81.462970904028964
  0
ARC
  5
5ADE
  8
10_OUTLINE
 62
     2
 10
915.30953094422227
 20
1735.2903610589981
 30
0.0
 40
20.11928644840788
 50
324.53648027736102
 51
348.00727201992822
  0
LINE
  5
5ADF
  8
10_OUTLINE
 62
     2
 10
915.26496461512988
 20
1700.550402633374
 30
0.0
 11
931.69638972637586
 21
1723.617463113465
 31
0.0
  0
LINE
  5
5AE0
  8
10_OUTLINE
 62
     2
 10
934.98969346737363
 20
1731.109823981609
 30
0.0
 11
938.31524682746442
 21
1746.765092525927
 31
0.0
  0
ARC
  5
5AE1
  8
10_OUTLINE
 62
     2
 10
921.78084531464731
 20
1695.9089267140509
 30
0.0
 40
8.0
 50
144.53648027736091
 51
261.46297090402902
  0
ARC
  5
5AE2
  8
10_OUTLINE
 62
     2
 10
914.74980165836871
 20
1733.3702837376641
 30
0.0
 40
4.049999999999998
 50
163.2689309891864
 51
343.26893098920078
  0
ARC
  5
5AE3
  8
10_OUTLINE
 62
     2
 10
918.90397534158956
 20
1752.9274715773579
 30
0.0
 40
4.049999999999998
 50
352.74696211037741
 51
172.74696211039119
  0
ARC
  5
5AE4
  8
10_OUTLINE
 62
     2
 10
798.87118017118064
 20
1768.204039132753
 30
0.0
 40
116.95101418044391
 50
343.26893098920078
 51
352.74696211039122
  0
ARC
  5
5AE5
  8
10_OUTLINE
 62
     2
 10
798.87118017118064
 20
1768.204039132753
 30
0.0
 40
125.0510141804439
 50
343.26893098920078
 51
352.74696211039122
  0
CIRCLE
  5
5AE6
  8
10_OUTLINE
 62
     2
 10
860.28958072406715
 20
1706.7856385798671
 30
0.0
 40
18.100000000000001
  0
LINE
  5
5AE7
  8
10_OUTLINE
 62
     2
 10
911.73711594154645
 20
1670.906327188578
 30
0.0
 11
921.87613430331908
 21
1674.4714715860459
 31
0.0
  0
LINE
  5
5AE8
  8
10_OUTLINE
 62
     2
 10
840.39476936819915
 20
1753.5551912015681
 30
0.0
 11
884.52239120533545
 21
1753.5551912015669
 31
0.0
  0
ARC
  5
5AE9
  8
10_OUTLINE
 62
     2
 10
840.39476936819915
 20
1773.5551912015681
 30
0.0
 40
20.0
 50
204.51829055200091
 51
270.0
  0
LINE
  5
5AEA
  8
10_OUTLINE
 62
     2
 10
817.06775700801597
 20
1776.5037133083549
 30
0.0
 11
822.19819253136359
 21
1765.2555170259659
 31
0.0
  0
LINE
  5
5AEB
  8
10_OUTLINE
 62
     2
 10
905.66902974845516
 20
1766.329618567418
 30
0.0
 11
898.57547959957355
 21
1759.3245655447761
 31
0.0
  0
ARC
  5
5AEC
  8
10_OUTLINE
 62
     2
 10
884.52239120533557
 20
1773.5551912015681
 30
0.0
 40
20.0
 50
270.0
 51
314.64035832640673
  0
ARC
  5
5AED
  8
10_OUTLINE
 62
     2
 10
897.05913334576792
 20
1652.016085958167
 30
0.0
 40
10.0
 50
270.0
 51
0.0
  0
ARC
  5
5AEE
  8
10_OUTLINE
 62
     2
 10
823.52002810236718
 20
1652.016085958167
 30
0.0
 40
10.0
 50
196.80716959393081
 51
270.0
  0
LINE
  5
5AEF
  8
10_OUTLINE
 62
     2
 10
779.72551371887027
 20
1762.421007393529
 30
0.0
 11
813.94719487621228
 21
1649.124570088554
 31
0.0
  0
ARC
  5
5AF0
  8
10_OUTLINE
 62
     2
 10
914.05913334576792
 20
1664.3026740197249
 30
0.0
 40
7.0
 50
109.3730097308009
 51
180.0
  0
LINE
  5
5AF1
  8
10_OUTLINE
 62
     2
 10
907.05913334576815
 20
1652.016085958167
 30
0.0
 11
907.05913334576815
 21
1664.3026740197249
 31
0.0
  0
LINE
  5
5AF2
  8
10_OUTLINE
 62
     2
 10
897.05913334576792
 20
1642.016085958167
 30
0.0
 11
823.52002810236718
 21
1642.016085958167
 31
0.0
  0
DIMENSION
  5
5AF3
  8
50_DIMENSIONS0
  2
*D7
 10
938.65652255392502
 20
1797.4295520271619
 30
0.0
 11
858.76385136255271
 21
1797.4295520271619
 31
0.0
 70
     0
 13
778.87118017118064
 23
1768.204039132753
 33
0.0
 14
938.65652255392502
 24
1752.9274715773579
 34
0.0
1001
ACAD
1000
DSTYLE
1002
{
1070
   143
1040
0.039370078
1002
}
  0
DIMENSION
  5
5AF4
  8
50_DIMENSIONS0
  2
*D8
 10
764.85909303495725
 20
1788.204039132753
 30
0.0
 11
764.85909303495714
 21
1715.1100625454601
 31
0.0
 70
     0
 13
823.52002810236718
 23
1642.016085958167
 33
0.0
 14
798.87118017118064
 24
1788.204039132753
 34
0.0
 50
90.0
1001
ACAD
1000
DSTYLE
1002
{
1070
   143
1040
0.039370078
1002
}
  0
TEXT
  5
5AF5
  8
62_TEXT
 10
1002.457137562376
 20
1646.661416203191
 30
0.0
 40
2.0
  1
09-11-07
  7
MECHTRONICS
  0
TEXT
  5
5AF6
  8
01_FRAME
 62
     7
 10
1016.421736124909
 20
1646.614247066718
 30
0.0
 40
2.0
  1
B
  7
MECHTRONICS
  0
TEXT
  5
5AF7
  8
01_FRAME
 62
     7
 10
957.8825719722862
 20
1646.661416203191
 30
0.0
 40
2.0
  1
Orientate motor wire entry bottom
  7
MECHTRONICS
  0
ENDSEC
  0
EOF
