  0
SECTION
  2
HEADER
  9
$ACADVER
  1
AC1009
  9
$INSBASE
 10
0.0
 20
0.0
 30
0.0
  9
$EXTMIN
 10
219.76932931324851
 20
370.01309102445248
 30
0.0
  9
$EXTMAX
 10
624.21871842327425
 20
660.09269623448472
 30
0.0
  9
$LIMMIN
 10
0.0
 20
0.0
  9
$LIMMAX
 10
0.0
 20
0.0
  9
$ORTHOMODE
 70
     0
  9
$REGENMODE
 70
     1
  9
$FILLMODE
 70
     1
  9
$QTEXTMODE
 70
     0
  9
$MIRRTEXT
 70
     1
  9
$DRAGMODE
 70
     2
  9
$LTSCALE
 40
10.0
  9
$OSMODE
 70
    47
  9
$ATTMODE
 70
     1
  9
$TEXTSIZE
 40
2.0
  9
$TRACEWID
 40
0.05
  9
$TEXTSTYLE
  7
MECHTRONICS
  9
$CLAYER
  8
50_DIMENSIONS
  9
$CELTYPE
  6
BYLAYER
  9
$CECOLOR
 62
   256
  9
$DIMSCALE
 40
1.5
  9
$DIMASZ
 40
2.0
  9
$DIMEXO
 40
1.0
  9
$DIMDLI
 40
6.0
  9
$DIMRND
 40
0.0
  9
$DIMDLE
 40
0.0
  9
$DIMEXE
 40
0.5
  9
$DIMTP
 40
0.0
  9
$DIMTM
 40
0.0
  9
$DIMTXT
 40
2.0
  9
$DIMCEN
 40
0.09
  9
$DIMTSZ
 40
0.0
  9
$DIMTOL
 70
     0
  9
$DIMLIM
 70
     0
  9
$DIMTIH
 70
     0
  9
$DIMTOH
 70
     1
  9
$DIMSE1
 70
     0
  9
$DIMSE2
 70
     0
  9
$DIMTAD
 70
     0
  9
$DIMZIN
 70
     0
  9
$DIMBLK
  1

  9
$DIMASO
 70
     1
  9
$DIMSHO
 70
     1
  9
$DIMPOST
  1

  9
$DIMAPOST
  1
"
  9
$DIMALT
 70
     1
  9
$DIMALTD
 70
     1
  9
$DIMALTF
 40
0.03937
  9
$DIMLFAC
 40
1.0
  9
$DIMTOFL
 70
     0
  9
$DIMTVP
 40
0.0
  9
$DIMTIX
 70
     0
  9
$DIMSOXD
 70
     0
  9
$DIMSAH
 70
     0
  9
$DIMBLK1
  1

  9
$DIMBLK2
  1

  9
$DIMSTYLE
  2
MECHTRONICS
  9
$DIMCLRD
 70
     7
  9
$DIMCLRE
 70
     7
  9
$DIMCLRT
 70
     0
  9
$DIMTFAC
 40
1.0
  9
$DIMGAP
 40
0.5
  9
$LUNITS
 70
     2
  9
$LUPREC
 70
    10
  9
$SKETCHINC
 40
0.1
  9
$FILLETRAD
 40
12.0
  9
$AUNITS
 70
     0
  9
$AUPREC
 70
     0
  9
$MENU
  1
acad
  9
$ELEVATION
 40
0.0
  9
$PELEVATION
 40
0.0
  9
$THICKNESS
 40
0.0
  9
$LIMCHECK
 70
     0
  9
$BLIPMODE
 70
     0
  9
$CHAMFERA
 40
0.0
  9
$CHAMFERB
 40
0.0
  9
$SKPOLY
 70
     0
  9
$TDCREATE
 40
2444972.083333333
  9
$TDUPDATE
 40
2454646.8333168752
  9
$TDINDWG
 40
1.1157457638999999
  9
$TDUSRTIMER
 40
1.1157450463
  9
$USRTIMER
 70
     1
  9
$ANGBASE
 50
0.0
  9
$ANGDIR
 70
     0
  9
$PDMODE
 70
     0
  9
$PDSIZE
 40
0.0
  9
$PLINEWID
 40
0.0
  9
$COORDS
 70
     1
  9
$SPLFRAME
 70
     0
  9
$SPLINETYPE
 70
     6
  9
$SPLINESEGS
 70
     8
  9
$ATTDIA
 70
     0
  9
$ATTREQ
 70
     1
  9
$HANDLING
 70
     1
  9
$HANDSEED
  5
5460
  9
$SURFTAB1
 70
     6
  9
$SURFTAB2
 70
     6
  9
$SURFTYPE
 70
     6
  9
$SURFU
 70
     6
  9
$SURFV
 70
     6
  9
$UCSNAME
  2

  9
$UCSORG
 10
0.0
 20
0.0
 30
0.0
  9
$UCSXDIR
 10
1.0
 20
0.0
 30
0.0
  9
$UCSYDIR
 10
0.0
 20
1.0
 30
0.0
  9
$PUCSNAME
  2

  9
$PUCSORG
 10
0.0
 20
0.0
 30
0.0
  9
$PUCSXDIR
 10
1.0
 20
0.0
 30
0.0
  9
$PUCSYDIR
 10
0.0
 20
1.0
 30
0.0
  9
$USERI1
 70
     0
  9
$USERI2
 70
     0
  9
$USERI3
 70
     0
  9
$USERI4
 70
     0
  9
$USERI5
 70
     0
  9
$USERR1
 40
0.0
  9
$USERR2
 40
0.0
  9
$USERR3
 40
0.0
  9
$USERR4
 40
0.0
  9
$USERR5
 40
0.0
  9
$WORLDVIEW
 70
     1
  9
$SHADEDGE
 70
     3
  9
$SHADEDIF
 70
    70
  9
$TILEMODE
 70
     1
  9
$MAXACTVP
 70
    16
  9
$PLIMCHECK
 70
     0
  9
$PEXTMIN
 10
1.0887500995726069
 20
0.7937499998122686
 30
0.0
  9
$PEXTMAX
 10
21.184573317709511
 20
7.1437499983104198
 30
0.0
  9
$PLIMMIN
 10
0.0
 20
0.0
  9
$PLIMMAX
 10
12.0
 20
9.0
  9
$UNITMODE
 70
     0
  9
$VISRETAIN
 70
     0
  9
$PLINEGEN
 70
     1
  9
$PSLTSCALE
 70
     0
  0
ENDSEC
  0
SECTION
  2
TABLES
  0
TABLE
  2
VPORT
 70
     2
  0
VPORT
  2
*ACTIVE
 70
     0
 10
0.0
 20
0.0
 11
1.0
 21
1.0
 12
474.30092723576649
 22
514.53287969471091
 13
0.0
 23
0.0
 14
1.0
 24
1.0
 15
0.0
 25
0.0
 16
0.0
 26
0.0
 36
1.0
 17
0.0
 27
0.0
 37
0.0
 40
293.43641493119742
 41
1.7423423423423421
 42
50.0
 43
0.0
 44
0.0
 50
0.0
 51
0.0
 71
     0
 72
   100
 73
     1
 74
     0
 75
     0
 76
     0
 77
     0
 78
     0
  0
ENDTAB
  0
TABLE
  2
LTYPE
 70
     1
  0
LTYPE
  2
CONTINUOUS
 70
     0
  3
Solid line
 72
    65
 73
     0
 40
0.0
  0
ENDTAB
  0
TABLE
  2
LAYER
 70
     6
  0
LAYER
  2
0
 70
     0
 62
   221
  6
CONTINUOUS
  0
LAYER
  2
50_DIMENSIONS
 70
     0
 62
     7
  6
CONTINUOUS
  0
LAYER
  2
62_TEXT
 70
     0
 62
     7
  6
CONTINUOUS
  0
LAYER
  2
01_FRAME
 70
     0
 62
     4
  6
CONTINUOUS
  0
LAYER
  2
DEFPOINTS
 70
     0
 62
     7
  6
CONTINUOUS
  0
LAYER
  2
10_OUTLINE
 70
     0
 62
     2
  6
CONTINUOUS
  0
ENDTAB
  0
TABLE
  2
STYLE
 70
     2
  0
STYLE
  2
STANDARD
 70
     0
 40
0.0
 41
1.0
 50
0.0
 71
     0
 42
1.345608723561553
  3
txt
  4

  0
STYLE
  2
MECHTRONICS
 70
     0
 40
3.0
 41
1.0
 50
0.0
 71
     0
 42
2.0
  3
txt
  4

  0
ENDTAB
  0
TABLE
  2
VIEW
 70
     0
  0
ENDTAB
  0
TABLE
  2
UCS
 70
    16
  0
UCS
  2
AUDIT_D_000731094948-0
 70
     0
 10
0.0
 20
0.0
 30
1.0
 11
1.0
 21
0.0
 31
0.0
 12
0.0
 22
1.0
 32
0.0
  0
UCS
  2
AUDIT_D_000731094948-1
 70
     0
 10
0.0
 20
0.0
 30
1.0
 11
1.0
 21
0.0
 31
0.0
 12
0.0
 22
1.0
 32
0.0
  0
UCS
  2
AUDIT_D_000731094948-2
 70
     0
 10
0.0
 20
0.0
 30
1.0
 11
1.0
 21
0.0
 31
0.0
 12
0.0
 22
1.0
 32
0.0
  0
UCS
  2
AUDIT_D_000731094948-3
 70
     0
 10
0.0
 20
0.0
 30
1.0
 11
1.0
 21
0.0
 31
0.0
 12
0.0
 22
1.0
 32
0.0
  0
UCS
  2
AUDIT_D_000731094948-4
 70
     0
 10
0.0
 20
0.0
 30
1.0
 11
1.0
 21
0.0
 31
0.0
 12
0.0
 22
1.0
 32
0.0
  0
UCS
  2
AUDIT_D_000731094948-5
 70
     0
 10
0.0
 20
0.0
 30
1.0
 11
1.0
 21
0.0
 31
0.0
 12
0.0
 22
1.0
 32
0.0
  0
UCS
  2
AUDIT_D_000731094948-6
 70
     0
 10
0.0
 20
0.0
 30
1.0
 11
1.0
 21
0.0
 31
0.0
 12
0.0
 22
1.0
 32
0.0
  0
UCS
  2
AUDIT_D_000731094948-7
 70
     0
 10
0.0
 20
0.0
 30
1.0
 11
1.0
 21
0.0
 31
0.0
 12
0.0
 22
1.0
 32
0.0
  0
UCS
  2
AUDIT_D_000731094948-8
 70
     0
 10
0.0
 20
0.0
 30
1.0
 11
1.0
 21
0.0
 31
0.0
 12
0.0
 22
1.0
 32
0.0
  0
UCS
  2
AUDIT_D_000731094948-9
 70
     0
 10
0.0
 20
0.0
 30
1.0
 11
1.0
 21
0.0
 31
0.0
 12
0.0
 22
1.0
 32
0.0
  0
UCS
  2
AUDIT_D_000731094948-10
 70
     0
 10
0.0
 20
0.0
 30
1.0
 11
1.0
 21
0.0
 31
0.0
 12
0.0
 22
1.0
 32
0.0
  0
UCS
  2
AUDIT_D_000731094948-11
 70
     0
 10
0.0
 20
0.0
 30
1.0
 11
1.0
 21
0.0
 31
0.0
 12
0.0
 22
1.0
 32
0.0
  0
UCS
  2
AUDIT_D_000731094948-12
 70
     0
 10
0.0
 20
0.0
 30
1.0
 11
1.0
 21
0.0
 31
0.0
 12
0.0
 22
1.0
 32
0.0
  0
UCS
  2
AUDIT_D_000731094948-13
 70
     0
 10
0.0
 20
0.0
 30
1.0
 11
1.0
 21
0.0
 31
0.0
 12
0.0
 22
1.0
 32
0.0
  0
UCS
  2
AUDIT_D_000731094948-14
 70
     0
 10
0.0
 20
0.0
 30
1.0
 11
1.0
 21
0.0
 31
0.0
 12
0.0
 22
1.0
 32
0.0
  0
UCS
  2
CK_VIEW_1
 70
     0
 10
0.0
 20
0.0
 30
1.0
 11
1.0
 21
0.0
 31
0.0
 12
0.0
 22
1.0
 32
0.0
  0
ENDTAB
  0
TABLE
  2
APPID
 70
     4
  0
APPID
  2
ACAD
 70
     0
  0
APPID
  2
DCO15
 70
     0
  0
APPID
  2
ACAD_PSEXT
 70
     0
  0
APPID
  2
ACAD_DSTYLE_DIMTEXT_FILL
 70
     0
  0
ENDTAB
  0
TABLE
  2
DIMSTYLE
 70
     2
  0
DIMSTYLE
  2
STANDARD
 70
     0
  3

  4

  5

  6

  7

 40
1.0
 41
0.18
 42
0.0625
 43
0.38
 44
0.18
 45
0.0
 46
0.0
 47
0.0
 48
0.0
140
0.18
141
0.09
142
0.0
143
25.399999999999999
144
1.0
145
0.0
146
1.0
147
0.09
 71
     0
 72
     0
 73
     1
 74
     1
 75
     0
 76
     0
 77
     0
 78
     0
170
     0
171
     2
172
     0
173
     0
174
     0
175
     0
176
     0
177
     0
178
     0
  0
DIMSTYLE
  2
MECHTRONICS
 70
     0
  3

  4
"
  5

  6

  7

 40
1.5
 41
2.0
 42
1.0
 43
6.0
 44
0.5
 45
0.0
 46
0.0
 47
0.0
 48
0.0
140
2.0
141
0.09
142
0.0
143
0.03937
144
1.0
145
0.0
146
1.0
147
0.5
 71
     0
 72
     0
 73
     0
 74
     1
 75
     0
 76
     0
 77
     0
 78
     0
170
     1
171
     1
172
     0
173
     0
174
     0
175
     0
176
     7
177
     7
178
     0
  0
ENDTAB
  0
ENDSEC
  0
SECTION
  2
BLOCKS
  0
BLOCK
  8
0
  2
$MODEL_SPACE
 70
     0
 10
0.0
 20
0.0
 30
0.0
  3
$MODEL_SPACE
  1

  0
ENDBLK
  5
E
  8
0
  0
BLOCK
 67
     1
  8
0
  2
$PAPER_SPACE
 70
     0
 10
0.0
 20
0.0
 30
0.0
  3
$PAPER_SPACE
  1

  0
ENDBLK
  5
10
 67
     1
  8
0
  0
BLOCK
  8
0
  2
*D0
 70
     1
 10
0.0
 20
0.0
 30
0.0
  3
*D0
  1

  0
LINE
  5
542A
  8
50_DIMENSIONS
 62
     7
 10
369.75352600980273
 20
473.11236484958511
 30
0.0
 11
291.76580098821461
 21
473.11236484958511
 31
0.0
  0
LINE
  5
542B
  8
50_DIMENSIONS
 62
     7
 10
355.84665944242278
 20
596.11236484958386
 30
0.0
 11
291.76580098821461
 21
596.11236484958386
 31
0.0
  0
LINE
  5
542C
  8
50_DIMENSIONS
 62
     7
 10
292.51580098821461
 20
476.11236484958522
 30
0.0
 11
292.51580098821461
 21
525.28801287141255
 31
0.0
  0
LINE
  5
542D
  8
50_DIMENSIONS
 62
     7
 10
292.51580098821461
 20
593.11236484958386
 30
0.0
 11
292.51580098821461
 21
543.93671682775641
 31
0.0
  0
SOLID
  5
542E
  8
50_DIMENSIONS
 62
     7
 10
292.01580098821449
 20
476.11236484958522
 30
0.0
 11
293.01580098821449
 21
476.11236484958522
 31
0.0
 12
292.51580098821461
 22
473.11236484958511
 32
0.0
 13
292.51580098821461
 23
473.11236484958511
 33
0.0
  0
SOLID
  5
542F
  8
50_DIMENSIONS
 62
     7
 10
292.01580098821449
 20
593.11236484958386
 30
0.0
 11
293.01580098821449
 21
593.11236484958386
 31
0.0
 12
292.51580098821461
 22
596.11236484958386
 32
0.0
 13
292.51580098821461
 23
596.11236484958386
 33
0.0
  0
INSERT
  5
5430
  8
50_DIMENSIONS
  2
*U6
 10
0.0
 20
0.0
 30
0.0
  0
POINT
  5
5431
  8
DEFPOINTS
 62
     0
 10
371.25352600980273
 20
473.11236484958511
 30
0.0
  0
POINT
  5
5432
  8
DEFPOINTS
 62
     0
 10
357.34665944242278
 20
596.11236484958386
 30
0.0
  0
POINT
  5
5433
  8
DEFPOINTS
 62
     0
 10
292.51580098821461
 20
596.11236484958386
 30
0.0
  0
ENDBLK
  5
517F
  8
0
  0
BLOCK
  8
0
  2
*D1
 70
     1
 10
0.0
 20
0.0
 30
0.0
  3
*D1
  1

  0
LINE
  5
5184
  8
50_DIMENSIONS
 62
     7
 10
316.25352600980119
 20
536.61236484958397
 30
0.0
 11
316.25352600980119
 21
614.15161286171224
 31
0.0
  0
LINE
  5
5185
  8
50_DIMENSIONS
 62
     7
 10
538.25352600980216
 20
536.61236484958397
 30
0.0
 11
538.25352600980216
 21
614.15161286171224
 31
0.0
  0
LINE
  5
5186
  8
50_DIMENSIONS
 62
     7
 10
319.25352600980119
 20
613.40161286171224
 30
0.0
 11
417.74192982971982
 21
613.40161286171224
 31
0.0
  0
LINE
  5
5187
  8
50_DIMENSIONS
 62
     7
 10
535.25352600980216
 20
613.40161286171224
 30
0.0
 11
436.76512218988353
 21
613.40161286171224
 31
0.0
  0
SOLID
  5
5188
  8
50_DIMENSIONS
 62
     7
 10
319.25352600980119
 20
613.90161286171224
 30
0.0
 11
319.25352600980119
 21
612.90161286171224
 31
0.0
 12
316.25352600980119
 22
613.40161286171224
 32
0.0
 13
316.25352600980119
 23
613.40161286171224
 33
0.0
  0
SOLID
  5
5189
  8
50_DIMENSIONS
 62
     7
 10
535.25352600980216
 20
613.90161286171224
 30
0.0
 11
535.25352600980216
 21
612.90161286171224
 31
0.0
 12
538.25352600980216
 22
613.40161286171224
 32
0.0
 13
538.25352600980216
 23
613.40161286171224
 33
0.0
  0
INSERT
  5
518A
  8
50_DIMENSIONS
  2
*U5
 10
0.0
 20
0.0
 30
0.0
  0
POINT
  5
518B
  8
DEFPOINTS
 62
     0
 10
316.25352600980119
 20
535.11236484958386
 30
0.0
  0
POINT
  5
518C
  8
DEFPOINTS
 62
     0
 10
538.25352600980216
 20
535.11236484958386
 30
0.0
  0
POINT
  5
518D
  8
DEFPOINTS
 62
     0
 10
538.25352600980216
 20
613.40161286171224
 30
0.0
  0
ENDBLK
  5
518F
  8
0
  0
BLOCK
  8
0
  2
A$C37C8223B
 70
     0
 10
0.0
 20
0.0
 30
0.0
  3
A$C37C8223B
  1

  0
ARC
  5
53D3
  8
10_OUTLINE
 62
     2
 10
51.424151063720842
 20
8.8708089415713403
 30
0.0
 40
2.25
 50
44.999999999993094
 51
224.99999999999309
  0
LINE
  5
53D4
  8
10_OUTLINE
 62
     2
 10
53.015141321390672
 20
10.461799199241449
 30
0.0
 11
57.742429679532343
 21
5.7345108410992216
 31
0.0
  0
LINE
  5
53D5
  8
10_OUTLINE
 62
     2
 10
49.833160806051012
 20
7.2798186839014534
 30
0.0
 11
54.560449164192221
 21
2.5525303257592209
 31
0.0
  0
ARC
  5
53D6
  8
10_OUTLINE
 62
     2
 10
93.924151063720615
 20
8.8708089415713403
 30
0.0
 40
2.25
 50
315.00000000000699
 51
135.00000000000691
  0
LINE
  5
53D7
  8
10_OUTLINE
 62
     2
 10
92.333160806050728
 20
10.461799199241449
 30
0.0
 11
87.605872447909007
 21
5.7345108410992216
 31
0.0
  0
LINE
  5
53D8
  8
10_OUTLINE
 62
     2
 10
95.515141321390047
 20
7.2798186839014534
 30
0.0
 11
90.787852963248724
 21
2.5525303257592209
 31
0.0
  0
ARC
  5
53D9
  8
10_OUTLINE
 62
     2
 10
72.674151063720615
 20
-12.379191058429679
 30
0.0
 40
21.75
 50
55.308453003083393
 51
124.6915469969166
  0
ARC
  5
53DA
  8
10_OUTLINE
 62
     2
 10
53.146235601819399
 20
1.138316763386342
 30
0.0
 40
2.0
 50
325.30845300309522
 51
44.999999999993094
  0
ARC
  5
53DB
  8
10_OUTLINE
 62
     2
 10
59.156643241905051
 20
7.1487244034722153
 30
0.0
 40
2.0
 50
224.99999999999309
 51
304.6915469969166
  0
ARC
  5
53DC
  8
10_OUTLINE
 62
     2
 10
86.191658885536285
 20
7.1487244034722153
 30
0.0
 40
2.0
 50
235.3084530030834
 51
314.99999999999079
  0
ARC
  5
53DD
  8
10_OUTLINE
 62
     2
 10
92.202066525621944
 20
1.138316763386342
 30
0.0
 40
2.0
 50
135.00000000000921
 51
214.69154699690489
  0
LINE
  5
53DE
  8
10_OUTLINE
 62
     2
 10
4.67415106372124
 20
14.068884954494701
 30
0.0
 11
4.67415106372124
 21
47.068884954495388
 31
0.0
  0
LINE
  5
53DF
  8
10_OUTLINE
 62
     2
 10
44.174151063721347
 20
18.77195648543227
 30
0.0
 11
101.1741510637204
 21
18.77195648543227
 31
0.0
  0
LINE
  5
53E0
  8
10_OUTLINE
 62
     2
 10
44.174151063721347
 20
23.77195648543227
 30
0.0
 11
101.1741510637204
 21
23.77195648543227
 31
0.0
  0
ARC
  5
53E1
  8
10_OUTLINE
 62
     2
 10
44.17415106372129
 20
21.271956485432149
 30
0.0
 40
2.5
 50
90.0
 51
270.0
  0
ARC
  5
53E2
  8
10_OUTLINE
 62
     2
 10
101.1741510637204
 20
21.271956485432149
 30
0.0
 40
2.5
 50
270.0
 51
90.0
  0
ARC
  5
53E3
  8
10_OUTLINE
 62
     2
 10
-7.3258489362810897
 20
14.068884954494591
 30
0.0
 40
12.000000000001361
 50
307.62475357026813
 51
0.0
  0
ARC
  5
53E4
  8
10_OUTLINE
 62
     2
 10
16.67415106372118
 20
47.068884954495161
 30
0.0
 40
12.0
 50
90.0
 51
180.0
  0
LINE
  5
53E5
  8
10_OUTLINE
 62
     2
 10
24.42415106372022
 20
46.068884954495381
 30
0.0
 11
24.42415106372022
 21
36.068884954495388
 31
0.0
  0
ARC
  5
53E6
  8
10_OUTLINE
 62
     2
 10
28.67415106372016
 20
36.068884954495161
 30
0.0
 40
4.25
 50
180.0
 51
0.0
  0
LINE
  5
53E7
  8
10_OUTLINE
 62
     2
 10
32.924151063720217
 20
46.068884954495381
 30
0.0
 11
32.924151063720217
 21
36.068884954495388
 31
0.0
  0
ARC
  5
53E8
  8
10_OUTLINE
 62
     2
 10
28.67415106372016
 20
46.068884954495161
 30
0.0
 40
4.25
 50
0.0
 51
180.0
  0
LINE
  5
53E9
  8
10_OUTLINE
 62
     2
 10
140.67415106372059
 20
14.068884954494481
 30
0.0
 11
140.67415106371959
 21
47.068884954495267
 31
0.0
  0
ARC
  5
53EA
  8
10_OUTLINE
 62
     2
 10
128.67415106371971
 20
47.06888495449504
 30
0.0
 40
12.0
 50
0.0
 51
90.0
  0
ARC
  5
53EB
  8
10_OUTLINE
 62
     2
 10
152.67415106372141
 20
14.06888495449436
 30
0.0
 40
12.000000000001361
 50
180.0
 51
232.3752464297319
  0
LINE
  5
53EC
  8
10_OUTLINE
 62
     2
 10
120.9241510637209
 20
46.068884954495381
 30
0.0
 11
120.9241510637209
 21
36.068884954495388
 31
0.0
  0
ARC
  5
53ED
  8
10_OUTLINE
 62
     2
 10
116.6741510637209
 20
36.068884954495161
 30
0.0
 40
4.25
 50
180.0
 51
0.0
  0
LINE
  5
53EE
  8
10_OUTLINE
 62
     2
 10
112.4241510637209
 20
46.068884954495381
 30
0.0
 11
112.4241510637209
 21
36.068884954495388
 31
0.0
  0
ARC
  5
53EF
  8
10_OUTLINE
 62
     2
 10
116.6741510637209
 20
46.068884954495161
 30
0.0
 40
4.25
 50
0.0
 51
180.0
  0
LINE
  5
53F0
  8
10_OUTLINE
 62
     2
 10
128.67415106371971
 20
59.068884954495388
 30
0.0
 11
16.67415106372124
 21
59.068884954495388
 31
0.0
  0
LINE
  5
53F1
  8
0
 10
140.67415106372059
 20
21.271956485432149
 30
0.0
 11
127.1980116637922
 21
21.271956485432149
 31
0.0
  0
LINE
  5
53F2
  8
0
 10
18.150290463649579
 20
21.271956485432149
 30
0.0
 11
4.67415106372124
 21
21.271956485432149
 31
0.0
  0
ENDBLK
  5
53F6
  8
0
  0
BLOCK
  8
0
  2
*U3
 70
     1
 10
0.0
 20
0.0
 30
0.0
  3
*U3
  1

  0
SOLID
  5
544C
  8
50_DIMENSIONS
 10
521.50534242436424
 20
567.88013180255257
 30
0.0
 11
519.03046869021136
 21
566.11236484958636
 31
0.0
 12
520.79823564317758
 22
568.58723858373924
 32
0.0
 13
520.79823564317758
 23
568.58723858373924
 33
0.0
  0
POLYLINE
  5
544D
  8
50_DIMENSIONS
 66
     1
 10
0.0
 20
0.0
 30
0.0
  0
VERTEX
  5
544E
  8
50_DIMENSIONS
 10
521.15178903377091
 20
568.2336851931459
 30
0.0
  0
VERTEX
  5
544F
  8
50_DIMENSIONS
 10
532.56697140083486
 20
579.64886756020985
 30
0.0
  0
VERTEX
  5
5450
  8
50_DIMENSIONS
 10
542.74205816689482
 20
579.64886756020985
 30
0.0
  0
SEQEND
  5
5451
  8
50_DIMENSIONS
  0
ENDBLK
  5
5453
  8
0
  0
BLOCK
  8
0
  2
*U4
 70
     1
 10
0.0
 20
0.0
 30
0.0
  3
*U4
  1

  0
TEXT
  5
5455
  8
50_DIMENSIONS
 10
543.30379077262455
 20
578.14886756020996
 30
0.0
 40
3.0
  1
Engrave bend lines
  7
MECHTRONICS
  0
ENDBLK
  5
5457
  8
0
  0
BLOCK
  8
0
  2
*U5
 70
     1
 10
0.0
 20
0.0
 30
0.0
  3
*U5
  1

  0
TEXT
  5
5459
  8
50_DIMENSIONS
 62
     0
 10
418.24636366328048
 20
612.31191299813793
 30
0.0
 40
3.0
  1
222 [8.7"]
  7
MECHTRONICS
  0
ENDBLK
  5
545B
  8
0
  0
BLOCK
  8
0
  2
*U6
 70
     1
 10
0.0
 20
0.0
 30
0.0
  3
*U6
  1

  0
TEXT
  5
545D
  8
50_DIMENSIONS
 62
     0
 10
293.60550085178892
 20
525.41795830115348
 30
0.0
 40
3.0
  1
123 [4.8"]
 50
90.0
  7
MECHTRONICS
  0
ENDBLK
  5
545F
  8
0
  0
ENDSEC
  0
SECTION
  2
ENTITIES
  0
LINE
  5
2747
  8
01_FRAME
 62
     4
 10
219.76932931324851
 20
660.09269623448472
 30
0.0
 11
219.76932931324879
 21
370.01309102445259
 31
0.0
  0
LINE
  5
2748
  8
01_FRAME
 62
     4
 10
624.21871842327425
 20
660.09269623448472
 30
0.0
 11
219.76932931324851
 21
660.09269623448472
 31
0.0
  0
LINE
  5
274D
  8
01_FRAME
 62
     4
 10
624.21871842327425
 20
370.01309102445259
 30
0.0
 11
624.21871842327425
 21
660.09269623448472
 31
0.0
  0
LINE
  5
274E
  8
01_FRAME
 62
     4
 10
219.76932931324879
 20
370.01309102445259
 30
0.0
 11
624.21871842327425
 21
370.01309102445259
 31
0.0
  0
LINE
  5
3FC5
  8
01_FRAME
 62
     4
 10
465.85388912653269
 20
401.4836895317369
 30
0.0
 11
510.22406574003179
 21
401.4836895317369
 31
0.0
  0
LINE
  5
3FC6
  8
01_FRAME
 62
     4
 10
465.85381785942309
 20
370.01309102445248
 30
0.0
 11
465.85381785942309
 21
417.30200038591659
 31
0.0
  0
TEXT
  5
3FCF
  8
62_TEXT
 10
597.51689591655145
 20
408.08019397248341
 30
0.0
 40
3.0
  1
07-11-07
  7
MECHTRONICS
  0
TEXT
  5
3FD0
  8
01_FRAME
 62
     8
 10
611.03484070900709
 20
382.70907711572141
 30
0.0
 40
2.0999999999999979
  1
Revision
  7
MECHTRONICS
  0
TEXT
  5
3FD1
  8
62_TEXT
 10
540.69233055214397
 20
391.49928994801252
 30
0.0
 40
3.0
  1
GRIND HEAD BOTTOM PLATE - PROFILE
  7
MECHTRONICS
 72
     1
 11
581.53612318515911
 21
391.49928994801252
 31
0.0
  0
LINE
  5
3FD2
  8
01_FRAME
 62
     8
 10
510.22406574003179
 20
417.30200038591659
 30
0.0
 11
624.21871842327425
 21
417.30200038591647
 31
0.0
  0
LINE
  5
3FD3
  8
01_FRAME
 62
     8
 10
510.22406574003179
 20
412.03361257315231
 30
0.0
 11
624.21871842327425
 21
412.03361257315231
 31
0.0
  0
LINE
  5
3FD4
  8
01_FRAME
 62
     4
 10
534.61937348237154
 20
385.81827346730819
 30
0.0
 11
624.21864715616448
 21
385.81827346730819
 31
0.0
  0
LINE
  5
3FD5
  8
01_FRAME
 62
     4
 10
465.85388912653298
 20
394.96370288641401
 30
0.0
 11
534.61937348237154
 21
394.96370288641401
 31
0.0
  0
LINE
  5
3FD6
  8
01_FRAME
 62
     8
 10
517.31038878716276
 20
406.76520575582521
 30
0.0
 11
624.21871842327425
 21
406.76520575582521
 31
0.0
  0
TEXT
  5
3FD9
  8
01_FRAME
 62
     8
 10
466.76117163823483
 20
414.14311728405232
 30
0.0
 40
2.0999999999999979
  1
Higher
  7
MECHTRONICS
  0
TEXT
  5
3FDA
  8
01_FRAME
 62
     8
 10
544.76956303960173
 20
403.2940714273376
 30
0.0
 40
2.0999999999999979
  1
Description of change
  7
MECHTRONICS
  0
LINE
  5
3FDB
  8
01_FRAME
 62
     4
 10
534.61937348237143
 20
401.4836895317369
 30
0.0
 11
534.61937348237154
 21
370.01309102445248
 31
0.0
  0
LINE
  5
3FDC
  8
01_FRAME
 62
     4
 10
510.22406574003179
 20
401.4836895317369
 30
0.0
 11
510.22406574003179
 21
417.30200038591659
 31
0.0
  0
LINE
  5
3FDF
  8
01_FRAME
 62
     8
 10
517.31038878716276
 20
401.4836895317369
 30
0.0
 11
517.31038878716276
 21
417.36538437388413
 31
0.0
  0
LINE
  5
3FE0
  8
01_FRAME
 62
     7
 10
510.73822403325511
 20
404.76582684195648
 30
0.0
 11
513.80404905386808
 21
410.07599154477367
 31
0.0
  0
LINE
  5
3FE1
  8
01_FRAME
 62
     7
 10
510.73822403325511
 20
404.76582684195648
 30
0.0
 11
516.86987407448112
 21
404.76582684195648
 31
0.0
  0
LINE
  5
3FE2
  8
01_FRAME
 62
     7
 10
516.86987407448112
 20
404.76582684195648
 30
0.0
 11
513.80404905386808
 21
410.07599154477367
 31
0.0
  0
TEXT
  5
3FE3
  8
01_FRAME
 62
     8
 10
535.78024818036977
 20
396.84751432185311
 30
0.0
 40
2.0999999999999979
  1
Title
  7
MECHTRONICS
  0
LINE
  5
3FE4
  8
01_FRAME
 62
     8
 10
595.50240148403714
 20
385.81827346730819
 30
0.0
 11
595.50240148403714
 21
370.01309102445248
 31
0.0
  0
LINE
  5
3FE6
  8
01_FRAME
 62
     8
 10
609.86052432010058
 20
385.81827346730819
 30
0.0
 11
609.86052432010058
 21
370.01309102445248
 31
0.0
  0
TEXT
  5
3FE7
  8
01_FRAME
 62
     8
 10
596.67671787294353
 20
382.40644901766188
 30
0.0
 40
2.0999999999999979
  1
Process
  7
MECHTRONICS
  0
TEXT
  5
3FE8
  8
01_FRAME
 62
     8
 10
535.60871079937669
 20
382.6861950153185
 30
0.0
 40
2.0999999999999979
  1
Drawing Number
  7
MECHTRONICS
  0
TEXT
  5
3FE9
  8
62_TEXT
 10
544.97954491954363
 20
373.50170463807092
 30
0.0
 40
6.0
  1
M6 10 116 
  7
MECHTRONICS
  0
TEXT
  5
3FEA
  8
62_TEXT
 10
599.40830712453715
 20
373.50170463807092
 30
0.0
 40
6.0
  1
P
  7
MECHTRONICS
  0
LINE
  5
3FEB
  8
01_FRAME
 62
     8
 10
596.12658817650413
 20
401.4836895317369
 30
0.0
 11
596.12658817650413
 21
417.35223695799749
 31
0.0
  0
TEXT
  5
3FEC
  8
01_FRAME
 62
     8
 10
597.99438168863719
 20
403.29407142733731
 30
0.0
 40
2.0999999999999979
  1
Date (d-m-y)
  7
MECHTRONICS
  0
TEXT
  5
3FED
  8
62_TEXT
 10
613.76642996060104
 20
373.50170463807092
 30
0.0
 40
6.0
  1
B
  7
MECHTRONICS
  0
LINE
  5
3FEE
  8
01_FRAME
 62
     8
 10
616.21419241198214
 20
401.4836895317369
 30
0.0
 11
616.21419241198214
 21
417.35223695799749
 31
0.0
  0
TEXT
  5
3FEF
  8
01_FRAME
 62
     8
 10
617.61955149128335
 20
403.29407142733731
 30
0.0
 40
2.0999999999999979
  1
Rev.
  7
MECHTRONICS
  0
TEXT
  5
3FF2
  8
01_FRAME
 62
     8
 10
485.82388002781312
 20
375.64251745121118
 30
0.0
 40
2.0999999999999979
  1
www.mechmate.com
  7
MECHTRONICS
  0
TEXT
  5
3FF6
  8
62_TEXT
 10
482.62919638084389
 20
412.65021710327909
 30
0.0
 40
3.0
  1
M6 10 116 B
  7
MECHTRONICS
  0
TEXT
  5
3FF8
  8
01_FRAME
 62
     8
 10
466.76117163823483
 20
411.10166872577639
 30
0.0
 40
2.0999999999999979
  1
drawing/s:
  7
MECHTRONICS
  0
LINE
  5
3FF9
  8
01_FRAME
 62
     4
 10
465.85381785942309
 20
417.30200038591659
 30
0.0
 11
510.22406574003179
 21
417.30200038591659
 31
0.0
  0
LINE
  5
3FFB
  8
01_FRAME
 62
     4
 10
510.22406574003179
 20
401.4836895317369
 30
0.0
 11
624.21864715616448
 21
401.4836895317369
 31
0.0
  0
TEXT
  5
3FFC
  8
01_FRAME
 62
     8
 10
467.01476382453109
 20
398.37122136441229
 30
0.0
 40
2.0999999999999979
  1
Material:
  7
MECHTRONICS
  0
TEXT
  5
3FFD
  8
62_TEXT
 10
480.60075412574048
 20
396.84299399592322
 30
0.0
 40
3.0
  1
6mm [1/4"] STEEL 300MPa
  7
MECHTRONICS
  0
TEXT
  5
3FFE
  8
01_FRAME
 62
     7
 10
618.46379376035043
 20
408.0094402677741
 30
0.0
 40
3.0
  1
A
  7
MECHTRONICS
  0
TEXT
  5
3FFF
  8
01_FRAME
 62
     7
 10
573.67228756508086
 20
408.08019397248341
 30
0.0
 40
3.0
  1
First issue
  7
MECHTRONICS
  0
TEXT
  5
4339
  8
01_FRAME
 62
     8
 10
510.53067438332948
 20
413.66796660030587
 30
0.0
 40
2.0999999999999979
  1
1:1.5
  7
MECHTRONICS
  0
LINE
  5
4FC0
  8
01_FRAME
 62
     7
 10
507.42797256913389
 20
380.4248895954878
 30
0.0
 11
509.20409547577827
 21
380.4248895954878
 31
0.0
  0
LINE
  5
4FC1
  8
01_FRAME
 62
     7
 10
508.61969373942981
 20
388.01251682565942
 30
0.0
 11
507.42797256913389
 21
380.4248895954878
 31
0.0
  0
LINE
  5
4FC2
  8
01_FRAME
 62
     7
 10
505.95550935459772
 20
382.79854367827971
 30
0.0
 11
508.61969373942981
 21
388.01251682565942
 31
0.0
  0
LINE
  5
4FC3
  8
01_FRAME
 62
     7
 10
510.5161346579294
 20
389.5795894215936
 30
0.0
 11
507.74309115977331
 21
389.5795894215936
 31
0.0
  0
LINE
  5
4FC4
  8
01_FRAME
 62
     7
 10
483.19909781612762
 20
384.15950599677342
 30
0.0
 11
486.98252684638078
 21
384.15950599677342
 31
0.0
  0
LINE
  5
4FC5
  8
01_FRAME
 62
     7
 10
486.63648150885399
 20
382.61417013169398
 30
0.0
 11
483.56821283619081
 21
382.61417013169398
 31
0.0
  0
LINE
  5
4FC6
  8
01_FRAME
 62
     7
 10
482.76077369871848
 20
381.43786966367787
 30
0.0
 11
485.86119947228599
 21
381.43786966367787
 31
0.0
  0
LINE
  5
4FC7
  8
01_FRAME
 62
     7
 10
486.03452957447507
 20
387.55001909583848
 30
0.0
 11
483.79890971129771
 21
387.55001909583848
 31
0.0
  0
LINE
  5
4FC8
  8
01_FRAME
 62
     7
 10
483.35389562069372
 20
385.15128257446253
 30
0.0
 11
485.59076843035689
 21
385.15128257446253
 31
0.0
  0
LINE
  5
4FC9
  8
01_FRAME
 62
     7
 10
485.31630551258729
 20
386.39027379621831
 30
0.0
 11
483.88909830039881
 21
386.39027379621831
 31
0.0
  0
LINE
  5
4FCA
  8
01_FRAME
 62
     7
 10
472.58146770256428
 20
380.4248895954878
 30
0.0
 11
473.6643297098023
 21
388.04708459656371
 31
0.0
  0
LINE
  5
4FCB
  8
01_FRAME
 62
     7
 10
475.00501601395069
 20
389.5795894215936
 30
0.0
 11
472.19186654499879
 21
389.5795894215936
 31
0.0
  0
LINE
  5
4FCC
  8
01_FRAME
 62
     7
 10
472.19186654499879
 20
389.5795894215936
 30
0.0
 11
470.89701563604632
 21
380.4248895954878
 31
0.0
  0
LINE
  5
4FCD
  8
01_FRAME
 62
     7
 10
470.89701563604632
 20
380.4248895954878
 30
0.0
 11
472.58146770256428
 21
380.4248895954878
 31
0.0
  0
LINE
  5
4FCE
  8
01_FRAME
 62
     7
 10
478.92394528720661
 20
388.01251682565942
 30
0.0
 11
477.7322241169112
 21
380.4248895954878
 31
0.0
  0
LINE
  5
4FCF
  8
01_FRAME
 62
     7
 10
479.5083470235553
 20
380.4248895954878
 30
0.0
 11
480.82038620570688
 21
389.5795894215936
 31
0.0
  0
LINE
  5
4FD0
  8
01_FRAME
 62
     7
 10
477.7322241169112
 20
380.4248895954878
 30
0.0
 11
479.5083470235553
 21
380.4248895954878
 31
0.0
  0
LINE
  5
4FD1
  8
01_FRAME
 62
     7
 10
480.82038620570688
 20
389.5795894215936
 30
0.0
 11
478.04734270755
 21
389.5795894215936
 31
0.0
  0
LINE
  5
4FD2
  8
01_FRAME
 62
     7
 10
476.2597609023743
 20
382.79854367827971
 30
0.0
 11
478.92394528720661
 21
388.01251682565942
 31
0.0
  0
LINE
  5
4FD3
  8
01_FRAME
 62
     7
 10
473.6643297098023
 20
388.04708459656371
 30
0.0
 11
474.73000344384212
 21
382.79854367827971
 31
0.0
  0
LINE
  5
4FD4
  8
01_FRAME
 62
     7
 10
475.83578319841098
 20
385.2067655319745
 30
0.0
 11
475.00501601395069
 21
389.5795894215936
 31
0.0
  0
LINE
  5
4FD5
  8
01_FRAME
 62
     7
 10
478.04734270755
 20
389.5795894215936
 30
0.0
 11
475.83578319841098
 21
385.2067655319745
 31
0.0
  0
LINE
  5
4FD6
  8
01_FRAME
 62
     7
 10
474.73000344384212
 20
382.79854367827971
 30
0.0
 11
476.2597609023743
 21
382.79854367827971
 31
0.0
  0
LINE
  5
4FD7
  8
01_FRAME
 62
     7
 10
481.93026492844149
 20
386.18920095415717
 30
0.0
 11
481.44580144595852
 21
383.00627028769912
 31
0.0
  0
LINE
  5
4FD8
  8
01_FRAME
 62
     7
 10
483.05058748946971
 20
382.97167966864782
 30
0.0
 11
483.19909781612762
 21
384.15950599677342
 31
0.0
  0
LINE
  5
4FD9
  8
01_FRAME
 62
     7
 10
483.44995761207417
 20
385.95554002460079
 30
0.0
 11
483.35389562069372
 21
385.15128257446253
 31
0.0
  0
LINE
  5
4FDA
  8
01_FRAME
 62
     7
 10
496.02592525667558
 20
386.18581048646467
 30
0.0
 11
498.19470617765739
 21
386.18581048646467
 31
0.0
  0
LINE
  5
4FDB
  8
01_FRAME
 62
     7
 10
492.76516641502673
 20
381.94529336572288
 30
0.0
 11
492.83437546263912
 21
382.544975954336
 31
0.0
  0
LINE
  5
4FDC
  8
01_FRAME
 62
     7
 10
494.78361389010132
 20
389.9679940956284
 30
0.0
 11
493.71677018037582
 21
381.41098484087041
 31
0.0
  0
LINE
  5
4FDD
  8
01_FRAME
 62
     7
 10
495.35212927136081
 20
381.41098484087041
 30
0.0
 11
496.02592525667558
 21
386.18581048646467
 31
0.0
  0
LINE
  5
4FDE
  8
01_FRAME
 62
     7
 10
486.56727241150878
 20
381.94529336572378
 30
0.0
 11
486.63648150885399
 21
382.61417013169398
 31
0.0
  0
LINE
  5
4FDF
  8
01_FRAME
 62
     7
 10
490.6196852925226
 20
381.43786966367787
 30
0.0
 11
492.05909347580717
 21
381.43786966367787
 31
0.0
  0
LINE
  5
4FE0
  8
01_FRAME
 62
     7
 10
489.42006145244869
 20
381.43786966367787
 30
0.0
 11
490.6196852925226
 21
381.43786966367787
 31
0.0
  0
LINE
  5
4FE1
  8
01_FRAME
 62
     7
 10
493.71677018037582
 20
381.41098484087041
 30
0.0
 11
495.35212927136081
 21
381.41098484087041
 31
0.0
  0
LINE
  5
4FE2
  8
01_FRAME
 62
     7
 10
493.71677018037582
 20
381.41098484087041
 30
0.0
 11
493.71677018037582
 21
381.41098484087041
 31
0.0
  0
LINE
  5
4FE3
  8
01_FRAME
 62
     7
 10
492.74213223470758
 20
387.55001909583871
 30
0.0
 11
490.45819746502872
 21
387.55001909583848
 31
0.0
  0
LINE
  5
4FE4
  8
01_FRAME
 62
     7
 10
490.55047624491101
 20
386.3967833867643
 30
0.0
 11
493.45873702338258
 21
386.3967833867643
 31
0.0
  0
LINE
  5
4FE5
  8
01_FRAME
 62
     7
 10
492.84559154374517
 20
382.61417013169398
 30
0.0
 11
490.6196852925226
 21
382.61417013169398
 31
0.0
  0
LINE
  5
4FE6
  8
01_FRAME
 62
     7
 10
486.98252684638078
 20
384.15950599677342
 30
0.0
 11
487.30669210497882
 21
386.33557482557961
 31
0.0
  0
LINE
  5
4FE7
  8
01_FRAME
 62
     7
 10
486.98252684638078
 20
384.15950599677342
 30
0.0
 11
486.98252684638078
 21
384.15950599677342
 31
0.0
  0
LINE
  5
4FE8
  8
01_FRAME
 62
     7
 10
485.59076843035689
 20
385.15128257446253
 30
0.0
 11
485.71462439508099
 21
386.05140638926258
 31
0.0
  0
LINE
  5
4FE9
  8
01_FRAME
 62
     7
 10
488.58955268217289
 20
386.18920095415717
 30
0.0
 11
488.22043766210822
 21
383.69821171314368
 31
0.0
  0
LINE
  5
4FEA
  8
01_FRAME
 62
     7
 10
489.7090742777134
 20
382.97167966864782
 30
0.0
 11
490.11215212750182
 21
385.95855376260891
 31
0.0
  0
LINE
  5
4FEB
  8
01_FRAME
 62
     7
 10
488.22043766210822
 20
383.69821171314368
 30
0.0
 11
488.10508919968879
 21
383.00627028769912
 31
0.0
  0
LINE
  5
4FEC
  8
01_FRAME
 62
     7
 10
490.6196852925226
 20
382.61417013169398
 30
0.0
 11
490.2266996244345
 21
382.61417013169398
 31
0.0
  0
LINE
  5
4FED
  8
01_FRAME
 62
     7
 10
493.45873702338258
 20
386.3967833867643
 30
0.0
 11
493.52337192103982
 21
386.79552859281807
 31
0.0
  0
LINE
  5
4FEE
  8
01_FRAME
 62
     7
 10
492.83437546263912
 20
382.544975954336
 30
0.0
 11
492.84559154374517
 21
382.61417013169398
 31
0.0
  0
LINE
  5
4FEF
  8
01_FRAME
 62
     7
 10
496.16583922866829
 20
386.90428323570927
 30
0.0
 11
496.5312722456614
 21
389.9679940956284
 31
0.0
  0
LINE
  5
4FF0
  8
01_FRAME
 62
     7
 10
496.5312722456614
 20
389.9679940956284
 30
0.0
 11
494.78361389010132
 21
389.9679940956284
 31
0.0
  0
LINE
  5
4FF1
  8
01_FRAME
 62
     7
 10
499.2966433889128
 20
381.41098484087041
 30
0.0
 11
499.90681084836228
 21
386.23769146582521
 31
0.0
  0
LINE
  5
4FF2
  8
01_FRAME
 62
     7
 10
498.19470617765739
 20
386.18581048646467
 30
0.0
 11
497.59109724513451
 21
381.41098484087041
 31
0.0
  0
LINE
  5
4FF3
  8
01_FRAME
 62
     7
 10
502.27721615478657
 20
380.4248895954878
 30
0.0
 11
503.36007816202448
 21
388.04708459656371
 31
0.0
  0
LINE
  5
4FF4
  8
01_FRAME
 62
     7
 10
501.88761499722108
 20
389.5795894215936
 30
0.0
 11
500.59276408826878
 21
380.4248895954878
 31
0.0
  0
LINE
  5
4FF5
  8
01_FRAME
 62
     7
 10
497.59109724513451
 20
381.41098484087041
 30
0.0
 11
499.2966433889128
 21
381.41098484087041
 31
0.0
  0
LINE
  5
4FF6
  8
01_FRAME
 62
     7
 10
500.59276408826878
 20
380.4248895954878
 30
0.0
 11
502.27721615478657
 21
380.4248895954878
 31
0.0
  0
LINE
  5
4FF7
  8
01_FRAME
 62
     7
 10
504.70076446617338
 20
389.5795894215936
 30
0.0
 11
501.88761499722108
 21
389.5795894215936
 31
0.0
  0
LINE
  5
4FF8
  8
01_FRAME
 62
     7
 10
503.36007816202448
 20
388.04708459656371
 30
0.0
 11
504.42575189606458
 21
382.79854367827971
 31
0.0
  0
LINE
  5
4FF9
  8
01_FRAME
 62
     7
 10
505.53153165063441
 20
385.2067655319745
 30
0.0
 11
504.70076446617338
 21
389.5795894215936
 31
0.0
  0
LINE
  5
4FFA
  8
01_FRAME
 62
     7
 10
507.74309115977331
 20
389.5795894215936
 30
0.0
 11
505.53153165063441
 21
385.2067655319745
 31
0.0
  0
LINE
  5
4FFB
  8
01_FRAME
 62
     7
 10
504.42575189606458
 20
382.79854367827971
 30
0.0
 11
505.95550935459772
 21
382.79854367827971
 31
0.0
  0
LINE
  5
4FFC
  8
01_FRAME
 62
     7
 10
520.84625303158896
 20
389.34575134205261
 30
0.0
 11
519.29140291991973
 21
389.16871169137238
 31
0.0
  0
LINE
  5
4FFD
  8
01_FRAME
 62
     7
 10
519.95814885731863
 20
382.96836409929239
 30
0.0
 11
520.45406832898755
 21
386.46266194503261
 31
0.0
  0
LINE
  5
4FFE
  8
01_FRAME
 62
     7
 10
519.66969887405253
 20
381.43455409432289
 30
0.0
 11
521.27059487968381
 21
381.43455409432289
 31
0.0
  0
LINE
  5
4FFF
  8
01_FRAME
 62
     7
 10
516.32210401422822
 20
381.4587720688308
 30
0.0
 11
516.26192319631468
 21
382.140674476291
 31
0.0
  0
ARC
  5
5000
  8
01_FRAME
 62
     7
 10
517.75611548503093
 20
382.27254336701662
 30
0.0
 40
1.5
 50
171.34562025559259
 51
185.04353146783211
  0
LINE
  5
5001
  8
01_FRAME
 62
     7
 10
509.20409547577827
 20
380.4248895954878
 30
0.0
 11
510.5161346579294
 21
389.5795894215936
 31
0.0
  0
LINE
  5
5002
  8
01_FRAME
 62
     7
 10
512.35411747394267
 20
381.43570730988972
 30
0.0
 11
513.83057760393115
 21
381.43570730988972
 31
0.0
  0
LINE
  5
5003
  8
01_FRAME
 62
     7
 10
514.73029547155295
 20
381.4587720688308
 30
0.0
 11
516.32210401422822
 21
381.4587720688308
 31
0.0
  0
LINE
  5
5004
  8
01_FRAME
 62
     7
 10
519.6696988740523
 20
381.43455409432289
 30
0.0
 11
519.7850473364731
 21
381.43455409432289
 31
0.0
  0
LINE
  5
5005
  8
01_FRAME
 62
     7
 10
515.00713176146769
 20
385.1260617281273
 30
0.0
 11
512.79244159135169
 21
385.1260617281273
 31
0.0
  0
LINE
  5
5006
  8
01_FRAME
 62
     7
 10
511.61588743381498
 20
386.39462103297541
 30
0.0
 11
514.73288318750929
 21
386.39462103297541
 31
0.0
  0
LINE
  5
5007
  8
01_FRAME
 62
     7
 10
515.58827950692546
 20
387.57092150099169
 30
0.0
 11
512.4002568887513
 21
387.57092150099169
 31
0.0
  0
LINE
  5
5008
  8
01_FRAME
 62
     7
 10
511.68509653116013
 20
387.06349779894549
 30
0.0
 11
511.61588743381498
 21
386.39462103297541
 31
0.0
  0
LINE
  5
5009
  8
01_FRAME
 62
     7
 10
512.93077061425015
 20
382.42357191659028
 30
0.0
 11
514.042345441164
 21
382.40183523546892
 31
0.0
  0
LINE
  5
500A
  8
01_FRAME
 62
     7
 10
514.41428341472988
 20
384.06106904178381
 30
0.0
 11
513.23267984369045
 21
384.06106904178381
 31
0.0
  0
LINE
  5
500B
  8
01_FRAME
 62
     7
 10
517.95439965206867
 20
387.59283299463272
 30
0.0
 11
517.75491467638881
 21
386.46266194503261
 31
0.0
  0
LINE
  5
500C
  8
01_FRAME
 62
     7
 10
516.27319446867784
 20
382.49825393225171
 30
0.0
 11
516.86044203742927
 21
386.35647723073367
 31
0.0
  0
LINE
  5
500D
  8
01_FRAME
 62
     7
 10
514.6393023469941
 20
382.98148023113652
 30
0.0
 11
514.77329014630789
 21
383.72220163482802
 31
0.0
  0
LINE
  5
500E
  8
01_FRAME
 62
     7
 10
515.12248017415425
 20
385.95639145855421
 30
0.0
 11
515.00713176146769
 21
385.1260617281273
 31
0.0
  0
LINE
  5
500F
  8
01_FRAME
 62
     7
 10
515.13120207000293
 20
386.05575362601911
 30
0.0
 11
515.12248017415425
 21
385.95639145855421
 31
0.0
  0
LINE
  5
5010
  8
01_FRAME
 62
     7
 10
518.88532946885107
 20
386.46266194503261
 30
0.0
 11
518.35472662129246
 21
383.00295471834357
 31
0.0
  0
LINE
  5
5011
  8
01_FRAME
 62
     7
 10
517.75491467638881
 20
386.46266194503261
 30
0.0
 11
518.88532946885107
 21
386.46266194503261
 31
0.0
  0
LINE
  5
5012
  8
01_FRAME
 62
     7
 10
519.29140291991973
 20
389.16871169137238
 30
0.0
 11
519.04681729634558
 21
387.59283299463272
 31
0.0
  0
LINE
  5
5013
  8
01_FRAME
 62
     7
 10
519.04681729634558
 20
387.59283299463272
 30
0.0
 11
517.95439965206867
 21
387.59283299463272
 31
0.0
  0
LINE
  5
5014
  8
01_FRAME
 62
     7
 10
521.97666781890473
 20
381.94197779636897
 30
0.0
 11
522.04587687166349
 21
382.61085456233849
 31
0.0
  0
LINE
  5
5015
  8
01_FRAME
 62
     7
 10
522.53034035414635
 20
386.46266194503261
 30
0.0
 11
522.66875849910446
 21
387.59283299463272
 31
0.0
  0
LINE
  5
5016
  8
01_FRAME
 62
     7
 10
522.04587687166349
 20
382.61085456233849
 30
0.0
 11
520.47577420404207
 21
382.61085456233849
 31
0.0
  0
LINE
  5
5017
  8
01_FRAME
 62
     7
 10
520.45406832898755
 20
386.46266194503261
 30
0.0
 11
522.53034035414635
 21
386.46266194503261
 31
0.0
  0
LINE
  5
5018
  8
01_FRAME
 62
     7
 10
520.59248647394566
 20
387.59283299463272
 30
0.0
 11
520.84625303158896
 21
389.34575134205261
 31
0.0
  0
LINE
  5
5019
  8
01_FRAME
 62
     7
 10
522.66875849910446
 20
387.59283299463272
 30
0.0
 11
520.59248647394566
 21
387.59283299463272
 31
0.0
  0
ARC
  5
501A
  8
01_FRAME
 62
     7
 10
483.97892422522432
 20
385.87951781384731
 30
0.0
 40
0.5344015852852304
 50
129.97886730759609
 51
171.82154662072941
  0
ARC
  5
501B
  8
01_FRAME
 62
     7
 10
483.90187779346769
 20
385.99024162144582
 30
0.0
 40
0.4002362506024639
 50
91.8297580244042
 51
131.71149876918361
  0
ARC
  5
501C
  8
01_FRAME
 62
     7
 10
490.64030216973669
 20
385.88602740439319
 30
0.0
 40
0.5344015852852304
 50
129.97886730759609
 51
171.82154662072941
  0
ARC
  5
501D
  8
01_FRAME
 62
     7
 10
490.56325573798028
 20
385.99675121199169
 30
0.0
 40
0.4002362506024639
 50
91.8297580244042
 51
131.71149876918361
  0
ARC
  5
501E
  8
01_FRAME
 62
     7
 10
485.33596158804528
 20
385.97981215549902
 30
0.0
 40
0.4109320136036884
 50
41.694258406700641
 51
92.74167022804761
  0
ARC
  5
501F
  8
01_FRAME
 62
     7
 10
485.43028924385658
 20
386.06383807649257
 30
0.0
 40
0.2846067902725082
 50
357.49651121806892
 51
41.694258406701849
  0
ARC
  5
5020
  8
01_FRAME
 62
     7
 10
514.75253926296716
 20
385.984159392256
 30
0.0
 40
0.4109320136036884
 50
41.694258406700641
 51
92.74167022804761
  0
ARC
  5
5021
  8
01_FRAME
 62
     7
 10
514.84686691877835
 20
386.06818531324961
 30
0.0
 40
0.2846067902725082
 50
357.49651121806892
 51
41.694258406701849
  0
ARC
  5
5022
  8
01_FRAME
 62
     7
 10
483.56494867859521
 20
383.36169452725647
 30
0.0
 40
0.7475315222021212
 50
242.05494587004509
 51
270.25018750737581
  0
ARC
  5
5023
  8
01_FRAME
 62
     7
 10
483.35932188156858
 20
382.9740704592607
 30
0.0
 40
0.3087436489135027
 50
180.44368064352511
 51
242.05494587004509
  0
ARC
  5
5024
  8
01_FRAME
 62
     7
 10
490.22343546683908
 20
383.36169452725647
 30
0.0
 40
0.7475315222021212
 50
242.05494587004509
 51
270.25018750737581
  0
ARC
  5
5025
  8
01_FRAME
 62
     7
 10
490.0178086698121
 20
382.9740704592607
 30
0.0
 40
0.3087436489135027
 50
180.44368064352511
 51
242.05494587004509
  0
ARC
  5
5026
  8
01_FRAME
 62
     7
 10
483.39128472655671
 20
385.95711189269082
 30
0.0
 40
1.4793391034300649
 50
116.43431189309101
 51
170.97374799139581
  0
ARC
  5
5027
  8
01_FRAME
 62
     7
 10
483.8803064053626
 20
384.97346362237272
 30
0.0
 40
2.5778408658510652
 50
91.809445418533045
 51
116.43431189309101
  0
ARC
  5
5028
  8
01_FRAME
 62
     7
 10
490.05057248028771
 20
385.95711189269082
 30
0.0
 40
1.4793391034300649
 50
116.43431189309101
 51
170.97374799139581
  0
ARC
  5
5029
  8
01_FRAME
 62
     7
 10
490.53959415909361
 20
384.97346362237272
 30
0.0
 40
2.5778408658510652
 50
91.809445418533045
 51
116.43431189309101
  0
ARC
  5
502A
  8
01_FRAME
 62
     7
 10
485.88564660785369
 20
385.89713584158193
 30
0.0
 40
1.6595750028100089
 50
44.532575507646193
 51
84.852989749604887
  0
ARC
  5
502B
  8
01_FRAME
 62
     7
 10
486.45596576748329
 20
386.45822466108001
 30
0.0
 40
0.8595221250536194
 50
351.79615361498588
 51
44.532575507646193
  0
ARC
  5
502C
  8
01_FRAME
 62
     7
 10
482.78351580582711
 20
382.77066458518169
 30
0.0
 40
1.3329889370217369
 50
213.3781401444177
 51
269.02243001405742
  0
ARC
  5
502D
  8
01_FRAME
 62
     7
 10
482.86583979262417
 20
382.82490219957009
 30
0.0
 40
1.4315737107786779
 50
172.7215570745241
 51
213.3781401444177
  0
ARC
  5
502E
  8
01_FRAME
 62
     7
 10
485.85665576310339
 20
382.2725785750003
 30
0.0
 40
0.8347212779929797
 50
269.68811547985359
 51
309.85159843339238
  0
ARC
  5
502F
  8
01_FRAME
 62
     7
 10
486.0684284074552
 20
382.01886610229678
 30
0.0
 40
0.5042403077373966
 50
309.85159843339238
 51
351.61013221800221
  0
ARC
  5
5030
  8
01_FRAME
 62
     7
 10
489.44280355955738
 20
382.77066458518198
 30
0.0
 40
1.3329889370217369
 50
213.3781401444177
 51
269.02243001405742
  0
ARC
  5
5031
  8
01_FRAME
 62
     7
 10
489.5251275463545
 20
382.82490219957032
 30
0.0
 40
1.4315737107786779
 50
172.7215570745241
 51
213.3781401444177
  0
ARC
  5
5032
  8
01_FRAME
 62
     7
 10
492.05454976662139
 20
382.2725785750003
 30
0.0
 40
0.8347212779929797
 50
269.68811547985359
 51
309.85159843339238
  0
ARC
  5
5033
  8
01_FRAME
 62
     7
 10
492.26632241097332
 20
382.01886610229678
 30
0.0
 40
0.5042403077373966
 50
309.85159843339238
 51
351.61013221800221
  0
ARC
  5
5034
  8
01_FRAME
 62
     7
 10
492.76494072403659
 20
386.76772604481931
 30
0.0
 40
0.7826254818612261
 50
29.01713856845949
 51
91.670039206065866
  0
ARC
  5
5035
  8
01_FRAME
 62
     7
 10
492.9156748589462
 20
386.8513382919578
 30
0.0
 40
0.6102544074360337
 50
354.75278767925619
 51
29.01713856845949
  0
LINE
  5
5036
  8
01_FRAME
 62
     7
 10
524.95516949672765
 20
384.15950599677342
 30
0.0
 11
528.73859852698092
 21
384.15950599677342
 31
0.0
  0
LINE
  5
5037
  8
01_FRAME
 62
     7
 10
528.39255318945413
 20
382.61417013169398
 30
0.0
 11
525.32428451679095
 21
382.61417013169398
 31
0.0
  0
LINE
  5
5038
  8
01_FRAME
 62
     7
 10
524.51684537931862
 20
381.43786966367787
 30
0.0
 11
527.61727115288625
 21
381.43786966367787
 31
0.0
  0
LINE
  5
5039
  8
01_FRAME
 62
     7
 10
527.79060125507522
 20
387.55001909583848
 30
0.0
 11
525.55498139189785
 21
387.55001909583848
 31
0.0
  0
LINE
  5
503A
  8
01_FRAME
 62
     7
 10
525.10996730129375
 20
385.15128257446253
 30
0.0
 11
527.34684011095703
 21
385.15128257446253
 31
0.0
  0
LINE
  5
503B
  8
01_FRAME
 62
     7
 10
527.07237719318755
 20
386.39027379621831
 30
0.0
 11
525.64516998099884
 21
386.39027379621831
 31
0.0
  0
LINE
  5
503C
  8
01_FRAME
 62
     7
 10
523.68633660904163
 20
386.18920095415717
 30
0.0
 11
523.20187312655855
 21
383.00627028769912
 31
0.0
  0
LINE
  5
503D
  8
01_FRAME
 62
     7
 10
524.80665917006968
 20
382.97167966864782
 30
0.0
 11
524.95516949672765
 21
384.15950599677342
 31
0.0
  0
LINE
  5
503E
  8
01_FRAME
 62
     7
 10
525.20602929267432
 20
385.95554002460079
 30
0.0
 11
525.10996730129375
 21
385.15128257446253
 31
0.0
  0
LINE
  5
503F
  8
01_FRAME
 62
     7
 10
528.32334409210887
 20
381.94529336572378
 30
0.0
 11
528.39255318945413
 21
382.61417013169398
 31
0.0
  0
LINE
  5
5040
  8
01_FRAME
 62
     7
 10
528.73859852698092
 20
384.15950599677342
 30
0.0
 11
529.06276378557891
 21
386.33557482557961
 31
0.0
  0
LINE
  5
5041
  8
01_FRAME
 62
     7
 10
528.73859852698092
 20
384.15950599677342
 30
0.0
 11
528.73859852698092
 21
384.15950599677342
 31
0.0
  0
LINE
  5
5042
  8
01_FRAME
 62
     7
 10
527.34684011095703
 20
385.15128257446253
 30
0.0
 11
527.47069607568119
 21
386.05140638926258
 31
0.0
  0
ARC
  5
5043
  8
01_FRAME
 62
     7
 10
525.73499590582435
 20
385.87951781384731
 30
0.0
 40
0.5344015852852304
 50
129.97886730759609
 51
171.82154662072941
  0
ARC
  5
5044
  8
01_FRAME
 62
     7
 10
525.65794947406778
 20
385.99024162144582
 30
0.0
 40
0.4002362506024639
 50
91.8297580244042
 51
131.71149876918361
  0
ARC
  5
5045
  8
01_FRAME
 62
     7
 10
527.09203326864554
 20
385.97981215549902
 30
0.0
 40
0.4109320136036884
 50
41.694258406700641
 51
92.74167022804761
  0
ARC
  5
5046
  8
01_FRAME
 62
     7
 10
527.18636092445684
 20
386.06383807649257
 30
0.0
 40
0.2846067902725082
 50
357.49651121806892
 51
41.694258406701849
  0
ARC
  5
5047
  8
01_FRAME
 62
     7
 10
525.32102035919547
 20
383.36169452725647
 30
0.0
 40
0.7475315222021212
 50
242.05494587004509
 51
270.25018750737581
  0
ARC
  5
5048
  8
01_FRAME
 62
     7
 10
525.11539356216872
 20
382.9740704592607
 30
0.0
 40
0.3087436489135027
 50
180.44368064352511
 51
242.05494587004509
  0
ARC
  5
5049
  8
01_FRAME
 62
     7
 10
525.14735640715685
 20
385.95711189269082
 30
0.0
 40
1.4793391034300649
 50
116.43431189309101
 51
170.97374799139581
  0
ARC
  5
504A
  8
01_FRAME
 62
     7
 10
525.63637808596275
 20
384.97346362237272
 30
0.0
 40
2.5778408658510652
 50
91.809445418533045
 51
116.43431189309101
  0
ARC
  5
504B
  8
01_FRAME
 62
     7
 10
527.64171828845383
 20
385.89713584158193
 30
0.0
 40
1.6595750028100089
 50
44.532575507646193
 51
84.852989749604887
  0
ARC
  5
504C
  8
01_FRAME
 62
     7
 10
528.21203744808338
 20
386.45822466108001
 30
0.0
 40
0.8595221250536194
 50
351.79615361498588
 51
44.532575507646193
  0
ARC
  5
504D
  8
01_FRAME
 62
     7
 10
524.53958748642719
 20
382.77066458518169
 30
0.0
 40
1.3329889370217369
 50
213.3781401444177
 51
269.02243001405742
  0
ARC
  5
504E
  8
01_FRAME
 62
     7
 10
524.62191147322437
 20
382.82490219957009
 30
0.0
 40
1.4315737107786779
 50
172.7215570745241
 51
213.3781401444177
  0
ARC
  5
504F
  8
01_FRAME
 62
     7
 10
527.61272744370353
 20
382.2725785750003
 30
0.0
 40
0.8347212779929797
 50
269.68811547985359
 51
309.85159843339238
  0
ARC
  5
5050
  8
01_FRAME
 62
     7
 10
527.8245000880554
 20
382.01886610229678
 30
0.0
 40
0.5042403077373966
 50
309.85159843339238
 51
351.61013221800221
  0
LINE
  5
5051
  8
01_FRAME
 62
     7
 10
497.92050263914672
 20
387.55001909583871
 30
0.0
 11
498.87719411374297
 21
387.55001909583871
 31
0.0
  0
ARC
  5
5052
  8
01_FRAME
 62
     7
 10
498.59831791912069
 20
386.32546723778052
 30
0.0
 40
1.311433693336219
 50
356.1622582756836
 51
57.030568872283979
  0
ARC
  5
5053
  8
01_FRAME
 62
     7
 10
498.8914681252931
 20
386.77740666861388
 30
0.0
 40
0.7727442721287569
 50
57.030568872283979
 51
91.058418890038453
  0
ARC
  5
5054
  8
01_FRAME
 62
     7
 10
498.03631818598149
 20
384.1197029959925
 30
0.0
 40
3.4322706457608949
 50
91.933705877954836
 51
118.1284095954894
  0
ARC
  5
5055
  8
01_FRAME
 62
     7
 10
496.72272571825943
 20
386.5769099117428
 30
0.0
 40
0.6459844081199181
 50
118.1284095954894
 51
149.55027737968859
  0
ARC
  5
5056
  8
01_FRAME
 62
     7
 10
521.26605117049905
 20
382.2692630056452
 30
0.0
 40
0.8347212779929797
 50
269.68811547985359
 51
309.85159843339238
  0
ARC
  5
5057
  8
01_FRAME
 62
     7
 10
521.47782381485104
 20
382.0155505329418
 30
0.0
 40
0.5042403077373966
 50
309.85159843339238
 51
351.61013221800221
  0
ARC
  5
5058
  8
01_FRAME
 62
     7
 10
519.69244098116121
 20
382.76734901582671
 30
0.0
 40
1.3329889370217369
 50
213.3781401444177
 51
269.02243001405742
  0
ARC
  5
5059
  8
01_FRAME
 62
     7
 10
519.77476496795828
 20
382.82158663021499
 30
0.0
 40
1.4315737107786779
 50
172.7215570745241
 51
213.3781401444177
  0
ARC
  5
505A
  8
01_FRAME
 62
     7
 10
520.47251004644443
 20
383.35837895790092
 30
0.0
 40
0.7475315222021212
 50
242.05494587004509
 51
270.25018750737581
  0
ARC
  5
505B
  8
01_FRAME
 62
     7
 10
520.26688324941745
 20
382.97075488990498
 30
0.0
 40
0.3087436489135027
 50
180.44368064352511
 51
242.05494587004509
  0
ARC
  5
505C
  8
01_FRAME
 62
     7
 10
515.43939654030407
 20
385.91803824673508
 30
0.0
 40
1.6595750028100089
 50
44.532575507646193
 51
84.852989749604887
  0
ARC
  5
505D
  8
01_FRAME
 62
     7
 10
516.00971569993385
 20
386.4791270662331
 30
0.0
 40
0.8595221250536194
 50
351.79615361498588
 51
44.532575507646193
  0
ARC
  5
505E
  8
01_FRAME
 62
     7
 10
512.39826534763188
 20
386.74239676752018
 30
0.0
 40
0.8285271270211193
 50
89.862277278532488
 51
130.98420927743871
  0
ARC
  5
505F
  8
01_FRAME
 62
     7
 10
512.19125552926471
 20
386.98066691604498
 30
0.0
 40
0.5128916908317671
 50
130.98420927743871
 51
170.70615505545081
  0
ARC
  5
5060
  8
01_FRAME
 62
     7
 10
516.14699780596459
 20
382.20020799484138
 30
0.0
 40
1.5989911621726169
 50
189.2518512240423
 51
207.62546243340469
  0
ARC
  5
5061
  8
01_FRAME
 62
     7
 10
513.63937806320939
 20
382.50459789832848
 30
0.0
 40
1.0858565072906701
 50
280.14161684222302
 51
328.86389698782398
  0
ARC
  5
5062
  8
01_FRAME
 62
     7
 10
512.83261823914506
 20
383.2260805576733
 30
0.0
 40
1.90040590693345
 50
91.211385343635285
 51
150.30133372258419
  0
ARC
  5
5063
  8
01_FRAME
 62
     7
 10
513.61109199997088
 20
382.78207098049472
 30
0.0
 40
2.7966011428728081
 50
150.30133372258419
 51
172.8407731250214
  0
ARC
  5
5064
  8
01_FRAME
 62
     7
 10
512.57221047955909
 20
382.91256121180533
 30
0.0
 40
1.7495564857925161
 50
172.84077312502299
 51
205.6306489595656
  0
ARC
  5
5065
  8
01_FRAME
 62
     7
 10
511.85352135659821
 20
382.56775026171368
 30
0.0
 40
0.9524312467206119
 50
205.6306489595656
 51
237.51101652277629
  0
ARC
  5
5066
  8
01_FRAME
 62
     7
 10
512.4834885128771
 20
383.55702031991427
 30
0.0
 40
2.1252542794251319
 50
237.51101652277629
 51
266.51006466087739
  0
ARC
  5
5067
  8
01_FRAME
 62
     7
 10
514.39462733927212
 20
383.65060740106441
 30
0.0
 40
0.4109320136036884
 50
41.694258406700641
 51
92.74167022804761
  0
ARC
  5
5068
  8
01_FRAME
 62
     7
 10
514.48895499508353
 20
383.73463332205802
 30
0.0
 40
0.2846067902725082
 50
357.49651121806892
 51
41.694258406701849
  0
ARC
  5
5069
  8
01_FRAME
 62
     7
 10
513.92725281160858
 20
383.09281971213738
 30
0.0
 40
0.7005040045388079
 50
279.45655767728761
 51
324.92940398282752
  0
ARC
  5
506A
  8
01_FRAME
 62
     7
 10
513.70873549189207
 20
383.24622878270992
 30
0.0
 40
0.9674949443663242
 50
324.92940398282752
 51
344.11881738719762
  0
ARC
  5
506B
  8
01_FRAME
 62
     7
 10
513.22392736534357
 20
383.28320059852649
 30
0.0
 40
0.7779176825942626
 50
89.3553422660856
 51
126.2501753015424
  0
ARC
  5
506C
  8
01_FRAME
 62
     7
 10
513.0971808202097
 20
383.46504624408402
 30
0.0
 40
0.5563481803435562
 50
126.7974170349532
 51
163.58374767657671
  0
ARC
  5
506D
  8
01_FRAME
 62
     7
 10
507.04872890128257
 20
385.03923635008692
 30
0.0
 40
5.693910184094757
 50
343.74206189480913
 51
345.59022698624977
  0
ARC
  5
506E
  8
01_FRAME
 62
     7
 10
514.12526490307778
 20
383.00728895672802
 30
0.0
 40
1.66878904183912
 50
164.78824619770899
 51
186.82014585811399
  0
ARC
  5
506F
  8
01_FRAME
 62
     7
 10
512.85602656965841
 20
382.84420652481072
 30
0.0
 40
0.3893267324102671
 50
185.1712957963212
 51
236.50138254922089
  0
ARC
  5
5070
  8
01_FRAME
 62
     7
 10
512.96302110455395
 20
383.00586610898102
 30
0.0
 40
0.583186608742703
 50
236.5013825492218
 51
266.829899612524
  0
CIRCLE
  5
5102
  8
0
 62
     2
 10
347.26664354479971
 20
552.11236484958386
 30
0.0
 40
4.0
  0
CIRCLE
  5
5103
  8
0
 62
     2
 10
347.25352600980199
 20
518.11236484958636
 30
0.0
 40
4.0
  0
LINE
  5
5104
  8
0
 62
     2
 10
371.25352600980273
 20
473.11236484958511
 30
0.0
 11
483.1089478956203
 21
473.11236484958511
 31
0.0
  0
ARC
  5
5106
  8
0
 62
     2
 10
476.22367934015438
 20
556.11236484958386
 30
0.0
 40
10.0
 50
3.1677227443021021
 51
65.707805112839353
  0
ARC
  5
5107
  8
0
 62
     2
 10
378.28337267944988
 20
556.11236484958511
 30
0.0
 40
10.0
 50
114.2921948871607
 51
176.83227725569779
  0
LINE
  5
511E
  8
0
 62
     2
 10
378.28337267945022
 20
526.11236484958636
 30
0.0
 11
476.22367934015318
 21
526.11236484958636
 31
0.0
  0
ARC
  5
511F
  8
0
 62
     2
 10
476.22367934015438
 20
536.11236484958522
 30
0.0
 40
10.0
 50
270.0
 51
356.83227725569787
  0
ARC
  5
5120
  8
0
 62
     2
 10
378.28337267944988
 20
536.11236484958386
 30
0.0
 40
10.0
 50
183.1677227443021
 51
270.0
  0
LINE
  5
5121
  8
0
 62
     2
 10
486.20839986496128
 20
556.66495515124893
 30
0.0
 11
486.20839986496128
 21
535.55977454791889
 31
0.0
  0
LINE
  5
5122
  8
0
 62
     2
 10
368.29865215464253
 20
556.66495515124984
 30
0.0
 11
368.29865215464253
 21
535.55977454791889
 31
0.0
  0
CIRCLE
  5
5123
  8
0
 62
     2
 10
328.25352600980199
 20
535.11236484958386
 30
0.0
 40
4.5
  0
CIRCLE
  5
5126
  8
0
 62
     2
 10
471.25352600980221
 20
491.11236484958391
 30
0.0
 40
4.0
  0
CIRCLE
  5
5127
  8
0
 62
     2
 10
383.25352600980142
 20
491.11236484958391
 30
0.0
 40
4.0
  0
CIRCLE
  5
5128
  8
0
 62
     2
 10
497.25352600980131
 20
584.50936484958402
 30
0.0
 40
4.0
  0
LINE
  5
5129
  8
0
 62
     2
 10
525.76853839017531
 20
556.16953678410289
 30
0.0
 11
525.76853839017531
 21
575.86623793960325
 31
0.0
  0
LINE
  5
512A
  8
0
 62
     2
 10
502.49693461551442
 20
594.86044928696606
 30
0.0
 11
519.10508042850961
 21
586.61432237698489
 31
0.0
  0
ARC
  5
512B
  8
0
 62
     2
 10
537.76853839017531
 20
556.16953678410289
 30
0.0
 40
12.0
 50
180.0
 51
241.32816999202001
  0
ARC
  5
512C
  8
0
 62
     2
 10
497.1603925771804
 20
584.11236484958386
 30
0.0
 40
12.0
 50
63.595096373945601
 51
89.999999999999986
  0
ARC
  5
512D
  8
0
 62
     2
 10
513.76853839017531
 20
575.86623793960325
 30
0.0
 40
12.0
 50
0.0
 51
63.595096373945601
  0
ARC
  5
5135
  8
0
 62
     2
 10
427.2535260098017
 20
563.95236484958389
 30
0.0
 40
23.0
 50
65.707805112839125
 51
114.2921948871608
  0
ARC
  5
5139
  8
0
 62
     2
 10
328.25352600980119
 20
535.11236484958533
 30
0.0
 40
12.0
 50
118.67183000798001
 51
241.32816999201609
  0
ARC
  5
513A
  8
0
 62
     2
 10
316.73851362942747
 20
556.16953678410312
 30
0.0
 40
12.0
 50
298.67183000798002
 51
0.0
  0
CIRCLE
  5
513B
  8
0
 62
     2
 10
357.2535260098017
 20
584.50936484958413
 30
0.0
 40
4.0
  0
LINE
  5
513C
  8
0
 62
     2
 10
328.73851362942781
 20
556.16953678410289
 30
0.0
 11
328.73851362942781
 21
575.86623793960325
 31
0.0
  0
ARC
  5
513D
  8
0
 62
     2
 10
340.73851362942759
 20
575.86623793960325
 30
0.0
 40
12.0
 50
116.40490362605441
 51
180.0
  0
LINE
  5
513E
  8
0
 62
     2
 10
352.01011740408848
 20
594.86044928696606
 30
0.0
 11
335.4019715910934
 21
586.61432237698489
 31
0.0
  0
ARC
  5
513F
  8
0
 62
     2
 10
357.34665944242278
 20
584.11236484958386
 30
0.0
 40
12.0
 50
89.999999999999986
 51
116.40490362605441
  0
LINE
  5
5142
  8
0
 62
     2
 10
357.34665944242278
 20
596.11236484958397
 30
0.0
 11
497.16039257718029
 21
596.11236484958397
 31
0.0
  0
LINE
  5
516B
  8
0
 10
328.73851362942781
 20
566.11236484958636
 30
0.0
 11
342.21465302935621
 21
566.11236484958636
 31
0.0
  0
CIRCLE
  5
516C
  8
0
 62
     2
 10
507.24040847480359
 20
552.11236484958386
 30
0.0
 40
4.0
  0
CIRCLE
  5
516D
  8
0
 62
     2
 10
507.25352600980142
 20
518.11236484958636
 30
0.0
 40
4.0
  0
CIRCLE
  5
516E
  8
0
 62
     2
 10
526.25352600980125
 20
535.11236484958386
 30
0.0
 40
4.5
  0
LINE
  5
516F
  8
0
 10
525.76853839017554
 20
566.11236484958636
 30
0.0
 11
512.29239899024719
 21
566.11236484958636
 31
0.0
  0
INSERT
  5
5170
  8
50_DIMENSIONS
  2
*U3
 10
0.0
 20
0.0
 30
0.0
1001
ACAD
1000
DSTYLE
1002
{
1070
   147
1040
0.5
1070
    77
1070
     0
1002
}
  0
INSERT
  5
5171
  8
50_DIMENSIONS
  2
*U4
 10
0.0
 20
0.0
 30
0.0
  0
DIMENSION
  5
5172
  8
50_DIMENSIONS
  2
*D0
 10
292.51580098821461
 20
596.11236484958386
 30
0.0
 11
292.51580098821449
 21
534.61236484958465
 31
0.0
 70
     0
 13
371.25352600980273
 23
473.11236484958511
 33
0.0
 14
357.34665944242278
 24
596.11236484958386
 34
0.0
 50
90.0
  0
DIMENSION
  5
5182
  8
50_DIMENSIONS
  2
*D1
 10
538.25352600980216
 20
613.40161286171224
 30
0.0
 11
427.2535260098017
 21
613.40161286171224
 31
0.0
 70
     0
 13
316.25352600980119
 23
535.11236484958386
 33
0.0
 14
538.25352600980216
 24
535.11236484958386
 34
0.0
  0
TEXT
  5
5351
  8
62_TEXT
 62
     1
 10
417.6336382168829
 20
382.0478362840725
 30
0.0
 40
6.0
  1
OPTION
  7
MECHTRONICS
  0
LINE
  5
5352
  8
62_TEXT
 62
    40
 10
450.33073465395421
 20
380.86791898889481
 30
0.0
 11
418.14253138303968
 21
380.86791898889481
 31
0.0
  0
LINE
  5
5353
  8
62_TEXT
 62
    40
 10
450.33073465395421
 20
389.2250260135055
 30
0.0
 11
418.14253138303968
 21
389.2250260135055
 31
0.0
  0
ARC
  5
5354
  8
62_TEXT
 62
    40
 10
418.14253138303968
 20
388.02502601440523
 30
0.0
 40
1.1999999991000001
 50
90.0
 51
180.0
  0
ARC
  5
5355
  8
62_TEXT
 62
    40
 10
418.14253138303968
 20
382.0679189879969
 30
0.0
 40
1.1999999991000001
 50
180.0
 51
269.99999999994787
  0
LINE
  5
5356
  8
62_TEXT
 62
    40
 10
416.94253138394021
 20
382.0679189879969
 30
0.0
 11
416.94253138394021
 21
388.02502601440523
 31
0.0
  0
ARC
  5
5357
  8
62_TEXT
 62
    40
 10
450.33073465395228
 20
388.02502601440523
 30
0.0
 40
1.1999999991000001
 50
0.0
 51
89.999999999947889
  0
ARC
  5
5358
  8
62_TEXT
 62
    40
 10
450.33073465395228
 20
382.0679189879969
 30
0.0
 40
1.1999999991000001
 50
269.99999999994787
 51
0.0
  0
LINE
  5
5359
  8
62_TEXT
 62
    40
 10
451.5307346530526
 20
382.0679189879969
 30
0.0
 11
451.5307346530526
 21
388.02502601440523
 31
0.0
  0
ARC
  5
537B
  8
0
 62
     2
 10
316.73851362942531
 20
514.05519291506846
 30
0.0
 40
12.0
 50
15.65827641315513
 51
61.328169992014239
  0
ARC
  5
5388
  8
0
 62
     2
 10
347.25352600980199
 20
494.11236484958653
 30
0.0
 40
12.0
 50
195.65827641315531
 51
249.4439547804144
  0
CIRCLE
  5
5389
  8
0
 62
     2
 10
347.25352600980199
 20
494.11236484958653
 30
0.0
 40
4.5
  0
ARC
  5
53F8
  8
0
 62
     2
 10
371.25352600980273
 20
485.11236484958511
 30
0.0
 40
12.0
 50
249.4439547804144
 51
270.0
  0
LINE
  5
53FF
  8
0
 62
     2
 10
367.04004471074148
 20
473.87641471875679
 30
0.0
 11
343.0400447107408
 21
482.87641471875799
 31
0.0
  0
LINE
  5
5400
  8
0
 62
     2
 10
335.69886345567198
 20
490.8735729050203
 30
0.0
 11
328.29317618355537
 21
517.29398485963475
 31
0.0
  0
ARC
  5
5402
  8
0
 62
     2
 10
537.76853839017815
 20
514.05519291506846
 30
0.0
 40
12.0
 50
118.6718300079858
 51
164.34172358684489
  0
ARC
  5
5403
  8
0
 62
     2
 10
507.25352600980142
 20
494.11236484958653
 30
0.0
 40
12.0
 50
290.55604521958571
 51
344.34172358684458
  0
CIRCLE
  5
5404
  8
0
 62
     2
 10
507.25352600980142
 20
494.11236484958653
 30
0.0
 40
4.5
  0
ARC
  5
5405
  8
0
 62
     2
 10
483.25352600980079
 20
485.11236484958511
 30
0.0
 40
12.0
 50
270.0
 51
290.55604521958571
  0
LINE
  5
5406
  8
0
 62
     2
 10
487.46700730886192
 20
473.87641471875679
 30
0.0
 11
511.46700730886261
 21
482.87641471875799
 31
0.0
  0
LINE
  5
5407
  8
0
 62
     2
 10
518.80818856393148
 20
490.8735729050203
 30
0.0
 11
526.21387583604815
 21
517.29398485963475
 31
0.0
  0
ARC
  5
5408
  8
0
 62
     2
 10
526.25352600980204
 20
535.11236484958533
 30
0.0
 40
12.0
 50
298.67183000798389
 51
61.328169992020023
  0
LINE
  5
5409
  8
0
 62
     2
 10
374.16947068993983
 20
565.22695811646804
 30
0.0
 11
417.79155143392848
 21
584.91592936341431
 31
0.0
  0
LINE
  5
540A
  8
0
 62
     2
 10
480.33758132966358
 20
565.22695811646804
 30
0.0
 11
436.71550058567487
 21
584.91592936341431
 31
0.0
  0
TEXT
  5
540B
  8
62_TEXT
 10
597.51689591655145
 20
413.3486007898104
 30
0.0
 40
3.0
  1
27-06-08
  7
MECHTRONICS
  0
TEXT
  5
540C
  8
01_FRAME
 62
     7
 10
618.46379376035043
 20
413.27784708510131
 30
0.0
 40
3.0
  1
B
  7
MECHTRONICS
  0
TEXT
  5
540D
  8
01_FRAME
 62
     7
 10
544.35375557717896
 20
413.3486007898104
 30
0.0
 40
3.0
  1
Add handle points, simplify
  7
MECHTRONICS
  0
LINE
  5
540E
  8
01_FRAME
 62
     7
 10
520.19337697098422
 20
484.72014251622147
 30
0.0
 11
523.25920199159725
 21
490.03030721903872
 31
0.0
  0
LINE
  5
540F
  8
01_FRAME
 62
     7
 10
520.19337697098422
 20
484.72014251622147
 30
0.0
 11
526.32502701221006
 21
484.72014251622147
 31
0.0
  0
LINE
  5
5410
  8
01_FRAME
 62
     7
 10
526.32502701221006
 20
484.72014251622147
 30
0.0
 11
523.25920199159725
 21
490.03030721903872
 31
0.0
  0
TEXT
  5
5411
  8
01_FRAME
 62
     7
 10
521.5444724405545
 20
485.02577637393682
 30
0.0
 40
3.0
  1
B
  7
MECHTRONICS
  0
LINE
  5
5412
  8
01_FRAME
 62
     7
 10
453.12242461265907
 20
566.28625639642939
 30
0.0
 11
456.18824963327222
 21
571.59642109924653
 31
0.0
  0
LINE
  5
5413
  8
01_FRAME
 62
     7
 10
453.12242461265907
 20
566.28625639642939
 30
0.0
 11
459.25407465388508
 21
566.28625639642939
 31
0.0
  0
LINE
  5
5414
  8
01_FRAME
 62
     7
 10
459.25407465388508
 20
566.28625639642939
 30
0.0
 11
456.18824963327222
 21
571.59642109924653
 31
0.0
  0
TEXT
  5
5415
  8
01_FRAME
 62
     7
 10
454.47352008222941
 20
566.59189025414469
 30
0.0
 40
3.0
  1
B
  7
MECHTRONICS
  0
ENDSEC
  0
EOF
